<?xml version="1.0" standalone="no"?>
<!DOCTYPE svg PUBLIC "-//W3C//DTD SVG 1.1//EN" "http://www.w3.org/Graphics/SVG/1.1/DTD/svg11.dtd">
<svg xmlns="http://www.w3.org/2000/svg"><metadata>This SVG WebFont was generated by YouWorkForThem.
 Copyright (c)2016 Talbot Type. All Rights Reserved</metadata><defs><font horiz-adv-x="1464" id="ywftsvg"><font-face ascent="1618" bbox="-82 -434 2599 1892" cap-height="1552" descent="-430" font-family="" font-stretch="normal" font-weight="400" panose-1="2 11 5 3 3 6 0 6 0 4" underline-position="0" underline-thickness="0" unicode-range="U+0020-FB07" units-per-em="2048" x-height="1186"/><missing-glyph horiz-adv-x="886"/><glyph glyph-name=".notdef" horiz-adv-x="886"/><glyph glyph-name="glyph1" horiz-adv-x="0"/><glyph glyph-name="glyph2" horiz-adv-x="681"/><glyph glyph-name="space" horiz-adv-x="552" unicode=" "/><glyph d="M143 383l-20 1100q0 29 20.5 49t49 20t49 -20.5t20.5 -48.5l-20 -1100q0 -20 -14.5 -34.5t-35 -14.5t-35 14.5t-14.5 34.5zM88 86q0 45 31 76t76 31q41 0 71.5 -31t30.5 -76q0 -41 -30.5 -71.5t-71.5 -30.5q-45 0 -76 30.5t-31 71.5z" glyph-name="exclam" horiz-adv-x="385" unicode="!"/><glyph d="M102 1165v340q0 20 13.5 33.5t34 13.5t34 -13t13.5 -34v-340q0 -20 -13.5 -33.5t-34 -13.5t-34 13.5t-13.5 33.5zM276 1165v340q0 20 13.5 33.5t34 13.5t34 -13t13.5 -34v-340q0 -20 -13.5 -33.5t-34 -13.5t-34 13.5t-13.5 33.5z" glyph-name="quotedbl" horiz-adv-x="473" unicode="&quot;"/><glyph d="M610 41l109 483h-262l-109 -483q-4 -23 -24.5 -40t-43 -17t-35 17t-7.5 40l106 483h-264q-23 0 -39 16.5t-16 39t16 39t39 16.5h285l57 264h-342q-23 0 -38 16.5t-15 39t16 40t37 17.5h366l99 483q4 23 25.5 40t44 17t36 -17t8.5 -40l-98 -483h262l99 483q4 23 25.5 40 t44 17t35.5 -17t9 -40l-98 -483h252q23 0 39 -17.5t16 -40t-16.5 -39t-38.5 -16.5h-281l-57 -264h338q23 0 39 -16.5t16 -39t-16.5 -39t-38.5 -16.5h-356l-109 -483q-4 -23 -25.5 -40t-44 -17t-36 17t-9.5 40zM797 899h-262l-56 -264h260z" glyph-name="numbersign" horiz-adv-x="1269" unicode="#"/><glyph d="M401 1362q-141 -72 -141 -209q0 -88 48 -144.5t125 -84t169 -48t184.5 -48t169 -70.5t124.5 -129t48 -211q0 -217 -260 -373q-14 -8 -32 -8q-29 0 -49.5 20.5t-20.5 48.5q0 49 47 66q172 82 172 246q0 94 -48 156.5t-125 93t-169 53t-184 49.5t-169 67t-125 119.5 t-48 196.5q0 106 59.5 193.5t161.5 138.5q20 12 39 12q29 0 49 -20.5t20 -49.5q0 -49 -45 -65zM193 272q174 -139 413 -141q29 0 50.5 -21.5t21.5 -50.5v-149q0 -29 -21.5 -50.5t-50 -21.5t-50 21.5t-21.5 50.5v84q-244 25 -424 164q-29 18 -29 57q0 29 20.5 49.5t49.5 20.5 q23 -1 41 -13zM535 1477v137q0 29 21.5 50.5t50 21.5t50 -22t21.5 -50v-72q193 -16 369 -129q33 -23 32 -59q0 -29 -20.5 -49.5t-48.5 -20.5q-27 0 -41 12q-166 106 -363 109q-29 0 -50 21.5t-21 50.5z" glyph-name="dollar" horiz-adv-x="1210" unicode="$"/><glyph d="M877 1179.5q0 -161.5 -117 -277.5t-281 -116q-162 0 -279.5 116t-117.5 278q0 160 118.5 275.5t278.5 115.5q164 0 281 -115t117 -276.5zM737 1179.5q0 108.5 -74.5 183.5t-183.5 75q-104 0 -181 -76t-77 -182q0 -109 77 -184.5t181 -75.5q109 0 183.5 75.5t74.5 184z M383 12q-55 41 -18 97l950 1411q16 25 45 29.5t51 -11.5q25 -16 30 -44t-11 -52l-953 -1411q-16 -23 -42.5 -28t-51.5 9zM1700 358.5q0 -161.5 -117 -277.5t-280 -116q-162 0 -280 116t-118 277q0 160 119 276t279 116q164 0 280.5 -115t116.5 -276.5zM1561 358.5 q0 108.5 -75 183t-183 74.5q-104 0 -181.5 -75.5t-77.5 -182.5q0 -109 77 -184.5t182 -75.5q109 0 183.5 76t74.5 184.5z" glyph-name="percent" horiz-adv-x="1781" unicode="%"/><glyph d="M225 489.5q0 -155.5 105.5 -271.5t257.5 -116q86 0 172 45q23 14 41 15q29 0 49 -20.5t20 -49.5q0 -41 -34 -61q-109 -66 -248 -66q-211 0 -358.5 154.5t-147.5 369.5q0 213 147.5 367t358.5 154q86 0 147.5 62.5t61.5 148.5q0 88 -60.5 150.5t-148.5 62.5 q-86 0 -146.5 -62.5t-60.5 -150.5q0 -31 16 -101q6 -25 -17.5 -47t-51.5 -22q-53 0 -66 43q-25 68 -24 127q0 143 102 246.5t247.5 103.5t249 -103.5t103.5 -247t-103.5 -247t-248.5 -103.5q-152 0 -257.5 -112.5t-105.5 -268zM1194 -16q-102 0 -174 71.5t-72 171.5v541 q0 100 72 172t174 72h16q29 0 49.5 -20.5t20.5 -49.5t-20.5 -49.5t-49.5 -20.5h-16q-45 0 -76 -30.5t-31 -73.5v-541q0 -43 31 -73.5t76 -30.5h16q29 0 49.5 -20.5t20.5 -49t-20.5 -49t-49.5 -20.5h-16z" glyph-name="ampersand" horiz-adv-x="1361" unicode="&amp;"/><glyph d="M102 1165v340q0 20 13.5 33.5t34 13.5t34 -13t13.5 -34v-340q0 -20 -13.5 -33.5t-34 -13.5t-34 13.5t-13.5 33.5z" glyph-name="quotesingle" horiz-adv-x="299" unicode="'"/><glyph d="M307 592q0 -537 195 -903q16 -33 0.5 -61.5t-51.5 -28.5q-39 0 -56 36q-231 428 -231 957q0 530 231 958q16 37 56 37q37 0 52 -28.5t-1 -61.5q-195 -366 -195 -905z" glyph-name="parenleft" horiz-adv-x="573" unicode="("/><glyph d="M266 592q0 539 -194 905q-16 33 -1 61.5t52 28.5q39 0 55 -37q231 -428 232 -958q0 -528 -232 -957q-16 -37 -55 -36q-37 0 -52.5 28.5t1.5 61.5q194 366 194 903z" glyph-name="parenright" horiz-adv-x="573" unicode=")"/><glyph d="M553 1278q45 -25 20 -72q-10 -18 -30.5 -23t-40.5 7l-99 70l15 -119q0 -23 -14.5 -38.5t-37 -15.5t-37 15.5t-14.5 38.5l13 121l-97 -72q-20 -12 -40.5 -7t-30.5 25q-10 18 -5 39t25 31l111 49l-111 49q-20 10 -25 30.5t5 39.5q10 20 30.5 25.5t40.5 -7.5l97 -71l-13 120 q0 23 14.5 38.5t37 15.5t37 -15.5t14.5 -38.5l-15 -120l99 71q45 29 73 -18q23 -45 -22 -70l-113 -49z" glyph-name="asterisk" horiz-adv-x="733" unicode="*"/><glyph d="M86 592q0 29 20.5 49.5t49.5 20.5h471v471q0 29 20.5 49t49 20t49 -20.5t20.5 -48.5v-471h469q29 0 49.5 -20.5t20.5 -49.5t-20.5 -49.5t-49.5 -20.5h-469v-469q0 -29 -20.5 -49t-49 -20t-49 20.5t-20.5 48.5v469h-471q-29 0 -49.5 20.5t-20.5 49.5z" glyph-name="plus" horiz-adv-x="1390" unicode="+"/><glyph d="M84 -184q0 41 41 41q27 0 48.5 26.5t21.5 59.5v45q-6 -4 -19 -4q-45 0 -74.5 30.5t-29.5 75.5q0 43 29.5 74t74.5 31q43 0 74 -31t31 -74v-137q0 -72 -44 -124t-112 -54q-41 0 -41 41z" glyph-name="comma" horiz-adv-x="454" unicode=","/><glyph d="M131 592q0 29 19.5 49.5t48.5 20.5h557q29 0 49 -20.5t20 -49.5t-20.5 -49.5t-48.5 -20.5h-557q-29 0 -48.5 20.5t-19.5 49.5z" glyph-name="hyphen" horiz-adv-x="952" unicode="-"/><glyph d="M178 -16q-45 0 -75.5 30.5t-30.5 73.5t30.5 74t75.5 31q41 0 72 -31t31 -74t-31 -73.5t-72 -30.5z" glyph-name="period" horiz-adv-x="454" unicode="."/><glyph d="M162 -16q-31 0 -46.5 24.5t-0.5 57.5l606 1456q10 31 49 30q31 0 46 -23.5t5 -51.5l-608 -1461q-14 -32 -51 -32z" glyph-name="slash" horiz-adv-x="933" unicode="/"/><glyph d="M1118 1063v-592q0 -209 -147.5 -357.5t-356.5 -148.5q-211 0 -359.5 148.5t-148.5 357.5v592q0 211 148.5 359.5t359.5 148.5q209 0 356.5 -148.5t147.5 -359.5zM979 471v592q0 154 -106.5 262.5t-258 108.5t-260 -108.5t-108.5 -262.5v-592q0 -152 108.5 -260.5 t259.5 -108.5q150 0 257.5 108.5t107.5 260.5z" glyph-name="zero" horiz-adv-x="1224" unicode="0"/><glyph d="M424 53v1301l-227 -131q-16 -10 -37 -11q-29 0 -49.5 19.5t-20.5 48.5q0 45 41 66l322 192q23 14 43 14q29 0 50 -20.5t21 -48.5v-1430q0 -29 -22.5 -49t-51 -20t-49 20t-20.5 49z" glyph-name="one" horiz-adv-x="690" unicode="1"/><glyph d="M121 70q0 33 24 53l707 651q137 115 137 293q0 158 -111.5 262.5t-271.5 104.5q-158 0 -269.5 -113t-113.5 -274q0 -29 -21.5 -49.5t-50 -20.5t-49 20.5t-20.5 49.5q0 219 153.5 371.5t370.5 152.5q219 0 373 -144.5t154 -359.5q0 -242 -191 -401l-565 -527h635 q29 0 49 -20.5t20 -49t-20.5 -49t-48.5 -20.5h-822q-29 0 -49 20.5t-20 49.5z" glyph-name="two" horiz-adv-x="1214" unicode="2"/><glyph d="M655 922q0 29 20.5 49t49.5 20q12 0 31 -6q162 -49 266 -187.5t104 -312.5q0 -215 -154.5 -367.5t-371.5 -152.5q-197 0 -343 125t-175 311q-6 39 15.5 63.5t52.5 24.5q27 0 47 -19t24 -46q23 -137 130.5 -229.5t248.5 -92.5q158 0 270.5 113t112.5 270q0 131 -78 232.5 t-198 136.5q-52 15 -52 68zM1012 1413l-682 -653q-20 -20 -49 -20.5t-49.5 20t-20.5 49.5q0 39 29 57l557 531h-545q-29 0 -49.5 20.5t-20.5 49t20.5 49t49.5 20.5h715q29 0 49 -20.5t20 -49.5q1 -33 -24 -53z" glyph-name="three" horiz-adv-x="1208" unicode="3"/><glyph d="M809 678v573l-571 -762h886q29 0 49.5 -21.5t20.5 -50t-20.5 -48t-49.5 -19.5h-176v-297q0 -29 -20.5 -49t-49 -20t-49 20.5t-20.5 48.5v297h-703q-29 0 -49 20.5t-20 49.5q0 25 18 47l764 1055q20 31 60 30q29 0 49 -20.5t20 -48.5v-805q0 -29 -20.5 -48.5t-49 -19.5 t-49 19.5t-20.5 48.5z" glyph-name="four" horiz-adv-x="1255" unicode="4"/><glyph d="M457 934q0 27 18.5 46t44.5 24q41 6 82 6q217 0 372.5 -154t155.5 -371q0 -215 -155.5 -367.5t-372.5 -152.5t-370.5 152.5t-153.5 367.5q0 29 20.5 49.5t49 20.5t50 -20.5t21.5 -49.5q0 -158 112.5 -270.5t270.5 -112.5t271.5 113t113.5 270q0 162 -112.5 274.5 t-272.5 112.5q-16 0 -74 -8q-27 -2 -49 19.5t-22 50.5zM250 719q-29 4 -45.5 27.5t-11.5 52.5l98 671q10 66 67 66h547q29 0 49.5 -20.5t20.5 -49t-20.5 -49t-49.5 -20.5h-487l-88 -623q-4 -29 -27.5 -44t-52.5 -11z" glyph-name="five" horiz-adv-x="1212" unicode="5"/><glyph d="M575 938q0 29 20.5 48.5t49.5 19.5q195 0 342.5 -157t147.5 -364q0 -215 -155 -367.5t-372 -152.5t-371.5 152.5t-154.5 367.5q0 154 94 297l492 740q20 31 57 30q29 0 49.5 -20.5t20.5 -48.5q0 -20 -13 -41l-483 -729q-74 -100 -74 -228q0 -158 113 -270.5t270.5 -112.5 t270 113t112.5 270q0 152 -99 260.5t-247 122.5q-29 0 -49.5 20.5t-20.5 49.5z" glyph-name="six" horiz-adv-x="1216" unicode="6"/><glyph d="M330 55q0 14 8 35l545 1307h-768q-29 0 -49.5 20.5t-20.5 49t20.5 49t49.5 20.5h874q29 0 49.5 -20.5t20.5 -49.5q0 -16 -6 -30l-586 -1409q-20 -43 -66 -43q-29 0 -50 21t-21 50z" glyph-name="seven" horiz-adv-x="1103" unicode="7"/><glyph d="M338 950q0 -29 -19.5 -48t-48.5 -19q-35 0 -55 26q-82 98 -82 240q0 193 138.5 307.5t345 114.5t345 -115t138.5 -305t-138.5 -305t-345.5 -115q-174 0 -283.5 -81t-109.5 -234.5t109.5 -233.5t284 -80t284 80t109.5 234q0 117 -74 194q-27 20 -27 56q0 29 19.5 48 t48.5 19q35 0 53 -22q123 -119 123 -295q0 -211 -152.5 -331t-384.5 -120q-229 0 -382.5 121t-153.5 332t153.5 331.5t382.5 120.5q150 0 245 72t95 207t-96 210t-243.5 75t-244 -75t-96.5 -210q0 -90 46 -152q16 -20 16 -47z" glyph-name="eight" horiz-adv-x="1232" unicode="8"/><glyph d="M641 598q0 -29 -20.5 -48.5t-49.5 -19.5q-195 0 -342 157t-147 364q0 215 154.5 367.5t371.5 152.5t372 -152.5t155 -367.5q0 -154 -95 -297l-491 -740q-20 -31 -57 -30q-29 0 -49.5 20.5t-20.5 48.5q0 20 12 41l484 729q74 100 73 228q0 158 -112.5 270.5t-270 112.5 t-270.5 -113t-113 -270q0 -152 99.5 -260.5t246.5 -122.5q29 0 49.5 -20.5t20.5 -49.5z" glyph-name="nine" horiz-adv-x="1216" unicode="9"/><glyph d="M281 88q0 -43 -31 -73.5t-74 -30.5t-73.5 30.5t-30.5 73.5t30.5 74t73.5 31t74 -31t31 -74zM72 1096q0 45 30.5 75.5t73.5 30.5t74 -30.5t31 -75.5q0 -43 -31 -74t-74 -31t-73.5 31t-30.5 74z" glyph-name="colon" horiz-adv-x="454" unicode=":"/><glyph d="M72 1096q0 45 30.5 75.5t73.5 30.5t74 -30.5t31 -75.5q0 -43 -31 -74t-74 -31t-73.5 31t-30.5 74zM84 -184q0 41 41 41q27 0 48.5 26.5t21.5 59.5v45q-6 -4 -19 -4q-45 0 -74.5 30.5t-29.5 75.5q0 43 29.5 74t74.5 31q43 0 74 -31t31 -74v-137q0 -72 -44 -124t-112 -54 q-41 0 -41 41z" glyph-name="semicolon" horiz-adv-x="454" unicode=";"/><glyph d="M49 592q0 35 39 65l598 428q18 18 45 18.5t48.5 -21t21.5 -48.5q0 -33 -29 -55l-543 -387l543 -387q29 -20 29 -55q0 -27 -21.5 -48.5t-48 -21.5t-45.5 18l-598 428q-39 31 -39 66z" glyph-name="less" horiz-adv-x="882" unicode="&lt;"/><glyph d="M86 768q0 29 20.5 49.5t49.5 20.5h1079q29 -2 49.5 -22.5t20.5 -47.5q0 -29 -21.5 -49.5t-50.5 -20.5h-1077q-29 0 -49.5 20.5t-20.5 49.5zM86 420q0 29 19.5 49t48.5 20h1081q29 0 49.5 -20t20.5 -49t-20.5 -49.5t-49.5 -20.5h-1081q-29 0 -48.5 20.5t-19.5 49.5z" glyph-name="equal" horiz-adv-x="1390" unicode="="/><glyph d="M834 592q0 -35 -39 -66l-598 -428q-18 -18 -45 -18q-29 0 -49.5 21.5t-20.5 48.5q0 35 29 55l542 387l-542 387q-29 23 -29 55q0 27 20.5 48.5t49.5 21.5q27 0 45 -19l598 -428q39 -30 39 -65z" glyph-name="greater" horiz-adv-x="882" unicode=">"/><glyph d="M530 420v176q0 29 20.5 49.5t49.5 20.5q158 0 270.5 111.5t112.5 273.5q0 158 -113.5 270.5t-271.5 112.5q-141 0 -248.5 -92.5t-130.5 -229.5q-4 -27 -24.5 -46t-47.5 -19q-31 0 -53 24.5t-14 63.5q31 186 177 311t341 125q217 0 372.5 -152.5t155.5 -367.5 q0 -199 -132 -346.5t-324 -174.5v-110q0 -29 -20.5 -49.5t-49.5 -20.5t-49.5 20.5t-20.5 49.5zM702 88q0 -43 -30.5 -73.5t-71.5 -30.5q-45 0 -75.5 30.5t-30.5 73.5q0 45 30.5 76t75.5 31q41 0 71.5 -31t30.5 -76z" glyph-name="question" horiz-adv-x="1208" unicode="?"/><glyph d="M887 453q76 0 141 34q25 12 41 13q29 0 49.5 -20.5t20.5 -49.5q0 -41 -37 -61q-96 -53 -215 -54q-188 0 -321.5 132.5t-133.5 320.5t133 319.5t321.5 131.5t321.5 -131.5t133 -319.5v-209q0 -43 32 -74.5t75 -31.5q41 0 71.5 30.5t30.5 75.5v209q0 274 -194.5 470 t-469 196t-468 -196t-193.5 -470t193.5 -470t468.5 -196q145 0 299 74q33 16 66.5 -5t33.5 -60q0 -49 -49 -68q-168 -78 -350 -78q-334 0 -569.5 235.5t-235.5 567.5t235.5 567.5t569.5 235.5q332 0 567.5 -235.5t235.5 -567.5v-209q0 -102 -71 -173t-171 -71 q-102 0 -174 72t-72 172v209q0 129 -92 221t-223 92q-129 0 -220.5 -92t-91.5 -221q0 -131 91.5 -223t220.5 -92z" glyph-name="at" horiz-adv-x="1792" unicode="@"/><glyph d="M983 633l-276 672l-531 -1280q-18 -41 -65 -41q-31 0 -50.5 19.5t-19.5 47.5q0 16 6 29l596 1431q16 41 63.5 41t63.5 -41l342 -823q6 -12 6 -29q0 -29 -19.5 -48t-49.5 -19q-48 0 -66 41zM526 485h623q43 0 63 -43l154 -362q6 -12 6 -29q0 -29 -19.5 -48t-49.5 -19 q-47 0 -66 41l-129 321h-582q-29 0 -49 20.5t-20 49t20 49t49 20.5z" glyph-name="A" horiz-adv-x="1413" unicode="A"/><glyph d="M1026 979q0 12 12 37q27 57 27 119q0 109 -77 185.5t-183 76.5h-543v-1258h578q121 0 208 87t87 210t-87 209t-208 86h-383q-29 0 -49.5 20.5t-20.5 49t20.5 49t49.5 20.5h383q182 0 310 -127t128 -307t-128 -308t-310 -128h-647q-29 0 -49.5 20.5t-20.5 49.5v1396 q0 29 20.5 49.5t49.5 20.5h612q166 0 284.5 -118t118.5 -283q0 -102 -55 -189q-23 -37 -59 -37q-27 0 -47.5 20.5t-20.5 49.5z" glyph-name="B" horiz-adv-x="1357" unicode="B"/><glyph d="M1442 1331q20 -20 21 -49t-19 -49q-23 -20 -50.5 -20.5t-47.5 20.5q-207 201 -472 201q-276 0 -469.5 -196t-191.5 -472q-2 -274 191.5 -469t469.5 -195q268 0 472 193q20 18 48.5 18t49 -20.5t19.5 -48t-21 -47.5q-242 -233 -570 -232q-332 -2 -567 233.5t-235 567.5 q0 334 235.5 570.5t566.5 234.5q328 2 570 -240z" glyph-name="C" horiz-adv-x="1529" unicode="C"/><glyph d="M123 53v1413q0 29 19.5 49.5t47.5 20.5h455q317 0 543.5 -225.5t226.5 -542.5t-226 -542.5t-544 -225.5h-190q-29 0 -49.5 20.5t-20.5 49t20.5 49t49.5 20.5h190q260 0 443.5 184.5t183.5 444.5q0 262 -183.5 445.5t-443.5 183.5h-383v-1344q0 -29 -20.5 -49t-49 -20 t-49 20t-20.5 49z" glyph-name="D" horiz-adv-x="1486" unicode="D"/><glyph d="M123 766q0 29 20.5 49.5t49.5 20.5h837q29 0 49.5 -20.5t20.5 -49.5t-20.5 -49.5t-49.5 -20.5h-768v-557h909q29 -2 49.5 -22.5t20.5 -46.5q0 -29 -20.5 -49.5t-49.5 -20.5h-978q-29 0 -49.5 20.5t-20.5 49.5v696zM123 1049v417q0 29 20.5 49.5t49.5 20.5h978 q29 0 49.5 -20.5t20.5 -49t-20.5 -49t-49.5 -20.5h-909v-348q0 -29 -20.5 -49.5t-49 -20.5t-49 20.5t-20.5 49.5z" glyph-name="E" horiz-adv-x="1312" unicode="E"/><glyph d="M123 53v713q0 29 20.5 49.5t49.5 20.5h800q29 0 49.5 -20.5t20.5 -49.5t-20.5 -49.5t-49.5 -20.5h-731v-643q0 -29 -20.5 -49t-49 -20t-49 20t-20.5 49zM123 1049v417q0 29 20.5 49.5t49.5 20.5h942q29 0 49 -20.5t20 -49t-20.5 -49t-48.5 -20.5h-873v-348 q0 -29 -20.5 -49.5t-49 -20.5t-49 20.5t-20.5 49.5z" glyph-name="F" horiz-adv-x="1234" unicode="F"/><glyph d="M874 836h541q29 0 49.5 -19.5t20.5 -48.5v-496q0 -25 -19 -47q-240 -262 -592 -260q-332 -2 -567 233.5t-235 569.5q0 332 235.5 567.5t566.5 235.5q330 0 572 -238q20 -23 20 -50.5t-20 -47.5q-20 -23 -49 -23t-49 23q-209 199 -471 199q-276 0 -470 -196t-192 -470 q-2 -274 191.5 -470t470.5 -196q266 0 469 199v395h-472q-29 0 -50 20.5t-21 49.5t21 49.5t50 20.5z" glyph-name="G" horiz-adv-x="1599" unicode="G"/><glyph d="M123 766q0 29 20.5 49.5t49.5 20.5h976v647q0 29 19.5 49t48.5 20t50.5 -20.5t21.5 -48.5v-717q0 -29 -21.5 -49.5t-50.5 -20.5h-975v-643q-2 -29 -22.5 -49t-46.5 -20q-29 0 -49.5 20.5t-20.5 48.5v713zM123 1483q0 29 20.5 49t49 20t49 -20.5t20.5 -48.5v-434 q0 -29 -20.5 -49.5t-49 -20.5t-49 20.5t-20.5 49.5v434zM1169 53v428q0 29 20.5 49.5t49.5 20.5t49.5 -20.5t20.5 -49.5v-428q0 -29 -20.5 -49t-49.5 -20t-49.5 20t-20.5 49z" glyph-name="H" horiz-adv-x="1431" unicode="H"/><glyph d="M123 53v1430q0 29 20.5 49t49 20t49 -20.5t20.5 -48.5v-1430q0 -29 -20.5 -49t-49 -20t-49 20t-20.5 49z" glyph-name="I" horiz-adv-x="385" unicode="I"/><glyph d="M631 1485q-2 27 19.5 48t49.5 21q31 -2 50.5 -21.5t19.5 -47.5v-1098q0 -186 -120 -303t-300 -119q-172 0 -297 125q-23 20 -22.5 50t20.5 50q20 23 50 21t57 -29q84 -80 192 -80q125 0 203 77t80 206z" glyph-name="J" horiz-adv-x="892" unicode="J"/><glyph d="M377 819l713 713q20 20 48.5 20t49.5 -20q20 -23 21 -51.5t-19 -48.5l-664 -664l664 -666q23 -20 22.5 -48.5t-22.5 -49.5q-20 -20 -48 -20t-50 20l-715 717q-20 20 -20 49t20 49zM123 53v1430q0 29 20.5 49t49 20t49 -20.5t20.5 -48.5v-1430q0 -29 -20.5 -49t-49 -20 t-49 20t-20.5 49z" glyph-name="K" horiz-adv-x="1263" unicode="K"/><glyph d="M123 70v1413q0 29 20.5 49t49 20t49 -20.5t20.5 -48.5v-1344h838q29 0 49 -20.5t20 -49t-20.5 -49t-48.5 -20.5h-907q-29 0 -49.5 20.5t-20.5 49.5z" glyph-name="L" horiz-adv-x="1200" unicode="L"/><glyph d="M1659 1483v-1430q0 -29 -20.5 -49t-49 -20t-49 20.5t-20.5 48.5v1262l-580 -582q-20 -20 -49 -20t-49 20l-580 582v-1262q0 -29 -20.5 -49t-49 -20t-49 20.5t-20.5 48.5v1430q0 29 20.5 49t49 20t49.5 -20l649 -647l647 647q20 20 49 20t50.5 -20t21.5 -49z" glyph-name="M" horiz-adv-x="1781" unicode="M"/><glyph d="M1241 1552q29 0 49.5 -20.5t20.5 -48.5v-1430q0 -29 -21.5 -49t-50.5 -20q-37 0 -57 30l-920 1260v-1221q0 -29 -20.5 -49t-49 -20t-49 20.5t-20.5 48.5v1430q0 29 20.5 49t49.5 20q37 0 57 -26l921 -1264v1221q0 29 20.5 49t49.5 20z" glyph-name="N" horiz-adv-x="1433" unicode="N"/><glyph d="M1538 768q0 274 -193.5 470t-468 196t-468 -196t-193.5 -470t193.5 -470t468 -196t468 196t193.5 470zM1681 768q0 -332 -236.5 -567.5t-567.5 -235.5q-334 0 -569.5 235.5t-235.5 567.5t235.5 567.5t569.5 235.5q332 0 568 -235.5t236 -567.5z" glyph-name="O" horiz-adv-x="1753" unicode="O"/><glyph d="M387 628.5q0 28.5 19.5 49t48.5 20.5h333q143 0 245 101.5t102 247t-101.5 248t-245.5 102.5h-526v-1344q0 -29 -21.5 -49t-50 -20t-48 20.5t-19.5 48.5v1413q0 29 21.5 49.5t50.5 20.5h593q201 0 345.5 -143.5t144.5 -345.5q0 -201 -144.5 -344.5t-345.5 -143.5h-333 q-29 0 -48.5 20.5t-19.5 49z" glyph-name="P" horiz-adv-x="1347" unicode="P"/><glyph d="M1325 311q0 29 18 49q160 182 160 424q0 268 -189.5 459t-455.5 191t-454.5 -190.5t-188.5 -459t188.5 -457t454.5 -188.5h694q29 0 50.5 -20.5t21.5 -49t-21.5 -49t-50.5 -20.5h-694q-326 0 -556 229.5t-230 555t230 556t556 230.5t557.5 -230.5t231.5 -556.5 q0 -283 -191 -508q-23 -35 -61 -34q-29 0 -49.5 20t-20.5 49z" glyph-name="Q" horiz-adv-x="1757" unicode="Q"/><glyph d="M512 628.5q0 28.5 19.5 49t48.5 20.5h208q143 0 244 101.5t101 247t-100.5 248t-244.5 102.5h-526v-1344q0 -29 -20.5 -49t-49 -20t-49 20.5t-20.5 48.5v1413q0 29 20.5 49.5t49.5 20.5h595q201 0 344.5 -143.5t143.5 -345.5q0 -201 -143.5 -344.5t-344.5 -143.5h-67 l338 -465q16 -25 11 -53.5t-28 -44.5q-23 -18 -51 -13t-47 27l-416 570q-16 20 -16 48.5z" glyph-name="R" horiz-adv-x="1357" unicode="R"/><glyph d="M969 1321q-174 113 -367 113q-164 0 -253 -71t-89 -204q0 -88 48 -144.5t125 -85t169 -50t184.5 -51t169 -73.5t124.5 -131t48 -212q0 -211 -140 -329t-376 -118q-281 0 -501 168q-29 18 -29 57q0 29 20.5 49.5t49.5 20.5q23 0 41 -12q186 -145 419 -146q178 0 275.5 77 t97.5 233q0 96 -48 159.5t-125 95t-169 54t-184 50.5t-169 69t-125 121.5t-48 197.5q0 193 132 302.5t353 109.5q238 0 445 -133q33 -23 32 -60q0 -29 -20.5 -49t-48.5 -20q-27 0 -41 12z" glyph-name="S" horiz-adv-x="1210" unicode="S"/><glyph d="M20 1466.5q0 28.5 20.5 49t49.5 20.5h264q29 0 48.5 -20.5t19.5 -49t-19.5 -49t-48.5 -20.5h-264q-29 0 -49.5 20.5t-20.5 49zM545 53v1413q0 29 20.5 49.5t48.5 20.5h523q29 0 49 -20.5t20 -49t-20.5 -49t-48.5 -20.5h-453v-1344q0 -29 -20.5 -49t-49 -20t-49 20 t-20.5 49z" glyph-name="T" horiz-adv-x="1226" unicode="T"/><glyph d="M1169 1483q0 29 20.5 49t49.5 20t49.5 -20.5t20.5 -48.5v-924q0 -246 -174 -420t-418 -174q-246 0 -420 174t-174 420v924q0 29 20.5 49t49 20t49 -20.5t20.5 -48.5v-924q0 -188 133 -322.5t322 -134.5q186 0 319 134.5t133 322.5v924z" glyph-name="U" horiz-adv-x="1431" unicode="U"/><glyph d="M166 1511l530 -1280l531 1280q18 41 65 41q31 0 50.5 -19.5t19.5 -47.5q0 -16 -6 -29l-596 -1431q-16 -41 -63.5 -41t-63.5 41l-596 1431q-6 12 -6 29q0 29 19.5 48t49.5 19q48 0 66 -41z" glyph-name="V" horiz-adv-x="1392" unicode="V"/><glyph d="M33 1460q-8 33 11 62.5t54 29.5q55 0 70 -49l371 -1206l370 1206q16 51 68.5 50t69.5 -50l368 -1206l369 1206q18 49 69 49q35 0 54.5 -28.5t11.5 -63.5l-436 -1427q-16 -49 -67.5 -49t-67.5 49l-371 1216l-371 -1216q-16 -49 -69.5 -49t-67.5 49z" glyph-name="W" horiz-adv-x="1951" unicode="W"/><glyph d="M1241 1440l-1075 -1428q-16 -25 -45 -28.5t-53 14.5q-23 16 -28 46t13 52l1075 1428q16 25 46 27.5t53 -13.5q25 -18 28.5 -46.5t-14.5 -51.5zM1128 12l-372 496q-18 23 -14.5 51.5t28.5 46.5q23 16 52.5 13t45.5 -27l373 -496q18 -23 13 -52.5t-27 -45.5 q-25 -18 -54 -14.5t-45 28.5zM426 944l-373 496q-18 23 -14 51.5t29 46.5q23 16 52.5 13t45.5 -27l373 -496q18 -23 13 -52.5t-28 -45.5q-25 -18 -53.5 -14.5t-44.5 28.5z" glyph-name="X" horiz-adv-x="1298" unicode="X"/><glyph d="M1231 1442l-529 -740v-649q0 -29 -20 -49t-49 -20t-49.5 20.5t-20.5 48.5v670q0 27 15 43l538 758q23 29 58 28q43 0 62.5 -38.5t-5.5 -71.5zM418 905l-383 539q-16 23 -11 51.5t27 44.5q25 16 54.5 13t46.5 -27l383 -539q16 -23 10 -52.5t-29 -45.5q-25 -16 -53.5 -12.5 t-44.5 28.5z" glyph-name="Y" horiz-adv-x="1282" unicode="Y"/><glyph d="M1268 69.5q0 -28.5 -20.5 -49t-49.5 -20.5h-1083q-29 0 -49.5 20.5t-20.5 49.5q0 25 16 45l990 1282h-936q-29 0 -49.5 20.5t-20.5 49t20.5 49t49.5 20.5h1083q29 0 49.5 -20.5t20.5 -49.5q0 -25 -17 -45l-989 -1282h936q29 0 49.5 -20.5t20.5 -49z" glyph-name="Z" horiz-adv-x="1312" unicode="Z"/><glyph d="M461 -350h-228q-29 0 -49 19.5t-20 47.5v1749q0 29 20.5 49.5t48.5 20.5h228q29 0 49 -20.5t20 -49t-20.5 -48t-48.5 -19.5h-160v-1612h160q29 0 49 -20.5t20 -49t-20 -48t-49 -19.5z" glyph-name="bracketleft" horiz-adv-x="575" unicode="["/><glyph d="M772 -16q-37 0 -51 32l-608 1461q-10 29 5 52t46 23q39 0 49 -30l606 -1456q14 -33 -1 -57.5t-46 -24.5z" glyph-name="backslash" horiz-adv-x="933" unicode="\"/><glyph d="M342 -350h-227q-29 0 -49.5 19.5t-20.5 48t20.5 49t49.5 20.5h159v1612h-159q-29 0 -49.5 19.5t-20.5 48t20.5 49t49.5 20.5h227q29 0 49.5 -20.5t20.5 -49.5v-1749q0 -29 -20.5 -48t-49.5 -19z" glyph-name="bracketright" horiz-adv-x="575" unicode="]"/><glyph d="M143 733q-57 37 -26 94l375 689q23 37 60.5 36.5t59.5 -36.5l375 -689q31 -57 -26 -94q-59 -27 -93 29l-317 584l-315 -584q-34 -56 -93 -29z" glyph-name="asciicircum" horiz-adv-x="1103" unicode="^"/><glyph d="M0 -186h1186v-52h-1186v52z" glyph-name="underscore" horiz-adv-x="1062" unicode="_"/><glyph d="M541 1401q-14 -33 -49 -23l-273 70q-27 8 -39 33.5t-2 52.5q8 27 34 38t52 1l254 -121q35 -20 23 -51z" glyph-name="grave" horiz-adv-x="718" unicode="`"/><glyph d="M715 102q141 0 272 82q25 16 45 17q29 0 49.5 -20.5t20.5 -49.5q0 -41 -41 -63q-152 -102 -346 -103q-260 0 -446.5 184.5t-186.5 444.5q0 258 186.5 442.5t446.5 184.5q307 0 487 -275v187q0 29 20.5 49t49 20t49 -20.5t20.5 -48.5v-1080q0 -29 -20.5 -49t-48.5 -20 q-27 0 -48.5 21.5t-21.5 47.5v541q0 203 -143.5 346t-343.5 143q-203 0 -346.5 -143t-143.5 -346q0 -205 143.5 -348.5t346.5 -143.5z" glyph-name="a" unicode="a"/><glyph d="M750 1083q-141 0 -273 -82q-25 -16 -45 -16q-29 0 -49.5 20.5t-20.5 49.5q0 41 41 63q152 102 347 103q260 0 446 -184.5t186 -444.5q0 -258 -186 -442.5t-446 -184.5q-307 0 -488 275v-187q0 -29 -20.5 -49t-49 -20t-49 20.5t-20.5 48.5v1430q0 29 20.5 49t49.5 20 q27 0 48 -21.5t21 -47.5v-891q0 -203 143.5 -346.5t344.5 -143.5q203 0 346 143.5t143 346.5q0 205 -143 348t-346 143z" glyph-name="b" unicode="b"/><glyph d="M1059 250q20 18 48 18t48.5 -20.5t21.5 -49t-20 -46.5q-193 -186 -446 -187q-262 2 -445.5 185.5t-183.5 443.5t183.5 442.5t445.5 184.5q258 0 446 -185q18 -20 19.5 -49t-19 -49t-49.5 -19t-51 21q-143 139 -346 143q-201 -2 -343.5 -144t-142.5 -343 q0 -205 142.5 -349.5t343.5 -144t348 147.5z" glyph-name="c" horiz-adv-x="1247" unicode="c"/><glyph d="M715 102q141 0 272 82q25 16 45 17q29 0 49.5 -20.5t20.5 -49.5q0 -41 -41 -63q-152 -102 -346 -103q-260 0 -446.5 184.5t-186.5 444.5q0 258 186.5 442.5t446.5 184.5q307 0 487 -275v537q0 29 20.5 49t49 20t49 -20.5t20.5 -48.5v-1430q0 -29 -20.5 -49t-48.5 -20 q-27 0 -48.5 21.5t-21.5 47.5v541q0 203 -143.5 346t-343.5 143q-203 0 -346.5 -143t-143.5 -346q0 -205 143.5 -348.5t346.5 -143.5z" glyph-name="d" unicode="d"/><glyph d="M330 594q0 29 20.5 49.5t48.5 20.5h793q-27 178 -163 298.5t-318 120.5q-201 0 -343.5 -143t-142.5 -346q0 -205 142.5 -348.5t343.5 -143.5q121 0 223 55.5t168 151.5q20 35 59 35q43 0 62.5 -39t-2.5 -72q-76 -115 -214.5 -191.5t-295.5 -76.5q-260 0 -444.5 184.5 t-184.5 444.5t184.5 443.5t444.5 183.5q256 0 438 -182.5t186 -444.5q0 -29 -21.5 -49.5t-49.5 -20.5h-865q-29 0 -49 20.5t-20 49.5z" glyph-name="e" horiz-adv-x="1417" unicode="e"/><glyph d="M25 1116q0 29 20.5 49.5t48.5 20.5h86v125q0 117 81 188.5t198 71.5q100 0 180 -64q25 -20 25 -53q0 -29 -20.5 -49.5t-49.5 -20.5q-25 0 -45 17q-39 33 -90 33q-59 0 -99.5 -33t-40.5 -90v-125h191q29 0 49.5 -20.5t20.5 -49.5t-20.5 -49t-49.5 -20h-416q-29 0 -49 20 t-20 49zM250 -16q-29 0 -49.5 20.5t-20.5 48.5v821q0 29 20.5 49.5t49.5 20.5t49 -20.5t20 -49.5v-821q0 -29 -20 -49t-49 -20z" glyph-name="f" horiz-adv-x="684" unicode="f"/><glyph d="M223 594q0 -205 143.5 -348.5t344.5 -143.5q141 0 272 82q25 16 45 17q29 0 49.5 -20.5t20.5 -49.5q0 -41 -41 -63q-152 -102 -346 -103q-260 0 -444.5 183.5t-184.5 445.5q0 260 184.5 443.5t444.5 183.5q307 0 487 -275v187q0 29 20.5 49t49 20t49 -20.5t20.5 -48.5 v-930q0 -256 -181 -422t-445 -166q-229 0 -455 113q-37 18 -37 61q0 29 20.5 49.5t49.5 20.5q18 0 33 -9q184 -98 389 -98q199 0 336 116t151 316v410q0 203 -142.5 346t-344.5 143q-201 0 -344.5 -143t-143.5 -346z" glyph-name="g" horiz-adv-x="1460" unicode="g"/><glyph d="M365 1094q0 41 34 61q115 66 263 66q219 0 346 -131.5t127 -341.5v-695q0 -29 -20.5 -49t-49.5 -20t-49.5 20.5t-20.5 48.5v695q0 152 -92 243.5t-241 91.5q-102 0 -189 -51q-14 -10 -37 -10q-29 0 -50 21.5t-21 50.5zM123 1483q0 29 20.5 49t49 20t49 -20.5t20.5 -48.5 v-1430q0 -29 -20.5 -49t-49 -20t-49 20.5t-20.5 48.5v1430z" glyph-name="h" horiz-adv-x="1257" unicode="h"/><glyph d="M123 53v1080q0 29 20.5 49t49 20t49 -20.5t20.5 -48.5v-1080q0 -29 -20.5 -49t-49 -20t-49 20t-20.5 49zM102 1481q0 37 27 63.5t63.5 26.5t63.5 -26.5t27 -63.5t-27 -63.5t-63.5 -26.5t-63.5 26.5t-27 63.5z" glyph-name="i" horiz-adv-x="385" unicode="i"/><glyph d="M135 -248q59 0 99 41t40 103v1237q0 27 20.5 48t49.5 21q29 -2 49.5 -22.5t20.5 -46.5v-1237q0 -117 -82 -199t-197 -82t-194 80q-23 20 -23 48t23 50q20 20 48.5 19.5t51.5 -23.5q51 -37 94 -37zM254 1481q0 37 26.5 63.5t63.5 26.5t63.5 -26.5t26.5 -63.5t-26.5 -63.5 t-63.5 -26.5t-63.5 26.5t-26.5 63.5z" glyph-name="j" horiz-adv-x="538" unicode="j"/><glyph d="M991 1186q23 20 51.5 19t49.5 -23q18 -20 17 -50t-22 -51l-555 -485l555 -490q20 -20 21.5 -49.5t-16.5 -50.5q-20 -23 -49 -23.5t-52 19.5l-616 547q-18 16 -17.5 47t21.5 51zM123 53v1430q0 29 20.5 49t49 20t49 -20.5t20.5 -48.5v-1430q0 -29 -20.5 -49t-49 -20 t-49 20t-20.5 49z" glyph-name="k" horiz-adv-x="1134" unicode="k"/><glyph d="M123 53v1430q0 29 20.5 49t49 20t49 -20.5t20.5 -48.5v-1430q0 -29 -20.5 -49t-49 -20t-49 20t-20.5 49z" glyph-name="l" horiz-adv-x="385" unicode="l"/><glyph d="M993 1094q0 37 31 59l8 6q96 61 230 62q182 0 289.5 -111t107.5 -287v-770q0 -29 -20.5 -49t-49 -20t-49 20.5t-20.5 48.5v770q0 117 -72 188.5t-186 71.5q-90 0 -158 -47q-18 -12 -41 -12q-29 0 -49.5 20.5t-20.5 49.5zM365 1128q0 55 55 70q72 23 143 23 q182 0 290 -111t108 -287v-770q0 -29 -20.5 -49t-49.5 -20t-49.5 20.5t-20.5 48.5v770q0 117 -71.5 188.5t-186.5 71.5q-39 0 -100 -20q-16 -4 -29 -4q-29 0 -49 20t-20 49zM262 53q2 -29 -19.5 -49t-50 -20t-49 20.5t-20.5 48.5v1080q0 29 20.5 49t49 20t49 -20.5 t20.5 -48.5v-1080z" glyph-name="m" horiz-adv-x="1781" unicode="m"/><glyph d="M365 1094q0 41 34 61q115 66 263 66q219 0 346 -131.5t127 -341.5v-695q0 -29 -20.5 -49t-49.5 -20t-49.5 20.5t-20.5 48.5v695q0 152 -92 243.5t-241 91.5q-102 0 -189 -51q-14 -10 -37 -10q-29 0 -50 21.5t-21 50.5zM262 53q2 -29 -19.5 -49t-50 -20t-49 20.5 t-20.5 48.5v1080q0 29 20.5 49t49 20t49 -20.5t20.5 -48.5v-1080z" glyph-name="n" horiz-adv-x="1257" unicode="n"/><glyph d="M715 102q205 0 347 143.5t142 348.5q0 203 -142 346t-347 143q-201 0 -345.5 -143t-144.5 -346q0 -205 143.5 -348.5t346.5 -143.5zM715 -35q-260 0 -446.5 184.5t-186.5 444.5q0 258 186.5 442.5t446.5 184.5q262 0 447.5 -183.5t185.5 -443.5t-185.5 -444.5 t-447.5 -184.5z" glyph-name="o" horiz-adv-x="1429" unicode="o"/><glyph d="M750 1083q-141 0 -273 -82q-25 -16 -45 -16q-29 0 -49.5 20.5t-20.5 49.5q0 41 41 63q152 102 347 103q260 0 446 -184.5t186 -444.5q0 -258 -186 -442.5t-446 -184.5q-307 0 -488 275v-537q0 -29 -20.5 -49.5t-49 -20.5t-49 20.5t-20.5 49.5v1430q0 29 20.5 49t49.5 20 q27 0 48 -21.5t21 -47.5v-541q0 -203 143.5 -346.5t344.5 -143.5q203 0 346 143.5t143 346.5q0 205 -143 348t-346 143z" glyph-name="p" unicode="p"/><glyph d="M715 102q141 0 272 82q25 16 45 17q29 0 49.5 -20.5t20.5 -49.5q0 -41 -41 -63q-152 -102 -346 -103q-260 0 -446.5 184.5t-186.5 444.5q0 258 186.5 442.5t446.5 184.5q307 0 487 -275v187q0 29 20.5 49t49 20t49 -20.5t20.5 -48.5v-1430q0 -29 -20.5 -49.5t-48.5 -20.5 q-27 0 -48.5 21.5t-21.5 48.5v891q0 203 -143.5 346t-343.5 143q-203 0 -346.5 -143t-143.5 -346q0 -205 143.5 -348.5t346.5 -143.5z" glyph-name="q" unicode="q"/><glyph d="M793 1206q29 -8 44 -31.5t9 -54.5q-6 -29 -29.5 -45t-52.5 -10q-53 12 -84 12q-186 2 -291.5 -119.5t-126.5 -318.5q-2 -27 -21.5 -45.5t-48 -18.5t-49 20.5t-20.5 49.5v488q0 29 20.5 49t49 20t49 -20.5t20.5 -48.5v-183q121 270 418 271q64 -1 113 -15zM262 53 q2 -29 -19.5 -49t-50 -20t-49 20.5t-20.5 48.5v350q0 29 20.5 49.5t49 20.5t49 -20.5t20.5 -49.5v-350z" glyph-name="r" horiz-adv-x="862" unicode="r"/><glyph d="M864 1004q-168 80 -313 79q-131 0 -208 -47t-77 -127q0 -92 57.5 -142t143.5 -62.5t185.5 -30t185.5 -42t143 -101t57 -205.5q0 -170 -130 -265.5t-353 -95.5q-240 0 -440 123q-33 20 -33 62q0 43 36 63t70 0q193 -111 367 -111q160 0 250 59.5t90 170.5q0 78 -43 124 t-110.5 64.5t-150.5 28.5t-165 25.5t-149.5 47t-110.5 102.5t-43 181q0 156 121 236t307 80q207 0 379 -95q43 -20 43 -63q0 -41 -36 -60t-73 1z" glyph-name="s" horiz-adv-x="1120" unicode="s"/><glyph d="M336 874v-595q0 -57 41 -98.5t98 -41.5h51q29 0 50.5 -20.5t21.5 -49t-21.5 -49t-50.5 -20.5h-51q-115 0 -196.5 82t-81.5 197v595q0 29 20.5 49.5t49 20.5t49 -20.5t20.5 -49.5zM41 1116q0 29 20.5 49.5t49.5 20.5h86v215q0 29 20.5 49t49 20t49 -20t20.5 -49v-215h190 q29 0 49.5 -20.5t20.5 -49.5t-20.5 -49t-49.5 -20h-415q-29 0 -49.5 20t-20.5 49z" glyph-name="t" horiz-adv-x="638" unicode="t"/><glyph d="M893 92q0 -41 -35 -61q-115 -66 -262 -66q-219 0 -346 131t-127 342v695q0 29 20.5 49t49 20t49 -20.5t20.5 -48.5v-695q0 -152 92 -244t242 -92q102 0 188 52q14 10 37 10q29 0 50.5 -21.5t21.5 -50.5zM995 53v1080q-2 29 19.5 49t50.5 20t49.5 -20.5t20.5 -48.5v-1080 q0 -29 -20.5 -49t-49.5 -20t-49.5 20t-20.5 49z" glyph-name="u" horiz-adv-x="1257" unicode="u"/><glyph d="M662 23q-23 -39 -64 -39t-63 39l-504 1081q-12 27 -3 53.5t35.5 38.5t54 3t40.5 -36l440 -958l440 958q12 27 40 36t54.5 -3t36 -39t-3.5 -53z" glyph-name="v" horiz-adv-x="1196" unicode="v"/><glyph d="M1614 1106l-363 -1075q-4 -20 -23.5 -33.5t-43.5 -13.5q-53 0 -68 47l-293 870l-293 -870q-18 -47 -69 -47t-70 47l-362 1075q-12 35 10 65.5t59 30.5q51 0 70 -51l293 -877l293 877q18 51 69 51t70 -51l291 -877l293 877q18 51 69 51q37 0 58.5 -30.5t9.5 -65.5z" glyph-name="w" horiz-adv-x="1644" unicode="w"/><glyph d="M1059 1083l-893 -1073q-20 -27 -55 -26q-49 0 -66.5 42t12.5 76l891 1072q29 29 58 28q49 0 66.5 -42t-13.5 -77zM111 1202q37 0 55 -28l299 -361q29 -35 11.5 -76t-64.5 -41q-35 0 -56 27l-299 360q-29 35 -10 77t64 42zM705 489q37 0 55 -28l299 -361 q29 -35 11.5 -75.5t-64.5 -40.5q-35 0 -56 26l-299 361q-29 35 -10 76.5t64 41.5z" glyph-name="x" horiz-adv-x="1114" unicode="x"/><glyph d="M407.5 -360.5q-26.5 12.5 -36 39t3.5 53.5l663 1431q12 27 40 36t54.5 -3t36 -39t-3.5 -53l-663 -1432q-12 -27 -40 -36t-54.5 3.5zM501.5 256q-26.5 -12 -54 -3t-39.5 36l-377 815q-12 27 -3 53.5t35.5 38.5t54 3t40.5 -36l377 -815q12 -27 2.5 -53.5t-36 -38.5z" glyph-name="y" horiz-adv-x="1196" unicode="y"/><glyph d="M1028 1116q0 -25 -16 -45l-742 -932h686q29 0 50.5 -20.5t21.5 -49t-21.5 -49t-50.5 -20.5h-835q-29 0 -50.5 20.5t-21.5 49.5q0 25 17 45l741 932h-688q-29 0 -49.5 20t-20.5 49t20.5 49.5t49.5 20.5h837q29 0 50.5 -20.5t21.5 -49.5z" glyph-name="z" horiz-adv-x="1077" unicode="z"/><glyph d="M131 592q0 29 19.5 49.5t48.5 20.5q45 0 75.5 30.5t30.5 75.5v522q0 102 70.5 174t173.5 72h16q29 0 49.5 -20.5t20.5 -49t-20.5 -49t-49.5 -20.5h-16q-43 0 -74 -31t-31 -76v-522q0 -113 -104 -174q104 -66 104 -176v-520q0 -45 31 -76t74 -31h16q29 0 49.5 -20.5 t20.5 -49t-20.5 -50t-49.5 -21.5h-16q-102 0 -173 72.5t-71 175.5v520q0 45 -30.5 75.5t-75.5 30.5q-29 0 -48.5 19.5t-19.5 48.5z" glyph-name="braceleft" horiz-adv-x="679" unicode="{"/><glyph d="M246 -309v1804q0 23 17.5 40t40 17t39.5 -17t17 -40v-1804q0 -23 -17 -40.5t-39.5 -17.5t-40 17.5t-17.5 40.5z" glyph-name="bar" horiz-adv-x="606" unicode="|"/><glyph d="M549 592q0 -29 -19.5 -48.5t-48.5 -19.5q-45 0 -75.5 -30.5t-30.5 -75.5v-520q0 -102 -71 -175t-173 -73h-16q-29 0 -49.5 21.5t-20.5 50t20.5 49t49.5 20.5h16q43 0 74 31t31 76v520q0 111 104 176q-104 61 -104 174v522q0 45 -31 76t-74 31h-16q-29 0 -49.5 20.5 t-20.5 49t20.5 49t49.5 20.5h16q102 0 173 -71.5t71 -174.5v-522q0 -45 30.5 -75.5t75.5 -30.5q29 0 48.5 -20.5t19.5 -49.5z" glyph-name="braceright" horiz-adv-x="679" unicode="}"/><glyph d="M618 573q37 0 64 22.5t33 61.5q4 27 23.5 41.5t45.5 12.5q27 -4 41.5 -23.5t12.5 -46.5q-10 -82 -71.5 -137t-148.5 -55q-131 0 -192 114q-31 49 -82 49q-37 0 -63.5 -22.5t-32.5 -61.5q-4 -27 -23.5 -41t-46.5 -12q-27 4 -41 23.5t-12 46.5q10 82 71.5 137t147.5 55 q131 0 193 -114q30 -50 81 -50z" glyph-name="asciitilde" horiz-adv-x="962" unicode="~"/><glyph glyph-name="uni00A0" horiz-adv-x="1024" unicode=" "/><glyph d="M123 53l20 1100q0 20 14.5 34.5t35 14.5t35 -14t14.5 -35l20 -1100q0 -29 -20.5 -49t-49 -20t-49 20t-20.5 49zM88 1450q0 41 31 71.5t76 30.5q41 0 71.5 -30.5t30.5 -71.5q0 -45 -30.5 -76t-71.5 -31q-45 0 -76 31t-31 76z" glyph-name="exclamdown" horiz-adv-x="385" unicode="¡"/><glyph d="M416 39q-152 80 -243 228.5t-91 326.5t91 326.5t243 228.5q12 6 30 6q29 0 50.5 -20.5t21.5 -49.5q0 -41 -35 -61q-119 -61 -189.5 -177t-70.5 -253t71 -253t189 -177q35 -20 35 -62q0 -29 -21.5 -49t-50.5 -20q-18 0 -30 6zM606 -123v160q0 29 19.5 49t48.5 20h37 q205 0 348 144q20 18 48 18t48.5 -20.5t21.5 -49t-20 -46.5q-174 -172 -414 -185v-90q0 -29 -20.5 -49.5t-49 -20.5t-48 20.5t-19.5 49.5zM606 1151v158q0 29 19.5 49t48 20t49 -20.5t20.5 -48.5v-88q240 -12 414 -185q18 -20 19.5 -49t-19 -49t-49.5 -19t-51 21 q-143 139 -346 143h-37q-29 0 -48.5 19.5t-19.5 48.5z" glyph-name="cent" horiz-adv-x="1247" unicode="¢"/><glyph d="M123 766q0 29 20.5 50.5t49.5 21.5h681q29 0 49.5 -21.5t20.5 -50.5t-20.5 -49.5t-49.5 -20.5h-612v-557h754q29 -2 49 -22.5t20 -46.5q0 -29 -20.5 -49.5t-48.5 -20.5h-823q-29 0 -49.5 20.5t-20.5 49.5v696zM123 995v95q0 201 141.5 341t340 140t339.5 -140.5 t141 -340.5q0 -29 -21.5 -49.5t-50 -20.5t-49 20.5t-20.5 49.5q0 141 -99.5 241.5t-240.5 100.5t-241.5 -100.5t-100.5 -241.5v-95q0 -29 -20.5 -49t-49 -20t-49 20t-20.5 49z" glyph-name="sterling" horiz-adv-x="1157" unicode="£"/><glyph d="M725 -35q-217 0 -391 135l-98 -98q-20 -20 -49 -20t-52 22q-20 20 -20 49t20 49l98 99q-137 170 -137 393q0 221 135 389l-96 98q-20 23 -19 51.5t21 49.5q20 23 49 22.5t50 -22.5l96 -99q174 137 393 137.5t393 -137.5l99 99q20 23 48.5 22.5t49.5 -22.5q20 -20 21 -49 t-19 -52l-98 -98q137 -170 137 -389q0 -221 -139 -393l100 -99q20 -20 20 -48.5t-20 -49.5q-23 -23 -51.5 -22.5t-48.5 20.5l-101 98q-172 -135 -391 -135zM725 106q205 0 348.5 141.5t143.5 346.5q0 203 -143.5 345t-348.5 142q-201 0 -344 -142t-143 -345t142 -345.5 t345 -142.5z" glyph-name="currency" horiz-adv-x="1452" unicode="¤"/><glyph d="M1112 944q0 -29 -19.5 -49.5t-48.5 -20.5h-219l-123 -172v-649q0 -29 -20 -49t-49 -20t-49.5 20.5t-20.5 48.5v670q0 27 15 43l538 758q23 29 58 28q43 0 62 -38.5t-5 -71.5l-307 -430h120q29 0 48.5 -19.5t19.5 -48.5zM152 942q0 29 19 49.5t48 20.5h123l-307 432 q-16 23 -11 51.5t27 44.5q25 16 54.5 13t46.5 -27l383 -539q16 -23 11 -51.5t-30 -46.5q-16 -14 -41 -15h-256q-29 0 -48 19.5t-19 48.5zM152 637q0 29 19 49.5t48 20.5h191q29 0 49 -20.5t20 -49.5t-20.5 -48.5t-48.5 -19.5h-191q-29 0 -48 19.5t-19 48.5zM791 637 q0 29 19 49.5t48 20.5h184q29 0 49.5 -20.5t20.5 -49.5t-20.5 -48.5t-49.5 -19.5h-184q-29 0 -48 19.5t-19 48.5z" glyph-name="yen" horiz-adv-x="1263" unicode="¥"/><glyph d="M194.5 682q-28.5 0 -50 19.5t-21.5 48.5v489q0 29 21.5 49.5t50 20.5t49 -20.5t20.5 -49.5v-489q0 -29 -20.5 -48.5t-49 -19.5zM194.5 -119q-28.5 0 -50 19.5t-21.5 48.5v489q0 29 21.5 49.5t50 20.5t49 -20.5t20.5 -49.5v-489q0 -29 -20.5 -48.5t-49 -19.5z" glyph-name="brokenbar" horiz-adv-x="387" unicode="¦"/><glyph d="M539 362q184 0 309 -103t125 -267q0 -154 -127 -264.5t-307 -110.5q-152 0 -269.5 80t-154.5 203q-8 29 11 56.5t56 27.5q47 0 64 -43q33 -84 109.5 -133.5t183.5 -49.5q121 0 208 69t87 165q0 109 -83 170t-212 61q-184 0 -310.5 103.5t-126.5 267.5q0 119 68 209 q23 29 57 28q29 0 49.5 -20t20.5 -49q0 -23 -16 -47q-39 -59 -39 -121q0 -106 84 -169t213 -63zM537 825q-184 0 -309.5 103.5t-125.5 267.5q0 154 127 264.5t308 110.5q152 0 269.5 -80t154.5 -203q8 -29 -11.5 -56.5t-56.5 -27.5q-47 0 -64 43q-33 84 -109.5 133.5 t-182.5 49.5q-121 0 -208 -69t-87 -165q0 -109 83 -170t212 -61q184 0 310 -103.5t126 -267.5q0 -119 -68 -209q-20 -29 -57 -29q-29 0 -49.5 20.5t-20.5 49.5q0 23 17 47q39 59 39 121q0 106 -84 168.5t-213 62.5z" glyph-name="section" horiz-adv-x="1075" unicode="§"/><glyph d="M213 1481q0 -39 -26.5 -65.5t-63.5 -26.5t-64.5 26.5t-27.5 65.5q0 37 27.5 63.5t64.5 26.5t63.5 -26.5t26.5 -63.5zM616 1481q0 -39 -25.5 -65.5t-62.5 -26.5q-39 0 -65.5 26.5t-26.5 65.5q0 37 26.5 63.5t65.5 26.5q37 0 62.5 -26.5t25.5 -63.5z" glyph-name="dieresis" horiz-adv-x="647" unicode="¨"/><glyph d="M1264 594q0 229 -162 391t-393 162q-229 0 -391 -162t-162 -391t161.5 -392t391.5 -163q231 0 393 163t162 392zM1337 594q0 -262 -183 -445.5t-445 -183.5q-260 0 -443.5 184.5t-183.5 444.5t183.5 443.5t443.5 183.5t444 -183.5t184 -443.5zM932 373q12 12 30.5 12 t30.5 -12q14 -12 14.5 -31.5t-12.5 -30.5q-125 -119 -286 -118q-166 0 -284 116.5t-118 284.5t118 284.5t284 116.5q164 0 286 -118q12 -12 12.5 -31t-12.5 -31q-12 -14 -31.5 -13t-33.5 13q-88 88 -221 92q-129 -2 -220.5 -93t-91.5 -218q0 -131 91.5 -222t220.5 -91 q133 0 223 90z" glyph-name="copyright" horiz-adv-x="1419" unicode="©"/><glyph d="M397 1014q76 0 135 39q12 8 23 8q14 0 24.5 -10.5t10.5 -24.5q0 -23 -21 -33q-76 -51 -172 -51q-131 0 -223 92t-92 223q0 129 92 221.5t223 92.5q154 0 244 -137v92q0 35 35 35q14 0 24.5 -10.5t10.5 -24.5v-539q0 -14 -10.5 -24.5t-24.5 -10.5q-31 0 -35 31v274 q0 100 -71.5 172t-172.5 72q-102 0 -173.5 -71.5t-71.5 -172.5q0 -102 71.5 -172.5t173.5 -70.5z" glyph-name="ordfeminine" horiz-adv-x="813" unicode="ª"/><glyph d="M66 594q0 31 25.5 58.5t141.5 129.5q70 61 115 101q35 33 78 12t43 -68q0 -25 -31 -59l-202 -174l202 -176q31 -27 31 -58q0 -45 -43 -65.5t-78 10.5q-244 215 -260 234q-22 26 -22 55zM414 594q0 31 25.5 58.5t142.5 129.5q70 61 114 101q35 33 78 12t43 -68 q0 -25 -31 -59l-202 -174l202 -176q31 -27 31 -58q0 -45 -43 -65.5t-78 10.5q-244 215 -260 234q-22 26 -22 55z" glyph-name="guillemotleft" horiz-adv-x="882" unicode="«"/><glyph d="M176 662h543q29 0 49 -20.5t20 -49.5v-154q0 -29 -21.5 -49t-50 -20t-49 20.5t-20.5 48.5v86h-471q-29 0 -49.5 19.5t-20.5 48.5t20.5 49.5t49.5 20.5z" glyph-name="logicalnot" horiz-adv-x="911" unicode="¬"/><glyph d="M571 1327q0 -100 -71.5 -173t-171.5 -73q-102 0 -174 72t-72 174q0 100 72.5 172t173 72t172 -72t71.5 -172zM543 1327q0 88 -62.5 150.5t-152.5 62.5t-153.5 -62.5t-63.5 -150.5q0 -90 63.5 -153.5t153.5 -63.5t152.5 63.5t62.5 153.5zM459 1389q0 -72 -68 -97l62 -121 l-31 -2l-60 119h-118v-117h-29v316h141q43 0 73 -28.5t30 -69.5zM428 1389q0 29 -20.5 50t-51.5 21h-112v-145h112q31 0 51.5 20.5t20.5 53.5z" glyph-name="registered" horiz-adv-x="653" unicode="®"/><glyph d="M106 1466.5q0 28.5 20.5 49t49.5 20.5h277q29 0 49 -20.5t20 -49t-20.5 -49t-48.5 -20.5h-277q-29 0 -49.5 20.5t-20.5 49z" glyph-name="macron" horiz-adv-x="628" unicode="¯"/><glyph d="M418 1362q0 43 -31 72.5t-76 29.5q-43 0 -72.5 -29.5t-29.5 -72.5q0 -45 29.5 -76t72.5 -31q45 0 76 31t31 76zM520 1362q0 -86 -61.5 -147.5t-147.5 -61.5t-147.5 61.5t-61.5 147.5t61.5 147.5t147.5 61.5t147.5 -61.5t61.5 -147.5z" glyph-name="degree" horiz-adv-x="622" unicode="°"/><glyph d="M627 403v293h-473q-29 0 -48.5 20.5t-19.5 49.5t19.5 50.5t48.5 21.5h473v295q0 29 20.5 49t49 20t49 -20.5t20.5 -48.5v-295h469q29 0 49.5 -21.5t20.5 -50.5t-20.5 -49.5t-49.5 -20.5h-469v-293q0 -29 -20.5 -49t-49 -20t-49 20t-20.5 49zM86 69.5q0 28.5 20.5 50 t49.5 21.5h1079q29 0 49.5 -21.5t20.5 -50t-20.5 -49t-49.5 -20.5h-1079q-29 0 -49.5 20.5t-20.5 49z" glyph-name="plusminus" horiz-adv-x="1390" unicode="±"/><glyph d="M100 802.5q0 14.5 13 26.5l354 326q70 59 70 145q0 78 -56.5 130.5t-136.5 52.5q-78 0 -134 -55.5t-58 -137.5q0 -14 -10.5 -24.5t-25 -10.5t-24.5 10.5t-10 24.5q0 109 77 185.5t185.5 76.5t184 -71.5t75.5 -180.5q0 -121 -92 -200l-283 -262h318q14 0 24.5 -10.5 t10.5 -25t-10.5 -24.5t-24.5 -10h-412q-14 0 -24.5 10t-10.5 24.5z" glyph-name="uni00B2" horiz-adv-x="686" unicode="²"/><glyph d="M369 1229q0 35 34 35q8 0 15 -2q80 -25 132 -94.5t52 -155.5q0 -109 -76.5 -184.5t-185.5 -75.5q-98 0 -171 62.5t-87 154.5q-2 18 8 31.5t24.5 13.5t25 -10.5t12.5 -22.5q10 -70 63 -115t125 -45q80 0 136 55.5t56 135.5q0 66 -38.5 117t-100.5 67q-24 6 -24 33z M547 1475l-342 -326q-10 -10 -24.5 -10t-25 10t-10.5 25q0 18 15 28l278 264h-272q-14 0 -24.5 10.5t-10.5 25t10.5 24.5t24.5 10h358q14 0 24.5 -10t10.5 -24.5t-12 -26.5z" glyph-name="uni00B3" horiz-adv-x="686" unicode="³"/><glyph d="M178 1401q-12 31 23 51l254 121q27 10 52 -1t34 -38q10 -27 -2.5 -52.5t-38.5 -33.5l-273 -70q-35 -10 -49 23z" glyph-name="acute" horiz-adv-x="718" unicode="´"/><glyph d="M909 92q0 -41 -35 -61q-115 -66 -253 -66q-209 0 -357 158v-418q0 -29 -21.5 -50.5t-50 -21.5t-49 21.5t-20.5 50.5v1425q0 29 20.5 50.5t49 21.5t50 -21.5t21.5 -50.5v-659q0 -154 103.5 -261.5t253.5 -107.5q94 0 180 52q16 10 37 10q29 0 50 -21.5t21 -50.5zM1065 -16 q-27 0 -46.5 17t-23.5 44v1085q0 29 20.5 50.5t49.5 21.5q27 0 48.5 -20.5t23.5 -48.5v-1080q0 -29 -21.5 -49t-50.5 -20z" glyph-name="uni00B5" horiz-adv-x="1259" unicode="µ"/><glyph d="M610 53v1413q0 29 20.5 49.5t49.5 20.5h348q29 0 49.5 -20.5t20.5 -49.5v-1413q0 -29 -20.5 -49t-49.5 -20t-48 20.5t-19 48.5v1344h-211v-1344q0 -29 -20.5 -49t-49.5 -20t-49.5 20t-20.5 49zM193 1153q0 -102 70.5 -173t172.5 -71h17q29 0 49 -21.5t20 -50t-20.5 -49 t-48.5 -20.5h-17q-160 0 -272.5 112.5t-112.5 272.5q0 158 112.5 270.5t272.5 112.5h17q29 0 49 -20.5t20 -49t-20.5 -49t-48.5 -20.5h-17q-102 0 -172.5 -71t-70.5 -173z" glyph-name="paragraph" horiz-adv-x="1220" unicode="¶"/><glyph d="M178 489q-45 0 -75.5 31t-30.5 74t30.5 73.5t75.5 30.5q41 0 72 -30.5t31 -73.5t-31 -74t-72 -31z" glyph-name="periodcentered" horiz-adv-x="454" unicode="·"/><glyph d="M240 -154l2 9q8 47 26 145h60l-19 -109q25 20 68 21q72 0 117 -46t45 -118q0 -70 -48.5 -118t-117.5 -48q-72 0 -120 45t-48 115q0 29 30.5 29t30.5 -29q0 -45 30 -71.5t77 -26.5q45 0 72.5 29.5t27.5 74.5q0 47 -27.5 78t-72.5 31q-43 0 -68 -29q-14 -20 -39 -14 q-10 2 -19 12t-7 20z" glyph-name="cedilla" horiz-adv-x="743" unicode="¸"/><glyph d="M268 803v651l-112 -65q-8 -6 -19 -7q-35 0 -35 35q0 23 21 33l160 96q8 6 22 6t24.5 -10t10.5 -24v-715q0 -14 -11.5 -24.5t-25.5 -10.5t-24.5 10.5t-10.5 24.5z" glyph-name="uni00B9" horiz-adv-x="462" unicode="¹"/><glyph d="M395 1014q102 0 174 70.5t72 173t-71.5 173t-174.5 70.5q-100 0 -171.5 -71.5t-71.5 -172.5q0 -102 71.5 -172.5t171.5 -70.5zM395 942q-129 0 -221 92t-92 223q0 129 92 221.5t221 92.5q131 0 223.5 -92.5t92.5 -221.5q0 -131 -92.5 -223t-223.5 -92z" glyph-name="ordmasculine" horiz-adv-x="792" unicode="º"/><glyph d="M817 594q0 -31 -25.5 -58.5t-142.5 -129.5q-70 -61 -114 -101q-35 -31 -78 -10.5t-43 65.5q0 31 30 58l203 176l-203 174q-31 35 -30 59q0 47 43 67.5t78 -11.5q244 -215 260 -234q22 -26 22 -55zM469 594q0 -31 -25.5 -58.5t-142.5 -129.5q-70 -61 -115 -101 q-35 -31 -77.5 -10.5t-42.5 65.5q0 31 30 58l203 176l-203 174q-31 35 -30 59q0 47 43 67.5t77 -11.5q244 -215 260 -234q23 -26 23 -55z" glyph-name="guillemotright" horiz-adv-x="882" unicode="»"/><glyph d="M268 803v651l-112 -65q-8 -6 -19 -7q-35 0 -35 35q0 23 21 33l160 96q8 6 22 6t24.5 -10t10.5 -24v-715q0 -14 -11.5 -24.5t-25.5 -10.5t-24.5 10.5t-10.5 24.5zM311 27l623 1507q14 29 43 16q31 -12 16 -41l-622 -1507q-16 -29 -41 -18q-33 12 -19 43zM1128 332v286 l-286 -382h444q14 0 24.5 -10.5t10.5 -25t-10.5 -23.5t-24.5 -9h-88v-150q0 -14 -10 -24t-24.5 -10t-25 10t-10.5 24v150h-352q-14 0 -24.5 10t-10.5 25q0 12 11 22l381 529q10 14 30 14q14 0 24.5 -10t10.5 -25v-401q0 -14 -10 -24.5t-25 -10.5q-35 0 -35 35z" glyph-name="onequarter" horiz-adv-x="1361" unicode="¼"/><glyph d="M268 803v651l-112 -65q-8 -6 -19 -7q-35 0 -35 35q0 23 21 33l160 96q8 6 22 6t24.5 -10t10.5 -24v-715q0 -14 -11.5 -24.5t-25.5 -10.5t-24.5 10.5t-10.5 24.5zM311 27l623 1507q14 29 43 16q31 -12 16 -41l-622 -1507q-16 -29 -41 -18q-33 12 -19 43zM881 34.5 q0 14.5 12 26.5l354 326q70 59 70 145q0 78 -56.5 130.5t-136.5 52.5q-78 0 -134 -55.5t-58 -137.5q0 -14 -10.5 -24.5t-24.5 -10.5t-24.5 10.5t-10.5 24.5q0 109 77 185.5t185.5 76.5t184 -71.5t75.5 -180.5q0 -121 -92 -200l-282 -262h317q14 0 24.5 -10.5t10.5 -25 t-10.5 -24.5t-24.5 -10h-412q-14 0 -24 10t-10 24.5z" glyph-name="onehalf" horiz-adv-x="1466" unicode="½"/><glyph d="M475 27l623 1507q14 29 43 16q31 -12 16 -41l-622 -1507q-16 -29 -41 -18q-33 12 -19 43zM1292 332v286l-286 -382h444q14 0 24.5 -10.5t10.5 -25t-10.5 -23.5t-24.5 -9h-88v-150q0 -14 -10.5 -24t-24.5 -10t-24.5 10t-10.5 24v150h-352q-14 0 -24.5 10t-10.5 25 q0 12 10 22l381 529q10 14 31 14q14 0 24.5 -10t10.5 -25v-401q0 -14 -10.5 -24.5t-24.5 -10.5q-35 0 -35 35zM369 1229q0 35 34 35q8 0 15 -2q80 -25 132 -94.5t52 -155.5q0 -109 -76.5 -184.5t-185.5 -75.5q-98 0 -171 62.5t-87 154.5q-2 18 8 31.5t24.5 13.5t25 -10.5 t12.5 -22.5q10 -70 63 -115t125 -45q80 0 136 55.5t56 135.5q0 66 -38.5 117t-100.5 67q-24 6 -24 33zM547 1475l-342 -326q-10 -10 -24.5 -10t-25 10t-10.5 25q0 18 15 28l278 264h-272q-14 0 -24.5 10.5t-10.5 25t10.5 24.5t24.5 10h358q14 0 24.5 -10t10.5 -24.5 t-12 -26.5z" glyph-name="threequarters" horiz-adv-x="1527" unicode="¾"/><glyph d="M676 1116v-176q0 -29 -20.5 -49.5t-49.5 -20.5q-158 0 -269.5 -111.5t-111.5 -273.5q0 -158 112 -270.5t269 -112.5q141 0 249 92.5t130 229.5q4 27 24.5 46t47.5 19q31 0 53.5 -24.5t13.5 -63.5q-31 -186 -177 -311t-341 -125q-217 0 -370.5 152.5t-153.5 367.5 q0 199 130 346.5t323 174.5v110q0 29 21.5 49.5t50 20.5t49 -20.5t20.5 -49.5zM504 1448q0 43 30.5 73.5t71.5 30.5q45 0 76 -30.5t31 -73.5q0 -45 -31 -76t-76 -31q-41 0 -71.5 31t-30.5 76z" glyph-name="questiondown" horiz-adv-x="1208" unicode="¿"/><glyph d="M887 1632q-14 -33 -49 -22l-273 69q-27 8 -39 34t-2 52q8 27 34 38.5t52 0.5l254 -121q35 -20 23 -51zM983 633l-276 672l-531 -1280q-18 -41 -65 -41q-31 0 -50.5 19.5t-19.5 47.5q0 16 6 29l596 1431q16 41 63.5 41t63.5 -41l342 -823q6 -12 6 -29q0 -29 -19.5 -48 t-49.5 -19q-48 0 -66 41zM526 485h623q43 0 63 -41l154 -364q6 -12 6 -29q0 -29 -19.5 -48t-49.5 -19q-47 0 -66 41l-129 321h-582q-29 0 -49 20.5t-20 49t20 49t49 20.5z" glyph-name="Agrave" horiz-adv-x="1413" unicode="À"/><glyph d="M520 1632q-12 31 23 51l254 121q27 10 52 -1t34 -38q10 -27 -2.5 -52t-38.5 -34l-273 -69q-35 -11 -49 22zM983 633l-276 672l-531 -1280q-18 -41 -65 -41q-31 0 -50.5 19.5t-19.5 47.5q0 16 6 29l596 1431q16 41 63.5 41t63.5 -41l342 -823q6 -12 6 -29q0 -29 -19.5 -48 t-49.5 -19q-48 0 -66 41zM526 485h623q43 0 63 -41l154 -364q6 -12 6 -29q0 -29 -19.5 -48t-49.5 -19q-47 0 -66 41l-129 321h-582q-29 0 -49 20.5t-20 49t20 49t49 20.5z" glyph-name="Aacute" horiz-adv-x="1413" unicode="Á"/><glyph d="M707 1880q27 0 124 -113q41 -45 68 -75q20 -23 7 -51.5t-44 -28.5q-18 0 -39 20l-116 121l-117 -121q-20 -20 -39 -20q-31 0 -44 28.5t7 51.5q150 170 164 180q13 8 29 8zM983 633l-276 672l-531 -1280q-18 -41 -65 -41q-31 0 -50.5 19.5t-19.5 47.5q0 16 6 29l596 1431 q16 41 63.5 41t63.5 -41l342 -823q6 -12 6 -29q0 -29 -19.5 -48t-49.5 -19q-48 0 -66 41zM526 485h623q43 0 63 -41l154 -364q6 -12 6 -29q0 -29 -19.5 -48t-49.5 -19q-47 0 -66 41l-129 321h-582q-29 0 -49 20.5t-20 49t20 49t49 20.5z" glyph-name="Acircumflex" horiz-adv-x="1413" unicode="Â"/><glyph d="M475 1657q2 61 43 103t100 42q78 0 125 -73q31 -35 54 -35q25 0 42 18.5t17 44.5q0 16 12.5 28.5t28.5 12.5t28.5 -12t12.5 -29q-2 -61 -43 -103t-98 -42q-76 0 -123 74q-33 37 -56 36q-27 0 -44 -19.5t-17 -45.5q0 -16 -12.5 -28.5t-28.5 -12.5t-28.5 12.5t-12.5 28.5z M983 633l-276 672l-531 -1280q-18 -41 -65 -41q-31 0 -50.5 19.5t-19.5 47.5q0 16 6 29l596 1431q16 41 63.5 41t63.5 -41l342 -823q6 -12 6 -29q0 -29 -19.5 -48t-49.5 -19q-48 0 -66 41zM526 485h623q43 0 63 -41l154 -364q6 -12 6 -29q0 -29 -19.5 -48t-49.5 -19 q-47 0 -66 41l-129 321h-582q-29 0 -49 20.5t-20 49t20 49t49 20.5z" glyph-name="Atilde" horiz-adv-x="1413" unicode="Ã"/><glyph d="M594 1712q0 -39 -26.5 -65.5t-63.5 -26.5t-64.5 26.5t-27.5 65.5q0 37 27.5 63.5t64.5 26.5t63.5 -26.5t26.5 -63.5zM997 1712q0 -39 -25.5 -65.5t-62.5 -26.5q-39 0 -65.5 26.5t-26.5 65.5q0 37 26.5 63.5t65.5 26.5q37 0 62.5 -26.5t25.5 -63.5zM983 633l-276 672 l-531 -1280q-18 -41 -65 -41q-31 0 -50.5 19.5t-19.5 47.5q0 16 6 29l596 1431q16 41 63.5 41t63.5 -41l342 -823q6 -12 6 -29q0 -29 -19.5 -48t-49.5 -19q-48 0 -66 41zM526 485h623q43 0 63 -43l154 -362q6 -12 6 -29q0 -29 -19.5 -48t-49.5 -19q-47 0 -66 41l-129 321 h-582q-29 0 -49 20.5t-20 49t20 49t49 20.5z" glyph-name="Adieresis" horiz-adv-x="1413" unicode="Ä"/><glyph d="M768 1742.5q0 26.5 -17.5 44t-44 17.5t-45 -17.5t-18.5 -44t18.5 -45t45 -18.5t44 18.5t17.5 45zM858 1743q0 -63 -45 -108.5t-106.5 -45.5t-106.5 45t-45 109q0 61 45 105t106.5 44t106.5 -44t45 -105zM983 633l-276 672l-531 -1280q-18 -41 -65 -41q-31 0 -50.5 19.5 t-19.5 47.5q0 16 6 29l596 1431q16 41 63.5 41t63.5 -41l342 -823q6 -12 6 -29q0 -29 -19.5 -48t-49.5 -19q-48 0 -66 41zM526 485h623q43 0 63 -41l154 -364q6 -12 6 -29q0 -29 -19.5 -48t-49.5 -19q-47 0 -66 41l-129 321h-582q-29 0 -49 20.5t-20 49t20 49t49 20.5z" glyph-name="Aring" horiz-adv-x="1413" unicode="Å"/><glyph d="M1081 766q-2 29 18.5 49.5t49.5 20.5h838q29 0 49 -20.5t20 -49.5t-20.5 -49.5t-48.5 -20.5h-766v-557h907q29 -2 49.5 -22.5t20.5 -46.5q0 -29 -20.5 -49.5t-49.5 -20.5h-979q-29 0 -48.5 20.5t-19.5 49.5v696zM469 645q0 27 16 47l605 811q23 33 59 33h979 q29 0 49.5 -20.5t20.5 -49t-20.5 -49t-49.5 -20.5h-940l-586 -785q-23 -37 -63 -37q-29 0 -49.5 20.5t-20.5 49.5zM45 94l270 365q20 29 56 28h551q29 0 49 -20.5t20 -49t-20.5 -49t-48.5 -20.5h-512l-250 -336q-16 -25 -46 -27.5t-52.5 13.5t-27.5 44.5t11 51.5z" glyph-name="AE" horiz-adv-x="2269" unicode="Æ"/><glyph d="M1442 1331q20 -20 21 -49t-19 -49q-23 -20 -50.5 -20.5t-47.5 20.5q-205 199 -472 199q-276 0 -469.5 -196t-191.5 -470q-2 -274 191.5 -469t469.5 -195q268 0 472 193q20 18 48.5 18t49 -20.5t19.5 -48t-21 -47.5q-242 -233 -570 -232q-10 0 -26.5 1t-24.5 1l-12 -76 q25 20 68 21q72 0 116.5 -46t44.5 -118q0 -70 -48 -118t-118 -48q-72 0 -119.5 45t-47.5 115q0 29 30.5 29t30.5 -29q0 -45 29.5 -71.5t76.5 -26.5q45 0 73 29.5t28 74.5q0 47 -27.5 78t-73.5 31q-43 0 -67 -29q-14 -20 -39 -14q-10 2 -19.5 12t-7.5 20l2 13q8 45 21 114 q-295 39 -493.5 264.5t-198.5 528.5q0 334 235.5 569.5t566.5 233.5q330 2 570 -238z" glyph-name="Ccedilla" horiz-adv-x="1529" unicode="Ç"/><glyph d="M877 1632q-14 -33 -50 -22l-272 69q-27 8 -39 34t-2 52q8 27 33.5 38.5t52.5 0.5l254 -121q35 -20 23 -51zM123 766q0 29 20.5 49.5t49.5 20.5h837q29 0 49.5 -20.5t20.5 -49.5t-20.5 -49.5t-49.5 -20.5h-768v-557h909q29 -2 49.5 -22.5t20.5 -46.5q0 -29 -20.5 -49.5 t-49.5 -20.5h-978q-29 0 -49.5 20.5t-20.5 49.5v696zM123 1049v417q0 29 20.5 49.5t49.5 20.5h978q29 0 49.5 -20.5t20.5 -49t-20.5 -49t-49.5 -20.5h-909v-348q0 -29 -20.5 -49.5t-49 -20.5t-49 20.5t-20.5 49.5z" glyph-name="Egrave" horiz-adv-x="1312" unicode="È"/><glyph d="M510 1632q-12 31 22 51l254 121q27 10 52.5 -1t33.5 -38q10 -27 -2 -52t-39 -34l-272 -69q-35 -11 -49 22zM123 766q0 29 20.5 49.5t49.5 20.5h837q29 0 49.5 -20.5t20.5 -49.5t-20.5 -49.5t-49.5 -20.5h-768v-557h909q29 -2 49.5 -22.5t20.5 -46.5q0 -29 -20.5 -49.5 t-49.5 -20.5h-978q-29 0 -49.5 20.5t-20.5 49.5v696zM123 1049v417q0 29 20.5 49.5t49.5 20.5h978q29 0 49.5 -20.5t20.5 -49t-20.5 -49t-49.5 -20.5h-909v-348q0 -29 -20.5 -49.5t-49 -20.5t-49 20.5t-20.5 49.5z" glyph-name="Eacute" horiz-adv-x="1312" unicode="É"/><glyph d="M682 1880q27 0 125 -113q41 -45 67 -75q20 -23 7 -51.5t-43 -28.5q-18 0 -39 20l-117 121l-117 -121q-20 -20 -39 -20q-31 0 -44 28.5t7 51.5q150 170 164 180q13 8 29 8zM123 766q0 29 20.5 49.5t49.5 20.5h837q29 0 49.5 -20.5t20.5 -49.5t-20.5 -49.5t-49.5 -20.5 h-768v-557h909q29 -2 49.5 -22.5t20.5 -46.5q0 -29 -20.5 -49.5t-49.5 -20.5h-978q-29 0 -49.5 20.5t-20.5 49.5v696zM123 1049v417q0 29 20.5 49.5t49.5 20.5h978q29 0 49.5 -20.5t20.5 -49t-20.5 -49t-49.5 -20.5h-909v-348q0 -29 -20.5 -49.5t-49 -20.5t-49 20.5 t-20.5 49.5z" glyph-name="Ecircumflex" horiz-adv-x="1312" unicode="Ê"/><glyph d="M545 1712q0 -39 -26.5 -65.5t-63.5 -26.5t-65 26.5t-28 65.5q0 37 28 63.5t65 26.5t63.5 -26.5t26.5 -63.5zM948 1712q0 -39 -25.5 -65.5t-62.5 -26.5q-39 0 -65.5 26.5t-26.5 65.5q0 37 26.5 63.5t65.5 26.5q37 0 62.5 -26.5t25.5 -63.5zM123 766q0 29 20.5 49.5 t49.5 20.5h837q29 0 49.5 -20.5t20.5 -49.5t-20.5 -49.5t-49.5 -20.5h-768v-557h909q29 -2 49.5 -22.5t20.5 -46.5q0 -29 -20.5 -49.5t-49.5 -20.5h-978q-29 0 -49.5 20.5t-20.5 49.5v696zM123 1049v417q0 29 20.5 49.5t49.5 20.5h978q29 0 49.5 -20.5t20.5 -49t-20.5 -49 t-49.5 -20.5h-909v-348q0 -29 -20.5 -49.5t-49 -20.5t-49 20.5t-20.5 49.5z" glyph-name="Edieresis" horiz-adv-x="1312" unicode="Ë"/><glyph d="M123 53v1430q0 29 20.5 49t49 20t50 -20.5t21.5 -48.5v-1430q0 -29 -21.5 -49t-50 -20t-49 20t-20.5 49zM379 1632q-14 -33 -49 -22l-273 69q-27 8 -39 34t-2 52q8 27 34 38.5t52 0.5l254 -121q35 -20 23 -51z" glyph-name="Igrave" horiz-adv-x="387" unicode="Ì"/><glyph d="M123 53v1430q0 29 20.5 49t49 20t50 -20.5t21.5 -48.5v-1430q0 -29 -21.5 -49t-50 -20t-49 20t-20.5 49zM12 1632q-12 31 23 51l254 121q27 10 52.5 -1t33.5 -38q10 -27 -2.5 -52t-38.5 -34l-273 -69q-35 -11 -49 22z" glyph-name="Iacute" horiz-adv-x="387" unicode="Í"/><glyph d="M123 53v1430q0 29 20.5 49t49 20t50 -20.5t21.5 -48.5v-1430q0 -29 -21.5 -49t-50 -20t-49 20t-20.5 49zM193 1880q27 0 124 -113q41 -45 68 -75q20 -23 7 -51.5t-44 -28.5q-18 0 -39 20l-116 121l-117 -121q-20 -20 -39 -20q-31 0 -44 28.5t7 51.5q150 170 164 180 q13 8 29 8z" glyph-name="Icircumflex" horiz-adv-x="387" unicode="Î"/><glyph d="M121 1712q0 -39 -26.5 -65.5t-63.5 -26.5t-64.5 26.5t-27.5 65.5q0 37 27.5 63.5t64.5 26.5t63.5 -26.5t26.5 -63.5zM449 1712q0 -39 -26 -65.5t-63 -26.5q-39 0 -64.5 26.5t-25.5 65.5q0 37 26 63.5t64 26.5q37 0 63 -26.5t26 -63.5zM123 53v1430q0 29 20.5 49t49 20 t50 -20.5t21.5 -48.5v-1430q0 -29 -21.5 -49t-50 -20t-49 20t-20.5 49z" glyph-name="Idieresis" horiz-adv-x="387" unicode="Ï"/><glyph d="M231.5 555q28.5 0 49 -20.5t20.5 -49.5v-346h385q260 0 442.5 184.5t182.5 444.5q0 262 -182.5 445.5t-442.5 183.5h-385v-346q0 -29 -20.5 -49.5t-49 -20.5t-49 20.5t-20.5 49.5v415q0 29 20.5 49.5t48.5 20.5h455q317 0 542.5 -225.5t225.5 -542.5t-225 -542.5 t-543 -225.5h-455q-29 0 -49 20.5t-20 49.5v415q0 29 20.5 49.5t49 20.5zM584 698h-490q-29 0 -49 20.5t-20 49.5t20.5 49.5t48.5 20.5h490q29 0 48 -20.5t19 -49.5t-19 -49.5t-48 -20.5z" glyph-name="Eth" horiz-adv-x="1525" unicode="Ð"/><glyph d="M1239 1552q29 0 50.5 -20.5t21.5 -48.5v-1430q0 -29 -21.5 -49t-50.5 -20q-37 0 -57 30l-918 1260v-1221q0 -29 -21.5 -49t-50 -20t-49 20.5t-20.5 48.5v1430q0 29 20.5 49t49.5 20q37 0 57 -26l919 -1264v1221q0 29 20.5 49t49.5 20zM485 1616q2 61 43 103t101 42 q78 0 125 -73q31 -35 53 -35q25 0 42 18.5t17 44.5q0 16 12.5 28.5t29 12.5t28.5 -12t12 -29q-2 -61 -43 -103t-98 -42q-76 0 -123 74q-33 37 -55 36q-27 0 -44.5 -19.5t-17.5 -45.5q0 -16 -12 -28.5t-28.5 -12.5t-29 12.5t-12.5 28.5z" glyph-name="Ntilde" horiz-adv-x="1433" unicode="Ñ"/><glyph d="M1055 1673q-14 -33 -49 -22l-273 69q-27 8 -39 34t-2 52q8 27 34 38t52 1l254 -121q35 -20 23 -51zM1538 768q0 274 -193.5 470t-468 196t-468 -196t-193.5 -470t193.5 -470t468 -196t468 196t193.5 470zM1681 768q0 -332 -236.5 -567.5t-567.5 -235.5 q-334 0 -569.5 235.5t-235.5 567.5t235.5 567.5t569.5 235.5q332 0 568 -235.5t236 -567.5z" glyph-name="Ograve" horiz-adv-x="1753" unicode="Ò"/><glyph d="M688 1673q-12 31 23 51l254 121q27 10 52 -1t34 -38q10 -27 -2.5 -52t-38.5 -34l-273 -69q-35 -11 -49 22zM1538 768q0 274 -193.5 470t-468 196t-468 -196t-193.5 -470t193.5 -470t468 -196t468 196t193.5 470zM1681 768q0 -332 -236.5 -567.5t-567.5 -235.5 q-334 0 -569.5 235.5t-235.5 567.5t235.5 567.5t569.5 235.5q332 0 568 -235.5t236 -567.5z" glyph-name="Oacute" horiz-adv-x="1753" unicode="Ó"/><glyph d="M877 1880q27 0 124 -113q41 -45 68 -75q20 -23 7 -51.5t-44 -28.5q-18 0 -39 20l-116 121l-117 -121q-20 -20 -39 -20q-31 0 -44 28.5t7 51.5q150 170 164 180q13 8 29 8zM1538 768q0 274 -193.5 470t-468 196t-468 -196t-193.5 -470t193.5 -470t468 -196t468 196 t193.5 470zM1681 768q0 -332 -236.5 -567.5t-567.5 -235.5q-334 0 -569.5 235.5t-235.5 567.5t235.5 567.5t569.5 235.5q332 0 568 -235.5t236 -567.5z" glyph-name="Ocircumflex" horiz-adv-x="1753" unicode="Ô"/><glyph d="M641 1677q2 61 43 103.5t100 42.5q78 0 125 -74q31 -35 54 -35q25 0 42 18.5t17 45.5q0 16 12.5 28.5t28.5 12.5t28.5 -12.5t12.5 -28.5q-2 -61 -43 -103.5t-98 -42.5q-76 0 -123 74q-33 37 -56 37q-27 0 -44 -19.5t-17 -46.5q0 -16 -12.5 -28.5t-28.5 -12.5t-28.5 12.5 t-12.5 28.5zM1538 768q0 274 -193.5 470t-468 196t-468 -196t-193.5 -470t193.5 -470t468 -196t468 196t193.5 470zM1681 768q0 -332 -236.5 -567.5t-567.5 -235.5q-334 0 -569.5 235.5t-235.5 567.5t235.5 567.5t569.5 235.5q332 0 568 -235.5t236 -567.5z" glyph-name="Otilde" horiz-adv-x="1753" unicode="Õ"/><glyph d="M764 1712q0 -39 -26.5 -65.5t-63.5 -26.5t-64.5 26.5t-27.5 65.5q0 37 27.5 63.5t64.5 26.5t63.5 -26.5t26.5 -63.5zM1169 1712q0 -39 -26.5 -65.5t-63.5 -26.5q-39 0 -64.5 26.5t-25.5 65.5q0 37 25.5 63.5t64.5 26.5q37 0 63.5 -26.5t26.5 -63.5zM1538 768 q0 274 -193.5 470t-468 196t-468 -196t-193.5 -470t193.5 -470t468 -196t468 196t193.5 470zM1681 768q0 -332 -236.5 -567.5t-567.5 -235.5q-334 0 -569.5 235.5t-235.5 567.5t235.5 567.5t569.5 235.5q332 0 568 -235.5t236 -567.5z" glyph-name="Odieresis" horiz-adv-x="1753" unicode="Ö"/><glyph d="M1268 1079l-490 -489l490 -490q23 -20 22.5 -48.5t-22.5 -49.5q-20 -20 -49 -21t-52 19l-489 489l-492 -489q-20 -20 -48.5 -20t-51.5 22q-20 20 -20 48t20 50l492 490l-490 491q-20 20 -20 49t22 52q20 20 49 20t49 -20l490 -492l489 490q20 20 49 20t49.5 -20.5 t21.5 -49t-19 -51.5z" glyph-name="multiply" horiz-adv-x="1355" unicode="×"/><glyph d="M1649 1434l-1430 -1432q-23 -20 -51.5 -19t-49 21.5t-20.5 49t21 48.5l1429 1432q20 20 49 20t50 -20q23 -23 22.5 -51.5t-20.5 -48.5zM885 1434q-274 0 -467 -195t-193 -471q0 -168 64 -297q12 -25 12 -39q0 -29 -20.5 -49.5t-49.5 -20.5q-47 0 -63 41q-86 168 -86 365 q0 332 234.5 567.5t568.5 235.5q197 0 364 -86q41 -16 41 -64q0 -29 -20.5 -49t-48.5 -20q-14 0 -39 12q-143 70 -297 70zM885 102q274 0 466.5 195t192.5 471q0 168 -63 297q-12 25 -13 39q0 29 20.5 49.5t49.5 20.5q47 0 64 -41q86 -168 86 -365q0 -332 -234.5 -567.5 t-568.5 -235.5q-197 0 -365 86q-41 16 -41 64q0 29 20.5 49t49.5 20q14 0 39 -12q143 -70 297 -70z" glyph-name="Oslash" horiz-adv-x="1769" unicode="Ø"/><glyph d="M891 1632q-14 -33 -49 -22l-273 69q-27 8 -39 34t-2 52q8 27 34 38.5t52 0.5l254 -121q35 -20 23 -51zM1169 1483q0 29 20.5 49t49.5 20t49.5 -20.5t20.5 -48.5v-924q0 -246 -174 -420t-418 -174q-246 0 -420 174t-174 420v924q0 29 20.5 49t49 20t49 -20.5t20.5 -48.5 v-924q0 -188 133 -322.5t322 -134.5q186 0 319 134.5t133 322.5v924z" glyph-name="Ugrave" horiz-adv-x="1431" unicode="Ù"/><glyph d="M524 1632q-12 31 23 51l254 121q27 10 52.5 -1t33.5 -38q10 -27 -2.5 -52t-38.5 -34l-273 -69q-35 -11 -49 22zM1169 1483q0 29 20.5 49t49.5 20t49.5 -20.5t20.5 -48.5v-924q0 -246 -174 -420t-418 -174q-246 0 -420 174t-174 420v924q0 29 20.5 49t49 20t49 -20.5 t20.5 -48.5v-924q0 -188 133 -322.5t322 -134.5q186 0 319 134.5t133 322.5v924z" glyph-name="Uacute" horiz-adv-x="1431" unicode="Ú"/><glyph d="M715 1880q27 0 125 -113q41 -45 67 -75q20 -23 7 -51.5t-44 -28.5q-18 0 -39 20l-116 121l-117 -121q-20 -20 -39 -20q-31 0 -44 28.5t7 51.5q150 170 164 180q13 8 29 8zM1169 1483q0 29 20.5 49t49.5 20t49.5 -20.5t20.5 -48.5v-924q0 -246 -174 -420t-418 -174 q-246 0 -420 174t-174 420v924q0 29 20.5 49t49 20t49 -20.5t20.5 -48.5v-924q0 -188 133 -322.5t322 -134.5q186 0 319 134.5t133 322.5v924z" glyph-name="Ucircumflex" horiz-adv-x="1431" unicode="Û"/><glyph d="M602 1712q0 -39 -26.5 -65.5t-63.5 -26.5t-64.5 26.5t-27.5 65.5q0 37 27.5 63.5t64.5 26.5t63.5 -26.5t26.5 -63.5zM1006 1712q0 -39 -26 -65.5t-62 -26.5q-39 0 -65 26.5t-26 65.5q0 37 26 63.5t65 26.5q37 0 62.5 -26.5t25.5 -63.5zM1169 1483q0 29 20.5 49t49.5 20 t49.5 -20.5t20.5 -48.5v-924q0 -246 -174 -420t-418 -174q-246 0 -420 174t-174 420v924q0 29 20.5 49t49 20t49 -20.5t20.5 -48.5v-924q0 -188 133 -322.5t322 -134.5q186 0 319 134.5t133 322.5v924z" glyph-name="Udieresis" horiz-adv-x="1431" unicode="Ü"/><glyph d="M451 1632q-12 31 22 51l254 121q27 10 52.5 -1t33.5 -38q10 -27 -2 -52t-39 -34l-272 -69q-35 -11 -49 22zM1231 1442l-529 -740v-649q0 -29 -20 -49t-49 -20t-49.5 20.5t-20.5 48.5v670q0 27 15 43l538 758q23 29 58 28q43 0 62.5 -38.5t-5.5 -71.5zM418 905l-383 539 q-16 23 -11 51.5t27 44.5q25 16 54.5 13t46.5 -27l383 -539q16 -23 10 -52.5t-29 -45.5q-25 -16 -53.5 -12.5t-44.5 28.5z" glyph-name="Yacute" horiz-adv-x="1282" unicode="Ý"/><glyph d="M408 594q0 29 20.5 49.5t48.5 20.5h369q113 0 190.5 79.5t77.5 192.5q0 111 -78 189.5t-190 78.5h-369q-29 0 -49 20.5t-20 49.5t20.5 49t48.5 20h369q170 0 290.5 -119.5t120.5 -287.5q0 -170 -120.5 -291t-290.5 -121h-369q-29 0 -49 20.5t-20 49.5zM262 53 q2 -29 -19.5 -49t-50 -20t-49 20.5t-20.5 48.5v1430q0 29 20.5 49t49 20t49 -20.5t20.5 -48.5v-1430z" glyph-name="Thorn" horiz-adv-x="1331" unicode="Þ"/><glyph d="M596 764h-174q-29 0 -49.5 20.5t-20.5 49t20.5 49t49.5 20.5h174q186 0 319.5 -132t133.5 -318.5t-133.5 -319.5t-319.5 -133h-174q-29 0 -49.5 20.5t-20.5 49t20.5 49t49.5 20.5h174q129 0 219 92.5t90 221.5t-90 220t-219 91zM750 1012q0 16 12 41q25 53 24 116 q0 109 -76.5 186t-185.5 77q-106 0 -184 -77t-78 -186v-1466q0 -29 -20.5 -49.5t-49 -20.5t-49 20.5t-20.5 49.5v1466q0 166 117.5 284t283.5 118q168 0 287 -118t119 -284q0 -80 -45 -178q-20 -47 -66 -47q-29 0 -49 19.5t-20 48.5z" glyph-name="germandbls" horiz-adv-x="1130" unicode="ß"/><glyph d="M899 1401q-14 -33 -49 -23l-272 70q-27 8 -39.5 33.5t-1.5 52.5q8 27 33.5 38t52.5 1l254 -121q34 -20 22 -51zM715 102q141 0 272 82q25 16 45 17q29 0 49.5 -20.5t20.5 -49.5q0 -41 -41 -63q-152 -102 -346 -103q-260 0 -446.5 184.5t-186.5 444.5q0 258 186.5 442.5 t446.5 184.5q307 0 487 -275v187q0 29 20.5 49t49 20t49 -20.5t20.5 -48.5v-1080q0 -29 -20.5 -49t-48.5 -20q-27 0 -48.5 21.5t-21.5 47.5v541q0 203 -143.5 346t-343.5 143q-203 0 -346.5 -143t-143.5 -346q0 -205 143.5 -348.5t346.5 -143.5z" glyph-name="agrave" unicode="à"/><glyph d="M532 1401q-12 31 23 51l254 121q27 10 52.5 -1t33.5 -38q10 -27 -2 -52.5t-39 -33.5l-272 -70q-36 -10 -50 23zM715 102q141 0 272 82q25 16 45 17q29 0 49.5 -20.5t20.5 -49.5q0 -41 -41 -63q-152 -102 -346 -103q-260 0 -446.5 184.5t-186.5 444.5q0 258 186.5 442.5 t446.5 184.5q307 0 487 -275v187q0 29 20.5 49t49 20t49 -20.5t20.5 -48.5v-1080q0 -29 -20.5 -49t-48.5 -20q-27 0 -48.5 21.5t-21.5 47.5v541q0 203 -143.5 346t-343.5 143q-203 0 -346.5 -143t-143.5 -346q0 -205 143.5 -348.5t346.5 -143.5z" glyph-name="aacute" unicode="á"/><glyph d="M711 1626q27 0 125 -113q41 -45 67 -75q20 -23 7 -51.5t-44 -28.5q-18 0 -39 20l-116 121l-117 -121q-20 -20 -39 -20q-31 0 -44 28.5t7 51.5q150 170 164 180q13 8 29 8zM715 102q141 0 272 82q25 16 45 17q29 0 49.5 -20.5t20.5 -49.5q0 -41 -41 -63 q-152 -102 -346 -103q-260 0 -446.5 184.5t-186.5 444.5q0 258 186.5 442.5t446.5 184.5q307 0 487 -275v187q0 29 20.5 49t49 20t49 -20.5t20.5 -48.5v-1080q0 -29 -20.5 -49t-48.5 -20q-27 0 -48.5 21.5t-21.5 47.5v541q0 203 -143.5 346t-343.5 143q-203 0 -346.5 -143 t-143.5 -346q0 -205 143.5 -348.5t346.5 -143.5z" glyph-name="acircumflex" unicode="â"/><glyph d="M485 1425q2 61 43 103.5t101 42.5q78 0 125 -74q31 -35 53 -35q25 0 42 18.5t17 45.5q0 16 12.5 28.5t29 12.5t28.5 -12.5t12 -28.5q-2 -61 -43 -103.5t-98 -42.5q-76 0 -123 74q-33 37 -55 37q-27 0 -44.5 -19.5t-17.5 -46.5q0 -16 -12 -28.5t-28.5 -12.5t-29 12.5 t-12.5 28.5zM715 102q141 0 272 82q25 16 45 17q29 0 49.5 -20.5t20.5 -49.5q0 -41 -41 -63q-152 -102 -346 -103q-260 0 -446.5 184.5t-186.5 444.5q0 258 186.5 442.5t446.5 184.5q307 0 487 -275v187q0 29 20.5 49t49 20t49 -20.5t20.5 -48.5v-1080q0 -29 -20.5 -49 t-48.5 -20q-27 0 -48.5 21.5t-21.5 47.5v541q0 203 -143.5 346t-343.5 143q-203 0 -346.5 -143t-143.5 -346q0 -205 143.5 -348.5t346.5 -143.5z" glyph-name="atilde" unicode="ã"/><glyph d="M598 1481q0 -39 -26.5 -65.5t-63.5 -26.5t-64.5 26.5t-27.5 65.5q0 37 27.5 63.5t64.5 26.5t63.5 -26.5t26.5 -63.5zM1001 1481q0 -39 -25.5 -65.5t-62.5 -26.5q-39 0 -65.5 26.5t-26.5 65.5q0 37 26.5 63.5t65.5 26.5q37 0 62.5 -26.5t25.5 -63.5zM715 102q141 0 272 82 q25 16 45 17q29 0 49.5 -20.5t20.5 -49.5q0 -41 -41 -63q-152 -102 -346 -103q-260 0 -446.5 184.5t-186.5 444.5q0 258 186.5 442.5t446.5 184.5q307 0 487 -275v187q0 29 20.5 49t49 20t49 -20.5t20.5 -48.5v-1080q0 -29 -20.5 -49t-48.5 -20q-27 0 -48.5 21.5t-21.5 47.5 v541q0 203 -143.5 346t-343.5 143q-203 0 -346.5 -143t-143.5 -346q0 -205 143.5 -348.5t346.5 -143.5z" glyph-name="adieresis" unicode="ä"/><glyph d="M776 1489q0 27 -18.5 44t-42.5 17q-29 0 -47.5 -17t-18.5 -44t18.5 -45.5t47.5 -18.5q25 0 43 18.5t18 45.5zM864 1489q0 -63 -45 -108.5t-104 -45.5q-63 0 -108.5 45t-45.5 109q0 61 45 105t109 44q59 0 104 -44t45 -105zM715 102q141 0 272 82q25 16 45 17 q29 0 49.5 -20.5t20.5 -49.5q0 -41 -41 -63q-152 -102 -346 -103q-260 0 -446.5 184.5t-186.5 444.5q0 258 186.5 442.5t446.5 184.5q307 0 487 -275v187q0 29 20.5 49t49 20t49 -20.5t20.5 -48.5v-1080q0 -29 -20.5 -49t-48.5 -20q-27 0 -48.5 21.5t-21.5 47.5v541 q0 203 -143.5 346t-343.5 143q-203 0 -346.5 -143t-143.5 -346q0 -205 143.5 -348.5t346.5 -143.5z" glyph-name="aring" unicode="å"/><glyph d="M1464 594q0 29 20.5 49.5t49.5 20.5h793q-27 178 -163 298.5t-319 120.5q-203 0 -354.5 -144t-151.5 -345q0 -203 151.5 -347.5t354.5 -144.5q121 0 223.5 55.5t167.5 151.5q20 35 60 35q43 0 62.5 -39t-3.5 -72q-76 -115 -214 -191.5t-296 -76.5q-160 0 -292 74 t-214 203v-189q0 -29 -20.5 -49t-48.5 -20q-27 0 -46.5 17t-23.5 44v549q0 203 -143.5 346t-343.5 143q-203 0 -345.5 -143t-142.5 -346q0 -205 142.5 -348.5t345.5 -143.5q141 0 272 82q25 16 45 17q29 0 49.5 -20.5t20.5 -49.5q0 -41 -41 -63q-152 -102 -346 -103 q-260 0 -445.5 184.5t-185.5 444.5t185.5 443.5t445.5 183.5q307 0 487 -275v187q0 29 20.5 49t49 20t49 -20.5t20.5 -48.5v-189q82 127 214.5 202t291.5 75q256 0 438.5 -182.5t186.5 -444.5q0 -29 -21.5 -49.5t-50.5 -20.5h-864q-29 0 -49.5 20.5t-20.5 49.5z" glyph-name="ae" horiz-adv-x="2551" unicode="æ"/><glyph d="M1059 250q20 18 48 18t48.5 -20.5t21.5 -49t-20 -46.5q-193 -186 -446 -187q-10 0 -26.5 1t-25.5 1l-12 -76q25 20 68 21q72 0 117 -46t45 -118q0 -70 -48.5 -118t-117.5 -48q-72 0 -120 45t-48 115q0 29 30.5 29t30.5 -29q0 -45 30 -71.5t77 -26.5q45 0 72.5 29.5 t27.5 74.5q0 47 -27.5 78t-72.5 31q-43 0 -68 -29q-14 -20 -39 -14q-10 2 -19.5 12t-6.5 20l4 17q8 49 20 112q-225 39 -372.5 213t-147.5 406q0 260 183.5 442.5t445.5 184.5q258 0 446 -185q18 -20 19.5 -49t-19 -49t-49.5 -19t-51 21q-143 139 -346 143 q-201 -2 -343.5 -144t-142.5 -343q0 -205 142.5 -349.5t343.5 -144t348 147.5z" glyph-name="ccedilla" horiz-adv-x="1247" unicode="ç"/><glyph d="M891 1401q-14 -33 -49 -23l-273 70q-27 8 -39 33.5t-2 52.5q8 27 34 38t52 1l254 -121q35 -20 23 -51zM330 594q0 29 20.5 49.5t48.5 20.5h793q-27 178 -163 298.5t-318 120.5q-201 0 -343.5 -143t-142.5 -346q0 -205 142.5 -348.5t343.5 -143.5q121 0 223 55.5 t168 151.5q20 35 59 35q43 0 62.5 -39t-2.5 -72q-76 -115 -214.5 -191.5t-295.5 -76.5q-260 0 -444.5 184.5t-184.5 444.5t184.5 443.5t444.5 183.5q256 0 438 -182.5t186 -444.5q0 -29 -21.5 -49.5t-49.5 -20.5h-865q-29 0 -49 20.5t-20 49.5z" glyph-name="egrave" horiz-adv-x="1415" unicode="è"/><glyph d="M524 1401q-12 31 23 51l254 121q27 10 52.5 -1t33.5 -38q10 -27 -2.5 -52.5t-38.5 -33.5l-273 -70q-35 -10 -49 23zM330 594q0 29 20.5 49.5t48.5 20.5h793q-27 178 -163 298.5t-318 120.5q-201 0 -343.5 -143t-142.5 -346q0 -205 142.5 -348.5t343.5 -143.5 q121 0 223 55.5t168 151.5q20 35 59 35q43 0 62.5 -39t-2.5 -72q-76 -115 -214.5 -191.5t-295.5 -76.5q-260 0 -444.5 184.5t-184.5 444.5t184.5 443.5t444.5 183.5q256 0 438 -182.5t186 -444.5q0 -29 -21.5 -49.5t-49.5 -20.5h-865q-29 0 -49 20.5t-20 49.5z" glyph-name="eacute" horiz-adv-x="1415" unicode="é"/><glyph d="M707 1626q27 0 124 -113q41 -45 68 -75q20 -23 7 -51.5t-44 -28.5q-18 0 -39 20l-116 121l-117 -121q-20 -20 -39 -20q-31 0 -44 28.5t7 51.5q150 170 164 180q13 8 29 8zM330 594q0 29 20.5 49.5t48.5 20.5h793q-27 178 -163 298.5t-318 120.5q-201 0 -343.5 -143 t-142.5 -346q0 -205 142.5 -348.5t343.5 -143.5q121 0 223 55.5t168 151.5q20 35 59 35q43 0 62.5 -39t-2.5 -72q-76 -115 -214.5 -191.5t-295.5 -76.5q-260 0 -444.5 184.5t-184.5 444.5t184.5 443.5t444.5 183.5q256 0 438 -182.5t186 -444.5q0 -29 -21.5 -49.5 t-49.5 -20.5h-865q-29 0 -49 20.5t-20 49.5z" glyph-name="ecircumflex" horiz-adv-x="1415" unicode="ê"/><glyph d="M596 1481q0 -39 -26.5 -65.5t-63.5 -26.5t-64.5 26.5t-27.5 65.5q0 37 27.5 63.5t64.5 26.5t63.5 -26.5t26.5 -63.5zM999 1481q0 -39 -25.5 -65.5t-62.5 -26.5q-39 0 -65.5 26.5t-26.5 65.5q0 37 26.5 63.5t65.5 26.5q37 0 62.5 -26.5t25.5 -63.5zM330 594 q0 29 20.5 49.5t48.5 20.5h793q-27 178 -163 298.5t-318 120.5q-201 0 -343.5 -143t-142.5 -346q0 -205 142.5 -348.5t343.5 -143.5q121 0 223 55.5t168 151.5q20 35 59 35q43 0 62.5 -39t-2.5 -72q-76 -115 -214.5 -191.5t-295.5 -76.5q-260 0 -444.5 184.5t-184.5 444.5 t184.5 443.5t444.5 183.5q256 0 438 -182.5t186 -444.5q0 -29 -21.5 -49.5t-49.5 -20.5h-865q-29 0 -49 20.5t-20 49.5z" glyph-name="edieresis" horiz-adv-x="1415" unicode="ë"/><glyph d="M375 1401q-14 -33 -49 -23l-273 70q-27 8 -39 33.5t-2 52.5q8 27 34 38t52 1l254 -121q35 -20 23 -51zM123 53v1080q0 29 20.5 49t49 20t49 -20.5t20.5 -48.5v-1080q0 -29 -20.5 -49t-49 -20t-49 20t-20.5 49z" glyph-name="igrave" horiz-adv-x="385" unicode="ì"/><glyph d="M12 1401q-12 31 23 51l254 121q27 10 52.5 -1t33.5 -38q10 -27 -2.5 -52.5t-38.5 -33.5l-273 -70q-35 -10 -49 23zM123 53v1080q0 29 20.5 49t49 20t49 -20.5t20.5 -48.5v-1080q0 -29 -20.5 -49t-49 -20t-49 20t-20.5 49z" glyph-name="iacute" horiz-adv-x="385" unicode="í"/><glyph d="M193 1626q27 0 124 -113q41 -45 68 -75q20 -23 7 -51.5t-44 -28.5q-18 0 -39 20l-116 121l-117 -121q-20 -20 -39 -20q-31 0 -44 28.5t7 51.5q150 170 164 180q13 8 29 8zM123 53v1080q0 29 20.5 49t49 20t49 -20.5t20.5 -48.5v-1080q0 -29 -20.5 -49t-49 -20t-49 20 t-20.5 49z" glyph-name="icircumflex" horiz-adv-x="385" unicode="î"/><glyph d="M121 1481q0 -39 -27.5 -65.5t-64.5 -26.5t-63.5 26.5t-26.5 65.5q0 37 26.5 63.5t63.5 26.5t64.5 -26.5t27.5 -63.5zM446 1481q0 -39 -25.5 -65.5t-62.5 -26.5q-39 0 -65.5 26.5t-26.5 65.5q0 37 26.5 63.5t65.5 26.5q37 0 62.5 -26.5t25.5 -63.5zM123 53v1080 q0 29 20.5 49t49 20t49 -20.5t20.5 -48.5v-1080q0 -29 -20.5 -49t-49 -20t-49 20t-20.5 49z" glyph-name="idieresis" horiz-adv-x="385" unicode="ï"/><glyph d="M420 1278q-6 20 3 39.5t30 25.5l96 27l-62 64q-20 20 -20 51q2 29 22.5 48t47 19t55.5 -24l110 -113l136 39q20 4 38.5 -7t24.5 -31.5t-4 -39t-31 -24.5l-80 -23l355 -362q172 -176 172 -408q0 -246 -181.5 -420t-433.5 -174t-434 174t-182 420q0 219 146.5 389 t359.5 195q43 4 66.5 -16.5t23.5 -53.5q0 -27 -17.5 -47t-44.5 -25q-168 -29 -279.5 -153.5t-111.5 -290.5q0 -188 137.5 -321.5t334 -133.5t334.5 133.5t138 321.5q0 170 -114 295l-422 432l-150 -41q-23 -6 -41 4.5t-22 30.5z" glyph-name="eth" horiz-adv-x="1394" unicode="ð"/><glyph d="M418 1425q2 61 43 103.5t100 42.5q78 0 125 -74q31 -35 53 -35q25 0 42.5 18.5t17.5 45.5q0 16 12 28.5t28.5 12.5t29 -12.5t12.5 -28.5q-2 -61 -43 -103.5t-99 -42.5q-76 0 -123 74q-33 37 -55 37q-27 0 -44 -19.5t-17 -46.5q0 -16 -12.5 -28.5t-29 -12.5t-28.5 12.5 t-12 28.5zM365 1094q0 41 34 61q115 66 263 66q219 0 346 -131.5t127 -341.5v-695q0 -29 -20.5 -49t-49.5 -20t-49.5 20.5t-20.5 48.5v695q0 152 -92 243.5t-241 91.5q-102 0 -189 -51q-14 -10 -37 -10q-29 0 -50 21.5t-21 50.5zM262 53q2 -29 -19.5 -49t-50 -20t-49 20.5 t-20.5 48.5v1080q0 29 20.5 49t49 20t49 -20.5t20.5 -48.5v-1080z" glyph-name="ntilde" horiz-adv-x="1257" unicode="ñ"/><glyph d="M901 1401q-14 -33 -49 -23l-272 70q-27 8 -39.5 33.5t-1.5 52.5q8 27 33.5 38t52.5 1l254 -121q34 -20 22 -51zM715 102q205 0 347 143.5t142 348.5q0 203 -142 346t-347 143q-201 0 -345.5 -143t-144.5 -346q0 -205 143.5 -348.5t346.5 -143.5zM715 -35 q-260 0 -446.5 184.5t-186.5 444.5q0 258 186.5 442.5t446.5 184.5q262 0 447.5 -183.5t185.5 -443.5t-185.5 -444.5t-447.5 -184.5z" glyph-name="ograve" horiz-adv-x="1429" unicode="ò"/><glyph d="M535 1401q-12 31 22 51l254 121q27 10 52.5 -1t33.5 -38q10 -27 -2 -52.5t-39 -33.5l-272 -70q-35 -10 -49 23zM715 102q205 0 347 143.5t142 348.5q0 203 -142 346t-347 143q-201 0 -345.5 -143t-144.5 -346q0 -205 143.5 -348.5t346.5 -143.5zM715 -35 q-260 0 -446.5 184.5t-186.5 444.5q0 258 186.5 442.5t446.5 184.5q262 0 447.5 -183.5t185.5 -443.5t-185.5 -444.5t-447.5 -184.5z" glyph-name="oacute" horiz-adv-x="1429" unicode="ó"/><glyph d="M715 1626q27 0 125 -113q41 -45 67 -75q20 -23 7 -51.5t-44 -28.5q-18 0 -39 20l-116 121l-117 -121q-20 -20 -39 -20q-31 0 -44 28.5t7 51.5q150 170 164 180q13 8 29 8zM715 102q205 0 347 143.5t142 348.5q0 203 -142 346t-347 143q-201 0 -345.5 -143t-144.5 -346 q0 -205 143.5 -348.5t346.5 -143.5zM715 -35q-260 0 -446.5 184.5t-186.5 444.5q0 258 186.5 442.5t446.5 184.5q262 0 447.5 -183.5t185.5 -443.5t-185.5 -444.5t-447.5 -184.5z" glyph-name="ocircumflex" horiz-adv-x="1429" unicode="ô"/><glyph d="M479 1425q2 61 43 103.5t101 42.5q78 0 125 -74q31 -35 53 -35q25 0 42 18.5t17 45.5q0 16 12.5 28.5t29 12.5t28.5 -12.5t12 -28.5q-2 -61 -43 -103.5t-98 -42.5q-76 0 -123 74q-33 37 -55 37q-27 0 -44.5 -19.5t-17.5 -46.5q0 -16 -12 -28.5t-28.5 -12.5t-29 12.5 t-12.5 28.5zM715 102q205 0 347 143.5t142 348.5q0 203 -142 346t-347 143q-201 0 -345.5 -143t-144.5 -346q0 -205 143.5 -348.5t346.5 -143.5zM715 -35q-260 0 -446.5 184.5t-186.5 444.5q0 258 186.5 442.5t446.5 184.5q262 0 447.5 -183.5t185.5 -443.5t-185.5 -444.5 t-447.5 -184.5z" glyph-name="otilde" horiz-adv-x="1429" unicode="õ"/><glyph d="M604 1481q0 -39 -26.5 -65.5t-63.5 -26.5t-64.5 26.5t-27.5 65.5q0 37 27.5 63.5t64.5 26.5t63.5 -26.5t26.5 -63.5zM1008 1481q0 -39 -26 -65.5t-62 -26.5q-39 0 -66 26.5t-27 65.5q0 37 27 63.5t66 26.5q37 0 62.5 -26.5t25.5 -63.5zM715 102q205 0 347 143.5 t142 348.5q0 203 -142 346t-347 143q-201 0 -345.5 -143t-144.5 -346q0 -205 143.5 -348.5t346.5 -143.5zM715 -35q-260 0 -446.5 184.5t-186.5 444.5q0 258 186.5 442.5t446.5 184.5q262 0 447.5 -183.5t185.5 -443.5t-185.5 -444.5t-447.5 -184.5z" glyph-name="odieresis" horiz-adv-x="1429" unicode="ö"/><glyph d="M801 94q0 -45 -30 -75.5t-75 -30.5q-43 0 -73.5 30.5t-30.5 75.5q0 41 30.5 72t73.5 31q45 0 75 -31t30 -72zM592 1096q0 45 30.5 75.5t73.5 30.5q45 0 75 -30.5t30 -75.5q0 -43 -30 -74t-75 -31q-43 0 -73.5 31t-30.5 74zM86 592q0 29 19.5 49.5t48.5 20.5h1081 q29 0 49.5 -20.5t20.5 -49.5t-20.5 -48.5t-49.5 -19.5h-1081q-29 0 -48.5 19.5t-19.5 48.5z" glyph-name="divide" horiz-adv-x="1390" unicode="÷"/><glyph d="M129 102l1081 1080q20 23 49 22.5t50 -22.5q20 -20 21 -49t-19 -52l-1082 -1079q-20 -20 -48.5 -20t-51.5 22q-20 20 -20 49t20 49zM1212 864q27 12 54.5 0t42.5 -47q41 -117 41 -223q0 -260 -184.5 -444.5t-446.5 -184.5q-106 0 -223 41q-35 14 -47.5 42t0.5 54 q10 27 36.5 38.5t53.5 -1.5q82 -33 180 -33q205 0 348 141.5t143 346.5q0 94 -34 180q-12 27 -1.5 53.5t37.5 36.5zM227 322q-27 -12 -54.5 0t-41.5 47q-41 117 -41 223q0 260 184.5 444.5t446.5 184.5q106 0 223 -41q35 -14 47.5 -42t-0.5 -55q-10 -27 -36.5 -38t-53.5 2 q-82 33 -180 32q-205 0 -348.5 -141t-143.5 -346q0 -92 35 -180q12 -27 1 -53.5t-38 -36.5z" glyph-name="oslash" horiz-adv-x="1439" unicode="ø"/><glyph d="M815 1401q-14 -33 -49 -23l-272 70q-27 8 -39.5 33.5t-1.5 52.5q8 27 33.5 38t52.5 1l254 -121q34 -20 22 -51zM893 92q0 -41 -35 -61q-115 -66 -262 -66q-219 0 -346 131t-127 342v695q0 29 20.5 49t49 20t49 -20.5t20.5 -48.5v-695q0 -152 92 -244t242 -92 q102 0 188 52q14 10 37 10q29 0 50.5 -21.5t21.5 -50.5zM995 53v1080q-2 29 19.5 49t50.5 20t49.5 -20.5t20.5 -48.5v-1080q0 -29 -20.5 -49t-49.5 -20t-49.5 20t-20.5 49z" glyph-name="ugrave" horiz-adv-x="1261" unicode="ù"/><glyph d="M449 1401q-12 31 22 51l254 121q27 10 52.5 -1t33.5 -38q10 -27 -2 -52.5t-39 -33.5l-272 -70q-35 -10 -49 23zM893 92q0 -41 -35 -61q-115 -66 -262 -66q-219 0 -346 131t-127 342v695q0 29 20.5 49t49 20t49 -20.5t20.5 -48.5v-695q0 -152 92 -244t242 -92 q102 0 188 52q14 10 37 10q29 0 50.5 -21.5t21.5 -50.5zM995 53v1080q-2 29 19.5 49t50.5 20t49.5 -20.5t20.5 -48.5v-1080q0 -29 -20.5 -49t-49.5 -20t-49.5 20t-20.5 49z" glyph-name="uacute" horiz-adv-x="1257" unicode="ú"/><glyph d="M631 1626q27 0 125 -113q41 -45 67 -75q20 -23 7 -51.5t-44 -28.5q-18 0 -38 20l-117 121l-117 -121q-20 -20 -39 -20q-31 0 -44 28.5t7 51.5q150 170 164 180q13 8 29 8zM893 92q0 -41 -35 -61q-115 -66 -262 -66q-219 0 -346 131t-127 342v695q0 29 20.5 49t49 20 t49 -20.5t20.5 -48.5v-695q0 -152 92 -244t242 -92q102 0 188 52q14 10 37 10q29 0 50.5 -21.5t21.5 -50.5zM995 53v1080q-2 29 19.5 49t50.5 20t49.5 -20.5t20.5 -48.5v-1080q0 -29 -20.5 -49t-49.5 -20t-49.5 20t-20.5 49z" glyph-name="ucircumflex" horiz-adv-x="1261" unicode="û"/><glyph d="M520 1481q0 -39 -26.5 -65.5t-63.5 -26.5t-64.5 26.5t-27.5 65.5q0 37 27.5 63.5t64.5 26.5t63.5 -26.5t26.5 -63.5zM924 1481q0 -39 -26 -65.5t-62 -26.5q-39 0 -66 26.5t-27 65.5q0 37 27 63.5t66 26.5q37 0 62.5 -26.5t25.5 -63.5zM893 92q0 -41 -35 -61 q-115 -66 -262 -66q-219 0 -346 131t-127 342v695q0 29 20.5 49t49 20t49 -20.5t20.5 -48.5v-695q0 -152 92 -244t242 -92q102 0 188 52q14 10 37 10q29 0 50.5 -21.5t21.5 -50.5zM995 53v1080q-2 29 19.5 49t50.5 20t49.5 -20.5t20.5 -48.5v-1080q0 -29 -20.5 -49 t-49.5 -20t-49.5 20t-20.5 49z" glyph-name="udieresis" horiz-adv-x="1257" unicode="ü"/><glyph d="M422 1401q-12 31 22 51l254 121q27 10 52.5 -1t33.5 -38q10 -27 -2 -52.5t-39 -33.5l-272 -70q-35 -10 -49 23zM407.5 -360.5q-26.5 12.5 -36 39t3.5 53.5l663 1431q12 27 40 36t54.5 -3t36 -39t-3.5 -53l-663 -1432q-12 -27 -40 -36t-54.5 3.5zM501.5 256 q-26.5 -12 -54 -3t-39.5 36l-377 815q-12 27 -3 53.5t35.5 38.5t54 3t40.5 -36l377 -815q12 -27 2.5 -53.5t-36 -38.5z" glyph-name="yacute" horiz-adv-x="1196" unicode="ý"/><glyph d="M750 1083q-141 0 -273 -82q-25 -16 -45 -16q-29 0 -49.5 20.5t-20.5 49.5q0 41 41 63q152 102 347 103q260 0 446 -184.5t186 -444.5q0 -258 -186 -442.5t-446 -184.5q-307 0 -488 275v-537q0 -29 -20.5 -49.5t-49 -20.5t-49 20.5t-20.5 49.5v1780q0 29 20.5 49t49.5 20 q27 0 48 -21.5t21 -47.5v-891q0 -203 143.5 -346.5t344.5 -143.5q203 0 346 143.5t143 346.5q0 205 -143 348t-346 143z" glyph-name="thorn" unicode="þ"/><glyph d="M485 1481q0 -39 -26.5 -65.5t-63.5 -26.5t-64.5 26.5t-27.5 65.5q0 37 27.5 63.5t64.5 26.5t63.5 -26.5t26.5 -63.5zM889 1481q0 -39 -25.5 -65.5t-62.5 -26.5q-39 0 -65.5 26.5t-26.5 65.5q0 37 26.5 63.5t65.5 26.5q37 0 62.5 -26.5t25.5 -63.5zM407.5 -360.5 q-26.5 12.5 -36 39t3.5 53.5l663 1431q12 27 40 36t54.5 -3t36 -39t-3.5 -53l-663 -1432q-12 -27 -40 -36t-54.5 3.5zM501.5 256q-26.5 -12 -54 -3t-39.5 36l-377 815q-12 27 -3 53.5t35.5 38.5t54 3t40.5 -36l377 -815q12 -27 2.5 -53.5t-36 -38.5z" glyph-name="ydieresis" horiz-adv-x="1196" unicode="ÿ"/><glyph d="M498 1712q0 29 20.5 49.5t48.5 20.5h277q29 0 49 -20.5t20 -49.5t-20.5 -49.5t-48.5 -20.5h-277q-29 0 -49 20.5t-20 49.5zM983 633l-276 672l-531 -1280q-18 -41 -65 -41q-31 0 -50.5 19.5t-19.5 47.5q0 16 6 29l596 1431q16 41 63.5 41t63.5 -41l342 -823q6 -12 6 -29 q0 -29 -19.5 -48t-49.5 -19q-48 0 -66 41zM526 485h623q43 0 63 -43l154 -362q6 -12 6 -29q0 -29 -19.5 -48t-49.5 -19q-47 0 -66 41l-129 321h-582q-29 0 -49 20.5t-20 49t20 49t49 20.5z" glyph-name="Amacron" horiz-adv-x="1413" unicode="Ā"/><glyph d="M506 1466.5q0 28.5 20.5 49t48.5 20.5h277q29 0 49.5 -20.5t20.5 -49t-20.5 -49t-49.5 -20.5h-277q-29 0 -49 20.5t-20 49zM715 102q141 0 272 82q25 16 45 17q29 0 49.5 -20.5t20.5 -49.5q0 -41 -41 -63q-152 -102 -346 -103q-260 0 -446.5 184.5t-186.5 444.5 q0 258 186.5 442.5t446.5 184.5q307 0 487 -275v187q0 29 20.5 49t49 20t49 -20.5t20.5 -48.5v-1080q0 -29 -20.5 -49t-48.5 -20q-27 0 -48.5 21.5t-21.5 47.5v541q0 203 -143.5 346t-343.5 143q-203 0 -346.5 -143t-143.5 -346q0 -205 143.5 -348.5t346.5 -143.5z" glyph-name="amacron" unicode="ā"/><glyph d="M983 633l-276 672l-531 -1280q-18 -41 -65 -41q-31 0 -50.5 19.5t-19.5 47.5q0 16 6 29l596 1431q16 41 63.5 41t63.5 -41l342 -823q6 -12 6 -29q0 -29 -19.5 -48t-49.5 -19q-48 0 -66 41zM526 485h623q43 0 63 -41l154 -364q6 -12 6 -29q0 -29 -19.5 -48t-49.5 -19 q-14 0 -33 8t-33 8q-57 0 -96 -40t-39 -97.5t40 -97t97 -39.5q23 0 50.5 11t35.5 11q14 0 25.5 -12t11.5 -27q0 -43 -56.5 -68.5t-107.5 -25.5q-92 0 -156.5 64.5t-64.5 156.5t64.5 156.5t156.5 64.5q16 0 27 -2l-117 291h-582q-29 0 -49 20.5t-20 49t20 49t49 20.5z" glyph-name="Aogonek" horiz-adv-x="1413" unicode="Ą"/><glyph d="M1393 -291q0 -43 -56.5 -68.5t-107.5 -25.5q-92 0 -156.5 64.5t-64.5 156.5q0 86 55 147.5t139 71.5v539q0 203 -143.5 346t-343.5 143q-203 0 -346.5 -143t-143.5 -346q0 -205 143.5 -348.5t346.5 -143.5q141 0 272 82q25 16 45 17q29 0 49.5 -20.5t20.5 -49.5 q0 -41 -41 -63q-152 -102 -346 -103q-260 0 -446.5 184.5t-186.5 444.5q0 258 186.5 442.5t446.5 184.5q307 0 487 -275v187q0 29 20.5 49t49 20t49 -20.5t20.5 -48.5v-1080q0 -29 -21.5 -49t-49.5 -20q-59 0 -98 -38t-39 -91.5t39.5 -91t97.5 -37.5q23 0 50.5 11t35.5 11 q14 0 25.5 -12.5t11.5 -26.5z" glyph-name="aogonek" unicode="ą"/><glyph d="M674 1673q-12 31 22 51l254 121q27 10 52.5 -1t33.5 -38q10 -27 -2 -52t-39 -34l-272 -69q-35 -11 -49 22zM1442 1331q20 -20 21 -49t-19 -49q-23 -20 -50.5 -20.5t-47.5 20.5q-207 201 -472 201q-276 0 -469.5 -196t-191.5 -472q-2 -274 191.5 -469t469.5 -195 q268 0 472 193q20 18 48.5 18t49 -20.5t19.5 -48t-21 -47.5q-242 -233 -570 -232q-332 -2 -567 233.5t-235 567.5q0 334 235.5 570.5t566.5 234.5q328 2 570 -240z" glyph-name="Cacute" horiz-adv-x="1529" unicode="Ć"/><glyph d="M524 1401q-12 31 23 51l254 121q27 10 52.5 -1t33.5 -38q10 -27 -2.5 -52.5t-38.5 -33.5l-273 -70q-35 -10 -49 23zM1059 250q20 18 48 18t48.5 -20.5t21.5 -49t-20 -46.5q-193 -186 -446 -187q-262 2 -445.5 185.5t-183.5 443.5t183.5 442.5t445.5 184.5q258 0 446 -185 q18 -20 19.5 -49t-19 -49t-49.5 -19t-51 21q-143 139 -346 143q-201 -2 -343.5 -144t-142.5 -343q0 -205 142.5 -349.5t343.5 -144t348 147.5z" glyph-name="cacute" horiz-adv-x="1247" unicode="ć"/><glyph d="M872 1618q-27 0 -124 113q-41 45 -68 75q-20 23 -7 51.5t44 28.5q18 0 39 -20l116 -121l117 121q20 20 39 20q31 0 44 -28.5t-7 -51.5q-150 -170 -164 -180q-13 -8 -29 -8zM1442 1331q20 -20 21 -49t-19 -49q-23 -20 -50.5 -20.5t-47.5 20.5q-207 201 -472 201 q-276 0 -469.5 -196t-191.5 -472q-2 -274 191.5 -469t469.5 -195q268 0 472 193q20 18 48.5 18t49 -20.5t19.5 -48t-21 -47.5q-242 -233 -570 -232q-332 -2 -567 233.5t-235 567.5q0 334 235.5 570.5t566.5 234.5q328 2 570 -240z" glyph-name="Ccaron" horiz-adv-x="1529" unicode="Č"/><glyph d="M711 1358q-27 0 -125 112q-41 45 -68 76q-20 23 -7 51.5t44 28.5q18 0 39 -20l117 -121l116 121q20 20 39 20q31 0 44.5 -28.5t-7.5 -51.5q-150 -170 -164 -180q-12 -8 -28 -8zM1059 250q20 18 48 18t48.5 -20.5t21.5 -49t-20 -46.5q-193 -186 -446 -187 q-262 2 -445.5 185.5t-183.5 443.5t183.5 442.5t445.5 184.5q258 0 446 -185q18 -20 19.5 -49t-19 -49t-49.5 -19t-51 21q-143 139 -346 143q-201 -2 -343.5 -144t-142.5 -343q0 -205 142.5 -349.5t343.5 -144t348 147.5z" glyph-name="ccaron" horiz-adv-x="1247" unicode="č"/><glyph d="M123 53v1413q0 29 20.5 49.5t49.5 20.5h454q317 0 542.5 -225.5t225.5 -542.5t-225 -542.5t-543 -225.5h-190q-29 0 -49.5 20.5t-20.5 49t20.5 49t49.5 20.5h190q260 0 444.5 184.5t184.5 444.5t-183.5 444.5t-445.5 184.5h-383v-1344q0 -29 -20.5 -49t-49 -20t-50 20 t-21.5 49zM674 1608q-27 0 -125 112q-41 45 -68 76q-20 23 -7 51.5t44 28.5q18 0 39 -21l117 -120l117 120q20 20 38 21q31 0 44.5 -28.5t-7.5 -51.5q-150 -170 -164 -180q-12 -8 -28 -8z" glyph-name="Dcaron" horiz-adv-x="1486" unicode="Ď"/><glyph d="M1444 1186q-33 14 -23 49l70 272q8 27 33.5 39.5t52.5 1.5q27 -8 38 -33.5t1 -52.5l-121 -254q-20 -34 -51 -22zM715 102q141 0 272 82q25 16 45 17q29 0 49.5 -20.5t20.5 -49.5q0 -41 -41 -63q-152 -102 -346 -103q-260 0 -446.5 184.5t-186.5 444.5q0 258 186.5 442.5 t446.5 184.5q307 0 487 -275v537q0 29 20.5 49t49 20t49 -20.5t20.5 -48.5v-1430q0 -29 -20.5 -49t-48.5 -20q-27 0 -48.5 21.5t-21.5 47.5v541q0 203 -143.5 346t-343.5 143q-203 0 -346.5 -143t-143.5 -346q0 -205 143.5 -348.5t346.5 -143.5z" glyph-name="dcaron" horiz-adv-x="1650" unicode="ď"/><glyph d="M469 1712q0 29 20.5 49.5t49.5 20.5h276q29 0 49.5 -20.5t20.5 -49.5t-20.5 -49.5t-49.5 -20.5h-276q-29 0 -49.5 20.5t-20.5 49.5zM123 766q0 29 20.5 49.5t49.5 20.5h837q29 0 49.5 -20.5t20.5 -49.5t-20.5 -49.5t-49.5 -20.5h-768v-557h909q29 -2 49.5 -22.5 t20.5 -46.5q0 -29 -20.5 -49.5t-49.5 -20.5h-978q-29 0 -49.5 20.5t-20.5 49.5v696zM123 1049v417q0 29 20.5 49.5t49.5 20.5h978q29 0 49.5 -20.5t20.5 -49t-20.5 -49t-49.5 -20.5h-909v-348q0 -29 -20.5 -49.5t-49 -20.5t-49 20.5t-20.5 49.5z" glyph-name="Emacron" horiz-adv-x="1312" unicode="Ē"/><glyph d="M500 1466.5q0 28.5 20.5 49t48.5 20.5h277q29 0 49 -20.5t20 -49t-20.5 -49t-48.5 -20.5h-277q-29 0 -49 20.5t-20 49zM330 594q0 29 20.5 49.5t48.5 20.5h793q-27 178 -163 298.5t-318 120.5q-201 0 -343.5 -143t-142.5 -346q0 -205 142.5 -348.5t343.5 -143.5 q121 0 223 55.5t168 151.5q20 35 59 35q43 0 62.5 -39t-2.5 -72q-76 -115 -214.5 -191.5t-295.5 -76.5q-260 0 -444.5 184.5t-184.5 444.5t184.5 443.5t444.5 183.5q256 0 438 -182.5t186 -444.5q0 -29 -21.5 -49.5t-49.5 -20.5h-865q-29 0 -49 20.5t-20 49.5z" glyph-name="emacron" horiz-adv-x="1415" unicode="ē"/><glyph d="M803 1712q0 -49 -36 -84t-83 -35t-82 35t-35 84q0 47 35 82t82 35t83 -35t36 -82zM123 766q0 29 20.5 49.5t49.5 20.5h837q29 0 49.5 -20.5t20.5 -49.5t-20.5 -49.5t-49.5 -20.5h-768v-557h909q29 -2 49.5 -22.5t20.5 -46.5q0 -29 -20.5 -49.5t-49.5 -20.5h-978 q-29 0 -49.5 20.5t-20.5 49.5v696zM123 1049v417q0 29 20.5 49.5t49.5 20.5h978q29 0 49.5 -20.5t20.5 -49t-20.5 -49t-49.5 -20.5h-909v-348q0 -29 -20.5 -49.5t-49 -20.5t-49 20.5t-20.5 49.5z" glyph-name="Edotaccent" horiz-adv-x="1312" unicode="Ė"/><glyph d="M827 1497q0 -49 -35.5 -84t-82.5 -35t-82 35t-35 84q0 47 35 82t82 35t82.5 -35t35.5 -82zM330 594q0 29 20.5 49.5t48.5 20.5h793q-27 178 -163 298.5t-318 120.5q-201 0 -343.5 -143t-142.5 -346q0 -205 142.5 -348.5t343.5 -143.5q121 0 223 55.5t168 151.5 q20 35 59 35q43 0 62.5 -39t-2.5 -72q-76 -115 -214.5 -191.5t-295.5 -76.5q-260 0 -444.5 184.5t-184.5 444.5t184.5 443.5t444.5 183.5q256 0 438 -182.5t186 -444.5q0 -29 -21.5 -49.5t-49.5 -20.5h-865q-29 0 -49 20.5t-20 49.5z" glyph-name="edotaccent" horiz-adv-x="1415" unicode="ė"/><glyph d="M1241 -291q0 -43 -56.5 -68.5t-107.5 -25.5q-92 0 -156.5 64.5t-64.5 156.5q0 102 72 164h-735q-29 0 -49.5 20.5t-20.5 49.5v696q0 29 20.5 49.5t49.5 20.5h837q29 0 49.5 -20.5t20.5 -49.5t-20.5 -49.5t-49.5 -20.5h-768v-557h909q29 -2 49.5 -22.5t20.5 -46.5 q0 -29 -20.5 -49.5t-49.5 -20.5h-53q-57 0 -97 -40t-40 -97.5t40 -97t97 -39.5q23 0 50.5 11t35.5 11q14 0 25.5 -12.5t11.5 -26.5zM123 1049v417q0 29 20.5 49.5t49.5 20.5h978q29 0 49.5 -20.5t20.5 -49t-20.5 -49t-49.5 -20.5h-909v-348q0 -29 -20.5 -49.5t-49 -20.5 t-49 20.5t-20.5 49.5z" glyph-name="Eogonek" horiz-adv-x="1312" unicode="Ę"/><glyph d="M328 594q0 29 20.5 49.5t48.5 20.5h793q-27 178 -163 298.5t-318 120.5q-201 0 -342.5 -143t-141.5 -346q0 -205 141.5 -348.5t342.5 -143.5q121 0 223 55.5t168 151.5q20 35 59 35q43 0 62.5 -39t-2.5 -72q-100 -150 -281 -223q-37 -16 -60.5 -54t-23.5 -81 q0 -61 40 -105t97 -44q23 0 50.5 11t35.5 11q14 0 25.5 -12t11.5 -27q0 -43 -56.5 -68.5t-107.5 -25.5q-92 0 -156.5 64.5t-64.5 156.5q0 68 39 133q-41 -4 -59 -4q-260 0 -443.5 184.5t-183.5 444.5t183.5 443.5t443.5 183.5q256 0 438 -182.5t186 -444.5 q0 -29 -21.5 -49.5t-49.5 -20.5h-865q-29 0 -49 20.5t-20 49.5z" glyph-name="eogonek" horiz-adv-x="1415" unicode="ę"/><glyph d="M690 1608q-27 0 -125 112q-41 45 -67 76q-20 23 -7 51.5t44 28.5q18 0 38 -21l117 -120l117 120q20 20 39 21q31 0 44 -28.5t-7 -51.5q-150 -170 -164 -180q-13 -8 -29 -8zM123 766q0 29 20.5 49.5t49.5 20.5h837q29 0 49.5 -20.5t20.5 -49.5t-20.5 -49.5t-49.5 -20.5 h-768v-557h909q29 -2 49.5 -22.5t20.5 -46.5q0 -29 -20.5 -49.5t-49.5 -20.5h-978q-29 0 -49.5 20.5t-20.5 49.5v696zM123 1049v417q0 29 20.5 49.5t49.5 20.5h978q29 0 49.5 -20.5t20.5 -49t-20.5 -49t-49.5 -20.5h-909v-348q0 -29 -20.5 -49.5t-49 -20.5t-49 20.5 t-20.5 49.5z" glyph-name="Ecaron" horiz-adv-x="1312" unicode="Ě"/><glyph d="M709 1358q-27 0 -125 112q-41 45 -68 76q-20 23 -7 51.5t44 28.5q18 0 39 -20l117 -121l116 121q20 20 39 20q31 0 44.5 -28.5t-7.5 -51.5q-150 -170 -164 -180q-12 -8 -28 -8zM330 594q0 29 20.5 49.5t48.5 20.5h793q-27 178 -163 298.5t-318 120.5q-201 0 -343.5 -143 t-142.5 -346q0 -205 142.5 -348.5t343.5 -143.5q121 0 223 55.5t168 151.5q20 35 59 35q43 0 62.5 -39t-2.5 -72q-76 -115 -214.5 -191.5t-295.5 -76.5q-260 0 -444.5 184.5t-184.5 444.5t184.5 443.5t444.5 183.5q256 0 438 -182.5t186 -444.5q0 -29 -21.5 -49.5 t-49.5 -20.5h-865q-29 0 -49 20.5t-20 49.5z" glyph-name="ecaron" horiz-adv-x="1415" unicode="ě"/><glyph d="M797 -399.5q0 34.5 34 34.5q23 0 41.5 23t18.5 51v39q-6 -4 -17 -4q-37 0 -62.5 26.5t-25.5 63.5t26 63.5t62.5 26.5t62.5 -26.5t26 -63.5v-117q0 -61 -38 -105t-94 -46q-34 0 -34 34.5zM874 836h541q29 0 49.5 -19.5t20.5 -48.5v-496q0 -25 -19 -47q-240 -262 -592 -260 q-332 -2 -567 233.5t-235 569.5q0 332 235.5 567.5t566.5 235.5q330 0 572 -238q20 -23 20 -50.5t-20 -47.5q-20 -23 -49 -23t-49 23q-209 199 -471 199q-276 0 -470 -196t-192 -470q-2 -274 191.5 -470t470.5 -196q266 0 469 199v395h-472q-29 0 -50 20.5t-21 49.5t21 49.5 t50 20.5z" glyph-name="Gcommaaccent" horiz-adv-x="1599" unicode="Ģ"/><glyph d="M788 1620q0 -35 -34 -35q-23 0 -41.5 -22.5t-18.5 -51.5v-38q6 4 17 4q37 0 62.5 -27t25.5 -63.5t-25.5 -63.5t-62.5 -27t-62.5 27t-25.5 63v117q0 61 37.5 105.5t93.5 46.5q34 0 34 -35zM223 594q0 -205 143.5 -348.5t344.5 -143.5q141 0 272 82q25 16 45 17 q29 0 49.5 -20.5t20.5 -49.5q0 -41 -41 -63q-152 -102 -346 -103q-260 0 -444.5 183.5t-184.5 445.5q0 260 184.5 443.5t444.5 183.5q307 0 487 -275v187q0 29 20.5 49t49 20t49 -20.5t20.5 -48.5v-930q0 -256 -181 -422t-445 -166q-229 0 -455 113q-37 18 -37 61 q0 29 20.5 49.5t49.5 20.5q18 0 33 -9q184 -98 389 -98q199 0 336 116t151 316v410q0 203 -142.5 346t-344.5 143q-201 0 -344.5 -143t-143.5 -346z" glyph-name="gcommaaccent" horiz-adv-x="1460" unicode="ģ"/><glyph d="M123 53v1430q0 29 20.5 49t49 20t49 -20.5t20.5 -48.5v-1430q0 -29 -20.5 -49t-49 -20t-49 20t-20.5 49zM8 1712q0 29 20.5 49.5t49.5 20.5h229q29 0 49.5 -20.5t20.5 -49.5t-20.5 -49.5t-49.5 -20.5h-229q-29 0 -49.5 20.5t-20.5 49.5z" glyph-name="Imacron" horiz-adv-x="385" unicode="Ī"/><glyph d="M8 1466.5q0 28.5 20.5 49t49.5 20.5h229q29 0 49.5 -20.5t20.5 -49t-20.5 -49t-49.5 -20.5h-229q-29 0 -49.5 20.5t-20.5 49zM123 53v1080q0 29 20.5 49t49 20t49 -20.5t20.5 -48.5v-1080q0 -29 -20.5 -49t-49 -20t-49 20t-20.5 49z" glyph-name="imacron" horiz-adv-x="385" unicode="ī"/><glyph d="M123 53v1430q0 29 20.5 49t49 20t49 -20.5t20.5 -48.5v-1424q0 -49 -51 -71q-66 -33 -66 -123q0 -57 40 -98t98 -41q4 0 14 1t12 1q33 0 43 -40t-22 -55q-39 -18 -88 -18q-92 0 -157 64.5t-65 156.5q0 129 105 193q-2 8 -2 24z" glyph-name="Iogonek" horiz-adv-x="387" unicode="Į"/><glyph d="M123 53v1080q0 29 20.5 49t49 20t49 -20.5t20.5 -48.5v-1074q0 -49 -51 -71q-66 -33 -66 -123q0 -57 40 -98t98 -41q4 0 14 1t12 1q33 0 43 -40t-22 -55q-39 -18 -88 -18q-92 0 -157 64.5t-65 156.5q0 129 105 193q-2 8 -2 24zM102 1481q0 37 27 63.5t63.5 26.5 t63.5 -26.5t27 -63.5t-27 -63.5t-63.5 -26.5t-63.5 26.5t-27 63.5z" glyph-name="iogonek" horiz-adv-x="387" unicode="į"/><glyph d="M123 53v1080q0 29 20.5 49t49 20t50 -20.5t21.5 -48.5v-1080q0 -29 -21.5 -49t-50 -20t-49 20t-20.5 49z" glyph-name="dotlessi" horiz-adv-x="387" unicode="ı"/><glyph d="M377 819l713 713q20 20 48.5 20t49.5 -20q20 -23 21 -51.5t-19 -48.5l-664 -664l664 -666q23 -20 22.5 -48.5t-22.5 -49.5q-20 -20 -48 -20t-50 20l-715 717q-20 20 -20 49t20 49zM123 53v1430q0 29 20.5 49t49 20t50 -20.5t21.5 -48.5v-1430q0 -29 -21.5 -49t-50 -20 t-49 20t-20.5 49zM547 -358.5q0 34.5 35 34.5q23 0 41 22.5t18 51.5v39q-6 -4 -16 -4q-37 0 -62.5 26.5t-25.5 63.5t25.5 63.5t62.5 26.5t62.5 -26.5t25.5 -63.5v-117q0 -61 -38 -105t-93 -46q-35 0 -35 34.5z" glyph-name="Kcommaaccent" horiz-adv-x="1263" unicode="Ķ"/><glyph d="M991 1186q23 20 51.5 19t49.5 -23q18 -20 17 -50t-22 -51l-555 -485l555 -490q20 -20 21.5 -49.5t-16.5 -50.5q-20 -23 -49 -23.5t-52 19.5l-616 547q-18 16 -17.5 47t21.5 51zM123 53v1430q0 29 20.5 49t49 20t50 -20.5t21.5 -48.5v-1430q0 -29 -21.5 -49t-50 -20 t-49 20t-20.5 49zM510 -358.5q0 34.5 35 34.5q23 0 41 22.5t18 51.5v39q-6 -4 -16 -4q-37 0 -62.5 26.5t-25.5 63.5t25.5 63.5t62.5 26.5t62.5 -26.5t25.5 -63.5v-117q0 -61 -38 -105t-93 -46q-35 0 -35 34.5z" glyph-name="kcommaaccent" horiz-adv-x="1134" unicode="ķ"/><glyph d="M123 70v1413q0 29 20.5 49t49 20t50 -20.5t21.5 -48.5v-1344h836q29 0 49 -20.5t20 -49t-20.5 -49t-48.5 -20.5h-907q-29 0 -49.5 20.5t-20.5 49.5zM473 1632q-12 31 23 51l254 121q27 10 52 -1t34 -38q10 -27 -2.5 -52t-38.5 -34l-273 -69q-35 -11 -49 22z" glyph-name="Lacute" horiz-adv-x="1200" unicode="Ĺ"/><glyph d="M123 53v1430q0 29 20.5 49t49 20t49 -20.5t20.5 -48.5v-1430q0 -29 -20.5 -49t-49 -20t-49 20t-20.5 49zM12 1610q-12 31 23 51l254 121q27 10 52.5 -1.5t33.5 -37.5q10 -27 -2.5 -52.5t-38.5 -33.5l-273 -70q-35 -10 -49 23z" glyph-name="lacute" horiz-adv-x="385" unicode="ĺ"/><glyph d="M123 70v1413q0 29 20.5 49t49 20t50 -20.5t21.5 -48.5v-1344h836q29 0 49 -20.5t20 -49t-20.5 -49t-48.5 -20.5h-907q-29 0 -49.5 20.5t-20.5 49.5zM553 -358.5q0 34.5 35 34.5q23 0 41 22.5t18 51.5v39q-6 -4 -16 -4q-37 0 -62.5 26.5t-25.5 63.5t25.5 63.5t62.5 26.5 t62.5 -26.5t25.5 -63.5v-117q0 -61 -38 -105t-93 -46q-35 0 -35 34.5z" glyph-name="Lcommaaccent" horiz-adv-x="1200" unicode="Ļ"/><glyph d="M123 53v1430q0 29 20.5 49t49 20t49 -20.5t20.5 -48.5v-1430q0 -29 -20.5 -49t-49 -20t-49 20t-20.5 49zM115 -379q0 35 35 35q23 0 41 22.5t18 51.5v39q-6 -4 -16 -5q-37 0 -63 27t-26 63.5t26 63.5t62.5 27t62.5 -27t26 -63v-117q0 -61 -38 -105.5t-93 -46.5 q-35 0 -35 35z" glyph-name="lcommaaccent" horiz-adv-x="385" unicode="ļ"/><glyph d="M123 70v1413q0 29 20.5 49t49 20t50 -20.5t21.5 -48.5v-1344h836q29 0 49 -20.5t20 -49t-20.5 -49t-48.5 -20.5h-907q-29 0 -49.5 20.5t-20.5 49.5zM991 1186q-33 14 -22 49l69 272q8 27 34 39.5t52 1.5q27 -8 38.5 -33.5t0.5 -52.5l-121 -254q-20 -34 -51 -22z" glyph-name="Lcaron" horiz-adv-x="1200" unicode="Ľ"/><glyph d="M123 53v1430q0 29 20.5 49t49 20t49 -20.5t20.5 -48.5v-1430q0 -29 -20.5 -49t-49 -20t-49 20t-20.5 49zM358 1186q-33 14 -22 49l70 272q8 27 33.5 39.5t52.5 1.5q27 -8 38 -33.5t0 -52.5l-120 -254q-21 -34 -52 -22z" glyph-name="lcaron" horiz-adv-x="565" unicode="ľ"/><glyph d="M303 489v-350h836q29 0 49 -20.5t20 -49t-20.5 -49t-48.5 -20.5h-908q-29 0 -49 20.5t-20 49.5v389q0 29 21.5 54.5t50 31.5t49 -10.5t20.5 -45.5zM838 866.5q0 -28.5 -20.5 -53.5t-49.5 -31l-678 -145q-29 -6 -48 10.5t-19 45t19 53t48 30.5l678 146q29 6 49.5 -10.5 t20.5 -45zM162 985v498q0 29 20.5 49t49 20t50 -20.5t21.5 -48.5v-467q0 -29 -21.5 -54.5t-50 -31.5t-49 10t-20.5 45z" glyph-name="Lslash" horiz-adv-x="1241" unicode="Ł"/><glyph d="M391 739l-295 -67q-29 -8 -50 8t-21 45t20.5 53.5t48.5 32.5l295 68q29 8 49.5 -8.5t20.5 -45t-19.5 -53.5t-48.5 -33zM172 1022v461q0 29 20.5 49t49 20t50 -20.5t21.5 -48.5v-430q0 -29 -21.5 -54.5t-50 -31.5t-49 10t-20.5 45zM313 528v-475q0 -29 -20.5 -49t-49 -20 t-50 20.5t-21.5 48.5v445q0 29 21.5 54.5t50 31.5t49 -10.5t20.5 -45.5z" glyph-name="lslash" horiz-adv-x="483" unicode="ł"/><glyph d="M537 1632q-12 31 22 51l254 121q27 10 52.5 -1t33.5 -38q10 -27 -2 -52t-39 -34l-272 -69q-35 -11 -49 22zM1239 1552q29 0 50.5 -20.5t21.5 -48.5v-1430q0 -29 -21.5 -49t-50.5 -20q-37 0 -57 30l-918 1260v-1221q0 -29 -21.5 -49t-50 -20t-49 20.5t-20.5 48.5v1430 q0 29 20.5 49t49.5 20q37 0 57 -26l919 -1264v1221q0 29 20.5 49t49.5 20z" glyph-name="Nacute" horiz-adv-x="1433" unicode="Ń"/><glyph d="M455 1401q-12 31 22 51l254 121q27 10 52.5 -1t33.5 -38q10 -27 -2 -52.5t-39 -33.5l-272 -70q-35 -10 -49 23zM365 1094q0 41 34 61q115 66 263 66q219 0 346 -131.5t127 -341.5v-695q0 -29 -20.5 -49t-49.5 -20t-49.5 20.5t-20.5 48.5v695q0 152 -92 243.5t-241 91.5 q-102 0 -189 -51q-14 -10 -37 -10q-29 0 -50 21.5t-21 50.5zM262 53q2 -29 -19.5 -49t-50 -20t-49 20.5t-20.5 48.5v1080q0 29 20.5 49t49 20t49 -20.5t20.5 -48.5v-1080z" glyph-name="nacute" horiz-adv-x="1257" unicode="ń"/><glyph d="M639 -358.5q0 34.5 35 34.5q23 0 41 22.5t18 51.5v39q-6 -4 -16 -4q-37 0 -62.5 26.5t-25.5 63.5t25.5 63.5t62.5 26.5t62.5 -26.5t25.5 -63.5v-117q0 -61 -38 -105t-93 -46q-35 0 -35 34.5zM1239 1552q29 0 50.5 -20.5t21.5 -48.5v-1430q0 -29 -21.5 -49t-50.5 -20 q-37 0 -57 30l-918 1260v-1221q0 -29 -21.5 -49t-50 -20t-49 20.5t-20.5 48.5v1430q0 29 20.5 49t49.5 20q37 0 57 -26l919 -1264v1221q0 29 20.5 49t49.5 20z" glyph-name="Ncommaaccent" horiz-adv-x="1433" unicode="Ņ"/><glyph d="M551 -358.5q0 34.5 35 34.5q23 0 41 22.5t18 51.5v39q-6 -4 -16 -4q-37 0 -62.5 26.5t-25.5 63.5t25.5 63.5t62.5 26.5t62.5 -26.5t25.5 -63.5v-117q0 -61 -38 -105t-93 -46q-35 0 -35 34.5zM365 1094q0 41 34 61q115 66 263 66q219 0 346 -131.5t127 -341.5v-695 q0 -29 -20.5 -49t-49.5 -20t-49.5 20.5t-20.5 48.5v695q0 152 -92 243.5t-241 91.5q-102 0 -189 -51q-14 -10 -37 -10q-29 0 -50 21.5t-21 50.5zM262 53q2 -29 -19.5 -49t-50 -20t-49 20.5t-20.5 48.5v1080q0 29 20.5 49t49 20t49 -20.5t20.5 -48.5v-1080z" glyph-name="ncommaaccent" horiz-adv-x="1257" unicode="ņ"/><glyph d="M715 1608q-27 0 -125 112q-41 45 -68 76q-20 23 -7 51.5t44 28.5q18 0 39 -21l117 -120l116 120q20 20 39 21q31 0 44.5 -28.5t-7.5 -51.5q-150 -170 -164 -180q-12 -8 -28 -8zM1239 1552q29 0 50.5 -20.5t21.5 -48.5v-1430q0 -29 -21.5 -49t-50.5 -20q-37 0 -57 30 l-918 1260v-1221q0 -29 -21.5 -49t-50 -20t-49 20.5t-20.5 48.5v1430q0 29 20.5 49t49.5 20q37 0 57 -26l919 -1264v1221q0 29 20.5 49t49.5 20z" glyph-name="Ncaron" horiz-adv-x="1433" unicode="Ň"/><glyph d="M662 1358q-27 0 -125 112q-41 45 -68 76q-20 23 -7 51.5t44 28.5q18 0 39 -20l117 -121l116 121q20 20 39 20q31 0 44 -28.5t-7 -51.5q-150 -170 -164 -180q-12 -8 -28 -8zM365 1094q0 41 34 61q115 66 263 66q219 0 346 -131.5t127 -341.5v-695q0 -29 -20.5 -49 t-49.5 -20t-49.5 20.5t-20.5 48.5v695q0 152 -92 243.5t-241 91.5q-102 0 -189 -51q-14 -10 -37 -10q-29 0 -50 21.5t-21 50.5zM262 53q2 -29 -19.5 -49t-50 -20t-49 20.5t-20.5 48.5v1080q0 29 20.5 49t49 20t49 -20.5t20.5 -48.5v-1080z" glyph-name="ncaron" horiz-adv-x="1257" unicode="ň"/><glyph d="M668 1712q0 29 20.5 49.5t48.5 20.5h277q29 0 49 -20.5t20 -49.5t-20.5 -49.5t-48.5 -20.5h-277q-29 0 -49 20.5t-20 49.5zM1538 768q0 274 -193.5 470t-468 196t-468 -196t-193.5 -470t193.5 -470t468 -196t468 196t193.5 470zM1681 768q0 -332 -236.5 -567.5 t-567.5 -235.5q-334 0 -569.5 235.5t-235.5 567.5t235.5 567.5t569.5 235.5q332 0 568 -235.5t236 -567.5z" glyph-name="Omacron" horiz-adv-x="1753" unicode="Ō"/><glyph d="M506 1466.5q0 28.5 20.5 49t48.5 20.5h277q29 0 49.5 -20.5t20.5 -49t-20.5 -49t-49.5 -20.5h-277q-29 0 -49 20.5t-20 49zM715 102q205 0 347 143.5t142 348.5q0 203 -142 346t-347 143q-201 0 -345.5 -143t-144.5 -346q0 -205 143.5 -348.5t346.5 -143.5zM715 -35 q-260 0 -446.5 184.5t-186.5 444.5q0 258 186.5 442.5t446.5 184.5q262 0 447.5 -183.5t185.5 -443.5t-185.5 -444.5t-447.5 -184.5z" glyph-name="omacron" horiz-adv-x="1429" unicode="ō"/><glyph d="M952 1622q-20 8 -29.5 29.5t-0.5 44.5l49 119q20 51 73 32q20 -8 29.5 -29.5t1.5 -43.5l-49 -119q-21 -51 -74 -33zM778 1622q-20 8 -29.5 29.5t-0.5 44.5l49 119q20 51 73 32q20 -8 29.5 -29.5t1.5 -43.5l-49 -119q-21 -51 -74 -33zM1538 768q0 274 -193.5 470t-468 196 t-468 -196t-193.5 -470t193.5 -470t468 -196t468 196t193.5 470zM1681 768q0 -332 -236.5 -567.5t-567.5 -235.5q-334 0 -569.5 235.5t-235.5 567.5t235.5 567.5t569.5 235.5q332 0 568 -235.5t236 -567.5z" glyph-name="Ohungarumlaut" horiz-adv-x="1753" unicode="Ő"/><glyph d="M776 1323q-20 8 -29.5 29.5t-1.5 44.5l50 119q20 51 73 32q20 -8 29.5 -29.5t1.5 -43.5l-49 -119q-21 -51 -74 -33zM602 1323q-20 8 -29.5 29.5t-1.5 44.5l50 119q20 51 73 32q20 -8 29.5 -29.5t1.5 -43.5l-49 -119q-21 -51 -74 -33zM715 102q205 0 347 143.5t142 348.5 q0 203 -142 346t-347 143q-201 0 -345.5 -143t-144.5 -346q0 -205 143.5 -348.5t346.5 -143.5zM715 -35q-260 0 -446.5 184.5t-186.5 444.5q0 258 186.5 442.5t446.5 184.5q262 0 447.5 -183.5t185.5 -443.5t-185.5 -444.5t-447.5 -184.5z" glyph-name="ohungarumlaut" horiz-adv-x="1429" unicode="ő"/><glyph d="M874 1571q176 0 336 -77t273 -208v180q0 29 19.5 49.5t47.5 20.5h979q29 0 49.5 -20.5t20.5 -49t-20.5 -49t-49.5 -20.5h-907v-348q0 -29 -21.5 -49.5t-50.5 -20.5q-49 0 -65 43q-76 182 -241 297t-370 115q-274 0 -466.5 -195t-192.5 -471t192.5 -471t466.5 -195 q201 0 371 117q16 14 43 14q29 0 49.5 -20t20.5 -49q0 -41 -35 -62q-199 -137 -449 -137q-334 0 -568 235.5t-234 567.5t234 567.5t568 235.5zM1483 766q-2 29 18.5 49.5t48.5 20.5h838q29 0 49.5 -20.5t20.5 -49.5t-20.5 -49.5t-49.5 -20.5h-766v-557h907q29 -2 49.5 -22.5 t20.5 -46.5q0 -29 -20.5 -49.5t-49.5 -20.5h-979q-29 0 -48 20.5t-19 49.5v696z" glyph-name="OE" horiz-adv-x="2670" unicode="Œ"/><glyph d="M711 102q211 0 360 156q23 27 53 27q29 0 49.5 -20.5t20.5 -49.5q0 -25 -16 -45q-188 -205 -467 -205q-260 0 -444.5 184.5t-184.5 444.5t184.5 443.5t444.5 183.5q180 0 329.5 -93.5t229.5 -246.5q80 154 228.5 247t328.5 93q256 0 438 -182.5t186 -444.5 q0 -29 -21.5 -49.5t-49.5 -20.5h-864q-29 0 -49.5 20.5t-20.5 49.5t20.5 49.5t49.5 20.5h792q-27 178 -163 298.5t-318 120.5q-201 0 -342.5 -143t-141.5 -346q0 -205 141.5 -348.5t342.5 -143.5q121 0 223 55.5t168 151.5q20 35 59 35q43 0 62.5 -39t-2.5 -72 q-76 -115 -214 -191.5t-296 -76.5q-260 0 -443.5 184.5t-183.5 444.5q0 203 -142.5 346t-346.5 143q-201 0 -343.5 -143t-142.5 -346q0 -205 142.5 -348.5t343.5 -143.5z" glyph-name="oe" horiz-adv-x="2533" unicode="œ"/><glyph d="M512 627q0 29 19.5 49t48.5 20h208q143 0 246 102.5t103 248t-101.5 248t-247.5 102.5h-524v-1344q0 -29 -21.5 -49t-50 -20t-49 20.5t-20.5 48.5v1413q0 29 21.5 49.5t50.5 20.5h593q201 0 344.5 -143.5t143.5 -345.5q0 -201 -143.5 -344.5t-344.5 -143.5h-67l338 -465 q16 -25 11 -53.5t-28 -44.5q-23 -18 -51 -13t-47 27l-416 570q-16 20 -16 47zM508 1632q-12 31 22 51l254 121q27 10 52.5 -1t33.5 -38q10 -27 -2 -52t-39 -34l-272 -69q-35 -11 -49 22z" glyph-name="Racute" horiz-adv-x="1357" unicode="Ŕ"/><glyph d="M324 1401q-12 31 22 51l254 121q27 10 52.5 -1t33.5 -38q10 -27 -2 -52.5t-39 -33.5l-272 -70q-35 -10 -49 23zM793 1206q29 -8 44 -31.5t9 -54.5q-6 -29 -29.5 -45t-52.5 -10q-53 12 -84 12q-186 2 -291.5 -119.5t-126.5 -318.5q-2 -27 -21.5 -45.5t-48 -18.5t-49 20.5 t-20.5 49.5v488q0 29 20.5 49t49 20t49 -20.5t20.5 -48.5v-183q121 270 418 271q64 -1 113 -15zM262 53q2 -29 -19.5 -49t-50 -20t-49 20.5t-20.5 48.5v350q0 29 20.5 49.5t49 20.5t49 -20.5t20.5 -49.5v-350z" glyph-name="racute" horiz-adv-x="864" unicode="ŕ"/><glyph d="M512 627q0 29 19.5 49t48.5 20h208q143 0 246 102.5t103 248t-101.5 248t-247.5 102.5h-524v-1344q0 -29 -21.5 -49t-50 -20t-49 20.5t-20.5 48.5v1413q0 29 21.5 49.5t50.5 20.5h593q201 0 344.5 -143.5t143.5 -345.5q0 -201 -143.5 -344.5t-344.5 -143.5h-67l338 -465 q16 -25 11 -53.5t-28 -44.5q-23 -18 -51 -13t-47 27l-416 570q-16 20 -16 47zM512 -358.5q0 34.5 35 34.5q23 0 41 22.5t18 51.5v39q-6 -4 -16 -4q-37 0 -62.5 26.5t-25.5 63.5t25.5 63.5t62.5 26.5t62.5 -26.5t25.5 -63.5v-117q0 -61 -38 -105t-93 -46q-35 0 -35 34.5z" glyph-name="Rcommaaccent" horiz-adv-x="1357" unicode="Ŗ"/><glyph d="M410 -358.5q0 34.5 34 34.5q23 0 41.5 22.5t18.5 51.5v39q-6 -4 -17 -4q-37 0 -62.5 26.5t-25.5 63.5t26 63.5t62.5 26.5t62 -26.5t25.5 -63.5v-117q0 -61 -37.5 -105t-93.5 -46q-34 0 -34 34.5zM793 1206q29 -8 44 -31.5t9 -54.5q-6 -29 -29.5 -45t-52.5 -10 q-53 12 -84 12q-186 2 -291.5 -119.5t-126.5 -318.5q-2 -27 -21.5 -45.5t-48 -18.5t-49 20.5t-20.5 49.5v488q0 29 20.5 49t49 20t49 -20.5t20.5 -48.5v-183q121 270 418 271q64 -1 113 -15zM262 53q2 -29 -19.5 -49t-50 -20t-49 20.5t-20.5 48.5v350q0 29 20.5 49.5 t49 20.5t49 -20.5t20.5 -49.5v-350z" glyph-name="rcommaaccent" horiz-adv-x="864" unicode="ŗ"/><glyph d="M512 627q0 29 19.5 49t48.5 20h208q143 0 246 102.5t103 248t-101.5 248t-247.5 102.5h-524v-1344q0 -29 -21.5 -49t-50 -20t-49 20.5t-20.5 48.5v1413q0 29 21.5 49.5t50.5 20.5h593q201 0 344.5 -143.5t143.5 -345.5q0 -201 -143.5 -344.5t-344.5 -143.5h-67l338 -465 q16 -25 11 -53.5t-28 -44.5q-23 -18 -51 -13t-47 27l-416 570q-16 20 -16 47zM657 1608q-27 0 -125 112q-41 45 -67 76q-20 23 -7 51.5t44 28.5q18 0 39 -21l116 -120l117 120q20 20 39 21q31 0 44 -28.5t-7 -51.5q-150 -170 -164 -180q-13 -8 -29 -8z" glyph-name="Rcaron" horiz-adv-x="1357" unicode="Ř"/><glyph d="M481 1358q-27 0 -125 112q-41 45 -67 76q-20 23 -7 51.5t44 28.5q18 0 39 -20l116 -121l117 121q20 20 39 20q31 0 44 -28.5t-7 -51.5q-150 -170 -164 -180q-13 -8 -29 -8zM793 1206q29 -8 44 -31.5t9 -54.5q-6 -29 -29.5 -45t-52.5 -10q-53 12 -84 12 q-186 2 -291.5 -119.5t-126.5 -318.5q-2 -27 -21.5 -45.5t-48 -18.5t-49 20.5t-20.5 49.5v488q0 29 20.5 49t49 20t49 -20.5t20.5 -48.5v-183q121 270 418 271q64 -1 113 -15zM262 53q2 -29 -19.5 -49t-50 -20t-49 20.5t-20.5 48.5v350q0 29 20.5 49.5t49 20.5t49 -20.5 t20.5 -49.5v-350z" glyph-name="rcaron" horiz-adv-x="864" unicode="ř"/><glyph d="M424 1673q-12 31 22 51l254 121q27 10 52.5 -1t33.5 -38q10 -27 -2 -52t-39 -34l-272 -69q-35 -11 -49 22zM969 1321q-174 113 -367 113q-164 0 -253 -71t-89 -204q0 -88 48 -144.5t125 -85t169 -50t184.5 -51t169 -73.5t124.5 -131t48 -212q0 -211 -140 -329t-376 -118 q-281 0 -501 168q-29 18 -29 57q0 29 20.5 49.5t49.5 20.5q23 0 41 -12q186 -145 419 -146q178 0 275.5 77t97.5 233q0 96 -48 159.5t-125 95t-169 54t-184 50.5t-169 69t-125 121.5t-48 197.5q0 193 132 302.5t353 109.5q238 0 445 -133q33 -23 32 -60q0 -29 -20.5 -49 t-48.5 -20q-27 0 -41 12z" glyph-name="Sacute" horiz-adv-x="1210" unicode="Ś"/><glyph d="M379 1401q-12 31 22 51l254 121q27 10 52.5 -1t33.5 -38q10 -27 -2 -52.5t-39 -33.5l-272 -70q-35 -10 -49 23zM864 1004q-168 80 -313 79q-131 0 -208 -47t-77 -127q0 -92 57.5 -142t143.5 -62.5t185.5 -30t185.5 -42t143 -101t57 -205.5q0 -170 -130 -265.5t-353 -95.5 q-240 0 -440 123q-33 20 -33 62q0 43 36 63t70 0q193 -111 367 -111q160 0 250 59.5t90 170.5q0 78 -43 124t-110.5 64.5t-150.5 28.5t-165 25.5t-149.5 47t-110.5 102.5t-43 181q0 156 121 236t307 80q207 0 379 -95q43 -20 43 -63q0 -41 -36 -60t-73 1z" glyph-name="sacute" horiz-adv-x="1120" unicode="ś"/><glyph d="M596 1618q-27 0 -125 113q-41 45 -68 75q-20 23 -6.5 51.5t43.5 28.5q18 0 39 -20l117 -121l117 121q20 20 39 20q31 0 44 -28.5t-8 -51.5q-150 -170 -163 -180q-13 -8 -29 -8zM969 1321q-174 113 -367 113q-164 0 -253 -71t-89 -204q0 -88 48 -144.5t125 -85t169 -50 t184.5 -51t169 -73.5t124.5 -131t48 -212q0 -211 -140 -329t-376 -118q-281 0 -501 168q-29 18 -29 57q0 29 20.5 49.5t49.5 20.5q23 0 41 -12q186 -145 419 -146q178 0 275.5 77t97.5 233q0 96 -48 159.5t-125 95t-169 54t-184 50.5t-169 69t-125 121.5t-48 197.5 q0 193 132 302.5t353 109.5q238 0 445 -133q33 -23 32 -60q0 -29 -20.5 -49t-48.5 -20q-27 0 -41 12z" glyph-name="Scaron" horiz-adv-x="1210" unicode="Š"/><glyph d="M551 1358q-27 0 -125 112q-41 45 -68 76q-20 23 -6.5 51.5t43.5 28.5q18 0 39 -20l117 -121l117 121q20 20 39 20q31 0 44 -28.5t-8 -51.5q-150 -170 -163 -180q-13 -8 -29 -8zM864 1004q-168 80 -313 79q-131 0 -208 -47t-77 -127q0 -92 57.5 -142t143.5 -62.5 t185.5 -30t185.5 -42t143 -101t57 -205.5q0 -170 -130 -265.5t-353 -95.5q-240 0 -440 123q-33 20 -33 62q0 43 36 63t70 0q193 -111 367 -111q160 0 250 59.5t90 170.5q0 78 -43 124t-110.5 64.5t-150.5 28.5t-165 25.5t-149.5 47t-110.5 102.5t-43 181q0 156 121 236 t307 80q207 0 379 -95q43 -20 43 -63q0 -41 -36 -60t-73 1z" glyph-name="scaron" horiz-adv-x="1118" unicode="š"/><glyph d="M20 1466.5q0 28.5 20.5 49t49.5 20.5h264q29 0 48.5 -20.5t19.5 -49t-19.5 -49t-48.5 -20.5h-264q-29 0 -49.5 20.5t-20.5 49zM545 53v1413q0 29 20.5 49.5t48.5 20.5h523q29 0 49 -20.5t20 -49t-20.5 -49t-48.5 -20.5h-451v-1344q0 -29 -21.5 -49t-50 -20t-49 20 t-20.5 49zM614 1612q-27 0 -125 112q-41 45 -67 76q-20 23 -7 51.5t44 28.5q18 0 39 -20l116 -121l117 121q20 20 39 20q31 0 44 -28.5t-7 -51.5q-150 -170 -164 -180q-13 -8 -29 -8z" glyph-name="Tcaron" horiz-adv-x="1226" unicode="Ť"/><glyph d="M627 1186q-33 14 -23 49l70 272q8 27 33.5 39.5t52.5 1.5q27 -8 38 -33.5t1 -52.5l-121 -254q-20 -34 -51 -22zM336 874v-595q0 -57 41 -98.5t98 -41.5h51q29 0 50.5 -20.5t21.5 -49t-21.5 -49t-50.5 -20.5h-51q-115 0 -196.5 82t-81.5 197v595q0 29 20.5 49.5t49 20.5 t49 -20.5t20.5 -49.5zM41 1116q0 29 20.5 49.5t49.5 20.5h86v215q0 29 20.5 49t49 20t49 -20t20.5 -49v-215h190q29 0 49.5 -20.5t20.5 -49.5t-20.5 -49t-49.5 -20h-415q-29 0 -49.5 20t-20.5 49z" glyph-name="tcaron" horiz-adv-x="829" unicode="ť"/><glyph d="M508 1712q0 29 20.5 49.5t49.5 20.5h276q29 0 49.5 -20.5t20.5 -49.5t-20.5 -49.5t-49.5 -20.5h-276q-29 0 -49.5 20.5t-20.5 49.5zM1169 1483q0 29 20.5 49t49.5 20t49.5 -20.5t20.5 -48.5v-924q0 -246 -174 -420t-418 -174q-246 0 -420 174t-174 420v924q0 29 20.5 49 t49 20t49 -20.5t20.5 -48.5v-924q0 -188 133 -322.5t322 -134.5q186 0 319 134.5t133 322.5v924z" glyph-name="Umacron" horiz-adv-x="1431" unicode="Ū"/><glyph d="M422 1466.5q0 28.5 20.5 49t49.5 20.5h276q29 0 49.5 -20.5t20.5 -49t-20.5 -49t-49.5 -20.5h-276q-29 0 -49.5 20.5t-20.5 49zM893 92q0 -41 -35 -61q-115 -66 -262 -66q-219 0 -346 131t-127 342v695q0 29 20.5 49t49 20t49 -20.5t20.5 -48.5v-695q0 -152 92 -244 t242 -92q102 0 188 52q14 10 37 10q29 0 50.5 -21.5t21.5 -50.5zM995 53v1080q-2 29 19.5 49t50.5 20t49.5 -20.5t20.5 -48.5v-1080q0 -29 -20.5 -49t-49.5 -20t-49.5 20t-20.5 49z" glyph-name="umacron" horiz-adv-x="1257" unicode="ū"/><glyph d="M776 1742.5q0 26.5 -17.5 44t-44 17.5t-45 -17.5t-18.5 -44t18.5 -45t45 -18.5t44 18.5t17.5 45zM866 1743q0 -63 -45 -108.5t-106.5 -45.5t-106.5 45t-45 109q0 61 45 105t106.5 44t106.5 -44t45 -105zM1169 1483q0 29 20.5 49t49.5 20t49.5 -20.5t20.5 -48.5v-924 q0 -246 -174 -420t-418 -174q-246 0 -420 174t-174 420v924q0 29 20.5 49t49 20t49 -20.5t20.5 -48.5v-924q0 -188 133 -322.5t322 -134.5q186 0 319 134.5t133 322.5v924z" glyph-name="Uring" horiz-adv-x="1431" unicode="Ů"/><glyph d="M698 1489q0 27 -18 44t-43 17q-29 0 -47.5 -17t-18.5 -44t18.5 -45.5t47.5 -18.5q25 0 43 18.5t18 45.5zM780 1489q0 -63 -45 -108.5t-104 -45.5q-63 0 -108.5 45t-45.5 109q0 61 45 105t109 44q59 0 104 -44t45 -105zM893 92q0 -41 -35 -61q-115 -66 -262 -66 q-219 0 -346 131t-127 342v695q0 29 20.5 49t49 20t49 -20.5t20.5 -48.5v-695q0 -152 92 -244t242 -92q102 0 188 52q14 10 37 10q29 0 50.5 -21.5t21.5 -50.5zM995 53v1080q-2 29 19.5 49t50.5 20t49.5 -20.5t20.5 -48.5v-1080q0 -29 -20.5 -49t-49.5 -20t-49.5 20 t-20.5 49z" glyph-name="uring" horiz-adv-x="1257" unicode="ů"/><glyph d="M768 1622q-20 8 -29.5 29.5t-1.5 44.5l49 119q20 51 74 32q20 -8 29.5 -29.5t1.5 -43.5l-49 -119q-21 -51 -74 -33zM594 1622q-20 8 -29.5 29.5t-1.5 44.5l49 119q20 51 74 32q20 -8 29.5 -29.5t1.5 -43.5l-49 -119q-21 -51 -74 -33zM1169 1483q0 29 20.5 49t49.5 20 t49.5 -20.5t20.5 -48.5v-924q0 -246 -174 -420t-418 -174q-246 0 -420 174t-174 420v924q0 29 20.5 49t49 20t49 -20.5t20.5 -48.5v-924q0 -188 133 -322.5t322 -134.5q186 0 319 134.5t133 322.5v924z" glyph-name="Uhungarumlaut" horiz-adv-x="1431" unicode="Ű"/><glyph d="M682 1323q-20 8 -29.5 29.5t-1.5 44.5l49 119q20 51 74 32q20 -8 29.5 -29.5t1.5 -43.5l-49 -119q-21 -51 -74 -33zM508 1323q-20 8 -29.5 29.5t-1.5 44.5l49 119q20 51 74 32q20 -8 29.5 -29.5t1.5 -43.5l-49 -119q-21 -51 -74 -33zM893 92q0 -41 -35 -61 q-115 -66 -262 -66q-219 0 -346 131t-127 342v695q0 29 20.5 49t49 20t49 -20.5t20.5 -48.5v-695q0 -152 92 -244t242 -92q102 0 188 52q14 10 37 10q29 0 50.5 -21.5t21.5 -50.5zM995 53v1080q-2 29 19.5 49t50.5 20t49.5 -20.5t20.5 -48.5v-1080q0 -29 -20.5 -49 t-49.5 -20t-49.5 20t-20.5 49z" glyph-name="uhungarumlaut" horiz-adv-x="1257" unicode="ű"/><glyph d="M1169 1483q0 29 20.5 49t49.5 20t49.5 -20.5t20.5 -48.5v-924q0 -188 -105.5 -338.5t-275.5 -216.5q-35 -16 -56.5 -52t-21.5 -81q0 -59 40 -102t97 -43q23 0 50.5 11t35.5 11q14 0 25.5 -12t11.5 -27q0 -43 -56.5 -68.5t-107.5 -25.5q-92 0 -156.5 64.5t-64.5 156.5 q0 70 39 131q-8 0 -23.5 -1t-23.5 -1q-246 0 -420 174t-174 420v924q0 29 20.5 49t49 20t49 -20.5t20.5 -48.5v-924q0 -188 133 -322.5t322 -134.5q186 0 319 134.5t133 322.5v924z" glyph-name="Uogonek" horiz-adv-x="1431" unicode="Ų"/><glyph d="M1186 -291q0 -43 -56.5 -68.5t-107.5 -25.5q-92 0 -156.5 63.5t-64.5 155.5q0 84 54 144.5t138 72.5v1082q0 29 21.5 49t50.5 20t49.5 -20.5t20.5 -48.5v-1080q0 -29 -21.5 -49t-50.5 -20q-59 0 -98 -38t-39 -91.5t40 -91t97 -37.5q23 0 50.5 11t35.5 11q14 0 25.5 -12.5 t11.5 -26.5zM893 96q0 -41 -35 -61q-121 -70 -262 -70q-219 0 -346 131t-127 342v695q0 29 20.5 49t49 20t48 -20.5t19.5 -48.5v-695q0 -152 93 -244t243 -92q96 0 188 56q14 10 37 10q29 0 50.5 -21.5t21.5 -50.5z" glyph-name="uogonek" horiz-adv-x="1257" unicode="ų"/><glyph d="M518 1712q0 -39 -26.5 -65.5t-63.5 -26.5t-64.5 26.5t-27.5 65.5q0 37 27.5 63.5t64.5 26.5t63.5 -26.5t26.5 -63.5zM922 1712q0 -39 -26 -65.5t-62 -26.5q-39 0 -65 26.5t-26 65.5q0 37 26 63.5t65 26.5q37 0 62.5 -26.5t25.5 -63.5zM1231 1442l-529 -740v-649 q0 -29 -20 -49t-49 -20t-49.5 20.5t-20.5 48.5v670q0 27 15 43l538 758q23 29 58 28q43 0 62.5 -38.5t-5.5 -71.5zM418 905l-383 539q-16 23 -11 51.5t27 44.5q25 16 54.5 13t46.5 -27l383 -539q16 -23 10 -52.5t-29 -45.5q-25 -16 -53.5 -12.5t-44.5 28.5z" glyph-name="Ydieresis" horiz-adv-x="1282" unicode="Ÿ"/><glyph d="M475 1632q-12 31 23 51l254 121q27 10 52 -1t34 -38q10 -27 -2.5 -52t-38.5 -34l-273 -69q-35 -11 -49 22zM1268 69.5q0 -28.5 -20.5 -49t-49.5 -20.5h-1083q-29 0 -49.5 20.5t-20.5 49.5q0 25 16 45l990 1282h-936q-29 0 -49.5 20.5t-20.5 49t20.5 49t49.5 20.5h1083 q29 0 49.5 -20.5t20.5 -49.5q0 -25 -17 -45l-989 -1282h936q29 0 49.5 -20.5t20.5 -49z" glyph-name="Zacute" horiz-adv-x="1312" unicode="Ź"/><glyph d="M356 1401q-12 31 23 51l254 121q27 10 52.5 -1t33.5 -38q10 -27 -2 -52.5t-39 -33.5l-272 -70q-36 -10 -50 23zM1028 1116q0 -25 -16 -45l-742 -930h686q29 0 50.5 -21.5t21.5 -50t-21.5 -49t-50.5 -20.5h-835q-29 0 -50.5 20.5t-21.5 49.5q0 25 17 45l741 929h-686 q-29 0 -50.5 21.5t-21.5 50.5t21.5 49.5t50.5 20.5h835q29 0 50.5 -20.5t21.5 -49.5z" glyph-name="zacute" horiz-adv-x="1077" unicode="ź"/><glyph d="M774 1712q0 -49 -36 -84t-83 -35t-81.5 35t-34.5 84q0 47 34.5 82t81.5 35t83 -35t36 -82zM1268 69.5q0 -28.5 -20.5 -49t-49.5 -20.5h-1083q-29 0 -49.5 20.5t-20.5 49.5q0 25 16 45l990 1282h-936q-29 0 -49.5 20.5t-20.5 49t20.5 49t49.5 20.5h1083q29 0 49.5 -20.5 t20.5 -49.5q0 -25 -17 -45l-989 -1282h936q29 0 49.5 -20.5t20.5 -49z" glyph-name="Zdotaccent" horiz-adv-x="1312" unicode="Ż"/><glyph d="M657 1497q0 -49 -35.5 -84t-82.5 -35t-82 35t-35 84q0 47 35 82t82 35t82.5 -35t35.5 -82zM1028 1116q0 -25 -16 -45l-742 -930h686q29 0 50.5 -21.5t21.5 -50t-21.5 -49t-50.5 -20.5h-835q-29 0 -50.5 20.5t-21.5 49.5q0 25 17 45l741 929h-686q-29 0 -50.5 21.5 t-21.5 50.5t21.5 49.5t50.5 20.5h835q29 0 50.5 -20.5t21.5 -49.5z" glyph-name="zdotaccent" horiz-adv-x="1077" unicode="ż"/><glyph d="M637 1608q-27 0 -125 112q-41 45 -68 76q-20 23 -6.5 51.5t43.5 28.5q18 0 39 -21l117 -120l117 120q20 20 39 21q31 0 44 -28.5t-8 -51.5q-150 -170 -163 -180q-13 -8 -29 -8zM1268 69.5q0 -28.5 -20.5 -49t-49.5 -20.5h-1083q-29 0 -49.5 20.5t-20.5 49.5q0 25 16 45 l990 1282h-936q-29 0 -49.5 20.5t-20.5 49t20.5 49t49.5 20.5h1083q29 0 49.5 -20.5t20.5 -49.5q0 -25 -17 -45l-989 -1282h936q29 0 49.5 -20.5t20.5 -49z" glyph-name="Zcaron" horiz-adv-x="1312" unicode="Ž"/><glyph d="M545 1358q-27 0 -125 112q-41 45 -68 76q-20 23 -7 51.5t44 28.5q18 0 39 -20l117 -121l117 121q20 20 38 20q31 0 44.5 -28.5t-7.5 -51.5q-150 -170 -164 -180q-12 -8 -28 -8zM1028 1116q0 -25 -16 -45l-742 -930h686q29 0 50.5 -21.5t21.5 -50t-21.5 -49t-50.5 -20.5 h-835q-29 0 -50.5 20.5t-21.5 49.5q0 25 17 45l741 929h-686q-29 0 -50.5 21.5t-21.5 50.5t21.5 49.5t50.5 20.5h835q29 0 50.5 -20.5t21.5 -49.5z" glyph-name="zcaron" horiz-adv-x="1077" unicode="ž"/><glyph d="M698 1047h-415q-29 0 -47.5 20t-14.5 49t27.5 49.5t52.5 20.5h139l11 69q16 117 108 199t207 82q29 0 46 -20.5t13 -49.5q-2 -29 -25.5 -49t-51.5 -20h-9q-55 -2 -98 -44t-51 -98l-10 -69h137q29 0 46 -20.5t13 -49.5q-2 -29 -25.5 -49t-52.5 -20zM537 877l-134 -947 q-14 -113 -106 -194.5t-203 -85.5h-8q-29 0 -46 20.5t-13 48.5q2 29 25.5 49.5t51.5 20.5q59 0 105.5 42t52.5 99l133 947q4 29 27.5 49t52.5 20t47.5 -20t14.5 -49z" glyph-name="florin" horiz-adv-x="851" unicode="ƒ"/><glyph d="M410 1626q27 0 125 -113q41 -45 67 -75q20 -23 7 -51.5t-44 -28.5q-18 0 -39 20l-116 121l-117 -121q-20 -20 -39 -20q-31 0 -44 28.5t7 51.5q150 170 164 180q13 8 29 8z" glyph-name="circumflex" horiz-adv-x="821" unicode="ˆ"/><glyph d="M410 1358q-27 0 -125 112q-41 45 -68 76q-20 23 -7 51.5t44 28.5q18 0 39 -20l117 -121l116 121q20 20 39 20q31 0 44.5 -28.5t-7.5 -51.5q-150 -170 -164 -180q-12 -8 -28 -8z" glyph-name="caron" horiz-adv-x="821" unicode="ˇ"/><glyph d="M487 1522q0 -49 -60 -96.5t-128 -47.5t-128 47.5t-60 96.5q0 23 14 37t37 14q20 0 34.5 -14.5t22.5 -33t28.5 -32.5t51.5 -14q47 0 79 47t58 47q23 0 37 -14t14 -37z" glyph-name="breve" horiz-adv-x="598" unicode="˘"/><glyph d="M358 1497q0 -49 -35.5 -84t-82.5 -35t-82 35t-35 84q0 47 35 82t82 35t82.5 -35t35.5 -82z" glyph-name="dotaccent" horiz-adv-x="481" unicode="˙"/><glyph d="M418 1489q0 27 -17.5 44t-44 17t-45 -17t-18.5 -44t17.5 -45.5t45.5 -18.5q27 0 44.5 18.5t17.5 45.5zM508 1489q0 -63 -45 -108.5t-106.5 -45.5t-106.5 45t-45 109q0 61 45 105t106.5 44t106.5 -44t45 -105z" glyph-name="ring" horiz-adv-x="712" unicode="˚"/><glyph d="M508 -291q0 -43 -56.5 -68.5t-107.5 -25.5q-92 0 -156.5 64.5t-64.5 156.5t64.5 156.5t156.5 64.5q12 0 41 -4v-53q-57 0 -97 -40t-40 -97.5t40 -97t97 -39.5q23 0 50.5 11t35.5 11q14 0 25.5 -12.5t11.5 -26.5z" glyph-name="ogonek" horiz-adv-x="630" unicode="˛"/><glyph d="M205 1425q2 61 43 103.5t100 42.5q78 0 125 -74q31 -35 53 -35q25 0 42.5 18.5t17.5 45.5q0 16 12 28.5t28.5 12.5t29 -12.5t12.5 -28.5q-2 -61 -43 -103.5t-99 -42.5q-76 0 -123 74q-33 37 -55 37q-27 0 -44 -19.5t-17 -46.5q0 -16 -12.5 -28.5t-29 -12.5t-28.5 12.5 t-12 28.5z" glyph-name="tilde" horiz-adv-x="872" unicode="˜"/><glyph d="M319 1323q-20 8 -29 29.5t-1 44.5l49 119q20 51 74 32q20 -8 29.5 -29.5t0.5 -43.5l-49 -119q-21 -51 -74 -33zM145 1323q-20 8 -29.5 29.5t-0.5 44.5l49 119q20 51 74 32q20 -8 29 -29.5t1 -43.5l-49 -119q-21 -51 -74 -33z" glyph-name="hungarumlaut" horiz-adv-x="557" unicode="˝"/><glyph d="M827 203v844h-383v-1047h-139v1047h-264v139h1188v-139h-262v-844q0 -37 35.5 -70t84.5 -33q35 0 62 13v-140q-41 -8 -62 -8q-115 0 -187.5 62.5t-72.5 175.5z" glyph-name="pi" horiz-adv-x="1269" unicode="π"/><glyph d="M78 592q0 29 20.5 49.5t48.5 20.5h904q29 0 48 -20.5t19 -49.5t-19.5 -49.5t-47.5 -20.5h-904q-29 0 -49 20.5t-20 49.5z" glyph-name="endash" horiz-adv-x="1196" unicode="–"/><glyph d="M78 592q0 29 20.5 49.5t48.5 20.5h1428q29 0 48 -20.5t19 -49.5t-19 -49.5t-48 -20.5h-1428q-29 0 -49 20.5t-20 49.5z" glyph-name="emdash" horiz-adv-x="1720" unicode="—"/><glyph d="M299 1509q0 -41 -41 -41q-27 0 -48.5 -26.5t-21.5 -59.5v-45q6 4 19 4q45 0 74.5 -30.5t29.5 -75.5q0 -43 -29.5 -74t-74.5 -31q-43 0 -74 31t-31 74v137q0 72 44 124t112 54q41 0 41 -41z" glyph-name="quoteleft" horiz-adv-x="413" unicode="‘"/><glyph d="M115 1171q0 41 41 41q27 0 48 27t21 59v45q-6 -4 -18 -4q-45 0 -75 31t-30 76q0 43 30 73.5t75 30.5q43 0 73.5 -30.5t30.5 -73.5v-137q0 -72 -44 -124t-111 -55q-41 0 -41 41z" glyph-name="quoteright" horiz-adv-x="413" unicode="’"/><glyph d="M115 -184q0 41 41 41q27 0 48 26.5t21 59.5v45q-6 -4 -18 -4q-45 0 -75 30.5t-30 75.5q0 43 30 74t75 31q43 0 73.5 -31t30.5 -74v-137q0 -72 -44 -124t-111 -54q-41 0 -41 41z" glyph-name="quotesinglbase" horiz-adv-x="413" unicode="‚"/><glyph d="M299 1509q0 -41 -41 -41q-27 0 -48.5 -26.5t-21.5 -59.5v-45q6 4 19 4q45 0 74.5 -30.5t29.5 -75.5q0 -43 -29.5 -74t-74.5 -31q-43 0 -74 31t-31 74v137q0 72 44 124t112 54q41 0 41 -41zM549 1509q0 -41 -41 -41q-27 0 -48.5 -26.5t-21.5 -59.5v-45q6 4 19 4 q45 0 74.5 -30.5t29.5 -75.5q0 -43 -29.5 -74t-74.5 -31q-43 0 -74 31t-31 74v137q0 72 44 124t112 54q41 0 41 -41z" glyph-name="quotedblleft" horiz-adv-x="622" unicode="“"/><glyph d="M324 1171q0 41 41 41q27 0 48 27t21 59v45q-6 -4 -18 -4q-45 0 -75 31t-30 76q0 43 30 73.5t75 30.5q43 0 73.5 -30.5t30.5 -73.5v-137q0 -72 -44 -124t-111 -55q-41 0 -41 41zM74 1171q0 41 41 41q27 0 48 27t21 59v45q-6 -4 -18 -4q-45 0 -75 31t-30 76q0 43 30 73.5 t75 30.5q43 0 73.5 -30.5t30.5 -73.5v-137q0 -72 -44 -124t-111 -55q-41 0 -41 41z" glyph-name="quotedblright" horiz-adv-x="622" unicode="”"/><glyph d="M74 -184q0 41 41 41q27 0 48 26.5t21 59.5v45q-6 -4 -18 -4q-45 0 -75 30.5t-30 75.5q0 43 30 74t75 31q43 0 73.5 -31t30.5 -74v-137q0 -72 -44 -124t-111 -54q-41 0 -41 41zM324 -184q0 41 41 41q27 0 48 26.5t21 59.5v45q-6 -4 -18 -4q-45 0 -75 30.5t-30 75.5 q0 43 30 74t75 31q43 0 73.5 -31t30.5 -74v-137q0 -72 -44 -124t-111 -54q-41 0 -41 41z" glyph-name="quotedblbase" horiz-adv-x="622" unicode="„"/><glyph d="M930 1047h-754q-29 0 -49.5 20t-20.5 49t20.5 49.5t49.5 20.5h311v297q0 29 20.5 49t49.5 20t49.5 -20.5t20.5 -48.5v-297h303q29 0 49 -20.5t20 -49.5t-20 -49t-49 -20zM627 889v-1012q0 -29 -20.5 -49.5t-49.5 -20.5t-49.5 20.5t-20.5 49.5v1012q0 29 20.5 49t49.5 20 t49.5 -20t20.5 -49z" glyph-name="dagger" horiz-adv-x="1105" unicode="†"/><glyph d="M930 1047h-754q-29 0 -49.5 20t-20.5 49t20.5 49.5t49.5 20.5h311v297q0 29 20.5 49t49.5 20t49.5 -20.5t20.5 -48.5v-297h303q29 0 49 -20.5t20 -49.5t-20 -49t-49 -20zM930 313q29 0 49 -20.5t20 -49t-20.5 -49t-48.5 -20.5h-303v-297q0 -29 -20.5 -49.5t-49.5 -20.5 t-49.5 20.5t-20.5 49.5v297h-311q-29 0 -49.5 20.5t-20.5 49t20.5 49t49.5 20.5h754zM627 471q0 -29 -20.5 -49.5t-49.5 -20.5t-49.5 20.5t-20.5 49.5v418q0 29 20.5 49t49.5 20t49.5 -20t20.5 -49v-418z" glyph-name="daggerdbl" horiz-adv-x="1105" unicode="‡"/><glyph d="M414 385q-86 0 -147.5 60.5t-61.5 148.5q0 86 61.5 147.5t147.5 61.5q88 0 148.5 -61.5t60.5 -147.5q0 -88 -60.5 -148.5t-148.5 -60.5z" glyph-name="bullet" horiz-adv-x="827" unicode="•"/><glyph d="M1296 88q0 43 31 74t72 31q45 0 75.5 -31t30.5 -74t-30.5 -73.5t-75.5 -30.5q-41 0 -72 30.5t-31 73.5zM690 88q0 43 30 74t75 31q43 0 73.5 -31t30.5 -74t-30.5 -73.5t-73.5 -30.5q-45 0 -75 30.5t-30 73.5zM82 88q0 43 30.5 74t75.5 31q43 0 74 -31t31 -74t-31 -73.5 t-74 -30.5q-45 0 -75.5 30.5t-30.5 73.5z" glyph-name="ellipsis" horiz-adv-x="1587" unicode="…"/><glyph d="M262 12q-55 41 -18 97l950 1411q16 25 45 29.5t51 -11.5q25 -16 30 -44t-11 -52l-953 -1411q-16 -23 -42.5 -28t-51.5 9zM799 1219q0 -145 -106.5 -250t-252 -105t-252 104.5t-106.5 250.5q0 143 106.5 247.5t252 104.5t252 -104.5t106.5 -247.5zM659 1219 q0 90 -63.5 154.5t-155.5 64.5q-88 0 -153.5 -65.5t-65.5 -153.5q0 -90 65.5 -156t153.5 -66q92 0 155.5 65t63.5 157zM1473 319q0 -145 -106.5 -249.5t-252 -104.5t-252 104.5t-106.5 249.5q0 143 106.5 248t252 105t252 -105t106.5 -248zM1333 319q0 90 -63.5 155 t-155.5 65q-88 0 -153.5 -65.5t-65.5 -154.5q0 -90 65.5 -155.5t153.5 -65.5q92 0 155.5 64.5t63.5 156.5zM2245 319q0 -145 -106.5 -249.5t-252 -104.5t-252 104.5t-106.5 249.5q0 143 106.5 248t252 105t252 -105t106.5 -248zM2105 319q0 90 -63.5 155t-155.5 65 q-88 0 -153.5 -65.5t-65.5 -154.5q0 -90 65.5 -155.5t153.5 -65.5q92 0 155.5 64.5t63.5 156.5z" glyph-name="perthousand" horiz-adv-x="2326" unicode="‰"/><glyph d="M66 594q0 31 25.5 58.5t141.5 129.5q70 61 115 101q35 33 78 12t43 -68q0 -25 -31 -59l-202 -174l202 -176q31 -27 31 -58q0 -45 -43 -65.5t-78 10.5q-244 215 -260 234q-22 26 -22 55z" glyph-name="guilsinglleft" horiz-adv-x="534" unicode="‹"/><glyph d="M469 594q0 -31 -25.5 -58.5t-142.5 -129.5q-70 -61 -115 -101q-35 -31 -77.5 -10.5t-42.5 65.5q0 31 30 58l203 176l-203 174q-31 35 -30 59q0 47 43 67.5t77 -11.5q244 -215 260 -234q23 -26 23 -55z" glyph-name="guilsinglright" horiz-adv-x="534" unicode="›"/><glyph d="M168 27l623 1507q14 29 43 16q31 -12 16 -41l-623 -1507q-16 -29 -41 -18q-32 12 -18 43z" glyph-name="fraction" horiz-adv-x="1017" unicode="⁄"/><glyph d="M322 838h-197q-29 0 -49.5 20.5t-20.5 49t20.5 49t49.5 20.5h139q51 262 220 428t407 166q295 0 491 -285q29 -33 13.5 -74t-64.5 -41q-39 0 -59 33q-145 225 -381 226q-195 0 -330 -145.5t-170 -375.5q-4 -29 -23 -50t-46 -21zM508 626.5q0 28.5 20.5 49t49.5 20.5h452 q29 0 49.5 -20.5t20.5 -49t-20.5 -48t-49.5 -19.5h-452q-29 0 -49.5 19.5t-20.5 48zM1204 838h-626q-29 0 -49.5 20.5t-20.5 49t20.5 49t49.5 20.5h626q29 0 49.5 -20.5t20.5 -49t-20.5 -49t-49.5 -20.5zM125 696h197q27 0 46 -21.5t23 -49.5q35 -227 170 -373t330 -146 q236 0 381 226q20 33 59 33q49 0 64.5 -41t-13.5 -74q-197 -285 -491 -285q-238 0 -407 165t-220 427h-139q-29 0 -49.5 20.5t-20.5 49t20.5 49t49.5 20.5z" glyph-name="Euro" horiz-adv-x="1482" unicode="€"/><glyph d="M657 1536v-307h-28v241l-111 -241h-26l-113 241v-241h-29v307h29l125 -270l125 270h28zM322 1507h-107v-278h-27v278h-106v29h240v-29z" glyph-name="trademark" horiz-adv-x="739" unicode="™"/><glyph d="M1686 768q0 -207 -95.5 -366.5t-247.5 -260.5h310v-141h-533q-4 0 -4 -2v147q190 72 311 242t121 381q0 274 -194.5 468t-469 194t-469 -194t-194.5 -468q0 -211 121 -381t313 -242v-147q-2 2 -6 2h-532v141h309q-154 100 -249 260t-95 367q0 332 234.5 567.5 t568.5 235.5q332 0 566.5 -235.5t234.5 -567.5z" glyph-name="uni2126" horiz-adv-x="1767" unicode="Ω"/><glyph d="M1253 674q0 -324 -157.5 -516.5t-431.5 -192.5q-248 0 -415 161t-167 415q0 240 156.5 405.5t398.5 165.5q150 0 268.5 -66.5t192.5 -175.5l6 4q0 74 -16.5 148t-54.5 148.5t-95 133t-146.5 94.5t-197.5 36q-164 0 -309 -93v150q59 33 149 55.5t160 22.5q659 0 659 -895z M1102 540.5q0 184.5 -127 311.5t-311 127q-182 0 -310.5 -128t-128.5 -310.5t128 -311.5t311 -129q184 0 311 128t127 312.5z" glyph-name="partialdiff" horiz-adv-x="1335" unicode="∂"/><glyph d="M41 0l494 1536h141l495 -1536h-1130zM233 141h746l-375 1155z" glyph-name="uni2206" horiz-adv-x="1212" unicode="∆"/><glyph d="M1229 1397h-262v-1397h-140v1397h-385v-1397h-137v1397h-264v139h1188v-139z" glyph-name="product" horiz-adv-x="1269" unicode="∏"/><glyph d="M240 141h847v-141h-1046v141l629 627l-629 629v139h1046v-139h-847l628 -629z" glyph-name="summation" horiz-adv-x="1128" unicode="∑"/><glyph d="M86 592q0 29 19.5 49.5t48.5 20.5h1081q29 0 49.5 -20.5t20.5 -49.5t-20.5 -48.5t-49.5 -19.5h-1081q-29 0 -48.5 19.5t-19.5 48.5z" glyph-name="minus" horiz-adv-x="1390" unicode="−"/><glyph d="M317 547l154 -391h6l383 1380h146l-431 -1536h-192l-147 379l-58 -133l-117 55l103 246h153z" glyph-name="radical" horiz-adv-x="1067" unicode="√"/><glyph d="M723 676q57 90 137 149.5t168 59.5q129 0 222 -84t93 -207q0 -125 -93 -209t-222 -84q-172 0 -305 203q-133 -203 -305 -203q-129 0 -222.5 84t-93.5 209q0 123 93.5 207t222.5 84q88 0 168 -59.5t137 -149.5zM1229 594q0 80 -60.5 132t-142.5 52q-113 0 -225 -188 q113 -182 225 -182q82 0 142.5 53t60.5 133zM217 594q0 -80 60.5 -133t142.5 -53q113 0 225 182q-113 188 -225 188q-82 0 -142.5 -52t-60.5 -132z" glyph-name="infinity" horiz-adv-x="1445" unicode="∞"/><glyph d="M41 -215h55q59 0 98 34t39 91v1366q0 123 80 191.5t201 68.5h51v-135h-51q-59 0 -100 -34t-41 -91v-1366q0 -121 -79 -190.5t-198 -69.5h-55v135z" glyph-name="integral" horiz-adv-x="606" unicode="∫"/><glyph d="M102 350v137q16 6 46 17.5t112 32t153.5 26.5t152.5 -10t130 -65.5t128 -67t157 -8t149.5 26t114.5 32.5l45 16v-137q-16 -6 -46 -17t-111.5 -31.5t-153.5 -28t-151.5 10t-129 66.5t-128 66.5t-157.5 8.5t-151 -25.5t-115 -32.5zM102 696v142q16 6 46 17t112 31.5 t153.5 27t152.5 -10t130 -66t128 -67.5t157 -9t149.5 25.5t114.5 32.5l45 19v-142q-16 -6 -46 -17t-111.5 -31.5t-153.5 -27t-151.5 10t-129 65.5t-128 67.5t-157.5 9.5t-151 -25.5t-115 -34.5z" glyph-name="approxequal" horiz-adv-x="1392" unicode="≈"/><glyph d="M86 420q0 29 20.5 49t49.5 20h340l209 209h-549q-29 0 -49.5 20.5t-20.5 49.5t20.5 50.5t49.5 21.5h690l184 184q20 20 49 20t49 -20q47 -49 -2 -98l-86 -86h197q29 0 49.5 -21.5t20.5 -50.5t-20.5 -49.5t-49.5 -20.5h-338l-209 -209h547q29 0 49.5 -20t20.5 -49 t-20.5 -48.5t-49.5 -19.5h-684l-193 -192q-20 -20 -46.5 -20.5t-47.5 20.5q-49 49 -2 98l94 94h-202q-29 0 -49.5 19.5t-20.5 48.5z" glyph-name="notequal" horiz-adv-x="1392" unicode="≠"/><glyph d="M762 535q27 -14 35 -42t-9 -53q-14 -25 -40.5 -34t-53.5 4l-590 327q-39 20 -38.5 64.5t38.5 66.5l590 328q27 12 53.5 3t40.5 -34q16 -25 8 -52.5t-34 -41.5l-483 -268zM66 69.5q0 28.5 20 50t49 21.5h594q29 0 49.5 -21.5t20.5 -50t-20.5 -49t-49.5 -20.5h-594 q-29 0 -49 20.5t-20 49z" glyph-name="lessequal" horiz-adv-x="866" unicode="≤"/><glyph d="M104 535l484 268l-484 268q-27 14 -35 42t9 52q14 25 40.5 34t53.5 -3l590 -328q39 -23 39 -66.5t-39 -64.5l-590 -327q-27 -12 -53.5 -3t-40.5 33q-16 25 -8.5 53t34.5 42zM801 69.5q0 -28.5 -20.5 -49t-49.5 -20.5h-594q-29 0 -49 20.5t-20 49t20.5 50t48.5 21.5h594 q29 0 49.5 -21.5t20.5 -50z" glyph-name="greaterequal" horiz-adv-x="866" unicode="≥"/><glyph d="M500 1536h141l418 -768l-418 -768h-141l-418 768zM571 1372l-329 -604l329 -606l328 606z" glyph-name="lozenge" horiz-adv-x="1140" unicode="◊"/><glyph glyph-name="uniF8FF" horiz-adv-x="1024" unicode=""/><glyph d="M25 1116q0 29 20.5 49.5t48.5 20.5h86v125q0 117 81 188.5t198 71.5q100 0 180 -64q25 -20 25 -53q0 -29 -20.5 -49.5t-49.5 -20.5q-25 0 -45 17q-37 31 -90 31q-59 0 -98 -32t-39 -89v-125h559q29 0 50 -20.5t21 -49.5v-1063q0 -29 -21.5 -49t-50 -20t-49 20.5 t-20.5 48.5v994h-717q-29 0 -49 20t-20 49zM250 -16q-29 0 -49.5 20.5t-20.5 48.5v821q0 29 20.5 50.5t49.5 21.5t50.5 -21.5t21.5 -50.5v-821q0 -29 -21.5 -49t-50.5 -20zM788 1479q0 37 28 64.5t65 27.5t63.5 -27.5t26.5 -64.5t-25.5 -63.5t-64.5 -26.5q-37 0 -65 26.5 t-28 63.5z" glyph-name="uniFB01" horiz-adv-x="1073" unicode="ﬁ"/><glyph d="M795 53v1344h-338q-57 0 -97.5 -41t-40.5 -101v-69h191q29 0 49.5 -20.5t20.5 -49.5t-20.5 -49t-49.5 -20h-416q-29 0 -49 20t-20 49t20.5 49.5t48.5 20.5h86v69q0 117 81 199t196 82h409q29 0 49.5 -20.5t20.5 -49.5v-1413q0 -29 -21.5 -49t-50 -20t-49 20t-20.5 49z M250 -16q-29 0 -49.5 20.5t-20.5 48.5v821q0 29 20.5 50.5t49.5 21.5t50.5 -21.5t21.5 -50.5v-821q0 -29 -21.5 -49t-50.5 -20z" glyph-name="uniFB02" horiz-adv-x="1058" unicode="ﬂ"/><glyph d="M25 1116q0 29 20.5 49.5t48.5 20.5h86v125q0 117 81 188.5t198 71.5q100 0 180 -64q25 -20 25 -53q0 -29 -20.5 -49.5t-49.5 -20.5q-25 0 -45 17q-37 31 -90 31q-59 0 -98 -32t-39 -89v-125h489v125q0 117 81 188.5t198 71.5q100 0 180 -64q25 -20 24 -53 q0 -29 -20.5 -49.5t-48.5 -20.5q-25 0 -45 17q-37 31 -90 31q-59 0 -98.5 -32t-39.5 -89v-125h559q29 0 50.5 -20.5t21.5 -49.5v-1063q0 -29 -21.5 -49t-50 -20t-49 20.5t-20.5 48.5v994h-1348q-29 0 -49 20t-20 49zM880.5 -16q-28.5 0 -49 20.5t-20.5 48.5v821 q0 29 20.5 50.5t49 21.5t50 -21.5t21.5 -50.5v-821q0 -29 -21.5 -49t-50 -20zM250 -16q-29 0 -49.5 20.5t-20.5 48.5v821q0 29 20.5 50.5t49.5 21.5t50.5 -21.5t21.5 -50.5v-821q0 -29 -21.5 -49t-50.5 -20zM1419 1479q0 37 28 64.5t64.5 27.5t63.5 -27.5t27 -64.5 t-26 -63.5t-65 -26.5q-37 0 -64.5 26.5t-27.5 63.5z" glyph-name="uniFB03" horiz-adv-x="1705" unicode="ﬃ"/><glyph d="M1407 53v1344h-338q-57 0 -97 -41t-40 -101v-69h190q29 0 49.5 -20.5t20.5 -49.5t-20.5 -49t-49.5 -20h-1028q-29 0 -49 20t-20 49t20.5 49.5t48.5 20.5h86v125q0 117 81 188.5t198 71.5q100 0 180 -64q25 -20 25 -53q0 -29 -20.5 -49.5t-49.5 -20.5q-25 0 -45 17 q-37 31 -90 31q-59 0 -98 -32t-39 -89v-125h471v69q0 117 80.5 199t195.5 82h410q29 0 49 -20.5t20 -49.5v-1413q0 -29 -21.5 -49t-50 -20t-49 20t-20.5 49zM862.5 -16q-28.5 0 -49 20.5t-20.5 48.5v821q0 29 20.5 50.5t49 21.5t50 -21.5t21.5 -50.5v-821q0 -29 -21.5 -49 t-50 -20zM250 -16q-29 0 -49.5 20.5t-20.5 48.5v821q0 29 20.5 50.5t49.5 21.5t50.5 -21.5t21.5 -50.5v-821q0 -29 -21.5 -49t-50.5 -20z" glyph-name="uniFB04" horiz-adv-x="1671" unicode="ﬄ"/><glyph d="M1337 594q0 -262 -183 -445.5t-445 -183.5q-260 0 -443.5 184.5t-183.5 444.5t183.5 443.5t443.5 183.5t444 -183.5t184 -443.5zM1264 594q0 229 -162 391t-393 162q-229 0 -391 -162t-162 -391t161.5 -392t391.5 -163q231 0 393 163t162 392zM440 248v674q0 27 21.5 44 t52.5 17h264q113 0 192 -74.5t79 -187.5q0 -111 -79 -186.5t-192 -75.5h-248v-211q0 -16 -12 -28.5t-32.5 -12.5t-33 12.5t-12.5 28.5zM956 721q0 70 -51 120t-119 50h-256v-338h256q68 0 119 49t51 119z" glyph-name="uniFB05" horiz-adv-x="1419" unicode="ﬅ"/><glyph d="M94 1047q-29 0 -49 20t-20 49t20.5 49.5t48.5 20.5h86v125q0 117 81 188.5t198 71.5q100 0 180 -64q25 -20 25 -53q0 -29 -20.5 -49.5t-49.5 -20.5q-25 0 -45 17q-37 31 -90 31q-59 0 -98 -32t-39 -89v-125h473v213q0 29 20.5 50t49 21t50 -21.5t21.5 -49.5v-213h188 q29 0 49.5 -20.5t20.5 -49.5t-20.5 -49t-49.5 -20h-1030zM936 874v-595q0 -57 40 -97.5t97 -40.5h51q29 0 50.5 -21.5t21.5 -50t-21.5 -49t-50.5 -20.5h-51q-115 0 -196.5 82t-81.5 197v595q0 29 20.5 50.5t49 21.5t50 -21.5t21.5 -50.5zM250 -16q-29 0 -49.5 20.5 t-20.5 48.5v821q0 29 20.5 50.5t49.5 21.5t50.5 -21.5t21.5 -50.5v-821q0 -29 -21.5 -49t-50.5 -20z" glyph-name="uniFB06" horiz-adv-x="1220" unicode="ﬆ"/><glyph d="M25 1116q0 29 20.5 49.5t48.5 20.5h86v213q0 29 20.5 50t49.5 21t50.5 -21.5t21.5 -49.5v-213h473v213q0 29 20.5 50t49 21t50 -21.5t21.5 -49.5v-213h188q29 0 49.5 -20.5t20.5 -49.5t-20.5 -49t-49.5 -20h-1030q-29 0 -49 20t-20 49zM322 874v-595q0 -57 39.5 -97.5 t97.5 -40.5h51q29 0 50.5 -21.5t21.5 -50t-21.5 -49t-50.5 -20.5h-51q-115 0 -197 82t-82 197v595q0 29 20.5 50.5t49.5 21.5t50.5 -21.5t21.5 -50.5zM936 874v-595q0 -57 40 -97.5t97 -40.5h51q29 0 50.5 -21.5t21.5 -50t-21.5 -49t-50.5 -20.5h-51q-115 0 -196.5 82 t-81.5 197v595q0 29 20.5 50.5t49 21.5t50 -21.5t21.5 -50.5z" glyph-name="uniFB07" horiz-adv-x="1220" unicode="﬇"/><glyph glyph-name="glyph317" horiz-adv-x="1026"/></font>
</defs>
</svg>
