<?xml version="1.0" standalone="no"?>
<!DOCTYPE svg PUBLIC "-//W3C//DTD SVG 1.1//EN" "http://www.w3.org/Graphics/SVG/1.1/DTD/svg11.dtd">
<svg xmlns="http://www.w3.org/2000/svg"><metadata>This SVG WebFont was generated by YouWorkForThem.
 Copyright (c)2016 Talbot Type. All Rights Reserved</metadata><defs><font horiz-adv-x="693" id="ywftsvg"><font-face ascent="790" bbox="-39 -204 1347 924" cap-height="758" descent="-210" font-family="" font-stretch="normal" font-weight="100" panose-1="2 11 4 3 3 6 0 6 0 4" underline-position="0" underline-thickness="0" unicode-range="U+0020-FB07" units-per-em="1000" x-height="579"/><missing-glyph horiz-adv-x="191"/><glyph glyph-name=".notdef" horiz-adv-x="191"/><glyph glyph-name="glyph1" horiz-adv-x="0"/><glyph glyph-name="glyph2" horiz-adv-x="333"/><glyph glyph-name="space" horiz-adv-x="270" unicode=" "/><glyph d="M63 170l-3 579q0 9 8 9q9 0 9 -9l-2 -579q0 -6 -6 -6t-6 6zM54 7q0 6 4.5 10.5t10.5 4.5t10.5 -4.5t4.5 -10.5t-4.5 -10.5t-10.5 -4.5t-10.5 4.5t-4.5 10.5z" glyph-name="exclam" horiz-adv-x="137" unicode="!"/><glyph d="M65 750v-122q0 -8 -7 -8q-8 0 -8 8v122q0 8 7 8q8 0 8 -8zM97 750v-122q0 -8 -7 -8q-8 0 -8 8v122q0 8 7 8q8 0 8 -8z" glyph-name="quotedbl" horiz-adv-x="147" unicode="&quot;"/><glyph d="M137 3l60 278h-177q-8 0 -8 8q0 9 8 9h181l32 154h-213q-8 0 -8 8q0 9 8 9h217l60 282q2 9 10 7q9 -2 7 -11l-59 -278h152l59 282q2 9 10 7q9 -2 7 -11l-58 -278h174q9 0 9 -9q0 -8 -9 -8h-177l-34 -154h211q9 0 9 -9q0 -8 -9 -8h-214l-61 -282q-2 -9 -10 -7q-9 2 -7 11 l60 278h-152l-61 -282q-2 -9 -10 -7q-9 2 -7 11zM404 452h-153l-33 -154h153z" glyph-name="numbersign" horiz-adv-x="620" unicode="#"/><glyph d="M551 187q0 -72 -55 -127t-139 -72q-9 -2 -11 7q-2 8 7 10q79 16 129.5 66t50.5 116q0 60 -26.5 100t-68 60t-92.5 33t-102 25t-92.5 29.5t-68 54t-26.5 91.5q0 64 50.5 114.5t129.5 66.5q9 2 11 -7q2 -8 -11 -11q-71 -14 -116.5 -59.5t-45.5 -103.5q0 -50 26.5 -83.5 t68 -50t92.5 -28t102 -25.5t92.5 -35.5t68 -64.5t26.5 -106zM55 74q97 -73 234 -74h3q12 0 12 -12v-55q0 -9 -9 -9q-8 0 -8 9v51q-147 3 -242 76q-7 6 -3 12q6 7 13 2zM503 696q-91 50 -204 53q-12 0 -12 12v54q0 9 8 9q9 0 9 -9v-49q114 -3 209 -56q8 -4 2 -12 q-4 -8 -12 -2z" glyph-name="dollar" horiz-adv-x="591" unicode="$"/><glyph d="M428 576q0 -79 -57 -135.5t-137 -56.5q-79 0 -136.5 56.5t-57.5 135.5q0 78 58 134.5t136 56.5q80 0 137 -56t57 -135zM152 14l498 739q5 7 12 4q7 -4 2 -13l-497 -738q-5 -8 -12 -5q-8 5 -3 13zM410 576q0 72 -52 123t-124 51t-124 -51t-52 -123t52 -123.5t124 -51.5 t124 51.5t52 123.5zM776 175q0 -79 -57 -135.5t-137 -56.5q-79 0 -136.5 56.5t-57.5 135.5q0 78 58 134.5t136 56.5q80 0 137 -56t57 -135zM758 175q0 72 -52 123t-124 51t-124 -51t-52 -123t52 -123.5t124 -51.5t124 51.5t52 123.5z" glyph-name="percent" horiz-adv-x="816" unicode="%"/><glyph d="M283 0q102 0 170 77q7 7 13 0q6 -5 -1 -12q-74 -82 -182 -82q-101 0 -172 71t-71 172t71 172t172 71q59 0 99.5 40.5t40.5 99.5q0 58 -41 99.5t-99 41.5t-99.5 -41.5t-41.5 -99.5q0 -61 44 -102q6 -5 -1 -12q-5 -5 -11 0q-50 47 -50 114q0 65 47 111.5t112 46.5 t111.5 -46.5t46.5 -111.5t-46.5 -111t-111.5 -46q-94 0 -159.5 -66t-65.5 -160t65.5 -160t159.5 -66zM525 362v-255q0 -37 26 -63.5t63 -26.5q9 0 9 -9q0 -8 -9 -8q-44 1 -75 32t-31 75v255q0 44 31.5 75.5t74.5 31.5q9 0 9 -9q0 -8 -9 -8q-37 0 -63 -26.5t-26 -63.5z" glyph-name="ampersand" horiz-adv-x="641" unicode="&amp;"/><glyph d="M65 750v-122q0 -8 -7 -8q-8 0 -8 8v122q0 8 7 8q8 0 8 -8z" glyph-name="quotesingle" horiz-adv-x="115" unicode="'"/><glyph d="M80 289q0 128 36 255t102 226q3 5 8 5q9 0 9 -9q0 -2 -3 -7q-64 -97 -99 -220.5t-35 -249.5t35 -249.5t99 -220.5q3 -5 3 -7q0 -9 -9 -9q-5 0 -8 5q-66 99 -102 226t-36 255z" glyph-name="parenleft" horiz-adv-x="265" unicode="("/><glyph d="M185 289q0 -128 -36 -255t-102 -226q-3 -5 -8 -5q-9 0 -9 9q0 2 3 7q64 97 99 220.5t35 249.5t-35 249.5t-99 220.5q-3 5 -3 7q0 9 9 9q5 0 8 -5q66 -99 102 -226t36 -255z" glyph-name="parenright" horiz-adv-x="265" unicode=")"/><glyph d="M172 531q-8 0 -8 8l3 100l-85 -52q-7 -4 -11 2q-4 8 3 11l87 48l-87 48q-7 4 -3 10q3 7 11 3l85 -53l-3 101q0 8 8 8t8 -8l-3 -100l85 52q8 4 11 -3q4 -6 -3 -10l-89 -48l89 -48q7 -3 3 -11q-4 -6 -11 -2l-85 52l3 -100q0 -8 -8 -8z" glyph-name="asterisk" horiz-adv-x="345" unicode="*"/><glyph d="M629 281h-281v-281q0 -8 -9 -8q-8 0 -8 8v281h-280q-9 0 -9 8q0 9 9 9h280v280q0 9 8 9q9 0 9 -9v-280h281q8 0 8 -9q0 -8 -8 -8z" glyph-name="plus" horiz-adv-x="679" unicode="+"/><glyph d="M40 -80q0 8 8 8h3q8 0 8 8v56h-3q-9 0 -15 6t-6 15q0 8 6 14t15 6q8 0 13.5 -6t5.5 -14v-77q0 -10 -7 -17t-17 -7h-3q-8 0 -8 8z" glyph-name="comma" horiz-adv-x="160" unicode=","/><glyph d="M394 281h-323q-9 0 -9 8q0 9 9 9h323q8 0 8 -9q0 -8 -8 -8z" glyph-name="hyphen" horiz-adv-x="464" unicode="-"/><glyph d="M35 12q0 8 6 14t14 6t14 -6t6 -14t-6 -14t-14 -6t-14 6t-6 14z" glyph-name="period" horiz-adv-x="160" unicode="."/><glyph d="M61 4l311 748q3 8 11 6q8 -3 4 -12l-310 -747q-3 -9 -11 -7q-8 3 -5 12z" glyph-name="slash" horiz-adv-x="448" unicode="/"/><glyph d="M547 519v-289q0 -102 -72.5 -174.5t-174.5 -72.5q-103 0 -175.5 72.5t-72.5 174.5v289q0 103 72.5 175.5t175.5 72.5q102 0 174.5 -72.5t72.5 -175.5zM530 230v289q0 96 -67.5 163.5t-162.5 67.5t-163 -67.5t-68 -163.5v-289q0 -95 68 -162.5t163 -67.5t162.5 67.5 t67.5 162.5z" glyph-name="zero" horiz-adv-x="599" unicode="0"/><glyph d="M42 682q-5 8 4 12l105 61q5 3 8 3q12 0 12 -12v-745q0 -9 -9 -9q-8 0 -8 9v736l-100 -57q-8 -4 -12 2z" glyph-name="one" horiz-adv-x="231" unicode="1"/><glyph d="M66 12q0 6 6 11l377 306q84 71 84 182q0 100 -69.5 169.5t-168.5 69.5t-168.5 -70t-69.5 -169v-33q0 -8 -9 -8q-8 0 -8 8v33q0 106 74.5 181t180.5 75t181 -75t75 -181q0 -118 -91 -196l-368 -298h439q8 0 8 -8q0 -9 -8 -9h-453q-12 0 -12 12z" glyph-name="two" horiz-adv-x="591" unicode="2"/><glyph d="M280 486q0 9 9 9h5q106 0 180.5 -75t74.5 -181t-74.5 -181t-180.5 -75t-181 75t-75 181q0 9 8 9q9 0 9 -9q0 -98 70 -168.5t169 -70.5q98 0 167.5 70.5t69.5 168.5q0 99 -69.5 169t-167.5 70h-5q-9 0 -9 8zM114 420l345 313h-370q-8 0 -8 8q0 9 8 9h384q12 0 12 -12 q0 -7 -5 -10l-355 -320q-7 -5 -12 1q-4 6 1 11z" glyph-name="three" horiz-adv-x="589" unicode="3"/><glyph d="M442 263v467l-388 -517h513q9 0 9 -9q0 -8 -9 -8h-108v-195q0 -9 -9 -9q-8 0 -8 9v195h-398q-12 0 -12 12q0 5 4 10l399 532q6 8 12 8q12 0 12 -12v-483q0 -8 -9 -8q-8 0 -8 8z" glyph-name="four" horiz-adv-x="608" unicode="4"/><glyph d="M293 477q-61 0 -123 -35q-7 -5 -12 2q-4 7 3 12q64 38 132 38q106 0 181 -75t75 -180q0 -107 -74.5 -181.5t-181.5 -74.5q-106 0 -180.5 75t-74.5 181q0 9 8 9q9 0 9 -9q0 -100 69.5 -169.5t168.5 -69.5t168.5 69.5t69.5 169.5q0 98 -69.5 168t-168.5 70zM85 384l63 354 q2 12 12 12h314q9 0 9 -9q0 -8 -9 -8h-310l-62 -352q-2 -9 -11 -7q-8 2 -6 10z" glyph-name="five" horiz-adv-x="589" unicode="5"/><glyph d="M295 477q-35 0 -66 -9q-9 -2 -11 6t7 10q37 10 70 10q106 0 181 -75t75 -180q0 -107 -74.5 -181.5t-181.5 -74.5q-106 0 -180.5 75t-74.5 181q0 78 43 143l248 371q4 9 12 4q7 -3 3 -12l-248 -372q-40 -58 -40 -134q0 -100 69.5 -169.5t167.5 -69.5q99 0 168.5 69.5 t69.5 169.5q0 98 -69.5 168t-168.5 70z" glyph-name="six" horiz-adv-x="591" unicode="6"/><glyph d="M493 733h-465q-8 0 -8 9q0 8 8 8h472q12 0 12 -12q0 -4 -2 -8l-304 -732q-2 -8 -11 -6q-8 3 -6 10z" glyph-name="seven" horiz-adv-x="532" unicode="7"/><glyph d="M154 421q-89 54 -89 154q0 86 66.5 139t163.5 53q98 0 164.5 -53t66.5 -139t-66.5 -139t-164.5 -53q-101 0 -169 -53t-68 -139t68 -138.5t169 -52.5q102 0 170 52.5t68 138.5q0 105 -105 162q-9 4 -4 11q3 8 12 4q54 -27 84.5 -72.5t30.5 -104.5q0 -93 -73.5 -150.5 t-182.5 -57.5q-108 0 -181.5 57.5t-73.5 150.5t73.5 151t181.5 58q91 0 152 48t61 127t-61 127t-152 48t-151.5 -48t-60.5 -127q0 -93 81 -141q7 -5 2 -12q-4 -6 -12 -1z" glyph-name="eight" horiz-adv-x="591" unicode="8"/><glyph d="M296 273q34 0 66 9q9 2 11 -6t-7 -10q-37 -10 -70 -10q-106 0 -181 75t-75 180q0 107 75 181.5t181 74.5t180.5 -75t74.5 -181q0 -78 -43 -143l-248 -371q-4 -9 -12 -4q-6 3 -3 12l248 372q40 58 40 134q0 100 -69.5 169.5t-167.5 69.5q-99 0 -168.5 -69.5t-69.5 -169.5 q0 -98 69.5 -168t168.5 -70z" glyph-name="nine" horiz-adv-x="591" unicode="9"/><glyph d="M35 12q0 8 6 14t14 6t14 -6t6 -14t-6 -14t-14 -6t-14 6t-6 14zM35 566q0 8 6 14t14 6t14 -6t6 -14t-6 -14t-14 -6t-14 6t-6 14z" glyph-name="colon" horiz-adv-x="160" unicode=":"/><glyph d="M35 566q0 8 6 14t14 6t14 -6t6 -14t-6 -14t-14 -6t-14 6t-6 14zM40 -80q0 8 8 8h3q8 0 8 8v56h-3q-9 0 -15 6t-6 15q0 8 6 14t15 6q8 0 13.5 -6t5.5 -14v-77q0 -10 -7 -17t-17 -7h-3q-8 0 -8 8z" glyph-name="semicolon" horiz-adv-x="160" unicode=";"/><glyph d="M24 290q0 6 7 11l333 236q8 6 13 -1t-3 -13l-330 -233l330 -233q8 -6 3 -13t-13 -1l-333 236q-7 5 -7 11z" glyph-name="less" horiz-adv-x="419" unicode="&lt;"/><glyph d="M629 367h-578q-9 0 -9 8q0 9 9 9h578q8 0 8 -9q0 -8 -8 -8zM629 196h-578q-9 0 -9 8q0 9 9 9h578q8 0 8 -9q0 -8 -8 -8z" glyph-name="equal" horiz-adv-x="679" unicode="="/><glyph d="M395 290q0 -6 -7 -11l-333 -236q-8 -6 -13 1t3 13l330 233l-330 233q-8 6 -3 13t13 1l333 -236q7 -5 7 -11z" glyph-name="greater" horiz-adv-x="419" unicode=">"/><glyph d="M551 511q0 -103 -72 -177.5t-176 -77.5v-96q0 -9 -8 -9q-9 0 -9 9v105q0 8 9 8q99 0 168.5 70t69.5 168q0 100 -69.5 169.5t-168.5 69.5t-168.5 -69.5t-69.5 -169.5q0 -9 -9 -9q-8 0 -8 9q0 106 74.5 181t180.5 75q107 0 181.5 -74.5t74.5 -181.5zM311 7q0 -15 -16 -15 q-15 0 -15 15q0 6 4.5 10.5t10.5 4.5q7 0 11.5 -4.5t4.5 -10.5z" glyph-name="question" horiz-adv-x="591" unicode="?"/><glyph d="M432 171q90 0 149 64q7 7 13 0q6 -5 -1 -12q-66 -69 -161 -69q-92 0 -156.5 64.5t-64.5 156.5t64.5 156.5t156.5 64.5t156.5 -64.5t64.5 -156.5v-127q0 -33 22.5 -55t54.5 -22t54.5 22t22.5 55v127q0 155 -110 265t-265 110t-264.5 -110t-109.5 -265t109.5 -265 t264.5 -110q88 0 163 38q9 3 13 -4q3 -8 -5 -12q-80 -39 -171 -39q-162 0 -277 115t-115 277t115 277t277 115t277 -115t115 -277v-127q0 -40 -27.5 -67t-66.5 -27t-66.5 27t-27.5 67v127q0 85 -59.5 144.5t-144.5 59.5t-144 -59.5t-59 -144.5t59 -144.5t144 -59.5z" glyph-name="at" horiz-adv-x="874" unicode="@"/><glyph d="M336 733l-303 -733q-2 -8 -9 -8q-9 0 -9 9q0 2 1 4l308 744q4 9 12 9t12 -9l199 -482q4 -7 -4 -11q-9 -5 -12 4zM160 204q0 9 8 9h394q9 0 12 -10l82 -198q1 -2 1 -4q0 -9 -9 -9q-7 0 -9 8l-82 196h-389q-8 0 -8 8z" glyph-name="A" horiz-adv-x="672" unicode="A"/><glyph d="M513 430q-6 6 1 11q58 50 58 125q0 70 -49 118.5t-118 48.5h-328v-716h345q76 0 129 53.5t53 130.5t-53 130.5t-129 53.5h-294q-9 0 -9 9q0 8 9 8h294q85 0 142.5 -57.5t57.5 -143.5t-57.5 -143.5t-142.5 -57.5h-350q-12 0 -12 12v726q0 12 12 12h341q74 0 125.5 -54.5 t51.5 -129.5q0 -82 -65 -137q-6 -6 -12 1z" glyph-name="B" horiz-adv-x="662" unicode="B"/><glyph d="M427 -17q-163 0 -277.5 115t-114.5 277t114.5 277t277.5 115q161 0 274 -113q3 -3 3 -7q0 -8 -8 -8q-4 0 -6 2q-109 109 -263 109q-155 0 -264.5 -110t-109.5 -265t109.5 -265t264.5 -110q154 0 263 109q2 2 6 2q8 0 8 -8q0 -4 -3 -7q-113 -113 -274 -113z" glyph-name="C" horiz-adv-x="739" unicode="C"/><glyph d="M60 9v729q0 12 12 12h244q155 0 265 -110t110 -265t-110.5 -265t-264.5 -110h-188q-9 0 -9 8q0 9 9 9h188q148 0 252.5 105t104.5 253t-104.5 253t-252.5 105h-239v-724q0 -9 -9 -9q-8 0 -8 9z" glyph-name="D" horiz-adv-x="726" unicode="D"/><glyph d="M77 367v-350h520q9 0 9 -9q0 -8 -9 -8h-525q-12 0 -12 12v360q0 12 12 12h456q9 0 9 -9q0 -8 -9 -8h-451zM60 435v303q0 12 12 12h525q9 0 9 -9q0 -8 -9 -8h-520v-298q0 -9 -9 -9q-8 0 -8 9z" glyph-name="E" horiz-adv-x="641" unicode="E"/><glyph d="M60 435v303q0 12 12 12h507q9 0 9 -9q0 -8 -9 -8h-502v-298q0 -9 -9 -9q-8 0 -8 9zM60 1v371q0 12 12 12h439q9 0 9 -9q0 -8 -9 -8h-434v-366q0 -9 -9 -9q-8 0 -8 9z" glyph-name="F" horiz-adv-x="603" unicode="F"/><glyph d="M725 371v-246q0 -6 -3 -9q-55 -62 -132 -97.5t-163 -35.5q-162 0 -277 115t-115 277t115 277t277 115q159 0 274 -112q3 -3 3 -7q0 -8 -9 -8q-3 0 -6 3q-112 107 -262 107q-155 0 -264.5 -110t-109.5 -265t109.5 -265t264.5 -110q83 0 156 33.5t125 92.5v240h-280 q-9 0 -9 9q0 8 9 8h285q12 0 12 -12z" glyph-name="G" horiz-adv-x="775" unicode="G"/><glyph d="M640 749v-370q0 -12 -12 -12h-551v-366q0 -9 -9 -9q-8 0 -8 9v371q0 12 12 12h551v365q0 9 9 9q8 0 8 -9zM640 316v-315q0 -9 -8 -9q-9 0 -9 9v315q0 9 9 9q8 0 8 -9zM60 435v314q0 9 8 9q9 0 9 -9v-314q0 -9 -9 -9q-8 0 -8 9z" glyph-name="H" horiz-adv-x="700" unicode="H"/><glyph d="M77 749v-748q0 -9 -9 -9q-8 0 -8 9v748q0 9 8 9q9 0 9 -9z" glyph-name="I" horiz-adv-x="137" unicode="I"/><glyph d="M20 48q0 8 8 8q4 0 6 -2q54 -54 131 -54t132 55.5t55 132.5v561q0 9 8 9q9 0 9 -9v-561q0 -85 -60 -145t-144 -60t-143 59q-2 2 -2 6z" glyph-name="J" horiz-adv-x="429" unicode="J"/><glyph d="M147 375l439 -368q8 -6 2 -13q-7 -5 -12 0l-443 371q-6 5 -6 10q0 6 6 10l443 371q5 5 12 0q6 -7 -2 -13zM60 749q0 9 8 9q9 0 9 -9v-748q0 -9 -9 -9q-8 0 -8 9v748z" glyph-name="K" horiz-adv-x="605" unicode="K"/><glyph d="M77 749v-732h485q9 0 9 -9q0 -8 -9 -8h-490q-12 0 -12 12v737q0 9 8 9q9 0 9 -9z" glyph-name="L" horiz-adv-x="586" unicode="L"/><glyph d="M435 320q-6 0 -11 6l-347 406v-731q0 -9 -9 -9q-8 0 -8 9v745q0 12 12 12q7 0 12 -7l351 -412l351 412q5 7 12 7q12 0 12 -12v-745q0 -9 -8 -9q-9 0 -9 9v731l-347 -406q-5 -6 -11 -6z" glyph-name="M" horiz-adv-x="870" unicode="M"/><glyph d="M605 749q0 9 9 9q8 0 8 -9v-745q0 -12 -12 -12q-7 0 -10 5l-523 734v-730q0 -9 -9 -9q-8 0 -8 9v745q0 12 12 12q7 0 10 -5l523 -734v730z" glyph-name="N" horiz-adv-x="682" unicode="N"/><glyph d="M819 375q0 -162 -115 -277t-277 -115t-277 115t-115 277q0 153 105 266q118 126 287 126q162 0 277 -115t115 -277zM801 375q0 155 -109.5 265t-264.5 110t-264.5 -110t-109.5 -265t109.5 -265t264.5 -110t264.5 110t109.5 265z" glyph-name="O" horiz-adv-x="854" unicode="O"/><glyph d="M77 733v-732q0 -9 -9 -9q-8 0 -8 9v737q0 12 12 12h324q94 0 160 -66t66 -160t-66 -160t-160 -66h-268q-9 0 -9 8q0 9 9 9h268q86 0 147 61.5t61 147.5t-61 147.5t-147 61.5h-319z" glyph-name="P" horiz-adv-x="657" unicode="P"/><glyph d="M614 73q78 52 124 133.5t46 176.5q0 152 -107 259.5t-259 107.5q-151 0 -258 -107.5t-107 -259.5t106.5 -259t258.5 -107h347q9 0 9 -9q0 -8 -9 -8h-347q-159 0 -271 112t-112 271t112 271.5t271 112.5t271.5 -112.5t112.5 -271.5q0 -100 -47.5 -185t-128.5 -137 q-8 -6 -13 1t1 11z" glyph-name="Q" horiz-adv-x="854" unicode="Q"/><glyph d="M245 303q0 12 12 12h139q86 0 147 61.5t61 147.5t-61 147.5t-147 61.5h-319v-732q0 -9 -9 -9q-8 0 -8 9v737q0 12 12 12h324q94 0 160 -66t66 -160t-66 -160t-160 -66h-129l245 -292q7 -7 -1 -13q-6 -6 -12 2l-250 298q-4 4 -4 10z" glyph-name="R" horiz-adv-x="662" unicode="R"/><glyph d="M55 74q102 -74 240 -74q99 0 168.5 54.5t69.5 132.5q0 60 -26.5 100t-68 60t-92.5 33t-102 25t-92.5 29.5t-68 54t-26.5 91.5q0 78 69.5 132.5t168.5 54.5q119 0 218 -57q8 -4 2 -12q-4 -8 -12 -2q-94 54 -208 54q-92 0 -156 -49.5t-64 -120.5q0 -50 26.5 -83.5t68 -50 t92.5 -28t102 -25.5t92.5 -35.5t68 -64.5t26.5 -106q0 -85 -75.5 -144.5t-180.5 -59.5q-148 0 -250 77q-7 6 -3 12q6 7 13 2z" glyph-name="S" horiz-adv-x="591" unicode="S"/><glyph d="M291 738q0 12 12 12h277q9 0 9 -9q0 -8 -9 -8h-272v-732q0 -9 -9 -9q-8 0 -8 9v737zM240 733h-221q-9 0 -9 8q0 9 9 9h221q9 0 9 -8q0 -9 -9 -9z" glyph-name="T" horiz-adv-x="599" unicode="T"/><glyph d="M77 749v-476q0 -113 80 -193t193 -80t192.5 80t79.5 193v476q0 9 8 9q9 0 9 -9v-476q0 -120 -84.5 -205t-204.5 -85t-205 85t-85 205v476q0 9 8 9q9 0 9 -9z" glyph-name="U" horiz-adv-x="699" unicode="U"/><glyph d="M332 17l299 733q2 8 9 8q9 0 9 -9q0 -2 -1 -4l-304 -744q-4 -9 -12 -9t-12 9l-304 744q-1 2 -1 4q0 9 9 9q7 0 9 -8z" glyph-name="V" horiz-adv-x="664" unicode="V"/><glyph d="M866 751q2 9 11 7q8 -3 6 -11l-208 -745q-3 -10 -12 -10t-12 10l-202 724l-202 -724q-3 -10 -12 -10t-12 10l-208 745q-2 8 6 11q9 2 11 -7l203 -724l202 720q3 11 12 11t12 -11l202 -720z" glyph-name="W" horiz-adv-x="898" unicode="W"/><glyph d="M30 -5q-2 -3 -6 -3.5t-6 1.5q-7 5 -2 12l566 750q2 3 6 3.5t6 -1.5q7 -5 2 -12zM18 757q2 2 6 1.5t6 -3.5l246 -326q5 -6 -1 -12q-7 -6 -13 2l-246 326q-5 7 2 12zM594 -7q-2 -2 -6 -1.5t-6 3.5l-246 326q-5 6 1 12q7 6 13 -2l246 -326q5 -7 -2 -12z" glyph-name="X" horiz-adv-x="612" unicode="X"/><glyph d="M306 -8q-8 0 -8 9v362q0 5 3 9l281 383q2 3 6 3.5t6 -1.5q7 -5 2 -12l-281 -384v-360q0 -9 -9 -9zM18 757q2 2 6 1.5t6 -3.5l246 -337q5 -6 -1 -12q-7 -6 -13 2l-246 337q-5 7 2 12z" glyph-name="Y" horiz-adv-x="612" unicode="Y"/><glyph d="M20 12q0 6 3 9l537 712h-531q-9 0 -9 8q0 9 9 9h542q12 0 12 -12q0 -6 -3 -9l-537 -712h531q9 0 9 -8q0 -9 -9 -9h-542q-12 0 -12 12z" glyph-name="Z" horiz-adv-x="603" unicode="Z"/><glyph d="M97 -154h119q9 0 9 -8q0 -9 -9 -9h-124q-12 0 -12 12v897q0 12 12 12h124q9 0 9 -9q0 -8 -9 -8h-119v-887z" glyph-name="bracketleft" horiz-adv-x="247" unicode="["/><glyph d="M76 752l311 -748q3 -9 -5 -12q-8 -2 -11 7l-310 747q-4 9 4 12q8 2 11 -6z" glyph-name="backslash" horiz-adv-x="448" unicode="\"/><glyph d="M31 -154h119v887h-119q-9 0 -9 8q0 9 9 9h124q12 0 12 -12v-897q0 -12 -12 -12h-124q-9 0 -9 9q0 8 9 8z" glyph-name="bracketright" horiz-adv-x="247" unicode="]"/><glyph d="M282 758q6 0 11 -7l216 -333q6 -8 -1 -13t-13 3l-213 330l-213 -330q-6 -8 -13 -3t-1 13l216 333q5 7 11 7z" glyph-name="asciicircum" horiz-adv-x="564" unicode="^"/><glyph d="M0 -91h579v-25h-579v25z" glyph-name="underscore" horiz-adv-x="519" unicode="_"/><glyph d="M85 753q0 14 14 14q2 0 8 -2l152 -49q5 -2 5 -5q0 -5 -6 -3l-160 31q-13 2 -13 14z" glyph-name="grave" horiz-adv-x="349" unicode="`"/><glyph d="M579 117q6 7 12 1t0 -13q-43 -57 -107 -89.5t-138 -32.5q-127 0 -216.5 90t-89.5 217t89.5 216.5t216.5 89.5q100 0 179 -57t111 -148v187q0 9 8 9q9 0 9 -9v-577q0 -9 -9 -9q-8 0 -8 9v289q0 120 -85 204.5t-205 84.5q-119 0 -203.5 -84.5t-84.5 -204.5t84.5 -205 t203.5 -85q70 0 131.5 31.5t101.5 85.5z" glyph-name="a" horiz-adv-x="713" unicode="a"/><glyph d="M134 462q-6 -7 -12 -1t0 13q43 57 107 89.5t138 32.5q127 0 217 -90t90 -217t-90 -216.5t-217 -89.5q-100 0 -179 57t-111 148v-187q0 -9 -8 -9q-9 0 -9 9v748q0 9 9 9q8 0 8 -9v-460q0 -120 85 -204.5t205 -84.5q119 0 204 84.5t85 204.5t-85 205t-204 85 q-70 0 -131.5 -31.5t-101.5 -85.5z" glyph-name="b" horiz-adv-x="714" unicode="b"/><glyph d="M562 71q-94 -88 -215 -88q-127 0 -217 90t-90 217t90 216.5t217 89.5q122 0 215 -87q6 -7 1 -12q-7 -7 -13 0q-87 82 -203 82q-120 0 -204.5 -84.5t-84.5 -204.5t84.5 -205t204.5 -85q115 0 203 83q6 7 13 0q5 -5 -1 -12z" glyph-name="c" horiz-adv-x="601" unicode="c"/><glyph d="M580 117q6 7 12 1t0 -13q-43 -57 -107 -89.5t-138 -32.5q-127 0 -217 90t-90 217t90 216.5t217 89.5q100 0 179 -57t111 -148v358q0 9 8 9q9 0 9 -9v-748q0 -9 -9 -9q-8 0 -8 9v289q0 120 -85 204.5t-205 84.5q-119 0 -204 -84.5t-85 -204.5t85 -205t204 -85 q70 0 131.5 31.5t101.5 85.5z" glyph-name="d" horiz-adv-x="714" unicode="d"/><glyph d="M58 290q0 -122 85 -206t204 -84q80 0 147 40.5t104 108.5q5 8 12 4q8 -5 4 -12q-41 -72 -111.5 -115t-155.5 -43q-127 0 -217 90t-90 217t90 216.5t217 89.5q125 0 215 -88.5t91 -213.5q0 -13 -12 -13h-532q-9 0 -9 8q0 9 9 9h527q-4 118 -88 199.5t-201 81.5 q-119 0 -204 -83.5t-85 -205.5z" glyph-name="e" unicode="e"/><glyph d="M293 714q-33 36 -81 36q-47 0 -79.5 -32t-32.5 -78v-61h169q9 0 9 -9q0 -8 -9 -8h-250q-9 0 -9 8q0 9 9 9h64v61q0 53 38 90t91 37q58 0 93 -41q5 -6 -1 -12t-11 0zM83 511q0 9 8 9q9 0 9 -9v-510q0 -9 -9 -9q-8 0 -8 9v510z" glyph-name="f" horiz-adv-x="318" unicode="f"/><glyph d="M573 115q6 7 12 1t0 -13q-91 -120 -239 -120q-127 0 -216.5 90t-89.5 217t89.5 216.5t216.5 89.5q100 0 179 -57t111 -148v187q0 9 8 9q9 0 9 -9v-459q0 -127 -89.5 -217t-216.5 -90q-112 0 -238 64q-7 4 -4 12q4 9 12 4q107 -63 230 -63q120 0 203.5 85t85.5 205v171 q0 120 -85 204.5t-205 84.5q-119 0 -203.5 -84.5t-84.5 -204.5t84.5 -205t203.5 -85q141 0 227 115z" glyph-name="g" horiz-adv-x="713" unicode="g"/><glyph d="M122 496q-7 5 0 12q38 40 90.5 64t107.5 24q102 0 168 -66t66 -168v-361q0 -9 -9 -9q-8 0 -8 9v361q0 94 -61.5 155.5t-155.5 61.5q-111 0 -186 -83q-7 -7 -12 0zM77 749v-748q0 -9 -9 -9q-8 0 -8 9v748q0 9 8 9q9 0 9 -9z" glyph-name="h" horiz-adv-x="614" unicode="h"/><glyph d="M56 754q0 13 13 13t13 -13t-13 -13t-13 13zM77 578v-577q0 -9 -9 -9q-8 0 -8 9v577q0 9 8 9q9 0 9 -9z" glyph-name="i" horiz-adv-x="137" unicode="i"/><glyph d="M185 578v-639q0 -52 -37 -89.5t-90 -37.5q-58 0 -94 42q-6 6 0 12q7 7 12 0q32 -37 82 -37q46 0 78 32t32 78v639q0 9 8 9q9 0 9 -9zM163 754q0 13 13 13t13 -13t-13 -13t-13 13z" glyph-name="j" horiz-adv-x="245" unicode="j"/><glyph d="M127 290q0 6 6 10l354 284q7 7 13 1q7 -7 -1 -13l-352 -282l352 -282q8 -6 1 -13q-6 -6 -13 1l-354 284q-6 4 -6 10zM77 749v-748q0 -9 -9 -9q-8 0 -8 9v748q0 9 8 9q9 0 9 -9z" glyph-name="k" horiz-adv-x="518" unicode="k"/><glyph d="M77 749v-748q0 -9 -9 -9q-8 0 -8 9v748q0 9 8 9q9 0 9 -9z" glyph-name="l" horiz-adv-x="137" unicode="l"/><glyph d="M468 508q-6 6 1 13q28 34 71 54.5t88 20.5q80 0 131 -50.5t51 -130.5v-414q0 -9 -9 -9q-8 0 -8 9v414q0 72 -46 118t-119 46q-91 0 -148 -71q-6 -8 -12 0zM427 415q0 72 -46 118t-119 46t-128 -49q-6 -7 -13 0t2 13q61 53 139 53q80 0 131 -50.5t51 -130.5v-414 q0 -9 -9 -9q-8 0 -8 9v414zM77 578v-577q0 -9 -9 -9q-8 0 -8 9v577q0 9 8 9q9 0 9 -9z" glyph-name="m" horiz-adv-x="870" unicode="m"/><glyph d="M122 496q-7 5 0 12q38 40 90.5 64t107.5 24q102 0 168 -66t66 -168v-361q0 -9 -9 -9q-8 0 -8 9v361q0 94 -61.5 155.5t-155.5 61.5q-111 0 -186 -83q-7 -7 -12 0zM77 578v-577q0 -9 -9 -9q-8 0 -8 9v577q0 9 8 9q9 0 9 -9z" glyph-name="n" horiz-adv-x="614" unicode="n"/><glyph d="M635 290q0 120 -84.5 204.5t-204.5 84.5q-119 0 -203.5 -84.5t-84.5 -204.5t84.5 -205t203.5 -85q120 0 204.5 85t84.5 205zM653 290q0 -128 -89.5 -217.5t-217.5 -89.5q-127 0 -216.5 90t-89.5 217t89.5 216.5t216.5 89.5t217 -89.5t90 -216.5z" glyph-name="o" unicode="o"/><glyph d="M134 462q-6 -7 -12 -1t0 13q43 57 107 89.5t138 32.5q127 0 217 -90t90 -217t-90 -216.5t-217 -89.5q-100 0 -179 57t-111 148v-358q0 -9 -8 -9q-9 0 -9 9v748q0 9 9 9q8 0 8 -9v-289q0 -120 85 -204.5t205 -84.5q119 0 204 84.5t85 204.5t-85 205t-204 85 q-70 0 -131.5 -31.5t-101.5 -85.5z" glyph-name="p" horiz-adv-x="714" unicode="p"/><glyph d="M580 117q6 7 12 1t0 -13q-43 -57 -107 -89.5t-138 -32.5q-127 0 -217 90t-90 217t90 216.5t217 89.5q100 0 179 -57t111 -148v187q0 9 8 9q9 0 9 -9v-748q0 -9 -9 -9q-8 0 -8 9v460q0 120 -85 204.5t-205 84.5q-119 0 -204 -84.5t-85 -204.5t85 -205t204 -85 q70 0 131.5 31.5t101.5 85.5z" glyph-name="q" horiz-adv-x="714" unicode="q"/><glyph d="M335 581q-3 -8 -9 -6q-26 4 -42 4q-82 0 -144.5 -83.5t-62.5 -177.5q0 -9 -9 -9q-8 0 -8 9v260q0 9 8 9q9 0 9 -9v-166q23 73 80 128.5t127 55.5q21 0 46 -5q7 -2 5 -10zM77 258v-257q0 -9 -9 -9q-8 0 -8 9v257q0 9 8 9q9 0 9 -9z" glyph-name="r" horiz-adv-x="344" unicode="r"/><glyph d="M450 553q9 -5 3 -13q-5 -7 -13 -1q-82 40 -179 40q-82 0 -134.5 -36t-52.5 -93q0 -59 42 -88.5t102 -38.5t120 -20t102 -48t42 -107q0 -75 -61 -120t-160 -45q-122 0 -216 58q-8 5 -2 13q5 6 12 1q92 -55 206 -55q93 0 148 40t55 108q0 48 -22.5 78.5t-58.5 44t-79.5 21 t-87 15.5t-79.5 21.5t-58.5 44t-22.5 77.5q0 65 57.5 105.5t147.5 40.5q105 0 189 -43z" glyph-name="s" horiz-adv-x="522" unicode="s"/><glyph d="M284 8q0 -8 -9 -8h-51q-56 0 -96 40t-40 96v375q0 9 8 9q9 0 9 -9v-375q0 -49 35 -84t84 -35h51q9 0 9 -9zM275 562h-254q-9 0 -9 8q0 9 9 9h67v130q0 9 8 9q9 0 9 -9v-130h170q9 0 9 -9q0 -8 -9 -8z" glyph-name="t" horiz-adv-x="296" unicode="t"/><glyph d="M537 1v577q0 9 9 9q8 0 8 -9v-577q0 -9 -8 -9q-9 0 -9 9zM492 83q7 -5 0 -12q-38 -40 -90.5 -64t-107.5 -24q-102 0 -168 66t-66 168v361q0 9 9 9q8 0 8 -9v-361q0 -95 61.5 -156t155.5 -61q111 0 186 83q7 7 12 0z" glyph-name="u" horiz-adv-x="614" unicode="u"/><glyph d="M531 581q3 8 11 6q8 -3 5 -12l-259 -574q-4 -9 -12 -9t-12 9l-253 574q-3 9 5 12q8 2 11 -6l249 -564z" glyph-name="v" horiz-adv-x="558" unicode="v"/><glyph d="M594 2l-184 558l-184 -558q-3 -10 -12 -10t-12 10l-189 574q-2 9 5 11q7 3 11 -5l185 -563l184 558q3 10 12 10t12 -10l184 -558l185 563q4 8 11 5q7 -2 5 -11l-189 -574q-3 -10 -12 -10t-12 10z" glyph-name="w" horiz-adv-x="820" unicode="w"/><glyph d="M15 7l460 576q6 7 13 3q7 -5 1 -13l-460 -576q-6 -7 -13 -3q-7 5 -1 13zM16 586q7 4 13 -3l192 -241q5 -7 -2 -12q-6 -4 -12 2l-192 241q-6 8 1 13zM488 -6q-7 -4 -13 3l-192 241q-5 7 2 12q6 4 12 -2l192 -241q6 -8 -1 -13z" glyph-name="x" horiz-adv-x="504" unicode="x"/><glyph d="M209 -173q-3 -8 -11 -6q-8 3 -5 12l338 748q3 8 11 6q8 -3 5 -12zM16 587q8 2 11 -6l225 -511q4 -9 -3 -12q-8 -5 -12 4l-226 513q-3 9 5 12z" glyph-name="y" horiz-adv-x="558" unicode="y"/><glyph d="M481 9q0 -9 -9 -9h-440q-12 0 -12 12q0 6 3 9l436 541h-430q-9 0 -9 8q0 9 9 9h440q12 0 12 -12q0 -6 -3 -9l-436 -541h430q9 0 9 -8z" glyph-name="z" horiz-adv-x="501" unicode="z"/><glyph d="M64 289q0 9 8 9q39 0 66.5 27.5t27.5 66.5v247q0 46 32.5 78.5t78.5 32.5q9 0 9 -9q0 -8 -9 -8q-39 0 -66.5 -27.5t-27.5 -66.5v-247q0 -34 -18.5 -61.5t-48.5 -40.5q30 -13 48.5 -41t18.5 -61v-248q0 -39 27.5 -66.5t66.5 -27.5q9 0 9 -9q0 -8 -9 -8q-47 1 -79 33.5 t-32 77.5v248q0 38 -27.5 65t-66.5 28q-8 0 -8 8z" glyph-name="braceleft" horiz-adv-x="308" unicode="{"/><glyph d="M137 750v-920q0 -9 -8 -9q-9 0 -9 9v920q0 8 9 8q8 0 8 -8z" glyph-name="bar" horiz-adv-x="257" unicode="|"/><glyph d="M244 289q0 -8 -8 -8q-39 -1 -66.5 -28t-27.5 -65v-248q0 -45 -32 -77.5t-79 -33.5q-9 0 -9 8q0 9 9 9q39 0 66.5 27.5t27.5 66.5v248q0 33 18.5 61t48.5 41q-30 13 -48.5 40.5t-18.5 61.5v247q0 39 -27.5 66.5t-66.5 27.5q-9 0 -9 8q0 9 9 9q46 0 78.5 -32.5t32.5 -78.5 v-247q0 -39 27.5 -66.5t66.5 -27.5q8 0 8 -9z" glyph-name="braceright" horiz-adv-x="308" unicode="}"/><glyph d="M371 322q0 9 8 9q9 0 9 -9q-1 -37 -27.5 -63.5t-62.5 -26.5q-27 0 -49.5 15t-32.5 39q-8 19 -26.5 31t-39.5 12q-31 0 -51.5 -20.5t-21.5 -51.5q0 -8 -9 -8q-8 0 -8 8q0 37 26.5 63.5t63.5 26.5q27 0 49 -15t33 -39q18 -43 66 -43q30 0 51 20.5t22 51.5z" glyph-name="asciitilde" horiz-adv-x="448" unicode="~"/><glyph glyph-name="uni00A0" horiz-adv-x="500" unicode=" "/><glyph d="M60 1l3 579q0 6 6 6t6 -6l2 -579q0 -9 -9 -9q-8 0 -8 9zM54 743q0 6 4.5 10.5t10.5 4.5t10.5 -4.5t4.5 -10.5t-4.5 -10.5t-10.5 -4.5t-10.5 4.5t-4.5 10.5z" glyph-name="exclamdown" horiz-adv-x="137" unicode="¡"/><glyph d="M40 290q0 105 64.5 187.5t164.5 108.5q9 2 11 -7q2 -8 -7 -10q-94 -24 -154.5 -101.5t-60.5 -177.5t60.5 -177.5t154.5 -101.5q9 -2 7 -10q-2 -9 -11 -7q-100 26 -164.5 108.5t-64.5 187.5zM334 1h13q116 0 203 82q6 7 13 0q5 -5 -1 -12q-93 -87 -215 -87h-8v-68 q0 -9 -9 -9q-8 0 -8 9v73q0 12 12 12zM347 579h-13q-12 0 -12 12v73q0 9 8 9q9 0 9 -9v-68h8q122 0 215 -87q6 -7 1 -12q-7 -7 -13 0q-87 82 -203 82z" glyph-name="cent" horiz-adv-x="601" unicode="¢"/><glyph d="M77 367v-350h427q9 0 9 -9q0 -8 -9 -8h-432q-12 0 -12 12v360q0 12 12 12h363q9 0 9 -9q0 -8 -9 -8h-358zM496 540q0 87 -61.5 148.5t-148.5 61.5t-148 -61.5t-61 -148.5v-106q0 -8 -9 -8q-8 0 -8 8v106q0 94 66 160.5t160 66.5t160.5 -66.5t66.5 -160.5q0 -8 -9 -8 q-8 0 -8 8z" glyph-name="sterling" horiz-adv-x="548" unicode="£"/><glyph d="M661 290q0 -124 -85 -212l73 -72q6 -7 1 -12q-7 -7 -13 0l-73 72q-88 -83 -210 -83q-123 0 -211 83l-72 -72q-6 -7 -13 0q-5 5 1 12l73 72q-84 89 -84 212q0 122 82 209l-72 73q-6 7 0 13t12 -1l72 -73q88 85 212 85q122 0 211 -84l73 72q6 7 12 1t0 -13l-72 -72 q83 -90 83 -210zM643 290q0 120 -84.5 204.5t-204.5 84.5q-119 0 -203.5 -84.5t-84.5 -204.5t84.5 -205t203.5 -85q120 0 204.5 85t84.5 205z" glyph-name="currency" horiz-adv-x="709" unicode="¤"/><glyph d="M306 -8q-8 0 -8 9v362q0 5 3 9l281 383q2 3 6 3.5t6 -1.5q7 -5 2 -12l-237 -324h167q8 0 8 -9q0 -8 -8 -8h-180l-31 -43v-360q0 -9 -9 -9zM18 757q2 2 6 1.5t6 -3.5l246 -336q4 -5 1 -10t-10 -5h-180q-8 0 -8 8q0 9 8 9h165l-236 324q-5 7 2 12zM256 329q0 -8 -8 -8h-161 q-8 0 -8 8q0 9 8 9h161q8 0 8 -9zM534 329q0 -8 -8 -8h-161q-8 0 -8 8q0 9 8 9h161q8 0 8 -9z" glyph-name="yen" horiz-adv-x="612" unicode="¥"/><glyph d="M77 341q0 -8 -8 -8q-9 0 -9 8v290q0 8 8 8q9 0 9 -8v-290zM77 -50q0 -8 -8 -8q-9 0 -9 8v289q0 8 8 8q9 0 9 -8v-289z" glyph-name="brokenbar" horiz-adv-x="137" unicode="¦"/><glyph d="M358 175q66 46 66 115q0 68 -48.5 107.5t-129.5 39.5q-88 0 -142 46t-54 119q0 68 57.5 116.5t138.5 48.5q74 0 130 -42t65 -103q2 -8 -7 -10q-8 -2 -10 6q-8 56 -59 94t-119 38q-74 0 -126 -43t-52 -105q0 -66 48.5 -107t129.5 -41q89 0 142.5 -44.5t53.5 -119.5 t-74 -129q-7 -5 -12 2t2 12zM134 405q-66 -46 -66 -115q0 -68 48.5 -107.5t129.5 -39.5q88 0 142 -46t54 -119q0 -68 -57.5 -116.5t-138.5 -48.5q-74 0 -130 42t-65 103q-2 8 7 10q8 2 10 -6q8 -56 59 -94t119 -38q74 0 126 43t52 105q0 66 -48.5 107t-129.5 41 q-89 0 -142.5 44.5t-53.5 119.5t74 129q7 5 12 -2t-2 -12z" glyph-name="section" horiz-adv-x="492" unicode="§"/><glyph d="M41 754q0 -13 -13 -13t-13 13t13 13t13 -13zM181 754q0 -13 -13 -13t-13 13t13 13t13 -13z" glyph-name="dieresis" horiz-adv-x="196" unicode="¨"/><glyph d="M640 290q0 122 -86 207.5t-208 85.5q-121 0 -207 -86t-86 -207q0 -122 86 -208t207 -86q122 0 208 86t86 208zM653 290q0 -128 -89.5 -217.5t-217.5 -89.5q-127 0 -216.5 90t-89.5 217t89.5 216.5t216.5 89.5t217 -89.5t90 -216.5zM347 85q-84 0 -144 60t-60 144t60 144 t144 60q82 0 143 -59q3 -2 3 -7q0 -8 -10 -8q-2 0 -6 2q-53 53 -130 53t-131.5 -54t-54.5 -131t54.5 -131.5t131.5 -54.5q75 0 130 53q3 3 6 3q10 0 10 -9q0 -4 -3 -7q-61 -58 -143 -58z" glyph-name="copyright" unicode="©"/><glyph d="M310 527q2 3 6 1q2 -2 0 -7q-46 -61 -123 -61q-63 0 -108 45t-45 109q0 63 45 108t108 45q50 0 89.5 -28.5t55.5 -74.5v94q0 4 4 4q5 0 5 -4v-289q0 -4 -5 -4q-4 0 -4 4v145q0 60 -42.5 102t-102.5 42q-59 0 -101.5 -42t-42.5 -102t42.5 -102.5t101.5 -42.5q72 0 117 58z " glyph-name="ordfeminine" horiz-adv-x="397" unicode="ª"/><glyph d="M195 433l-143 -143l143 -143q7 -7 0 -13q-6 -5 -12 1l-147 147q-10 8 0 16l147 147q6 6 12 1q7 -6 0 -13zM308 433l-143 -143l143 -143q7 -7 0 -13q-6 -5 -12 1l-147 147q-10 8 0 16l147 147q6 6 12 1q7 -6 0 -13z" glyph-name="guillemotleft" horiz-adv-x="343" unicode="«"/><glyph d="M60 298h313q12 0 12 -12v-82q0 -8 -9 -8q-8 0 -8 8v77h-308q-8 0 -8 8q0 9 8 9z" glyph-name="logicalnot" horiz-adv-x="445" unicode="¬"/><glyph d="M279 648q0 -49 -35 -84.5t-84 -35.5q-50 0 -85 35t-35 85q0 49 35.5 84t84.5 35t84 -35t35 -84zM265 648q0 44 -30.5 74.5t-74.5 30.5t-75 -30.5t-31 -74.5t31 -75t75 -31t74.5 31t30.5 75zM224 678q0 -35 -33 -47l30 -59l-15 -1l-29 58h-58v-57h-14v154h69 q21 0 35.5 -14t14.5 -34zM209 678q0 14 -10 24.5t-25 10.5h-55v-71h55q15 0 25 10t10 26z" glyph-name="registered" horiz-adv-x="319" unicode="®"/><glyph d="M52 741q0 9 8 9h186q9 0 9 -9q0 -8 -9 -8h-186q-8 0 -8 8z" glyph-name="macron" horiz-adv-x="307" unicode="¯"/><glyph d="M237 665q0 35 -25 60t-60 25t-60 -25t-25 -60t25 -60t60 -25t60 25t25 60zM254 665q0 -42 -29.5 -72t-72.5 -30q-42 0 -72 30t-30 72q0 43 30 72.5t72 29.5q43 0 72.5 -29.5t29.5 -72.5z" glyph-name="degree" horiz-adv-x="304" unicode="°"/><glyph d="M348 579v-195h281q8 0 8 -9q0 -8 -8 -8h-281v-195q0 -9 -8 -9q-9 0 -9 9v195h-280q-9 0 -9 8q0 9 9 9h280v195q0 8 9 8q8 0 8 -8zM629 0h-578q-9 0 -9 8q0 9 9 9h578q8 0 8 -9q0 -8 -8 -8z" glyph-name="plusminus" horiz-adv-x="679" unicode="±"/><glyph d="M52 380q0 2 5 7l186 154q42 34 42 89q0 50 -34 84t-84 34q-49 0 -83 -34t-34 -84v-16q0 -5 -5 -5t-5 5v16q0 53 37 90.5t90 37.5t90.5 -37.5t37.5 -90.5q0 -56 -46 -97l-180 -150h215q5 0 5 -5t-5 -5h-225q-7 0 -7 7z" glyph-name="uni00B2" horiz-adv-x="335" unicode="²"/><glyph d="M160 618q0 5 5 5h3q52 0 89.5 -37.5t37.5 -90.5t-37 -90.5t-90 -37.5t-90.5 37.5t-37.5 90.5q0 5 5 5t5 -5q0 -49 34 -83.5t84 -34.5q49 0 83 34.5t34 83.5t-34 83.5t-83 34.5h-3q-5 0 -5 5zM78 587l170 153h-182q-5 0 -5 5t5 5h191q6 0 6 -6q0 -3 -2 -5l-178 -160 q-3 -2 -6 1q-2 4 1 7z" glyph-name="uni00B3" horiz-adv-x="335" unicode="³"/><glyph d="M264 753q0 -12 -13 -14l-160 -31q-6 -2 -6 3q0 3 5 5l152 49q6 2 8 2q14 0 14 -14z" glyph-name="acute" horiz-adv-x="349" unicode="´"/><glyph d="M492 83q7 -5 0 -12q-38 -40 -90.5 -64t-107.5 -24q-77 0 -134.5 38t-82.5 103v-294q0 -9 -9 -9q-8 0 -8 9v748q0 9 9 9q8 0 8 -9v-361q0 -95 61.5 -156t155.5 -61q111 0 186 83q7 7 12 0zM537 1v577q0 9 9 9q8 0 8 -9v-577q0 -9 -8 -9q-9 0 -9 9z" glyph-name="uni00B5" horiz-adv-x="614" unicode="µ"/><glyph d="M298 738q0 12 12 12h147q12 0 12 -12v-738q0 -8 -9 -8q-8 0 -8 8v733h-137v-733q0 -8 -9 -8q-8 0 -8 8v738zM43 563q0 -71 49.5 -121t120.5 -50h35q9 0 9 -9q0 -8 -9 -8h-35q-78 0 -133 55t-55 133q0 77 55 132t133 55h35q9 0 9 -9q0 -8 -9 -8h-35q-70 0 -120 -50 t-50 -120z" glyph-name="paragraph" horiz-adv-x="529" unicode="¶"/><glyph d="M35 290q0 8 6 14t14 6t14 -6t6 -14t-6 -14t-14 -6t-14 6t-6 14z" glyph-name="periodcentered" horiz-adv-x="160" unicode="·"/><glyph d="M110 -93l19 93h13l-15 -74q31 36 82.5 17.5t51.5 -70.5q0 -34 -24 -55.5t-58 -21.5q-32 0 -54.5 20.5t-24.5 51.5q0 7 6 7q7 0 7 -7q2 -25 20.5 -42t45.5 -17q29 0 48.5 18.5t19.5 45.5t-19.5 45t-48.5 18q-32 0 -56 -33q-1 -3 -6 -3q-7 0 -7 7z" glyph-name="cedilla" horiz-adv-x="361" unicode="¸"/><glyph d="M51 719q-3 5 2 7l53 31q2 1 4 1q7 0 7 -6v-372q0 -5 -5 -5t-5 5v366l-50 -29q-4 -2 -6 2z" glyph-name="uni00B9" horiz-adv-x="176" unicode="¹"/><glyph d="M337 614q0 60 -42 102t-102 42q-59 0 -101 -42t-42 -102t42 -102.5t101 -42.5q60 0 102 42.5t42 102.5zM347 614q0 -64 -45 -109t-109 -45q-63 0 -108 45t-45 109q0 63 45 108t108 45q64 0 109 -45t45 -108z" glyph-name="ordmasculine" horiz-adv-x="387" unicode="º"/><glyph d="M291 290l-143 143q-7 7 0 13q6 5 12 -1l147 -147q10 -8 0 -16l-147 -147q-6 -6 -12 -1q-7 6 0 13zM178 290l-143 143q-7 7 0 13q6 5 12 -1l147 -147q10 -8 0 -16l-147 -147q-6 -6 -12 -1q-7 6 0 13z" glyph-name="guillemotright" horiz-adv-x="343" unicode="»"/><glyph d="M51 719q-3 5 2 7l53 31q2 1 4 1q7 0 7 -6v-372q0 -5 -5 -5t-5 5v366l-50 -29q-4 -2 -6 2zM429 752l-315 -757q-2 -5 -6 -3t-2 7l315 755q2 5 6 4zM495 133v230l-192 -256h255q5 0 5 -5q0 -4 -5 -4h-53v-97q0 -5 -5 -5t-5 5v97h-198q-6 0 -6 6q0 3 2 5l199 266q3 4 6 4 q7 0 7 -6v-240q0 -5 -5 -5t-5 5z" glyph-name="onequarter" horiz-adv-x="583" unicode="¼"/><glyph d="M429 752l-315 -757q-2 -5 -6 -3t-2 7l315 755q2 5 6 4zM382 7q0 2 5 7l186 154q42 34 42 89q0 50 -34 84t-84 34q-49 0 -83 -34t-34 -84v-16q0 -5 -5 -5t-5 5v16q0 53 37 90.5t90 37.5t90.5 -37.5t37.5 -90.5q0 -56 -46 -97l-180 -150h215q5 0 5 -5t-5 -5h-225q-7 0 -7 7 zM51 719q-3 5 2 7l53 31q2 1 4 1q7 0 7 -6v-372q0 -5 -5 -5t-5 5v366l-50 -29q-4 -2 -6 2z" glyph-name="onehalf" horiz-adv-x="665" unicode="½"/><glyph d="M600 133v230l-192 -256h255q5 0 5 -5q0 -4 -5 -4h-53v-97q0 -5 -5 -5t-5 5v97h-198q-6 0 -6 6q0 3 2 5l199 266q3 4 6 4q7 0 7 -6v-240q0 -5 -5 -5t-5 5zM534 752l-315 -757q-2 -5 -6 -3t-2 7l315 755q2 5 6 4zM160 618q0 5 5 5h3q52 0 89.5 -37.5t37.5 -90.5t-37 -90.5 t-90 -37.5t-90.5 37.5t-37.5 90.5q0 5 5 5t5 -5q0 -49 34 -83.5t84 -34.5q49 0 83 34.5t34 83.5t-34 83.5t-83 34.5h-3q-5 0 -5 5zM78 587l170 153h-182q-5 0 -5 5t5 5h191q6 0 6 -6q0 -3 -2 -5l-178 -160q-3 -2 -6 1q-2 4 1 7z" glyph-name="threequarters" horiz-adv-x="688" unicode="¾"/><glyph d="M40 239q0 103 72 177.5t176 77.5v96q0 9 8 9q9 0 9 -9v-105q0 -8 -9 -8q-99 0 -168.5 -70t-69.5 -168q0 -100 69.5 -169.5t168.5 -69.5t168.5 69.5t69.5 169.5q0 9 9 9q8 0 8 -9q0 -106 -74.5 -181t-180.5 -75t-181 74.5t-75 181.5zM280 743q0 15 16 15q15 0 15 -15 q0 -6 -4.5 -10.5t-10.5 -4.5q-7 0 -11.5 4.5t-4.5 10.5z" glyph-name="questiondown" horiz-adv-x="591" unicode="¿"/><glyph d="M336 733l-303 -733q-2 -8 -9 -8q-9 0 -9 9q0 2 1 4l308 744q4 9 12 9t12 -9l199 -482q4 -7 -4 -11q-9 -5 -12 4zM160 204q0 9 8 9h394q9 0 12 -10l82 -198q1 -2 1 -4q0 -9 -9 -9q-7 0 -9 8l-82 196h-389q-8 0 -8 8zM251 846q0 14 14 14q2 0 8 -2l152 -49q5 -2 5 -5 q0 -5 -6 -3l-160 31q-13 2 -13 14z" glyph-name="Agrave" horiz-adv-x="672" unicode="À"/><glyph d="M336 733l-303 -733q-2 -8 -9 -8q-9 0 -9 9q0 2 1 4l308 744q4 9 12 9t12 -9l199 -482q4 -7 -4 -11q-9 -5 -12 4zM160 204q0 9 8 9h394q9 0 12 -10l82 -198q1 -2 1 -4q0 -9 -9 -9q-7 0 -9 8l-82 196h-389q-8 0 -8 8zM428 846q0 -12 -13 -14l-160 -31q-6 -2 -6 3q0 3 5 5 l152 49q6 2 8 2q14 0 14 -14z" glyph-name="Aacute" horiz-adv-x="672" unicode="Á"/><glyph d="M336 733l-303 -733q-2 -8 -9 -8q-9 0 -9 9q0 2 1 4l308 744q4 9 12 9t12 -9l199 -482q4 -7 -4 -11q-9 -5 -12 4zM160 204q0 9 8 9h394q9 0 12 -10l82 -198q1 -2 1 -4q0 -9 -9 -9q-7 0 -9 8l-82 196h-389q-8 0 -8 8zM421 802q4 -6 -1 -10q-5 -5 -10 0l-74 89l-74 -89 q-5 -5 -10 0q-5 4 -1 10l76 93q3 5 9 5t9 -5z" glyph-name="Acircumflex" horiz-adv-x="672" unicode="Â"/><glyph d="M336 733l-303 -733q-2 -8 -9 -8q-9 0 -9 9q0 2 1 4l308 744q4 9 12 9t12 -9l199 -482q4 -7 -4 -11q-9 -5 -12 4zM160 204q0 9 8 9h394q9 0 12 -10l82 -198q1 -2 1 -4q0 -9 -9 -9q-7 0 -9 8l-82 196h-389q-8 0 -8 8zM218 804q1 28 20 47t46 19q40 0 59 -37q15 -29 45 -29 q20 0 34.5 14t14.5 35q0 9 8 9q9 0 9 -9q0 -27 -19.5 -46.5t-46.5 -19.5q-40 0 -59 37q-12 28 -45 28q-20 0 -34.5 -14.5t-14.5 -33.5q0 -8 -8 -8q-9 0 -9 8z" glyph-name="Atilde" horiz-adv-x="672" unicode="Ã"/><glyph d="M336 733l-303 -733q-2 -8 -9 -8q-9 0 -9 9q0 2 1 4l308 744q4 9 12 9t12 -9l199 -482q4 -7 -4 -11q-9 -5 -12 4zM160 204q0 9 8 9h394q9 0 12 -10l82 -198q1 -2 1 -4q0 -9 -9 -9q-7 0 -9 8l-82 196h-389q-8 0 -8 8zM280 847q0 -13 -13 -13t-13 13t13 13t13 -13zM420 847 q0 -13 -13 -13t-13 13t13 13t13 -13z" glyph-name="Adieresis" horiz-adv-x="672" unicode="Ä"/><glyph d="M336 733l-303 -733q-2 -8 -9 -8q-9 0 -9 9q0 2 1 4l308 744q4 9 12 9t12 -9l199 -482q4 -7 -4 -11q-9 -5 -12 4zM409 851q0 -31 -21.5 -53t-51.5 -22q-31 0 -53 22t-22 53q0 30 22 51.5t53 21.5q30 0 51.5 -21.5t21.5 -51.5zM160 204q0 9 8 9h394q9 0 12 -10l82 -198 q1 -2 1 -4q0 -9 -9 -9q-7 0 -9 8l-82 196h-389q-8 0 -8 8zM394 851q0 23 -17.5 40.5t-40.5 17.5q-24 0 -41.5 -17.5t-17.5 -40.5q0 -24 17.5 -41.5t41.5 -17.5q23 0 40.5 17.5t17.5 41.5z" glyph-name="Aring" horiz-adv-x="672" unicode="Å"/><glyph d="M568 733l-345 -474q-6 -8 -12 -3q-8 6 -2 13l1 1l345 475q3 5 10 5h531q9 0 9 -9q0 -8 -9 -8h-528zM576 367v-350h520q9 0 9 -9q0 -8 -9 -8h-525q-12 0 -12 12v360q0 12 12 12h456q9 0 9 -9q0 -8 -9 -8h-451zM174 213h334q9 0 9 -9q0 -8 -9 -8h-332l-144 -199 q-5 -8 -12 -4q-8 5 -3 12l147 203q3 5 10 5z" glyph-name="AE" horiz-adv-x="1140" unicode="Æ"/><glyph d="M427 -17q-14 0 -40 2l-12 -59q31 36 82.5 17.5t51.5 -70.5q0 -34 -24 -55.5t-58 -21.5q-32 0 -54.5 20.5t-24.5 51.5q0 7 6 7q7 0 7 -7q2 -25 20.5 -42t45.5 -17q29 0 48.5 18.5t19.5 45.5t-19.5 45t-48.5 18q-32 0 -56 -33q-1 -3 -6 -3q-7 0 -7 7l16 80 q-145 19 -242 129.5t-97 258.5q0 162 114.5 277t277.5 115q161 0 274 -113q3 -3 3 -7q0 -8 -8 -8q-4 0 -6 2q-109 109 -263 109q-155 0 -264.5 -110t-109.5 -265t109.5 -265t264.5 -110q154 0 263 109q2 2 6 2q8 0 8 -8q0 -4 -3 -7q-113 -113 -274 -113z" glyph-name="Ccedilla" horiz-adv-x="739" unicode="Ç"/><glyph d="M246 846q0 14 14 14q2 0 8 -2l152 -49q5 -2 5 -5q0 -5 -6 -3l-160 31q-13 2 -13 14zM77 367v-350h520q9 0 9 -9q0 -8 -9 -8h-525q-12 0 -12 12v360q0 12 12 12h456q9 0 9 -9q0 -8 -9 -8h-451zM60 435v303q0 12 12 12h525q9 0 9 -9q0 -8 -9 -8h-520v-298q0 -9 -9 -9 q-8 0 -8 9z" glyph-name="Egrave" horiz-adv-x="641" unicode="È"/><glyph d="M426 846q0 -12 -13 -14l-160 -31q-6 -2 -6 3q0 3 5 5l152 49q6 2 8 2q14 0 14 -14zM77 367v-350h520q9 0 9 -9q0 -8 -9 -8h-525q-12 0 -12 12v360q0 12 12 12h456q9 0 9 -9q0 -8 -9 -8h-451zM60 435v303q0 12 12 12h525q9 0 9 -9q0 -8 -9 -8h-520v-298q0 -9 -9 -9 q-8 0 -8 9z" glyph-name="Eacute" horiz-adv-x="641" unicode="É"/><glyph d="M419 802q4 -6 -1 -10q-5 -5 -10 0l-74 89l-74 -89q-5 -5 -10 0q-5 4 -1 10l76 93q3 5 9 5t9 -5zM77 367v-350h520q9 0 9 -9q0 -8 -9 -8h-525q-12 0 -12 12v360q0 12 12 12h456q9 0 9 -9q0 -8 -9 -8h-451zM60 435v303q0 12 12 12h525q9 0 9 -9q0 -8 -9 -8h-520v-298 q0 -9 -9 -9q-8 0 -8 9z" glyph-name="Ecircumflex" horiz-adv-x="641" unicode="Ê"/><glyph d="M275 847q0 -13 -13 -13t-13 13t13 13t13 -13zM415 847q0 -13 -13 -13t-13 13t13 13t13 -13zM77 367v-350h520q9 0 9 -9q0 -8 -9 -8h-525q-12 0 -12 12v360q0 12 12 12h456q9 0 9 -9q0 -8 -9 -8h-451zM60 435v303q0 12 12 12h525q9 0 9 -9q0 -8 -9 -8h-520v-298 q0 -9 -9 -9q-8 0 -8 9z" glyph-name="Edieresis" horiz-adv-x="641" unicode="Ë"/><glyph d="M77 749v-748q0 -9 -9 -9q-8 0 -8 9v748q0 9 8 9q9 0 9 -9zM-21 846q0 14 14 14q2 0 8 -2l152 -49q5 -2 5 -5q0 -5 -6 -3l-160 31q-13 2 -13 14z" glyph-name="Igrave" horiz-adv-x="137" unicode="Ì"/><glyph d="M77 749v-748q0 -9 -9 -9q-8 0 -8 9v748q0 9 8 9q9 0 9 -9zM158 846q0 -12 -13 -14l-160 -31q-6 -2 -6 3q0 3 5 5l152 49q6 2 8 2q14 0 14 -14z" glyph-name="Iacute" horiz-adv-x="137" unicode="Í"/><glyph d="M77 749v-748q0 -9 -9 -9q-8 0 -8 9v748q0 9 8 9q9 0 9 -9zM154 802q4 -6 -1 -10q-5 -5 -10 0l-74 89l-74 -89q-5 -5 -10 0q-5 4 -1 10l76 93q3 5 9 5t9 -5z" glyph-name="Icircumflex" horiz-adv-x="137" unicode="Î"/><glyph d="M14 847q0 -13 -13 -13t-13 13t13 13t13 -13zM154 847q0 -13 -13 -13t-13 13t13 13t13 -13zM77 749v-748q0 -9 -9 -9q-8 0 -8 9v748q0 9 8 9q9 0 9 -9z" glyph-name="Idieresis" horiz-adv-x="142" unicode="Ï"/><glyph d="M87 426q-8 0 -8 9v303q0 12 12 12h244q155 0 265 -110t110 -265t-110 -265t-265 -110h-244q-12 0 -12 12v304q0 9 8 9q9 0 9 -9v-299h239q148 0 252.5 105t104.5 253t-104.5 253t-252.5 105h-239v-298q0 -9 -9 -9zM259 367h-238q-9 0 -9 8q0 9 9 9h238q8 0 8 -9 q0 -8 -8 -8z" glyph-name="Eth" horiz-adv-x="745" unicode="Ð"/><glyph d="M605 749q0 9 9 9q8 0 8 -9v-745q0 -12 -12 -12q-7 0 -10 5l-523 734v-730q0 -9 -9 -9q-8 0 -8 9v745q0 12 12 12q7 0 10 -5l523 -734v730zM223 804q1 28 20 47t46 19q40 0 59 -37q15 -29 45 -29q20 0 34.5 14t14.5 35q0 9 8 9q9 0 9 -9q0 -27 -19.5 -46.5t-46.5 -19.5 q-40 0 -59 37q-12 28 -45 28q-20 0 -34.5 -14.5t-14.5 -33.5q0 -8 -8 -8q-9 0 -9 8z" glyph-name="Ntilde" horiz-adv-x="682" unicode="Ñ"/><glyph d="M819 375q0 -162 -115 -277t-277 -115q-163 0 -277.5 115t-114.5 277q0 152 104 266q119 126 288 126q162 0 277 -115t115 -277zM802 375q0 155 -110 265t-265 110t-265 -110t-110 -265t110 -265t265 -110t265 110t110 265zM337 846q0 14 14 14q2 0 8 -2l152 -49 q5 -2 5 -5q0 -5 -6 -3l-160 31q-13 2 -13 14z" glyph-name="Ograve" horiz-adv-x="854" unicode="Ò"/><glyph d="M819 375q0 -162 -115 -277t-277 -115q-163 0 -277.5 115t-114.5 277q0 152 104 266q119 126 288 126q162 0 277 -115t115 -277zM802 375q0 155 -110 265t-265 110t-265 -110t-110 -265t110 -265t265 -110t265 110t110 265zM516 846q0 -12 -13 -14l-160 -31q-6 -2 -6 3 q0 3 5 5l152 49q6 2 8 2q14 0 14 -14z" glyph-name="Oacute" horiz-adv-x="854" unicode="Ó"/><glyph d="M819 375q0 -162 -115 -277t-277 -115q-163 0 -277.5 115t-114.5 277q0 152 104 266q119 126 288 126q162 0 277 -115t115 -277zM802 375q0 155 -110 265t-265 110t-265 -110t-110 -265t110 -265t265 -110t265 110t110 265zM512 802q4 -6 -1 -10q-5 -5 -10 0l-74 89 l-74 -89q-5 -5 -10 0q-5 4 -1 10l76 93q3 5 9 5t9 -5z" glyph-name="Ocircumflex" horiz-adv-x="854" unicode="Ô"/><glyph d="M819 375q0 -162 -115 -277t-277 -115q-163 0 -277.5 115t-114.5 277q0 152 104 266q119 126 288 126q162 0 277 -115t115 -277zM802 375q0 155 -110 265t-265 110t-265 -110t-110 -265t110 -265t265 -110t265 110t110 265zM309 814q1 28 20 47t46 19q40 0 59 -37 q15 -29 45 -29q20 0 34.5 14t14.5 35q0 9 8 9q9 0 9 -9q0 -27 -19.5 -46.5t-46.5 -19.5q-40 0 -59 37q-12 28 -45 28q-20 0 -34.5 -14.5t-14.5 -33.5q0 -8 -8 -8q-9 0 -9 8z" glyph-name="Otilde" horiz-adv-x="854" unicode="Õ"/><glyph d="M819 375q0 -162 -115 -277t-277 -115q-163 0 -277.5 115t-114.5 277q0 152 104 266q119 126 288 126q162 0 277 -115t115 -277zM802 375q0 155 -110 265t-265 110t-265 -110t-110 -265t110 -265t265 -110t265 110t110 265zM370 847q0 -13 -13 -13t-13 13t13 13t13 -13z M510 847q0 -13 -13 -13t-13 13t13 13t13 -13z" glyph-name="Odieresis" horiz-adv-x="854" unicode="Ö"/><glyph d="M36 7l282 283l-282 282q-6 6 -1 12q7 7 13 0l282 -282l282 282q7 7 13 0q6 -6 -1 -12l-282 -282l283 -282q7 -7 0 -13q-6 -6 -12 1l-283 282l-282 -283q-6 -7 -12 -1q-7 7 0 13z" glyph-name="multiply" horiz-adv-x="660" unicode="×"/><glyph d="M115 143q-75 102 -75 232q0 153 105 266q118 126 287 126q127 0 231 -77q7 -5 2 -12t-12 -2q-105 74 -221 74q-155 0 -264.5 -110t-109.5 -265q0 -127 71 -222q5 -7 -2 -12q-7 -6 -12 2zM813 743l-750 -749q-6 -7 -13 0q-6 6 1 12l750 749q6 7 12 1q7 -6 0 -13zM749 607 q75 -102 75 -232q0 -153 -105 -266q-118 -126 -287 -126q-127 0 -231 77q-7 5 -2 12t12 2q105 -74 221 -74q155 0 264.5 110t109.5 265q0 127 -71 222q-5 7 2 12q7 6 12 -2z" glyph-name="Oslash" horiz-adv-x="864" unicode="Ø"/><glyph d="M77 749v-476q0 -113 80 -193t193 -80t192.5 80t79.5 193v476q0 9 8 9q9 0 9 -9v-476q0 -120 -84.5 -205t-204.5 -85t-205 85t-85 205v476q0 9 8 9q9 0 9 -9zM260 846q0 14 14 14q2 0 8 -2l152 -49q5 -2 5 -5q0 -5 -6 -3l-160 31q-13 2 -13 14z" glyph-name="Ugrave" horiz-adv-x="699" unicode="Ù"/><glyph d="M77 749v-476q0 -113 80 -193t193 -80t192.5 80t79.5 193v476q0 9 8 9q9 0 9 -9v-476q0 -120 -84.5 -205t-204.5 -85t-205 85t-85 205v476q0 9 8 9q9 0 9 -9zM439 846q0 -12 -13 -14l-160 -31q-6 -2 -6 3q0 3 5 5l152 49q6 2 8 2q14 0 14 -14z" glyph-name="Uacute" horiz-adv-x="699" unicode="Ú"/><glyph d="M77 749v-476q0 -113 80 -193t193 -80t192.5 80t79.5 193v476q0 9 8 9q9 0 9 -9v-476q0 -120 -84.5 -205t-204.5 -85t-205 85t-85 205v476q0 9 8 9q9 0 9 -9zM435 802q4 -6 -1 -10q-5 -5 -10 0l-74 89l-74 -89q-5 -5 -10 0q-5 4 -1 10l76 93q3 5 9 5t9 -5z" glyph-name="Ucircumflex" horiz-adv-x="699" unicode="Û"/><glyph d="M293 847q0 -13 -13 -13t-13 13t13 13t13 -13zM433 847q0 -13 -13 -13t-13 13t13 13t13 -13zM77 749v-476q0 -113 80 -193t193 -80t192.5 80t79.5 193v476q0 9 8 9q9 0 9 -9v-476q0 -120 -84.5 -205t-204.5 -85t-205 85t-85 205v476q0 9 8 9q9 0 9 -9z" glyph-name="Udieresis" horiz-adv-x="699" unicode="Ü"/><glyph d="M395 846q0 -12 -13 -14l-160 -31q-6 -2 -6 3q0 3 5 5l152 49q6 2 8 2q14 0 14 -14zM306 -8q-8 0 -8 9v362q0 5 3 9l281 383q2 3 6 3.5t6 -1.5q7 -5 2 -12l-281 -384v-360q0 -9 -9 -9zM18 757q2 2 6 1.5t6 -3.5l246 -337q5 -6 -1 -12q-7 -6 -13 2l-246 337q-5 7 2 12z" glyph-name="Yacute" horiz-adv-x="612" unicode="Ý"/><glyph d="M119 264q0 9 8 9h286q77 0 130 53.5t53 130.5q0 76 -53 129.5t-130 53.5h-286q-8 0 -8 8q0 9 8 9h286q83 0 142 -58.5t59 -141.5t-59 -142t-142 -59h-286q-8 0 -8 8zM77 749v-748q0 -9 -9 -9q-8 0 -8 9v748q0 9 8 9q9 0 9 -9z" glyph-name="Thorn" horiz-adv-x="650" unicode="Þ"/><glyph d="M496 209q0 -87 -61.5 -148t-148.5 -61h-159q-8 0 -8 8q0 9 8 9h159q80 0 136 56.5t56 135.5t-56 135.5t-136 56.5h-159q-8 0 -8 9q0 8 8 8h159q87 0 148.5 -61t61.5 -148zM359 464q50 48 50 119q0 70 -48 118.5t-117 48.5t-118 -48.5t-49 -118.5v-754q0 -8 -9 -8 q-8 0 -8 8v754q0 77 54 130.5t130 53.5t129.5 -53.5t53.5 -130.5q0 -75 -56 -131q-5 -6 -12 1q-5 5 0 11z" glyph-name="germandbls" horiz-adv-x="536" unicode="ß"/><glyph d="M258 753q0 14 14 14q2 0 8 -2l152 -49q5 -2 5 -5q0 -5 -6 -3l-160 31q-13 2 -13 14zM579 117q6 7 12 1t0 -13q-43 -57 -107 -89.5t-138 -32.5q-127 0 -216.5 90t-89.5 217t89.5 216.5t216.5 89.5q100 0 179 -57t111 -148v187q0 9 8 9q9 0 9 -9v-577q0 -9 -9 -9q-8 0 -8 9 v289q0 120 -85 204.5t-205 84.5q-119 0 -203.5 -84.5t-84.5 -204.5t84.5 -205t203.5 -85q70 0 131.5 31.5t101.5 85.5z" glyph-name="agrave" horiz-adv-x="713" unicode="à"/><glyph d="M437 753q0 -12 -13 -14l-160 -31q-6 -2 -6 3q0 3 5 5l152 49q6 2 8 2q14 0 14 -14zM579 117q6 7 12 1t0 -13q-43 -57 -107 -89.5t-138 -32.5q-127 0 -216.5 90t-89.5 217t89.5 216.5t216.5 89.5q100 0 179 -57t111 -148v187q0 9 8 9q9 0 9 -9v-577q0 -9 -9 -9q-8 0 -8 9 v289q0 120 -85 204.5t-205 84.5q-119 0 -203.5 -84.5t-84.5 -204.5t84.5 -205t203.5 -85q70 0 131.5 31.5t101.5 85.5z" glyph-name="aacute" horiz-adv-x="713" unicode="á"/><glyph d="M431 692q4 -6 -1 -10q-5 -5 -10 0l-74 89l-74 -89q-5 -5 -10 0q-5 4 -1 10l76 93q3 5 9 5t9 -5zM579 117q6 7 12 1t0 -13q-43 -57 -107 -89.5t-138 -32.5q-127 0 -216.5 90t-89.5 217t89.5 216.5t216.5 89.5q100 0 179 -57t111 -148v187q0 9 8 9q9 0 9 -9v-577 q0 -9 -9 -9q-8 0 -8 9v289q0 120 -85 204.5t-205 84.5q-119 0 -203.5 -84.5t-84.5 -204.5t84.5 -205t203.5 -85q70 0 131.5 31.5t101.5 85.5z" glyph-name="acircumflex" horiz-adv-x="713" unicode="â"/><glyph d="M228 701q1 28 20 47t46 19q40 0 59 -37q15 -29 45 -29q20 0 34.5 14t14.5 35q0 9 8 9q9 0 9 -9q0 -27 -19.5 -46.5t-46.5 -19.5q-40 0 -59 37q-12 28 -45 28q-20 0 -34.5 -14.5t-14.5 -33.5q0 -8 -8 -8q-9 0 -9 8zM579 117q6 7 12 1t0 -13q-43 -57 -107 -89.5t-138 -32.5 q-127 0 -216.5 90t-89.5 217t89.5 216.5t216.5 89.5q100 0 179 -57t111 -148v187q0 9 8 9q9 0 9 -9v-577q0 -9 -9 -9q-8 0 -8 9v289q0 120 -85 204.5t-205 84.5q-119 0 -203.5 -84.5t-84.5 -204.5t84.5 -205t203.5 -85q70 0 131.5 31.5t101.5 85.5z" glyph-name="atilde" horiz-adv-x="713" unicode="ã"/><glyph d="M289 754q0 -13 -13 -13t-13 13t13 13t13 -13zM429 754q0 -13 -13 -13t-13 13t13 13t13 -13zM579 117q6 7 12 1t0 -13q-43 -57 -107 -89.5t-138 -32.5q-127 0 -216.5 90t-89.5 217t89.5 216.5t216.5 89.5q100 0 179 -57t111 -148v187q0 9 8 9q9 0 9 -9v-577q0 -9 -9 -9 q-8 0 -8 9v289q0 120 -85 204.5t-205 84.5q-119 0 -203.5 -84.5t-84.5 -204.5t84.5 -205t203.5 -85q70 0 131.5 31.5t101.5 85.5z" glyph-name="adieresis" horiz-adv-x="713" unicode="ä"/><glyph d="M405 727q0 23 -17 40.5t-40 17.5q-24 0 -41.5 -17.5t-17.5 -40.5q0 -24 17 -41.5t42 -17.5q23 0 40 17.5t17 41.5zM421 727q0 -31 -22 -53t-51 -22q-31 0 -53 22t-22 53q0 30 22 51.5t53 21.5q29 0 51 -21.5t22 -51.5zM579 117q6 7 12 1t0 -13q-43 -57 -107 -89.5 t-138 -32.5q-127 0 -216.5 90t-89.5 217t89.5 216.5t216.5 89.5q100 0 179 -57t111 -148v187q0 9 8 9q9 0 9 -9v-577q0 -9 -9 -9q-8 0 -8 9v289q0 120 -85 204.5t-205 84.5q-119 0 -203.5 -84.5t-84.5 -204.5t84.5 -205t203.5 -85q70 0 131.5 31.5t101.5 85.5z" glyph-name="aring" horiz-adv-x="713" unicode="å"/><glyph d="M654 290q0 -122 85 -206t204 -84q80 0 147 40.5t104 108.5q5 8 12 4q8 -5 4 -12q-41 -72 -111.5 -115t-155.5 -43q-99 0 -178.5 57.5t-111.5 148.5v-188q0 -9 -9 -9q-8 0 -8 9v289q0 120 -85 204.5t-205 84.5q-119 0 -203.5 -84.5t-84.5 -204.5t84.5 -205t203.5 -85 q70 0 131.5 31.5t101.5 85.5q6 7 12 1t0 -13q-43 -57 -107 -89.5t-138 -32.5q-127 0 -216.5 90t-89.5 217t89.5 216.5t216.5 89.5q100 0 179 -57t111 -148v187q0 9 8 9q9 0 9 -9v-187q32 91 111.5 148t178.5 57q125 0 215 -88.5t91 -213.5q0 -13 -12 -13h-532q-9 0 -9 8 q0 9 9 9h527q-4 118 -88 199.5t-201 81.5q-119 0 -204 -83.5t-85 -205.5z" glyph-name="ae" horiz-adv-x="1289" unicode="æ"/><glyph d="M562 71q-94 -88 -215 -88q-1 0 -40 3l-12 -60q31 36 82.5 17.5t51.5 -70.5q0 -34 -24 -55.5t-58 -21.5q-32 0 -54.5 20.5t-24.5 51.5q0 7 6 7q7 0 7 -7q2 -25 20.5 -42t45.5 -17q29 0 48.5 18.5t19.5 45.5t-19.5 45t-48.5 18q-32 0 -56 -33q-1 -3 -6 -3q-7 0 -7 7l16 81 q-109 18 -181.5 103.5t-72.5 198.5q0 127 90 216.5t217 89.5q122 0 215 -87q6 -7 1 -12q-7 -7 -13 0q-87 82 -203 82q-120 0 -204.5 -84.5t-84.5 -204.5t84.5 -205t204.5 -85q115 0 203 83q6 7 13 0q5 -5 -1 -12z" glyph-name="ccedilla" horiz-adv-x="602" unicode="ç"/><glyph d="M254 753q0 14 14 14q2 0 8 -2l152 -49q5 -2 5 -5q0 -5 -6 -3l-160 31q-13 2 -13 14zM58 290q0 -122 85 -206t204 -84q80 0 147 40.5t104 108.5q5 8 12 4q8 -5 4 -12q-41 -72 -111.5 -115t-155.5 -43q-127 0 -217 90t-90 217t90 216.5t217 89.5q125 0 215 -88.5t91 -213.5 q0 -13 -12 -13h-532q-9 0 -9 8q0 9 9 9h527q-4 118 -88 199.5t-201 81.5q-119 0 -204 -83.5t-85 -205.5z" glyph-name="egrave" unicode="è"/><glyph d="M433 753q0 -12 -13 -14l-160 -31q-6 -2 -6 3q0 3 5 5l152 49q6 2 8 2q14 0 14 -14zM58 290q0 -122 85 -206t204 -84q80 0 147 40.5t104 108.5q5 8 12 4q8 -5 4 -12q-41 -72 -111.5 -115t-155.5 -43q-127 0 -217 90t-90 217t90 216.5t217 89.5q125 0 215 -88.5t91 -213.5 q0 -13 -12 -13h-532q-9 0 -9 8q0 9 9 9h527q-4 118 -88 199.5t-201 81.5q-119 0 -204 -83.5t-85 -205.5z" glyph-name="eacute" unicode="é"/><glyph d="M432 692q4 -6 -1 -10q-5 -5 -10 0l-74 89l-74 -89q-5 -5 -10 0q-5 4 -1 10l76 93q3 5 9 5t9 -5zM58 290q0 -122 85 -206t204 -84q80 0 147 40.5t104 108.5q5 8 12 4q8 -5 4 -12q-41 -72 -111.5 -115t-155.5 -43q-127 0 -217 90t-90 217t90 216.5t217 89.5 q125 0 215 -88.5t91 -213.5q0 -13 -12 -13h-532q-9 0 -9 8q0 9 9 9h527q-4 118 -88 199.5t-201 81.5q-119 0 -204 -83.5t-85 -205.5z" glyph-name="ecircumflex" unicode="ê"/><glyph d="M290 754q0 -13 -13 -13t-13 13t13 13t13 -13zM430 754q0 -13 -13 -13t-13 13t13 13t13 -13zM58 290q0 -122 85 -206t204 -84q80 0 147 40.5t104 108.5q5 8 12 4q8 -5 4 -12q-41 -72 -111.5 -115t-155.5 -43q-127 0 -217 90t-90 217t90 216.5t217 89.5q125 0 215 -88.5 t91 -213.5q0 -13 -12 -13h-532q-9 0 -9 8q0 9 9 9h527q-4 118 -88 199.5t-201 81.5q-119 0 -204 -83.5t-85 -205.5z" glyph-name="edieresis" unicode="ë"/><glyph d="M77 578v-577q0 -9 -9 -9q-8 0 -8 9v577q0 9 8 9q9 0 9 -9zM-21 753q0 14 14 14q2 0 8 -2l152 -49q5 -2 5 -5q0 -5 -6 -3l-160 31q-13 2 -13 14z" glyph-name="igrave" horiz-adv-x="137" unicode="ì"/><glyph d="M77 578v-577q0 -9 -9 -9q-8 0 -8 9v577q0 9 8 9q9 0 9 -9zM158 753q0 -12 -13 -14l-160 -31q-6 -2 -6 3q0 3 5 5l152 49q6 2 8 2q14 0 14 -14z" glyph-name="iacute" horiz-adv-x="137" unicode="í"/><glyph d="M77 578v-577q0 -9 -9 -9q-8 0 -8 9v577q0 9 8 9q9 0 9 -9zM153 692q4 -6 -1 -10q-5 -5 -10 0l-74 89l-74 -89q-5 -5 -10 0q-5 4 -1 10l76 93q3 5 9 5t9 -5z" glyph-name="icircumflex" horiz-adv-x="136" unicode="î"/><glyph d="M11 754q0 -13 -13 -13t-13 13t13 13t13 -13zM151 754q0 -13 -13 -13t-13 13t13 13t13 -13zM77 578v-577q0 -9 -9 -9q-8 0 -8 9v577q0 9 8 9q9 0 9 -9z" glyph-name="idieresis" horiz-adv-x="136" unicode="ï"/><glyph d="M333 684l-60 60q-6 6 1 12t13 -2l65 -65l102 29q9 3 11 -5q3 -9 -6 -11l-93 -26l184 -185q86 -84 86 -210q0 -124 -87 -211t-211 -87t-211 87t-87 211q0 123 87 210.5t211 87.5q20 0 41 -3q8 -1 8 -10q-1 -7 -10 -7q-21 3 -39 3q-116 0 -198 -82.5t-82 -198.5t82 -199 t198 -83t198 83t82 199q0 118 -80 198l-190 191l-104 -29q-9 -2 -11 5q-3 7 6 11z" glyph-name="eth" horiz-adv-x="676" unicode="ð"/><glyph d="M202 701q1 28 20 47t46 19q40 0 59 -37q15 -29 45 -29q20 0 34.5 14t14.5 35q0 9 8 9q9 0 9 -9q0 -27 -19.5 -46.5t-46.5 -19.5q-40 0 -59 37q-12 28 -45 28q-20 0 -34.5 -14.5t-14.5 -33.5q0 -8 -8 -8q-9 0 -9 8zM122 496q-7 5 0 12q38 40 90.5 64t107.5 24 q102 0 168 -66t66 -168v-361q0 -9 -9 -9q-8 0 -8 9v361q0 94 -61.5 155.5t-155.5 61.5q-111 0 -186 -83q-7 -7 -12 0zM77 578v-577q0 -9 -9 -9q-8 0 -8 9v577q0 9 8 9q9 0 9 -9z" glyph-name="ntilde" horiz-adv-x="614" unicode="ñ"/><glyph d="M635 290q0 120 -84.5 204.5t-204.5 84.5q-119 0 -203.5 -84.5t-84.5 -204.5t84.5 -205t203.5 -85q120 0 204.5 85t84.5 205zM653 290q0 -128 -89.5 -217.5t-217.5 -89.5q-127 0 -216.5 90t-89.5 217t89.5 216.5t216.5 89.5t217 -89.5t90 -216.5zM257 753q0 14 14 14 q2 0 8 -2l152 -49q5 -2 5 -5q0 -5 -6 -3l-160 31q-13 2 -13 14z" glyph-name="ograve" unicode="ò"/><glyph d="M635 290q0 120 -84.5 204.5t-204.5 84.5q-119 0 -203.5 -84.5t-84.5 -204.5t84.5 -205t203.5 -85q120 0 204.5 85t84.5 205zM653 290q0 -128 -89.5 -217.5t-217.5 -89.5q-127 0 -216.5 90t-89.5 217t89.5 216.5t216.5 89.5t217 -89.5t90 -216.5zM436 753q0 -12 -13 -14 l-160 -31q-6 -2 -6 3q0 3 5 5l152 49q6 2 8 2q14 0 14 -14z" glyph-name="oacute" unicode="ó"/><glyph d="M653 290q0 -128 -89.5 -217.5t-217.5 -89.5q-127 0 -216.5 90t-89.5 217t89.5 216.5t216.5 89.5t217 -89.5t90 -216.5zM635 290q0 120 -84.5 204.5t-204.5 84.5q-119 0 -203.5 -84.5t-84.5 -204.5t84.5 -205t203.5 -85q120 0 204.5 85t84.5 205zM431 692q4 -6 -1 -10 q-5 -5 -10 0l-74 89l-74 -89q-5 -5 -10 0q-5 4 -1 10l76 93q3 5 9 5t9 -5z" glyph-name="ocircumflex" unicode="ô"/><glyph d="M635 290q0 120 -84.5 204.5t-204.5 84.5q-119 0 -203.5 -84.5t-84.5 -204.5t84.5 -205t203.5 -85q120 0 204.5 85t84.5 205zM653 290q0 -128 -89.5 -217.5t-217.5 -89.5q-127 0 -216.5 90t-89.5 217t89.5 216.5t216.5 89.5t217 -89.5t90 -216.5zM228 701q1 28 20 47 t46 19q40 0 59 -37q15 -29 45 -29q20 0 34.5 14t14.5 35q0 9 8 9q9 0 9 -9q0 -27 -19.5 -46.5t-46.5 -19.5q-40 0 -59 37q-12 28 -45 28q-20 0 -34.5 -14.5t-14.5 -33.5q0 -8 -8 -8q-9 0 -9 8z" glyph-name="otilde" unicode="õ"/><glyph d="M635 290q0 120 -84.5 204.5t-204.5 84.5q-119 0 -203.5 -84.5t-84.5 -204.5t84.5 -205t203.5 -85q120 0 204.5 85t84.5 205zM653 290q0 -128 -89.5 -217.5t-217.5 -89.5q-127 0 -216.5 90t-89.5 217t89.5 216.5t216.5 89.5t217 -89.5t90 -216.5zM289 754q0 -13 -13 -13 t-13 13t13 13t13 -13zM429 754q0 -13 -13 -13t-13 13t13 13t13 -13z" glyph-name="odieresis" unicode="ö"/><glyph d="M355 7q0 -6 -4.5 -10.5t-10.5 -4.5q-7 0 -11.5 4.5t-4.5 10.5q0 16 16 16q6 0 10.5 -4.5t4.5 -11.5zM324 571q0 6 4.5 11t11.5 5q6 0 10.5 -5t4.5 -11t-4.5 -11t-10.5 -5q-7 0 -11.5 5t-4.5 11zM629 281h-578q-9 0 -9 8q0 9 9 9h578q8 0 8 -9q0 -8 -8 -8z" glyph-name="divide" horiz-adv-x="679" unicode="÷"/><glyph d="M95 119q-51 76 -51 171q0 127 89.5 216.5t216.5 89.5q94 0 173 -53q7 -5 2 -12t-12 -2q-75 50 -163 50q-119 0 -203.5 -84.5t-84.5 -204.5q0 -87 47 -161q4 -7 -2 -12q-7 -5 -12 2zM646 572l-579 -578q-6 -7 -13 0q-5 5 1 12l579 578q6 7 12 1t0 -13zM606 469 q51 -76 51 -171q0 -127 -89.5 -216.5t-216.5 -89.5q-94 0 -173 53q-7 5 -2 12t12 2q75 -50 163 -50q119 0 203.5 84.5t84.5 204.5q0 87 -47 161q-4 7 2 12q7 5 12 -2z" glyph-name="oslash" horiz-adv-x="701" unicode="ø"/><glyph d="M218 753q0 14 14 14q2 0 8 -2l152 -49q5 -2 5 -5q0 -5 -6 -3l-160 31q-13 2 -13 14zM492 83q7 -5 0 -12q-38 -40 -90.5 -64t-107.5 -24q-102 0 -168 66t-66 168v361q0 9 9 9q8 0 8 -9v-361q0 -95 61.5 -156t155.5 -61q111 0 186 83q7 7 12 0zM537 1v577q0 9 9 9q8 0 8 -9 v-577q0 -9 -8 -9q-9 0 -9 9z" glyph-name="ugrave" horiz-adv-x="614" unicode="ù"/><glyph d="M397 753q0 -12 -13 -14l-160 -31q-6 -2 -6 3q0 3 5 5l152 49q6 2 8 2q14 0 14 -14zM492 83q7 -5 0 -12q-38 -40 -90.5 -64t-107.5 -24q-102 0 -168 66t-66 168v361q0 9 9 9q8 0 8 -9v-361q0 -95 61.5 -156t155.5 -61q111 0 186 83q7 7 12 0zM537 1v577q0 9 9 9q8 0 8 -9 v-577q0 -9 -8 -9q-9 0 -9 9z" glyph-name="uacute" horiz-adv-x="614" unicode="ú"/><glyph d="M393 692q4 -6 -1 -10q-5 -5 -10 0l-74 89l-74 -89q-5 -5 -10 0q-5 4 -1 10l76 93q3 5 9 5t9 -5zM492 83q7 -5 0 -12q-38 -40 -90.5 -64t-107.5 -24q-102 0 -168 66t-66 168v361q0 9 9 9q8 0 8 -9v-361q0 -95 61.5 -156t155.5 -61q111 0 186 83q7 7 12 0zM537 1v577 q0 9 9 9q8 0 8 -9v-577q0 -9 -8 -9q-9 0 -9 9z" glyph-name="ucircumflex" horiz-adv-x="614" unicode="û"/><glyph d="M250 754q0 -13 -13 -13t-13 13t13 13t13 -13zM390 754q0 -13 -13 -13t-13 13t13 13t13 -13zM492 83q7 -5 0 -12q-38 -40 -90.5 -64t-107.5 -24q-102 0 -168 66t-66 168v361q0 9 9 9q8 0 8 -9v-361q0 -95 61.5 -156t155.5 -61q111 0 186 83q7 7 12 0zM537 1v577q0 9 9 9 q8 0 8 -9v-577q0 -9 -8 -9q-9 0 -9 9z" glyph-name="udieresis" horiz-adv-x="614" unicode="ü"/><glyph d="M366 753q0 -12 -13 -14l-160 -31q-6 -2 -6 3q0 3 5 5l152 49q6 2 8 2q14 0 14 -14zM209 -173q-3 -8 -11 -6q-8 3 -5 12l338 748q3 8 11 6q8 -3 5 -12zM16 587q8 2 11 -6l225 -511q4 -9 -3 -12q-8 -5 -12 4l-226 513q-3 9 5 12z" glyph-name="yacute" horiz-adv-x="558" unicode="ý"/><glyph d="M134 462q-6 -7 -12 -1t0 13q43 57 107 89.5t138 32.5q127 0 217 -90t90 -217t-90 -216.5t-217 -89.5q-100 0 -179 57t-111 148v-358q0 -9 -8 -9q-9 0 -9 9v919q0 9 9 9q8 0 8 -9v-460q0 -120 85 -204.5t205 -84.5q119 0 204 84.5t85 204.5t-85 205t-204 85 q-70 0 -131.5 -31.5t-101.5 -85.5z" glyph-name="thorn" horiz-adv-x="714" unicode="þ"/><glyph d="M220 744q0 -13 -14 -13q-13 0 -13 13t13 13q14 0 14 -13zM359 744q0 -13 -13 -13t-13 13t13 13t13 -13zM209 -173q-3 -8 -11 -6q-8 3 -5 12l338 748q3 8 11 6q8 -3 5 -12zM16 587q8 2 11 -6l225 -511q4 -9 -3 -12q-8 -5 -12 4l-226 513q-3 9 5 12z" glyph-name="ydieresis" horiz-adv-x="558" unicode="ÿ"/><glyph d="M336 733l-303 -733q-2 -8 -9 -8q-9 0 -9 9q0 2 1 4l308 744q4 9 12 9t12 -9l199 -482q4 -7 -4 -11q-9 -5 -12 4zM160 204q0 9 8 9h394q9 0 12 -10l82 -198q1 -2 1 -4q0 -9 -9 -9q-7 0 -9 8l-82 196h-389q-8 0 -8 8zM235 815q0 9 8 9h186q9 0 9 -9q0 -8 -9 -8h-186 q-8 0 -8 8z" glyph-name="Amacron" horiz-adv-x="672" unicode="Ā"/><glyph d="M579 117q6 7 12 1t0 -13q-43 -57 -107 -89.5t-138 -32.5q-127 0 -216.5 90t-89.5 217t89.5 216.5t216.5 89.5q100 0 179 -57t111 -148v187q0 9 8 9q9 0 9 -9v-577q0 -9 -9 -9q-8 0 -8 9v289q0 120 -85 204.5t-205 84.5q-119 0 -203.5 -84.5t-84.5 -204.5t84.5 -205 t203.5 -85q70 0 131.5 31.5t101.5 85.5zM245 741q0 9 8 9h186q9 0 9 -9q0 -8 -9 -8h-186q-8 0 -8 8z" glyph-name="amacron" horiz-adv-x="713" unicode="ā"/><glyph d="M336 733l-303 -733q-2 -8 -9 -8q-9 0 -9 9q0 2 1 4l308 744q4 9 12 9t12 -9l199 -482q4 -7 -4 -11q-9 -5 -12 4zM610 11q8 0 26 -5l-79 190h-389q-8 0 -8 8q0 9 8 9h394q9 0 12 -10l82 -198q1 -2 1 -4q0 -9 -9 -9h-2l-2 1q-15 7 -34 7q-35 0 -60 -25t-25 -60t25 -60.5 t60 -25.5q20 0 46 14q9 4 11 -5q2 -7 -5 -11q-22 -15 -52 -15q-43 0 -73 30t-30 73q0 42 30 69t73 27z" glyph-name="Aogonek" horiz-adv-x="672" unicode="Ą"/><glyph d="M579 117q6 7 12 1t0 -13q-43 -57 -107 -89.5t-138 -32.5q-127 0 -216.5 90t-89.5 217t89.5 216.5t216.5 89.5q100 0 179 -57t111 -148v187q0 9 8 9q9 0 9 -9v-577q0 -9 -9 -9q-36 0 -60.5 -23t-24.5 -58t24.5 -58.5t60.5 -23.5q20 0 46 14q9 4 11 -5q2 -7 -5 -11 q-22 -15 -52 -15q-43 0 -73 28.5t-30 70.5q0 40 26.5 64.5t68.5 26.5v288q0 120 -85 204.5t-205 84.5q-119 0 -203.5 -84.5t-84.5 -204.5t84.5 -205t203.5 -85q70 0 131.5 31.5t101.5 85.5z" glyph-name="aogonek" horiz-adv-x="713" unicode="ą"/><glyph d="M427 -17q-163 0 -277.5 115t-114.5 277t114.5 277t277.5 115q161 0 274 -113q3 -3 3 -7q0 -8 -8 -8q-4 0 -6 2q-109 109 -263 109q-155 0 -264.5 -110t-109.5 -265t109.5 -265t264.5 -110q154 0 263 109q2 2 6 2q8 0 8 -8q0 -4 -3 -7q-113 -113 -274 -113zM510 846 q0 -12 -13 -14l-160 -31q-6 -2 -6 3q0 3 5 5l152 49q6 2 8 2q14 0 14 -14z" glyph-name="Cacute" horiz-adv-x="739" unicode="Ć"/><glyph d="M562 71q-94 -88 -215 -88q-127 0 -217 90t-90 217t90 216.5t217 89.5q122 0 215 -87q6 -7 1 -12q-7 -7 -13 0q-87 82 -203 82q-120 0 -204.5 -84.5t-84.5 -204.5t84.5 -205t204.5 -85q115 0 203 83q6 7 13 0q5 -5 -1 -12zM436 753q0 -12 -13 -14l-160 -31q-6 -2 -6 3 q0 3 5 5l152 49q6 2 8 2q14 0 14 -14z" glyph-name="cacute" horiz-adv-x="601" unicode="ć"/><glyph d="M427 -17q-163 0 -277.5 115t-114.5 277t114.5 277t277.5 115q161 0 274 -113q3 -3 3 -7q0 -8 -8 -8q-4 0 -6 2q-109 109 -263 109q-155 0 -264.5 -110t-109.5 -265t109.5 -265t264.5 -110q154 0 263 109q2 2 6 2q8 0 8 -8q0 -4 -3 -7q-113 -113 -274 -113zM512 892 l-76 -93q-3 -5 -9 -5t-9 5l-76 93q-4 6 1 10q5 5 10 0l74 -89l74 89q5 5 10 0q5 -4 1 -10z" glyph-name="Ccaron" horiz-adv-x="739" unicode="Č"/><glyph d="M562 71q-94 -88 -215 -88q-127 0 -217 90t-90 217t90 216.5t217 89.5q122 0 215 -87q6 -7 1 -12q-7 -7 -13 0q-87 82 -203 82q-120 0 -204.5 -84.5t-84.5 -204.5t84.5 -205t204.5 -85q115 0 203 83q6 7 13 0q5 -5 -1 -12zM432 777l-76 -93q-3 -5 -9 -5t-9 5l-76 93 q-4 6 1 10q5 5 10 0l74 -89l74 89q5 5 10 0q5 -4 1 -10z" glyph-name="ccaron" horiz-adv-x="601" unicode="č"/><glyph d="M60 9v729q0 12 12 12h244q155 0 265 -110t110 -265t-110.5 -265t-264.5 -110h-188q-9 0 -9 8q0 9 9 9h188q148 0 252.5 105t104.5 253t-104.5 253t-252.5 105h-239v-724q0 -9 -9 -9q-8 0 -8 9zM424 887l-76 -93q-3 -5 -9 -5t-9 5l-76 93q-4 6 1 10q5 5 10 0l74 -89l74 89 q5 5 10 0q5 -4 1 -10z" glyph-name="Dcaron" horiz-adv-x="726" unicode="Ď"/><glyph d="M580 117q6 7 12 1t0 -13q-43 -57 -107 -89.5t-138 -32.5q-127 0 -217 90t-90 217t90 216.5t217 89.5q100 0 179 -57t111 -148v358q0 9 8 9q9 0 9 -9v-748q0 -9 -9 -9q-8 0 -8 9v289q0 120 -85 204.5t-205 84.5q-119 0 -204 -84.5t-85 -204.5t85 -205t204 -85 q70 0 131.5 31.5t101.5 85.5zM733 758q14 0 14 -14q0 -2 -2 -8l-49 -152q-2 -5 -5 -5q-5 0 -3 6l31 160q2 13 14 13z" glyph-name="dcaron" horiz-adv-x="761" unicode="ď"/><glyph d="M77 367v-350h520q9 0 9 -9q0 -8 -9 -8h-525q-12 0 -12 12v360q0 12 12 12h456q9 0 9 -9q0 -8 -9 -8h-451zM60 435v303q0 12 12 12h525q9 0 9 -9q0 -8 -9 -8h-520v-298q0 -9 -9 -9q-8 0 -8 9zM232 815q0 9 8 9h186q9 0 9 -9q0 -8 -9 -8h-186q-8 0 -8 8z" glyph-name="Emacron" horiz-adv-x="641" unicode="Ē"/><glyph d="M58 290q0 -122 85 -206t204 -84q80 0 147 40.5t104 108.5q5 8 12 4q8 -5 4 -12q-41 -72 -111.5 -115t-155.5 -43q-127 0 -217 90t-90 217t90 216.5t217 89.5q125 0 215 -88.5t91 -213.5q0 -13 -12 -13h-532q-9 0 -9 8q0 9 9 9h527q-4 118 -88 199.5t-201 81.5 q-119 0 -204 -83.5t-85 -205.5zM245 741q0 9 8 9h186q9 0 9 -9q0 -8 -9 -8h-186q-8 0 -8 8z" glyph-name="emacron" unicode="ē"/><glyph d="M77 367v-350h520q9 0 9 -9q0 -8 -9 -8h-525q-12 0 -12 12v360q0 12 12 12h456q9 0 9 -9q0 -8 -9 -8h-451zM60 435v303q0 12 12 12h525q9 0 9 -9q0 -8 -9 -8h-520v-298q0 -9 -9 -9q-8 0 -8 9zM372 815q0 -15 -11 -26t-25 -11q-15 0 -26 11t-11 26q0 14 11 25t26 11 q14 0 25 -11t11 -25z" glyph-name="Edotaccent" horiz-adv-x="641" unicode="Ė"/><glyph d="M58 290q0 -122 85 -206t204 -84q80 0 147 40.5t104 108.5q5 8 12 4q8 -5 4 -12q-41 -72 -111.5 -115t-155.5 -43q-127 0 -217 90t-90 217t90 216.5t217 89.5q125 0 215 -88.5t91 -213.5q0 -13 -12 -13h-532q-9 0 -9 8q0 9 9 9h527q-4 118 -88 199.5t-201 81.5 q-119 0 -204 -83.5t-85 -205.5zM383 722q0 -15 -11 -26t-25 -11q-15 0 -26 11t-11 26q0 14 11 25t26 11q14 0 25 -11t11 -25z" glyph-name="edotaccent" unicode="ė"/><glyph d="M77 367v-350h520q9 0 9 -9q0 -8 -9 -8h-49q-35 0 -60 -25t-25 -60t25 -60.5t60 -25.5q20 0 46 14q9 4 11 -5q2 -7 -5 -11q-22 -15 -52 -15q-43 0 -73 30t-30 73q0 60 54 85h-427q-12 0 -12 12v360q0 12 12 12h456q9 0 9 -9q0 -8 -9 -8h-451zM60 435v303q0 12 12 12h525 q9 0 9 -9q0 -8 -9 -8h-520v-298q0 -9 -9 -9q-8 0 -8 9z" glyph-name="Eogonek" horiz-adv-x="641" unicode="Ę"/><glyph d="M58 290q0 -122 85 -206t204 -84q80 0 147 40.5t104 108.5q5 8 12 4q8 -5 4 -12q-58 -103 -166 -141q-27 -8 -43.5 -31t-16.5 -52q0 -36 25 -62t60 -26q20 0 46 14q9 4 11 -5q2 -7 -5 -11q-23 -15 -52 -15q-43 0 -73 31t-30 74t31 71q-30 -5 -54 -5q-127 0 -217 90 t-90 217t90 216.5t217 89.5q125 0 215 -88.5t91 -213.5q0 -13 -12 -13h-532q-9 0 -9 8q0 9 9 9h527q-4 118 -88 199.5t-201 81.5q-119 0 -204 -83.5t-85 -205.5z" glyph-name="eogonek" unicode="ę"/><glyph d="M77 367v-350h520q9 0 9 -9q0 -8 -9 -8h-525q-12 0 -12 12v360q0 12 12 12h456q9 0 9 -9q0 -8 -9 -8h-451zM60 435v303q0 12 12 12h525q9 0 9 -9q0 -8 -9 -8h-520v-298q0 -9 -9 -9q-8 0 -8 9zM421 887l-76 -93q-3 -5 -9 -5t-9 5l-76 93q-4 6 1 10q5 5 10 0l74 -89l74 89 q5 5 10 0q5 -4 1 -10z" glyph-name="Ecaron" horiz-adv-x="641" unicode="Ě"/><glyph d="M58 290q0 -122 85 -206t204 -84q80 0 147 40.5t104 108.5q5 8 12 4q8 -5 4 -12q-41 -72 -111.5 -115t-155.5 -43q-127 0 -217 90t-90 217t90 216.5t217 89.5q125 0 215 -88.5t91 -213.5q0 -13 -12 -13h-532q-9 0 -9 8q0 9 9 9h527q-4 118 -88 199.5t-201 81.5 q-119 0 -204 -83.5t-85 -205.5zM432 777l-76 -93q-3 -5 -9 -5t-9 5l-76 93q-4 6 1 10q5 5 10 0l74 -89l74 89q5 5 10 0q5 -4 1 -10z" glyph-name="ecaron" unicode="ě"/><glyph d="M725 371v-246q0 -6 -3 -9q-55 -62 -132 -97.5t-163 -35.5q-162 0 -277 115t-115 277t115 277t277 115q159 0 274 -112q3 -3 3 -7q0 -8 -9 -8q-3 0 -6 3q-112 107 -262 107q-155 0 -264.5 -110t-109.5 -265t109.5 -265t264.5 -110q83 0 156 33.5t125 92.5v240h-280 q-9 0 -9 9q0 8 9 8h285q12 0 12 -12zM411 -150q0 8 8 8h3q8 0 8 8v56h-3q-9 0 -15 6t-6 15q0 8 6 14t15 6q8 0 13.5 -6t5.5 -14v-77q0 -10 -7 -17t-17 -7h-3q-8 0 -8 8z" glyph-name="Gcommaaccent" horiz-adv-x="775" unicode="Ģ"/><glyph d="M573 115q6 7 12 1t0 -13q-91 -120 -239 -120q-127 0 -216.5 90t-89.5 217t89.5 216.5t216.5 89.5q100 0 179 -57t111 -148v187q0 9 8 9q9 0 9 -9v-459q0 -127 -89.5 -217t-216.5 -90q-112 0 -238 64q-7 4 -4 12q4 9 12 4q107 -63 230 -63q120 0 203.5 85t85.5 205v171 q0 120 -85 204.5t-205 84.5q-119 0 -203.5 -84.5t-84.5 -204.5t84.5 -205t203.5 -85q141 0 227 115zM362 747q0 -8 -8 -8h-3q-8 0 -8 -8v-56h3q9 0 15 -6t6 -15q0 -8 -6 -14t-15 -6q-8 0 -13.5 6t-5.5 14v77q0 10 7 17t17 7h3q8 0 8 -8z" glyph-name="gcommaaccent" horiz-adv-x="713" unicode="ģ"/><glyph d="M77 749v-748q0 -9 -9 -9q-8 0 -8 9v748q0 9 8 9q9 0 9 -9zM0 815q0 9 8 9h120q9 0 9 -9q0 -8 -9 -8h-120q-8 0 -8 8z" glyph-name="Imacron" horiz-adv-x="137" unicode="Ī"/><glyph d="M77 578v-577q0 -9 -9 -9q-8 0 -8 9v577q0 9 8 9q9 0 9 -9zM0 741q0 9 8 9h120q9 0 9 -9q0 -8 -9 -8h-120q-8 0 -8 8z" glyph-name="imacron" horiz-adv-x="137" unicode="ī"/><glyph d="M77 749v-748q0 -7 -8 -9q-21 -10 -34.5 -31t-13.5 -46q0 -35 25 -60.5t60 -25.5q10 0 19 3q8 2 11 -6q4 -9 -6 -11q-12 -3 -24 -3q-43 0 -73 30t-30 73q0 62 57 85v749q0 9 8 9q9 0 9 -9z" glyph-name="Iogonek" horiz-adv-x="137" unicode="Į"/><glyph d="M77 578v-577q0 -7 -8 -9q-21 -10 -34.5 -31t-13.5 -46q0 -35 25 -60.5t60 -25.5q10 0 19 3q8 2 11 -6q4 -9 -6 -11q-12 -3 -24 -3q-43 0 -73 30t-30 73q0 62 57 85v578q0 9 8 9q9 0 9 -9zM56 754q0 13 13 13t13 -13t-13 -13t-13 13z" glyph-name="iogonek" horiz-adv-x="137" unicode="į"/><glyph d="M77 578v-577q0 -9 -9 -9q-8 0 -8 9v577q0 9 8 9q9 0 9 -9z" glyph-name="dotlessi" horiz-adv-x="137" unicode="ı"/><glyph d="M147 375l439 -368q8 -6 2 -13q-7 -5 -12 0l-443 371q-6 5 -6 10q0 6 6 10l443 371q5 5 12 0q6 -7 -2 -13zM60 749q0 9 8 9q9 0 9 -9v-748q0 -9 -9 -9q-8 0 -8 9v748zM290 -130q0 8 8 8h3q8 0 8 8v56h-3q-9 0 -15 6t-6 15q0 8 6 14t15 6q8 0 13.5 -6t5.5 -14v-77 q0 -10 -7 -17t-17 -7h-3q-8 0 -8 8z" glyph-name="Kcommaaccent" horiz-adv-x="605" unicode="Ķ"/><glyph d="M127 290q0 6 6 10l354 284q7 7 13 1q7 -7 -1 -13l-352 -282l352 -282q8 -6 1 -13q-6 -6 -13 1l-354 284q-6 4 -6 10zM77 749v-748q0 -9 -9 -9q-8 0 -8 9v748q0 9 8 9q9 0 9 -9zM248 -130q0 8 8 8h3q8 0 8 8v56h-3q-9 0 -15 6t-6 15q0 8 6 14t15 6q8 0 13.5 -6t5.5 -14 v-77q0 -10 -7 -17t-17 -7h-3q-8 0 -8 8z" glyph-name="kcommaaccent" horiz-adv-x="518" unicode="ķ"/><glyph d="M77 749v-732h485q9 0 9 -9q0 -8 -9 -8h-490q-12 0 -12 12v737q0 9 8 9q9 0 9 -9zM402 846q0 -12 -13 -14l-160 -31q-6 -2 -6 3q0 3 5 5l152 49q6 2 8 2q14 0 14 -14z" glyph-name="Lacute" horiz-adv-x="586" unicode="Ĺ"/><glyph d="M77 749v-748q0 -9 -9 -9q-8 0 -8 9v748q0 9 8 9q9 0 9 -9zM158 820q0 -12 -13 -14l-160 -31q-6 -2 -6 3q0 3 5 5l152 49q6 2 8 2q14 0 14 -14z" glyph-name="lacute" horiz-adv-x="137" unicode="ĺ"/><glyph d="M300 -130q0 8 8 8h3q8 0 8 8v56h-3q-9 0 -15 6t-6 15q0 8 6 14t15 6q8 0 13.5 -6t5.5 -14v-77q0 -10 -7 -17t-17 -7h-3q-8 0 -8 8zM77 749v-732h485q9 0 9 -9q0 -8 -9 -8h-490q-12 0 -12 12v737q0 9 8 9q9 0 9 -9z" glyph-name="Lcommaaccent" horiz-adv-x="586" unicode="Ļ"/><glyph d="M77 749v-748q0 -9 -9 -9q-8 0 -8 9v748q0 9 8 9q9 0 9 -9zM52 -140q0 8 8 8h3q8 0 8 8v56h-3q-9 0 -15 6t-6 15q0 8 6 14t15 6q8 0 13.5 -6t5.5 -14v-77q0 -10 -7 -17t-17 -7h-3q-8 0 -8 8z" glyph-name="lcommaaccent" horiz-adv-x="137" unicode="ļ"/><glyph d="M77 749v-732h485q9 0 9 -9q0 -8 -9 -8h-490q-12 0 -12 12v737q0 9 8 9q9 0 9 -9zM557 758q14 0 14 -14q0 -2 -2 -8l-49 -152q-2 -5 -5 -5q-5 0 -3 6l31 160q2 13 14 13z" glyph-name="Lcaron" horiz-adv-x="586" unicode="Ľ"/><glyph d="M77 749v-748q0 -9 -9 -9q-8 0 -8 9v748q0 9 8 9q9 0 9 -9zM154 758q14 0 14 -14q0 -2 -2 -8l-49 -152q-2 -5 -5 -5q-5 0 -3 6l31 160q2 13 14 13z" glyph-name="lcaron" horiz-adv-x="182" unicode="ľ"/><glyph d="M97 298v-281h485q9 0 9 -9q0 -8 -9 -8h-490q-12 0 -12 12v283q0 10 8 10q9 2 9 -7zM88 406q-8 0 -8 8v335q0 9 8 9q9 0 9 -9v-332q0 -9 -9 -11zM20 349l321 68q8 2 10 -7q1 -7 -7 -9l-321 -68q-8 -2 -10 6t7 10z" glyph-name="Lslash" horiz-adv-x="606" unicode="Ł"/><glyph d="M92 406q-8 0 -8 8v335q0 9 8 9q9 0 9 -9v-332q0 -9 -9 -11zM101 318v-317q0 -9 -9 -9q-8 0 -8 9v314q0 10 8 10q9 2 9 -7zM166 382l-143 -30q-8 -2 -10 6q-2 9 7 11l143 30q7 1 9 -7q1 -7 -6 -10z" glyph-name="lslash" horiz-adv-x="185" unicode="ł"/><glyph d="M430 846q0 -12 -13 -14l-160 -31q-6 -2 -6 3q0 3 5 5l152 49q6 2 8 2q14 0 14 -14zM605 749q0 9 9 9q8 0 8 -9v-745q0 -12 -12 -12q-7 0 -10 5l-523 734v-730q0 -9 -9 -9q-8 0 -8 9v745q0 12 12 12q7 0 10 -5l523 -734v730z" glyph-name="Nacute" horiz-adv-x="682" unicode="Ń"/><glyph d="M122 496q-7 5 0 12q38 40 90.5 64t107.5 24q102 0 168 -66t66 -168v-361q0 -9 -9 -9q-8 0 -8 9v361q0 94 -61.5 155.5t-155.5 61.5q-111 0 -186 -83q-7 -7 -12 0zM77 578v-577q0 -9 -9 -9q-8 0 -8 9v577q0 9 8 9q9 0 9 -9zM408 753q0 -12 -13 -14l-160 -31q-6 -2 -6 3 q0 3 5 5l152 49q6 2 8 2q14 0 14 -14z" glyph-name="nacute" horiz-adv-x="614" unicode="ń"/><glyph d="M326 -130q0 8 8 8h3q8 0 8 8v56h-3q-9 0 -15 6t-6 15q0 8 6 14t15 6q8 0 13.5 -6t5.5 -14v-77q0 -10 -7 -17t-17 -7h-3q-8 0 -8 8zM605 749q0 9 9 9q8 0 8 -9v-745q0 -12 -12 -12q-7 0 -10 5l-523 734v-730q0 -9 -9 -9q-8 0 -8 9v745q0 12 12 12q7 0 10 -5l523 -734v730z " glyph-name="Ncommaaccent" horiz-adv-x="682" unicode="Ņ"/><glyph d="M292 -130q0 8 8 8h3q8 0 8 8v56h-3q-9 0 -15 6t-6 15q0 8 6 14t15 6q8 0 13.5 -6t5.5 -14v-77q0 -10 -7 -17t-17 -7h-3q-8 0 -8 8zM122 496q-7 5 0 12q38 40 90.5 64t107.5 24q102 0 168 -66t66 -168v-361q0 -9 -9 -9q-8 0 -8 9v361q0 94 -61.5 155.5t-155.5 61.5 q-111 0 -186 -83q-7 -7 -12 0zM77 578v-577q0 -9 -9 -9q-8 0 -8 9v577q0 9 8 9q9 0 9 -9z" glyph-name="ncommaaccent" horiz-adv-x="614" unicode="ņ"/><glyph d="M426 887l-76 -93q-3 -5 -9 -5t-9 5l-76 93q-4 6 1 10q5 5 10 0l74 -89l74 89q5 5 10 0q5 -4 1 -10zM605 749q0 9 9 9q8 0 8 -9v-745q0 -12 -12 -12q-7 0 -10 5l-523 734v-730q0 -9 -9 -9q-8 0 -8 9v745q0 12 12 12q7 0 10 -5l523 -734v730z" glyph-name="Ncaron" horiz-adv-x="682" unicode="Ň"/><glyph d="M122 496q-3 2 -3 5q0 4 3 7q38 40 90.5 64t107.5 24q102 0 168 -66t66 -168v-361q0 -9 -9 -9q-8 0 -8 9v361q0 94 -61.5 155.5t-155.5 61.5q-111 0 -186 -83q-3 -3 -7 -3q-3 0 -5 3zM77 578v-577q0 -9 -9 -9q-8 0 -8 9v577q0 9 8 9q9 0 9 -9zM405 777l-76 -93 q-3 -5 -9 -5t-9 5l-76 93q-4 6 1 10q5 5 10 0l74 -89l74 89q5 5 10 0q5 -4 1 -10z" glyph-name="ncaron" horiz-adv-x="614" unicode="ň"/><glyph d="M325 815q0 9 8 9h186q9 0 9 -9q0 -8 -9 -8h-186q-8 0 -8 8zM819 375q0 -162 -115 -277t-277 -115t-277 115t-115 277q0 153 105 266q118 126 287 126q162 0 277 -115t115 -277zM801 375q0 155 -109.5 265t-264.5 110t-264.5 -110t-109.5 -265t109.5 -265t264.5 -110 t264.5 110t109.5 265z" glyph-name="Omacron" horiz-adv-x="854" unicode="Ō"/><glyph d="M635 290q0 120 -84.5 204.5t-204.5 84.5q-119 0 -203.5 -84.5t-84.5 -204.5t84.5 -205t203.5 -85q120 0 204.5 85t84.5 205zM653 290q0 -128 -89.5 -217.5t-217.5 -89.5q-127 0 -216.5 90t-89.5 217t89.5 216.5t216.5 89.5t217 -89.5t90 -216.5zM245 741q0 9 8 9h186 q9 0 9 -9q0 -8 -9 -8h-186q-8 0 -8 8z" glyph-name="omacron" unicode="ō"/><glyph d="M819 375q0 -162 -115 -277t-277 -115t-277 115t-115 277q0 153 105 266q118 126 287 126q162 0 277 -115t115 -277zM801 375q0 155 -109.5 265t-264.5 110t-264.5 -110t-109.5 -265t109.5 -265t264.5 -110t264.5 110t109.5 265zM445 881l-38 -82q-6 -10 -15 -6 q-4 1 -6.5 6.5t-0.5 9.5l38 82q6 11 16 6t6 -16zM502 881l-38 -82q-6 -10 -15 -6q-4 1 -6.5 6.5t-0.5 9.5l38 82q6 11 16 6t6 -16z" glyph-name="Ohungarumlaut" horiz-adv-x="854" unicode="Ő"/><glyph d="M635 290q0 120 -84.5 204.5t-204.5 84.5q-119 0 -203.5 -84.5t-84.5 -204.5t84.5 -205t203.5 -85q120 0 204.5 85t84.5 205zM653 290q0 -128 -89.5 -217.5t-217.5 -89.5q-127 0 -216.5 90t-89.5 217t89.5 216.5t216.5 89.5t217 -89.5t90 -216.5zM367 739l-38 -82 q-6 -10 -15 -6q-4 1 -6.5 6.5t-0.5 9.5l38 82q6 11 16 6t6 -16zM424 739l-38 -82q-6 -10 -15 -6q-4 1 -6.5 6.5t-0.5 9.5l38 82q6 11 16 6t6 -16z" glyph-name="ohungarumlaut" unicode="ő"/><glyph d="M818 367v-350h520q9 0 9 -9q0 -8 -9 -8h-525q-12 0 -12 12v360q0 12 12 12h456q9 0 9 -9q0 -8 -9 -8h-451zM427 0q98 0 181 47.5t135 127.5q6 8 13 3t1 -13q-53 -84 -140.5 -133t-189.5 -49q-162 0 -277 115t-115 277q0 153 105 266q118 126 287 126q130 0 234 -79.5 t140 -201.5v252q0 12 12 12h525q9 0 9 -9q0 -8 -9 -8h-520v-296q0 -11 -11 -11t-11 11q-23 134 -127 223.5t-242 89.5q-155 0 -264.5 -110t-109.5 -265t109.5 -265t264.5 -110z" glyph-name="OE" horiz-adv-x="1382" unicode="Œ"/><glyph d="M604 159q3 8 12 4q8 -3 3 -12q-39 -76 -112 -122t-161 -46q-127 0 -216.5 90t-89.5 217t89.5 216.5t216.5 89.5q108 0 190.5 -66.5t106.5 -168.5v-3q23 103 107 170.5t192 67.5q125 0 215 -88.5t91 -213.5q0 -13 -12 -13h-532q-9 0 -9 8q0 9 9 9h527q-4 118 -88 199.5 t-201 81.5q-119 0 -204 -83.5t-85 -205.5t85 -206t204 -84q80 0 147 40.5t104 108.5q5 8 12 4q8 -5 4 -12q-41 -72 -111.5 -115t-155.5 -43q-127 0 -217 90t-90 217q0 120 -84.5 204.5t-204.5 84.5q-119 0 -203.5 -84.5t-84.5 -204.5t84.5 -205t203.5 -85q83 0 151.5 43 t106.5 116z" glyph-name="oe" horiz-adv-x="1288" unicode="œ"/><glyph d="M245 303q0 12 12 12h139q86 0 147 61.5t61 147.5t-61 147.5t-147 61.5h-319v-732q0 -9 -9 -9q-8 0 -8 9v737q0 12 12 12h324q94 0 160 -66t66 -160t-66 -160t-160 -66h-129l245 -292q7 -7 -1 -13q-6 -6 -12 2l-250 298q-4 4 -4 10zM417 846q0 -12 -13 -14l-160 -31 q-6 -2 -6 3q0 3 5 5l152 49q6 2 8 2q14 0 14 -14z" glyph-name="Racute" horiz-adv-x="662" unicode="Ŕ"/><glyph d="M292 753q0 -12 -13 -14l-160 -31q-6 -2 -6 3q0 3 5 5l152 49q6 2 8 2q14 0 14 -14zM335 581q-3 -8 -9 -6q-26 4 -42 4q-82 0 -144.5 -83.5t-62.5 -177.5q0 -9 -9 -9q-8 0 -8 9v260q0 9 8 9q9 0 9 -9v-166q23 73 80 128.5t127 55.5q21 0 46 -5q7 -2 5 -10zM77 258v-257 q0 -9 -9 -9q-8 0 -8 9v257q0 9 8 9q9 0 9 -9z" glyph-name="racute" horiz-adv-x="345" unicode="ŕ"/><glyph d="M245 303q0 12 12 12h139q86 0 147 61.5t61 147.5t-61 147.5t-147 61.5h-319v-732q0 -9 -9 -9q-8 0 -8 9v737q0 12 12 12h324q94 0 160 -66t66 -160t-66 -160t-160 -66h-129l245 -292q7 -7 -1 -13q-6 -6 -12 2l-250 298q-4 4 -4 10zM249 -130q0 8 8 8h3q8 0 8 8v56h-3 q-9 0 -15 6t-6 15q0 8 6 14t15 6q8 0 13.5 -6t5.5 -14v-77q0 -10 -7 -17t-17 -7h-3q-8 0 -8 8z" glyph-name="Rcommaaccent" horiz-adv-x="662" unicode="Ŗ"/><glyph d="M187 -130q0 8 8 8h3q8 0 8 8v56h-3q-9 0 -15 6t-6 15q0 8 6 14t15 6q8 0 13.5 -6t5.5 -14v-77q0 -10 -7 -17t-17 -7h-3q-8 0 -8 8zM335 581q-3 -8 -9 -6q-26 4 -42 4q-82 0 -144.5 -83.5t-62.5 -177.5q0 -9 -9 -9q-8 0 -8 9v260q0 9 8 9q9 0 9 -9v-166q23 73 80 128.5 t127 55.5q21 0 46 -5q7 -2 5 -10zM77 258v-257q0 -9 -9 -9q-8 0 -8 9v257q0 9 8 9q9 0 9 -9z" glyph-name="rcommaaccent" horiz-adv-x="345" unicode="ŗ"/><glyph d="M245 303q0 12 12 12h139q86 0 147 61.5t61 147.5t-61 147.5t-147 61.5h-319v-732q0 -9 -9 -9q-8 0 -8 9v737q0 12 12 12h324q94 0 160 -66t66 -160t-66 -160t-160 -66h-129l245 -292q7 -7 -1 -13q-6 -6 -12 2l-250 298q-4 4 -4 10zM414 887l-76 -93q-3 -5 -9 -5t-9 5 l-76 93q-4 6 1 10q5 5 10 0l74 -89l74 89q5 5 10 0q5 -4 1 -10z" glyph-name="Rcaron" horiz-adv-x="662" unicode="Ř"/><glyph d="M280 777l-76 -93q-3 -5 -9 -5t-9 5l-76 93q-4 6 1 10q5 5 10 0l74 -89l74 89q5 5 10 0q5 -4 1 -10zM335 581q-3 -8 -9 -6q-26 4 -42 4q-82 0 -144.5 -83.5t-62.5 -177.5q0 -9 -9 -9q-8 0 -8 9v260q0 9 8 9q9 0 9 -9v-166q23 73 80 128.5t127 55.5q21 0 46 -5q7 -2 5 -10z M77 258v-257q0 -9 -9 -9q-8 0 -8 9v257q0 9 8 9q9 0 9 -9z" glyph-name="rcaron" horiz-adv-x="345" unicode="ř"/><glyph d="M55 74q102 -74 240 -74q99 0 168.5 54.5t69.5 132.5q0 60 -26.5 100t-68 60t-92.5 33t-102 25t-92.5 29.5t-68 54t-26.5 91.5q0 78 69.5 132.5t168.5 54.5q119 0 218 -57q8 -4 2 -12q-4 -8 -12 -2q-94 54 -208 54q-92 0 -156 -49.5t-64 -120.5q0 -50 26.5 -83.5t68 -50 t92.5 -28t102 -25.5t92.5 -35.5t68 -64.5t26.5 -106q0 -85 -75.5 -144.5t-180.5 -59.5q-148 0 -250 77q-7 6 -3 12q6 7 13 2zM384 846q0 -12 -13 -14l-160 -31q-6 -2 -6 3q0 3 5 5l152 49q6 2 8 2q14 0 14 -14z" glyph-name="Sacute" horiz-adv-x="591" unicode="Ś"/><glyph d="M450 553q9 -5 3 -13q-5 -7 -13 -1q-82 40 -179 40q-82 0 -134.5 -36t-52.5 -93q0 -59 42 -88.5t102 -38.5t120 -20t102 -48t42 -107q0 -75 -61 -120t-160 -45q-122 0 -216 58q-8 5 -2 13q5 6 12 1q92 -55 206 -55q93 0 148 40t55 108q0 48 -22.5 78.5t-58.5 44t-79.5 21 t-87 15.5t-79.5 21.5t-58.5 44t-22.5 77.5q0 65 57.5 105.5t147.5 40.5q105 0 189 -43zM356 753q0 -12 -13 -14l-160 -31q-6 -2 -6 3q0 3 5 5l152 49q6 2 8 2q14 0 14 -14z" glyph-name="sacute" horiz-adv-x="522" unicode="ś"/><glyph d="M380 887l-76 -93q-3 -5 -9 -5t-9 5l-76 93q-4 6 1 10q5 5 10 0l74 -89l74 89q5 5 10 0q5 -4 1 -10zM55 74q102 -74 240 -74q99 0 168.5 54.5t69.5 132.5q0 60 -26.5 100t-68 60t-92.5 33t-102 25t-92.5 29.5t-68 54t-26.5 91.5q0 78 69.5 132.5t168.5 54.5q119 0 218 -57 q8 -4 2 -12q-4 -8 -12 -2q-94 54 -208 54q-92 0 -156 -49.5t-64 -120.5q0 -50 26.5 -83.5t68 -50t92.5 -28t102 -25.5t92.5 -35.5t68 -64.5t26.5 -106q0 -85 -75.5 -144.5t-180.5 -59.5q-148 0 -250 77q-7 6 -3 12q6 7 13 2z" glyph-name="Scaron" horiz-adv-x="591" unicode="Š"/><glyph d="M346 777l-76 -93q-3 -5 -9 -5t-9 5l-76 93q-4 6 1 10q5 5 10 0l74 -89l74 89q5 5 10 0q5 -4 1 -10zM450 553q9 -5 3 -13q-5 -7 -13 -1q-82 40 -179 40q-82 0 -134.5 -36t-52.5 -93q0 -59 42 -88.5t102 -38.5t120 -20t102 -48t42 -107q0 -75 -61 -120t-160 -45 q-122 0 -216 58q-8 5 -2 13q5 6 12 1q92 -55 206 -55q93 0 148 40t55 108q0 48 -22.5 78.5t-58.5 44t-79.5 21t-87 15.5t-79.5 21.5t-58.5 44t-22.5 77.5q0 65 57.5 105.5t147.5 40.5q105 0 189 -43z" glyph-name="scaron" horiz-adv-x="522" unicode="š"/><glyph d="M291 738q0 12 12 12h277q9 0 9 -9q0 -8 -9 -8h-272v-732q0 -9 -9 -9q-8 0 -8 9v737zM240 733h-221q-9 0 -9 8q0 9 9 9h221q9 0 9 -8q0 -9 -9 -9zM388 887l-76 -93q-3 -5 -9 -5t-9 5l-76 93q-4 6 1 10q5 5 10 0l74 -89l74 89q5 5 10 0q5 -4 1 -10z" glyph-name="Tcaron" horiz-adv-x="599" unicode="Ť"/><glyph d="M284 8q0 -8 -9 -8h-51q-56 0 -96 40t-40 96v375q0 9 8 9q9 0 9 -9v-375q0 -49 35 -84t84 -35h51q9 0 9 -9zM275 562h-254q-9 0 -9 8q0 9 9 9h67v130q0 9 8 9q9 0 9 -9v-130h170q9 0 9 -9q0 -8 -9 -8zM348 758q14 0 14 -14q0 -2 -2 -8l-49 -152q-2 -5 -5 -5q-5 0 -3 6 l31 160q2 13 14 13z" glyph-name="tcaron" horiz-adv-x="372" unicode="ť"/><glyph d="M248 815q0 9 8 9h186q9 0 9 -9q0 -8 -9 -8h-186q-8 0 -8 8zM77 749v-476q0 -113 80 -193t193 -80t192.5 80t79.5 193v476q0 9 8 9q9 0 9 -9v-476q0 -120 -84.5 -205t-204.5 -85t-205 85t-85 205v476q0 9 8 9q9 0 9 -9z" glyph-name="Umacron" horiz-adv-x="699" unicode="Ū"/><glyph d="M205 741q0 9 8 9h186q9 0 9 -9q0 -8 -9 -8h-186q-8 0 -8 8zM492 83q7 -5 0 -12q-38 -40 -90.5 -64t-107.5 -24q-102 0 -168 66t-66 168v361q0 9 9 9q8 0 8 -9v-361q0 -95 61.5 -156t155.5 -61q111 0 186 83q7 7 12 0zM537 1v577q0 9 9 9q8 0 8 -9v-577q0 -9 -8 -9 q-9 0 -9 9z" glyph-name="umacron" horiz-adv-x="614" unicode="ū"/><glyph d="M409 851q0 23 -17.5 40.5t-40.5 17.5q-24 0 -41.5 -17.5t-17.5 -40.5q0 -24 17.5 -41.5t41.5 -17.5q23 0 40.5 17.5t17.5 41.5zM424 851q0 -31 -21.5 -53t-51.5 -22q-31 0 -53 22t-22 53q0 30 22 51.5t53 21.5q30 0 51.5 -21.5t21.5 -51.5zM77 749v-476q0 -113 80 -193 t193 -80t192.5 80t79.5 193v476q0 9 8 9q9 0 9 -9v-476q0 -120 -84.5 -205t-204.5 -85t-205 85t-85 205v476q0 9 8 9q9 0 9 -9z" glyph-name="Uring" horiz-adv-x="699" unicode="Ů"/><glyph d="M365 727q0 23 -17 40.5t-40 17.5q-24 0 -41.5 -17.5t-17.5 -40.5q0 -24 17 -41.5t42 -17.5q23 0 40 17.5t17 41.5zM381 727q0 -31 -22 -53t-51 -22q-31 0 -53 22t-22 53q0 30 22 51.5t53 21.5q29 0 51 -21.5t22 -51.5zM492 83q7 -5 0 -12q-38 -40 -90.5 -64t-107.5 -24 q-102 0 -168 66t-66 168v361q0 9 9 9q8 0 8 -9v-361q0 -95 61.5 -156t155.5 -61q111 0 186 83q7 7 12 0zM537 1v577q0 9 9 9q8 0 8 -9v-577q0 -9 -8 -9q-9 0 -9 9z" glyph-name="uring" horiz-adv-x="614" unicode="ů"/><glyph d="M77 749v-476q0 -113 80 -193t193 -80t192.5 80t79.5 193v476q0 9 8 9q9 0 9 -9v-476q0 -120 -84.5 -205t-204.5 -85t-205 85t-85 205v476q0 9 8 9q9 0 9 -9zM355 881l-38 -82q-6 -10 -15 -6q-4 1 -6.5 6.5t-0.5 9.5l38 82q6 11 16 6t6 -16zM412 881l-38 -82 q-6 -10 -15 -6q-4 1 -6.5 6.5t-0.5 9.5l38 82q6 11 16 6t6 -16z" glyph-name="Uhungarumlaut" horiz-adv-x="699" unicode="Ű"/><glyph d="M315 739l-38 -82q-6 -10 -15 -6q-4 1 -6.5 6.5t-0.5 9.5l38 82q6 11 16 6t6 -16zM372 739l-38 -82q-6 -10 -15 -6q-4 1 -6.5 6.5t-0.5 9.5l38 82q6 11 16 6t6 -16zM492 83q7 -5 0 -12q-38 -40 -90.5 -64t-107.5 -24q-102 0 -168 66t-66 168v361q0 9 9 9q8 0 8 -9v-361 q0 -95 61.5 -156t155.5 -61q111 0 186 83q7 7 12 0zM537 1v577q0 9 9 9q8 0 8 -9v-577q0 -9 -8 -9q-9 0 -9 9z" glyph-name="uhungarumlaut" horiz-adv-x="614" unicode="ű"/><glyph d="M77 749v-476q0 -113 80 -193t193 -80t192.5 80t79.5 193v476q0 9 8 9q9 0 9 -9v-476q0 -93 -53.5 -168t-137.5 -105q-27 -8 -43.5 -30.5t-16.5 -52.5q0 -36 25 -62t60 -26q20 0 46 14q9 4 11 -5q2 -7 -5 -11q-23 -15 -52 -15q-43 0 -73 30.5t-30 74.5q0 43 31 71 q-28 -5 -51 -5q-120 0 -205 85t-85 205v476q0 9 8 9q9 0 9 -9z" glyph-name="Uogonek" horiz-adv-x="699" unicode="Ų"/><glyph d="M492 83q7 -5 0 -12q-38 -40 -90.5 -64t-107.5 -24q-102 0 -168 66t-66 168v361q0 9 9 9q8 0 8 -9v-361q0 -95 61.5 -156t155.5 -61q111 0 186 83q7 7 12 0zM442 -89q0 40 26.5 64.5t68.5 26.5v576q0 9 9 9q8 0 8 -9v-577q0 -9 -9 -9q-36 0 -60.5 -23t-24.5 -58 t24.5 -58.5t60.5 -23.5q20 0 46 14q9 4 11 -5q2 -7 -5 -11q-23 -15 -52 -15q-43 0 -73 28.5t-30 70.5z" glyph-name="uogonek" horiz-adv-x="614" unicode="ų"/><glyph d="M250 847q0 -14 -14 -14q-13 0 -13 14q0 13 13 13q14 0 14 -13zM389 847q0 -14 -13 -14t-13 14q0 13 13 13t13 -13zM306 -8q-8 0 -8 9v362q0 5 3 9l281 383q2 3 6 3.5t6 -1.5q7 -5 2 -12l-281 -384v-360q0 -9 -9 -9zM18 757q2 2 6 1.5t6 -3.5l246 -337q5 -6 -1 -12 q-7 -6 -13 2l-246 337q-5 7 2 12z" glyph-name="Ydieresis" horiz-adv-x="612" unicode="Ÿ"/><glyph d="M391 846q0 -12 -13 -14l-160 -31q-6 -2 -6 3q0 3 5 5l152 49q6 2 8 2q14 0 14 -14zM20 12q0 6 3 9l537 712h-531q-9 0 -9 8q0 9 9 9h542q12 0 12 -12q0 -6 -3 -9l-537 -712h531q9 0 9 -8q0 -9 -9 -9h-542q-12 0 -12 12z" glyph-name="Zacute" horiz-adv-x="603" unicode="Ź"/><glyph d="M340 753q0 -12 -13 -14l-160 -31q-6 -2 -6 3q0 3 5 5l152 49q6 2 8 2q14 0 14 -14zM481 9q0 -9 -9 -9h-440q-12 0 -12 12q0 6 3 9l436 541h-430q-9 0 -9 8q0 9 9 9h440q12 0 12 -12q0 -6 -3 -9l-436 -541h430q9 0 9 -8z" glyph-name="zacute" horiz-adv-x="501" unicode="ź"/><glyph d="M338 815q0 -15 -11 -26t-25 -11q-15 0 -26 11t-11 26q0 14 11 25t26 11q14 0 25 -11t11 -25zM20 12q0 6 3 9l537 712h-531q-9 0 -9 8q0 9 9 9h542q12 0 12 -12q0 -6 -3 -9l-537 -712h531q9 0 9 -8q0 -9 -9 -9h-542q-12 0 -12 12z" glyph-name="Zdotaccent" horiz-adv-x="603" unicode="Ż"/><glyph d="M287 722q0 -15 -11 -26t-25 -11q-15 0 -26 11t-11 26q0 14 11 25t26 11q14 0 25 -11t11 -25zM481 9q0 -9 -9 -9h-440q-12 0 -12 12q0 6 3 9l436 541h-430q-9 0 -9 8q0 9 9 9h440q12 0 12 -12q0 -6 -3 -9l-436 -541h430q9 0 9 -8z" glyph-name="zdotaccent" horiz-adv-x="501" unicode="ż"/><glyph d="M20 12q0 6 3 9l537 712h-531q-9 0 -9 8q0 9 9 9h542q12 0 12 -12q0 -6 -3 -9l-537 -712h531q9 0 9 -8q0 -9 -9 -9h-542q-12 0 -12 12zM386 887l-76 -93q-3 -5 -9 -5t-9 5l-76 93q-4 6 1 10q5 5 10 0l74 -89l74 89q5 5 10 0q5 -4 1 -10z" glyph-name="Zcaron" horiz-adv-x="603" unicode="Ž"/><glyph d="M481 9q0 -9 -9 -9h-440q-12 0 -12 12q0 6 3 9l436 541h-430q-9 0 -9 8q0 9 9 9h440q12 0 12 -12q0 -6 -3 -9l-436 -541h430q9 0 9 -8zM335 777l-76 -93q-3 -5 -9 -5t-9 5l-76 93q-4 6 1 10q5 5 10 0l74 -89l74 89q5 5 10 0q5 -4 1 -10z" glyph-name="zcaron" horiz-adv-x="501" unicode="ž"/><glyph d="M253 511l-76 -545q-8 -56 -53.5 -96t-103.5 -41q-9 0 -7 8q2 9 9 9q50 1 90 36t47 84l77 545q2 9 9 9q10 0 8 -9zM380 562h-256q-9 0 -7 8q2 9 9 9h119l5 34q8 56 53.5 96t101.5 41q10 0 8 -9q-2 -8 -10 -8q-50 -1 -89.5 -36t-46.5 -84l-5 -34h120q10 0 8 -9 q-2 -8 -10 -8z" glyph-name="florin" horiz-adv-x="426" unicode="ƒ"/><glyph d="M272 692q4 -6 -1 -10q-5 -5 -10 0l-74 89l-74 -89q-5 -5 -10 0q-5 4 -1 10l76 93q3 5 9 5t9 -5z" glyph-name="circumflex" horiz-adv-x="374" unicode="ˆ"/><glyph d="M272 777l-76 -93q-3 -5 -9 -5t-9 5l-76 93q-4 6 1 10q5 5 10 0l74 -89l74 89q5 5 10 0q5 -4 1 -10z" glyph-name="caron" horiz-adv-x="374" unicode="ˇ"/><glyph d="M72 753q26 -53 78 -53t78 53q6 11 13 5q8 -4 3 -14q-30 -63 -94 -63t-94 63q-5 10 2 14q7 5 14 -5z" glyph-name="breve" horiz-adv-x="300" unicode="˘"/><glyph d="M133 722q0 -15 -11 -26t-25 -11q-15 0 -26 11t-11 26q0 14 11 25t26 11q14 0 25 -11t11 -25z" glyph-name="dotaccent" horiz-adv-x="193" unicode="˙"/><glyph d="M232 727q0 23 -17 40.5t-40 17.5q-25 0 -42 -17.5t-17 -40.5q0 -24 17 -41.5t42 -17.5q23 0 40 17.5t17 41.5zM248 727q0 -31 -22 -53t-51 -22q-31 0 -53 22t-22 53q0 30 22 51.5t53 21.5q29 0 51 -21.5t22 -51.5z" glyph-name="ring" horiz-adv-x="348" unicode="˚"/><glyph d="M163 0q-35 0 -60 -25t-25 -60t25 -60.5t60 -25.5q20 0 46 14q9 4 11 -5q2 -7 -5 -11q-22 -15 -52 -15q-43 0 -73 30t-30 73q0 42 29.5 68.5t73.5 26.5v-10z" glyph-name="ogonek" horiz-adv-x="281" unicode="˛"/><glyph d="M100 701q1 28 20 47t46 19q40 0 59 -37q15 -29 45 -29q20 0 34.5 14t14.5 35q0 9 8 9q9 0 9 -9q0 -27 -19.5 -46.5t-46.5 -19.5q-40 0 -59 37q-12 28 -45 28q-20 0 -34.5 -14.5t-14.5 -33.5q0 -8 -8 -8q-9 0 -9 8z" glyph-name="tilde" horiz-adv-x="436" unicode="˜"/><glyph d="M121 739l-38 -82q-6 -10 -15 -6q-4 1 -6.5 6.5t-0.5 9.5l38 82q6 11 16 6t6 -16zM178 739l-38 -82q-6 -10 -15 -6q-4 1 -6.5 6.5t-0.5 9.5l38 82q6 11 16 6t6 -16z" glyph-name="hungarumlaut" horiz-adv-x="239" unicode="˝"/><glyph d="M603 562h-150v-476q0 -38 28 -62t68 -24q19 0 30 5v-18q-20 -4 -30 -4q-48 0 -80.5 28.5t-32.5 74.5v476h-239v-562h-17v562h-150v17h573v-17z" glyph-name="pi" horiz-adv-x="633" unicode="π"/><glyph d="M45 299h494q9 0 9 -9q0 -8 -9 -8h-494q-9 0 -9 8q0 9 9 9z" glyph-name="endash" horiz-adv-x="584" unicode="–"/><glyph d="M45 299h750q9 0 9 -9q0 -8 -9 -8h-750q-9 0 -9 8q0 9 9 9z" glyph-name="emdash" horiz-adv-x="840" unicode="—"/><glyph d="M85 749q0 -8 -8 -8h-3q-8 0 -8 -8v-56h3q9 0 15 -6t6 -15q0 -8 -6 -14t-15 -6q-8 0 -13.5 6t-5.5 14v77q0 10 7 17t17 7h3q8 0 8 -8z" glyph-name="quoteleft" horiz-adv-x="140" unicode="‘"/><glyph d="M55 644q0 8 8 8h3q8 0 8 8v56h-3q-9 0 -15 6t-6 15q0 8 6 14t15 6q8 0 13.5 -6t5.5 -14v-77q0 -10 -7 -17t-17 -7h-3q-8 0 -8 8z" glyph-name="quoteright" horiz-adv-x="140" unicode="’"/><glyph d="M55 -80q0 8 8 8h3q8 0 8 8v56h-3q-9 0 -15 6t-6 15q0 8 6 14t15 6q8 0 13.5 -6t5.5 -14v-77q0 -10 -7 -17t-17 -7h-3q-8 0 -8 8z" glyph-name="quotesinglbase" horiz-adv-x="120" unicode="‚"/><glyph d="M85 749q0 -8 -8 -8h-3q-8 0 -8 -8v-56h3q9 0 15 -6t6 -15q0 -8 -6 -14t-15 -6q-8 0 -13.5 6t-5.5 14v77q0 10 7 17t17 7h3q8 0 8 -8zM143 749q0 -8 -8 -8h-3q-8 0 -8 -8v-56h3q9 0 15 -6t6 -15q0 -8 -6 -14t-15 -6q-8 0 -13.5 6t-5.5 14v77q0 10 7 17t17 7h3q8 0 8 -8z " glyph-name="quotedblleft" horiz-adv-x="178" unicode="“"/><glyph d="M93 644q0 8 8 8h3q8 0 8 8v56h-3q-9 0 -15 6t-6 15q0 8 6 14t15 6q8 0 13.5 -6t5.5 -14v-77q0 -10 -7 -17t-17 -7h-3q-8 0 -8 8zM35 644q0 8 8 8h3q8 0 8 8v56h-3q-9 0 -15 6t-6 15q0 8 6 14t15 6q8 0 13.5 -6t5.5 -14v-77q0 -10 -7 -17t-17 -7h-3q-8 0 -8 8z" glyph-name="quotedblright" horiz-adv-x="178" unicode="”"/><glyph d="M35 -80q0 8 8 8h3q8 0 8 8v56h-3q-9 0 -15 6t-6 15q0 8 6 14t15 6q8 0 13.5 -6t5.5 -14v-77q0 -10 -7 -17t-17 -7h-3q-8 0 -8 8zM93 -80q0 8 8 8h3q8 0 8 8v56h-3q-9 0 -15 6t-6 15q0 8 6 14t15 6q8 0 13.5 -6t5.5 -14v-77q0 -10 -7 -17t-17 -7h-3q-8 0 -8 8z" glyph-name="quotedblbase" horiz-adv-x="178" unicode="„"/><glyph d="M280 512v-598q0 -8 -9 -8q-8 0 -8 8v598q0 9 8 9q9 0 9 -9zM480 562h-420q-8 0 -8 8q0 9 8 9h203v170q0 9 8 9q9 0 9 -9v-170h200q9 0 9 -9q0 -8 -9 -8z" glyph-name="dagger" horiz-adv-x="541" unicode="†"/><glyph d="M280 512v-360q0 -8 -9 -8q-8 0 -8 8v360q0 9 8 9q9 0 9 -9zM480 562h-420q-8 0 -8 8q0 9 8 9h203v170q0 9 8 9q9 0 9 -9v-170h200q9 0 9 -9q0 -8 -9 -8zM60 102h420q9 0 9 -8q0 -9 -9 -9h-200v-170q0 -9 -9 -9q-8 0 -8 9v170h-203q-8 0 -8 9q0 8 8 8z" glyph-name="daggerdbl" horiz-adv-x="541" unicode="‡"/><glyph d="M135 256q-15 0 -25 9.5t-10 24.5q0 14 10.5 23.5t24.5 9.5t24 -9.5t10 -23.5q0 -15 -10 -24.5t-24 -9.5z" glyph-name="bullet" horiz-adv-x="269" unicode="•"/><glyph d="M35 13q0 8 6 14t14 6t14 -6t6 -14t-6 -14t-14 -6t-14 6t-6 14zM247 13q0 8 6 14t14 6t14 -6t6 -14t-6 -14t-14 -6t-14 6t-6 14zM459 13q0 8 6 14t14 6t14 -6t6 -14t-6 -14t-14 -6t-14 6t-6 14z" glyph-name="ellipsis" horiz-adv-x="534" unicode="…"/><glyph d="M92 14l498 739q5 7 12 4q7 -4 2 -13l-497 -738q-5 -8 -12 -5q-8 5 -3 13zM390 595q0 -71 -52 -122t-123 -51t-123 51t-52 122q0 70 52 121t123 51t123 -51t52 -121zM372 595q0 64 -46.5 109.5t-110.5 45.5t-110.5 -45.5t-46.5 -109.5t46.5 -110t110.5 -46t110.5 46 t46.5 110zM656 156q0 -71 -52 -122t-123 -51t-123 51t-52 122q0 70 52 121t123 51t123 -51t52 -121zM638 156q0 64 -46.5 109.5t-110.5 45.5t-110.5 -45.5t-46.5 -109.5t46.5 -110t110.5 -46t110.5 46t46.5 110zM1026 156q0 -71 -52 -122t-123 -51t-123 51t-52 122 q0 70 52 121t123 51t123 -51t52 -121zM1008 156q0 64 -46.5 109.5t-110.5 45.5t-110.5 -45.5t-46.5 -109.5t46.5 -110t110.5 -46t110.5 46t46.5 110z" glyph-name="perthousand" horiz-adv-x="1066" unicode="‰"/><glyph d="M195 433l-143 -143l143 -143q7 -7 0 -13q-6 -5 -12 1l-147 147q-10 8 0 16l147 147q6 6 12 1q7 -6 0 -13z" glyph-name="guilsinglleft" horiz-adv-x="230" unicode="‹"/><glyph d="M178 290l-143 143q-7 7 0 13q6 5 12 -1l147 -147q10 -8 0 -16l-147 -147q-6 -6 -12 -1q-7 6 0 13z" glyph-name="guilsinglright" horiz-adv-x="230" unicode="›"/><glyph d="M384 752l-316 -757q-2 -5 -5 -3q-4 2 -2 7l315 755q2 5 6 4z" glyph-name="fraction" horiz-adv-x="445" unicode="⁄"/><glyph d="M139 303q23 -135 100 -219t192 -84q143 0 233 141q5 7 12 3q8 -5 3 -12q-98 -149 -248 -149q-122 0 -204.5 88t-104.5 227h-86q-8 0 -8 8q0 9 8 9h91q12 0 12 -12zM431 750q-115 0 -192 -84t-100 -219q0 -12 -12 -12h-91q-8 0 -8 8q0 9 8 9h86q22 139 104.5 227t204.5 88 q150 0 248 -149q5 -7 -3 -12q-7 -4 -12 3q-90 141 -233 141zM610 435h-420q-9 0 -9 8q0 9 9 9h420q9 0 9 -9q0 -8 -9 -8zM525 298h-335q-9 0 -9 8q0 9 9 9h335q9 0 9 -9q0 -8 -9 -8z" glyph-name="Euro" horiz-adv-x="721" unicode="€"/><glyph d="M178 600h-8v150h9l67 -141l67 141h9v-150h-8v134l-65 -134h-6l-65 134v-134zM40 743v7h117v-7h-54v-143h-8v143h-55z" glyph-name="trademark" horiz-adv-x="362" unicode="™"/><glyph d="M824 375q0 -118 -64 -215t-168 -143h215v-17h-262v17q115 36 188 135t73 223q0 155 -109.5 265t-264.5 110t-264.5 -110t-109.5 -265q0 -125 73 -223.5t189 -134.5v-17h-263v17h215q-104 47 -168 143.5t-64 214.5q0 162 115 277t277 115t277 -115t115 -277z" glyph-name="uni2126" horiz-adv-x="864" unicode="Ω"/><glyph d="M601 235q-12 -114 -93 -184q-71 -65 -187 -68q-121 0 -201 80t-80 200q0 119 81 199.5t194 80.5q110 0 180 -56t94 -134l3 2q0 106 -27 186t-71.5 123.5t-94.5 64.5t-103 21q-36 0 -88 -12.5t-89 -28.5v19q31 15 84.5 27t92.5 12q57 0 109.5 -21t101.5 -67.5t77.5 -136 t24.5 -211.5q-1 -26 -8 -96zM584 263q0 111 -76 187t-187 76q-110 0 -186.5 -76.5t-76.5 -186.5t76.5 -186.5t186.5 -76.5q111 0 187 76t76 187z" glyph-name="partialdiff" horiz-adv-x="650" unicode="∂"/><glyph d="M20 0l267 750h18l267 -750h-552zM44 17h503l-251 705z" glyph-name="uni2206" horiz-adv-x="592" unicode="∆"/><glyph d="M600 733h-153v-733h-17v733h-239v-733h-17v733h-154v17h580v-17z" glyph-name="product" horiz-adv-x="620" unicode="∏"/><glyph d="M531 17v-17h-511v17l358 358l-358 357v18h511v-17h-487l359 -358l-359 -358h487z" glyph-name="summation" horiz-adv-x="551" unicode="∑"/><glyph d="M629 281h-578q-9 0 -9 8q0 9 9 9h578q8 0 8 -9q0 -8 -8 -8z" glyph-name="minus" horiz-adv-x="679" unicode="−"/><glyph d="M79 267l101 -243l302 726h19l-312 -750h-17l-101 243l-25 -59l-16 7l32 76h17z" glyph-name="radical" horiz-adv-x="531" unicode="√"/><glyph d="M50 290q0 35 25 60t60 25t60 -25l48 -48l48 48q27 25 62 25t59.5 -25t24.5 -60t-25 -60.5t-59 -25.5q-36 0 -62 26l-48 48l-48 -48q-24 -26 -60 -26q-35 0 -60 25.5t-25 60.5zM255 290l48 -48q25 -21 50 -21q28 0 47.5 20t19.5 49q0 28 -19.5 48t-47.5 20q-27 0 -50 -20z M67 290q0 -28 20 -48.5t48 -20.5q27 0 48 21l48 48l-48 48q-20 20 -48 20t-48 -20t-20 -48z" glyph-name="infinity" horiz-adv-x="487" unicode="∞"/><glyph d="M135 -54v687q0 56 39 86.5t97 30.5v-17q-51 0 -85 -27.5t-34 -72.5v-687q0 -56 -39.5 -86.5t-97.5 -30.5v17q51 0 85.5 27.5t34.5 72.5z" glyph-name="integral" horiz-adv-x="286" unicode="∫"/><glyph d="M50 365v20q67 38 146 38q80 0 144 -38q65 -42 145 -42t145 42v-21q-66 -38 -145 -38q-78 0 -145 39q-64 41 -144 41q-82 0 -146 -41zM196 254q77 0 144 -40q66 -41 145 -41t145 41v-19q-63 -39 -145 -39q-81 0 -145 39q-68 42 -144 42q-78 0 -146 -42v20q72 39 146 39z " glyph-name="approxequal" horiz-adv-x="680" unicode="≈"/><glyph d="M550 489l-105 -105h184q8 0 8 -9q0 -8 -8 -8h-201l-154 -154h355q8 0 8 -9q0 -8 -8 -8h-372l-115 -116q-7 -6 -13 0t0 13l103 103h-181q-9 0 -9 8q0 9 9 9h198l155 154h-353q-9 0 -9 8q0 9 9 9h370l117 117q6 6 12 0t0 -12z" glyph-name="notequal" horiz-adv-x="679" unicode="≠"/><glyph d="M32 375q0 7 7 11l335 199q8 6 13 -1t-3 -13l-332 -196l332 -196q8 -6 3 -13t-13 -1l-335 199q-7 4 -7 11zM381 0h-340q-9 0 -9 8q0 9 9 9h340q8 0 8 -9q0 -8 -8 -8z" glyph-name="lessequal" horiz-adv-x="421" unicode="≤"/><glyph d="M389 375q0 -7 -7 -11l-335 -199q-8 -6 -13 1t3 13l332 196l-332 196q-8 6 -3 13t13 1l335 -199q7 -4 7 -11zM380 0h-340q-8 0 -8 8q0 9 8 9h340q9 0 9 -9q0 -8 -9 -8z" glyph-name="greaterequal" horiz-adv-x="421" unicode="≥"/><glyph d="M288 0h-18l-230 375l231 375h16l230 -375zM61 375l218 -356l218 356l-218 356z" glyph-name="lozenge" horiz-adv-x="557" unicode="◊"/><glyph glyph-name="uniF8FF" horiz-adv-x="500" unicode=""/><glyph d="M100 579h298q12 0 12 -12v-566q0 -9 -9 -9q-8 0 -8 9v561h-374q-9 0 -9 8q0 9 9 9h64v61q0 53 38 90t91 37q58 0 93 -41q5 -6 -1 -12t-11 0q-34 37 -81 37q-46 0 -79 -32.5t-33 -78.5v-61zM389 754q0 13 13 13t13 -13t-13 -13t-13 13zM83 511q0 9 8 9q9 0 9 -9v-510 q0 -9 -9 -9q-8 0 -8 9v510z" glyph-name="uniFB01" horiz-adv-x="470" unicode="ﬁ"/><glyph d="M393 733h-174q-49 0 -84 -35.5t-35 -84.5v-34h169q9 0 9 -9q0 -8 -9 -8h-250q-9 0 -9 8q0 9 9 9h64v34q0 57 40 97t96 40h179q12 0 12 -12v-737q0 -9 -9 -9q-8 0 -8 9v732zM83 511q0 9 8 9q9 0 9 -9v-510q0 -9 -9 -9q-8 0 -8 9v510z" glyph-name="uniFB02" horiz-adv-x="470" unicode="ﬂ"/><glyph d="M293 714q-34 37 -81 37q-46 0 -79 -32.5t-33 -78.5v-61h294v61q0 53 38 90t91 37q58 0 93 -41q6 -6 -1 -12q-5 -6 -11 0q-34 37 -81 37q-46 0 -79 -32.5t-33 -78.5v-61h298q12 0 12 -12v-566q0 -9 -9 -9q-8 0 -8 9v561h-685q-9 0 -9 8q0 9 9 9h64v61q0 53 38 90t91 37 q58 0 93 -41q5 -6 -1 -12t-11 0zM83 511q0 9 8 9q9 0 9 -9v-510q0 -9 -9 -9q-8 0 -8 9v510zM394 511q0 9 8 9q9 0 9 -9v-510q0 -9 -9 -9q-8 0 -8 9v510zM700 754q0 13 13 13t13 -13t-13 -13t-13 13z" glyph-name="uniFB03" horiz-adv-x="781" unicode="ﬃ"/><glyph d="M293 714q-34 37 -81 37q-46 0 -79 -32.5t-33 -78.5v-61h293v34q0 57 40 97t96 40h179q12 0 12 -12v-737q0 -9 -9 -9q-8 0 -8 9v732h-174q-49 0 -84 -35.5t-35 -84.5v-34h169q9 0 9 -9q0 -8 -9 -8h-560q-9 0 -9 8q0 9 9 9h64v61q0 53 38 90t91 37q58 0 93 -41q5 -6 -1 -12 t-11 0zM83 511q0 9 8 9q9 0 9 -9v-510q0 -9 -9 -9q-8 0 -8 9v510zM393 511q0 9 8 9q9 0 9 -9v-510q0 -9 -9 -9q-8 0 -8 9v510z" glyph-name="uniFB04" horiz-adv-x="780" unicode="ﬄ"/><glyph d="M653 290q0 -128 -89.5 -217.5t-217.5 -89.5q-127 0 -216.5 90t-89.5 217t89.5 216.5t216.5 89.5t217 -89.5t90 -216.5zM640 290q0 122 -86 207.5t-208 85.5q-121 0 -207 -86t-86 -207q0 -122 86 -208t207 -86q122 0 208 86t86 208zM232 86q-9 0 -9 10v372q0 13 13 13h160 q50 0 85 -35t35 -85q0 -49 -35 -84.5t-85 -35.5h-155v-145q0 -10 -9 -10zM241 463v-204h155q42 0 72 30t30 72t-30 72t-72 30h-155z" glyph-name="uniFB05" unicode="ﬅ"/><glyph d="M580 562h-561q-9 0 -9 8q0 9 9 9h64v61q0 53 38 90t91 37q58 0 93 -41q5 -6 -1 -12t-11 0q-34 37 -81 37q-46 0 -79 -32.5t-33 -78.5v-61h293v130q0 9 8 9q9 0 9 -9v-130h170q9 0 9 -9q0 -8 -9 -8zM83 511q0 9 8 9q9 0 9 -9v-510q0 -9 -9 -9q-8 0 -8 9v510zM410 511v-375 q0 -49 35 -84t84 -35h51q9 0 9 -9q0 -8 -9 -8h-51q-56 0 -96 40t-40 96v375q0 9 8 9q9 0 9 -9z" glyph-name="uniFB06" horiz-adv-x="601" unicode="ﬆ"/><glyph d="M580 562h-559q-9 0 -9 8q0 9 9 9h67v130q0 9 8 9q9 0 9 -9v-130h288v130q0 9 8 9q9 0 9 -9v-130h170q9 0 9 -9q0 -8 -9 -8zM105 511v-375q0 -49 35 -84t84 -35h51q9 0 9 -9q0 -8 -9 -8h-51q-56 0 -96 40t-40 96v375q0 9 8 9q9 0 9 -9zM410 511v-375q0 -49 35 -84t84 -35 h51q9 0 9 -9q0 -8 -9 -8h-51q-56 0 -96 40t-40 96v375q0 9 8 9q9 0 9 -9z" glyph-name="uniFB07" horiz-adv-x="601" unicode="﬇"/><glyph glyph-name="glyph317" horiz-adv-x="501"/></font>
</defs>
</svg>
