<?xml version="1.0" standalone="no"?>
<!DOCTYPE svg PUBLIC "-//W3C//DTD SVG 1.1//EN" "http://www.w3.org/Graphics/SVG/1.1/DTD/svg11.dtd" >
<svg xmlns="http://www.w3.org/2000/svg">
<metadata></metadata>
<defs>
<font id="kroppen_roundbold_oblique" horiz-adv-x="1341" >
<font-face units-per-em="2048" ascent="1638" descent="-410" />
<missing-glyph horiz-adv-x="552" />
<glyph horiz-adv-x="0" />
<glyph horiz-adv-x="682" />
<glyph unicode=" "  horiz-adv-x="552" />
<glyph unicode="&#x09;" horiz-adv-x="552" />
<glyph unicode="&#xa0;" horiz-adv-x="552" />
<glyph unicode="!" horiz-adv-x="528" d="M272 1434q4 49 50 83.5t104 34.5q57 0 94 -34.5t33 -83.5l-127 -938q-5 -39 -40.5 -67t-80.5 -28q-46 0 -76.5 28.5t-25.5 66.5zM436 143q-7 -67 -58 -112t-116 -45t-106.5 45t-34.5 112q6 64 57.5 109t116.5 45t106 -45t35 -109z" />
<glyph unicode="&#x22;" horiz-adv-x="632" d="M102 1032v447q0 32 21.5 52.5t52.5 20.5t52.5 -20.5t21.5 -52.5v-447q0 -30 -21.5 -50.5t-52.5 -20.5t-52.5 20.5t-21.5 50.5zM383 1032v447q0 32 21.5 52.5t52.5 20.5t52 -20.5t21 -52.5v-447q0 -31 -21 -51t-52 -20t-52.5 20.5t-21.5 50.5z" />
<glyph unicode="#" horiz-adv-x="1269" d="M86 592q3 29 26 49.5t52 20.5h270l68 210h-316q-29 0 -47.5 20.5t-15.5 49.5t26 49.5t52 20.5h344l147 469q11 29 38 50t56 21t43.5 -21t4.5 -50l-148 -469h209l147 469q11 29 38.5 50t56.5 21t43 -21t4 -50l-148 -469h242q29 0 48.5 -20.5t16.5 -49.5t-26.5 -49.5 t-52.5 -20.5h-275l-67 -210h319q30 0 49.5 -20.5t16.5 -49.5t-26.5 -48.5t-53.5 -19.5h-348l-148 -469q-11 -29 -38 -50t-56 -21t-43 21t-4 50l151 469h-211l-149 -469q-11 -30 -37 -50.5t-55 -20.5t-42.5 21t-2.5 50l147 469h-241q-30 0 -48.5 19.5t-15.5 48.5zM852 872 h-211l-66 -210h209z" />
<glyph unicode="$" horiz-adv-x="1312" d="M932 371q41 44 46.5 94t-36 97.5t-129.5 72.5l-256 63q-181 53 -266.5 149t-67.5 263q15 117 92 213q32 44 89 51t106 -24q47 -34 58.5 -87t-19.5 -96q-29 -35 -30.5 -73t34 -74.5t106.5 -56.5l240 -62q99 -26 170 -61t123.5 -86.5t74 -124.5t11.5 -168 q-17 -170 -162 -299q-38 -35 -93 -31t-93 47q-38 44 -38 101t40 92zM778 -80q-3 -35 -46 -60.5t-101 -25.5t-95 25t-34 61l10 90q-214 27 -367 150q-37 31 -37 84t37 104q39 43 94 56.5t91 -13.5q140 -117 348 -117q58 0 96 -25.5t33 -60.5zM780 1257q-58 0 -95 26t-32 63 l25 235q3 37 45 62.5t100 25.5t96 -25.5t35 -62.5l-6 -55q191 -32 322 -125q39 -28 43.5 -78t-29.5 -102q-34 -50 -86 -69.5t-92 5.5q-79 53 -154 76.5t-172 23.5z" />
<glyph unicode="%" horiz-adv-x="1863" d="M999 1180q-11 -107 -74 -197.5t-160 -143.5t-204 -53q-161 0 -267 116t-89 278q17 160 147 275.5t291 115.5q163 0 268 -115t88 -276zM1819 360q-17 -162 -146.5 -277.5t-292.5 -115.5q-161 0 -267 115.5t-89 277.5q11 105 75 196t161 143.5t202 52.5q163 0 268.5 -115.5 t88.5 -276.5zM780 1180q8 74 -38 126t-121 52q-71 0 -130.5 -52.5t-66.5 -125.5q-7 -74 41 -127.5t119 -53.5q75 0 131.5 53t64.5 128zM1599 360q8 74 -38.5 126.5t-120.5 52.5q-71 0 -130.5 -53t-66.5 -126q-7 -74 41 -127t119 -53q75 0 131.5 52.5t64.5 127.5zM410 152 l1058 1366q23 28 64.5 32.5t73.5 -18.5q30 -25 36 -64t-18 -67l-1059 -1366q-24 -30 -63.5 -34.5t-69.5 19.5q-33 25 -39.5 63.5t17.5 68.5z" />
<glyph unicode="&#x26;" horiz-adv-x="1370" d="M350 1167q19 171 152.5 287.5t304.5 116.5t279.5 -116.5t91.5 -285.5q-19 -165 -153.5 -283t-301.5 -118q-109 0 -193 -76.5t-96 -185.5q-11 -109 57.5 -185.5t176.5 -76.5q29 0 49 4q50 9 89 -20t48 -85q8 -57 -18.5 -104t-73.5 -59q-62 -15 -123 -15q-116 0 -215.5 40 t-167.5 110.5t-101 172.5t-20 220q16 156 103.5 275t221 181t290.5 62q58 0 103.5 41t51.5 100q6 57 -32 97.5t-95 40.5t-101.5 -39t-51.5 -99q-4 -43 -47.5 -72.5t-100.5 -29.5t-94 29.5t-33 72.5zM1223 244h32q45 0 72 -37.5t21 -93.5t-40 -92.5t-79 -36.5h-45 q-129 0 -196.5 82t-53.5 213l35 335q14 131 98 213t213 82h45q45 0 71.5 -36.5t22.5 -92.5q-6 -56 -41 -93.5t-80 -37.5h-32q-14 0 -27 -11t-14 -24l-35 -335q-1 -13 9 -24t24 -11z" />
<glyph unicode="'" horiz-adv-x="352" d="M102 1032v447q0 32 21.5 52.5t52.5 20.5t52.5 -20.5t21.5 -52.5v-447q0 -30 -21.5 -50.5t-52.5 -20.5t-52.5 20.5t-21.5 50.5z" />
<glyph unicode="(" horiz-adv-x="638" d="M539 -299q10 -29 -12 -59.5t-62 -44.5q-38 -15 -72 -5t-41 39q-88 206 -121.5 456t-5.5 501q26 252 111.5 501t216.5 455q13 29 49.5 39.5t71.5 -4.5q37 -14 52.5 -44.5t-1.5 -59.5q-129 -224 -196 -420t-95 -467q-15 -141 -15.5 -258.5t15 -224.5t40 -200t65.5 -204z " />
<glyph unicode=")" horiz-adv-x="638" d="M35 -299q129 224 196.5 419.5t96.5 467.5q28 272 1.5 467.5t-108.5 419.5q-10 29 13 59.5t63 44.5q38 15 72 4.5t41 -39.5q87 -205 120 -454t7 -502q-28 -254 -113 -503.5t-215 -453.5q-13 -29 -49.5 -39t-71.5 5q-37 14 -53.5 44.5t0.5 59.5z" />
<glyph unicode="*" horiz-adv-x="747" d="M426 1133q0 10 29 110q-77 -64 -93 -72q-19 -11 -39 -2t-32 35q-12 25 -6.5 49t24.5 33q17 9 111 39q-86 30 -105 39q-16 9 -16 33t18 49q15 25 38 34.5t38 -1.5q12 -6 80 -74q-8 102 -8 113q3 21 23 35t49 14t46.5 -14.5t14.5 -34.5q0 -11 -31 -113q80 66 95 74 q19 10 39 1t34 -34q10 -26 4.5 -49.5t-24.5 -32.5q-18 -9 -109 -39q84 -29 103 -39q16 -9 16.5 -32t-16.5 -50q-17 -25 -40 -34.5t-38 1.5q-12 6 -82 74q10 -102 10 -112q-3 -21 -24 -35.5t-50 -14.5t-45.5 14.5t-13.5 35.5z" />
<glyph unicode="+" horiz-adv-x="1392" d="M86 592q0 43 25.5 73.5t60.5 30.5h422v420q0 35 30.5 60.5t73.5 25.5t74 -25.5t31 -60.5v-420h418q35 0 60.5 -30.5t25.5 -73.5t-25.5 -74t-60.5 -31h-418v-417q0 -35 -31 -60.5t-74 -25.5t-73.5 25.5t-30.5 60.5v417h-422q-35 0 -60.5 31t-25.5 74z" />
<glyph unicode="," horiz-adv-x="561" d="M72 -184q3 26 21.5 43.5t43.5 17.5q45 0 78 31t39 80q-10 -4 -27 -4q-65 0 -106.5 46.5t-34.5 110.5q6 64 57.5 111t116.5 47q64 0 105.5 -46.5t35.5 -111.5l-16 -151q-11 -98 -86 -168t-174 -70q-25 0 -40.5 19t-12.5 45z" />
<glyph unicode="-" horiz-adv-x="952" d="M188 592q4 43 33 73.5t64 30.5h528q35 0 57.5 -30.5t18.5 -73.5q-5 -43 -33 -74t-63 -31h-529q-35 0 -57.5 31t-18.5 74z" />
<glyph unicode="." horiz-adv-x="561" d="M227 -16q-65 0 -106.5 46.5t-34.5 110.5q6 64 57.5 111t116.5 47q64 0 105.5 -46.5t35.5 -111.5q-8 -65 -59 -111t-115 -46z" />
<glyph unicode="/" horiz-adv-x="966" d="M121 82l749 1434q13 25 44 33.5t59 -5.5q26 -12 36 -39.5t-3 -50.5l-750 -1434q-15 -26 -44.5 -34t-55.5 6q-28 12 -38 38.5t3 51.5z" />
<glyph unicode="0" horiz-adv-x="1312" d="M1313 1030l-56 -526q-11 -109 -65.5 -209t-135.5 -172t-187 -115t-216 -43q-111 0 -208.5 43t-164 115t-100 172t-22.5 209l55 526q16 146 103.5 270.5t222 197.5t282.5 73q110 0 207 -43t163.5 -115.5t100 -173t21.5 -209.5zM971 504l55 526q12 107 -57 183.5t-176 76.5 q-109 0 -195 -76.5t-98 -183.5l-56 -526q-11 -107 59 -183.5t179 -76.5q108 0 193.5 76.5t95.5 183.5z" />
<glyph unicode="1" horiz-adv-x="843" d="M444 106l113 1082l-168 -98q-41 -25 -87 -10t-71 61q-23 44 -9.5 93.5t54.5 72.5l373 219q44 26 90 26q60 0 98 -35.5t33 -86.5l-139 -1324q-6 -51 -51 -86.5t-105 -35.5t-98.5 35.5t-32.5 86.5z" />
<glyph unicode="2" horiz-adv-x="1247" d="M190 1047q25 226 196 375t400 149q150 0 267 -62t178 -178t45 -264q-11 -113 -78 -215.5t-166 -179.5l-471 -391h483q50 0 80.5 -41t24.5 -99q-6 -59 -45 -100t-88 -41h-756q-62 0 -100 52.5t-31 125.5q9 94 84 152l659 551q94 88 105 186q10 101 -53 164t-166 63 q-100 0 -179 -71t-92 -176q-4 -52 -51.5 -89.5t-109.5 -37.5q-61 0 -101 37t-35 90z" />
<glyph unicode="3" horiz-adv-x="1222" d="M823 674q-33 31 -27 86t46 100q40 46 95 58.5t91 -17.5q87 -69 131 -178t31 -238q-15 -147 -100 -266.5t-216 -186.5t-280 -67q-187 0 -317.5 116.5t-151.5 293.5q-6 48 30.5 90.5t94.5 52.5q57 12 103 -13.5t50 -72.5q9 -83 70.5 -136.5t149.5 -53.5q100 0 179 71 t89 172q12 106 -68 189zM408 946l348 314h-346q-48 0 -78.5 40t-24.5 97t45 98t86 41h682q51 0 83 -42.5t26 -102.5q-6 -64 -58 -113l-587 -528q-37 -34 -89 -28.5t-89 46.5q-37 40 -36 92t38 86z" />
<glyph unicode="4" horiz-adv-x="1216" d="M797 801l26 252l-411 -496h718q49 0 80 -41t25 -98t-45 -98t-88 -41h-70l-18 -173q-6 -51 -52 -86.5t-106 -35.5t-99.5 35.5t-33.5 86.5l18 173h-526q-67 0 -109 54t-34 132q9 73 53 123l700 889q62 75 162 75q74 0 121.5 -44t40.5 -107l-62 -600q-6 -52 -52.5 -87.5 t-106.5 -35.5t-98.5 35.5t-32.5 87.5z" />
<glyph unicode="5" horiz-adv-x="1249" d="M811 1040q225 -33 328.5 -176t79.5 -360q-25 -231 -203.5 -385t-415.5 -154q-194 0 -327 106.5t-162 280.5q-10 55 30.5 105t98.5 61q60 12 106 -14.5t49 -75.5q17 -81 82 -133.5t152 -52.5q109 0 195 77t96 185q10 91 -41 160.5t-140 93.5q-49 13 -76 54.5t-16 98.5 q9 56 59 97t105 32zM238 836l163 583q12 51 56 84t102 33h508q49 0 79.5 -42t24.5 -99t-45 -98.5t-88 -41.5h-399l-131 -473q-15 -46 -64.5 -72t-105.5 -14q-55 10 -84.5 52t-15.5 88z" />
<glyph unicode="6" horiz-adv-x="1288" d="M821 748q-41 20 -49 70t21 104q27 53 77.5 76t92.5 3q148 -62 231 -193.5t66 -299.5q-17 -153 -106 -278t-225 -195t-290 -70q-115 0 -214 41t-167.5 112.5t-102 173t-20.5 216.5q14 141 101 270l516 725q26 41 80.5 48.5t105.5 -23.5q43 -28 51.5 -79t-20.5 -97 l-473 -699q-55 -80 -60 -145q-12 -109 56 -186.5t176 -77.5t192 77.5t96 186.5q7 76 -29.5 141t-105.5 99z" />
<glyph unicode="7" horiz-adv-x="1138" d="M334 160l571 1097h-618q-49 0 -80 41.5t-25 98.5t45 98t88 41h779q49 0 83.5 -27t48 -68t8.5 -91.5t-30 -96.5l-624 -1200q-23 -44 -76 -61.5t-103 4.5q-52 23 -71.5 70.5t4.5 93.5z" />
<glyph unicode="8" horiz-adv-x="1310" d="M1276 463q-15 -149 -104.5 -263.5t-225.5 -174.5t-295 -60t-282.5 60t-189 174.5t-50.5 263.5q16 148 105.5 258.5t224.5 165.5t295 55q102 0 168.5 42t76.5 132q9 90 -48 132t-158 42q-103 0 -170.5 -44t-77.5 -140q-2 -48 -37.5 -90t-93.5 -55q-86 -14 -125 31t-31 124 q14 138 94.5 242.5t203 158.5t265.5 54t254 -54t170 -158.5t45 -242.5q-15 -138 -96.5 -242.5t-204.5 -158t-266 -53.5q-126 0 -207 -49.5t-92 -159.5t59.5 -159.5t196.5 -49.5t208 49.5t93 159.5q3 29 0 61q-9 47 25.5 93.5t95.5 64.5q56 12 92.5 1.5t56 -44.5t25.5 -75.5 t0 -90.5z" />
<glyph unicode="9" horiz-adv-x="1288" d="M627 786q40 -20 48.5 -70t-20.5 -104t-79.5 -77t-90.5 -3q-148 62 -231.5 194t-65.5 300q25 232 205 387.5t416 155.5q234 0 381 -155.5t123 -387.5q-14 -137 -103 -270l-514 -725q-28 -41 -81.5 -48.5t-104.5 23.5q-43 28 -51.5 79t20.5 97l473 699q52 76 60 145 q12 109 -56 186.5t-176 77.5t-192 -77.5t-96 -186.5q-7 -76 29.5 -141t105.5 -99z" />
<glyph unicode=":" horiz-adv-x="561" d="M401 141q-8 -65 -59 -111t-115 -46q-65 0 -106.5 46.5t-34.5 110.5q6 64 57.5 111t116.5 47q64 0 105.5 -46.5t35.5 -111.5zM180 1044q8 65 59 111.5t115 46.5q65 0 107 -47t35 -111q-6 -64 -57.5 -110.5t-116.5 -46.5q-64 0 -106 46t-36 111z" />
<glyph unicode=";" horiz-adv-x="561" d="M180 1044q8 65 59 111.5t115 46.5q65 0 107 -47t35 -111q-6 -64 -57.5 -110.5t-116.5 -46.5q-64 0 -106 46t-36 111zM72 -184q3 26 21.5 43.5t43.5 17.5q45 0 78 31t39 80q-10 -4 -27 -4q-65 0 -106.5 46.5t-34.5 110.5q6 64 57.5 111t116.5 47q64 0 105.5 -46.5 t35.5 -111.5l-16 -151q-11 -98 -86 -168t-174 -70q-25 0 -40.5 19t-12.5 45z" />
<glyph unicode="&#x3c;" horiz-adv-x="884" d="M778 268q32 -18 39 -58.5t-14 -76.5q-22 -39 -59 -53t-68 6l-526 371q-33 20 -58.5 56.5t-25.5 78.5t25.5 78.5t58.5 56.5l526 371q31 20 68 6t59 -53q21 -36 14 -77t-39 -59l-475 -317v-12z" />
<glyph unicode="=" horiz-adv-x="1392" d="M86 768q0 43 25.5 73.5t60.5 30.5h1049q35 0 60.5 -30.5t25.5 -73.5t-25.5 -73.5t-60.5 -30.5h-1049q-35 0 -60.5 30.5t-25.5 73.5zM86 420q0 43 25.5 73.5t60.5 30.5h1049q35 0 60.5 -30.5t25.5 -73.5t-25.5 -74t-60.5 -31h-1049q-35 0 -60.5 31t-25.5 74z" />
<glyph unicode="&#x3e;" horiz-adv-x="884" d="M106 268l476 318v12l-476 317q-32 18 -38.5 59t14.5 77q22 39 59 53t68 -6l526 -371q33 -20 58.5 -56.5t25.5 -78.5t-25.5 -78.5t-58.5 -56.5l-526 -371q-31 -20 -68 -6t-59 53q-21 36 -14.5 76.5t38.5 58.5z" />
<glyph unicode="?" horiz-adv-x="1210" d="M498 473l22 211q5 51 48 87t102 36q100 0 179 71.5t91 174.5q9 101 -55 172t-164 71q-87 0 -159.5 -53t-100.5 -137q-13 -47 -64.5 -72.5t-105.5 -13.5q-55 10 -83 52.5t-13 90.5q58 177 213 293.5t342 116.5q111 0 207.5 -39.5t162 -108t98 -165.5t21.5 -207 q-21 -190 -154 -329t-305 -169l-8 -82q-6 -53 -48.5 -88t-102.5 -35t-94.5 35t-28.5 88zM756 141q-8 -65 -58 -111t-114 -46q-66 0 -108 46t-34 111q6 65 57 111.5t117 46.5q64 0 105 -46.5t35 -111.5z" />
<glyph unicode="@" horiz-adv-x="1789" d="M922 367q-168 0 -272 118t-87 283q11 109 75 201.5t162.5 146t207.5 53.5q166 0 270.5 -117.5t87.5 -283.5l-8 -78q-3 -34 16.5 -57t52.5 -23q34 0 60 23t29 57l8 78q16 151 -45.5 280t-182.5 204t-272 75q-152 0 -288.5 -75t-225 -204t-104.5 -280t45 -280t181.5 -204 t272.5 -75q112 0 205 37q40 15 79.5 -7.5t53.5 -66.5q15 -49 -4.5 -93t-62.5 -61q-148 -53 -295 -53q-218 0 -392 108t-262 293t-65 402q17 163 96.5 311.5t198 256t274 171.5t318.5 64t305 -64t238 -171.5t144 -256t31 -311.5l-8 -78q-13 -133 -118.5 -228t-239.5 -95 q-133 0 -217 94.5t-70 228.5l8 78q6 65 -35.5 111.5t-105.5 46.5q-65 0 -116.5 -47t-57.5 -111q-7 -64 34.5 -111t106.5 -47q41 0 67 -36t21 -87q-6 -51 -39 -85.5t-75 -34.5z" />
<glyph unicode="A" horiz-adv-x="1458" d="M956 715l-102 407h-16l-510 -1067q-26 -46 -80 -63t-111 2q-52 23 -72.5 72t1.5 96l639 1292q27 47 80 73t107 26t101.5 -26t63.5 -73l180 -633q11 -48 -18 -96.5t-86 -71.5q-60 -19 -112.5 -1t-64.5 63zM618 420q6 58 45 98.5t89 40.5h454q52 0 88.5 -27t42.5 -69 l88 -301q12 -48 -19 -96.5t-89 -71.5q-60 -19 -110.5 -2t-67.5 63l-74 224h-342q-50 0 -80.5 41.5t-24.5 99.5z" />
<glyph unicode="B" horiz-adv-x="1421" d="M596 774q6 58 44.5 98.5t88.5 40.5h213q206 0 335.5 -128.5t108.5 -327.5q-14 -132 -91 -237.5t-195 -162.5t-252 -57h-580q-60 0 -99.5 36t-33.5 87l135 1290q4 51 51 87t107 36h545q125 0 223.5 -53t150 -149.5t39.5 -215.5q-4 -51 -20 -84q-27 -47 -80 -66t-112 1 q-45 17 -69 54.5t-22 80.5q3 63 -36.5 107t-102.5 44h-399l-103 -976h435q80 0 141.5 51t68.5 127t-43.5 126t-130.5 50h-213q-49 0 -79.5 41t-24.5 100z" />
<glyph unicode="C" horiz-adv-x="1601" d="M1331 430q37 39 91.5 40.5t97.5 -36.5q40 -37 42.5 -93t-34.5 -93q-136 -136 -299 -209.5t-338 -73.5q-168 0 -313.5 62t-244.5 168.5t-148.5 256t-32.5 316.5t98 316.5t202.5 256t280 168.5t326.5 62q175 0 323.5 -74t255.5 -209q28 -36 14 -93t-63 -93 q-51 -38 -104 -36.5t-84 40.5q-42 44 -76 73.5t-79 56.5t-98.5 40.5t-117.5 13.5q-142 0 -269.5 -69.5t-210 -190t-97.5 -262.5t42 -262.5t170 -190t255 -69.5q120 0 211 45.5t200 138.5z" />
<glyph unicode="D" horiz-adv-x="1517" d="M133 106l137 1307q4 51 51 87t107 36h389q164 0 304 -59.5t234 -161.5t140 -246.5t29 -308.5t-93 -308.5t-191.5 -246.5t-268 -161.5t-316.5 -59.5q-51 0 -82.5 40.5t-25.5 98.5t46 98.5t91 40.5q132 0 251.5 67.5t197 182.5t90.5 248q14 132 -39 246t-159 181.5 t-237 67.5h-243l-121 -1149q-6 -51 -52 -86.5t-106 -35.5t-99.5 35.5t-33.5 86.5z" />
<glyph unicode="E" horiz-adv-x="1333" d="M135 123l70 663q4 51 50.5 87t106.5 36h736q51 0 82.5 -41t25.5 -100q-6 -58 -46 -98.5t-91 -40.5h-590l-37 -350h732q51 0 82.5 -41t25.5 -99t-46 -98.5t-91 -40.5h-877q-60 0 -99.5 36t-33.5 87zM244 1153l26 260q4 51 51 87t107 36h877q51 0 82.5 -41t25.5 -100 q-6 -58 -46 -99t-91 -41h-731l-10 -102q-6 -51 -53 -87t-107 -36t-98.5 36t-32.5 87z" />
<glyph unicode="F" horiz-adv-x="1245" d="M133 106l72 680q4 51 50.5 87t106.5 36h701q51 0 82.5 -41t25.5 -100q-6 -58 -46 -98.5t-91 -40.5h-555l-55 -523q-6 -51 -52 -86.5t-106 -35.5t-99.5 35.5t-33.5 86.5zM244 1153l26 260q4 51 51 87t107 36h840q51 0 82.5 -41t25.5 -100q-6 -58 -46 -99t-91 -41h-694 l-10 -102q-6 -51 -53 -87t-107 -36t-98.5 36t-32.5 87z" />
<glyph unicode="G" horiz-adv-x="1619" d="M963 770q6 58 44.5 98.5t88.5 40.5h358q60 0 99 -36t34 -87l-53 -499q-3 -45 -43 -80q-124 -115 -279.5 -178.5t-320.5 -63.5q-168 0 -313.5 62t-244.5 168.5t-148.5 256t-32.5 316.5t98 316.5t202.5 256t280 168.5t326.5 62q301 0 520 -213q32 -35 22.5 -88t-55.5 -94 q-46 -42 -99.5 -47t-84.5 30q-134 131 -332 131q-141 0 -268.5 -69.5t-210.5 -190t-98 -262.5q-15 -143 42.5 -264t170.5 -190.5t254 -69.5q187 0 346 118l28 267h-227q-49 0 -79.5 41t-24.5 100z" />
<glyph unicode="H" horiz-adv-x="1452" d="M1346 1552q60 0 98.5 -35t34.5 -87l-72 -678q-6 -52 -52 -87.5t-106 -35.5h-770l-55 -523q-6 -52 -52 -87t-106 -35q-61 0 -100 35t-33 87l72 680q4 52 50 87.5t107 35.5h771l55 521q4 52 50.5 87t107.5 35zM1339 106q-6 -51 -51.5 -86.5t-105.5 -35.5t-99.5 35.5 t-33.5 86.5l28 279q6 52 52.5 87.5t107.5 35.5q60 0 98.5 -35.5t32.5 -87.5zM272 1430q4 51 51 86.5t107 35.5t98.5 -35.5t34.5 -86.5l-28 -277q-6 -52 -52.5 -87.5t-107.5 -35.5q-60 0 -98.5 35.5t-32.5 87.5z" />
<glyph unicode="I" horiz-adv-x="536" d="M133 106l139 1324q4 51 51 86.5t107 35.5t98.5 -35.5t34.5 -86.5l-139 -1324q-6 -52 -52 -87t-106 -35q-61 0 -100 35t-33 87z" />
<glyph unicode="J" horiz-adv-x="1062" d="M799 1430q4 51 50.5 86.5t106.5 35.5t99 -35.5t35 -86.5l-103 -975q-15 -140 -94 -253t-199.5 -175t-257.5 -62q-112 0 -203 46.5t-151 129.5q-29 41 -13.5 98t64.5 91q51 35 104 31t78 -44q50 -71 150 -71q88 0 155 60.5t76 148.5z" />
<glyph unicode="K" horiz-adv-x="1398" d="M913 768l418 -559q29 -37 15.5 -91t-62.5 -95q-51 -38 -103 -39t-81 39l-490 636q-34 43 -28 109q6 64 51 109l622 636q38 40 91 39t94 -39q41 -41 43.5 -95.5t-33.5 -90.5zM133 106l139 1324q4 51 51 86.5t107 35.5t98.5 -35.5t34.5 -86.5l-139 -1324q-6 -51 -52 -86.5 t-106 -35.5t-99.5 35.5t-33.5 86.5z" />
<glyph unicode="L" horiz-adv-x="1257" d="M135 123l137 1307q4 51 51 86.5t107 35.5t98.5 -35.5t34.5 -86.5l-121 -1151h660q51 0 82.5 -41t25.5 -99t-46 -98.5t-91 -40.5h-805q-60 0 -99.5 36t-33.5 87z" />
<glyph unicode="M" horiz-adv-x="1802" d="M133 106l137 1311q6 57 62.5 96t130.5 39q51 0 90.5 -19.5t56.5 -51.5l387 -559l508 565q58 65 160 65q74 0 121 -39t41 -96l-137 -1311q-6 -51 -52 -86.5t-106 -35.5t-99.5 35.5t-33.5 86.5l102 975h-6l-405 -467q-54 -63 -132.5 -63t-119.5 63l-306 467h-6l-102 -975 q-6 -51 -52 -86.5t-106 -35.5t-99.5 35.5t-33.5 86.5z" />
<glyph unicode="N" horiz-adv-x="1452" d="M133 106l137 1313q6 55 61 94t126 39q54 0 95 -24.5t56 -63.5l479 -954h7l94 920q4 51 51 86.5t107 35.5t98.5 -35.5t34.5 -86.5l-140 -1313q-4 -55 -58.5 -94t-125.5 -39q-54 0 -96 22.5t-55 59.5l-480 958h-6l-94 -918q-6 -51 -52 -86.5t-106 -35.5t-99.5 35.5 t-33.5 86.5z" />
<glyph unicode="O" horiz-adv-x="1789" d="M1499 768q15 142 -42 262.5t-170.5 190t-256.5 69.5q-142 0 -269.5 -69.5t-210 -190t-97.5 -262.5q-15 -143 42 -263.5t170 -190.5t255 -70q143 0 271 70t210.5 190.5t97.5 263.5zM1798 768q-17 -167 -98 -316.5t-202.5 -256t-280 -168.5t-326.5 -62q-169 0 -314.5 62 t-244.5 168.5t-148 255.5t-32 317q17 167 97.5 316.5t202 256t280 168.5t327.5 62q168 0 313.5 -62t244.5 -168.5t148.5 -256t32.5 -316.5z" />
<glyph unicode="P" horiz-adv-x="1411" d="M737 768h142q100 0 179 71.5t89 172.5t-53.5 172t-163.5 71h-385l-121 -1149q-6 -51 -52 -86.5t-106 -35.5t-99.5 35.5t-33.5 86.5l137 1307q4 51 51 87t107 36h530q148 0 265 -67.5t177 -188.5t44 -268q-15 -148 -100 -268.5t-215.5 -188.5t-278.5 -68h-141 q-51 0 -83 41.5t-26 100.5q6 58 46 98.5t91 40.5z" />
<glyph unicode="Q" horiz-adv-x="1792" d="M1348 580q63 94 77 204q14 137 -39 253.5t-158 184.5t-237 68q-201 0 -358.5 -148.5t-179.5 -357.5q-15 -137 37.5 -253t157.5 -183t237 -67h643q51 0 82.5 -41.5t25.5 -100.5q-6 -58 -46 -98.5t-91 -40.5h-643q-160 0 -299 62t-233 167t-140.5 250t-29.5 305t94 305.5 t193 251t267.5 168t311.5 62.5t299 -62.5t233 -168t141.5 -251t30.5 -305.5q-9 -77 -38.5 -162t-71.5 -153q-31 -48 -82 -64.5t-107 5.5q-56 25 -78.5 74.5t1.5 95.5z" />
<glyph unicode="R" horiz-adv-x="1421" d="M745 768h134q100 0 179 71.5t89 172.5t-53.5 172t-163.5 71h-385l-121 -1149q-6 -51 -52 -86.5t-106 -35.5t-99.5 35.5t-33.5 86.5l137 1307q4 51 51 87t107 36h530q148 0 265 -67.5t177 -188.5t44 -268q-18 -181 -146 -319t-305 -185l191 -313q24 -43 3.5 -97t-73.5 -88 q-52 -32 -106.5 -26t-79.5 49l-303 508q-22 46 -17 88q6 58 46 98.5t91 40.5z" />
<glyph unicode="S" horiz-adv-x="1312" d="M326 358q168 -141 346 -141q124 0 207 63.5t94 163.5q6 59 -17.5 100t-68.5 64t-105 38.5t-126.5 29.5t-132.5 31.5t-124 49.5t-100.5 78t-62.5 123t-9 179q14 136 96.5 235.5t209 149t280.5 49.5q123 0 247 -36.5t214 -100.5q39 -28 43 -79t-29 -102q-36 -51 -87 -69.5 t-91 6.5q-82 54 -156.5 80t-169.5 26q-237 0 -254 -159q-6 -57 18 -96.5t69 -61.5t105 -38t126.5 -30.5t132.5 -32.5t124 -51t100 -79.5t62 -124t9 -179.5q-23 -222 -199 -350.5t-432 -128.5q-289 0 -498 156l-6 6q-37 31 -36.5 84t38.5 104q39 43 94 56.5t89 -13.5z" />
<glyph unicode="T" horiz-adv-x="1271" d="M637 -16q-60 0 -99.5 35.5t-33.5 86.5l137 1307q4 51 51 87t107 36h489q51 0 83 -41.5t26 -99.5t-46 -99t-91 -41h-347l-120 -1149q-6 -51 -51 -86.5t-105 -35.5zM270 1255q-49 0 -79.5 40.5t-24.5 99.5t45 100t88 41h115q49 0 79.5 -41t24.5 -100q-6 -58 -44.5 -99 t-88.5 -41h-115z" />
<glyph unicode="U" horiz-adv-x="1468" d="M272 1430q4 51 51 86.5t107 35.5t98.5 -35.5t34.5 -86.5l-94 -895q-13 -134 69.5 -215.5t221.5 -81.5t238 81.5t112 215.5l94 895q4 51 51 86.5t107 35.5t98.5 -35.5t34.5 -86.5l-94 -895q-18 -173 -111 -303.5t-238 -198.5t-321 -68q-270 0 -425 154.5t-128 415.5z" />
<glyph unicode="V" horiz-adv-x="1437" d="M1542 1376l-639 -1292q-27 -47 -80 -73t-107 -26t-101.5 26t-63.5 73l-369 1292q-12 47 19.5 96t89.5 72q60 19 110.5 2t67.5 -63l285 -1067h16l510 1067q26 46 79.5 63t110.5 -2q52 -23 73 -72t-1 -96z" />
<glyph unicode="W" horiz-adv-x="1978" d="M1307 1440l153 -920h8l357 950q17 46 70 68.5t108 7.5q56 -15 81 -62t5 -102l-506 -1300q-19 -38 -55.5 -63.5t-78 -31.5t-81.5 0.5t-70.5 31t-40.5 61.5l-157 934h-8l-355 -934q-24 -46 -73 -71.5t-99.5 -25.5t-94.5 25.5t-58 73.5l-236 1300q-7 55 28.5 102t94.5 62 q58 15 106 -7.5t56 -68.5l155 -950h9l346 920q16 43 53.5 72t82 36t87.5 0t74.5 -36t38.5 -72z" />
<glyph unicode="X" horiz-adv-x="1404" d="M1255 1511q36 41 93 42.5t98 -35.5q44 -37 50.5 -91.5t-30.5 -95.5l-1157 -1306q-37 -40 -93 -42t-99 35t-49 92t30 95zM465 1511l223 -329q28 -40 11 -95t-68 -92t-107 -35.5t-84 41.5l-223 330q-28 41 -11 95.5t68 91.5t107.5 35.5t83.5 -42.5zM1124 535l224 -330 q28 -40 10 -95t-70 -92q-49 -37 -104.5 -35t-83.5 42l-223 329q-28 41 -11 95.5t68 91.5t107 36t83 -42z" />
<glyph unicode="Y" horiz-adv-x="1392" d="M694 -16q-61 0 -100 35t-33 87l70 662q3 31 31 63l602 680q36 41 92.5 42.5t97.5 -35.5q45 -37 51 -91t-30 -96l-562 -633l-61 -592q-6 -52 -52 -87t-106 -35zM444 1511l234 -344q29 -40 12 -94.5t-69 -91.5q-51 -37 -107 -35.5t-84 41.5l-233 344q-28 41 -11 95.5 t68 91.5t107 35.5t83 -42.5z" />
<glyph unicode="Z" d="M80 184q10 88 70 142l882 925v4h-721q-49 0 -79.5 41.5t-24.5 98.5t45 99t88 42h946q63 0 103 -54.5t32 -129.5q-9 -85 -71 -144l-879 -923v-4h719q49 0 79.5 -42.5t24.5 -99.5t-45 -98t-88 -41h-946q-63 0 -103 54.5t-32 129.5z" />
<glyph unicode="[" horiz-adv-x="643" d="M135 -258l180 1702q3 38 37.5 65t79.5 27h238q37 0 60 -30.5t18 -73.5t-33.5 -74t-65.5 -31h-137l-156 -1468h138q37 0 59.5 -31t17.5 -74t-33 -73.5t-65 -30.5h-237q-44 0 -74 27t-27 65z" />
<glyph unicode="\" horiz-adv-x="966" d="M412 1516l450 -1434q8 -25 -8 -51.5t-47 -38.5q-29 -14 -56 -6t-36 34l-451 1434q-8 23 8 50.5t45 39.5q31 13 59 5t36 -33z" />
<glyph unicode="]" horiz-adv-x="643" d="M631 1444l-180 -1702q-3 -38 -37.5 -65t-79.5 -27h-238q-37 0 -60 30.5t-18 73.5t33.5 74t65.5 31h137l156 1468h-138q-37 0 -59.5 31t-17.5 74t33 73.5t65 30.5h237q44 0 74 -27t27 -65z" />
<glyph unicode="^" horiz-adv-x="1134" d="M307 764q-13 -31 -51 -39.5t-78 8.5q-39 19 -58.5 53.5t-4.5 63.5l327 643q37 60 123.5 60t126.5 -60l328 -643q15 -29 -5 -63.5t-59 -53.5q-40 -17 -78 -8.5t-51 39.5l-258 528h-4z" />
<glyph unicode="_" horiz-adv-x="1062" d="M0 -186h1186v-52h-1186v52z" />
<glyph unicode="`" horiz-adv-x="718" d="M629 1335l-252 68q-48 14 -50 63.5t34 85t79 15.5l228 -121q18 -10 22 -31.5t-3 -41t-23.5 -32t-34.5 -6.5z" />
<glyph unicode="a" horiz-adv-x="1486" d="M932 16q-94 -51 -258 -51q-163 0 -291.5 81.5t-193.5 226.5t-46 321q18 176 113 320t240.5 225.5t308.5 81.5q243 0 377 -207h4l6 65q5 51 49.5 87t104.5 36t98 -36t33 -87l-103 -973q-6 -52 -50.5 -87t-104.5 -35t-97.5 35t-31.5 87l51 488q15 143 -76 245.5t-236 102.5 q-144 0 -257 -102.5t-128 -245.5q-15 -145 76 -247.5t236 -102.5q48 0 98 12q39 16 74.5 -7.5t54.5 -68.5q19 -46 4 -94t-55 -70z" />
<glyph unicode="b" horiz-adv-x="1488" d="M678 1169q93 52 258 52q163 0 291.5 -81.5t193.5 -226t47 -321.5q-19 -176 -114.5 -320t-240.5 -225.5t-308 -81.5q-243 0 -377 207h-4l-6 -66q-6 -51 -50 -86.5t-104 -35.5t-98.5 35.5t-32.5 86.5l139 1324q4 52 49.5 87t106.5 35q60 0 96.5 -35t32.5 -87l-88 -838 q-15 -143 75.5 -245.5t235.5 -102.5q144 0 258 102.5t129 245.5q15 145 -76.5 247.5t-236.5 102.5q-48 0 -98 -12q-39 -16 -74.5 7.5t-54.5 68.5q-19 46 -4 93.5t55 69.5z" />
<glyph unicode="c" horiz-adv-x="1255" d="M987 328q40 35 93.5 30t88.5 -47q39 -40 36.5 -96.5t-48.5 -93.5q-196 -156 -430 -156q-133 0 -248 48.5t-193.5 131.5t-117.5 200t-25 249q18 176 120 320t259.5 225.5t335.5 81.5q243 0 397 -154q40 -41 32 -93t-58 -97q-43 -41 -98.5 -46.5t-86.5 29.5q-88 82 -215 82 q-144 0 -257 -102.5t-128 -245.5t76.5 -245.5t235.5 -102.5q130 0 231 82z" />
<glyph unicode="d" horiz-adv-x="1488" d="M934 16q-94 -51 -258 -51q-163 0 -292 81.5t-194.5 226.5t-46.5 321q18 175 113.5 319.5t241.5 226t309 81.5q243 0 377 -207h4l43 416q5 51 49 86.5t104 35.5t98.5 -35.5t33.5 -86.5l-140 -1324q-6 -52 -50.5 -87t-104.5 -35t-97.5 35t-31.5 87l51 488q15 143 -76 245.5 t-236 102.5q-144 0 -258 -102.5t-129 -245.5q-15 -145 77 -247.5t237 -102.5q48 0 98 12q39 16 74.5 -7.5t54.5 -68.5q19 -46 4 -94t-55 -70z" />
<glyph unicode="e" horiz-adv-x="1447" d="M553 588q4 52 40 88.5t81 36.5h454q-26 108 -107.5 171.5t-193.5 63.5q-142 0 -255 -105.5t-128 -248.5q-15 -147 77.5 -258t240.5 -111q80 0 167 28.5t144 76.5q35 34 85 33t85 -37q37 -34 39.5 -84t-29.5 -84q-103 -91 -241 -142t-277 -51q-182 0 -324.5 81.5 t-214.5 226t-53 321.5q18 176 120 320t259 225.5t334 81.5q129 0 241.5 -49t189.5 -132.5t115.5 -200t24.5 -245.5q-5 -52 -52.5 -92.5t-106.5 -40.5h-621q-44 0 -72 37.5t-22 89.5z" />
<glyph unicode="f" horiz-adv-x="835" d="M725 1280q-31 25 -57 25q-28 0 -50.5 -21t-25.5 -49l-6 -49h102q44 0 72.5 -37t23.5 -90q-6 -52 -42 -89.5t-80 -37.5h-424q-44 0 -72.5 37.5t-22.5 89.5q4 52 40 89.5t81 37.5h35l6 55q15 142 129 236t262 94q129 0 222 -90q32 -29 28 -82t-41 -94q-40 -43 -91.5 -48.5 t-88.5 23.5zM406 829q59 0 97 -35.5t34 -84.5l-64 -605q-6 -50 -52 -85t-104 -35q-59 0 -98 35.5t-33 84.5l64 605q4 49 50.5 84.5t105.5 35.5z" />
<glyph unicode="g" horiz-adv-x="1472" d="M715 279q55 0 110 20q41 18 86 1t62 -58q16 -48 2.5 -86t-51.5 -68q-47 -36 -99.5 -56.5t-138.5 -23.5q-122 4 -228 55.5t-178.5 134.5t-109 196t-23.5 237q14 126 75.5 237t153.5 187.5t209 121t240 44.5q229 0 365 -187h4l4 53q6 51 46.5 83t96.5 32t91.5 -32.5 t29.5 -82.5l-86 -827q-18 -174 -124.5 -323t-268.5 -235.5t-338 -86.5q-219 0 -414 106q-39 24 -44 75.5t28 101.5q32 50 83 70.5t91 -1.5q139 -82 285 -82q85 0 176 40.5t158 113.5t75 156l45 415q14 137 -73 234.5t-224 97.5q-139 0 -254.5 -93.5t-130.5 -227.5 q-14 -135 64.5 -238.5t204.5 -103.5z" />
<glyph unicode="h" d="M559 1430l-139 -1324q-6 -51 -51 -86.5t-105 -35.5t-98.5 35.5t-32.5 86.5l139 1324q4 51 50 86.5t106 35.5t98 -35.5t33 -86.5zM942 106l59 574q14 125 -46.5 200t-184.5 62l-39 -4q-43 -4 -74 26t-36 80q-4 51 20.5 91.5t67.5 54.5q79 31 178 31q207 0 318.5 -139 t86.5 -365l-63 -611q-6 -51 -51 -86.5t-105 -35.5t-98.5 35.5t-32.5 86.5z" />
<glyph unicode="i" horiz-adv-x="532" d="M133 106l103 973q5 51 50 87t105 36t98 -36t33 -87l-102 -973q-6 -51 -51 -86.5t-105 -35.5t-98.5 35.5t-32.5 86.5zM252 1417q7 68 59.5 115t120.5 47q67 0 109 -47t34 -115q-6 -67 -58 -114.5t-120 -47.5q-67 0 -109 47t-36 115z" />
<glyph unicode="j" horiz-adv-x="659" d="M362 1079q4 51 50 87t106 36t98 -36t33 -87l-117 -1114q-15 -145 -132 -247.5t-261 -102.5q-130 0 -217 84q-37 32 -33 84.5t45 93.5q40 47 91.5 57t85.5 -22q38 -27 57 -27q29 0 51 20.5t25 51.5zM379 1417q7 68 60 115t120 47t109 -47t34 -115q-6 -67 -58 -114.5 t-120 -47.5q-67 0 -109 47t-36 115z" />
<glyph unicode="k" horiz-adv-x="1230" d="M133 106l139 1324q4 51 50 86.5t106 35.5t98 -35.5t33 -86.5l-139 -1324q-6 -51 -51 -86.5t-105 -35.5t-98.5 35.5t-32.5 86.5zM885 594l309 -391q28 -35 15 -88.5t-62 -94.5q-49 -36 -100 -37.5t-80 37.5l-377 467q-37 46 -31 107q5 57 51 106l471 465q38 39 90 37.5 t91 -37.5q41 -41 43.5 -94t-33.5 -88z" />
<glyph unicode="l" horiz-adv-x="532" d="M133 106l139 1324q4 51 50 86.5t106 35.5t98 -35.5t33 -86.5l-139 -1324q-6 -51 -51 -86.5t-105 -35.5t-98.5 35.5t-32.5 86.5z" />
<glyph unicode="m" horiz-adv-x="1941" d="M1542 106l66 627q9 88 -46 148.5t-143 60.5q-17 0 -47 -6q-43 -11 -78.5 16t-44.5 78q-6 40 11.5 77t50.5 58q91 56 188 56q196 0 307 -137.5t88 -350.5l-65 -627q-6 -51 -51 -86.5t-105 -35.5t-98.5 35.5t-32.5 86.5zM721 1210q42 11 74 11q196 0 307 -137.5t88 -350.5 l-66 -627q-6 -51 -50.5 -86.5t-104.5 -35.5t-98.5 35.5t-32.5 86.5l65 627q9 88 -37 146t-131 61q-42 -3 -75 29t-37 84q-7 56 22 101t76 56zM133 106l103 973q5 51 50 87t105 36t98 -36t33 -87l-102 -973q-6 -51 -51 -86.5t-105 -35.5t-98.5 35.5t-32.5 86.5z" />
<glyph unicode="n" d="M522 1079l-102 -973q-6 -51 -51 -86.5t-105 -35.5t-98.5 35.5t-32.5 86.5l103 973q5 51 50 87t105 36t98 -36t33 -87zM942 106l59 574q14 125 -46.5 200t-184.5 62l-39 -4q-43 -4 -74 26t-36 80q-4 51 20.5 91.5t67.5 54.5q79 31 178 31q207 0 318.5 -139t86.5 -365 l-63 -611q-6 -51 -51 -86.5t-105 -35.5t-98.5 35.5t-32.5 86.5z" />
<glyph unicode="o" horiz-adv-x="1460" d="M1141 594q15 143 -76.5 245.5t-237.5 102.5q-142 0 -255 -102.5t-128 -245.5q-15 -145 76 -247.5t234 -102.5q146 0 259 102.5t128 247.5zM1440 594q-19 -177 -121 -321.5t-259 -226t-335 -81.5q-133 0 -247.5 48t-193 131t-117 200.5t-24.5 249.5q18 176 120 320 t259 225.5t334 81.5q133 0 248 -48t193.5 -131t117.5 -199.5t25 -248.5z" />
<glyph unicode="p" horiz-adv-x="1488" d="M678 1169q93 52 258 52q163 0 291.5 -81.5t193.5 -226t47 -321.5q-19 -176 -114.5 -320t-240.5 -225.5t-308 -81.5q-243 0 -377 207h-4l-43 -416q-5 -51 -49.5 -87t-104.5 -36t-98 36t-33 87l140 1323q4 52 49.5 87.5t105.5 35.5t97 -35t32 -88l-51 -487 q-15 -143 75.5 -245.5t235.5 -102.5q144 0 258 102.5t129 245.5q15 145 -76.5 247.5t-236.5 102.5q-48 0 -98 -12q-39 -16 -74.5 7.5t-54.5 68.5q-19 46 -4 93.5t55 69.5z" />
<glyph unicode="q" horiz-adv-x="1488" d="M934 16q-94 -51 -258 -51q-163 0 -292 81.5t-194.5 226.5t-46.5 321q18 175 113.5 319.5t241.5 226t309 81.5q243 0 377 -207h4l6 65q5 51 49.5 87t104.5 36t98 -36t33 -87l-140 -1323q-6 -52 -50.5 -87.5t-104.5 -35.5t-97.5 35.5t-31.5 87.5l88 838q15 143 -76 245.5 t-236 102.5q-144 0 -258 -102.5t-129 -245.5q-15 -145 77 -247.5t237 -102.5q48 0 98 12q39 16 74.5 -7.5t54.5 -68.5q19 -46 4 -94t-55 -70z" />
<glyph unicode="r" horiz-adv-x="989" d="M203 778l33 301q5 51 50 87t105 36t98 -36t33 -87l-2 -24h4q149 166 332 166q69 0 101.5 -10.5t84.5 -41.5q34 -22 38.5 -69.5t-23.5 -93.5q-29 -45 -69.5 -68.5t-76.5 -7.5q-44 12 -94 12q-104 0 -197 -57.5t-143 -149.5q-21 -36 -59.5 -58t-83.5 -22q-60 0 -98 36 t-33 87zM133 106l35 324q4 51 50 87t106 36t98 -36t33 -87l-35 -324q-6 -51 -51 -86.5t-105 -35.5t-98.5 35.5t-32.5 86.5z" />
<glyph unicode="s" horiz-adv-x="1181" d="M293 303q135 -79 317 -88q230 0 244 123q5 44 -16.5 72t-61 42t-91.5 22t-110 15.5t-115.5 19t-108 35.5t-87.5 61.5t-54.5 101.5t-8.5 151q18 177 153.5 270t360.5 93q208 0 379 -88q34 -18 42 -63t-18 -91q-28 -48 -72.5 -68t-82.5 0q-121 62 -275 62q-183 0 -192 -115 q-5 -41 16.5 -67.5t61 -40.5t92 -23t110.5 -17.5t116 -21t109 -38t88 -63t55 -101t9 -148.5q-14 -126 -95 -211.5t-201 -123.5t-273 -38q-255 0 -443 109q-34 22 -39.5 70t23.5 96q31 50 79.5 68t88.5 -5z" />
<glyph unicode="t" horiz-adv-x="727" d="M406 829q59 0 97 -35.5t34 -84.5l-39 -359q-3 -31 15.5 -51t47.5 -20h33q44 0 72 -41t22 -99t-42 -98.5t-81 -40.5h-53q-175 0 -247.5 85.5t-53.5 264.5l39 359q4 49 50.5 84.5t105.5 35.5zM299 1186l18 164q4 49 50.5 84.5t105.5 35.5t97 -35.5t34 -84.5l-18 -164h102 q44 0 72.5 -37t23.5 -90q-6 -52 -42 -89.5t-80 -37.5h-424q-44 0 -72.5 37.5t-22.5 89.5q4 52 40 89.5t81 37.5h35z" />
<glyph unicode="u" d="M942 106l102 973q4 51 50 87t106 36t98 -36t33 -87l-102 -973q-6 -51 -51 -86.5t-105 -35.5t-98.5 35.5t-32.5 86.5zM522 1079l-61 -573q-13 -126 48 -200.5t185 -61.5l39 4q43 4 74.5 -26.5t36.5 -80.5q4 -51 -20.5 -91t-67.5 -54q-79 -31 -178 -31q-207 0 -319 139 t-87 365l64 610q5 51 50 87t105 36t98 -36t33 -87z" />
<glyph unicode="v" horiz-adv-x="1249" d="M784 72q-33 -57 -98.5 -79t-126.5 0t-82 79l-336 942q-17 46 11 96.5t84 75.5q57 26 109 10.5t69 -61.5l256 -695l403 695q26 46 81 61.5t106 -10.5q52 -25 70 -75.5t-9 -96.5z" />
<glyph unicode="w" horiz-adv-x="1861" d="M1935 1026l-471 -960q-15 -36 -58.5 -59t-96.5 -23q-55 0 -95.5 23.5t-46.5 58.5l-168 608l-294 -608q-15 -36 -58.5 -59t-97.5 -23q-55 0 -95 23.5t-46 58.5l-269 960q-15 46 17 95t92 69q57 22 107.5 2.5t62.5 -66.5l178 -682l326 689q12 30 49 49.5t84 19.5 q45 0 78 -19.5t41 -49.5l182 -689l321 682q25 48 79 66.5t108 -2.5q54 -20 75 -69t-4 -95z" />
<glyph unicode="x" horiz-adv-x="1222" d="M289 20q-38 -38 -93.5 -36.5t-95.5 41.5q-41 39 -42 94.5t36 91.5l963 954q38 38 93 37t95 -41t41.5 -94.5t-35.5 -91.5zM340 768l-164 207q-31 37 -18.5 91.5t61.5 94.5q50 40 105 41t84 -37l165 -207q30 -36 17 -91.5t-62 -94.5q-50 -40 -104.5 -41t-83.5 37zM938 20 l-166 207q-30 36 -17 92t62 95q47 40 103.5 41t85.5 -37l163 -207q30 -37 17.5 -91.5t-60.5 -94.5q-50 -40 -104.5 -41.5t-83.5 36.5z" />
<glyph unicode="y" horiz-adv-x="1249" d="M379 -352q-51 25 -68.5 75.5t8.5 96.5l754 1315q26 46 81 61.5t106 -10.5q52 -25 70 -75.5t-9 -96.5l-754 -1315q-27 -46 -81 -61.5t-107 10.5zM516 414q-57 -26 -109 -10.5t-69 61.5l-197 549q-17 46 11 96.5t84 75.5q57 26 109 10.5t69 -61.5l198 -549 q15 -46 -13 -96.5t-83 -75.5z" />
<glyph unicode="z" horiz-adv-x="1179" d="M1130 129q-4 -52 -40 -90.5t-80 -38.5h-836q-44 0 -74 38.5t-26 90.5q5 52 51 98l639 695v4h-498q-44 0 -72 38.5t-22 92.5q4 52 40.5 90.5t80.5 38.5h835q44 0 73 -38t24 -91q-6 -58 -47 -99l-639 -694v-4h497q44 0 72 -38.5t22 -92.5z" />
<glyph unicode="{" horiz-adv-x="786" d="M891 1432q-5 -43 -33.5 -74t-64.5 -31q-44 0 -78.5 -31t-38.5 -75l-43 -418q-14 -124 -139 -209q107 -93 94 -209l-43 -420q-5 -45 21.5 -75.5t70.5 -30.5q37 0 60 -31t18 -74t-33.5 -73.5t-65.5 -30.5q-130 0 -213 92t-69 223l43 420q5 42 -21.5 72t-68.5 30h-17 q-37 0 -59.5 31t-17.5 74t33 73.5t65 30.5h16q42 0 76 32t39 75l43 418q13 132 115 223.5t233 91.5q37 0 60 -30.5t18 -73.5z" />
<glyph unicode="|" horiz-adv-x="634" d="M246 -305v1796q0 26 20.5 43.5t50.5 17.5t51 -17.5t21 -43.5v-1796q0 -26 -21 -44t-51 -18q-29 0 -50 18t-21 44z" />
<glyph unicode="}" horiz-adv-x="786" d="M195 1432q5 43 33 73.5t65 30.5q131 0 213 -91.5t69 -223.5l-43 -418q-5 -43 22 -75t69 -32h16q37 0 60 -30.5t18 -73.5t-33.5 -74t-65.5 -31h-16q-43 0 -76.5 -30.5t-38.5 -71.5l-43 -420q-13 -130 -115 -222.5t-233 -92.5q-37 0 -60 30.5t-18 73.5t33.5 74t65.5 31 q44 0 77.5 31t38.5 75l43 420q14 120 140 209q-108 89 -94 209l43 418q5 44 -22 75t-71 31q-37 0 -59.5 31t-17.5 74z" />
<glyph unicode="~" horiz-adv-x="1069" d="M944 657q-6 -62 -40.5 -115.5t-92.5 -84.5q-92 -54 -191.5 -26.5t-154.5 122.5q-22 37 -59.5 48.5t-73.5 -9.5q-39 -17 -47 -78q-4 -35 -30 -55t-60 -15q-33 4 -53 29t-17 55q6 62 40.5 116t92.5 85q92 54 191.5 26.5t154.5 -122.5q22 -37 59.5 -48.5t73.5 9.5 q39 17 47 78q4 35 30 54.5t60 14.5q33 -4 53 -29t17 -55z" />
<glyph unicode="&#xa1;" horiz-adv-x="528" d="M133 104l127 938q5 38 41 66.5t82 28.5t75.5 -28.5t24.5 -66.5l-69 -938q-6 -49 -50.5 -83.5t-101.5 -34.5q-58 0 -96.5 34.5t-32.5 83.5zM567 1395q-6 -64 -57.5 -109t-116.5 -45t-106 45t-35 109q7 67 58 112t116 45t106.5 -45t34.5 -112z" />
<glyph unicode="&#xa2;" horiz-adv-x="1255" d="M297 139q-181 178 -154 455q13 134 78.5 251t169.5 204q40 34 93.5 28t90.5 -49q38 -44 37 -98.5t-41 -89.5q-53 -47 -86 -111.5t-41 -134.5q-7 -68 12.5 -133t61.5 -113q34 -35 24 -89.5t-57 -98.5q-46 -43 -101.5 -49t-86.5 28zM756 246q130 0 231 82q40 35 93.5 30 t88.5 -47q39 -43 36.5 -97t-48.5 -93q-127 -103 -289 -139l-12 -109q-3 -35 -46 -60.5t-101 -25.5t-96 25t-35 61l30 287q3 35 46.5 60.5t101.5 25.5zM829 942q-58 0 -96 25t-35 61l31 287q3 35 46.5 60.5t101.5 25.5t96 -25t35 -61l-13 -109q157 -36 260 -139 q40 -41 32 -93t-58 -97q-43 -41 -98.5 -46.5t-86.5 29.5q-88 82 -215 82z" />
<glyph unicode="&#xa3;" horiz-adv-x="1198" d="M135 123l62 592q6 51 51.5 87t105.5 36h594q51 0 83 -41.5t26 -100.5q-6 -58 -46 -98.5t-91 -40.5h-449l-29 -278h590q51 0 83 -41t26 -99t-46 -98.5t-91 -40.5h-736q-60 0 -99.5 36t-33.5 87zM524 1069q-4 -47 -50.5 -81t-106.5 -34t-99.5 34t-34.5 81 q15 136 94.5 251.5t202 183t258.5 67.5t245 -67.5t164 -183t40 -251.5q-4 -47 -51 -81t-107 -34t-99 34t-34 81q9 88 -45.5 149.5t-142.5 61.5t-156.5 -61.5t-77.5 -149.5z" />
<glyph unicode="&#xa4;" horiz-adv-x="1476" d="M1386 594q0 -215 -124 -377l65 -65q25 -26 21.5 -66.5t-33.5 -69.5q-29 -30 -69 -33.5t-66 21.5l-72 70q-162 -109 -371 -109q-208 0 -370 109l-70 -70q-26 -25 -66 -21.5t-69 33.5q-30 29 -33.5 69.5t21.5 66.5l65 65q-125 159 -125 377q0 208 125 375l-65 65 q-25 26 -21.5 66t33.5 69q29 31 69 34.5t66 -21.5l70 -70q162 109 370 109q206 0 371 -111l72 72q26 25 66 21.5t69 -34.5q30 -29 33.5 -69t-21.5 -66l-65 -65q124 -165 124 -375zM1087 594q0 143 -102 245.5t-248 102.5q-142 0 -244 -102.5t-102 -245.5 q0 -145 101.5 -247.5t244.5 -102.5q146 0 248 102.5t102 247.5z" />
<glyph unicode="&#xa5;" horiz-adv-x="1392" d="M1294 946h-176l-200 -219l-66 -621q-6 -52 -52 -87t-106 -35q-61 0 -100 35t-33 87l72 691q6 32 33 63l598 651q36 41 92.5 42.5t97.5 -35.5q45 -37 51 -91t-30 -96l-195 -209h33q30 0 48 -26t15 -62q-5 -36 -28.5 -62t-53.5 -26zM444 1511l234 -344q29 -40 12 -94.5 t-69 -91.5q-46 -35 -111 -35h-219q-30 0 -48.5 26t-13.5 62q3 36 26.5 62t53.5 26h29l-141 209q-28 41 -11 95.5t68 91.5t107 35.5t83 -42.5zM1260 608h-185q-30 0 -48 26t-15 62q5 36 28.5 62t53.5 26h184q30 0 48 -26t13 -62q-3 -36 -26 -62t-53 -26zM440 608h-184 q-30 0 -48 26t-15 62q5 36 28 62t53 26h185q30 0 48 -26t13 -62q-3 -36 -26.5 -62t-53.5 -26z" />
<glyph unicode="&#xa6;" horiz-adv-x="454" d="M227 682q-43 0 -73.5 25.5t-30.5 60.5v455q0 35 30.5 60.5t73.5 25.5t74 -25.5t31 -60.5v-455q0 -35 -31 -60.5t-74 -25.5zM227 -119q-43 0 -73.5 25.5t-30.5 60.5v453q0 35 30.5 60.5t73.5 25.5t74 -25.5t31 -60.5v-453q0 -35 -31 -60.5t-74 -25.5z" />
<glyph unicode="&#xa7;" horiz-adv-x="1179" d="M1139 602q-7 -72 -56.5 -105.5t-121.5 -25.5q-55 6 -90 42.5t-29 80.5q10 68 -42.5 113t-133.5 45q-209 0 -335.5 114t-107.5 287q19 185 168.5 301.5t360.5 116.5q162 0 280 -83t146 -212q13 -45 -19 -92.5t-88 -67.5t-103.5 -3t-62.5 61q-41 116 -182 116 q-83 0 -140.5 -36t-64.5 -105q-6 -63 46 -100t128 -37q213 0 340 -112t107 -298zM164 586q7 72 56.5 105.5t121.5 25.5q55 -6 90 -42.5t29 -80.5q-10 -68 42.5 -113t133.5 -45q209 0 335 -114t107 -287q-19 -185 -168 -301.5t-360 -116.5q-162 0 -280 83t-146 212 q-13 45 18.5 92.5t87.5 67.5t103.5 3t62.5 -61q41 -116 183 -116q83 0 139.5 36t62.5 105q7 63 -44 100t-128 37q-213 0 -339.5 112t-106.5 298z" />
<glyph unicode="&#xa8;" horiz-adv-x="675" d="M393 1466q-4 -42 -38 -73t-76 -31q-44 0 -72 30.5t-23 73.5t39 74t78 31q41 0 68.5 -31t23.5 -74zM799 1466q-5 -43 -39 -73.5t-78 -30.5q-43 0 -70 30.5t-22 73.5t38.5 74t76.5 31q44 0 71.5 -31t22.5 -74z" />
<glyph unicode="&#xa9;" horiz-adv-x="1419" d="M1264 594q0 112 -43.5 214.5t-117.5 176.5t-177 118t-217 44q-112 0 -214.5 -44t-176.5 -118t-118 -176.5t-44 -214.5t44 -215t118 -177.5t176.5 -118.5t214.5 -44q114 0 217 44t177 118.5t117.5 177.5t43.5 215zM1337 594q0 -171 -84 -316t-228.5 -229t-315.5 -84 q-170 0 -314.5 84t-228.5 229t-84 316q0 170 84 314.5t228.5 228.5t314.5 84q171 0 315.5 -84t228.5 -228.5t84 -314.5zM905 424q17 20 44 21t50 -19q23 -19 27.5 -46t-12.5 -46q-125 -141 -303 -141q-171 0 -291.5 116t-120.5 285t120.5 285t291.5 116q175 0 303 -141 q17 -19 12.5 -47t-27.5 -47t-50 -18t-44 20q-48 46 -90.5 69t-103.5 23q-109 0 -185.5 -76.5t-76.5 -183.5q0 -109 76.5 -185.5t185.5 -76.5q60 0 102 23t92 69z" />
<glyph unicode="&#xaa;" horiz-adv-x="825" d="M608 969q-52 -27 -129 -27q-125 0 -202 90.5t-64 224.5q13 133 110 223.5t222 90.5q121 0 188 -105h2l2 33q3 26 26 44t52 18q31 0 49 -18t15 -44l-50 -485q-3 -26 -25.5 -44t-53.5 -18q-29 0 -47 18t-15 44l25 243q8 71 -38 123t-118 52t-128 -52t-64 -123 q-8 -72 37.5 -124t117.5 -52q26 0 47 6q21 9 39.5 -2.5t26.5 -33.5q9 -23 2 -47.5t-27 -34.5z" />
<glyph unicode="&#xab;" horiz-adv-x="1067" d="M158 662l338 305q28 26 67.5 22t67.5 -35q27 -30 26 -70.5t-30 -66.5l-246 -223l203 -232q23 -25 15.5 -64t-38.5 -69q-34 -29 -72.5 -31.5t-60.5 23.5l-272 303q-26 31 -26 71.5t28 66.5zM588 662l338 305q28 26 67.5 22t67.5 -35q27 -30 26 -70.5t-30 -66.5l-246 -223 l203 -232q23 -25 15.5 -64t-38.5 -69q-34 -29 -72.5 -31.5t-60.5 23.5l-272 303q-26 31 -26 71.5t28 66.5z" />
<glyph unicode="&#xac;" horiz-adv-x="909" d="M682 334q-43 0 -73.5 26.5t-30.5 63.5v63h-381q-37 0 -64 31t-27 74t27 73.5t64 30.5h485q43 0 73.5 -26.5t30.5 -63.5v-182q0 -37 -30.5 -63.5t-73.5 -26.5z" />
<glyph unicode="&#xad;" horiz-adv-x="952" d="M188 592q4 43 33 73.5t64 30.5h528q35 0 57.5 -30.5t18.5 -73.5q-5 -43 -33 -74t-63 -31h-529q-35 0 -57.5 31t-18.5 74z" />
<glyph unicode="&#xae;" horiz-adv-x="653" d="M571 1327q0 -101 -71.5 -173.5t-171.5 -72.5q-101 0 -173.5 72.5t-72.5 173.5q0 100 72.5 172t173.5 72q100 0 171.5 -72t71.5 -172zM543 1327q0 89 -63 151t-152 62q-91 0 -154 -62t-63 -151q0 -91 63 -154t154 -63q89 0 152 63t63 154zM459 1174h-64l-57 114h-68v-114 h-55v313h141q43 0 73 -29t30 -69q0 -65 -62 -95zM270 1343h86q20 0 32.5 13.5t12.5 32.5q0 18 -12.5 29.5t-32.5 11.5h-86v-87z" />
<glyph unicode="&#xaf;" horiz-adv-x="628" d="M258 1456q5 34 25.5 57t48.5 23h284q28 0 45 -23.5t13 -56.5q-3 -34 -24.5 -57t-49.5 -23h-285q-28 0 -44 23t-13 57z" />
<glyph unicode="&#xb0;" horiz-adv-x="622" d="M399 1362q0 35 -25.5 60.5t-62.5 25.5q-35 0 -60.5 -25.5t-25.5 -60.5q0 -37 25.5 -62.5t60.5 -25.5q37 0 62.5 25.5t25.5 62.5zM520 1362q0 -87 -61 -148t-148 -61q-86 0 -147.5 61.5t-61.5 147.5q0 87 61 148t148 61q88 0 148.5 -60.5t60.5 -148.5z" />
<glyph unicode="&#xb1;" horiz-adv-x="1392" d="M698 334q-43 0 -73.5 25.5t-30.5 60.5v244h-422q-35 0 -60.5 30.5t-25.5 73.5t25.5 73.5t60.5 30.5h422v244q0 35 30.5 60.5t73.5 25.5t74 -25.5t31 -60.5v-244h418q35 0 60.5 -30.5t25.5 -73.5t-25.5 -73.5t-60.5 -30.5h-418v-244q0 -35 -31 -60.5t-74 -25.5zM86 104 q0 43 25.5 74t60.5 31h1049q35 0 60.5 -31t25.5 -74t-25.5 -73.5t-60.5 -30.5h-1049q-35 0 -60.5 30.5t-25.5 73.5z" />
<glyph unicode="&#xb2;" horiz-adv-x="706" d="M217 1290q10 113 96 187.5t201 74.5q116 0 187 -70t59 -182q-12 -113 -123 -196l-236 -197h242q25 0 39.5 -20t11.5 -49t-21.5 -49.5t-43.5 -20.5h-377q-31 0 -51 25.5t-17 62.5q6 50 43 76l332 276q46 43 51 92q6 51 -26 83t-84 32q-50 0 -88.5 -35.5t-44.5 -89.5 q-3 -26 -28 -44.5t-56 -18.5t-50 18.5t-16 44.5z" />
<glyph unicode="&#xb3;" horiz-adv-x="692" d="M532 1106q-17 16 -13.5 43t22.5 49q22 23 48.5 29.5t45.5 -8.5q44 -35 65.5 -89t14.5 -118q-10 -111 -96.5 -185.5t-200.5 -74.5q-94 0 -159.5 57.5t-74.5 146.5q-4 23 14.5 44.5t47.5 27.5t51.5 -7t24.5 -36q5 -42 35.5 -69t74.5 -27q50 0 89.5 36t43.5 87q6 52 -33 94z M324 1241l174 158h-172q-25 0 -40 19.5t-12 47.5q3 29 22 49.5t44 20.5h340q26 0 42 -21.5t13 -50.5q-6 -35 -28 -57l-295 -264q-19 -17 -44 -14.5t-44 24.5q-19 20 -19 45.5t19 42.5z" />
<glyph unicode="&#xb4;" horiz-adv-x="718" d="M633 1403l-264 -68q-32 -9 -46 25q-15 36 8 67q9 12 23 19l252 121q51 22 80 -22q26 -40 8 -87q-15 -43 -61 -55z" />
<glyph unicode="&#xb5;" d="M522 1079l-61 -573q-11 -111 57.5 -191.5t175.5 -70.5l39 4q43 4 74.5 -26.5t36.5 -80.5q4 -51 -20.5 -91t-67.5 -54q-79 -31 -158 -31q-103 0 -184 78l-31 -287q-4 -51 -50 -87t-106 -36t-98 36t-33 87l111 1053l2 25l27 245q5 51 50 87t105 36t98 -36t33 -87zM942 106 l102 973q4 51 50 87t106 36t98 -36t33 -87l-102 -973q-6 -51 -51 -86.5t-105 -35.5t-98.5 35.5t-32.5 86.5z" />
<glyph unicode="&#xb6;" horiz-adv-x="1241" d="M1040 1255h-122l-125 -1181q-3 -37 -36.5 -63.5t-76.5 -26.5t-71 26.5t-25 63.5l141 1339q4 51 51 87t107 36h250q60 0 99 -36t34 -87l-142 -1339q-3 -37 -36 -63.5t-76 -26.5t-71.5 26.5t-25.5 63.5zM459 1546q46 17 91 -10.5t60 -81.5q15 -48 -2 -94.5t-55 -73.5 q-33 -19 -54.5 -51t-25.5 -70q-6 -81 53 -121q33 -27 40.5 -72t-17.5 -95q-26 -54 -76.5 -82t-93.5 -11q-107 51 -163.5 152t-43.5 229t91 229t196 152z" />
<glyph unicode="&#xb7;" horiz-adv-x="561" d="M274 436q-64 0 -105.5 46.5t-35.5 111.5q6 64 57.5 111t116.5 47q64 0 106 -46.5t36 -111.5q-6 -64 -58 -111t-117 -47z" />
<glyph unicode="&#xb8;" horiz-adv-x="772" d="M176 -291q-4 20 8.5 36t32.5 19q20 4 34.5 -4.5t16.5 -23.5q6 -28 27.5 -45t50.5 -17q36 0 63.5 25t30.5 61q5 35 -17.5 60.5t-57.5 25.5q-29 0 -54 -18q-31 -19 -55 -12q-21 3 -32.5 19t-6.5 34l37 131h92l-20 -78q17 10 61 10q80 0 121 -48t33 -124q-7 -76 -67.5 -127 t-137.5 -51q-64 0 -107.5 35t-52.5 92z" />
<glyph unicode="&#xb9;" horiz-adv-x="479" d="M319 821l56 541l-82 -49q-22 -12 -45 -4.5t-35 30.5q-11 22 -5 47t25 35l189 111q21 12 45 12q30 0 48.5 -17t16.5 -44l-69 -662q-3 -25 -26.5 -43t-53.5 -18q-29 0 -48 18t-16 43z" />
<glyph unicode="&#xba;" horiz-adv-x="813" d="M713 1260q8 71 -38.5 122.5t-119.5 51.5q-70 0 -126 -51.5t-64 -122.5q-8 -72 37.5 -124.5t115.5 -52.5q73 0 130 52.5t65 124.5zM862 1260q-13 -134 -117.5 -225t-240.5 -91q-135 0 -219.5 91t-71.5 225q13 132 117 222.5t239 90.5q136 0 221 -90t72 -223z" />
<glyph unicode="&#xbb;" horiz-adv-x="1067" d="M772 967l272 -305q25 -26 17 -66.5t-43 -71.5l-334 -303q-28 -26 -66.5 -23.5t-66.5 31.5q-25 29 -24 69t30 64l252 232l-201 223q-23 27 -15.5 66.5t40.5 70.5q37 31 77 35t62 -22zM342 967l272 -305q25 -26 17 -66.5t-43 -71.5l-334 -303q-28 -26 -66.5 -23.5 t-66.5 31.5q-25 29 -24 69t30 64l252 232l-201 223q-23 27 -15.5 66.5t40.5 70.5q37 31 77 35t62 -22z" />
<glyph unicode="&#xbc;" horiz-adv-x="1329" d="M319 821l56 541l-82 -49q-22 -12 -45 -4.5t-35 30.5q-11 22 -5 47t25 35l189 111q21 12 45 12q30 0 48.5 -17t16.5 -44l-69 -662q-3 -25 -26.5 -43t-53.5 -18q-29 0 -48 18t-16 43zM293 55l770 1471q10 20 33 26t41 -4q21 -9 28.5 -28t-2.5 -39l-768 -1471 q-10 -20 -32.5 -26t-40.5 4q-21 9 -29.5 28t0.5 39zM1090 401l14 125l-205 -247h358q25 0 40 -20.5t12 -49.5q-3 -28 -22.5 -49t-43.5 -21h-35l-10 -86q-1 -25 -25 -43t-53 -18q-30 0 -49.5 18t-17.5 43l10 86h-262q-34 0 -55.5 27t-18.5 67q6 36 29 62l348 444q32 37 82 37 q37 0 60.5 -22t19.5 -54l-31 -299q-3 -26 -25.5 -43.5t-52.5 -17.5q-31 0 -50.5 17.5t-16.5 43.5z" />
<glyph unicode="&#xbd;" horiz-adv-x="1454" d="M319 821l56 541l-82 -49q-22 -12 -45 -4.5t-35 30.5q-11 22 -5 47t25 35l189 111q21 12 45 12q30 0 48.5 -17t16.5 -44l-69 -662q-3 -25 -26.5 -43t-53.5 -18q-29 0 -48 18t-16 43zM293 55l770 1471q10 20 33 26t41 -4q21 -9 28.5 -28t-2.5 -39l-768 -1471 q-10 -20 -32.5 -26t-40.5 4q-21 9 -29.5 28t0.5 39zM883 522q12 113 98 187.5t201 74.5q116 0 186.5 -70t58.5 -182q-6 -56 -39.5 -107t-82.5 -89l-236 -197h242q25 0 39.5 -20t11.5 -49t-22 -49.5t-44 -20.5h-376q-31 0 -51.5 26t-16.5 62q6 50 43 76l330 276q48 45 53 92 q4 52 -27.5 83.5t-83.5 31.5q-50 0 -89 -35.5t-46 -89.5q-1 -26 -26 -44.5t-56 -18.5q-30 0 -49.5 18t-17.5 45z" />
<glyph unicode="&#xbe;" horiz-adv-x="1449" d="M432 55l770 1471q10 20 33 26t41 -4q21 -9 29 -27.5t-2 -39.5l-768 -1471q-10 -20 -33 -26t-41 4q-21 9 -29.5 28t0.5 39zM532 1106q-17 16 -13.5 43t22.5 49q22 23 48.5 29.5t45.5 -8.5q44 -35 65.5 -89t14.5 -118q-10 -111 -96.5 -185.5t-200.5 -74.5 q-94 0 -159.5 57.5t-74.5 146.5q-4 23 14.5 44.5t47.5 27.5t51.5 -7t24.5 -36q5 -42 35.5 -69t74.5 -27q50 0 89.5 36t43.5 87q6 52 -33 94zM324 1241l174 158h-172q-25 0 -40 19.5t-12 47.5q3 29 22 49.5t44 20.5h340q26 0 42 -21.5t13 -50.5q-6 -35 -28 -57l-295 -264 q-19 -17 -44 -14.5t-44 24.5q-19 20 -19 45.5t19 42.5zM1210 401l15 125l-205 -247h358q25 0 40 -20.5t12 -49.5q-3 -28 -22.5 -49t-43.5 -21h-35l-10 -86q-1 -25 -25 -43t-53 -18q-30 0 -49.5 18t-17.5 43l10 86h-262q-34 0 -55.5 27t-18.5 67q6 36 29 62l348 444 q32 37 82 37q37 0 60 -22t19 -54l-30 -299q-3 -26 -25.5 -43.5t-52.5 -17.5q-31 0 -51 17.5t-17 43.5z" />
<glyph unicode="&#xbf;" horiz-adv-x="1210" d="M872 1065l-22 -211q-5 -51 -48 -87t-102 -36q-100 0 -180 -72t-90 -174q-10 -101 54.5 -172t164.5 -71q87 0 159.5 53t100.5 137q13 47 64.5 72.5t105.5 13.5q55 -10 83.5 -52.5t13.5 -90.5q-58 -177 -213 -293.5t-342 -116.5q-149 0 -266.5 67t-178 186.5t-45.5 266.5 q21 190 154 329t305 169l8 82q6 53 48 88t102 35t95 -35t29 -88zM614 1397q8 65 58 111t114 46q66 0 108 -46t34 -111q-6 -65 -57 -111.5t-117 -46.5q-64 0 -105 46.5t-35 111.5z" />
<glyph unicode="&#xc0;" horiz-adv-x="1458" d="M1028 1612l-250 67q-49 14 -51.5 63.5t34 85t79.5 15.5l227 -121q23 -17 24 -44.5t-19 -50.5t-44 -15zM956 715l-102 407h-16l-510 -1067q-26 -46 -80 -63t-111 2q-52 23 -72.5 72t1.5 96l639 1292q27 47 80 73t107 26t101.5 -26t63.5 -73l180 -633q11 -48 -18 -96.5 t-86 -71.5q-60 -19 -112.5 -1t-64.5 63zM618 420q6 58 45 98.5t89 40.5h454q52 0 88.5 -27t42.5 -69l88 -301q12 -48 -19 -96.5t-89 -71.5q-60 -19 -110.5 -2t-67.5 63l-74 224h-342q-50 0 -80.5 41.5t-24.5 99.5z" />
<glyph unicode="&#xc1;" horiz-adv-x="1458" d="M1012 1679l-267 -67q-33 -10 -46 25q-14 36 9 67q9 11 23 18l252 121q51 22 80 -22q26 -40 9 -87q-15 -43 -60 -55zM956 715l-102 407h-16l-510 -1067q-26 -46 -80 -63t-111 2q-52 23 -72.5 72t1.5 96l639 1292q27 47 80 73t107 26t101.5 -26t63.5 -73l180 -633 q11 -48 -18 -96.5t-86 -71.5q-60 -19 -112.5 -1t-64.5 63zM618 420q6 58 45 98.5t89 40.5h454q52 0 88.5 -27t42.5 -69l88 -301q12 -48 -19 -96.5t-89 -71.5q-60 -19 -110.5 -2t-67.5 63l-74 224h-342q-50 0 -80.5 41.5t-24.5 99.5z" />
<glyph unicode="&#xc2;" horiz-adv-x="1458" d="M911 1743l-135 -115q-18 -15 -43.5 -12t-42.5 24q-15 21 -13.5 46.5t21.5 42.5l176 153q22 19 54 19q30 0 49 -19l141 -153q18 -16 15.5 -41.5t-23.5 -47.5q-21 -21 -47 -24t-41 12zM956 715l-102 407h-16l-510 -1067q-26 -46 -80 -63t-111 2q-52 23 -72.5 72t1.5 96 l639 1292q27 47 80 73t107 26t101.5 -26t63.5 -73l180 -633q11 -48 -18 -96.5t-86 -71.5q-60 -19 -112.5 -1t-64.5 63zM618 420q6 58 45 98.5t89 40.5h454q52 0 88.5 -27t42.5 -69l88 -301q12 -48 -19 -96.5t-89 -71.5q-60 -19 -110.5 -2t-67.5 63l-74 224h-342 q-50 0 -80.5 41.5t-24.5 99.5z" />
<glyph unicode="&#xc3;" horiz-adv-x="1458" d="M670 1651q6 62 54.5 106.5t111.5 44.5q42 0 74 -22t46 -58q9 -20 35 -20q38 0 43 39q1 19 19 32t41 13t38 -13t13 -32q-7 -65 -55.5 -108.5t-110.5 -43.5q-41 0 -74 21.5t-51 56.5q-8 23 -31 23q-37 0 -43 -39q-2 -19 -19 -32t-40 -13t-38 13t-13 32zM956 715l-102 407 h-16l-510 -1067q-26 -46 -80 -63t-111 2q-52 23 -72.5 72t1.5 96l639 1292q27 47 80 73t107 26t101.5 -26t63.5 -73l180 -633q11 -48 -18 -96.5t-86 -71.5q-60 -19 -112.5 -1t-64.5 63zM618 420q6 58 45 98.5t89 40.5h454q52 0 88.5 -27t42.5 -69l88 -301q12 -48 -19 -96.5 t-89 -71.5q-60 -19 -110.5 -2t-67.5 63l-74 224h-342q-50 0 -80.5 41.5t-24.5 99.5z" />
<glyph unicode="&#xc4;" horiz-adv-x="1458" d="M809 1718q-4 -42 -38.5 -73t-76.5 -31q-44 0 -71.5 30.5t-22.5 73.5q4 44 38.5 74.5t78.5 30.5q42 0 69 -30.5t23 -74.5zM1217 1718q-4 -43 -39.5 -73.5t-79.5 -30.5q-43 0 -70 30.5t-22 73.5q4 44 37.5 74.5t76.5 30.5q45 0 73 -30.5t24 -74.5zM956 715l-102 407h-16 l-510 -1067q-26 -46 -80 -63t-111 2q-52 23 -72.5 72t1.5 96l639 1292q27 47 80 73t107 26t101.5 -26t63.5 -73l180 -633q11 -48 -18 -96.5t-86 -71.5q-60 -19 -112.5 -1t-64.5 63zM618 420q6 58 45 98.5t89 40.5h454q52 0 88.5 -27t42.5 -69l88 -301q12 -48 -19 -96.5 t-89 -71.5q-60 -19 -110.5 -2t-67.5 63l-74 224h-342q-50 0 -80.5 41.5t-24.5 99.5z" />
<glyph unicode="&#xc5;" horiz-adv-x="1458" d="M967 1743q2 22 -12 37.5t-37 15.5t-42 -15.5t-20 -37.5q-3 -25 11.5 -41t37.5 -16t41 16t21 41zM1063 1743q-6 -63 -56 -108.5t-112 -45.5q-61 0 -101 45.5t-34 108.5q6 61 56 105t112 44t101.5 -44t33.5 -105zM956 715l-102 407h-16l-510 -1067q-26 -46 -80 -63t-111 2 q-52 23 -72.5 72t1.5 96l639 1292q27 47 80 73t107 26t101.5 -26t63.5 -73l180 -633q11 -48 -18 -96.5t-86 -71.5q-60 -19 -112.5 -1t-64.5 63zM618 420q6 58 45 98.5t89 40.5h454q52 0 88.5 -27t42.5 -69l88 -301q12 -48 -19 -96.5t-89 -71.5q-60 -19 -110.5 -2t-67.5 63 l-74 224h-342q-50 0 -80.5 41.5t-24.5 99.5z" />
<glyph unicode="&#xc6;" horiz-adv-x="2263" d="M1065 123l70 663q4 51 50.5 87t106.5 36h736q51 0 82.5 -41t25.5 -100q-6 -58 -46 -98.5t-91 -40.5h-590l-37 -350h731q51 0 83 -41t26 -99t-46 -98.5t-91 -40.5h-877q-60 0 -99.5 36t-33.5 87zM885 559q51 0 82.5 -41t25.5 -100q-6 -58 -46 -98.5t-91 -40.5h-369 l-200 -248q-34 -42 -89.5 -48t-101.5 29q-45 33 -52 87.5t26 95.5l262 315q40 49 102 49h451zM2234 1536q51 0 83 -41.5t26 -99.5t-46 -99t-91 -41h-914l-440 -546q-34 -42 -89 -48t-101 29q-46 34 -53.5 87.5t26.5 94.5l502 615q40 49 102 49h995z" />
<glyph unicode="&#xc7;" horiz-adv-x="1601" d="M1331 430q37 39 91.5 40.5t97.5 -36.5q40 -37 42.5 -93t-34.5 -93q-136 -136 -299 -209.5t-338 -73.5q-27 0 -41 2l-10 -45q17 10 61 10q80 0 121 -48t33 -124q-7 -76 -67.5 -127t-137.5 -51q-64 0 -107.5 35t-52.5 92q-4 20 8.5 36t32.5 19q20 4 34.5 -4.5t16.5 -23.5 q6 -28 27.5 -45t50.5 -17q36 0 63.5 25t30.5 61q5 35 -17.5 60.5t-57.5 25.5q-29 0 -54 -18q-31 -19 -55 -12q-21 3 -32.5 19t-6.5 34l29 106q-144 22 -264 91.5t-201.5 173t-120 240.5t-22.5 288q17 167 98 316.5t202.5 256t280 168.5t326.5 62q175 0 323.5 -74t255.5 -209 q28 -36 14 -93t-63 -93q-51 -38 -104 -36.5t-84 40.5q-42 44 -76 73.5t-79 56.5t-98.5 40.5t-117.5 13.5q-142 0 -269.5 -69.5t-210 -190t-97.5 -262.5t42 -262.5t170 -190t255 -69.5q120 0 211 45.5t200 138.5z" />
<glyph unicode="&#xc8;" horiz-adv-x="1333" d="M1010 1612l-250 67q-49 14 -51.5 63.5t33.5 85t79 15.5l228 -121q23 -17 24 -44.5t-19 -50.5t-44 -15zM135 123l70 663q4 51 50.5 87t106.5 36h736q51 0 82.5 -41t25.5 -100q-6 -58 -46 -98.5t-91 -40.5h-590l-37 -350h732q51 0 82.5 -41t25.5 -99t-46 -98.5t-91 -40.5 h-877q-60 0 -99.5 36t-33.5 87zM244 1153l26 260q4 51 51 87t107 36h877q51 0 82.5 -41t25.5 -100q-6 -58 -46 -99t-91 -41h-731l-10 -102q-6 -51 -53 -87t-107 -36t-98.5 36t-32.5 87z" />
<glyph unicode="&#xc9;" horiz-adv-x="1333" d="M995 1679l-266 -67q-33 -10 -46 25q-14 36 9 67q9 11 23 18l252 121q51 22 80 -22q25 -40 8 -87q-15 -43 -60 -55zM135 123l70 663q4 51 50.5 87t106.5 36h736q51 0 82.5 -41t25.5 -100q-6 -58 -46 -98.5t-91 -40.5h-590l-37 -350h732q51 0 82.5 -41t25.5 -99t-46 -98.5 t-91 -40.5h-877q-60 0 -99.5 36t-33.5 87zM244 1153l26 260q4 51 51 87t107 36h877q51 0 82.5 -41t25.5 -100q-6 -58 -46 -99t-91 -41h-731l-10 -102q-6 -51 -53 -87t-107 -36t-98.5 36t-32.5 87z" />
<glyph unicode="&#xca;" horiz-adv-x="1333" d="M870 1743l-135 -115q-18 -15 -43.5 -12t-42.5 24q-15 21 -13.5 46.5t21.5 42.5l177 153q22 19 53 19q30 0 49 -19l141 -153q18 -16 15.5 -41.5t-23.5 -47.5q-21 -21 -47 -24t-41 12zM135 123l70 663q4 51 50.5 87t106.5 36h736q51 0 82.5 -41t25.5 -100q-6 -58 -46 -98.5 t-91 -40.5h-590l-37 -350h732q51 0 82.5 -41t25.5 -99t-46 -98.5t-91 -40.5h-877q-60 0 -99.5 36t-33.5 87zM244 1153l26 260q4 51 51 87t107 36h877q51 0 82.5 -41t25.5 -100q-6 -58 -46 -99t-91 -41h-731l-10 -102q-6 -51 -53 -87t-107 -36t-98.5 36t-32.5 87z" />
<glyph unicode="&#xcb;" horiz-adv-x="1333" d="M750 1718q-4 -42 -38.5 -73t-76.5 -31q-44 0 -71.5 30.5t-22.5 73.5q4 44 38 74.5t78 30.5q42 0 69.5 -30.5t23.5 -74.5zM1157 1718q-4 -43 -39.5 -73.5t-79.5 -30.5q-43 0 -70 30.5t-22 73.5q4 44 38 74.5t77 30.5q44 0 72 -30.5t24 -74.5zM135 123l70 663q4 51 50.5 87 t106.5 36h736q51 0 82.5 -41t25.5 -100q-6 -58 -46 -98.5t-91 -40.5h-590l-37 -350h732q51 0 82.5 -41t25.5 -99t-46 -98.5t-91 -40.5h-877q-60 0 -99.5 36t-33.5 87zM244 1153l26 260q4 51 51 87t107 36h877q51 0 82.5 -41t25.5 -100q-6 -58 -46 -99t-91 -41h-731l-10 -102 q-6 -51 -53 -87t-107 -36t-98.5 36t-32.5 87z" />
<glyph unicode="&#xcc;" horiz-adv-x="536" d="M567 1612l-250 67q-49 14 -51.5 63.5t34 85t79.5 15.5l227 -121q23 -17 24 -44.5t-19 -50.5t-44 -15zM133 106l139 1324q4 51 51 86.5t107 35.5t98.5 -35.5t34.5 -86.5l-139 -1324q-6 -52 -52 -87t-106 -35q-61 0 -100 35t-33 87z" />
<glyph unicode="&#xcd;" horiz-adv-x="536" d="M571 1679l-266 -67q-33 -10 -46 25q-14 36 9 67q9 11 23 18l252 121q51 22 80 -22q25 -40 8 -87q-15 -43 -60 -55zM133 106l139 1324q4 51 51 86.5t107 35.5t98.5 -35.5t34.5 -86.5l-139 -1324q-6 -52 -52 -87t-106 -35q-61 0 -100 35t-33 87z" />
<glyph unicode="&#xce;" horiz-adv-x="536" d="M133 106l139 1324q4 51 51 86.5t107 35.5t98.5 -35.5t34.5 -86.5l-139 -1324q-6 -52 -52 -87t-106 -35q-61 0 -100 35t-33 87zM451 1743l-136 -115q-18 -15 -43.5 -12t-42.5 24q-15 21 -13 46.5t22 42.5l176 153q22 19 53 19q30 0 49 -19l141 -153q18 -16 15.5 -41.5 t-23.5 -47.5q-21 -21 -47 -24t-41 12z" />
<glyph unicode="&#xcf;" horiz-adv-x="536" d="M362 1716q-5 -42 -38.5 -72t-75.5 -30q-44 0 -71.5 30t-22.5 72q5 44 38.5 75.5t77.5 31.5q43 0 70 -31.5t22 -75.5zM743 1716q-5 -41 -39.5 -71.5t-78.5 -30.5q-42 0 -68.5 30t-21.5 72q5 44 37 75.5t75 31.5q44 0 72.5 -31.5t23.5 -75.5zM133 106l139 1324 q4 51 51 86.5t107 35.5t98.5 -35.5t34.5 -86.5l-139 -1324q-6 -52 -52 -87t-106 -35q-61 0 -100 35t-33 87z" />
<glyph unicode="&#xd0;" horiz-adv-x="1556" d="M201 383q6 51 51.5 87t105.5 36t100 -36t34 -87l-11 -104h244q201 0 359 143.5t180 345.5q14 132 -40 244t-159.5 177.5t-237.5 65.5h-243l-11 -102q-6 -52 -52.5 -87.5t-106.5 -35.5t-98.5 35.5t-32.5 87.5l26 260q4 51 51 87t107 36h389q164 0 304 -58t235 -159 t141 -244t29 -307t-93.5 -307t-192 -244t-267.5 -159t-316 -58h-389q-60 0 -99.5 36t-33.5 87zM737 629h-528q-50 0 -80.5 40.5t-24.5 98.5t45 98.5t89 40.5h528q50 0 80 -40.5t24 -98.5t-44.5 -98.5t-88.5 -40.5z" />
<glyph unicode="&#xd1;" horiz-adv-x="1452" d="M133 106l137 1313q6 55 61 94t126 39q54 0 95 -24.5t56 -63.5l479 -954h7l94 920q4 51 51 86.5t107 35.5t98.5 -35.5t34.5 -86.5l-140 -1313q-4 -55 -58.5 -94t-125.5 -39q-54 0 -96 22.5t-55 59.5l-480 958h-6l-94 -918q-6 -51 -52 -86.5t-106 -35.5t-99.5 35.5 t-33.5 86.5zM662 1610q6 62 54 106.5t111 44.5q42 0 74.5 -22t46.5 -58q9 -20 35 -20q38 0 43 39q2 19 19 32t40 13t38.5 -13t13.5 -32q-7 -65 -55.5 -108.5t-110.5 -43.5q-41 0 -74 21.5t-51 56.5q-8 23 -31 23q-16 0 -29 -10t-14 -29q-2 -19 -19 -32t-40 -13t-38 13 t-13 32z" />
<glyph unicode="&#xd2;" horiz-adv-x="1789" d="M1499 768q15 142 -42 262.5t-170.5 190t-256.5 69.5q-142 0 -269.5 -69.5t-210 -190t-97.5 -262.5q-15 -143 42 -263.5t170 -190.5t255 -70q143 0 271 70t210.5 190.5t97.5 263.5zM1798 768q-17 -167 -98 -316.5t-202.5 -256t-280 -168.5t-326.5 -62q-169 0 -314.5 62 t-244.5 168.5t-148 255.5t-32 317q17 167 97.5 316.5t202 256t280 168.5t327.5 62q168 0 313.5 -62t244.5 -168.5t148.5 -256t32.5 -316.5zM1219 1653l-250 67q-49 14 -51.5 63.5t33.5 85t79 15.5l227 -121q25 -14 25.5 -44t-19.5 -52t-44 -14z" />
<glyph unicode="&#xd3;" horiz-adv-x="1789" d="M1499 768q15 142 -42 262.5t-170.5 190t-256.5 69.5q-142 0 -269.5 -69.5t-210 -190t-97.5 -262.5q-15 -143 42 -263.5t170 -190.5t255 -70q143 0 271 70t210.5 190.5t97.5 263.5zM1798 768q-17 -167 -98 -316.5t-202.5 -256t-280 -168.5t-326.5 -62q-169 0 -314.5 62 t-244.5 168.5t-148 255.5t-32 317q17 167 97.5 316.5t202 256t280 168.5t327.5 62q168 0 313.5 -62t244.5 -168.5t148.5 -256t32.5 -316.5zM1202 1720l-266 -67q-33 -10 -46 25q-13 36 10 67q9 11 22 18l252 121q51 22 80 -22q25 -40 8 -87q-15 -43 -60 -55z" />
<glyph unicode="&#xd4;" horiz-adv-x="1789" d="M1499 768q15 142 -42 262.5t-170.5 190t-256.5 69.5q-142 0 -269.5 -69.5t-210 -190t-97.5 -262.5q-15 -143 42 -263.5t170 -190.5t255 -70q143 0 271 70t210.5 190.5t97.5 263.5zM1798 768q-17 -167 -98 -316.5t-202.5 -256t-280 -168.5t-326.5 -62q-169 0 -314.5 62 t-244.5 168.5t-148 255.5t-32 317q17 167 97.5 316.5t202 256t280 168.5t327.5 62q168 0 313.5 -62t244.5 -168.5t148.5 -256t32.5 -316.5zM1077 1743l-135 -115q-18 -15 -43.5 -12t-42.5 24q-15 21 -13.5 46.5t21.5 42.5l176 153q22 19 54 19q30 0 49 -19l141 -153 q18 -16 15.5 -41.5t-23.5 -47.5q-21 -21 -47 -24t-41 12z" />
<glyph unicode="&#xd5;" horiz-adv-x="1789" d="M1499 768q15 142 -42 262.5t-170.5 190t-256.5 69.5q-142 0 -269.5 -69.5t-210 -190t-97.5 -262.5q-15 -143 42 -263.5t170 -190.5t255 -70q143 0 271 70t210.5 190.5t97.5 263.5zM1798 768q-17 -167 -98 -316.5t-202.5 -256t-280 -168.5t-326.5 -62q-169 0 -314.5 62 t-244.5 168.5t-148 255.5t-32 317q17 167 97.5 316.5t202 256t280 168.5t327.5 62q168 0 313.5 -62t244.5 -168.5t148.5 -256t32.5 -316.5zM836 1671q6 62 54.5 107t110.5 45q42 0 74.5 -22t46.5 -58q9 -21 35 -21q38 0 43 39q1 19 19 32t41 13t38 -13t13 -32 q-7 -65 -55.5 -108t-110.5 -43q-41 0 -74 21.5t-51 56.5q-7 22 -31 22q-37 0 -43 -39q-2 -19 -19 -32t-40 -13t-38 13t-13 32z" />
<glyph unicode="&#xd6;" horiz-adv-x="1789" d="M977 1718q-4 -43 -39 -73.5t-78 -30.5q-44 0 -71.5 30.5t-22.5 73.5t39 74t78 31q43 0 70.5 -31t23.5 -74zM1382 1718q-5 -43 -39.5 -73.5t-78.5 -30.5q-41 0 -67.5 30.5t-22.5 73.5q5 43 38 74t74 31q44 0 72.5 -31t23.5 -74zM1499 768q15 142 -42 262.5t-170.5 190 t-256.5 69.5q-142 0 -269.5 -69.5t-210 -190t-97.5 -262.5q-15 -143 42 -263.5t170 -190.5t255 -70q143 0 271 70t210.5 190.5t97.5 263.5zM1798 768q-17 -167 -98 -316.5t-202.5 -256t-280 -168.5t-326.5 -62q-169 0 -314.5 62t-244.5 168.5t-148 255.5t-32 317 q17 167 97.5 316.5t202 256t280 168.5t327.5 62q168 0 313.5 -62t244.5 -168.5t148.5 -256t32.5 -316.5z" />
<glyph unicode="&#xd7;" horiz-adv-x="1351" d="M102 16q-31 31 -35 71t21 65l442 442l-440 440q-25 25 -21 64.5t33 70.5q31 29 71 33.5t65 -20.5l440 -441l438 439q26 25 65 21.5t70 -34.5t35 -70.5t-22 -64.5l-439 -438l439 -438q26 -26 22 -65.5t-35 -70.5t-70 -35t-65 21l-438 440l-442 -442q-25 -25 -65 -21 t-69 33z" />
<glyph unicode="&#xd8;" horiz-adv-x="1810" d="M463 637q10 -51 -24 -96.5t-97 -65.5q-59 -17 -106.5 5.5t-61.5 72.5q-25 96 -12 215q17 167 97.5 316.5t202 256t280 168.5t327.5 62q124 0 211 -33q48 -18 66 -64t-5 -102q-26 -58 -74 -85t-98 -13q-69 16 -129 16q-142 0 -270 -69.5t-211 -190t-98 -262.5 q-6 -71 2 -131zM1815 1384l-1526 -1380q-29 -25 -69 -21.5t-66 33.5q-28 29 -27 69.5t29 66.5l1525 1380q29 25 69 21.5t65 -33.5q27 -30 27 -69.5t-27 -66.5zM1507 899q-10 51 24 96.5t97 65.5q59 17 106.5 -5.5t61.5 -72.5q24 -105 12 -215q-17 -167 -97.5 -316.5 t-202 -256t-280 -168.5t-327.5 -62q-123 0 -213 33q-47 18 -64 64t5 102q26 58 74 85t98 13q66 -16 129 -16q142 0 270 69.5t211 190t98 262.5q5 56 -2 131z" />
<glyph unicode="&#xd9;" horiz-adv-x="1468" d="M272 1430q4 51 51 86.5t107 35.5t98.5 -35.5t34.5 -86.5l-94 -895q-13 -134 69.5 -215.5t221.5 -81.5t238 81.5t112 215.5l94 895q4 51 51 86.5t107 35.5t98.5 -35.5t34.5 -86.5l-94 -895q-18 -173 -111 -303.5t-238 -198.5t-321 -68q-270 0 -425 154.5t-128 415.5z M1057 1612l-250 67q-49 14 -51.5 63.5t33.5 85t79 15.5l228 -121q23 -17 24 -44.5t-19 -50.5t-44 -15z" />
<glyph unicode="&#xda;" horiz-adv-x="1468" d="M272 1430q4 51 51 86.5t107 35.5t98.5 -35.5t34.5 -86.5l-94 -895q-13 -134 69.5 -215.5t221.5 -81.5t238 81.5t112 215.5l94 895q4 51 51 86.5t107 35.5t98.5 -35.5t34.5 -86.5l-94 -895q-18 -173 -111 -303.5t-238 -198.5t-321 -68q-270 0 -425 154.5t-128 415.5z M1040 1679l-266 -67q-33 -10 -46 25q-14 36 9 67q9 11 23 18l252 121q51 22 80 -22q25 -40 8 -87q-15 -43 -60 -55z" />
<glyph unicode="&#xdb;" horiz-adv-x="1468" d="M272 1430q4 51 51 86.5t107 35.5t98.5 -35.5t34.5 -86.5l-94 -895q-13 -134 69.5 -215.5t221.5 -81.5t238 81.5t112 215.5l94 895q4 51 51 86.5t107 35.5t98.5 -35.5t34.5 -86.5l-94 -895q-18 -173 -111 -303.5t-238 -198.5t-321 -68q-270 0 -425 154.5t-128 415.5z M918 1743l-136 -115q-18 -15 -43.5 -12t-42.5 24q-15 21 -13 46.5t22 42.5l176 153q22 19 53 19q30 0 49 -19l141 -153q18 -16 15.5 -41.5t-23.5 -47.5q-21 -21 -47 -24t-41 12z" />
<glyph unicode="&#xdc;" horiz-adv-x="1468" d="M813 1718q-4 -42 -38.5 -73t-76.5 -31q-44 0 -71.5 30.5t-22.5 73.5q4 44 38.5 74.5t78.5 30.5q42 0 69 -30.5t23 -74.5zM1221 1718q-4 -43 -39.5 -73.5t-79.5 -30.5q-43 0 -70 30.5t-22 73.5q4 44 37.5 74.5t76.5 30.5q45 0 73 -30.5t24 -74.5zM272 1430q4 51 51 86.5 t107 35.5t98.5 -35.5t34.5 -86.5l-94 -895q-13 -134 69.5 -215.5t221.5 -81.5t238 81.5t112 215.5l94 895q4 51 51 86.5t107 35.5t98.5 -35.5t34.5 -86.5l-94 -895q-18 -173 -111 -303.5t-238 -198.5t-321 -68q-270 0 -425 154.5t-128 415.5z" />
<glyph unicode="&#xdd;" horiz-adv-x="1392" d="M1006 1679l-267 -67q-33 -10 -46 25q-14 36 9 67q9 11 23 18l252 121q51 22 80 -22q26 -40 9 -87q-15 -43 -60 -55zM694 -16q-61 0 -100 35t-33 87l70 662q3 31 31 63l602 680q36 41 92.5 42.5t97.5 -35.5q45 -37 51 -91t-30 -96l-562 -633l-61 -592q-6 -52 -52 -87 t-106 -35zM444 1511l234 -344q29 -40 12 -94.5t-69 -91.5q-51 -37 -107 -35.5t-84 41.5l-233 344q-28 41 -11 95.5t68 91.5t107 35.5t83 -42.5z" />
<glyph unicode="&#xde;" horiz-adv-x="1331" d="M424 106q-6 -52 -52 -87t-106 -35q-61 0 -100 35t-33 87l139 1324q4 51 51 86.5t107 35.5t98.5 -35.5t34.5 -86.5zM705 489q-50 0 -80.5 41t-24.5 99t44.5 98.5t88.5 40.5h176q63 0 110.5 43.5t53.5 103.5q7 63 -31.5 106.5t-101.5 43.5h-176q-50 0 -80.5 39.5 t-24.5 97.5t45 99.5t89 41.5h176q178 0 290.5 -125t92.5 -303q-19 -175 -157 -300.5t-314 -125.5h-176z" />
<glyph unicode="&#xdf;" horiz-adv-x="1249" d="M846 1147q2 61 -37.5 102t-103.5 41q-59 0 -108.5 -39.5t-61.5 -97.5l-148 -1397q-4 -51 -51 -87t-107 -36t-99 36t-34 87l148 1397q19 172 164 295t325 123q195 0 314.5 -116.5t101.5 -301.5q-14 -80 -64.5 -114.5t-115.5 -24.5q-59 7 -92 46.5t-31 86.5zM727 659h-35 q-49 0 -79 41t-25 99q6 57 46 98t89 41h35q143 0 251.5 -53t165.5 -161t42 -255q-24 -220 -181 -344.5t-377 -124.5h-34q-49 0 -80 41t-25 98t45 98.5t88 41.5h35q88 0 154.5 53t75.5 137q7 85 -48 137.5t-143 52.5z" />
<glyph unicode="&#xe0;" horiz-adv-x="1486" d="M1004 1335l-252 68q-48 14 -50 63.5t34 85t79 15.5l227 -121q24 -14 24.5 -44.5t-19 -52.5t-43.5 -14zM932 16q-94 -51 -258 -51q-163 0 -291.5 81.5t-193.5 226.5t-46 321q18 176 113 320t240.5 225.5t308.5 81.5q243 0 377 -207h4l6 65q5 51 49.5 87t104.5 36t98 -36 t33 -87l-103 -973q-6 -52 -50.5 -87t-104.5 -35t-97.5 35t-31.5 87l51 488q15 143 -76 245.5t-236 102.5q-144 0 -257 -102.5t-128 -245.5q-15 -145 76 -247.5t236 -102.5q48 0 98 12q39 16 74.5 -7.5t54.5 -68.5q19 -46 4 -94t-55 -70z" />
<glyph unicode="&#xe1;" horiz-adv-x="1486" d="M985 1403l-264 -68q-32 -9 -46 25q-14 36 9 67q9 12 23 19l251 121q51 22 80 -22q26 -40 8 -87q-15 -43 -61 -55zM932 16q-94 -51 -258 -51q-163 0 -291.5 81.5t-193.5 226.5t-46 321q18 176 113 320t240.5 225.5t308.5 81.5q243 0 377 -207h4l6 65q5 51 49.5 87 t104.5 36t98 -36t33 -87l-103 -973q-6 -52 -50.5 -87t-104.5 -35t-97.5 35t-31.5 87l51 488q15 143 -76 245.5t-236 102.5q-144 0 -257 -102.5t-128 -245.5q-15 -145 76 -247.5t236 -102.5q48 0 98 12q39 16 74.5 -7.5t54.5 -68.5q19 -46 4 -94t-55 -70z" />
<glyph unicode="&#xe2;" horiz-adv-x="1486" d="M850 1473l-135 -115q-18 -15 -43.5 -12t-42.5 24q-15 21 -13.5 46t21.5 42l176 154q21 18 53 18q31 0 49 -18l142 -154q18 -16 15.5 -41t-23.5 -47q-21 -21 -47 -24t-41 12zM932 16q-94 -51 -258 -51q-163 0 -291.5 81.5t-193.5 226.5t-46 321q18 176 113 320 t240.5 225.5t308.5 81.5q243 0 377 -207h4l6 65q5 51 49.5 87t104.5 36t98 -36t33 -87l-103 -973q-6 -52 -50.5 -87t-104.5 -35t-97.5 35t-31.5 87l51 488q15 143 -76 245.5t-236 102.5q-144 0 -257 -102.5t-128 -245.5q-15 -145 76 -247.5t236 -102.5q48 0 98 12 q39 16 74.5 -7.5t54.5 -68.5q19 -46 4 -94t-55 -70z" />
<glyph unicode="&#xe3;" horiz-adv-x="1486" d="M621 1419q8 62 55.5 107t109.5 45q42 0 74.5 -22t46.5 -58q9 -21 35 -21q38 0 43 39q2 19 19 32t40 13t38.5 -13t13.5 -32q-7 -65 -55.5 -108t-110.5 -43q-41 0 -74 21.5t-51 56.5q-7 22 -31 22q-37 0 -43 -39q-2 -19 -19 -32t-40 -13t-38 13t-13 32zM932 16 q-94 -51 -258 -51q-163 0 -291.5 81.5t-193.5 226.5t-46 321q18 176 113 320t240.5 225.5t308.5 81.5q243 0 377 -207h4l6 65q5 51 49.5 87t104.5 36t98 -36t33 -87l-103 -973q-6 -52 -50.5 -87t-104.5 -35t-97.5 35t-31.5 87l51 488q15 143 -76 245.5t-236 102.5 q-144 0 -257 -102.5t-128 -245.5q-15 -145 76 -247.5t236 -102.5q48 0 98 12q39 16 74.5 -7.5t54.5 -68.5q19 -46 4 -94t-55 -70z" />
<glyph unicode="&#xe4;" horiz-adv-x="1486" d="M762 1466q-4 -43 -38 -73.5t-77 -30.5q-44 0 -71.5 30.5t-22.5 73.5t39 74t78 31q43 0 70 -31t22 -74zM1169 1466q-5 -43 -39.5 -73.5t-78.5 -30.5q-42 0 -68.5 30.5t-21.5 73.5t37.5 74t74.5 31q44 0 72.5 -31t23.5 -74zM932 16q-94 -51 -258 -51q-163 0 -291.5 81.5 t-193.5 226.5t-46 321q18 176 113 320t240.5 225.5t308.5 81.5q243 0 377 -207h4l6 65q5 51 49.5 87t104.5 36t98 -36t33 -87l-103 -973q-6 -52 -50.5 -87t-104.5 -35t-97.5 35t-31.5 87l51 488q15 143 -76 245.5t-236 102.5q-144 0 -257 -102.5t-128 -245.5 q-15 -145 76 -247.5t236 -102.5q48 0 98 12q39 16 74.5 -7.5t54.5 -68.5q19 -46 4 -94t-55 -70z" />
<glyph unicode="&#xe5;" horiz-adv-x="1486" d="M922 1489q2 22 -12 37.5t-36 15.5q-25 0 -43 -15.5t-20 -37.5q-3 -25 11.5 -41t39.5 -16q22 0 39.5 16.5t20.5 40.5zM1018 1489q-6 -63 -56 -108.5t-110 -45.5q-63 0 -103 45.5t-34 108.5q6 61 56.5 105t113.5 44q60 0 99.5 -44t33.5 -105zM932 16q-94 -51 -258 -51 q-163 0 -291.5 81.5t-193.5 226.5t-46 321q18 176 113 320t240.5 225.5t308.5 81.5q243 0 377 -207h4l6 65q5 51 49.5 87t104.5 36t98 -36t33 -87l-103 -973q-6 -52 -50.5 -87t-104.5 -35t-97.5 35t-31.5 87l51 488q15 143 -76 245.5t-236 102.5q-144 0 -257 -102.5 t-128 -245.5q-15 -145 76 -247.5t236 -102.5q48 0 98 12q39 16 74.5 -7.5t54.5 -68.5q19 -46 4 -94t-55 -70z" />
<glyph unicode="&#xe6;" horiz-adv-x="2498" d="M1604 588q4 52 39.5 88.5t80.5 36.5h455q-26 108 -107.5 171.5t-193.5 63.5q-142 0 -255 -105.5t-128 -248.5q-15 -148 77 -258.5t240 -110.5q81 0 168 28.5t144 76.5q35 34 85 33t85 -37q37 -34 39.5 -84t-29.5 -84q-103 -91 -241 -142t-277 -51q-129 0 -233 54 t-173 151l-6 -64q-6 -52 -50.5 -87t-104.5 -35t-97.5 35t-31.5 87l51 488q15 143 -76 245.5t-236 102.5q-144 0 -257 -102.5t-128 -245.5q-15 -145 76 -247.5t236 -102.5q48 0 98 12q39 16 74.5 -7.5t54.5 -68.5q19 -46 4 -94t-55 -70q-94 -51 -258 -51q-163 0 -291.5 81.5 t-193.5 226.5t-46 321q18 176 113 320t240.5 225.5t308.5 81.5q243 0 377 -207h4l6 65q5 51 49.5 87t104.5 36t98 -36t33 -87l-7 -65h5q89 97 199 152t233 55q129 0 241.5 -49t189.5 -132.5t115.5 -200t24.5 -245.5q-5 -52 -53 -92.5t-107 -40.5h-620q-44 0 -72 37.5 t-22 89.5z" />
<glyph unicode="&#xe7;" horiz-adv-x="1255" d="M987 328q40 35 93.5 30t88.5 -47q39 -40 36.5 -96.5t-48.5 -93.5q-196 -156 -430 -156q-27 0 -41 2l-10 -45q18 10 61 10q80 0 121 -48t33 -124q-7 -76 -67.5 -127t-137.5 -51q-64 0 -107.5 35t-52.5 92q-4 20 8.5 36t32.5 19q20 4 34.5 -4.5t16.5 -23.5q6 -28 27.5 -45 t50.5 -17q36 0 64 25t31 61q4 35 -18.5 60.5t-57.5 25.5q-28 0 -53 -18q-31 -19 -56 -12q-21 3 -32.5 19t-6.5 34l29 108q-221 42 -349 213.5t-104 403.5q18 176 120 320t259.5 225.5t335.5 81.5q243 0 397 -154q40 -41 32 -93t-58 -97q-43 -41 -98.5 -46.5t-86.5 29.5 q-88 82 -215 82q-144 0 -257 -102.5t-128 -245.5t76.5 -245.5t235.5 -102.5q130 0 231 82z" />
<glyph unicode="&#xe8;" horiz-adv-x="1447" d="M1016 1335l-252 68q-48 14 -50 63.5t34 85t79 15.5l228 -121q18 -10 22 -31.5t-3 -41t-23.5 -32t-34.5 -6.5zM553 588q4 52 40 88.5t81 36.5h454q-26 108 -107.5 171.5t-193.5 63.5q-142 0 -255 -105.5t-128 -248.5q-15 -147 77.5 -258t240.5 -111q80 0 167 28.5 t144 76.5q35 34 85 33t85 -37q37 -34 39.5 -84t-29.5 -84q-103 -91 -241 -142t-277 -51q-182 0 -324.5 81.5t-214.5 226t-53 321.5q18 176 120 320t259 225.5t334 81.5q129 0 241.5 -49t189.5 -132.5t115.5 -200t24.5 -245.5q-5 -52 -52.5 -92.5t-106.5 -40.5h-621 q-44 0 -72 37.5t-22 89.5z" />
<glyph unicode="&#xe9;" horiz-adv-x="1447" d="M997 1403l-264 -68q-32 -9 -46 25q-14 36 9 67q9 12 23 19l252 121q51 22 80 -22q25 -40 8 -87q-16 -43 -62 -55zM553 588q4 52 40 88.5t81 36.5h454q-26 108 -107.5 171.5t-193.5 63.5q-142 0 -255 -105.5t-128 -248.5q-15 -147 77.5 -258t240.5 -111q80 0 167 28.5 t144 76.5q35 34 85 33t85 -37q37 -34 39.5 -84t-29.5 -84q-103 -91 -241 -142t-277 -51q-182 0 -324.5 81.5t-214.5 226t-53 321.5q18 176 120 320t259 225.5t334 81.5q129 0 241.5 -49t189.5 -132.5t115.5 -200t24.5 -245.5q-5 -52 -52.5 -92.5t-106.5 -40.5h-621 q-44 0 -72 37.5t-22 89.5z" />
<glyph unicode="&#xea;" horiz-adv-x="1447" d="M965 1368l-76 127h-8l-101 -127q-15 -19 -38.5 -22.5t-43.5 8.5q-22 13 -28 36t6 40l139 157q35 40 84.5 40t75.5 -40l106 -157q9 -17 -2.5 -39.5t-36.5 -36.5q-23 -12 -45.5 -8.5t-31.5 22.5zM553 588q4 52 40 88.5t81 36.5h454q-26 108 -107.5 171.5t-193.5 63.5 q-142 0 -255 -105.5t-128 -248.5q-15 -147 77.5 -258t240.5 -111q80 0 167 28.5t144 76.5q35 34 85 33t85 -37q37 -34 39.5 -84t-29.5 -84q-103 -91 -241 -142t-277 -51q-182 0 -324.5 81.5t-214.5 226t-53 321.5q18 176 120 320t259 225.5t334 81.5q129 0 241.5 -49 t189.5 -132.5t115.5 -200t24.5 -245.5q-5 -52 -52.5 -92.5t-106.5 -40.5h-621q-44 0 -72 37.5t-22 89.5z" />
<glyph unicode="&#xeb;" horiz-adv-x="1447" d="M784 1466q-4 -42 -38 -73t-76 -31q-44 0 -72 30.5t-23 73.5t39 74t78 31q41 0 68.5 -31t23.5 -74zM1192 1466q-4 -43 -39.5 -73.5t-79.5 -30.5q-43 0 -70 30.5t-22 73.5t38.5 74t76.5 31q44 0 72.5 -31t23.5 -74zM553 588q4 52 40 88.5t81 36.5h454q-26 108 -107.5 171.5 t-193.5 63.5q-142 0 -255 -105.5t-128 -248.5q-15 -147 77.5 -258t240.5 -111q80 0 167 28.5t144 76.5q35 34 85 33t85 -37q37 -34 39.5 -84t-29.5 -84q-103 -91 -241 -142t-277 -51q-182 0 -324.5 81.5t-214.5 226t-53 321.5q18 176 120 320t259 225.5t334 81.5 q129 0 241.5 -49t189.5 -132.5t115.5 -200t24.5 -245.5q-5 -52 -52.5 -92.5t-106.5 -40.5h-621q-44 0 -72 37.5t-22 89.5z" />
<glyph unicode="&#xec;" horiz-adv-x="532" d="M133 106l103 973q5 51 50 87t105 36t98 -36t33 -87l-102 -973q-6 -51 -51 -86.5t-105 -35.5t-98.5 35.5t-32.5 86.5zM537 1335l-252 68q-48 14 -50 63.5t34 85t79 15.5l227 -121q24 -14 24.5 -44.5t-19 -52.5t-43.5 -14z" />
<glyph unicode="&#xed;" horiz-adv-x="532" d="M133 106l103 973q5 51 50 87t105 36t98 -36t33 -87l-102 -973q-6 -51 -51 -86.5t-105 -35.5t-98.5 35.5t-32.5 86.5zM541 1403l-265 -68q-32 -9 -46 25q-14 36 9 67q9 12 23 19l252 121q51 22 80 -22q26 -40 8 -87q-15 -43 -61 -55z" />
<glyph unicode="&#xee;" horiz-adv-x="532" d="M133 106l103 973q5 51 50 87t105 36t98 -36t33 -87l-102 -973q-6 -51 -51 -86.5t-105 -35.5t-98.5 35.5t-32.5 86.5zM420 1473l-135 -115q-18 -15 -43.5 -12t-42.5 24q-15 21 -13.5 46t21.5 42l176 154q21 18 53 18q31 0 49 -18l142 -154q18 -16 15 -41t-24 -47 q-21 -21 -47 -24t-41 12z" />
<glyph unicode="&#xef;" horiz-adv-x="532" d="M330 1466q-4 -42 -38.5 -73t-76.5 -31q-44 0 -71.5 30.5t-22.5 73.5t39 74t78 31q41 0 68.5 -31t23.5 -74zM713 1466q-4 -43 -39 -73.5t-78 -30.5t-70 30.5t-22 73.5t38 74t76 31t71 -31t24 -74zM133 106l103 973q5 51 50 87t105 36t98 -36t33 -87l-102 -973 q-6 -51 -51 -86.5t-105 -35.5t-98.5 35.5t-32.5 86.5z" />
<glyph unicode="&#xf0;" horiz-adv-x="1384" d="M342 1223q-3 21 8.5 40t32.5 25l113 31q-31 35 -21 90.5t57 97.5q46 41 101.5 45.5t89.5 -30.5l98 -113l160 45q21 5 38.5 -6.5t20.5 -32.5q4 -20 -8 -38.5t-33 -24.5l-102 -29l330 -369q74 -81 109.5 -185.5t23.5 -217.5q-12 -115 -72 -222.5t-150 -187.5t-208.5 -128 t-241.5 -48q-164 0 -297 81t-200.5 216.5t-51.5 288.5q15 144 103 273t223 212q41 25 89.5 8.5t76.5 -65.5q26 -49 16 -101.5t-53 -78.5q-62 -43 -104.5 -110t-49.5 -138q-12 -122 69.5 -215.5t207.5 -93.5t228 93.5t114 215.5q12 118 -66 213l-420 471l-172 -47 q-22 -6 -39 4t-20 31z" />
<glyph unicode="&#xf1;" d="M633 1419q8 62 56 107t110 45q42 0 74.5 -22t46.5 -58q9 -21 34 -21q38 0 43 39q1 19 19 32t41 13t38 -13t13 -32q-7 -65 -55.5 -108t-110.5 -43q-41 0 -74 21.5t-51 56.5q-7 22 -31 22q-37 0 -43 -39q-2 -19 -19 -32t-40 -13t-38 13t-13 32zM522 1079l-102 -973 q-6 -51 -51 -86.5t-105 -35.5t-98.5 35.5t-32.5 86.5l103 973q5 51 50 87t105 36t98 -36t33 -87zM942 106l59 574q14 125 -46.5 200t-184.5 62l-39 -4q-43 -4 -74 26t-36 80q-4 51 20.5 91.5t67.5 54.5q79 31 178 31q207 0 318.5 -139t86.5 -365l-63 -611q-6 -51 -51 -86.5 t-105 -35.5t-98.5 35.5t-32.5 86.5z" />
<glyph unicode="&#xf2;" horiz-adv-x="1460" d="M1141 594q15 143 -76.5 245.5t-237.5 102.5q-142 0 -255 -102.5t-128 -245.5q-15 -145 76 -247.5t234 -102.5q146 0 259 102.5t128 247.5zM1440 594q-19 -177 -121 -321.5t-259 -226t-335 -81.5q-133 0 -247.5 48t-193 131t-117 200.5t-24.5 249.5q18 176 120 320 t259 225.5t334 81.5q133 0 248 -48t193.5 -131t117.5 -199.5t25 -248.5zM1024 1335l-252 68q-48 14 -50 63.5t34.5 85t79.5 15.5l227 -121q18 -10 22 -31.5t-3 -41t-23.5 -32t-34.5 -6.5z" />
<glyph unicode="&#xf3;" horiz-adv-x="1460" d="M1141 594q15 143 -76.5 245.5t-237.5 102.5q-142 0 -255 -102.5t-128 -245.5q-15 -145 76 -247.5t234 -102.5q146 0 259 102.5t128 247.5zM1440 594q-19 -177 -121 -321.5t-259 -226t-335 -81.5q-133 0 -247.5 48t-193 131t-117 200.5t-24.5 249.5q18 176 120 320 t259 225.5t334 81.5q133 0 248 -48t193.5 -131t117.5 -199.5t25 -248.5zM1006 1403l-265 -68q-32 -9 -46 25q-14 36 9 67q9 12 23 19l252 121q51 22 80 -22q26 -40 8 -87q-15 -43 -61 -55z" />
<glyph unicode="&#xf4;" horiz-adv-x="1460" d="M1141 594q15 143 -76.5 245.5t-237.5 102.5q-142 0 -255 -102.5t-128 -245.5q-15 -145 76 -247.5t234 -102.5q146 0 259 102.5t128 247.5zM1440 594q-19 -177 -121 -321.5t-259 -226t-335 -81.5q-133 0 -247.5 48t-193 131t-117 200.5t-24.5 249.5q18 176 120 320 t259 225.5t334 81.5q133 0 248 -48t193.5 -131t117.5 -199.5t25 -248.5zM883 1473l-135 -115q-18 -15 -43.5 -12t-42.5 24q-15 21 -13.5 46t21.5 42l176 154q21 18 53 18q31 0 49 -18l142 -154q18 -16 15 -41t-24 -47q-21 -21 -47 -24t-41 12z" />
<glyph unicode="&#xf5;" horiz-adv-x="1460" d="M1141 594q15 143 -76.5 245.5t-237.5 102.5q-142 0 -255 -102.5t-128 -245.5q-15 -145 76 -247.5t234 -102.5q146 0 259 102.5t128 247.5zM1440 594q-19 -177 -121 -321.5t-259 -226t-335 -81.5q-133 0 -247.5 48t-193 131t-117 200.5t-24.5 249.5q18 176 120 320 t259 225.5t334 81.5q133 0 248 -48t193.5 -131t117.5 -199.5t25 -248.5zM645 1419q8 62 56 107t110 45q42 0 74.5 -22t46.5 -58q9 -21 35 -21q38 0 43 39q2 19 19 32t40 13t38 -13t13 -32q-7 -65 -55.5 -108t-110.5 -43q-41 0 -74 21.5t-51 56.5q-7 22 -30 22q-37 0 -43 -39 q-1 -19 -19 -32t-41 -13t-38 13t-13 32z" />
<glyph unicode="&#xf6;" horiz-adv-x="1460" d="M784 1466q-4 -42 -38 -73t-76 -31q-44 0 -72 30.5t-23 73.5t39 74t78 31q41 0 68.5 -31t23.5 -74zM1192 1466q-4 -43 -39.5 -73.5t-79.5 -30.5q-43 0 -70 30.5t-22 73.5t38.5 74t76.5 31q44 0 72.5 -31t23.5 -74zM1141 594q15 143 -76.5 245.5t-237.5 102.5 q-142 0 -255 -102.5t-128 -245.5q-15 -145 76 -247.5t234 -102.5q146 0 259 102.5t128 247.5zM1440 594q-19 -177 -121 -321.5t-259 -226t-335 -81.5q-133 0 -247.5 48t-193 131t-117 200.5t-24.5 249.5q18 176 120 320t259 225.5t334 81.5q133 0 248 -48t193.5 -131 t117.5 -199.5t25 -248.5z" />
<glyph unicode="&#xf7;" horiz-adv-x="1390" d="M836 123q0 -59 -41 -99t-101 -40q-57 0 -97 40.5t-40 98.5t40 98.5t97 40.5q60 0 101 -40t41 -99zM557 1061q0 60 40 100.5t97 40.5q60 0 101 -40.5t41 -100.5q0 -57 -41 -97t-101 -40q-57 0 -97 40t-40 97zM86 592q0 43 25.5 73.5t60.5 30.5h1049q35 0 60.5 -30.5 t25.5 -73.5t-25.5 -74t-60.5 -31h-1049q-35 0 -60.5 31t-25.5 74z" />
<glyph unicode="&#xf8;" horiz-adv-x="1476" d="M1436 1034l-1139 -1030q-29 -25 -69 -21.5t-66 33.5q-28 29 -27 69.5t29 66.5l1139 1030q29 25 69 21.5t66 -34.5q27 -30 26 -69t-28 -66zM307 432q-71 -8 -115 20.5t-45 88.5q0 8 5 53q18 176 119.5 320t258.5 225.5t334 81.5q36 0 54 -2q59 -6 82.5 -49t9.5 -107 q-15 -58 -63 -92.5t-111 -28.5q-142 0 -255 -102.5t-128 -245.5q-3 -65 -43.5 -109t-102.5 -53zM1292 754q71 8 115 -20.5t45 -88.5q0 -17 -4 -53q-19 -176 -121 -320t-258.5 -225.5t-333.5 -81.5q-35 0 -53 2q-59 6 -82.5 49t-9.5 107q15 59 62.5 93t111.5 28 q142 0 255 102.5t128 245.5q1 65 41.5 109t103.5 53z" />
<glyph unicode="&#xf9;" d="M954 1335l-252 68q-48 14 -50 63.5t34.5 85t79.5 15.5l227 -121q18 -10 22 -31.5t-3 -41t-23.5 -32t-34.5 -6.5zM942 106l102 973q4 51 50 87t106 36t98 -36t33 -87l-102 -973q-6 -51 -51 -86.5t-105 -35.5t-98.5 35.5t-32.5 86.5zM522 1079l-61 -573q-13 -126 48 -200.5 t185 -61.5l39 4q43 4 74.5 -26.5t36.5 -80.5q4 -51 -20.5 -91t-67.5 -54q-79 -31 -178 -31q-207 0 -319 139t-87 365l64 610q5 51 50 87t105 36t98 -36t33 -87z" />
<glyph unicode="&#xfa;" d="M936 1403l-264 -68q-32 -9 -46 25q-15 36 8 67q9 12 23 19l252 121q51 22 80 -22q26 -40 8 -87q-15 -43 -61 -55zM942 106l102 973q4 51 50 87t106 36t98 -36t33 -87l-102 -973q-6 -51 -51 -86.5t-105 -35.5t-98.5 35.5t-32.5 86.5zM522 1079l-61 -573 q-13 -126 48 -200.5t185 -61.5l39 4q43 4 74.5 -26.5t36.5 -80.5q4 -51 -20.5 -91t-67.5 -54q-79 -31 -178 -31q-207 0 -319 139t-87 365l64 610q5 51 50 87t105 36t98 -36t33 -87z" />
<glyph unicode="&#xfb;" d="M821 1473l-135 -115q-18 -15 -43.5 -12t-42.5 24q-15 21 -13.5 46t21.5 42l176 154q21 18 54 18q31 0 49 -18l141 -154q18 -16 15.5 -41t-23.5 -47q-21 -21 -47 -24t-41 12zM942 106l102 973q4 51 50 87t106 36t98 -36t33 -87l-102 -973q-6 -51 -51 -86.5t-105 -35.5 t-98.5 35.5t-32.5 86.5zM522 1079l-61 -573q-13 -126 48 -200.5t185 -61.5l39 4q43 4 74.5 -26.5t36.5 -80.5q4 -51 -20.5 -91t-67.5 -54q-79 -31 -178 -31q-207 0 -319 139t-87 365l64 610q5 51 50 87t105 36t98 -36t33 -87z" />
<glyph unicode="&#xfc;" d="M725 1466q-4 -42 -38.5 -73t-76.5 -31q-44 0 -71.5 30.5t-22.5 73.5t39 74t78 31q41 0 68.5 -31t23.5 -74zM1133 1466q-4 -43 -39.5 -73.5t-79.5 -30.5q-43 0 -70 30.5t-22 73.5t38 74t76 31q44 0 73 -31t24 -74zM942 106l102 973q4 51 50 87t106 36t98 -36t33 -87 l-102 -973q-6 -51 -51 -86.5t-105 -35.5t-98.5 35.5t-32.5 86.5zM522 1079l-61 -573q-13 -126 48 -200.5t185 -61.5l39 4q43 4 74.5 -26.5t36.5 -80.5q4 -51 -20.5 -91t-67.5 -54q-79 -31 -178 -31q-207 0 -319 139t-87 365l64 610q5 51 50 87t105 36t98 -36t33 -87z" />
<glyph unicode="&#xfd;" horiz-adv-x="1249" d="M901 1403l-264 -68q-32 -9 -46 25q-14 36 9 67q9 12 23 19l251 121q51 22 80 -22q26 -40 8 -87q-15 -43 -61 -55zM379 -352q-51 25 -68.5 75.5t8.5 96.5l754 1315q26 46 81 61.5t106 -10.5q52 -25 70 -75.5t-9 -96.5l-754 -1315q-27 -46 -81 -61.5t-107 10.5zM516 414 q-57 -26 -109 -10.5t-69 61.5l-197 549q-17 46 11 96.5t84 75.5q57 26 109 10.5t69 -61.5l198 -549q15 -46 -13 -96.5t-83 -75.5z" />
<glyph unicode="&#xfe;" horiz-adv-x="1488" d="M678 1169q93 52 258 52q163 0 291.5 -81.5t193.5 -226t47 -321.5q-19 -176 -114.5 -320t-240.5 -225.5t-308 -81.5q-243 0 -377 207h-4l-43 -416q-5 -51 -49.5 -87t-104.5 -36t-98 36t-33 87l176 1674q4 52 49.5 87t106.5 35q60 0 96.5 -35t32.5 -87l-88 -838 q-15 -143 75.5 -245.5t235.5 -102.5q144 0 258 102.5t129 245.5q15 145 -76.5 247.5t-236.5 102.5q-48 0 -98 -12q-39 -16 -74.5 7.5t-54.5 68.5q-19 46 -4 93.5t55 69.5z" />
<glyph unicode="&#xff;" horiz-adv-x="1249" d="M1087 1446q-5 -43 -39.5 -74t-78.5 -31q-43 0 -70 31t-22 74t38 73.5t76 30.5q44 0 72.5 -30.5t23.5 -73.5zM680 1446q-4 -43 -39 -74t-76 -31q-44 0 -71.5 31t-22.5 74t39 73.5t78 30.5q41 0 68.5 -30.5t23.5 -73.5zM379 -352q-51 25 -68.5 75.5t8.5 96.5l754 1315 q26 46 81 61.5t106 -10.5q52 -25 70 -75.5t-9 -96.5l-754 -1315q-27 -46 -81 -61.5t-107 10.5zM516 414q-57 -26 -109 -10.5t-69 61.5l-197 549q-17 46 11 96.5t84 75.5q57 26 109 10.5t69 -61.5l198 -549q15 -46 -13 -96.5t-83 -75.5z" />
<glyph unicode="&#x152;" horiz-adv-x="2519" d="M1069 258q55 13 97 -16t51 -84q9 -58 -19.5 -108.5t-79.5 -59.5q-106 -25 -227 -25q-169 0 -314.5 62t-244.5 168.5t-148 255.5t-32 317q17 167 97.5 316.5t202 256t280 168.5t327.5 62q139 0 229 -34t172 -101q14 43 57 71.5t97 28.5h876q51 0 83 -41.5t26 -99.5 t-46 -99t-91 -41h-731l-11 -102q-6 -51 -52.5 -87t-106.5 -36q-80 0 -119 60q-62 91 -174 145.5t-238 54.5q-142 0 -269.5 -69.5t-210 -190t-97.5 -262.5q-15 -143 42 -263.5t170 -190.5t255 -70q89 0 149 14zM1321 123l70 663q4 51 50.5 87t106.5 36h736q51 0 82.5 -41 t25.5 -100q-6 -58 -46 -98.5t-91 -40.5h-590l-37 -350h731q51 0 83 -41t26 -99t-46 -98.5t-91 -40.5h-877q-60 0 -99.5 36t-33.5 87z" />
<glyph unicode="&#x153;" horiz-adv-x="2443" d="M934 291q48 20 95 -2t67 -76q22 -53 1.5 -107t-67.5 -73q-163 -68 -305 -68q-133 0 -247.5 48t-193 131t-117 200.5t-24.5 249.5q18 176 120 320t259 225.5t334 81.5q148 0 271.5 -59.5t203.5 -162.5q101 105 236.5 163.5t283.5 58.5q103 0 197 -31.5t166.5 -89 t123.5 -134.5t73.5 -173t11.5 -199q-5 -52 -53 -92.5t-107 -40.5h-621q-44 0 -72 37.5t-22 89.5q4 52 40 88.5t81 36.5h455q-26 108 -107.5 171.5t-193.5 63.5q-142 0 -255 -105.5t-128 -248.5q-15 -148 77 -258.5t240 -110.5q80 0 167 28.5t144 76.5q35 34 85 33t85 -37 q37 -34 40 -84t-29 -84q-103 -91 -241 -142t-277 -51q-182 0 -324 81.5t-213.5 226t-52.5 321.5q15 143 -76.5 245.5t-237.5 102.5q-142 0 -255 -102.5t-128 -245.5q-15 -145 76 -247.5t234 -102.5q91 0 180 47z" />
<glyph unicode="&#x178;" horiz-adv-x="1392" d="M776 1718q-4 -42 -38 -73t-76 -31q-44 0 -72 30.5t-23 73.5q4 44 38.5 74.5t78.5 30.5q42 0 69 -30.5t23 -74.5zM1182 1718q-5 -43 -39 -73.5t-78 -30.5q-43 0 -70 30.5t-22 73.5q4 44 37.5 74.5t76.5 30.5q44 0 71.5 -30.5t23.5 -74.5zM694 -16q-61 0 -100 35t-33 87 l70 662q3 31 31 63l602 680q36 41 92.5 42.5t97.5 -35.5q45 -37 51 -91t-30 -96l-562 -633l-61 -592q-6 -52 -52 -87t-106 -35zM444 1511l234 -344q29 -40 12 -94.5t-69 -91.5q-51 -37 -107 -35.5t-84 41.5l-233 344q-28 41 -11 95.5t68 91.5t107 35.5t83 -42.5z" />
<glyph unicode="&#x2c6;" horiz-adv-x="868" d="M588 1473l-135 -115q-18 -15 -43.5 -12t-42.5 24q-15 21 -13.5 46t21.5 42l176 154q21 18 53 18q31 0 49 -18l142 -154q18 -16 15 -41t-24 -47q-21 -21 -47 -24t-41 12z" />
<glyph unicode="&#x2dc;" horiz-adv-x="874" d="M352 1419q8 62 56 107t110 45q42 0 74.5 -22t46.5 -58q9 -21 35 -21q38 0 43 39q2 19 19 32t40 13t38 -13t13 -32q-7 -65 -55 -108t-110 -43q-41 0 -74 21.5t-51 56.5q-7 22 -31 22q-37 0 -43 -39q-1 -19 -19 -32t-41 -13t-38 13t-13 32z" />
<glyph unicode="&#x2000;" horiz-adv-x="950" />
<glyph unicode="&#x2001;" horiz-adv-x="1901" />
<glyph unicode="&#x2002;" horiz-adv-x="950" />
<glyph unicode="&#x2003;" horiz-adv-x="1901" />
<glyph unicode="&#x2004;" horiz-adv-x="633" />
<glyph unicode="&#x2005;" horiz-adv-x="475" />
<glyph unicode="&#x2006;" horiz-adv-x="316" />
<glyph unicode="&#x2007;" horiz-adv-x="316" />
<glyph unicode="&#x2008;" horiz-adv-x="237" />
<glyph unicode="&#x2009;" horiz-adv-x="380" />
<glyph unicode="&#x200a;" horiz-adv-x="105" />
<glyph unicode="&#x2010;" horiz-adv-x="952" d="M188 592q4 43 33 73.5t64 30.5h528q35 0 57.5 -30.5t18.5 -73.5q-5 -43 -33 -74t-63 -31h-529q-35 0 -57.5 31t-18.5 74z" />
<glyph unicode="&#x2011;" horiz-adv-x="952" d="M188 592q4 43 33 73.5t64 30.5h528q35 0 57.5 -30.5t18.5 -73.5q-5 -43 -33 -74t-63 -31h-529q-35 0 -57.5 31t-18.5 74z" />
<glyph unicode="&#x2012;" horiz-adv-x="952" d="M188 592q4 43 33 73.5t64 30.5h528q35 0 57.5 -30.5t18.5 -73.5q-5 -43 -33 -74t-63 -31h-529q-35 0 -57.5 31t-18.5 74z" />
<glyph unicode="&#x2013;" horiz-adv-x="1267" d="M137 592q5 43 33 73.5t63 30.5h961q35 0 57.5 -30.5t18.5 -73.5q-5 -43 -33 -74t-63 -31h-961q-35 0 -57.5 31t-18.5 74z" />
<glyph unicode="&#x2014;" horiz-adv-x="1861" d="M137 592q5 43 33 73.5t63 30.5h1553q35 0 57.5 -30.5t18.5 -73.5q-5 -43 -33.5 -74t-63.5 -31h-1552q-35 0 -57.5 31t-18.5 74z" />
<glyph unicode="&#x2018;" horiz-adv-x="479" d="M553 1489q-3 -26 -22 -44t-44 -18q-45 0 -77.5 -30.5t-38.5 -79.5q10 4 26 4q65 0 107 -47t35 -111q-6 -64 -57.5 -110.5t-116.5 -46.5q-64 0 -106 46t-36 111l17 152q11 98 86 167.5t174 69.5q25 0 40.5 -18.5t12.5 -44.5z" />
<glyph unicode="&#x2019;" horiz-adv-x="479" d="M193 1069q3 26 22.5 43.5t44.5 17.5q44 0 76.5 31t38.5 80q-10 -4 -27 -4q-64 0 -105.5 46.5t-35.5 111.5q6 64 57.5 110.5t116.5 46.5q64 0 105.5 -46t35.5 -111l-16 -152q-9 -97 -85 -167t-175 -70q-24 0 -39.5 18t-13.5 45z" />
<glyph unicode="&#x201a;" horiz-adv-x="479" d="M102 -184q3 26 22 43.5t44 17.5q45 0 78 31t39 80q-10 -4 -27 -4q-65 0 -106.5 46.5t-34.5 110.5q6 64 57.5 111t116.5 47q64 0 105.5 -46.5t35.5 -111.5l-16 -151q-11 -98 -86 -168t-174 -70q-25 0 -41 19t-13 45z" />
<glyph unicode="&#x201c;" horiz-adv-x="856" d="M553 1489q-3 -26 -22 -44t-44 -18q-45 0 -77.5 -30.5t-38.5 -79.5q10 4 26 4q65 0 107 -47t35 -111q-6 -64 -57.5 -110.5t-116.5 -46.5q-64 0 -106 46t-36 111l17 152q11 98 86 167.5t174 69.5q25 0 40.5 -18.5t12.5 -44.5zM930 1489q-3 -26 -22 -44t-44 -18 q-45 0 -77.5 -30.5t-38.5 -79.5q10 4 26 4q65 0 106.5 -47t34.5 -111q-6 -64 -57.5 -110.5t-116.5 -46.5q-64 0 -105.5 46t-35.5 111l16 152q11 98 86.5 167.5t174.5 69.5q25 0 40.5 -18.5t12.5 -44.5z" />
<glyph unicode="&#x201d;" horiz-adv-x="856" d="M569 1069q3 26 23 43.5t45 17.5q44 0 76.5 31t38.5 80q-10 -4 -27 -4q-64 0 -105.5 46.5t-35.5 111.5q6 64 57.5 110.5t116.5 46.5q64 0 105.5 -46t35.5 -111l-16 -152q-9 -97 -85 -167t-175 -70q-25 0 -40.5 18.5t-13.5 44.5zM193 1069q3 26 22.5 43.5t44.5 17.5 q44 0 76.5 31t38.5 80q-10 -4 -27 -4q-64 0 -105.5 46.5t-35.5 111.5q6 64 57.5 110.5t116.5 46.5q64 0 105.5 -46t35.5 -111l-16 -152q-9 -97 -85 -167t-175 -70q-24 0 -39.5 18t-13.5 45z" />
<glyph unicode="&#x201e;" horiz-adv-x="856" d="M61 -184q3 26 22 43.5t44 17.5q45 0 78 31t39 80q-10 -4 -27 -4q-65 0 -106.5 46.5t-34.5 110.5q6 64 57.5 111t116.5 47q64 0 105.5 -46.5t35.5 -111.5l-16 -151q-11 -98 -86 -168t-174 -70q-25 0 -41 19t-13 45zM438 -184q3 26 22 43.5t44 17.5q45 0 78 31t39 80 q-10 -4 -27 -4q-65 0 -106.5 46.5t-34.5 110.5q6 64 57.5 111t116.5 47q64 0 105.5 -46.5t35.5 -111.5l-16 -151q-11 -98 -86 -168t-174 -70q-25 0 -41 19t-13 45z" />
<glyph unicode="&#x2022;" horiz-adv-x="899" d="M451 350q-101 0 -173.5 71.5t-72.5 172.5t72.5 172.5t173.5 71.5q100 0 171.5 -71.5t71.5 -172.5t-71.5 -172.5t-171.5 -71.5z" />
<glyph unicode="&#x2026;" horiz-adv-x="2037" d="M1667 141q6 65 57 111.5t117 46.5q65 0 105 -46.5t34 -111.5q-8 -65 -57.5 -111t-114.5 -46q-66 0 -107.5 46t-33.5 111zM877 141q6 64 57.5 111t116.5 47q64 0 105.5 -46.5t35.5 -111.5q-8 -65 -59 -111t-115 -46q-65 0 -106.5 46.5t-34.5 110.5zM86 141q6 64 57.5 111 t116.5 47q64 0 105.5 -46.5t35.5 -111.5q-8 -65 -59 -111t-115 -46q-65 0 -106.5 46.5t-34.5 110.5z" />
<glyph unicode="&#x202f;" horiz-adv-x="380" />
<glyph unicode="&#x2039;" horiz-adv-x="636" d="M158 662l338 305q28 26 67.5 22t67.5 -35q27 -30 26 -70.5t-30 -66.5l-246 -223l203 -232q23 -25 15.5 -64t-38.5 -69q-34 -29 -72.5 -31.5t-60.5 23.5l-272 303q-26 31 -26 71.5t28 66.5z" />
<glyph unicode="&#x203a;" horiz-adv-x="636" d="M342 967l272 -305q25 -26 17 -66.5t-43 -71.5l-334 -303q-28 -26 -66.5 -23.5t-66.5 31.5q-25 29 -24 69t30 64l252 232l-201 223q-23 27 -15.5 66.5t40.5 70.5q37 31 77 35t62 -22z" />
<glyph unicode="&#x205f;" horiz-adv-x="475" />
<glyph unicode="&#x20ac;" horiz-adv-x="1466" d="M555 819h-338q-32 0 -51 25.5t-16 62.5q5 37 29.5 62.5t56.5 25.5h122q88 260 270.5 418t428.5 158q157 0 260 -64.5t188 -195.5q15 -37 5 -77t-42.5 -69t-69.5 -45.5t-75.5 -8.5t-60.5 44q-88 135 -234 135q-139 0 -255.5 -117t-131.5 -266q-3 -37 -28.5 -62.5 t-57.5 -25.5zM834 995h456q32 0 52 -25.5t16 -62.5q-3 -37 -28.5 -62.5t-57.5 -25.5h-457q-32 0 -52.5 25.5t-17.5 62.5q4 37 30.5 62.5t58.5 25.5zM205 717h338q32 0 52 -25.5t17 -62.5q-10 -97 27.5 -185.5t112 -143t166.5 -54.5q146 0 262 135q24 30 57 40.5t63.5 3 t57 -27.5t41.5 -47t14.5 -61t-22.5 -64q-111 -131 -228 -195.5t-274 -64.5q-246 0 -396 158.5t-184 417.5h-123q-32 0 -51 25.5t-14 62.5q3 37 27.5 62.5t56.5 25.5zM1077 541h-293q-32 0 -51.5 25.5t-15.5 62.5q3 37 28.5 62.5t57.5 25.5h293q32 0 52 -25.5t17 -62.5 q-5 -37 -30.5 -62.5t-57.5 -25.5z" />
<glyph unicode="&#x2122;" horiz-adv-x="743" d="M662 1536v-307h-58v168h-2l-65 -168h-58l-67 168h-2v-168h-56v307h56l96 -231h4l94 231h58zM82 1536h240v-57h-91v-250h-57v250h-92v57z" />
<glyph unicode="&#x25fc;" horiz-adv-x="1198" d="M0 1198h1198v-1198h-1198v1198z" />
<glyph unicode="&#xfb01;" horiz-adv-x="1304" d="M905 106l86 826h-753q-44 0 -72.5 37.5t-22.5 89.5q4 52 40 89.5t81 37.5h35l6 55q15 142 129 236t262 94q129 0 222 -90q32 -29 28 -82t-41 -94q-40 -43 -91.5 -48.5t-88.5 23.5q-31 25 -57 25q-28 0 -50.5 -21t-25.5 -49l-6 -49h575q60 0 98.5 -36t32.5 -87l-100 -957 q-6 -51 -51 -86.5t-105 -35.5t-98.5 35.5t-32.5 86.5zM406 829q59 0 97 -35.5t34 -84.5l-64 -605q-6 -50 -52 -85t-104 -35q-59 0 -98 35.5t-33 84.5l64 605q4 49 50.5 84.5t105.5 35.5zM1024 1417q8 68 60 115t120 47t110 -47.5t34 -114.5q-6 -67 -58.5 -114.5 t-120.5 -47.5q-67 0 -109 47t-36 115z" />
<glyph unicode="&#xfb02;" horiz-adv-x="1304" d="M264 1186h35l2 20q15 137 126 233.5t257 96.5h514q60 0 98 -36t33 -87l-137 -1307q-6 -51 -51 -86.5t-105 -35.5t-98.5 35.5t-32.5 86.5l123 1172h-364q-29 0 -53 -21.5t-27 -50.5l-2 -20h106q44 0 72.5 -37t23.5 -90q-6 -52 -42 -89.5t-80 -37.5h-424q-44 0 -72.5 37.5 t-22.5 89.5q4 52 40 89.5t81 37.5zM406 829q59 0 97 -35.5t34 -84.5l-64 -605q-6 -50 -52 -85t-104 -35q-59 0 -98 35.5t-33 84.5l64 605q4 49 50.5 84.5t105.5 35.5z" />
<glyph unicode="&#xfb03;" horiz-adv-x="1998" d="M1602 106l86 826h-1450q-44 0 -72.5 37.5t-22.5 89.5q4 52 40 89.5t81 37.5h35l6 55q15 142 129 236t262 94q129 0 222 -90q32 -29 28 -82t-41 -94q-40 -43 -91.5 -48.5t-88.5 23.5q-31 25 -57 25q-28 0 -50.5 -21t-25.5 -49l-6 -49h409l6 55q15 142 129.5 236t262.5 94 q128 0 221 -90q32 -29 28.5 -82t-40.5 -94q-40 -43 -92 -48.5t-89 23.5q-31 25 -57 25q-28 0 -50.5 -21t-25.5 -49l-6 -49h576q60 0 98.5 -36t32.5 -87l-101 -957q-6 -51 -50.5 -86.5t-104.5 -35.5t-98.5 35.5t-32.5 86.5zM1102 829q59 0 97 -35.5t34 -84.5l-64 -605 q-6 -50 -51.5 -85t-103.5 -35q-59 0 -98 35.5t-33 84.5l63 605q4 49 50.5 84.5t105.5 35.5zM406 829q59 0 97 -35.5t34 -84.5l-64 -605q-6 -50 -52 -85t-104 -35q-59 0 -98 35.5t-33 84.5l64 605q4 49 50.5 84.5t105.5 35.5zM1720 1417q7 67 60 114.5t121 47.5q67 0 109 -47 t34 -115q-6 -67 -58 -114.5t-120 -47.5q-67 0 -109.5 47t-36.5 115z" />
<glyph unicode="&#xfb04;" horiz-adv-x="2009" d="M725 1280q-31 25 -57 25q-28 0 -50.5 -21t-25.5 -49l-6 -49h418l2 20q15 137 126 233.5t257 96.5h514q60 0 98 -36t33 -87l-138 -1307q-6 -51 -50.5 -86.5t-104.5 -35.5t-98.5 35.5t-32.5 86.5l123 1172h-365q-29 0 -53 -21.5t-27 -50.5l-2 -20h107q44 0 72.5 -37 t23.5 -90q-6 -52 -42.5 -89.5t-80.5 -37.5h-1128q-44 0 -72.5 37.5t-22.5 89.5q4 52 40 89.5t81 37.5h35l6 55q15 142 129 236t262 94q129 0 222 -90q32 -29 28 -82t-41 -94q-40 -43 -91.5 -48.5t-88.5 23.5zM1110 829q59 0 97 -35.5t34 -84.5l-63 -605q-6 -50 -52 -85 t-104 -35q-59 0 -98 35.5t-33 84.5l63 605q4 49 50.5 84.5t105.5 35.5zM406 829q59 0 97 -35.5t34 -84.5l-64 -605q-6 -50 -52 -85t-104 -35q-59 0 -98 35.5t-33 84.5l64 605q4 49 50.5 84.5t105.5 35.5z" />
</font>
</defs>
</svg>
