<?xml version="1.0" standalone="no"?>
<!DOCTYPE svg PUBLIC "-//W3C//DTD SVG 1.1//EN" "http://www.w3.org/Graphics/SVG/1.1/DTD/svg11.dtd" >
<svg xmlns="http://www.w3.org/2000/svg">
<metadata></metadata>
<defs>
<font id="kroppen_roundbold" horiz-adv-x="1341" >
<font-face units-per-em="2048" ascent="1638" descent="-410" />
<missing-glyph horiz-adv-x="552" />
<glyph horiz-adv-x="0" />
<glyph horiz-adv-x="682" />
<glyph unicode=" "  horiz-adv-x="552" />
<glyph unicode="&#x09;" horiz-adv-x="552" />
<glyph unicode="&#xa0;" horiz-adv-x="552" />
<glyph unicode="!" horiz-adv-x="528" d="M123 1434q0 49 42 83.5t99 34.5t98 -34.5t41 -83.5l-28 -938q0 -38 -32.5 -66.5t-78.5 -28.5t-79 28.5t-33 66.5zM422 143q0 -67 -46.5 -112t-111.5 -45t-111.5 45t-46.5 112q0 64 46.5 109t111.5 45t111.5 -45t46.5 -109z" />
<glyph unicode="&#x22;" horiz-adv-x="632" d="M102 1032v447q0 32 21.5 52.5t52.5 20.5t52.5 -20.5t21.5 -52.5v-447q0 -30 -21.5 -50.5t-52.5 -20.5t-52.5 20.5t-21.5 50.5zM383 1032v447q0 32 21.5 52.5t52.5 20.5t52 -20.5t21 -52.5v-447q0 -31 -21 -51t-52 -20t-52.5 20.5t-21.5 50.5z" />
<glyph unicode="#" horiz-adv-x="1269" d="M25 592q0 29 21 49.5t50 20.5h271l45 210h-316q-29 0 -50 20.5t-21 49.5t21 49.5t50 20.5h344l99 469q8 30 32.5 50.5t53.5 20.5t45.5 -21t9.5 -50l-98 -469h209l98 469q8 30 32.5 50.5t53.5 20.5t45.5 -21t9.5 -50l-98 -469h242q29 0 50 -20.5t21 -49.5t-21 -49.5 t-50 -20.5h-275l-45 -210h320q29 0 50 -20.5t21 -49.5t-20.5 -48.5t-50.5 -19.5h-349l-98 -469q-8 -29 -33.5 -50t-54.5 -21t-44.5 21t-8.5 50l102 469h-211l-100 -469q-8 -30 -32.5 -50.5t-53.5 -20.5t-44 21t-7 50l98 469h-242q-30 0 -50.5 19.5t-20.5 48.5zM762 872h-211 l-43 -210h209z" />
<glyph unicode="$" horiz-adv-x="1312" d="M893 371q27 33 34 70.5t-7.5 74t-58.5 68.5t-113 51l-263 63q-187 52 -281.5 148.5t-94.5 263.5q0 115 69 213q27 44 83 51t108 -24q52 -33 69 -87t-10 -96q-19 -26 -21.5 -54.5t11 -56.5t49.5 -52.5t92 -40.5l246 -62q102 -26 177 -61t133 -86.5t87 -124.5t29 -168 q0 -171 -131 -299q-33 -36 -90 -31t-99 47q-43 44 -48 101t30 92zM788 -80q0 -35 -40.5 -60.5t-98.5 -25.5t-97.5 25t-39.5 61v90q-213 27 -383 150q-40 31 -45 84t27 104q34 43 87.5 56.5t90.5 -13.5q153 -117 360 -117q58 0 98.5 -25.5t40.5 -60.5v-268zM649 1257 q-58 0 -97.5 26t-39.5 63v235q0 37 39.5 62.5t97.5 25.5t98.5 -25.5t40.5 -62.5v-55q192 -32 336 -125q42 -28 52 -78.5t-19 -101.5q-30 -51 -79.5 -70t-92.5 6q-84 53 -161.5 76.5t-174.5 23.5z" />
<glyph unicode="%" horiz-adv-x="1863" d="M877 1180q0 -162 -117.5 -278t-280.5 -116q-161 0 -279 116t-118 278q0 160 118 275.5t279 115.5q163 0 280.5 -115t117.5 -276zM1782 360q0 -162 -117.5 -277.5t-280.5 -115.5q-161 0 -279 115.5t-118 277.5q0 160 118 276t279 116q163 0 280.5 -115.5t117.5 -276.5z M657 1180q0 74 -51.5 126t-126.5 52q-71 0 -124.5 -52.5t-53.5 -125.5q0 -74 53.5 -127.5t124.5 -53.5q75 0 126.5 53t51.5 128zM1563 360q0 74 -52 126.5t-127 52.5q-71 0 -124.5 -53t-53.5 -126q0 -74 53.5 -127t124.5 -53q75 0 127 52.5t52 127.5zM395 152l916 1366 q20 28 60 32.5t75 -18.5q33 -25 43.5 -64t-10.5 -67l-916 -1366q-22 -30 -60.5 -34.5t-72.5 19.5q-34 25 -45 63.5t10 68.5z" />
<glyph unicode="&#x26;" horiz-adv-x="1370" d="M229 1167q0 171 121.5 287.5t292.5 116.5t291.5 -116.5t120.5 -285.5q0 -108 -56.5 -201t-151.5 -146.5t-204 -53.5t-184.5 -76.5t-75.5 -185.5t75.5 -185.5t184.5 -76.5q29 0 49 4q48 9 90.5 -20t57.5 -85q14 -57 -7 -104t-67 -59q-62 -15 -123 -15q-156 0 -283.5 68 t-202.5 192.5t-75 282.5q0 156 75 275t202 181t284 62q58 0 99.5 41t41.5 100q0 57 -42 97.5t-99 40.5q-58 0 -98.5 -39.5t-40.5 -98.5q0 -43 -40 -72.5t-97 -29.5t-97.5 29.5t-40.5 72.5zM1198 244h33q45 0 75.5 -37.5t30.5 -93.5t-30.5 -92.5t-75.5 -36.5h-45 q-129 0 -205 82t-76 213v335q0 131 76 213t205 82h45q45 0 75.5 -36.5t30.5 -92.5t-30.5 -93.5t-75.5 -37.5h-33q-14 0 -25.5 -11t-11.5 -24v-335q0 -13 11.5 -24t25.5 -11z" />
<glyph unicode="'" horiz-adv-x="352" d="M102 1032v447q0 32 21.5 52.5t52.5 20.5t52.5 -20.5t21.5 -52.5v-447q0 -30 -21.5 -50.5t-52.5 -20.5t-52.5 20.5t-21.5 50.5z" />
<glyph unicode="(" horiz-adv-x="638" d="M571 -299q13 -29 -5.5 -59.5t-57.5 -44.5q-37 -15 -72 -5t-45 39q-109 205 -168 455t-59 502t59 501.5t168 454.5q10 29 45 39.5t72 -4.5q39 -14 57.5 -44.5t5.5 -59.5q-105 -223 -151.5 -419t-46.5 -468t46.5 -468t151.5 -419z" />
<glyph unicode=")" horiz-adv-x="638" d="M68 -299q105 223 151.5 419t46.5 468t-46.5 468t-151.5 419q-13 29 5.5 59.5t57.5 44.5q37 15 72 4.5t45 -39.5q109 -205 168 -454.5t59 -501.5t-59 -502t-168 -455q-10 -29 -45 -39t-72 5q-39 14 -57.5 44.5t-5.5 59.5z" />
<glyph unicode="*" horiz-adv-x="747" d="M307 1133q0 4 19 110q-73 -66 -86 -72q-17 -11 -39 -2t-35 35q-15 25 -12.5 49t20.5 33t107 39q-89 30 -107 39t-20.5 33t12.5 49q13 26 35 35t39 -2q12 -6 86 -74q-19 108 -19 113q0 21 18.5 35t47.5 14t48 -14t19 -35q0 -11 -20 -113q75 68 88 74q17 11 39 1.5 t37 -34.5q13 -26 9.5 -49.5t-20.5 -32.5q-20 -10 -106 -39q86 -29 106 -39q17 -9 20.5 -32.5t-9.5 -49.5q-15 -25 -37 -34.5t-39 1.5q-13 6 -88 74q20 -102 20 -112q0 -21 -19 -35.5t-48 -14.5t-47.5 14.5t-18.5 35.5z" />
<glyph unicode="+" horiz-adv-x="1392" d="M86 592q0 43 25.5 73.5t60.5 30.5h422v420q0 35 30.5 60.5t73.5 25.5t74 -25.5t31 -60.5v-420h418q35 0 60.5 -30.5t25.5 -73.5t-25.5 -74t-60.5 -31h-418v-417q0 -35 -31 -60.5t-74 -25.5t-73.5 25.5t-30.5 60.5v417h-422q-35 0 -60.5 31t-25.5 74z" />
<glyph unicode="," horiz-adv-x="561" d="M92 -184q0 26 17.5 43.5t42.5 17.5q44 0 73.5 31t30.5 80q-10 -4 -27 -4q-65 0 -111 46t-46 111t46.5 111.5t110.5 46.5q65 0 111.5 -46.5t46.5 -111.5v-151q0 -98 -68 -168t-167 -70q-25 0 -42.5 19t-17.5 45z" />
<glyph unicode="-" horiz-adv-x="952" d="M127 592q0 43 25.5 73.5t60.5 30.5h528q35 0 60.5 -30.5t25.5 -73.5t-25.5 -74t-60.5 -31h-528q-35 0 -60.5 31t-25.5 74z" />
<glyph unicode="." horiz-adv-x="561" d="M229 -16q-65 0 -111 46t-46 111t46.5 111.5t110.5 46.5q65 0 111.5 -46.5t46.5 -111.5q0 -64 -46.5 -110.5t-111.5 -46.5z" />
<glyph unicode="/" horiz-adv-x="966" d="M113 82l600 1434q11 25 40 33t58 -5q28 -12 41 -39.5t2 -50.5l-600 -1434q-12 -26 -40 -34t-56 6q-29 12 -42.5 38.5t-2.5 51.5z" />
<glyph unicode="0" horiz-adv-x="1312" d="M1206 1030v-526q0 -146 -74.5 -270.5t-201 -196.5t-273.5 -72q-111 0 -213 43t-176 115t-118 172t-44 209v526q0 109 44 209.5t118 173t176 115.5t213 43q147 0 273.5 -72.5t201 -197.5t74.5 -271zM920 504v526q0 107 -77.5 183.5t-185.5 76.5q-109 0 -186.5 -76.5 t-77.5 -183.5v-526q0 -107 77.5 -183.5t186.5 -76.5q108 0 185.5 76.5t77.5 183.5z" />
<glyph unicode="1" horiz-adv-x="843" d="M434 106v1082l-158 -98q-40 -25 -87 -10t-76 61q-28 44 -20 93.5t46 72.5l350 219q41 26 89 26q60 0 101.5 -35.5t41.5 -86.5v-1324q0 -51 -41.5 -86.5t-101.5 -35.5t-102 35.5t-42 86.5z" />
<glyph unicode="2" horiz-adv-x="1247" d="M82 1047q0 149 72 269.5t195.5 187.5t273.5 67t273.5 -62t196 -178t72.5 -264q0 -113 -55.5 -215.5t-146.5 -179.5l-431 -391h484q50 0 84.5 -41t34.5 -99q0 -59 -35 -100t-84 -41h-756q-62 0 -105.5 52.5t-43.5 125.5q0 96 69 152l600 551q86 86 86 186q0 101 -70 164 t-173 63q-100 0 -170.5 -71t-73.5 -176q0 -52 -44 -89.5t-106 -37.5q-61 0 -104 37t-43 90z" />
<glyph unicode="3" horiz-adv-x="1222" d="M754 674q-37 31 -37 86.5t35 99.5q36 46 89.5 58.5t92.5 -17.5q95 -70 151 -178.5t56 -237.5q0 -147 -72.5 -266.5t-197 -186.5t-273.5 -67q-187 0 -330 116.5t-182 293.5q-11 48 21.5 90.5t89.5 52.5q56 12 104 -13.5t57 -72.5q19 -84 86 -137t154 -53q100 0 172 71 t72 172q0 107 -88 189zM309 946l316 314h-346q-48 0 -82.5 40t-34.5 97t35 98t82 41h682q51 0 86.5 -42.5t35.5 -102.5q0 -68 -45 -113l-532 -528q-34 -34 -86.5 -28.5t-93.5 46.5q-41 40 -46 92t29 86z" />
<glyph unicode="4" horiz-adv-x="1216" d="M713 801v252l-359 -496h719q49 0 84 -41t35 -98t-35 -98t-84 -41h-69v-173q0 -51 -43 -86.5t-103 -35.5t-102.5 35.5t-42.5 86.5v173h-527q-68 0 -114.5 54t-46.5 132q0 73 38 123l609 889q52 75 153 75q74 0 126.5 -44t52.5 -107v-600q0 -52 -42.5 -87.5t-103.5 -35.5 q-60 0 -102.5 35.5t-42.5 87.5z" />
<glyph unicode="5" horiz-adv-x="1249" d="M702 1040q227 -33 346 -176t119 -360q0 -114 -44 -215t-119.5 -171.5t-179.5 -111.5t-220 -41q-194 0 -338 106.5t-192 280.5q-15 55 20.5 105t91.5 61q59 12 108 -14.5t58 -75.5q25 -81 95 -133.5t157 -52.5q109 0 186.5 76.5t77.5 185.5q0 91 -57.5 160.5t-148.5 93.5 q-50 13 -82.5 54.5t-26.5 98.5q3 56 47.5 97t101.5 32zM152 836l102 583q6 51 46.5 84t98.5 33h508q49 0 84 -42t35 -99t-35 -98.5t-84 -41.5h-399l-82 -473q-9 -46 -55.5 -72t-104.5 -14q-56 10 -89.5 52t-24.5 88z" />
<glyph unicode="6" horiz-adv-x="1288" d="M743 748q-43 20 -56.5 70t9.5 104t71 76.5t91 2.5q155 -62 251.5 -193.5t96.5 -299.5q0 -153 -75.5 -278t-204.5 -195t-283 -70q-114 0 -217.5 41t-179 112.5t-120 173t-44.5 216.5q0 141 74 270l438 725q23 41 76.5 48.5t107.5 -23.5q46 -28 60 -79t-11 -97l-399 -699 q-45 -75 -45 -145q0 -109 76 -186.5t184 -77.5t184 77.5t76 186.5q0 76 -43.5 141t-116.5 99z" />
<glyph unicode="7" horiz-adv-x="1138" d="M317 160l457 1097h-618q-49 0 -84 41.5t-35 98.5t35 98t84 41h778q49 0 86 -27t55 -68t18 -91.5t-20 -96.5l-498 -1200q-19 -44 -70 -61.5t-102 4.5q-55 23 -80 70.5t-6 93.5z" />
<glyph unicode="8" horiz-adv-x="1310" d="M1229 463q0 -149 -77.5 -263.5t-207.5 -174.5t-289 -60t-288.5 60t-207 174.5t-77.5 263.5q0 148 77.5 258.5t206.5 165.5t289 55q102 0 165 42t63 132t-62 132t-164 42q-103 0 -165 -43.5t-62 -140.5q3 -48 -29 -90t-88 -55q-85 -14 -128.5 31t-43.5 124q0 138 70 242.5 t186.5 158.5t259.5 54t260 -54t187 -158.5t70 -242.5t-70.5 -242.5t-187.5 -158t-261 -53.5q-126 0 -202 -49.5t-76 -159.5t76 -159.5t202 -49.5t202.5 49.5t76.5 159.5q0 31 -6 61q-14 47 15.5 93.5t88.5 64.5q54 12 92 1.5t61 -44.5t33.5 -75.5t10.5 -90.5z" />
<glyph unicode="9" horiz-adv-x="1288" d="M545 786q43 -20 56.5 -70t-9.5 -104t-71 -77t-91 -3q-154 62 -251 194t-97 300q0 153 75.5 278t204.5 195t283 70q114 0 217.5 -41t179 -112.5t120 -173t44.5 -216.5q0 -143 -73 -270l-439 -725q-23 -41 -76.5 -48.5t-107.5 23.5q-46 28 -60 79t11 97l399 699 q45 75 45 145q0 109 -76 186.5t-184 77.5t-184 -77.5t-76 -186.5q0 -76 43.5 -141t116.5 -99z" />
<glyph unicode=":" horiz-adv-x="561" d="M387 141q0 -64 -46.5 -110.5t-111.5 -46.5t-111 46t-46 111t46.5 111.5t110.5 46.5q65 0 111.5 -46.5t46.5 -111.5zM72 1044q0 65 46.5 111.5t110.5 46.5q65 0 111.5 -47t46.5 -111t-46.5 -110.5t-111.5 -46.5t-111 46.5t-46 110.5z" />
<glyph unicode=";" horiz-adv-x="561" d="M72 1044q0 65 46.5 111.5t110.5 46.5q65 0 111.5 -47t46.5 -111t-46.5 -110.5t-111.5 -46.5t-111 46.5t-46 110.5zM92 -184q0 26 17.5 43.5t42.5 17.5q44 0 73.5 31t30.5 80q-10 -4 -27 -4q-65 0 -111 46t-46 111t46.5 111.5t110.5 46.5q65 0 111.5 -46.5t46.5 -111.5 v-151q0 -98 -68 -168t-167 -70q-25 0 -42.5 19t-17.5 45z" />
<glyph unicode="&#x3c;" horiz-adv-x="884" d="M778 268q32 -18 39 -58.5t-14 -76.5q-22 -39 -59 -53t-68 6l-526 371q-33 20 -58.5 56.5t-25.5 78.5t25.5 78.5t58.5 56.5l526 371q31 20 68 6t59 -53q21 -36 14 -77t-39 -59l-475 -317v-12z" />
<glyph unicode="=" horiz-adv-x="1392" d="M86 768q0 43 25.5 73.5t60.5 30.5h1049q35 0 60.5 -30.5t25.5 -73.5t-25.5 -73.5t-60.5 -30.5h-1049q-35 0 -60.5 30.5t-25.5 73.5zM86 420q0 43 25.5 73.5t60.5 30.5h1049q35 0 60.5 -30.5t25.5 -73.5t-25.5 -74t-60.5 -31h-1049q-35 0 -60.5 31t-25.5 74z" />
<glyph unicode="&#x3e;" horiz-adv-x="884" d="M106 268l476 318v12l-476 317q-32 18 -38.5 59t14.5 77q22 39 59 53t68 -6l526 -371q33 -20 58.5 -56.5t25.5 -78.5t-25.5 -78.5t-58.5 -56.5l-526 -371q-31 -20 -68 -6t-59 53q-21 36 -14.5 76.5t38.5 58.5z" />
<glyph unicode="?" horiz-adv-x="1210" d="M449 473v211q0 52 39 87.5t98 35.5q100 0 171.5 72t71.5 174q0 101 -71.5 172t-171.5 71q-87 0 -154 -53t-86 -137q-9 -47 -57.5 -72.5t-104.5 -13.5q-56 10 -88.5 52.5t-21.5 90.5q39 177 182 293.5t330 116.5q149 0 273 -67t196.5 -186.5t72.5 -266.5q0 -190 -118 -329 t-287 -169v-82q0 -53 -38.5 -88t-98.5 -35t-98.5 35t-38.5 88zM741 141q0 -65 -45.5 -111t-109.5 -46q-66 0 -112 46t-46 111t46 111.5t112 46.5q64 0 109.5 -46.5t45.5 -111.5z" />
<glyph unicode="@" horiz-adv-x="1789" d="M885 367q-168 0 -285 118t-117 283q0 166 118 283.5t284 117.5t283.5 -117.5t117.5 -283.5v-78q0 -34 22 -57t56 -23t57 23t23 57v78q0 113 -44.5 216.5t-119.5 178.5t-178.5 119.5t-216.5 44.5q-114 0 -217.5 -44.5t-178.5 -119.5t-119 -178.5t-44 -216.5t44 -216.5 t119 -178.5t178.5 -119.5t217.5 -44.5q110 0 200 37q38 15 80.5 -7.5t61.5 -66.5q20 -50 4.5 -93t-55.5 -61q-145 -53 -291 -53q-218 0 -403 108t-292.5 292.5t-107.5 402.5t107.5 402.5t292.5 292.5t403 108q217 0 402 -108t293 -293t108 -402v-78q0 -133 -95 -228 t-229 -95q-133 0 -227.5 94.5t-94.5 228.5v78q0 65 -46.5 111.5t-110.5 46.5q-65 0 -111.5 -47t-46.5 -111t46.5 -111t111.5 -47q41 0 70.5 -36t29.5 -87t-29 -85.5t-71 -34.5z" />
<glyph unicode="A" horiz-adv-x="1458" d="M883 715l-146 407h-16l-397 -1067q-22 -46 -74.5 -63t-110.5 2q-55 23 -81 72t-9 96l504 1292q21 47 71.5 73t104.5 26t104.5 -26t71.5 -73l246 -633q17 -48 -7 -96.5t-79 -71.5q-58 -19 -111.5 -1t-70.5 63zM575 420q0 58 34.5 98.5t84.5 40.5h455q52 0 91 -27t50 -69 l119 -301q17 -47 -9 -96t-81 -72q-58 -19 -110 -2t-74 63l-99 224h-342q-49 0 -84 41t-35 100z" />
<glyph unicode="B" horiz-adv-x="1421" d="M516 774q0 58 34.5 98.5t84.5 40.5h213q206 0 348.5 -128.5t142.5 -327.5t-142.5 -328t-348.5 -129h-580q-60 0 -102.5 36t-42.5 87v1290q0 51 42.5 87t102.5 36h545q125 0 229.5 -53t166 -149.5t61.5 -215.5q0 -53 -13 -84q-21 -47 -72 -66.5t-112 1.5q-47 16 -74 53.5 t-30 81.5q-3 63 -48 107t-108 44h-399v-976h434q80 0 136 51t56 127t-56 126t-136 50h-213q-49 0 -84 41t-35 100z" />
<glyph unicode="C" horiz-adv-x="1601" d="M1286 430q34 39 88.5 40.5t100.5 -36.5q44 -37 52 -93t-24 -93q-122 -136 -277.5 -209.5t-330.5 -73.5q-225 0 -413.5 105t-299 290t-110.5 408t110.5 408t299 290t413.5 105q175 0 330.5 -73.5t277.5 -209.5q32 -37 24 -93t-52 -93q-46 -38 -100.5 -36.5t-88.5 40.5 q-98 92 -184 138t-207 46q-106 0 -203 -41t-167 -111t-111 -167t-41 -203t41 -203t111 -167t167 -111t203 -41q121 0 207 46t184 138z" />
<glyph unicode="D" horiz-adv-x="1517" d="M123 106v1307q0 51 42.5 87t102.5 36h389q164 0 310 -59.5t251.5 -161.5t166.5 -246.5t61 -308.5t-61 -308.5t-166.5 -246.5t-251.5 -161.5t-310 -59.5q-51 0 -86.5 40.5t-35.5 98.5t35.5 98.5t86.5 40.5q131 0 244 67.5t178.5 182.5t65.5 248q0 132 -65.5 246 t-178.5 181.5t-244 67.5h-243v-1149q0 -51 -43 -86.5t-103 -35.5t-102.5 35.5t-42.5 86.5z" />
<glyph unicode="E" horiz-adv-x="1333" d="M123 123v663q0 51 42.5 87t102.5 36h736q51 0 86.5 -41t35.5 -100q0 -58 -35.5 -98.5t-86.5 -40.5h-590v-350h731q51 0 87 -41t36 -99t-36 -98.5t-87 -40.5h-877q-60 0 -102.5 36t-42.5 87zM123 1153v260q0 51 42.5 87t102.5 36h877q51 0 87 -41.5t36 -99.5t-36 -99 t-87 -41h-731v-102q0 -51 -43 -87t-103 -36t-102.5 36t-42.5 87z" />
<glyph unicode="F" horiz-adv-x="1245" d="M123 106v680q0 51 42.5 87t102.5 36h701q51 0 87 -41.5t36 -99.5t-36 -98.5t-87 -40.5h-555v-523q0 -51 -43 -86.5t-103 -35.5t-102.5 35.5t-42.5 86.5zM123 1153v260q0 51 42.5 87t102.5 36h840q51 0 87 -41.5t36 -99.5t-36 -99t-87 -41h-694v-102q0 -51 -43 -87 t-103 -36t-102.5 36t-42.5 87z" />
<glyph unicode="G" horiz-adv-x="1619" d="M883 770q0 58 34 98.5t84 40.5h359q60 0 102.5 -36t42.5 -87v-499q0 -45 -35 -80q-111 -115 -260 -178.5t-315 -63.5q-225 0 -413.5 105t-299 290t-110.5 408t110.5 408t299 290t413.5 105q300 0 543 -213q35 -35 30.5 -88t-45.5 -94q-42 -42 -95 -47t-87 30 q-147 131 -346 131q-106 0 -202.5 -41.5t-166.5 -111t-111.5 -166.5t-41.5 -203q0 -107 41.5 -204.5t111.5 -167t166.5 -111t202.5 -41.5q187 0 334 118v267h-228q-49 0 -83.5 41t-34.5 100z" />
<glyph unicode="H" horiz-adv-x="1452" d="M1184 1552q61 0 103 -35t42 -87v-678q0 -52 -42.5 -87.5t-102.5 -35.5h-770v-523q0 -52 -42.5 -87t-103.5 -35t-103 35t-42 87v680q0 52 42.5 87.5t102.5 35.5h770v521q0 52 42.5 87t103.5 35zM1329 106q0 -51 -42.5 -86.5t-102.5 -35.5t-103 35.5t-43 86.5v279 q0 52 42.5 87.5t103.5 35.5q60 0 102.5 -35.5t42.5 -87.5v-279zM123 1430q0 51 42.5 86.5t102.5 35.5t103 -35.5t43 -86.5v-277q0 -52 -42.5 -87.5t-103.5 -35.5q-60 0 -102.5 35.5t-42.5 87.5v277z" />
<glyph unicode="I" horiz-adv-x="536" d="M123 106v1324q0 51 42.5 86.5t102.5 35.5t103 -35.5t43 -86.5v-1324q0 -52 -42.5 -87t-103.5 -35t-103 35t-42 87z" />
<glyph unicode="J" horiz-adv-x="1062" d="M649 1430q0 51 43 86.5t103 35.5t102.5 -35.5t42.5 -86.5v-975q0 -212 -145 -351t-355 -139q-112 0 -207.5 46.5t-164.5 129.5q-34 41 -24 98t56 91q46 35 100 31t83 -44q59 -71 157 -71q88 0 148.5 60.5t60.5 148.5v975z" />
<glyph unicode="K" horiz-adv-x="1398" d="M834 768l477 -559q33 -36 24.5 -90.5t-53.5 -95.5q-46 -38 -98 -39t-86 39l-555 636q-41 44 -41 109t41 109l555 636q34 40 86 39t98 -39q45 -41 53.5 -95.5t-24.5 -90.5zM123 106v1324q0 51 42.5 86.5t102.5 35.5t103 -35.5t43 -86.5v-1324q0 -51 -43 -86.5t-103 -35.5 t-102.5 35.5t-42.5 86.5z" />
<glyph unicode="L" horiz-adv-x="1257" d="M123 123v1307q0 51 42.5 86.5t102.5 35.5t103 -35.5t43 -86.5v-1151h659q51 0 87 -41t36 -99t-36 -98.5t-87 -40.5h-805q-60 0 -102.5 36t-42.5 87z" />
<glyph unicode="M" horiz-adv-x="1802" d="M123 106v1311q0 57 52 96t126 39q51 0 92.5 -19t63.5 -52l444 -559l449 565q52 65 153 65q74 0 125 -39t51 -96v-1311q0 -51 -42.5 -86.5t-102.5 -35.5t-102.5 35.5t-42.5 86.5v975h-7l-356 -467q-47 -63 -126 -63t-126 63l-354 467h-6v-975q0 -51 -43 -86.5t-103 -35.5 t-102.5 35.5t-42.5 86.5z" />
<glyph unicode="N" horiz-adv-x="1452" d="M123 106v1313q0 55 50.5 94t121.5 39q54 0 97.5 -24.5t62.5 -63.5l579 -954h6l-2 920q0 51 43 86.5t103 35.5t102.5 -35.5t42.5 -86.5v-1313q0 -55 -50.5 -94t-121.5 -39q-54 0 -97.5 22.5t-62.5 59.5l-579 958h-6l2 -918q0 -51 -43 -86.5t-103 -35.5t-102.5 35.5 t-42.5 86.5z" />
<glyph unicode="O" horiz-adv-x="1789" d="M1419 768q0 142 -70 262.5t-190.5 190t-263.5 69.5q-106 0 -203 -41t-167 -111t-111 -167t-41 -203q0 -143 69.5 -263.5t190 -190.5t262.5 -70q143 0 263.5 70t190.5 190.5t70 263.5zM1718 768q0 -223 -110.5 -408t-299 -290t-413.5 -105q-226 0 -414.5 105t-298.5 290 t-110 408t110 408t298.5 290t414.5 105q225 0 413.5 -105t299 -290t110.5 -408z" />
<glyph unicode="P" horiz-adv-x="1411" d="M657 768h142q100 0 171.5 71.5t71.5 172.5t-71.5 172t-171.5 71h-385v-1149q0 -51 -43 -86.5t-103 -35.5t-102.5 35.5t-42.5 86.5v1307q0 51 42.5 87t102.5 36h531q148 0 271.5 -67.5t196 -188t72.5 -268.5t-72.5 -268.5t-196 -188.5t-271.5 -68h-142q-51 0 -86.5 41.5 t-35.5 100.5q0 58 35.5 98.5t86.5 40.5z" />
<glyph unicode="Q" horiz-adv-x="1792" d="M1288 580q55 96 55 204q0 137 -65.5 253.5t-177.5 184.5t-244 68t-243.5 -68t-176.5 -184.5t-65 -253.5q0 -209 142 -356t343 -147h643q51 0 87 -41.5t36 -100.5q0 -58 -36 -98.5t-87 -40.5h-643q-160 0 -305 62t-250 167t-167 250t-62 305t62 305.5t167 251t250 168 t305 62.5t305.5 -62.5t250.5 -168t167.5 -251t62.5 -305.5q0 -78 -21 -162.5t-56 -152.5q-25 -48 -74.5 -64.5t-108.5 5.5q-58 25 -85.5 74.5t-8.5 95.5z" />
<glyph unicode="R" horiz-adv-x="1421" d="M666 768h133q100 0 171.5 71.5t71.5 172.5t-71.5 172t-171.5 71h-385v-1149q0 -51 -43 -86.5t-103 -35.5t-102.5 35.5t-42.5 86.5v1307q0 51 42.5 87t102.5 36h531q148 0 271.5 -67.5t196 -188t72.5 -268.5q0 -181 -113.5 -319t-285.5 -185l225 -313q28 -43 13 -97 t-64 -88q-49 -32 -104 -26t-84 49l-357 508q-26 41 -26 88q0 58 36 98.5t87 40.5z" />
<glyph unicode="S" horiz-adv-x="1312" d="M289 358q184 -141 360 -141q124 0 201.5 63.5t77.5 163.5q0 59 -28 100t-75.5 64t-109 38.5t-129.5 29.5t-135.5 31.5t-129 49.5t-109 78t-75.5 123t-28 179q0 136 72 235.5t193 149t275 49.5q123 0 251 -36.5t224 -100.5q42 -28 52 -79t-19 -102q-30 -50 -79.5 -69 t-92.5 6q-87 55 -164 80.5t-172 25.5q-237 0 -237 -159q0 -57 28 -96.5t75.5 -61.5t109 -38t129.5 -30.5t135.5 -32.5t129 -51t109 -79.5t75.5 -124t28 -179.5q0 -148 -76.5 -258t-207.5 -165.5t-298 -55.5q-290 0 -514 156l-6 6q-40 31 -45 84t27 104q34 43 87.5 56.5 t90.5 -13.5z" />
<glyph unicode="T" horiz-adv-x="1271" d="M639 -16q-60 0 -102.5 35.5t-42.5 86.5v1307q0 51 42.5 87t102.5 36h489q51 0 87 -41.5t36 -99.5t-36 -99t-87 -41h-346v-1149q0 -51 -41.5 -86.5t-101.5 -35.5zM139 1255q-50 0 -84.5 41t-34.5 99q0 59 35 100t84 41h115q49 0 84 -41t35 -100q0 -58 -34.5 -99t-84.5 -41 h-115z" />
<glyph unicode="U" horiz-adv-x="1468" d="M123 1430q0 51 42.5 86.5t102.5 35.5t103 -35.5t43 -86.5v-895q0 -134 91 -215.5t230 -81.5t229.5 81.5t90.5 215.5v895q0 51 42.5 86.5t102.5 35.5t103 -35.5t43 -86.5v-895q0 -173 -79.5 -303.5t-217.5 -198.5t-314 -68q-270 0 -441 154.5t-171 415.5v895z" />
<glyph unicode="V" horiz-adv-x="1437" d="M1399 1376l-504 -1292q-21 -47 -71.5 -73t-104.5 -26t-104.5 26t-71.5 73l-504 1292q-17 47 9 96t81 72q58 19 110 2t74 -63l398 -1067h16l397 1067q22 46 74.5 63t110.5 -2q55 -23 81 -72t9 -96z" />
<glyph unicode="W" horiz-adv-x="1978" d="M1157 1440l250 -920h8l256 950q12 46 62.5 68.5t107.5 7.5t87.5 -62t17.5 -102l-371 -1300q-18 -48 -65.5 -73.5t-98.5 -25.5t-97.5 25.5t-64.5 71.5l-256 934h-8l-256 -934q-25 -61 -93.5 -85.5t-138 -0.5t-94.5 88l-370 1300q-13 55 17 102t87 62t107.5 -7.5 t62.5 -68.5l256 -950h8l250 920q11 43 45.5 72t78.5 36t88 0t78.5 -36t45.5 -72z" />
<glyph unicode="X" horiz-adv-x="1404" d="M1098 1511q32 41 88.5 42.5t101.5 -35.5q48 -37 59.5 -91t-20.5 -96l-1020 -1306q-32 -40 -88 -42t-102 35q-48 37 -59.5 92t20.5 95zM307 1511l258 -329q32 -40 20.5 -95t-59.5 -92q-46 -37 -102 -35.5t-88 41.5l-258 330q-32 42 -20.5 96t59.5 91q45 37 101.5 35.5 t88.5 -42.5zM1069 535l258 -330q32 -40 20.5 -95t-59.5 -92q-46 -37 -102 -35t-88 42l-258 329q-32 42 -20.5 96t59.5 91q45 37 101.5 36t88.5 -42z" />
<glyph unicode="Y" horiz-adv-x="1392" d="M696 -16q-61 0 -103 35t-42 87v662q0 32 24 63l531 680q32 41 88.5 42.5t101.5 -35.5q48 -37 59.5 -91t-20.5 -96l-493 -633v-592q0 -52 -42.5 -87t-103.5 -35zM287 1511l270 -344q32 -40 20.5 -94.5t-59.5 -91.5q-46 -37 -102 -35.5t-88 41.5l-271 344q-32 42 -20.5 96 t59.5 91q45 37 102 35.5t89 -42.5z" />
<glyph unicode="Z" d="M61 184q0 89 56 142l784 925v4h-721q-49 0 -84 41.5t-35 98.5t35 99t84 42h946q63 0 108.5 -54.5t45.5 -129.5q0 -87 -57 -144l-781 -923v-4h719q49 0 84 -42.5t35 -99.5t-35 -98t-84 -41h-946q-63 0 -108.5 54.5t-45.5 129.5z" />
<glyph unicode="[" horiz-adv-x="643" d="M164 -258v1702q0 38 32 65t76 27h238q37 0 62.5 -30.5t25.5 -73.5t-25.5 -74t-62.5 -31h-137v-1468h137q37 0 62.5 -31t25.5 -74t-25.5 -73.5t-62.5 -30.5h-238q-44 0 -76 27t-32 65z" />
<glyph unicode="\" horiz-adv-x="966" d="M254 1516l600 -1434q11 -25 -2.5 -51.5t-42.5 -38.5q-28 -14 -56 -6t-40 34l-600 1434q-11 23 2 50.5t41 39.5q29 13 58 5t40 -33z" />
<glyph unicode="]" horiz-adv-x="643" d="M479 1444v-1702q0 -38 -32 -65t-76 -27h-238q-37 0 -62.5 30.5t-25.5 73.5t25.5 74t62.5 31h137v1468h-137q-37 0 -62.5 31t-25.5 74t25.5 73.5t62.5 30.5h238q44 0 76 -27t32 -65z" />
<glyph unicode="^" horiz-adv-x="1134" d="M307 764q-13 -31 -51 -39.5t-78 8.5q-39 19 -58.5 53.5t-4.5 63.5l327 643q37 60 123.5 60t126.5 -60l328 -643q15 -29 -5 -63.5t-59 -53.5q-40 -17 -78 -8.5t-51 39.5l-258 528h-4z" />
<glyph unicode="_" horiz-adv-x="1062" d="M0 -186h1186v-52h-1186v52z" />
<glyph unicode="`" horiz-adv-x="718" d="M489 1335l-258 68q-53 14 -57 70q-4 50 29 82q32 30 73 12l240 -121q26 -14 29.5 -44.5t-14 -52.5t-42.5 -14z" />
<glyph unicode="a" horiz-adv-x="1486" d="M932 16q-87 -51 -254 -51q-163 0 -299.5 81.5t-216.5 226t-80 321.5q0 176 80 320t216.5 225.5t299.5 81.5q244 0 397 -207h4v65q0 51 41 87t101 36t101.5 -36t41.5 -87v-973q0 -52 -41.5 -87t-101.5 -35t-101 35t-41 87v488q0 143 -101.5 245.5t-246.5 102.5 q-144 0 -246 -102.5t-102 -245.5q0 -145 101.5 -247.5t246.5 -102.5q49 0 96 12q38 16 76 -7.5t62 -68.5q23 -46 13.5 -94t-46.5 -70z" />
<glyph unicode="b" horiz-adv-x="1488" d="M555 1169q89 52 254 52q163 0 300 -81.5t217.5 -226.5t80.5 -321t-80.5 -320t-217.5 -225.5t-300 -81.5q-244 0 -397 207h-4v-66q0 -51 -41 -86.5t-101 -35.5t-101.5 35.5t-41.5 86.5v1324q0 52 41.5 87t101.5 35t101 -35t41 -87v-838q0 -143 101.5 -245.5t246.5 -102.5 q144 0 247 102.5t103 245.5q0 145 -102.5 247.5t-247.5 102.5q-50 0 -97 -12q-37 -16 -75 7.5t-62 68.5q-23 46 -13.5 93.5t46.5 69.5z" />
<glyph unicode="c" horiz-adv-x="1255" d="M954 328q35 35 90 29.5t95 -46.5q43 -43 46 -96.5t-40 -93.5q-180 -156 -414 -156q-178 0 -327 82t-235.5 226.5t-86.5 320.5t87 320t235.5 225.5t326.5 81.5q243 0 414 -154q43 -41 40.5 -93t-46.5 -97q-40 -41 -95 -46.5t-90 29.5q-95 82 -223 82q-144 0 -246 -102.5 t-102 -245.5t102 -245.5t246 -102.5q128 0 223 82z" />
<glyph unicode="d" horiz-adv-x="1488" d="M934 16q-87 -51 -254 -51q-163 0 -300 81.5t-217.5 226.5t-80.5 321t80.5 320t217.5 225.5t300 81.5q244 0 397 -207h4v416q0 51 41 86.5t101 35.5t101.5 -35.5t41.5 -86.5v-1324q0 -52 -41.5 -87t-101.5 -35t-101 35t-41 87v488q0 143 -101.5 245.5t-246.5 102.5 q-144 0 -247 -102.5t-103 -245.5q0 -145 102.5 -247.5t247.5 -102.5q49 0 96 12q38 16 76 -7.5t62 -68.5q23 -46 13.5 -94t-46.5 -70z" />
<glyph unicode="e" horiz-adv-x="1447" d="M492 588q0 52 31.5 88.5t76.5 36.5h455q-37 107 -125.5 171t-200.5 64q-142 0 -244 -105.5t-102 -248.5q0 -147 104 -258t252 -111q80 0 164 28.5t137 76.5q30 34 80.5 33t89.5 -37q40 -34 48 -84t-21 -84q-93 -91 -225.5 -142t-272.5 -51q-182 0 -332.5 81.5t-237.5 226 t-87 321.5q0 176 86.5 320t235 225.5t325.5 81.5q103 0 200 -31.5t175.5 -89t137.5 -134.5t91.5 -173t32.5 -199q0 -52 -43 -92.5t-102 -40.5h-621q-44 0 -76 37.5t-32 89.5z" />
<glyph unicode="f" horiz-adv-x="835" d="M592 1280q-37 25 -60 25q-28 0 -48.5 -21t-20.5 -49v-49h102q44 0 76.5 -37.5t32.5 -89.5t-32.5 -89.5t-76.5 -37.5h-424q-44 0 -76 37.5t-32 89.5t32 89.5t76 37.5h35v55q0 142 104.5 236t251.5 94q129 0 232 -90q35 -29 36.5 -82t-30.5 -94q-36 -43 -87 -48.5t-91 23.5 zM319 829q59 0 101.5 -35.5t42.5 -84.5v-605q0 -49 -42.5 -84.5t-101.5 -35.5t-101 35.5t-42 84.5v605q0 49 42 84.5t101 35.5z" />
<glyph unicode="g" horiz-adv-x="1472" d="M686 279q57 0 109 20q40 18 85.5 1t67.5 -58q21 -48 11 -86t-44 -68q-44 -36 -93.5 -56.5t-135.5 -23.5q-164 6 -302.5 90.5t-220 226t-81.5 306.5q0 126 50 237t134 187.5t196.5 121t235.5 44.5q227 0 383 -187h4v53q0 50 38 82.5t94 32.5t94.5 -32.5t38.5 -82.5v-827 q0 -130 -54 -249.5t-143.5 -206t-212 -138t-254.5 -51.5q-220 0 -424 106q-42 24 -53 75.5t18 101.5q26 50 75.5 70.5t90.5 -1.5q149 -82 293 -82q85 0 172 40.5t147 113.5t60 156v415q0 137 -97 234.5t-235 97.5q-139 0 -244.5 -93.5t-105.5 -227.5q0 -135 88.5 -238.5 t214.5 -103.5z" />
<glyph unicode="h" d="M410 1430v-1324q0 -51 -42 -86.5t-102 -35.5t-101.5 35.5t-41.5 86.5v1324q0 51 41.5 86.5t101.5 35.5t102 -35.5t42 -86.5zM932 106v574q0 125 -68.5 200t-191.5 62l-39 -4q-41 -5 -76.5 26t-44.5 80q-10 51 10 91.5t62 54.5q76 31 176 31q207 0 333 -139t126 -365v-611 q0 -51 -42 -86.5t-102 -35.5t-101.5 35.5t-41.5 86.5z" />
<glyph unicode="i" horiz-adv-x="532" d="M123 106v973q0 51 41.5 87t101.5 36t102 -36t42 -87v-973q0 -51 -42 -86.5t-102 -35.5t-101.5 35.5t-41.5 86.5zM104 1417q0 67 47 114.5t115 47.5t115 -47.5t47 -114.5t-47 -114.5t-115 -47.5t-115 47.5t-47 114.5z" />
<glyph unicode="j" horiz-adv-x="659" d="M250 1079q0 51 41.5 87t101.5 36t102 -36t42 -87v-1114q0 -145 -106.5 -247.5t-250.5 -102.5q-130 0 -227 84q-40 32 -41.5 84.5t35.5 93.5q35 47 86 57t88 -22q2 -1 12 -8t15.5 -10t14.5 -6t17 -3q29 0 49.5 20.5t20.5 51.5v1122zM231 1417q0 67 47.5 114.5t114.5 47.5 t114.5 -47.5t47.5 -114.5t-47.5 -114.5t-114.5 -47.5t-114.5 47.5t-47.5 114.5z" />
<glyph unicode="k" horiz-adv-x="1230" d="M123 106v1324q0 51 41.5 86.5t101.5 35.5t102 -35.5t42 -86.5v-1324q0 -51 -42 -86.5t-102 -35.5t-101.5 35.5t-41.5 86.5zM823 594l351 -391q33 -35 24.5 -88.5t-53.5 -94.5q-44 -36 -95 -37.5t-85 37.5l-426 467q-41 47 -41 107q0 59 41 106l422 465q34 39 85 37.5 t95 -37.5q45 -41 53 -94t-25 -88z" />
<glyph unicode="l" horiz-adv-x="532" d="M123 106v1324q0 51 41.5 86.5t101.5 35.5t102 -35.5t42 -86.5v-1324q0 -51 -42 -86.5t-102 -35.5t-101.5 35.5t-41.5 86.5z" />
<glyph unicode="m" horiz-adv-x="1941" d="M1532 106v627q0 88 -61.5 148.5t-149.5 60.5q-17 0 -47 -6q-42 -11 -80 16t-51 78q-10 41 3 78t44 57q85 56 182 56q196 0 321.5 -137.5t125.5 -350.5v-627q0 -51 -42 -86.5t-102 -35.5t-101.5 35.5t-41.5 86.5zM594 1210q42 11 74 11q196 0 321 -137.5t125 -350.5v-627 q0 -51 -41.5 -86.5t-101.5 -35.5t-102 35.5t-42 86.5v627q0 87 -52.5 145.5t-137.5 61.5q-42 -3 -78.5 29t-46.5 84q-12 56 12.5 101t69.5 56zM123 106v973q0 51 41.5 87t101.5 36t102 -36t42 -87v-973q0 -51 -42 -86.5t-102 -35.5t-101.5 35.5t-41.5 86.5z" />
<glyph unicode="n" d="M410 1079v-973q0 -51 -42 -86.5t-102 -35.5t-101.5 35.5t-41.5 86.5v973q0 51 41.5 87t101.5 36t102 -36t42 -87zM932 106v574q0 125 -68.5 200t-191.5 62l-39 -4q-41 -5 -76.5 26t-44.5 80q-10 51 10 91.5t62 54.5q76 31 176 31q207 0 333 -139t126 -365v-611 q0 -51 -42 -86.5t-102 -35.5t-101.5 35.5t-41.5 86.5z" />
<glyph unicode="o" horiz-adv-x="1460" d="M1079 594q0 143 -102 245.5t-248 102.5q-142 0 -244 -102.5t-102 -245.5q0 -145 101.5 -247.5t244.5 -102.5q146 0 248 102.5t102 247.5zM1378 594q0 -177 -87 -321.5t-235.5 -226t-326.5 -81.5q-177 0 -325.5 81.5t-235 226t-86.5 321.5q0 176 86.5 320t235 225.5 t325.5 81.5q178 0 326.5 -81.5t235.5 -225.5t87 -320z" />
<glyph unicode="p" horiz-adv-x="1488" d="M555 1169q89 52 254 52q163 0 300 -81.5t217.5 -226.5t80.5 -321t-80.5 -320t-217.5 -225.5t-300 -81.5q-244 0 -397 207h-4v-416q0 -51 -41 -87t-101 -36t-101.5 36t-41.5 87v1323q0 52 41.5 87.5t101.5 35.5t101 -35.5t41 -87.5v-487q0 -143 101.5 -245.5t246.5 -102.5 q144 0 247 102.5t103 245.5q0 145 -102.5 247.5t-247.5 102.5q-50 0 -97 -12q-37 -16 -75 7.5t-62 68.5q-23 46 -13.5 93.5t46.5 69.5z" />
<glyph unicode="q" horiz-adv-x="1488" d="M934 16q-87 -51 -254 -51q-163 0 -300 81.5t-217.5 226.5t-80.5 321t80.5 320t217.5 225.5t300 81.5q244 0 397 -207h4v65q0 51 41 87t101 36t101.5 -36t41.5 -87v-1323q0 -52 -41.5 -87.5t-101.5 -35.5t-101 35.5t-41 87.5v838q0 143 -101.5 245.5t-246.5 102.5 q-144 0 -247 -102.5t-103 -245.5q0 -145 102.5 -247.5t247.5 -102.5q49 0 96 12q38 16 76 -7.5t62 -68.5q23 -46 13.5 -94t-46.5 -70z" />
<glyph unicode="r" horiz-adv-x="989" d="M123 778v301q0 51 41.5 87t101.5 36t102 -36t42 -87v-24h4q133 166 315 166q70 0 104 -10.5t87 -41.5q37 -22 46 -69.5t-14 -93.5q-24 -45 -62 -68.5t-75 -7.5q-47 12 -96 12q-104 0 -191 -57.5t-127 -149.5q-18 -36 -54 -58t-81 -22q-60 0 -101.5 36t-41.5 87zM123 106 v324q0 51 41.5 87t101.5 36t102 -36t42 -87v-324q0 -51 -42 -86.5t-102 -35.5t-101.5 35.5t-41.5 86.5z" />
<glyph unicode="s" horiz-adv-x="1181" d="M262 303q142 -79 326 -88q231 0 231 123q0 44 -24 72t-65 42t-94.5 22t-112 15.5t-117 19t-112 35.5t-94.5 61.5t-65 101.5t-24 151q0 177 126 270t351 93q206 0 387 -88q37 -17 49.5 -62.5t-8.5 -91.5q-22 -48 -65.5 -68t-82.5 0q-127 62 -280 62q-182 0 -182 -115 q0 -41 24.5 -68t65.5 -40.5t94.5 -22.5t112.5 -17.5t118 -21t112.5 -38t94.5 -63t65.5 -101t24.5 -148.5q0 -95 -41 -167.5t-114 -117t-167.5 -66.5t-207.5 -22q-256 0 -453 109q-37 22 -48 70t13 96q26 50 72.5 68t89.5 -5z" />
<glyph unicode="t" horiz-adv-x="727" d="M319 829q59 0 101.5 -35.5t42.5 -84.5v-359q0 -31 20 -51t49 -20h33q45 0 77 -41t32 -99t-32 -98.5t-77 -40.5h-53q-175 0 -255.5 85.5t-80.5 264.5v359q0 49 42 84.5t101 35.5zM176 1186v164q0 49 42 84.5t101 35.5t101.5 -35.5t42.5 -84.5v-164h102q44 0 76.5 -37.5 t32.5 -89.5t-32.5 -89.5t-76.5 -37.5h-424q-44 0 -76 37.5t-32 89.5t32 89.5t76 37.5h35z" />
<glyph unicode="u" d="M932 106v973q0 51 41.5 87t101.5 36t102 -36t42 -87v-973q0 -51 -42 -86.5t-102 -35.5t-101.5 35.5t-41.5 86.5zM410 1079v-573q0 -125 68.5 -200t191.5 -62l39 4q41 5 76 -26.5t44 -80.5q10 -51 -10 -91t-61 -54q-76 -31 -176 -31q-207 0 -333 139t-126 365v610 q0 51 41.5 87t101.5 36t102 -36t42 -87z" />
<glyph unicode="v" horiz-adv-x="1249" d="M778 72q-27 -57 -90.5 -79t-126.5 0t-90 79l-436 942q-22 46 1 96.5t77 75.5q54 26 107 10.5t75 -61.5l330 -695l329 695q22 46 75.5 61.5t107.5 -10.5q54 -25 76.5 -75.5t0.5 -96.5z" />
<glyph unicode="w" horiz-adv-x="1861" d="M1829 1026l-371 -960q-11 -35 -52 -58.5t-95 -23.5q-55 0 -97 23.5t-53 58.5l-231 608l-232 -608q-11 -35 -52 -58.5t-95 -23.5q-55 0 -97 23.5t-53 58.5l-368 960q-20 46 6.5 95t83.5 69q56 21 107.5 2.5t70.5 -66.5l250 -682l252 689q9 30 44.5 49.5t82.5 19.5 q45 0 79.5 -19.5t45.5 -49.5l256 -689l250 682q19 48 70.5 66.5t107.5 -2.5q57 -20 83.5 -69t6.5 -95z" />
<glyph unicode="x" horiz-adv-x="1222" d="M287 20q-34 -38 -89.5 -36.5t-99.5 41.5t-51 94.5t27 91.5l862 954q34 38 89 37t99 -41t51.5 -94.5t-26.5 -91.5zM260 768l-186 207q-34 37 -27 91.5t51 94.5t99.5 41t89.5 -37l186 -207q34 -37 27 -91.5t-51 -94.5t-99.5 -41t-89.5 37zM936 20l-186 207q-34 37 -27 92 t51 95t99.5 41t89.5 -37l186 -207q34 -37 26.5 -91.5t-51.5 -94.5t-99 -41.5t-89 36.5z" />
<glyph unicode="y" horiz-adv-x="1249" d="M418 -352q-54 25 -77 75.5t-1 96.5l614 1315q22 46 75.5 61.5t107.5 -10.5q54 -25 76.5 -75.5t0.5 -96.5l-614 -1315q-22 -46 -75 -61.5t-107 10.5zM473 414q-54 -26 -107 -10.5t-75 61.5l-256 549q-22 46 1 96.5t77 75.5q54 26 107 10.5t75 -61.5l256 -549 q22 -46 -1 -96.5t-77 -75.5z" />
<glyph unicode="z" horiz-adv-x="1179" d="M1118 129q0 -53 -32 -91t-76 -38h-836q-45 0 -79 38.5t-34 90.5q0 53 41 98l566 695v4h-498q-44 0 -76.5 38.5t-32.5 92.5q0 52 32.5 90.5t76.5 38.5h836q44 0 76 -38t32 -91q0 -59 -37 -99l-565 -694v-4h498q44 0 76 -38.5t32 -92.5z" />
<glyph unicode="{" horiz-adv-x="786" d="M741 1432q0 -43 -25.5 -74t-62.5 -31q-44 0 -74 -31t-30 -75v-418q0 -122 -117 -209q117 -90 117 -209v-420q0 -44 30 -75t74 -31q37 0 62.5 -31t25.5 -74t-25.5 -73.5t-62.5 -30.5q-131 0 -223 92t-92 223v420q0 42 -30 72t-72 30h-17q-37 0 -62.5 31t-25.5 74 t25.5 73.5t62.5 30.5h17q42 0 72 32t30 75v418q0 132 92 223.5t223 91.5q37 0 62.5 -30.5t25.5 -73.5z" />
<glyph unicode="|" horiz-adv-x="634" d="M246 -305v1796q0 26 20.5 43.5t50.5 17.5t51 -17.5t21 -43.5v-1796q0 -26 -21 -44t-51 -18q-29 0 -50 18t-21 44z" />
<glyph unicode="}" horiz-adv-x="786" d="M45 1432q0 43 25.5 73.5t62.5 30.5q131 0 223.5 -91.5t92.5 -223.5v-418q0 -43 30 -75t72 -32h16q37 0 62.5 -30.5t25.5 -73.5t-25.5 -74t-62.5 -31h-16q-42 0 -72 -30t-30 -72v-420q0 -130 -92.5 -222.5t-223.5 -92.5q-37 0 -62.5 30.5t-25.5 73.5t25.5 74t62.5 31 q44 0 74.5 31t30.5 75v420q0 119 116 209q-116 86 -116 209v418q0 44 -30.5 75t-74.5 31q-37 0 -62.5 31t-25.5 74z" />
<glyph unicode="~" horiz-adv-x="1069" d="M944 657q-6 -62 -40.5 -115.5t-92.5 -84.5q-92 -54 -191.5 -26.5t-154.5 122.5q-22 37 -59.5 48.5t-73.5 -9.5q-39 -17 -47 -78q-4 -35 -30 -55t-60 -15q-33 4 -53 29t-17 55q6 62 40.5 116t92.5 85q92 54 191.5 26.5t154.5 -122.5q22 -37 59.5 -48.5t73.5 9.5 q39 17 47 78q4 35 30 54.5t60 14.5q33 -4 53 -29t17 -55z" />
<glyph unicode="&#xa1;" horiz-adv-x="528" d="M123 104l29 938q0 38 33 66.5t79 28.5t78.5 -28.5t32.5 -66.5l28 -938q0 -49 -41 -83.5t-98 -34.5t-99 34.5t-42 83.5zM422 1395q0 -64 -46.5 -109t-111.5 -45t-111.5 45t-46.5 109q0 67 46.5 112t111.5 45t111.5 -45t46.5 -112z" />
<glyph unicode="&#xa2;" horiz-adv-x="1255" d="M283 139q-96 87 -148.5 203.5t-52.5 251.5t52.5 251.5t148.5 203.5q35 34 90 28t96 -49q43 -44 47 -98.5t-33 -89.5q-47 -47 -73.5 -112t-26.5 -134t26.5 -134t73.5 -112q37 -35 33 -89.5t-47 -98.5q-41 -43 -96 -49t-90 28zM731 246q128 0 223 82q35 35 90 29.5 t95 -46.5q44 -45 46.5 -97t-40.5 -93q-115 -103 -275 -139v-109q0 -35 -40.5 -60.5t-98.5 -25.5t-98.5 25.5t-40.5 60.5v287q0 35 40.5 60.5t98.5 25.5zM731 942q-58 0 -98.5 25.5t-40.5 60.5v287q0 35 40.5 60.5t98.5 25.5t98.5 -25.5t40.5 -60.5v-109q160 -36 275 -139 q43 -41 40.5 -93t-46.5 -97q-40 -41 -95 -46.5t-90 29.5q-95 82 -223 82z" />
<glyph unicode="&#xa3;" horiz-adv-x="1198" d="M123 123v592q0 51 42.5 87t102.5 36h594q51 0 87 -41.5t36 -100.5q0 -58 -36 -98.5t-87 -40.5h-448v-278h590q51 0 86.5 -40.5t35.5 -99.5q0 -58 -35.5 -98.5t-86.5 -40.5h-736q-60 0 -102.5 36t-42.5 87zM414 1069q0 -47 -43 -81t-103 -34t-102.5 34t-42.5 81 q0 136 67.5 251.5t183 183t251.5 67.5t251.5 -67.5t182.5 -183t67 -251.5q0 -47 -42.5 -81t-102.5 -34t-102.5 34t-42.5 81q0 88 -61.5 149.5t-149.5 61.5t-149.5 -61.5t-61.5 -149.5z" />
<glyph unicode="&#xa4;" horiz-adv-x="1476" d="M1386 594q0 -215 -124 -377l65 -65q25 -26 21.5 -66.5t-33.5 -69.5q-29 -30 -69 -33.5t-66 21.5l-72 70q-162 -109 -371 -109q-208 0 -370 109l-70 -70q-26 -25 -66 -21.5t-69 33.5q-30 29 -33.5 69.5t21.5 66.5l65 65q-125 159 -125 377q0 208 125 375l-65 65 q-25 26 -21.5 66t33.5 69q29 31 69 34.5t66 -21.5l70 -70q162 109 370 109q206 0 371 -111l72 72q26 25 66 21.5t69 -34.5q30 -29 33.5 -69t-21.5 -66l-65 -65q124 -165 124 -375zM1087 594q0 143 -102 245.5t-248 102.5q-142 0 -244 -102.5t-102 -245.5 q0 -145 101.5 -247.5t244.5 -102.5q146 0 248 102.5t102 247.5z" />
<glyph unicode="&#xa5;" horiz-adv-x="1392" d="M1196 946h-176l-178 -219v-621q0 -52 -42.5 -87t-103.5 -35t-103 35t-42 87v691q0 32 24 63l531 651q32 41 88.5 42.5t101.5 -35.5q48 -37 59.5 -91t-20.5 -96l-172 -209h33q30 0 51 -26t21 -62t-21 -62t-51 -26zM287 1511l270 -344q32 -40 20.5 -94.5t-59.5 -91.5 q-43 -35 -106 -35h-219q-30 0 -51 26t-21 62t21 62t51 26h28l-164 209q-32 42 -20.5 96t59.5 91q45 37 102 35.5t89 -42.5zM1196 608h-184q-30 0 -51 26t-21 62t21 62t51 26h184q30 0 51 -26t21 -62t-21 -62t-51 -26zM377 608h-184q-30 0 -51 26t-21 62t21 62t51 26h184 q30 0 51 -26t21 -62t-21 -62t-51 -26z" />
<glyph unicode="&#xa6;" horiz-adv-x="454" d="M227 682q-43 0 -73.5 25.5t-30.5 60.5v455q0 35 30.5 60.5t73.5 25.5t74 -25.5t31 -60.5v-455q0 -35 -31 -60.5t-74 -25.5zM227 -119q-43 0 -73.5 25.5t-30.5 60.5v453q0 35 30.5 60.5t73.5 25.5t74 -25.5t31 -60.5v-453q0 -35 -31 -60.5t-74 -25.5z" />
<glyph unicode="&#xa7;" horiz-adv-x="1179" d="M1077 602q0 -72 -46 -105.5t-120 -25.5q-55 6 -94 42.5t-37 80.5q3 68 -54 113t-138 45q-209 0 -347.5 114t-138.5 287q0 185 137.5 301.5t348.5 116.5q162 0 288 -83t168 -212q19 -45 -8 -92.5t-82 -67.5q-53 -20 -102.5 -3t-69.5 61q-53 116 -194 116q-83 0 -136 -36 t-53 -105q0 -63 56 -100t133 -37q213 0 351 -112t138 -298zM102 586q0 72 46 105.5t120 25.5q55 -6 94 -42.5t37 -80.5q-3 -68 54.5 -113t138.5 -45q209 0 347 -114t138 -287q0 -185 -137 -301.5t-348 -116.5q-162 0 -288.5 83t-168.5 212q-19 45 8 92.5t82 67.5 q53 20 102.5 3t69.5 -61q53 -116 195 -116q83 0 135.5 36t52.5 105q0 63 -55.5 100t-132.5 37q-213 0 -351.5 112t-138.5 298z" />
<glyph unicode="&#xa8;" horiz-adv-x="675" d="M240 1466q0 -42 -31 -73t-72 -31q-44 0 -75 30.5t-31 73.5t31 74t75 31q41 0 72 -31t31 -74zM645 1466q0 -43 -30 -73.5t-74 -30.5q-43 0 -74 30.5t-31 73.5t31 74t74 31q44 0 74 -31t30 -74z" />
<glyph unicode="&#xa9;" horiz-adv-x="1419" d="M1264 594q0 112 -43.5 214.5t-117.5 176.5t-177 118t-217 44q-112 0 -214.5 -44t-176.5 -118t-118 -176.5t-44 -214.5t44 -215t118 -177.5t176.5 -118.5t214.5 -44q114 0 217 44t177 118.5t117.5 177.5t43.5 215zM1337 594q0 -171 -84 -316t-228.5 -229t-315.5 -84 q-170 0 -314.5 84t-228.5 229t-84 316q0 170 84 314.5t228.5 228.5t314.5 84q171 0 315.5 -84t228.5 -228.5t84 -314.5zM905 424q17 20 44 21t50 -19q23 -19 27.5 -46t-12.5 -46q-125 -141 -303 -141q-171 0 -291.5 116t-120.5 285t120.5 285t291.5 116q175 0 303 -141 q17 -19 12.5 -47t-27.5 -47t-50 -18t-44 20q-48 46 -90.5 69t-103.5 23q-109 0 -185.5 -76.5t-76.5 -183.5q0 -109 76.5 -185.5t185.5 -76.5q60 0 102 23t92 69z" />
<glyph unicode="&#xaa;" horiz-adv-x="825" d="M508 969q-49 -27 -127 -27q-125 0 -212 90.5t-87 224.5q0 133 87 223.5t212 90.5q121 0 199 -105h2v33q0 26 20 44t49 18q31 0 51.5 -18t20.5 -44v-485q0 -26 -20.5 -44t-51.5 -18q-29 0 -49 18t-20 44v243q0 71 -51 123t-123 52t-123.5 -52t-51.5 -123q0 -72 51.5 -124 t123.5 -52q26 0 47 6q19 9 38.5 -2.5t30.5 -33.5q11 -23 6.5 -47.5t-22.5 -34.5z" />
<glyph unicode="&#xab;" horiz-adv-x="1067" d="M90 662l305 305q25 26 65 22t72 -35q30 -31 33.5 -70.5t-22.5 -66.5l-224 -223l228 -232q26 -25 23 -64t-31 -69q-31 -29 -69.5 -31.5t-63.5 23.5l-304 303q-31 31 -34.5 71.5t22.5 66.5zM520 662l305 305q25 26 65.5 22t72.5 -35q30 -31 33 -70.5t-23 -66.5l-223 -223 l227 -232q26 -25 23 -64t-31 -69q-31 -29 -69.5 -31.5t-63.5 23.5l-304 303q-31 31 -34.5 71.5t22.5 66.5z" />
<glyph unicode="&#xac;" horiz-adv-x="909" d="M682 334q-43 0 -73.5 26.5t-30.5 63.5v63h-381q-37 0 -64 31t-27 74t27 73.5t64 30.5h485q43 0 73.5 -26.5t30.5 -63.5v-182q0 -37 -30.5 -63.5t-73.5 -26.5z" />
<glyph unicode="&#xad;" horiz-adv-x="952" d="M127 592q0 43 25.5 73.5t60.5 30.5h528q35 0 60.5 -30.5t25.5 -73.5t-25.5 -74t-60.5 -31h-528q-35 0 -60.5 31t-25.5 74z" />
<glyph unicode="&#xae;" horiz-adv-x="653" d="M571 1327q0 -101 -71.5 -173.5t-171.5 -72.5q-101 0 -173.5 72.5t-72.5 173.5q0 100 72.5 172t173.5 72q100 0 171.5 -72t71.5 -172zM543 1327q0 89 -63 151t-152 62q-91 0 -154 -62t-63 -151q0 -91 63 -154t154 -63q89 0 152 63t63 154zM459 1174h-64l-57 114h-68v-114 h-55v313h141q43 0 73 -29t30 -69q0 -65 -62 -95zM270 1343h86q20 0 32.5 13.5t12.5 32.5q0 18 -12.5 29.5t-32.5 11.5h-86v-87z" />
<glyph unicode="&#xaf;" horiz-adv-x="628" d="M106 1456q0 34 19 57t47 23h285q28 0 46.5 -23t18.5 -57t-18.5 -57t-46.5 -23h-285q-28 0 -47 23t-19 57z" />
<glyph unicode="&#xb0;" horiz-adv-x="622" d="M399 1362q0 35 -25.5 60.5t-62.5 25.5q-35 0 -60.5 -25.5t-25.5 -60.5q0 -37 25.5 -62.5t60.5 -25.5q37 0 62.5 25.5t25.5 62.5zM520 1362q0 -87 -61 -148t-148 -61q-86 0 -147.5 61.5t-61.5 147.5q0 87 61 148t148 61q88 0 148.5 -60.5t60.5 -148.5z" />
<glyph unicode="&#xb1;" horiz-adv-x="1392" d="M698 334q-43 0 -73.5 25.5t-30.5 60.5v244h-422q-35 0 -60.5 30.5t-25.5 73.5t25.5 73.5t60.5 30.5h422v244q0 35 30.5 60.5t73.5 25.5t74 -25.5t31 -60.5v-244h418q35 0 60.5 -30.5t25.5 -73.5t-25.5 -73.5t-60.5 -30.5h-418v-244q0 -35 -31 -60.5t-74 -25.5zM86 104 q0 43 25.5 74t60.5 31h1049q35 0 60.5 -31t25.5 -74t-25.5 -73.5t-60.5 -30.5h-1049q-35 0 -60.5 30.5t-25.5 73.5z" />
<glyph unicode="&#xb2;" horiz-adv-x="706" d="M82 1290q0 113 77.5 187.5t192.5 74.5q116 0 194.5 -70t78.5 -182q0 -56 -28.5 -107t-74.5 -89l-215 -197h242q25 0 42 -20t17 -49t-17 -49.5t-42 -20.5h-377q-31 0 -53.5 26t-22.5 62q0 48 35 76l301 276q43 43 43 92q0 51 -35.5 83t-87.5 32q-50 0 -85 -35.5t-36 -89.5 q0 -26 -22 -44.5t-53 -18.5t-52.5 18.5t-21.5 44.5z" />
<glyph unicode="&#xb3;" horiz-adv-x="692" d="M418 1106q-19 15 -19 42.5t17 49.5q19 23 45.5 29.5t46.5 -8.5q47 -35 74.5 -89t27.5 -118q0 -112 -78 -186t-192 -74q-94 0 -165.5 57.5t-90.5 146.5q-6 23 10 44.5t45 27.5q28 6 51.5 -7t28.5 -36q9 -42 43 -69t78 -27q50 0 85.5 36t35.5 87t-43 94zM195 1241l157 158 h-172q-25 0 -42 19.5t-17 47.5q0 29 17 49.5t42 20.5h340q26 0 44 -21t18 -51q0 -34 -23 -57l-266 -264q-17 -17 -42.5 -14.5t-47.5 24.5q-20 20 -22.5 45.5t14.5 42.5z" />
<glyph unicode="&#xb4;" horiz-adv-x="718" d="M487 1403l-258 -68q-25 -8 -42 14t-13.5 52.5t29.5 44.5l239 121q49 22 82 -22q30 -40 18 -87q-11 -43 -55 -55z" />
<glyph unicode="&#xb5;" d="M410 1079v-573q0 -111 77.5 -191.5t182.5 -70.5l39 4q41 5 76 -26.5t44 -80.5q10 -51 -10 -91t-61 -54q-76 -31 -156 -31q-101 0 -192 78v-287q0 -51 -42 -87t-102 -36t-101.5 36t-41.5 87v1323q0 51 41.5 87t101.5 36t102 -36t42 -87zM932 106v973q0 51 41.5 87 t101.5 36t102 -36t42 -87v-973q0 -51 -42 -86.5t-102 -35.5t-101.5 35.5t-41.5 86.5z" />
<glyph unicode="&#xb6;" horiz-adv-x="1241" d="M909 1255h-123v-1181q0 -37 -30.5 -63.5t-73.5 -26.5t-73.5 26.5t-30.5 63.5v1339q0 51 42.5 87t102.5 36h250q60 0 102.5 -36t42.5 -87v-1339q0 -37 -30.5 -63.5t-73.5 -26.5t-74 26.5t-31 63.5v1181zM297 1546q44 17 92 -10.5t70 -81.5q19 -50 7 -95.5t-48 -72.5 q-30 -19 -48 -51.5t-18 -69.5t18 -69.5t48 -51.5q36 -27 48 -72t-7 -95q-22 -54 -70 -82t-92 -11q-111 51 -178.5 152t-67.5 229t67.5 229t178.5 152z" />
<glyph unicode="&#xb7;" horiz-adv-x="561" d="M229 436q-64 0 -110.5 46.5t-46.5 111.5t46.5 111.5t110.5 46.5q65 0 111.5 -47t46.5 -111t-46.5 -111t-111.5 -47z" />
<glyph unicode="&#xb8;" horiz-adv-x="772" d="M207 -291q-6 20 5.5 36t31.5 19q18 4 34 -4.5t19 -23.5q9 -28 32 -45t52 -17q36 0 61 25t25 61q0 35 -25.5 60.5t-60.5 25.5q-26 0 -51 -18q-28 -20 -54 -12q-21 3 -34.5 19t-10.5 34l23 131h92l-12 -78q18 10 61 10q80 0 126 -48t46 -124t-54.5 -127t-131.5 -51 q-64 0 -111.5 35t-62.5 92z" />
<glyph unicode="&#xb9;" horiz-adv-x="479" d="M233 821v541l-77 -49q-20 -12 -44.5 -4.5t-37.5 30.5q-14 22 -10.5 47t22.5 35l176 111q18 12 43 12q31 0 51.5 -17.5t20.5 -43.5v-662q0 -25 -21 -43t-51 -18q-29 0 -50.5 18t-21.5 43z" />
<glyph unicode="&#xba;" horiz-adv-x="813" d="M582 1260q0 71 -51.5 122.5t-124.5 51.5q-70 0 -121.5 -51.5t-51.5 -122.5q0 -72 51.5 -124.5t121.5 -52.5q73 0 124.5 52.5t51.5 124.5zM731 1260q0 -134 -94.5 -225t-230.5 -91q-135 0 -229.5 91t-94.5 225q0 132 94.5 222.5t229.5 90.5q136 0 230.5 -90t94.5 -223z " />
<glyph unicode="&#xbb;" horiz-adv-x="1067" d="M672 967l305 -305q26 -26 22.5 -66.5t-34.5 -71.5l-303 -303q-25 -26 -64 -23.5t-70 31.5q-28 30 -31 69t23 64l228 232l-224 223q-26 27 -22.5 66.5t33.5 70.5q32 31 72 35t65 -22zM242 967l305 -305q26 -26 22.5 -66.5t-34.5 -71.5l-304 -303q-25 -26 -63.5 -23.5 t-69.5 31.5q-28 30 -31 69t23 64l227 232l-223 223q-26 27 -23 66.5t33 70.5q32 31 72.5 35t65.5 -22z" />
<glyph unicode="&#xbc;" horiz-adv-x="1329" d="M233 821v541l-77 -49q-20 -12 -44.5 -4.5t-37.5 30.5q-14 22 -10.5 47t22.5 35l176 111q18 12 43 12q31 0 51.5 -17.5t20.5 -43.5v-662q0 -25 -21 -43t-51 -18q-29 0 -50.5 18t-21.5 43zM289 55l614 1471q9 20 30.5 26t41.5 -4q22 -9 32 -28t3 -39l-615 -1471 q-9 -20 -30 -26t-41 4q-22 9 -32 28t-3 39zM1049 401v125l-179 -247h359q25 0 42 -20.5t17 -49.5q0 -28 -17.5 -49t-41.5 -21h-35v-86q0 -25 -21.5 -43t-50.5 -18q-30 0 -51.5 18t-21.5 43v86h-263q-34 0 -57.5 27t-23.5 67q0 35 20 62l303 444q26 37 78 37q37 0 62.5 -22 t25.5 -54v-299q0 -26 -21 -43.5t-51 -17.5q-31 0 -52 17.5t-21 43.5z" />
<glyph unicode="&#xbd;" horiz-adv-x="1454" d="M233 821v541l-77 -49q-20 -12 -44.5 -4.5t-37.5 30.5q-14 22 -10.5 47t22.5 35l176 111q18 12 43 12q31 0 51.5 -17.5t20.5 -43.5v-662q0 -25 -21 -43t-51 -18q-29 0 -50.5 18t-21.5 43zM289 55l614 1471q9 20 30.5 26t41.5 -4q22 -9 32 -28t3 -39l-615 -1471 q-9 -20 -30 -26t-41 4q-22 9 -32 28t-3 39zM829 522q0 113 78 187.5t193 74.5q116 0 194 -70t78 -182q0 -56 -28.5 -107.5t-73.5 -88.5l-215 -197h241q25 0 42.5 -20t17.5 -49t-17.5 -49.5t-42.5 -20.5h-376q-31 0 -53.5 26t-22.5 62q0 48 35 76l301 276q43 43 43 92 q0 51 -35.5 83t-87.5 32q-50 0 -85 -35.5t-36 -89.5q0 -26 -22.5 -44.5t-53.5 -18.5t-52.5 18.5t-21.5 44.5z" />
<glyph unicode="&#xbe;" horiz-adv-x="1449" d="M428 55l614 1471q9 20 30.5 26t41.5 -4q22 -9 32 -28t3 -39l-614 -1471q-9 -20 -30.5 -26t-41.5 4q-22 9 -32 28t-3 39zM418 1106q-19 15 -19 42.5t17 49.5q19 23 45.5 29.5t46.5 -8.5q47 -35 74.5 -89t27.5 -118q0 -112 -78 -186t-192 -74q-94 0 -165.5 57.5 t-90.5 146.5q-6 23 10 44.5t45 27.5q28 6 51.5 -7t28.5 -36q9 -42 43 -69t78 -27q50 0 85.5 36t35.5 87t-43 94zM195 1241l157 158h-172q-25 0 -42 19.5t-17 47.5q0 29 17 49.5t42 20.5h340q26 0 44 -21t18 -51q0 -34 -23 -57l-266 -264q-17 -17 -42.5 -14.5t-47.5 24.5 q-20 20 -22.5 45.5t14.5 42.5zM1169 401v125l-178 -247h359q25 0 42 -20.5t17 -49.5q0 -28 -17.5 -49t-41.5 -21h-35v-86q0 -25 -21.5 -43t-50.5 -18q-31 0 -52.5 18t-21.5 43v86h-262q-34 0 -58 27t-24 67q0 34 21 62l303 444q26 37 78 37q37 0 62.5 -22t25.5 -54v-299 q0 -26 -21 -43.5t-51 -17.5q-31 0 -52.5 17.5t-21.5 43.5z" />
<glyph unicode="&#xbf;" horiz-adv-x="1210" d="M762 1065v-211q0 -52 -39 -87.5t-98 -35.5q-100 0 -172 -72t-72 -174q0 -101 72 -172t172 -71q87 0 153.5 53t85.5 137q9 47 57.5 72.5t104.5 13.5q57 -10 89.5 -52.5t21.5 -90.5q-39 -177 -182 -293.5t-330 -116.5q-149 0 -273.5 67t-197 186.5t-72.5 266.5 q0 190 118 329t287 169v82q0 53 39 88t99 35t98.5 -35t38.5 -88zM469 1397q0 65 46 111t110 46q66 0 111.5 -46t45.5 -111t-45.5 -111.5t-111.5 -46.5q-64 0 -110 46.5t-46 111.5z" />
<glyph unicode="&#xc0;" horiz-adv-x="1458" d="M860 1612l-258 67q-53 14 -57 70q-4 50 29 82q32 30 73 12l240 -121q26 -14 29.5 -44t-14 -52t-42.5 -14zM883 715l-146 407h-16l-397 -1067q-22 -46 -74.5 -63t-110.5 2q-55 23 -81 72t-9 96l504 1292q21 47 71.5 73t104.5 26t104.5 -26t71.5 -73l246 -633 q17 -48 -7 -96.5t-79 -71.5q-58 -19 -111.5 -1t-70.5 63zM575 420q0 58 34.5 98.5t84.5 40.5h455q52 0 91 -27t50 -69l119 -301q17 -47 -9 -96t-81 -72q-58 -19 -110 -2t-74 63l-99 224h-342q-49 0 -84 41t-35 100z" />
<glyph unicode="&#xc1;" horiz-adv-x="1458" d="M836 1679l-258 -67q-25 -8 -42.5 14t-14 52t29.5 44l240 121q49 22 82 -22q30 -40 18 -87q-11 -43 -55 -55zM883 715l-146 407h-16l-397 -1067q-22 -46 -74.5 -63t-110.5 2q-55 23 -81 72t-9 96l504 1292q21 47 71.5 73t104.5 26t104.5 -26t71.5 -73l246 -633 q17 -48 -7 -96.5t-79 -71.5q-58 -19 -111.5 -1t-70.5 63zM575 420q0 58 34.5 98.5t84.5 40.5h455q52 0 91 -27t50 -69l119 -301q17 -47 -9 -96t-81 -72q-58 -19 -110 -2t-74 63l-99 224h-342q-49 0 -84 41t-35 100z" />
<glyph unicode="&#xc2;" horiz-adv-x="1458" d="M729 1743l-123 -115q-17 -15 -42.5 -12t-45.5 24q-18 22 -18 46.5t18 42.5l160 153q19 19 51 19q29 0 51 -19l158 -153q20 -15 19.5 -41t-19.5 -48q-18 -21 -43.5 -24t-42.5 12zM883 715l-146 407h-16l-397 -1067q-22 -46 -74.5 -63t-110.5 2q-55 23 -81 72t-9 96 l504 1292q21 47 71.5 73t104.5 26t104.5 -26t71.5 -73l246 -633q17 -48 -7 -96.5t-79 -71.5q-58 -19 -111.5 -1t-70.5 63zM575 420q0 58 34.5 98.5t84.5 40.5h455q52 0 91 -27t50 -69l119 -301q17 -47 -9 -96t-81 -72q-58 -19 -110 -2t-74 63l-99 224h-342q-49 0 -84 41 t-35 100z" />
<glyph unicode="&#xc3;" horiz-adv-x="1458" d="M498 1651q0 62 43.5 106.5t105.5 44.5q42 0 76.5 -22t52.5 -58q11 -20 37 -20q39 0 39 39q0 19 16 32t39 13t39.5 -13t16.5 -32q0 -65 -44 -108.5t-106 -43.5q-41 0 -76.5 21.5t-56.5 56.5q-12 23 -33 23q-16 0 -27.5 -10t-11.5 -29t-16 -32t-39 -13t-39 13t-16 32z M883 715l-146 407h-16l-397 -1067q-22 -46 -74.5 -63t-110.5 2q-55 23 -81 72t-9 96l504 1292q21 47 71.5 73t104.5 26t104.5 -26t71.5 -73l246 -633q17 -48 -7 -96.5t-79 -71.5q-58 -19 -111.5 -1t-70.5 63zM575 420q0 58 34.5 98.5t84.5 40.5h455q52 0 91 -27t50 -69 l119 -301q17 -47 -9 -96t-81 -72q-58 -19 -110 -2t-74 63l-99 224h-342q-49 0 -84 41t-35 100z" />
<glyph unicode="&#xc4;" horiz-adv-x="1458" d="M629 1718q0 -42 -30.5 -73t-72.5 -31q-44 0 -75 30.5t-31 73.5q0 44 31 74.5t75 30.5q42 0 72.5 -30.5t30.5 -74.5zM1036 1718q0 -43 -31 -73.5t-75 -30.5q-43 0 -74 30.5t-31 73.5q0 44 31 74.5t74 30.5q44 0 75 -30.5t31 -74.5zM883 715l-146 407h-16l-397 -1067 q-22 -46 -74.5 -63t-110.5 2q-55 23 -81 72t-9 96l504 1292q21 47 71.5 73t104.5 26t104.5 -26t71.5 -73l246 -633q17 -48 -7 -96.5t-79 -71.5q-58 -19 -111.5 -1t-70.5 63zM575 420q0 58 34.5 98.5t84.5 40.5h455q52 0 91 -27t50 -69l119 -301q17 -47 -9 -96t-81 -72 q-58 -19 -110 -2t-74 63l-99 224h-342q-49 0 -84 41t-35 100z" />
<glyph unicode="&#xc5;" horiz-adv-x="1458" d="M784 1743q0 22 -16 37.5t-39 15.5t-39 -15.5t-16 -37.5q0 -25 16 -41t39 -16t39 16t16 41zM881 1743q0 -63 -45 -108.5t-107 -45.5t-106.5 45.5t-44.5 108.5q0 61 44.5 105t106.5 44t107 -44t45 -105zM883 715l-146 407h-16l-397 -1067q-22 -46 -74.5 -63t-110.5 2 q-55 23 -81 72t-9 96l504 1292q21 47 71.5 73t104.5 26t104.5 -26t71.5 -73l246 -633q17 -48 -7 -96.5t-79 -71.5q-58 -19 -111.5 -1t-70.5 63zM575 420q0 58 34.5 98.5t84.5 40.5h455q52 0 91 -27t50 -69l119 -301q17 -47 -9 -96t-81 -72q-58 -19 -110 -2t-74 63l-99 224 h-342q-49 0 -84 41t-35 100z" />
<glyph unicode="&#xc6;" horiz-adv-x="2263" d="M1053 123v663q0 51 42.5 87t102.5 36h735q51 0 87 -41.5t36 -99.5t-36 -98.5t-87 -40.5h-590v-350h732q51 0 87 -41t36 -99t-36 -98.5t-87 -40.5h-877q-60 0 -102.5 36t-42.5 87zM827 559q51 0 87 -41.5t36 -99.5t-36 -98.5t-87 -40.5h-368l-174 -248q-30 -42 -84.5 -48 t-104.5 29q-49 33 -62 87.5t17 95.5l228 315q36 49 98 49h450zM2075 1536q51 0 87 -41.5t36 -99.5t-36 -99t-87 -41h-914l-383 -546q-30 -42 -84 -48t-104 29q-49 33 -62 87t17 95l436 615q36 49 98 49h996z" />
<glyph unicode="&#xc7;" horiz-adv-x="1601" d="M1286 430q34 39 88.5 40.5t100.5 -36.5q44 -37 52 -93t-24 -93q-122 -136 -277.5 -209.5t-330.5 -73.5q-27 0 -41 2l-6 -45q17 10 61 10q80 0 126 -48t46 -124t-54.5 -127t-131.5 -51q-64 0 -111.5 35t-62.5 92q-6 20 5.5 36t31.5 19q18 4 34 -4.5t19 -23.5q9 -28 32 -45 t52 -17q36 0 61 25t25 61q0 35 -25.5 60.5t-60.5 25.5q-26 0 -51 -18q-28 -20 -53 -12q-21 3 -35 19t-11 34l19 106q-146 22 -273.5 91.5t-220 173t-145.5 240.5t-53 288q0 223 110.5 408t299 290t413.5 105q175 0 330.5 -73.5t277.5 -209.5q32 -37 24 -93t-52 -93 q-46 -38 -100.5 -36.5t-88.5 40.5q-98 92 -184 138t-207 46q-106 0 -203 -41t-167 -111t-111 -167t-41 -203t41 -203t111 -167t167 -111t203 -41q121 0 207 46t184 138z" />
<glyph unicode="&#xc8;" horiz-adv-x="1333" d="M842 1612l-258 67q-53 14 -57 70q-4 50 29 82q32 30 73 12l239 -121q26 -14 29.5 -44t-13.5 -52t-42 -14zM123 123v663q0 51 42.5 87t102.5 36h736q51 0 86.5 -41t35.5 -100q0 -58 -35.5 -98.5t-86.5 -40.5h-590v-350h731q51 0 87 -41t36 -99t-36 -98.5t-87 -40.5h-877 q-60 0 -102.5 36t-42.5 87zM123 1153v260q0 51 42.5 87t102.5 36h877q51 0 87 -41.5t36 -99.5t-36 -99t-87 -41h-731v-102q0 -51 -43 -87t-103 -36t-102.5 36t-42.5 87z" />
<glyph unicode="&#xc9;" horiz-adv-x="1333" d="M819 1679l-258 -67q-25 -8 -42 14t-13.5 52t29.5 44l239 121q49 22 82 -22q30 -40 18 -87q-11 -43 -55 -55zM123 123v663q0 51 42.5 87t102.5 36h736q51 0 86.5 -41t35.5 -100q0 -58 -35.5 -98.5t-86.5 -40.5h-590v-350h731q51 0 87 -41t36 -99t-36 -98.5t-87 -40.5h-877 q-60 0 -102.5 36t-42.5 87zM123 1153v260q0 51 42.5 87t102.5 36h877q51 0 87 -41.5t36 -99.5t-36 -99t-87 -41h-731v-102q0 -51 -43 -87t-103 -36t-102.5 36t-42.5 87z" />
<glyph unicode="&#xca;" horiz-adv-x="1333" d="M688 1743l-123 -115q-17 -15 -42.5 -12t-45.5 24q-18 22 -18 46.5t18 42.5l160 153q19 19 51 19q29 0 51 -19l158 -153q20 -15 19.5 -41t-19.5 -48q-18 -21 -43.5 -24t-42.5 12zM123 123v663q0 51 42.5 87t102.5 36h736q51 0 86.5 -41t35.5 -100q0 -58 -35.5 -98.5 t-86.5 -40.5h-590v-350h731q51 0 87 -41t36 -99t-36 -98.5t-87 -40.5h-877q-60 0 -102.5 36t-42.5 87zM123 1153v260q0 51 42.5 87t102.5 36h877q51 0 87 -41.5t36 -99.5t-36 -99t-87 -41h-731v-102q0 -51 -43 -87t-103 -36t-102.5 36t-42.5 87z" />
<glyph unicode="&#xcb;" horiz-adv-x="1333" d="M569 1718q0 -43 -30.5 -73.5t-71.5 -30.5q-44 0 -75.5 30.5t-31.5 73.5q0 44 31.5 74.5t75.5 30.5q42 0 72 -30.5t30 -74.5zM977 1718q0 -43 -31.5 -73.5t-75.5 -30.5q-43 0 -73.5 30.5t-30.5 73.5q0 44 30.5 74.5t73.5 30.5q44 0 75.5 -30.5t31.5 -74.5zM123 123v663 q0 51 42.5 87t102.5 36h736q51 0 86.5 -41t35.5 -100q0 -58 -35.5 -98.5t-86.5 -40.5h-590v-350h731q51 0 87 -41t36 -99t-36 -98.5t-87 -40.5h-877q-60 0 -102.5 36t-42.5 87zM123 1153v260q0 51 42.5 87t102.5 36h877q51 0 87 -41.5t36 -99.5t-36 -99t-87 -41h-731v-102 q0 -51 -43 -87t-103 -36t-102.5 36t-42.5 87z" />
<glyph unicode="&#xcc;" horiz-adv-x="536" d="M399 1612l-258 67q-53 14 -57 70q-4 50 29 82q32 30 73 12l240 -121q26 -14 29.5 -44t-14 -52t-42.5 -14zM123 106v1324q0 51 42.5 86.5t102.5 35.5t103 -35.5t43 -86.5v-1324q0 -52 -42.5 -87t-103.5 -35t-103 35t-42 87z" />
<glyph unicode="&#xcd;" horiz-adv-x="536" d="M395 1679l-258 -67q-25 -8 -42 14t-13.5 52t29.5 44l239 121q49 22 82 -22q30 -40 18 -87q-11 -43 -55 -55zM123 106v1324q0 51 42.5 86.5t102.5 35.5t103 -35.5t43 -86.5v-1324q0 -52 -42.5 -87t-103.5 -35t-103 35t-42 87z" />
<glyph unicode="&#xce;" horiz-adv-x="536" d="M123 106v1324q0 51 42.5 86.5t102.5 35.5t103 -35.5t43 -86.5v-1324q0 -52 -42.5 -87t-103.5 -35t-103 35t-42 87zM268 1743l-123 -115q-17 -15 -42.5 -12t-45.5 24q-18 22 -18 46.5t18 42.5l160 153q19 19 51 19q29 0 51 -19l158 -153q20 -15 19.5 -41t-19.5 -48 q-18 -21 -43.5 -24t-42.5 12z" />
<glyph unicode="&#xcf;" horiz-adv-x="536" d="M182 1716q0 -42 -30 -72t-72 -30q-44 0 -75.5 30.5t-31.5 71.5q0 44 31.5 75.5t75.5 31.5q43 0 72.5 -31.5t29.5 -75.5zM563 1716q0 -42 -31 -72t-75 -30q-43 0 -73 30t-30 72q0 44 30 75.5t73 31.5q44 0 75 -31.5t31 -75.5zM123 106v1324q0 51 42.5 86.5t102.5 35.5 t103 -35.5t43 -86.5v-1324q0 -52 -42.5 -87t-103.5 -35t-103 35t-42 87z" />
<glyph unicode="&#xd0;" horiz-adv-x="1556" d="M162 383q0 51 42.5 87t102.5 36t103 -36t43 -87v-104h243q201 0 344.5 143.5t143.5 345.5q0 132 -65.5 244t-178 177.5t-244.5 65.5h-243v-102q0 -52 -42.5 -87.5t-103.5 -35.5q-60 0 -102.5 35.5t-42.5 87.5v260q0 51 42.5 87t102.5 36h389q164 0 310 -58t251.5 -159 t166.5 -244t61 -307t-61 -307t-166.5 -244t-251.5 -159t-310 -58h-389q-60 0 -102.5 36t-42.5 87v260zM672 629h-529q-50 0 -84 40.5t-34 98.5t34 98.5t84 40.5h529q50 0 84.5 -40.5t34.5 -98.5t-34.5 -98.5t-84.5 -40.5z" />
<glyph unicode="&#xd1;" horiz-adv-x="1452" d="M123 106v1313q0 55 50.5 94t121.5 39q54 0 97.5 -24.5t62.5 -63.5l579 -954h6l-2 920q0 51 43 86.5t103 35.5t102.5 -35.5t42.5 -86.5v-1313q0 -55 -50.5 -94t-121.5 -39q-54 0 -97.5 22.5t-62.5 59.5l-579 958h-6l2 -918q0 -51 -43 -86.5t-103 -35.5t-102.5 35.5 t-42.5 86.5zM494 1610q0 62 43.5 106.5t105.5 44.5q42 0 76.5 -22t52.5 -58q11 -20 37 -20q39 0 39 39q0 19 16 32t39 13t39 -13t16 -32q0 -65 -43.5 -108.5t-105.5 -43.5q-41 0 -76.5 21.5t-56.5 56.5q-12 23 -33 23q-16 0 -27.5 -10t-11.5 -29t-16 -32t-39 -13t-39 13 t-16 32z" />
<glyph unicode="&#xd2;" horiz-adv-x="1789" d="M1419 768q0 142 -70 262.5t-190.5 190t-263.5 69.5q-106 0 -203 -41t-167 -111t-111 -167t-41 -203q0 -143 69.5 -263.5t190 -190.5t262.5 -70q143 0 263.5 70t190.5 190.5t70 263.5zM1718 768q0 -223 -110.5 -408t-299 -290t-413.5 -105q-226 0 -414.5 105t-298.5 290 t-110 408t110 408t298.5 290t414.5 105q225 0 413.5 -105t299 -290t110.5 -408zM1047 1653l-259 67q-53 14 -57 70q-4 50 29 82q32 31 74 12l239 -121q26 -14 29.5 -44t-13.5 -52t-42 -14z" />
<glyph unicode="&#xd3;" horiz-adv-x="1789" d="M1419 768q0 142 -70 262.5t-190.5 190t-263.5 69.5q-106 0 -203 -41t-167 -111t-111 -167t-41 -203q0 -143 69.5 -263.5t190 -190.5t262.5 -70q143 0 263.5 70t190.5 190.5t70 263.5zM1718 768q0 -223 -110.5 -408t-299 -290t-413.5 -105q-226 0 -414.5 105t-298.5 290 t-110 408t110 408t298.5 290t414.5 105q225 0 413.5 -105t299 -290t110.5 -408zM1022 1720l-258 -67q-25 -8 -42.5 14t-14 52t29.5 44l240 121q49 22 82 -22q30 -40 18 -87q-11 -43 -55 -55z" />
<glyph unicode="&#xd4;" horiz-adv-x="1789" d="M1419 768q0 142 -70 262.5t-190.5 190t-263.5 69.5q-106 0 -203 -41t-167 -111t-111 -167t-41 -203q0 -143 69.5 -263.5t190 -190.5t262.5 -70q143 0 263.5 70t190.5 190.5t70 263.5zM1718 768q0 -223 -110.5 -408t-299 -290t-413.5 -105q-226 0 -414.5 105t-298.5 290 t-110 408t110 408t298.5 290t414.5 105q225 0 413.5 -105t299 -290t110.5 -408zM895 1743l-123 -115q-17 -15 -42.5 -12t-45.5 24q-18 22 -18 46.5t18 42.5l160 153q19 19 51 19q29 0 51 -19l158 -153q20 -15 19.5 -41t-19.5 -48q-18 -21 -43.5 -24t-42.5 12z" />
<glyph unicode="&#xd5;" horiz-adv-x="1789" d="M1419 768q0 142 -70 262.5t-190.5 190t-263.5 69.5q-106 0 -203 -41t-167 -111t-111 -167t-41 -203q0 -143 69.5 -263.5t190 -190.5t262.5 -70q143 0 263.5 70t190.5 190.5t70 263.5zM1718 768q0 -223 -110.5 -408t-299 -290t-413.5 -105q-226 0 -414.5 105t-298.5 290 t-110 408t110 408t298.5 290t414.5 105q225 0 413.5 -105t299 -290t110.5 -408zM662 1671q0 62 43.5 107t105.5 45q42 0 76.5 -22t52.5 -58q12 -21 37 -21q39 0 39 39q0 19 16 32t39 13t39 -13t16 -32q0 -65 -43.5 -108t-105.5 -43q-41 0 -76.5 21.5t-56.5 56.5 q-11 22 -33 22q-16 0 -27.5 -10t-11.5 -29t-16 -32t-39 -13t-39 13t-16 32z" />
<glyph unicode="&#xd6;" horiz-adv-x="1789" d="M797 1718q0 -43 -31 -73.5t-74 -30.5q-44 0 -75 30.5t-31 73.5t31 74t75 31q43 0 74 -31t31 -74zM1202 1718q0 -43 -31 -73.5t-75 -30.5q-42 0 -72.5 31t-30.5 73q0 43 31 74t72 31q44 0 75 -31t31 -74zM1419 768q0 142 -70 262.5t-190.5 190t-263.5 69.5 q-106 0 -203 -41t-167 -111t-111 -167t-41 -203q0 -143 69.5 -263.5t190 -190.5t262.5 -70q143 0 263.5 70t190.5 190.5t70 263.5zM1718 768q0 -223 -110.5 -408t-299 -290t-413.5 -105q-226 0 -414.5 105t-298.5 290t-110 408t110 408t298.5 290t414.5 105 q225 0 413.5 -105t299 -290t110.5 -408z" />
<glyph unicode="&#xd7;" horiz-adv-x="1351" d="M102 16q-31 31 -35 71t21 65l442 442l-440 440q-25 25 -21 64.5t33 70.5q31 29 71 33.5t65 -20.5l440 -441l438 439q26 25 65 21.5t70 -34.5t35 -70.5t-22 -64.5l-439 -438l439 -438q26 -26 22 -65.5t-35 -70.5t-70 -35t-65 21l-438 440l-442 -442q-25 -25 -65 -21 t-69 33z" />
<glyph unicode="&#xd8;" horiz-adv-x="1810" d="M397 637q15 -51 -14 -96.5t-90 -65.5q-58 -17 -107.5 5.5t-68.5 72.5q-35 98 -35 215q0 223 110 408t298.5 290t414.5 105q123 0 215 -33q50 -17 72.5 -64t5.5 -102q-20 -58 -65 -85t-97 -13q-69 16 -131 16q-107 0 -203.5 -41t-167 -111t-112 -167t-41.5 -203 q0 -62 16 -131zM1669 1384l-1380 -1380q-26 -25 -66 -21.5t-69 33.5q-31 29 -34.5 69.5t21.5 66.5l1381 1380q26 25 66 21.5t69 -33.5q30 -29 33.5 -69.5t-21.5 -66.5zM1413 899q-15 51 14.5 96.5t90.5 65.5q58 17 107.5 -5.5t68.5 -72.5q35 -98 35 -215q0 -167 -65 -316.5 t-175.5 -256t-262.5 -168.5t-321 -62q-123 0 -215 33q-50 17 -72.5 64t-5.5 102q20 58 65 85t97 13q69 -16 131 -16q142 0 263 69.5t191.5 190t70.5 262.5q0 58 -17 131z" />
<glyph unicode="&#xd9;" horiz-adv-x="1468" d="M123 1430q0 51 42.5 86.5t102.5 35.5t103 -35.5t43 -86.5v-895q0 -134 91 -215.5t230 -81.5t229.5 81.5t90.5 215.5v895q0 51 42.5 86.5t102.5 35.5t103 -35.5t43 -86.5v-895q0 -173 -79.5 -303.5t-217.5 -198.5t-314 -68q-270 0 -441 154.5t-171 415.5v895zM889 1612 l-258 67q-53 14 -57 70q-4 50 29 82q32 30 73 12l239 -121q26 -14 29.5 -44t-13.5 -52t-42 -14z" />
<glyph unicode="&#xda;" horiz-adv-x="1468" d="M123 1430q0 51 42.5 86.5t102.5 35.5t103 -35.5t43 -86.5v-895q0 -134 91 -215.5t230 -81.5t229.5 81.5t90.5 215.5v895q0 51 42.5 86.5t102.5 35.5t103 -35.5t43 -86.5v-895q0 -173 -79.5 -303.5t-217.5 -198.5t-314 -68q-270 0 -441 154.5t-171 415.5v895zM864 1679 l-258 -67q-25 -8 -42 14t-13.5 52t29.5 44l239 121q49 22 82 -22q30 -40 18 -87q-11 -43 -55 -55z" />
<glyph unicode="&#xdb;" horiz-adv-x="1468" d="M123 1430q0 51 42.5 86.5t102.5 35.5t103 -35.5t43 -86.5v-895q0 -134 91 -215.5t230 -81.5t229.5 81.5t90.5 215.5v895q0 51 42.5 86.5t102.5 35.5t103 -35.5t43 -86.5v-895q0 -173 -79.5 -303.5t-217.5 -198.5t-314 -68q-270 0 -441 154.5t-171 415.5v895zM735 1743 l-123 -115q-17 -15 -42.5 -12t-45.5 24q-18 22 -18 46.5t18 42.5l160 153q19 19 51 19q29 0 51 -19l158 -153q20 -15 19.5 -41t-19.5 -48q-18 -21 -43.5 -24t-42.5 12z" />
<glyph unicode="&#xdc;" horiz-adv-x="1468" d="M633 1718q0 -42 -30.5 -73t-72.5 -31q-44 0 -75 30.5t-31 73.5q0 44 31 74.5t75 30.5q42 0 72.5 -30.5t30.5 -74.5zM1040 1718q0 -43 -31 -73.5t-75 -30.5q-43 0 -74 30.5t-31 73.5q0 44 31 74.5t74 30.5q44 0 75 -30.5t31 -74.5zM123 1430q0 51 42.5 86.5t102.5 35.5 t103 -35.5t43 -86.5v-895q0 -134 91 -215.5t230 -81.5t229.5 81.5t90.5 215.5v895q0 51 42.5 86.5t102.5 35.5t103 -35.5t43 -86.5v-895q0 -173 -79.5 -303.5t-217.5 -198.5t-314 -68q-270 0 -441 154.5t-171 415.5v895z" />
<glyph unicode="&#xdd;" horiz-adv-x="1392" d="M829 1679l-258 -67q-25 -8 -42 14t-13.5 52t29.5 44l239 121q49 22 82 -22q30 -40 18 -87q-11 -43 -55 -55zM696 -16q-61 0 -103 35t-42 87v662q0 32 24 63l531 680q32 41 88.5 42.5t101.5 -35.5q48 -37 59.5 -91t-20.5 -96l-493 -633v-592q0 -52 -42.5 -87t-103.5 -35z M287 1511l270 -344q32 -40 20.5 -94.5t-59.5 -91.5q-46 -37 -102 -35.5t-88 41.5l-271 344q-32 42 -20.5 96t59.5 91q45 37 102 35.5t89 -42.5z" />
<glyph unicode="&#xde;" horiz-adv-x="1331" d="M414 106q0 -52 -42.5 -87t-103.5 -35t-103 35t-42 87v1324q0 51 42.5 86.5t102.5 35.5t103 -35.5t43 -86.5v-1324zM653 489q-49 0 -83.5 40.5t-34.5 99.5q0 58 34 98.5t84 40.5h176q63 0 106.5 43.5t43.5 103.5q0 63 -43.5 106.5t-106.5 43.5h-176q-50 0 -84 39.5 t-34 97.5q0 59 34.5 100t83.5 41h176q177 0 302.5 -125t125.5 -303q0 -175 -125.5 -300.5t-302.5 -125.5h-176z" />
<glyph unicode="&#xdf;" horiz-adv-x="1249" d="M727 1147q-5 61 -49.5 102t-108.5 41q-59 0 -104 -39.5t-51 -97.5v-1397q0 -51 -43 -87t-103 -36t-102.5 36t-42.5 87v1397q0 113 61.5 210t164.5 152.5t220 55.5q195 0 327 -116.5t132 -301.5q-6 -80 -52.5 -114.5t-113.5 -24.5q-59 7 -95.5 46.5t-39.5 86.5zM659 659 h-34q-49 0 -84 41.5t-35 98.5t35 98t84 41h34q143 0 257 -53t182.5 -161t68.5 -255t-68.5 -255t-182.5 -161t-257 -53h-34q-49 0 -84 41t-35 98t35 98.5t84 41.5h34q88 0 148.5 53t60.5 137t-60.5 137t-148.5 53z" />
<glyph unicode="&#xe0;" horiz-adv-x="1486" d="M864 1335l-258 68q-53 14 -57 70q-4 50 29 82q32 30 73 12l240 -121q26 -14 29.5 -44.5t-14 -52.5t-42.5 -14zM932 16q-87 -51 -254 -51q-163 0 -299.5 81.5t-216.5 226t-80 321.5q0 176 80 320t216.5 225.5t299.5 81.5q244 0 397 -207h4v65q0 51 41 87t101 36t101.5 -36 t41.5 -87v-973q0 -52 -41.5 -87t-101.5 -35t-101 35t-41 87v488q0 143 -101.5 245.5t-246.5 102.5q-144 0 -246 -102.5t-102 -245.5q0 -145 101.5 -247.5t246.5 -102.5q49 0 96 12q38 16 76 -7.5t62 -68.5q23 -46 13.5 -94t-46.5 -70z" />
<glyph unicode="&#xe1;" horiz-adv-x="1486" d="M840 1403l-258 -68q-25 -8 -42.5 14t-14 52.5t29.5 44.5l240 121q49 22 82 -22q30 -40 18 -87q-11 -43 -55 -55zM932 16q-87 -51 -254 -51q-163 0 -299.5 81.5t-216.5 226t-80 321.5q0 176 80 320t216.5 225.5t299.5 81.5q244 0 397 -207h4v65q0 51 41 87t101 36 t101.5 -36t41.5 -87v-973q0 -52 -41.5 -87t-101.5 -35t-101 35t-41 87v488q0 143 -101.5 245.5t-246.5 102.5q-144 0 -246 -102.5t-102 -245.5q0 -145 101.5 -247.5t246.5 -102.5q49 0 96 12q38 16 76 -7.5t62 -68.5q23 -46 13.5 -94t-46.5 -70z" />
<glyph unicode="&#xe2;" horiz-adv-x="1486" d="M696 1473l-123 -115q-17 -15 -42.5 -12t-45.5 24q-18 22 -18 46t18 42l160 154q18 18 51 18q31 0 52 -18l157 -154q20 -15 19.5 -40.5t-19.5 -47.5q-18 -21 -43.5 -24t-42.5 12zM932 16q-87 -51 -254 -51q-163 0 -299.5 81.5t-216.5 226t-80 321.5q0 176 80 320 t216.5 225.5t299.5 81.5q244 0 397 -207h4v65q0 51 41 87t101 36t101.5 -36t41.5 -87v-973q0 -52 -41.5 -87t-101.5 -35t-101 35t-41 87v488q0 143 -101.5 245.5t-246.5 102.5q-144 0 -246 -102.5t-102 -245.5q0 -145 101.5 -247.5t246.5 -102.5q49 0 96 12q38 16 76 -7.5 t62 -68.5q23 -46 13.5 -94t-46.5 -70z" />
<glyph unicode="&#xe3;" horiz-adv-x="1486" d="M473 1419q0 62 44 107t106 45q42 0 76.5 -22t52.5 -58q12 -21 36 -21q39 0 39 39q0 19 16.5 32t39.5 13t39 -13t16 -32q0 -65 -44 -108t-106 -43q-41 0 -76.5 21.5t-56.5 56.5q-11 22 -32 22q-16 0 -27.5 -10t-11.5 -29t-16.5 -32t-39.5 -13t-39 13t-16 32zM932 16 q-87 -51 -254 -51q-163 0 -299.5 81.5t-216.5 226t-80 321.5q0 176 80 320t216.5 225.5t299.5 81.5q244 0 397 -207h4v65q0 51 41 87t101 36t101.5 -36t41.5 -87v-973q0 -52 -41.5 -87t-101.5 -35t-101 35t-41 87v488q0 143 -101.5 245.5t-246.5 102.5q-144 0 -246 -102.5 t-102 -245.5q0 -145 101.5 -247.5t246.5 -102.5q49 0 96 12q38 16 76 -7.5t62 -68.5q23 -46 13.5 -94t-46.5 -70z" />
<glyph unicode="&#xe4;" horiz-adv-x="1486" d="M608 1466q0 -43 -29.5 -73.5t-72.5 -30.5q-44 0 -75.5 30.5t-31.5 73.5t31.5 74t75.5 31q42 0 72 -31t30 -74zM1016 1466q0 -43 -31.5 -73.5t-75.5 -30.5q-43 0 -72.5 30.5t-29.5 73.5t30 74t72 31q44 0 75.5 -31t31.5 -74zM932 16q-87 -51 -254 -51q-163 0 -299.5 81.5 t-216.5 226t-80 321.5q0 176 80 320t216.5 225.5t299.5 81.5q244 0 397 -207h4v65q0 51 41 87t101 36t101.5 -36t41.5 -87v-973q0 -52 -41.5 -87t-101.5 -35t-101 35t-41 87v488q0 143 -101.5 245.5t-246.5 102.5q-144 0 -246 -102.5t-102 -245.5q0 -145 101.5 -247.5 t246.5 -102.5q49 0 96 12q38 16 76 -7.5t62 -68.5q23 -46 13.5 -94t-46.5 -70z" />
<glyph unicode="&#xe5;" horiz-adv-x="1486" d="M766 1489q0 22 -15.5 37.5t-37.5 15.5q-25 0 -41.5 -15.5t-16.5 -37.5q0 -25 16.5 -41t41.5 -16q22 0 37.5 16.5t15.5 40.5zM862 1489q0 -63 -44.5 -108.5t-104.5 -45.5q-63 0 -108.5 45.5t-45.5 108.5q0 61 45.5 105t108.5 44q60 0 104.5 -44t44.5 -105zM932 16 q-87 -51 -254 -51q-163 0 -299.5 81.5t-216.5 226t-80 321.5q0 176 80 320t216.5 225.5t299.5 81.5q244 0 397 -207h4v65q0 51 41 87t101 36t101.5 -36t41.5 -87v-973q0 -52 -41.5 -87t-101.5 -35t-101 35t-41 87v488q0 143 -101.5 245.5t-246.5 102.5q-144 0 -246 -102.5 t-102 -245.5q0 -145 101.5 -247.5t246.5 -102.5q49 0 96 12q38 16 76 -7.5t62 -68.5q23 -46 13.5 -94t-46.5 -70z" />
<glyph unicode="&#xe6;" horiz-adv-x="2498" d="M1542 588q0 52 32 88.5t77 36.5h454q-37 107 -125 171t-200 64q-142 0 -244 -105.5t-102 -248.5q0 -147 104 -258t252 -111q80 0 164 28.5t137 76.5q30 34 80.5 33t89.5 -37q40 -34 48 -84t-21 -84q-93 -91 -225.5 -142t-272.5 -51q-129 0 -238 54.5t-188 150.5v-64 q0 -52 -41.5 -87t-101.5 -35t-101 35t-41 87v488q0 143 -101.5 245.5t-246.5 102.5q-144 0 -246 -102.5t-102 -245.5q0 -145 101.5 -247.5t246.5 -102.5q49 0 96 12q38 16 76 -7.5t62 -68.5q23 -46 13.5 -94t-46.5 -70q-87 -51 -254 -51q-163 0 -299.5 81.5t-216.5 226 t-80 321.5q0 176 80 320t216.5 225.5t299.5 81.5q244 0 397 -207h4v65q0 51 41 87t101 36t101.5 -36t41.5 -87v-65h4q78 96 183.5 151.5t228.5 55.5q103 0 200 -31.5t175.5 -89t137.5 -134.5t91.5 -173t32.5 -199q0 -52 -43.5 -92.5t-102.5 -40.5h-620q-44 0 -76.5 37.5 t-32.5 89.5z" />
<glyph unicode="&#xe7;" horiz-adv-x="1255" d="M954 328q35 35 90 29.5t95 -46.5q43 -43 46 -96.5t-40 -93.5q-180 -156 -414 -156q-27 0 -41 2l-6 -45q18 10 61 10q80 0 126.5 -48.5t46.5 -123.5q0 -76 -55 -127t-132 -51q-64 0 -111.5 35t-62.5 92q-6 20 5.5 36t31.5 19q18 4 34 -4.5t19 -23.5q9 -28 32 -45t52 -17 q36 0 61 25t25 61q0 35 -25.5 60.5t-60.5 25.5q-26 0 -51 -18q-28 -20 -53 -12q-21 3 -34.5 19t-10.5 34l18 108q-225 42 -371.5 213.5t-146.5 403.5q0 176 87 320t235.5 225.5t326.5 81.5q243 0 414 -154q43 -41 40.5 -93t-46.5 -97q-40 -41 -95 -46.5t-90 29.5 q-95 82 -223 82q-144 0 -246 -102.5t-102 -245.5t102 -245.5t246 -102.5q128 0 223 82z" />
<glyph unicode="&#xe8;" horiz-adv-x="1447" d="M877 1335l-259 68q-53 14 -57 70q-4 50 29 82q32 31 74 12l239 -121q26 -14 29.5 -44.5t-13.5 -52.5t-42 -14zM492 588q0 52 31.5 88.5t76.5 36.5h455q-37 107 -125.5 171t-200.5 64q-142 0 -244 -105.5t-102 -248.5q0 -147 104 -258t252 -111q80 0 164 28.5t137 76.5 q30 34 80.5 33t89.5 -37q40 -34 48 -84t-21 -84q-93 -91 -225.5 -142t-272.5 -51q-182 0 -332.5 81.5t-237.5 226t-87 321.5q0 176 86.5 320t235 225.5t325.5 81.5q103 0 200 -31.5t175.5 -89t137.5 -134.5t91.5 -173t32.5 -199q0 -52 -43 -92.5t-102 -40.5h-621 q-44 0 -76 37.5t-32 89.5z" />
<glyph unicode="&#xe9;" horiz-adv-x="1447" d="M852 1403l-258 -68q-25 -8 -42.5 14t-14 52.5t29.5 44.5l240 121q49 22 82 -22q30 -40 18 -87q-11 -43 -55 -55zM492 588q0 52 31.5 88.5t76.5 36.5h455q-37 107 -125.5 171t-200.5 64q-142 0 -244 -105.5t-102 -248.5q0 -147 104 -258t252 -111q80 0 164 28.5t137 76.5 q30 34 80.5 33t89.5 -37q40 -34 48 -84t-21 -84q-93 -91 -225.5 -142t-272.5 -51q-182 0 -332.5 81.5t-237.5 226t-87 321.5q0 176 86.5 320t235 225.5t325.5 81.5q103 0 200 -31.5t175.5 -89t137.5 -134.5t91.5 -173t32.5 -199q0 -52 -43 -92.5t-102 -40.5h-621 q-44 0 -76 37.5t-32 89.5z" />
<glyph unicode="&#xea;" horiz-adv-x="1447" d="M821 1368l-88 127h-8l-88 -127q-12 -19 -35 -22.5t-45 8.5q-23 13 -32.5 36t1.5 40l123 157q31 40 80 40t80 -40l123 -157q11 -17 1.5 -40t-32.5 -36q-22 -12 -45 -8.5t-35 22.5zM492 588q0 52 31.5 88.5t76.5 36.5h455q-37 107 -125.5 171t-200.5 64q-142 0 -244 -105.5 t-102 -248.5q0 -147 104 -258t252 -111q80 0 164 28.5t137 76.5q30 34 80.5 33t89.5 -37q40 -34 48 -84t-21 -84q-93 -91 -225.5 -142t-272.5 -51q-182 0 -332.5 81.5t-237.5 226t-87 321.5q0 176 86.5 320t235 225.5t325.5 81.5q103 0 200 -31.5t175.5 -89t137.5 -134.5 t91.5 -173t32.5 -199q0 -52 -43 -92.5t-102 -40.5h-621q-44 0 -76 37.5t-32 89.5z" />
<glyph unicode="&#xeb;" horiz-adv-x="1447" d="M631 1466q0 -42 -30.5 -73t-72.5 -31q-44 0 -75 30.5t-31 73.5t31 74t75 31q41 0 72 -31t31 -74zM1038 1466q0 -43 -31 -73.5t-75 -30.5q-43 0 -74 30.5t-31 73.5t31 74t74 31q44 0 75 -31t31 -74zM492 588q0 52 31.5 88.5t76.5 36.5h455q-37 107 -125.5 171t-200.5 64 q-142 0 -244 -105.5t-102 -248.5q0 -147 104 -258t252 -111q80 0 164 28.5t137 76.5q30 34 80.5 33t89.5 -37q40 -34 48 -84t-21 -84q-93 -91 -225.5 -142t-272.5 -51q-182 0 -332.5 81.5t-237.5 226t-87 321.5q0 176 86.5 320t235 225.5t325.5 81.5q103 0 200 -31.5 t175.5 -89t137.5 -134.5t91.5 -173t32.5 -199q0 -52 -43 -92.5t-102 -40.5h-621q-44 0 -76 37.5t-32 89.5z" />
<glyph unicode="&#xec;" horiz-adv-x="532" d="M123 106v973q0 51 41.5 87t101.5 36t102 -36t42 -87v-973q0 -51 -42 -86.5t-102 -35.5t-101.5 35.5t-41.5 86.5zM397 1335l-258 68q-53 14 -57 70q-4 50 29 82q32 30 73 12l240 -121q26 -14 29.5 -44.5t-14 -52.5t-42.5 -14z" />
<glyph unicode="&#xed;" horiz-adv-x="532" d="M123 106v973q0 51 41.5 87t101.5 36t102 -36t42 -87v-973q0 -51 -42 -86.5t-102 -35.5t-101.5 35.5t-41.5 86.5zM395 1403l-258 -68q-25 -8 -42 14t-13.5 52.5t29.5 44.5l239 121q49 22 82 -22q30 -40 18 -87q-11 -43 -55 -55z" />
<glyph unicode="&#xee;" horiz-adv-x="532" d="M123 106v973q0 51 41.5 87t101.5 36t102 -36t42 -87v-973q0 -51 -42 -86.5t-102 -35.5t-101.5 35.5t-41.5 86.5zM266 1473l-123 -115q-17 -15 -42.5 -12t-45.5 24q-18 22 -18 46t18 42l160 154q18 18 51 18q30 0 51 -18l158 -154q20 -15 19.5 -40.5t-19.5 -47.5 q-18 -21 -43.5 -24t-42.5 12z" />
<glyph unicode="&#xef;" horiz-adv-x="532" d="M176 1466q0 -43 -30.5 -73.5t-71.5 -30.5q-44 0 -75.5 30.5t-31.5 73.5t31.5 74t75.5 31q41 0 71.5 -31t30.5 -74zM559 1466q0 -43 -30.5 -73.5t-73.5 -30.5t-74 30.5t-31 73.5t31 74t74 31t73.5 -31t30.5 -74zM123 106v973q0 51 41.5 87t101.5 36t102 -36t42 -87v-973 q0 -51 -42 -86.5t-102 -35.5t-101.5 35.5t-41.5 86.5z" />
<glyph unicode="&#xf0;" horiz-adv-x="1384" d="M215 1223q-6 21 3.5 40t29.5 25l110 31q-35 35 -30.5 90t47.5 98q41 41 96 45.5t92 -30.5l111 -113l155 45q21 5 39.5 -6.5t24.5 -32.5q6 -20 -4.5 -38.5t-30.5 -24.5l-98 -29l368 -369q82 -82 128.5 -186t46.5 -217q0 -153 -82 -288.5t-223.5 -216.5t-305.5 -81 q-123 0 -236.5 48t-195 128t-130 187.5t-48.5 222.5q0 144 74 273t200 212q40 25 90 8.5t82 -65.5t28 -101.5t-44 -78.5q-59 -43 -94 -110t-35 -138q0 -122 91.5 -215.5t217.5 -93.5t217.5 93.5t91.5 215.5q0 118 -88 213l-469 471l-165 -47q-22 -6 -41 4t-23 31z" />
<glyph unicode="&#xf1;" d="M485 1419q0 62 44 107t106 45q42 0 76.5 -22t52.5 -58q12 -21 37 -21q39 0 39 39q0 19 16 32t39 13t39 -13t16 -32q0 -65 -43.5 -108t-105.5 -43q-41 0 -76.5 21.5t-56.5 56.5q-11 22 -33 22q-16 0 -27.5 -10t-11.5 -29t-16 -32t-39 -13t-39.5 13t-16.5 32zM410 1079 v-973q0 -51 -42 -86.5t-102 -35.5t-101.5 35.5t-41.5 86.5v973q0 51 41.5 87t101.5 36t102 -36t42 -87zM932 106v574q0 125 -68.5 200t-191.5 62l-39 -4q-41 -5 -76.5 26t-44.5 80q-10 51 10 91.5t62 54.5q76 31 176 31q207 0 333 -139t126 -365v-611q0 -51 -42 -86.5 t-102 -35.5t-101.5 35.5t-41.5 86.5z" />
<glyph unicode="&#xf2;" horiz-adv-x="1460" d="M1079 594q0 143 -102 245.5t-248 102.5q-142 0 -244 -102.5t-102 -245.5q0 -145 101.5 -247.5t244.5 -102.5q146 0 248 102.5t102 247.5zM1378 594q0 -177 -87 -321.5t-235.5 -226t-326.5 -81.5q-177 0 -325.5 81.5t-235 226t-86.5 321.5q0 176 86.5 320t235 225.5 t325.5 81.5q178 0 326.5 -81.5t235.5 -225.5t87 -320zM885 1335l-258 68q-53 14 -57 70q-4 50 29 82q32 30 73 12l239 -121q26 -14 29.5 -44.5t-13.5 -52.5t-42 -14z" />
<glyph unicode="&#xf3;" horiz-adv-x="1460" d="M1079 594q0 143 -102 245.5t-248 102.5q-142 0 -244 -102.5t-102 -245.5q0 -145 101.5 -247.5t244.5 -102.5q146 0 248 102.5t102 247.5zM1378 594q0 -177 -87 -321.5t-235.5 -226t-326.5 -81.5q-177 0 -325.5 81.5t-235 226t-86.5 321.5q0 176 86.5 320t235 225.5 t325.5 81.5q178 0 326.5 -81.5t235.5 -225.5t87 -320zM860 1403l-258 -68q-25 -8 -42.5 14t-14 52.5t29.5 44.5l240 121q49 22 82 -22q30 -40 18 -87q-11 -43 -55 -55z" />
<glyph unicode="&#xf4;" horiz-adv-x="1460" d="M1079 594q0 143 -102 245.5t-248 102.5q-142 0 -244 -102.5t-102 -245.5q0 -145 101.5 -247.5t244.5 -102.5q146 0 248 102.5t102 247.5zM1378 594q0 -177 -87 -321.5t-235.5 -226t-326.5 -81.5q-177 0 -325.5 81.5t-235 226t-86.5 321.5q0 176 86.5 320t235 225.5 t325.5 81.5q178 0 326.5 -81.5t235.5 -225.5t87 -320zM729 1473l-123 -115q-17 -15 -42.5 -12t-45.5 24q-18 22 -18 46t18 42l160 154q18 18 51 18q30 0 51 -18l158 -154q20 -15 19.5 -40.5t-19.5 -47.5q-18 -21 -43.5 -24t-42.5 12z" />
<glyph unicode="&#xf5;" horiz-adv-x="1460" d="M1079 594q0 143 -102 245.5t-248 102.5q-142 0 -244 -102.5t-102 -245.5q0 -145 101.5 -247.5t244.5 -102.5q146 0 248 102.5t102 247.5zM1378 594q0 -177 -87 -321.5t-235.5 -226t-326.5 -81.5q-177 0 -325.5 81.5t-235 226t-86.5 321.5q0 176 86.5 320t235 225.5 t325.5 81.5q178 0 326.5 -81.5t235.5 -225.5t87 -320zM498 1419q0 62 43.5 107t105.5 45q42 0 76.5 -22t52.5 -58q12 -21 37 -21q39 0 39 39q0 19 16 32t39 13t39.5 -13t16.5 -32q0 -65 -44 -108t-106 -43q-41 0 -76.5 21.5t-56.5 56.5q-11 22 -33 22q-16 0 -27.5 -10 t-11.5 -29t-16 -32t-39 -13t-39 13t-16 32z" />
<glyph unicode="&#xf6;" horiz-adv-x="1460" d="M631 1466q0 -42 -30.5 -73t-72.5 -31q-44 0 -75 30.5t-31 73.5t31 74t75 31q41 0 72 -31t31 -74zM1038 1466q0 -43 -31 -73.5t-75 -30.5q-43 0 -74 30.5t-31 73.5t31 74t74 31q44 0 75 -31t31 -74zM1079 594q0 143 -102 245.5t-248 102.5q-142 0 -244 -102.5t-102 -245.5 q0 -145 101.5 -247.5t244.5 -102.5q146 0 248 102.5t102 247.5zM1378 594q0 -177 -87 -321.5t-235.5 -226t-326.5 -81.5q-177 0 -325.5 81.5t-235 226t-86.5 321.5q0 176 86.5 320t235 225.5t325.5 81.5q178 0 326.5 -81.5t235.5 -225.5t87 -320z" />
<glyph unicode="&#xf7;" horiz-adv-x="1390" d="M836 123q0 -59 -41 -99t-101 -40q-57 0 -97 40.5t-40 98.5t40 98.5t97 40.5q60 0 101 -40t41 -99zM557 1061q0 60 40 100.5t97 40.5q60 0 101 -40.5t41 -100.5q0 -57 -41 -97t-101 -40q-57 0 -97 40t-40 97zM86 592q0 43 25.5 73.5t60.5 30.5h1049q35 0 60.5 -30.5 t25.5 -73.5t-25.5 -74t-60.5 -31h-1049q-35 0 -60.5 31t-25.5 74z" />
<glyph unicode="&#xf8;" horiz-adv-x="1476" d="M1327 1034l-1030 -1030q-26 -25 -66 -21.5t-69 33.5q-30 29 -33.5 69.5t21.5 66.5l1030 1030q26 25 66 21.5t69 -34.5q30 -29 33.5 -69t-21.5 -66zM262 432q-69 -8 -116 20.5t-54 88.5q-2 18 -2 53q0 176 86.5 320t235 225.5t325.5 81.5q36 0 54 -2q60 -6 88 -49t20 -107 q-9 -58 -53 -92.5t-109 -28.5q-142 0 -244 -102.5t-102 -245.5q4 -65 -31.5 -109t-97.5 -53zM1214 754q69 8 116 -20.5t54 -88.5q2 -18 2 -53q0 -176 -86.5 -320t-235 -225.5t-325.5 -81.5q-35 0 -53 2q-60 6 -88 49t-20 107q9 58 52.5 92.5t108.5 28.5q142 0 244 102.5 t102 245.5q-4 65 31.5 109t97.5 53z" />
<glyph unicode="&#xf9;" d="M815 1335l-258 68q-53 14 -57 70q-4 50 29 82q32 30 73 12l240 -121q26 -14 29.5 -44.5t-14 -52.5t-42.5 -14zM932 106v973q0 51 41.5 87t101.5 36t102 -36t42 -87v-973q0 -51 -42 -86.5t-102 -35.5t-101.5 35.5t-41.5 86.5zM410 1079v-573q0 -125 68.5 -200t191.5 -62 l39 4q41 5 76 -26.5t44 -80.5q10 -51 -10 -91t-61 -54q-76 -31 -176 -31q-207 0 -333 139t-126 365v610q0 51 41.5 87t101.5 36t102 -36t42 -87z" />
<glyph unicode="&#xfa;" d="M791 1403l-259 -68q-25 -8 -42 14t-13.5 52.5t29.5 44.5l239 121q49 22 82 -22q31 -40 19 -87q-11 -43 -55 -55zM932 106v973q0 51 41.5 87t101.5 36t102 -36t42 -87v-973q0 -51 -42 -86.5t-102 -35.5t-101.5 35.5t-41.5 86.5zM410 1079v-573q0 -125 68.5 -200t191.5 -62 l39 4q41 5 76 -26.5t44 -80.5q10 -51 -10 -91t-61 -54q-76 -31 -176 -31q-207 0 -333 139t-126 365v610q0 51 41.5 87t101.5 36t102 -36t42 -87z" />
<glyph unicode="&#xfb;" d="M668 1473l-123 -115q-17 -15 -42.5 -12t-45.5 24q-18 22 -18 46t18 42l159 154q18 18 52 18q30 0 51 -18l158 -154q20 -15 19.5 -40.5t-19.5 -47.5q-18 -21 -43.5 -24t-42.5 12zM932 106v973q0 51 41.5 87t101.5 36t102 -36t42 -87v-973q0 -51 -42 -86.5t-102 -35.5 t-101.5 35.5t-41.5 86.5zM410 1079v-573q0 -125 68.5 -200t191.5 -62l39 4q41 5 76 -26.5t44 -80.5q10 -51 -10 -91t-61 -54q-76 -31 -176 -31q-207 0 -333 139t-126 365v610q0 51 41.5 87t101.5 36t102 -36t42 -87z" />
<glyph unicode="&#xfc;" d="M571 1466q0 -43 -30.5 -73.5t-71.5 -30.5q-44 0 -75.5 30.5t-31.5 73.5t31.5 74t75.5 31q41 0 71.5 -31t30.5 -74zM979 1466q0 -43 -31.5 -73.5t-75.5 -30.5q-43 0 -73.5 30.5t-30.5 73.5t30.5 74t73.5 31q44 0 75.5 -31t31.5 -74zM932 106v973q0 51 41.5 87t101.5 36 t102 -36t42 -87v-973q0 -51 -42 -86.5t-102 -35.5t-101.5 35.5t-41.5 86.5zM410 1079v-573q0 -125 68.5 -200t191.5 -62l39 4q41 5 76 -26.5t44 -80.5q10 -51 -10 -91t-61 -54q-76 -31 -176 -31q-207 0 -333 139t-126 365v610q0 51 41.5 87t101.5 36t102 -36t42 -87z" />
<glyph unicode="&#xfd;" horiz-adv-x="1249" d="M756 1403l-258 -68q-25 -8 -42.5 14t-14 52.5t29.5 44.5l240 121q49 22 82 -22q30 -40 18 -87q-11 -43 -55 -55zM418 -352q-54 25 -77 75.5t-1 96.5l614 1315q22 46 75.5 61.5t107.5 -10.5q54 -25 76.5 -75.5t0.5 -96.5l-614 -1315q-22 -46 -75 -61.5t-107 10.5zM473 414 q-54 -26 -107 -10.5t-75 61.5l-256 549q-22 46 1 96.5t77 75.5q54 26 107 10.5t75 -61.5l256 -549q22 -46 -1 -96.5t-77 -75.5z" />
<glyph unicode="&#xfe;" horiz-adv-x="1488" d="M555 1169q89 52 254 52q163 0 300 -81.5t217.5 -226.5t80.5 -321t-80.5 -320t-217.5 -225.5t-300 -81.5q-244 0 -397 207h-4v-416q0 -51 -41 -87t-101 -36t-101.5 36t-41.5 87v1674q0 52 41.5 87t101.5 35t101 -35t41 -87v-838q0 -143 101.5 -245.5t246.5 -102.5 q144 0 247 102.5t103 245.5q0 145 -102.5 247.5t-247.5 102.5q-50 0 -97 -12q-37 -16 -75 7.5t-62 68.5q-23 46 -13.5 93.5t46.5 69.5z" />
<glyph unicode="&#xff;" horiz-adv-x="1249" d="M936 1446q0 -43 -31.5 -74t-75.5 -31q-43 0 -73.5 31t-30.5 74t30.5 73.5t73.5 30.5q44 0 75.5 -30.5t31.5 -73.5zM528 1446q0 -43 -30.5 -74t-71.5 -31q-44 0 -75.5 31t-31.5 74t31.5 73.5t75.5 30.5q41 0 71.5 -30.5t30.5 -73.5zM418 -352q-54 25 -77 75.5t-1 96.5 l614 1315q22 46 75.5 61.5t107.5 -10.5q54 -25 76.5 -75.5t0.5 -96.5l-614 -1315q-22 -46 -75 -61.5t-107 10.5zM473 414q-54 -26 -107 -10.5t-75 61.5l-256 549q-22 46 1 96.5t77 75.5q54 26 107 10.5t75 -61.5l256 -549q22 -46 -1 -96.5t-77 -75.5z" />
<glyph unicode="&#x152;" horiz-adv-x="2519" d="M1042 258q53 13 98.5 -16t59.5 -84q15 -58 -7.5 -108.5t-72.5 -59.5q-103 -25 -225 -25q-226 0 -414.5 105t-298.5 290t-110 408t110 408t298.5 290t414.5 105q139 0 233 -34t183 -101q9 43 49 71.5t94 28.5h877q51 0 87 -41.5t36 -99.5t-36 -99t-87 -41h-732v-102 q0 -51 -42.5 -87t-102.5 -36q-39 0 -72.5 16.5t-52.5 43.5q-72 91 -190 145.5t-244 54.5q-106 0 -203 -41t-167 -111t-111 -167t-41 -203q0 -143 69.5 -263.5t190 -190.5t262.5 -70q90 0 147 14zM1309 123v663q0 51 42.5 87t102.5 36h735q51 0 87 -41.5t36 -99.5t-36 -98.5 t-87 -40.5h-590v-350h732q51 0 87 -41t36 -99t-36 -98.5t-87 -40.5h-877q-60 0 -102.5 36t-42.5 87z" />
<glyph unicode="&#x153;" horiz-adv-x="2443" d="M905 291q45 20 94.5 -2t75.5 -76q26 -52 12.5 -106.5t-59.5 -73.5q-156 -68 -299 -68q-177 0 -325.5 81.5t-235 226t-86.5 321.5q0 176 86.5 320t235 225.5t325.5 81.5q148 0 277.5 -59t220.5 -163q91 105 220 163.5t277 58.5q103 0 200 -31.5t175.5 -89t137.5 -134.5 t91.5 -173t32.5 -199q0 -52 -43 -92.5t-102 -40.5h-621q-44 0 -76 37.5t-32 89.5t31.5 88.5t76.5 36.5h455q-37 107 -125.5 171t-200.5 64q-142 0 -244 -105.5t-102 -248.5q0 -147 104.5 -258t252.5 -111q80 0 164 28.5t137 76.5q30 34 80.5 33t89.5 -37q40 -34 47.5 -84 t-21.5 -84q-93 -91 -225.5 -142t-271.5 -51q-182 0 -332.5 81.5t-237 226t-86.5 321.5q0 143 -102 245.5t-248 102.5q-142 0 -244 -102.5t-102 -245.5q0 -145 101.5 -247.5t244.5 -102.5q90 0 176 47z" />
<glyph unicode="&#x178;" horiz-adv-x="1392" d="M596 1718q0 -43 -30.5 -73.5t-71.5 -30.5q-44 0 -75.5 30.5t-31.5 73.5q0 44 31.5 74.5t75.5 30.5q42 0 72 -30.5t30 -74.5zM1001 1718q0 -43 -30 -73.5t-74 -30.5q-43 0 -73.5 30.5t-30.5 73.5q0 44 30.5 74.5t73.5 30.5q44 0 74 -30.5t30 -74.5zM696 -16q-61 0 -103 35 t-42 87v662q0 32 24 63l531 680q32 41 88.5 42.5t101.5 -35.5q48 -37 59.5 -91t-20.5 -96l-493 -633v-592q0 -52 -42.5 -87t-103.5 -35zM287 1511l270 -344q32 -40 20.5 -94.5t-59.5 -91.5q-46 -37 -102 -35.5t-88 41.5l-271 344q-32 42 -20.5 96t59.5 91q45 37 102 35.5 t89 -42.5z" />
<glyph unicode="&#x2c6;" horiz-adv-x="868" d="M434 1473l-123 -115q-17 -15 -42.5 -12t-45.5 24q-18 22 -18 46t18 42l160 154q18 18 51 18q30 0 51 -18l158 -154q20 -15 19.5 -40.5t-19.5 -47.5q-18 -21 -43.5 -24t-42.5 12z" />
<glyph unicode="&#x2dc;" horiz-adv-x="874" d="M205 1419q0 62 43.5 107t105.5 45q42 0 76.5 -22t52.5 -58q12 -21 37 -21q39 0 39 39q0 19 16 32t39 13t39.5 -13t16.5 -32q0 -65 -44 -108t-106 -43q-41 0 -76.5 21.5t-56.5 56.5q-11 22 -33 22q-16 0 -27.5 -10t-11.5 -29t-16 -32t-39 -13t-39 13t-16 32z" />
<glyph unicode="&#x2000;" horiz-adv-x="950" />
<glyph unicode="&#x2001;" horiz-adv-x="1901" />
<glyph unicode="&#x2002;" horiz-adv-x="950" />
<glyph unicode="&#x2003;" horiz-adv-x="1901" />
<glyph unicode="&#x2004;" horiz-adv-x="633" />
<glyph unicode="&#x2005;" horiz-adv-x="475" />
<glyph unicode="&#x2006;" horiz-adv-x="316" />
<glyph unicode="&#x2007;" horiz-adv-x="316" />
<glyph unicode="&#x2008;" horiz-adv-x="237" />
<glyph unicode="&#x2009;" horiz-adv-x="380" />
<glyph unicode="&#x200a;" horiz-adv-x="105" />
<glyph unicode="&#x2010;" horiz-adv-x="952" d="M127 592q0 43 25.5 73.5t60.5 30.5h528q35 0 60.5 -30.5t25.5 -73.5t-25.5 -74t-60.5 -31h-528q-35 0 -60.5 31t-25.5 74z" />
<glyph unicode="&#x2011;" horiz-adv-x="952" d="M127 592q0 43 25.5 73.5t60.5 30.5h528q35 0 60.5 -30.5t25.5 -73.5t-25.5 -74t-60.5 -31h-528q-35 0 -60.5 31t-25.5 74z" />
<glyph unicode="&#x2012;" horiz-adv-x="952" d="M127 592q0 43 25.5 73.5t60.5 30.5h528q35 0 60.5 -30.5t25.5 -73.5t-25.5 -74t-60.5 -31h-528q-35 0 -60.5 31t-25.5 74z" />
<glyph unicode="&#x2013;" horiz-adv-x="1267" d="M76 592q0 43 25.5 73.5t60.5 30.5h960q35 0 60.5 -30.5t25.5 -73.5t-25.5 -74t-60.5 -31h-960q-35 0 -60.5 31t-25.5 74z" />
<glyph unicode="&#x2014;" horiz-adv-x="1861" d="M76 592q0 43 25.5 73.5t60.5 30.5h1552q35 0 60.5 -30.5t25.5 -73.5t-25.5 -74t-60.5 -31h-1552q-35 0 -60.5 31t-25.5 74z" />
<glyph unicode="&#x2018;" horiz-adv-x="479" d="M397 1489q0 -26 -17 -44t-42 -18q-45 0 -74.5 -30.5t-30.5 -79.5q10 4 27 4q64 0 111 -46.5t47 -111.5q0 -64 -46.5 -110.5t-111.5 -46.5t-111.5 46.5t-46.5 110.5v152q0 98 68.5 167.5t167.5 69.5q25 0 42 -18.5t17 -44.5z" />
<glyph unicode="&#x2019;" horiz-adv-x="479" d="M82 1069q0 26 17 43.5t42 17.5q45 0 74.5 31t30.5 80q-10 -4 -27 -4q-65 0 -111.5 46.5t-46.5 111.5q0 64 46.5 110.5t111.5 46.5t111.5 -46.5t46.5 -110.5v-152q0 -98 -68.5 -167.5t-167.5 -69.5q-25 0 -42 18.5t-17 44.5z" />
<glyph unicode="&#x201a;" horiz-adv-x="479" d="M123 -184q0 26 17 43.5t42 17.5q45 0 74.5 31t30.5 80q-10 -4 -27 -4q-65 0 -111.5 46.5t-46.5 110.5q0 65 47 111.5t111 46.5t111 -46.5t47 -111.5v-151q0 -98 -68.5 -168t-167.5 -70q-25 0 -42 19t-17 45z" />
<glyph unicode="&#x201c;" horiz-adv-x="856" d="M397 1489q0 -26 -17 -44t-42 -18q-45 0 -74.5 -30.5t-30.5 -79.5q10 4 27 4q64 0 111 -46.5t47 -111.5q0 -64 -46.5 -110.5t-111.5 -46.5t-111.5 46.5t-46.5 110.5v152q0 98 68.5 167.5t167.5 69.5q25 0 42 -18.5t17 -44.5zM774 1489q0 -26 -17 -44t-42 -18 q-45 0 -74.5 -30.5t-30.5 -79.5q10 4 27 4q65 0 111.5 -46.5t46.5 -111.5q0 -64 -46.5 -110.5t-111.5 -46.5t-111.5 46.5t-46.5 110.5v152q0 98 68.5 167.5t167.5 69.5q25 0 42 -18.5t17 -44.5z" />
<glyph unicode="&#x201d;" horiz-adv-x="856" d="M459 1069q0 26 17 43.5t42 17.5q45 0 74.5 31t30.5 80q-10 -4 -27 -4q-64 0 -111 46.5t-47 111.5q0 64 46.5 110.5t111.5 46.5t111.5 -46.5t46.5 -110.5v-152q0 -98 -68.5 -167.5t-167.5 -69.5q-25 0 -42 18.5t-17 44.5zM82 1069q0 26 17 43.5t42 17.5q45 0 74.5 31 t30.5 80q-10 -4 -27 -4q-65 0 -111.5 46.5t-46.5 111.5q0 64 46.5 110.5t111.5 46.5t111.5 -46.5t46.5 -110.5v-152q0 -98 -68.5 -167.5t-167.5 -69.5q-25 0 -42 18.5t-17 44.5z" />
<glyph unicode="&#x201e;" horiz-adv-x="856" d="M82 -184q0 26 17 43.5t42 17.5q45 0 74.5 31t30.5 80q-10 -4 -27 -4q-65 0 -111.5 46.5t-46.5 110.5q0 65 46.5 111.5t111.5 46.5t111.5 -46.5t46.5 -111.5v-151q0 -98 -68.5 -168t-167.5 -70q-25 0 -42 19t-17 45zM459 -184q0 26 17 43.5t42 17.5q45 0 74.5 31t30.5 80 q-10 -4 -27 -4q-65 0 -111.5 46.5t-46.5 110.5q0 65 47 111.5t111 46.5t111 -46.5t47 -111.5v-151q0 -98 -68.5 -168t-167.5 -70q-25 0 -42 19t-17 45z" />
<glyph unicode="&#x2022;" horiz-adv-x="899" d="M451 350q-101 0 -173.5 71.5t-72.5 172.5t72.5 172.5t173.5 71.5q100 0 171.5 -71.5t71.5 -172.5t-71.5 -172.5t-171.5 -71.5z" />
<glyph unicode="&#x2026;" horiz-adv-x="2037" d="M1653 141q0 65 45.5 111.5t111.5 46.5q65 0 110.5 -46.5t45.5 -111.5t-45 -111t-111 -46t-111.5 46t-45.5 111zM862 141q0 65 47 111.5t111 46.5t111 -46.5t47 -111.5q0 -64 -46.5 -110.5t-111.5 -46.5t-111.5 46.5t-46.5 110.5zM72 141q0 65 46.5 111.5t110.5 46.5 q65 0 111.5 -46.5t46.5 -111.5q0 -64 -46.5 -110.5t-111.5 -46.5t-111 46t-46 111z" />
<glyph unicode="&#x202f;" horiz-adv-x="380" />
<glyph unicode="&#x2039;" horiz-adv-x="636" d="M90 662l305 305q25 26 65 22t72 -35q30 -31 33.5 -70.5t-22.5 -66.5l-224 -223l228 -232q26 -25 23 -64t-31 -69q-31 -29 -69.5 -31.5t-63.5 23.5l-304 303q-31 31 -34.5 71.5t22.5 66.5z" />
<glyph unicode="&#x203a;" horiz-adv-x="636" d="M242 967l305 -305q26 -26 22.5 -66.5t-34.5 -71.5l-304 -303q-25 -26 -63.5 -23.5t-69.5 31.5q-28 30 -31 69t23 64l227 232l-223 223q-26 27 -23 66.5t33 70.5q32 31 72.5 35t65.5 -22z" />
<glyph unicode="&#x205f;" horiz-adv-x="475" />
<glyph unicode="&#x20ac;" horiz-adv-x="1466" d="M469 819h-338q-32 0 -54 25.5t-22 62.5t22 62.5t54 25.5h123q61 260 227 418t412 158q157 0 267 -64.5t208 -195.5q20 -33 16 -64.5t-21 -60.5t-46.5 -47.5t-60 -26.5t-62 2.5t-53.5 40.5q-101 135 -248 135q-139 0 -242.5 -116.5t-103.5 -266.5q0 -37 -23 -62.5 t-55 -25.5zM729 995h457q32 0 55 -25.5t23 -62.5t-23 -62.5t-55 -25.5h-457q-32 0 -55 25.5t-23 62.5t23 62.5t55 25.5zM131 717h338q32 0 55 -25.5t23 -62.5q0 -150 103.5 -266.5t242.5 -116.5q147 0 248 135q22 30 53.5 40.5t62 2.5t60 -26.5t46.5 -47.5t21 -60.5 t-16 -64.5q-98 -131 -208 -195.5t-267 -64.5q-246 0 -412 158t-227 418h-123q-32 0 -54 25.5t-22 62.5t22 62.5t54 25.5zM1022 541h-293q-32 0 -55 25.5t-23 62.5t23 62.5t55 25.5h293q32 0 55 -25.5t23 -62.5t-23 -62.5t-55 -25.5z" />
<glyph unicode="&#x2122;" horiz-adv-x="743" d="M662 1536v-307h-58v168h-2l-65 -168h-58l-67 168h-2v-168h-56v307h56l96 -231h4l94 231h58zM82 1536h240v-57h-91v-250h-57v250h-92v57z" />
<glyph unicode="&#x25fc;" horiz-adv-x="1198" d="M0 1198h1198v-1198h-1198v1198z" />
<glyph unicode="&#xfb01;" horiz-adv-x="1304" d="M895 106v826h-754q-44 0 -76 37.5t-32 89.5t32 89.5t76 37.5h35v55q0 142 104.5 236t251.5 94q129 0 232 -90q35 -29 36.5 -82t-30.5 -94q-36 -43 -87 -48.5t-91 23.5q-37 25 -60 25q-28 0 -48.5 -21t-20.5 -49v-49h575q60 0 102 -36t42 -87v-957q0 -51 -42 -86.5 t-102 -35.5t-101.5 35.5t-41.5 86.5zM319 829q59 0 101.5 -35.5t42.5 -84.5v-605q0 -49 -42.5 -84.5t-101.5 -35.5t-101 35.5t-42 84.5v605q0 49 42 84.5t101 35.5zM877 1417q0 68 47 115t114 47q68 0 115 -47.5t47 -114.5t-47 -114.5t-115 -47.5q-67 0 -114 47t-47 115z " />
<glyph unicode="&#xfb02;" horiz-adv-x="1304" d="M141 1186h35v20q0 137 101 233.5t247 96.5h514q60 0 102 -36t42 -87v-1307q0 -51 -42 -86.5t-102 -35.5t-101.5 35.5t-41.5 86.5v1172h-365q-29 0 -50 -21.5t-21 -50.5v-20h106q44 0 76.5 -37.5t32.5 -89.5t-32.5 -89.5t-76.5 -37.5h-424q-44 0 -76 37.5t-32 89.5 t32 89.5t76 37.5zM319 829q59 0 101.5 -35.5t42.5 -84.5v-605q0 -49 -42.5 -84.5t-101.5 -35.5t-101 35.5t-42 84.5v605q0 49 42 84.5t101 35.5z" />
<glyph unicode="&#xfb03;" horiz-adv-x="1998" d="M1591 106v826h-1450q-44 0 -76 37.5t-32 89.5t32 89.5t76 37.5h35v55q0 142 104.5 236t251.5 94q129 0 232 -90q35 -29 36.5 -82t-30.5 -94q-36 -43 -87 -48.5t-91 23.5q-37 25 -60 25q-28 0 -48.5 -21t-20.5 -49v-49h409v55q0 142 104.5 236t252.5 94q128 0 231 -90 q35 -29 36.5 -82t-30.5 -94q-36 -43 -87 -48.5t-91 23.5q-37 25 -59 25q-28 0 -49 -21t-21 -49v-49h576q60 0 101.5 -36t41.5 -87v-957q0 -51 -41.5 -86.5t-101.5 -35.5t-102 35.5t-42 86.5zM1016 829q59 0 101 -35.5t42 -84.5v-605q0 -49 -42 -84.5t-101 -35.5t-101.5 35.5 t-42.5 84.5v605q0 49 42.5 84.5t101.5 35.5zM319 829q59 0 101.5 -35.5t42.5 -84.5v-605q0 -49 -42.5 -84.5t-101.5 -35.5t-101 35.5t-42 84.5v605q0 49 42 84.5t101 35.5zM1573 1417q0 67 47.5 114.5t114.5 47.5t114 -47t47 -115t-47 -115t-114 -47t-114.5 47.5 t-47.5 114.5z" />
<glyph unicode="&#xfb04;" horiz-adv-x="2009" d="M592 1280q-37 25 -60 25q-28 0 -48.5 -21t-20.5 -49v-49h418v20q0 137 101 233.5t247 96.5h514q60 0 101.5 -36t41.5 -87v-1307q0 -51 -41.5 -86.5t-101.5 -35.5t-102 35.5t-42 86.5v1172h-364q-29 0 -50.5 -21.5t-21.5 -50.5v-20h107q44 0 76 -37.5t32 -89.5t-32 -89.5 t-76 -37.5h-1129q-44 0 -76 37.5t-32 89.5t32 89.5t76 37.5h35v55q0 142 104.5 236t251.5 94q129 0 232 -90q35 -29 36.5 -82t-30.5 -94q-36 -43 -87 -48.5t-91 23.5zM1024 829q59 0 101 -35.5t42 -84.5v-605q0 -49 -42 -84.5t-101 -35.5t-101 35.5t-42 84.5v605 q0 49 42 84.5t101 35.5zM319 829q59 0 101.5 -35.5t42.5 -84.5v-605q0 -49 -42.5 -84.5t-101.5 -35.5t-101 35.5t-42 84.5v605q0 49 42 84.5t101 35.5z" />
</font>
</defs>
</svg>
