<?xml version="1.0" standalone="no"?>
<!DOCTYPE svg PUBLIC "-//W3C//DTD SVG 1.1//EN" "http://www.w3.org/Graphics/SVG/1.1/DTD/svg11.dtd">
<svg xmlns="http://www.w3.org/2000/svg"><metadata>This SVG WebFont was generated by YouWorkForThem.
 Copyright (c)2016 Talbot Type. All Rights Reserved</metadata><defs><font horiz-adv-x="1341" id="ywftsvg"><font-face ascent="1618" bbox="-110.988 -487 2599.95 1909" cap-height="1552" descent="-430" font-family="" font-stretch="normal" font-weight="700" panose-1="2 11 8 3 3 6 0 13 0 4" underline-position="0" underline-thickness="0" unicode-range="U+0020-FB07" units-per-em="2048" x-height="1186"/><missing-glyph horiz-adv-x="391"/><glyph glyph-name=".notdef" horiz-adv-x="391"/><glyph glyph-name="glyph1" horiz-adv-x="0"/><glyph glyph-name="glyph2" horiz-adv-x="681"/><glyph glyph-name="space" horiz-adv-x="552" unicode=" "/><glyph d="M272 1434q4 49 50.5 83.5t103.5 34.5t94 -34.5t33 -83.5l-127 -938q-4 -39 -40 -67t-81 -28q-47 0 -76.5 28t-25.5 67zM436 143q-8 -68 -58 -112.5t-115.5 -44.5t-107.5 45t-34 112q6 63 57 108.5t116.5 45.5t106.5 -45.5t35 -108.5z" glyph-name="exclam" horiz-adv-x="528" unicode="!"/><glyph d="M102 1032v447q0 33 21.5 53t52.5 20t52.5 -20.5t21.5 -52.5v-447q0 -31 -21.5 -51t-52.5 -20t-52.5 20t-21.5 51zM383 1032v447q0 33 21.5 53t52 20t52 -20.5t21.5 -52.5v-447q0 -31 -21.5 -51t-52 -20t-52 20t-21.5 51z" glyph-name="quotedbl" horiz-adv-x="632" unicode="&quot;"/><glyph d="M86 592q2 29 25.5 49.5t52.5 20.5h270l68 210h-316q-29 0 -47 20.5t-16 49.5t25.5 49.5t52.5 20.5h344l147 469q10 29 38 50t56.5 21t43 -21.5t4.5 -49.5l-148 -469h209l147 469q10 29 38 50t56.5 21t43 -21.5t4.5 -49.5l-148 -469h242q29 0 48.5 -20.5t17 -49.5 t-27 -49.5t-52.5 -20.5h-275l-67 -210h319q29 0 48.5 -20.5t17.5 -49.5t-26 -48.5t-54 -19.5h-348l-148 -469q-10 -29 -37.5 -50t-56.5 -21t-43 21.5t-4 49.5l151 469h-211l-149 -469q-10 -31 -37 -51t-55.5 -20t-42 21.5t-2.5 49.5l147 469h-241q-29 0 -47.5 19.5 t-16.5 48.5zM852 872h-211l-66 -210h209z" glyph-name="numbersign" horiz-adv-x="1269" unicode="#"/><glyph d="M932 371q41 45 46 95t-36 97t-129 72l-256 63q-180 51 -266 147.5t-68 264.5q14 117 92 213q33 43 89.5 50t105.5 -23q47 -33 58.5 -86.5t-19.5 -96.5q-29 -35 -30 -72.5t34 -74.5t106 -57l240 -62q203 -53 300 -154.5t79 -285.5q-18 -170 -162 -299q-39 -35 -93 -31 t-93 47q-39 45 -38 101.5t40 91.5zM778 -80q-4 -35 -47 -60.5t-100.5 -25.5t-95 25.5t-33.5 60.5l10 90q-215 29 -367 150q-37 31 -36.5 84t36.5 104q39 43 94.5 56.5t90.5 -13.5q139 -117 348 -117q57 0 95 -25.5t34 -60.5zM780 1257q-57 0 -94 26t-33 63l25 235 q4 37 46 62.5t99.5 25.5t96 -25.5t34.5 -62.5l-6 -55q193 -33 322 -125q39 -29 44 -79t-30 -101q-35 -49 -86 -68.5t-92 4.5q-152 100 -326 100z" glyph-name="dollar" horiz-adv-x="1312" unicode="$"/><glyph d="M999.5 1179.5q-16.5 -161.5 -145.5 -277.5t-293 -116q-162 0 -267.5 116t-88.5 278q16 160 147 275.5t291 115.5q164 0 268.5 -115t88 -276.5zM1818.5 360.5q-16.5 -161.5 -145.5 -277.5t-293 -116q-162 0 -267 116t-89 277q16 160 147.5 276t290.5 116q164 0 268.5 -115 t88 -276.5zM780 1180q8 74 -38 126t-121 52q-72 0 -130.5 -52.5t-66.5 -126t40 -127t120 -53.5q76 0 132 52.5t64 128.5zM1599 360q8 74 -37.5 126.5t-121.5 52.5q-72 0 -130.5 -52.5t-66.5 -126t40 -127t120 -53.5q76 0 132 52t64 128zM410 152l1058 1366q23 29 64 32.5 t74 -18.5q31 -25 37 -63.5t-19 -67.5l-1059 -1366q-25 -31 -63.5 -34t-69.5 19q-33 25 -40 64t18 68z" glyph-name="percent" horiz-adv-x="1863" unicode="%"/><glyph d="M350 1167q18 172 151.5 288t305.5 116t279.5 -116t91.5 -286q-18 -166 -153.5 -283.5t-301.5 -117.5q-109 0 -193 -77t-96 -185q-10 -109 57.5 -185.5t176.5 -76.5q29 0 49 4q49 10 89 -19.5t48 -85.5q8 -57 -18.5 -104t-73.5 -59q-57 -14 -123 -15q-238 0 -384 152.5 t-120 390.5q25 233 199 375.5t416 142.5q57 0 103 41t52 100q6 57 -31.5 97.5t-95 40.5t-101.5 -39t-52 -99q-4 -43 -47 -72.5t-100.5 -29.5t-94.5 29.5t-33 72.5zM1223 244h32q45 0 72 -37t20.5 -94.5t-40 -93t-78.5 -35.5h-45q-129 0 -196.5 81.5t-53.5 213.5l35 335 q14 131 98 213t213 82h45q45 0 71.5 -35.5t22.5 -93.5q-6 -57 -41 -94t-80 -37h-32q-14 0 -26.5 -10t-14.5 -25l-35 -335q-2 -14 8.5 -24.5t24.5 -10.5z" glyph-name="ampersand" horiz-adv-x="1370" unicode="&amp;"/><glyph d="M102 1032v447q0 33 21.5 53t52.5 20t52.5 -20.5t21.5 -52.5v-447q0 -31 -21.5 -51t-52.5 -20t-52.5 20t-21.5 51z" glyph-name="quotesingle" horiz-adv-x="352" unicode="'"/><glyph d="M539 -299q10 -29 -11.5 -59.5t-62.5 -44.5q-39 -14 -72 -4t-41 38q-184 434 -127 957q55 526 328 956q14 29 50 39t71 -4q37 -14 52 -45t-1 -59q-129 -223 -195.5 -420t-95.5 -467q-27 -299 -2 -481.5t107 -405.5z" glyph-name="parenleft" horiz-adv-x="638" unicode="("/><glyph d="M35 -299q129 223 196.5 418.5t96 468t2 468t-108.5 419.5q-10 29 12.5 59.5t63.5 44.5q39 14 71.5 4t41.5 -39q182 -428 127 -956q-59 -532 -328 -957q-14 -29 -50 -39t-71 5q-37 14 -53 44.5t0 59.5z" glyph-name="parenright" horiz-adv-x="638" unicode=")"/><glyph d="M426 1133q0 10 29 110q-78 -66 -93 -72q-18 -10 -38.5 -1.5t-32.5 34.5q-12 25 -6 48.5t24 33.5q20 10 111 39q-84 29 -105 39q-16 10 -16 33.5t18 48.5q14 25 38 35t38 -2q12 -6 80 -74q-8 102 -8 113q8 49 72 49q29 0 47 -14.5t14 -34.5q0 -10 -31 -113q80 68 95 74 q41 25 73 -33q10 -27 4 -49.5t-24 -32.5q-20 -10 -109 -39q80 -29 103 -39q16 -10 16 -32.5t-16 -49.5q-16 -25 -40 -34t-38 1q-12 6 -82 74q10 -102 10 -112q-4 -20 -24.5 -35t-49 -15t-46 15t-13.5 35z" glyph-name="asterisk" horiz-adv-x="747" unicode="*"/><glyph d="M86 592q0 43 25.5 73.5t60.5 30.5h422v420q0 35 30.5 60.5t73.5 25.5t74 -25.5t31 -60.5v-420h418q35 0 60.5 -30.5t25.5 -73.5t-26 -74t-60 -31h-418v-417q0 -35 -31 -60.5t-74 -25.5t-73.5 25.5t-30.5 60.5v417h-422q-35 0 -60.5 31t-25.5 74z" glyph-name="plus" horiz-adv-x="1392" unicode="+"/><glyph d="M72 -184.5q2 26.5 21.5 44t43.5 17.5q45 0 78 31t39 80q-10 -4 -27 -4q-66 0 -107.5 47t-33.5 110q6 63 57.5 110.5t116.5 47.5q63 0 105.5 -46t35.5 -112l-16 -151q-10 -98 -86 -168t-174 -70q-25 0 -40 18.5t-13 45z" glyph-name="comma" horiz-adv-x="561" unicode=","/><glyph d="M188.5 592q4.5 43 33 73.5t63.5 30.5h528q35 0 57.5 -30.5t18.5 -73.5t-33 -74t-63 -31h-529q-35 0 -57.5 31t-18 74z" glyph-name="hyphen" horiz-adv-x="952" unicode="-"/><glyph d="M227 -16q-66 0 -107.5 47t-33.5 110q6 63 57.5 110.5t116.5 47.5q63 0 105.5 -46t35.5 -112q-8 -66 -59.5 -111.5t-114.5 -45.5z" glyph-name="period" horiz-adv-x="561" unicode="."/><glyph d="M121 82l749 1434q14 25 44 34t59 -6q27 -12 37 -39.5t-4 -50.5l-750 -1434q-14 -27 -44 -35t-56 7q-29 12 -39 38.5t4 51.5z" glyph-name="slash" horiz-adv-x="966" unicode="/"/><glyph d="M1313 1030l-56 -526q-23 -221 -200.5 -380t-403 -159t-372 158t-123.5 381l55 526q25 223 204 382t404.5 159t371 -160t120.5 -381zM971 504l55 526q12 106 -56.5 183t-177 77t-194.5 -75.5t-98 -184.5l-56 -526q-10 -109 59.5 -184.5t178.5 -75.5t194 77t95 183z" glyph-name="zero" horiz-adv-x="1312" unicode="0"/><glyph d="M444 106l113 1082l-168 -98q-41 -25 -87 -9.5t-71 60.5q-23 45 -9 94t54 72l373 219q43 27 90 26q59 0 97 -35.5t34 -86.5l-139 -1324q-6 -51 -51 -86.5t-104.5 -35.5t-98.5 35.5t-33 86.5z" glyph-name="one" horiz-adv-x="843" unicode="1"/><glyph d="M190 1047q25 225 196 374.5t400 149.5q231 0 372.5 -140.5t117.5 -363.5q-12 -113 -79 -215t-165 -180l-471 -391h483q49 0 80 -41t25 -99q-6 -59 -45 -100t-88 -41h-756q-61 0 -100 52t-31 126q8 94 84 152l659 551q94 86 104.5 186t-53 163.5t-165.5 63.5 q-100 0 -178 -70.5t-93 -176.5q-4 -51 -52 -89t-109.5 -38t-100.5 37t-35 90z" glyph-name="two" horiz-adv-x="1247" unicode="2"/><glyph d="M823 674q-33 31 -27.5 86t46.5 100q41 47 96 59.5t90 -18.5q188 -152 162 -416q-23 -223 -196 -371.5t-400 -148.5q-186 0 -317.5 117t-151.5 293q-6 47 31 90t94 53q57 12 103 -13.5t50 -72.5q10 -84 71 -137t149 -53q100 0 179 71.5t89 171.5q12 105 -68 189zM408 946 l348 314h-346q-47 0 -78 39.5t-25 97t45 98.5t86 41h682q51 0 83 -43t26 -102q-6 -66 -58 -113l-587 -528q-37 -35 -89.5 -29t-89 47t-35.5 92t38 86z" glyph-name="three" horiz-adv-x="1222" unicode="3"/><glyph d="M797 801l26 252l-411 -496h718q49 0 80 -41t25 -98.5t-45 -98t-88 -40.5h-70l-18 -173q-6 -51 -52.5 -86.5t-105.5 -35.5t-99 35.5t-34 86.5l18 173h-526q-68 0 -110 54t-33 132q10 74 53 123l700 889q61 76 162 75q74 0 122 -44t40 -107l-62 -600q-6 -51 -53 -87 t-106.5 -36t-98 36t-32.5 87z" glyph-name="four" horiz-adv-x="1216" unicode="4"/><glyph d="M811 1040q225 -33 328.5 -176t79.5 -360q-25 -231 -203 -385t-416 -154q-195 0 -328 106.5t-161 280.5q-10 55 30.5 105.5t98.5 60.5q59 12 106 -14.5t49 -75.5q16 -80 82 -133t152 -53q109 0 194.5 76.5t96.5 185.5q10 90 -41.5 160.5t-139.5 93.5q-49 12 -76.5 54 t-15.5 99q10 55 59.5 96t104.5 33zM238 836l163 583q12 51 56.5 84t101.5 33h508q49 0 80 -42t24.5 -99.5t-45.5 -98.5t-88 -41h-399l-131 -473q-16 -47 -65.5 -72.5t-104.5 -13.5q-55 10 -84.5 51.5t-15.5 88.5z" glyph-name="five" horiz-adv-x="1249" unicode="5"/><glyph d="M821 748q-41 20 -49 70t21 104q27 53 78 76.5t92 2.5q147 -61 230 -193t67 -300q-27 -233 -206.5 -388t-415 -155t-382.5 155.5t-121 387.5q14 143 101 270l516 725q27 41 81 48.5t105 -23.5q43 -27 51 -79t-20 -97l-473 -699q-55 -80 -60 -145q-12 -109 55.5 -186.5 t176 -77.5t192.5 77.5t96 186.5q8 76 -28.5 140.5t-106.5 99.5z" glyph-name="six" horiz-adv-x="1288" unicode="6"/><glyph d="M334 160l571 1097h-618q-49 0 -80 41t-25 98.5t45 98.5t88 41h779q98 0 130.5 -94t-20.5 -189l-624 -1200q-23 -45 -76 -61.5t-103 4.5q-51 23 -70.5 71t3.5 93z" glyph-name="seven" horiz-adv-x="1138" unicode="7"/><glyph d="M1276 463q-23 -223 -202 -360.5t-422.5 -137.5t-394.5 137.5t-128 360.5q25 221 201 350t424 129q225 0 245 174q8 90 -49 132t-157 42q-229 0 -248 -184q-2 -49 -38 -90t-93 -55q-86 -14 -125 30.5t-31 124.5q20 207 181 331t382 124q219 0 354.5 -124t114.5 -331 q-23 -207 -184.5 -330.5t-382.5 -123.5q-276 0 -299 -209q-12 -111 59.5 -160t196.5 -49q279 0 301 209q4 29 0 61q-10 47 24.5 93t96.5 65q104 27 145 -38t29 -171z" glyph-name="eight" horiz-adv-x="1310" unicode="8"/><glyph d="M627 786q41 -20 49 -70t-20.5 -103.5t-79 -77t-91.5 -3.5q-147 61 -231 193.5t-66 300.5q25 233 205 388t416 155q233 0 380.5 -154.5t123.5 -388.5q-14 -139 -103 -270l-514 -725q-27 -41 -81 -48.5t-105 23.5q-43 27 -51 79t20 97l473 699q51 76 60 145 q12 109 -55.5 186.5t-176 77.5t-192.5 -77.5t-96 -186.5q-8 -76 28.5 -140.5t106.5 -99.5z" glyph-name="nine" horiz-adv-x="1288" unicode="9"/><glyph d="M401 141q-8 -66 -59 -111.5t-115 -45.5q-66 0 -107.5 47t-33.5 110q6 63 57.5 110.5t116.5 47.5q63 0 105 -46t36 -112zM180 1044q8 66 59.5 112t114.5 46q66 0 108 -47t34 -111q-6 -63 -57.5 -110t-116.5 -47q-63 0 -105.5 45.5t-36.5 111.5z" glyph-name="colon" horiz-adv-x="561" unicode=":"/><glyph d="M180 1044q8 66 59.5 112t114.5 46q66 0 108 -47t34 -111q-6 -63 -57.5 -110t-116.5 -47q-63 0 -105.5 45.5t-36.5 111.5zM72 -184.5q2 26.5 21.5 44t43.5 17.5q45 0 78 31t39 80q-10 -4 -27 -4q-66 0 -107.5 47t-33.5 110q6 63 57.5 110.5t116.5 47.5q63 0 105.5 -46 t35.5 -112l-16 -151q-10 -98 -86 -168t-174 -70q-25 0 -40 18.5t-13 45z" glyph-name="semicolon" horiz-adv-x="561" unicode=";"/><glyph d="M778 268q31 -18 38 -58t-13 -77q-23 -39 -59.5 -53t-67.5 6l-526 371q-84 51 -84 135t84 135l526 371q31 20 67.5 6t59.5 -53q20 -37 13 -77t-38 -59l-475 -317v-12z" glyph-name="less" horiz-adv-x="884" unicode="&lt;"/><glyph d="M86 768q0 43 25.5 73.5t60.5 30.5h1049q35 0 60.5 -30.5t25.5 -73.5t-26 -73.5t-60 -30.5h-1049q-35 0 -60.5 30.5t-25.5 73.5zM86 420q0 43 25.5 73.5t60.5 30.5h1049q35 0 60.5 -30.5t25.5 -73.5t-26 -74t-60 -31h-1049q-35 0 -60.5 31t-25.5 74z" glyph-name="equal" horiz-adv-x="1392" unicode="="/><glyph d="M106 268l476 318v12l-476 317q-31 18 -38 58.5t14 77.5q23 39 59.5 53t67.5 -6l526 -371q84 -51 84 -135t-84 -135l-526 -371q-31 -20 -68 -6t-59 53q-20 37 -13.5 77t37.5 58z" glyph-name="greater" horiz-adv-x="884" unicode=">"/><glyph d="M498 473l22 211q4 51 47 87t103 36q100 0 179 71.5t91 174.5q8 100 -55.5 171.5t-163.5 71.5q-88 0 -160 -53t-100 -137q-14 -47 -65.5 -72.5t-104.5 -13.5q-55 10 -84 53t-12 90q57 176 212.5 293t342.5 117q227 0 369.5 -148.5t119.5 -371.5q-20 -190 -153.5 -328.5 t-305.5 -169.5l-8 -82q-6 -53 -49 -88t-102.5 -35t-94 35t-28.5 88zM756 141q-8 -66 -58.5 -111.5t-113.5 -45.5q-66 0 -108 46t-34 111q6 66 57.5 112t116.5 46q63 0 104.5 -46t35.5 -112z" glyph-name="question" horiz-adv-x="1210" unicode="?"/><glyph d="M922 367q-168 0 -271.5 117.5t-87 283.5t147.5 283.5t297 117.5t270 -117.5t88 -283.5l-8 -78q-4 -35 16.5 -57.5t52.5 -22.5q35 0 60.5 23.5t28.5 56.5l8 78q25 229 -122 394t-378 165t-412.5 -164t-206 -395t122 -395t377.5 -164q111 0 205 37q39 14 79 -7.5t54 -66.5 q14 -49 -5 -93t-62 -61q-150 -53 -295 -53q-334 0 -544 235.5t-175 567.5t294 567.5t593 235.5q332 0 542.5 -235.5t175.5 -567.5l-8 -78q-14 -133 -119.5 -228t-238.5 -95t-217 95t-70 228l8 78q6 66 -36 112t-105 46q-66 0 -117 -47.5t-57 -110.5q-8 -63 34 -110.5 t107 -47.5q41 0 66.5 -35.5t21.5 -87.5q-6 -51 -39.5 -85.5t-74.5 -34.5z" glyph-name="at" horiz-adv-x="1789" unicode="@"/><glyph d="M956 715l-102 407h-16l-510 -1067q-27 -45 -80 -62.5t-111 1.5q-51 23 -72.5 72t1.5 96l639 1292q55 98 186 98t166 -98l180 -633q10 -49 -18.5 -97t-85.5 -71q-59 -18 -112 -0.5t-65 62.5zM618.5 419.5q6.5 57.5 45 98.5t88.5 41h454q51 0 88 -27.5t43 -68.5l88 -301 q12 -47 -19.5 -96.5t-88.5 -71.5q-59 -18 -110.5 -1t-67.5 62l-74 224h-342q-49 0 -80 41.5t-24.5 99z" glyph-name="A" horiz-adv-x="1458" unicode="A"/><glyph d="M596 774q6 57 45 98t88 41h213q207 0 336 -129t108.5 -327.5t-176 -327.5t-362.5 -129h-580q-59 0 -99 36t-34 87l135 1290q4 51 51.5 87t106.5 36h545q190 0 311 -119t102 -299q-4 -51 -20 -84q-27 -47 -80 -66.5t-112 1.5q-45 16 -69 53t-22 82q4 63 -35.5 107 t-103.5 44h-399l-103 -976h435q80 0 141 51t69.5 126.5t-43 126t-131.5 50.5h-213q-49 0 -79.5 42t-24.5 99z" glyph-name="B" horiz-adv-x="1421" unicode="B"/><glyph d="M1331 430q37 39 91.5 41t97.5 -37q41 -37 43 -93t-35 -93q-283 -283 -637 -283q-342 0 -558 231.5t-181 571.5q23 223 152.5 408.5t329.5 290t425 104.5q356 0 579 -283q29 -37 14.5 -93t-63.5 -93q-51 -39 -104 -37t-84 41q-86 92 -168 138t-203 46q-217 0 -386 -152.5 t-191.5 -369.5t113.5 -369.5t354 -152.5q121 0 211.5 46t199.5 138z" glyph-name="C" horiz-adv-x="1601" unicode="C"/><glyph d="M133 106l137 1307q4 51 51.5 87t106.5 36h389q334 0 538 -222t169 -554q-33 -332 -284 -554t-585 -222q-51 0 -82.5 41t-25.5 98t46 98t91 41q201 0 359.5 147.5t179.5 350.5q23 203 -105.5 349t-329.5 146h-243l-121 -1149q-6 -51 -52 -86.5t-105.5 -35.5t-99.5 35.5 t-34 86.5z" glyph-name="D" horiz-adv-x="1517" unicode="D"/><glyph d="M135 123l70 663q4 51 51 87t106 36h736q51 0 82.5 -42t25.5 -99t-46 -98t-91 -41h-590l-37 -350h732q51 0 82.5 -41t25.5 -98.5t-46 -98.5t-91 -41h-877q-59 0 -99 36t-34 87zM244 1153l26 260q4 51 51.5 87t106.5 36h877q51 0 82.5 -42t25.5 -99.5t-46 -98.5t-91 -41 h-731l-10 -102q-6 -51 -53.5 -87t-107 -36t-98 36t-32.5 87z" glyph-name="E" horiz-adv-x="1333" unicode="E"/><glyph d="M133 106l72 680q4 51 51 87t106 36h701q51 0 83 -42t25.5 -99t-46.5 -98t-91 -41h-555l-55 -523q-6 -51 -52 -86.5t-105.5 -35.5t-99.5 35.5t-34 86.5zM244 1153l26 260q4 51 51.5 87t106.5 36h840q51 0 82.5 -42t25.5 -99.5t-46 -98.5t-91 -41h-694l-10 -102 q-6 -51 -53.5 -87t-107 -36t-98 36t-32.5 87z" glyph-name="F" horiz-adv-x="1245" unicode="F"/><glyph d="M962.5 770q6.5 57 45.5 98t88 41h358q59 0 98 -35.5t35 -87.5l-53 -499q-2 -43 -43 -80q-262 -242 -600 -242q-342 0 -558 231.5t-181 571.5q23 223 152.5 408.5t329.5 290t425 104.5q301 0 520 -213q33 -35 22.5 -88t-55.5 -94q-47 -41 -100 -46.5t-84 29.5 q-135 131 -332 131q-215 0 -385 -152.5t-192.5 -369.5t115 -370.5t352.5 -153.5q184 0 346 118l28 267h-227q-49 0 -80 42t-24.5 99z" glyph-name="G" horiz-adv-x="1619" unicode="G"/><glyph d="M1346 1552q59 0 98 -35.5t35 -86.5l-72 -678q-6 -51 -52 -87t-106 -36h-770l-55 -523q-6 -51 -52 -86.5t-106 -35.5q-61 0 -100 35.5t-33 86.5l72 680q4 51 50 87t107 36h771l55 521q4 51 50.5 86.5t107.5 35.5zM1339 106q-6 -51 -52 -86.5t-105.5 -35.5t-99.5 35.5 t-33 86.5l28 279q6 51 53.5 87t106.5 36t98 -36t33 -87zM272 1430q4 51 51.5 86.5t106.5 35.5t98 -35.5t35 -86.5l-28 -277q-6 -51 -53.5 -87t-107 -36t-98 36t-32.5 87z" glyph-name="H" horiz-adv-x="1452" unicode="H"/><glyph d="M133 106l139 1324q4 51 51.5 86.5t106.5 35.5t98 -35.5t35 -86.5l-139 -1324q-6 -51 -52 -86.5t-106 -35.5q-61 0 -100 35.5t-33 86.5z" glyph-name="I" horiz-adv-x="536" unicode="I"/><glyph d="M799 1430q4 51 51 86.5t106.5 35.5t98.5 -35.5t35 -86.5l-103 -975q-23 -213 -181.5 -351.5t-369.5 -138.5q-227 0 -354 176q-29 41 -13.5 97.5t64.5 91.5q51 35 104.5 31.5t77.5 -44.5q49 -72 150 -71q88 0 155.5 60.5t75.5 148.5z" glyph-name="J" horiz-adv-x="1062" unicode="J"/><glyph d="M913 768l418 -559q29 -37 15.5 -91.5t-62.5 -94.5q-51 -39 -103.5 -40t-80.5 40l-490 636q-35 45 -28.5 108.5t51.5 109.5l622 636q39 41 91.5 40t93.5 -40q41 -41 43 -95t-33 -91zM133 106l139 1324q4 51 51.5 86.5t106.5 35.5t98 -35.5t35 -86.5l-139 -1324 q-6 -51 -52 -86.5t-105.5 -35.5t-99.5 35.5t-34 86.5z" glyph-name="K" horiz-adv-x="1398" unicode="K"/><glyph d="M135 123l137 1307q4 51 51.5 86.5t106.5 35.5t98 -35.5t35 -86.5l-121 -1151h660q51 0 83 -41t25.5 -98.5t-46.5 -98.5t-91 -41h-805q-59 0 -99 36t-34 87z" glyph-name="L" horiz-adv-x="1257" unicode="L"/><glyph d="M133 106l137 1311q6 57 62.5 96t130.5 39q111 0 147 -71l387 -559l508 565q59 66 160 65q74 0 121 -38.5t41 -96.5l-137 -1311q-6 -51 -52.5 -86.5t-105.5 -35.5t-99 35.5t-34 86.5l102 975h-6l-405 -467q-53 -63 -132 -63t-120 63l-306 467h-6l-102 -975 q-6 -51 -52 -86.5t-105.5 -35.5t-99.5 35.5t-34 86.5z" glyph-name="M" horiz-adv-x="1802" unicode="M"/><glyph d="M133 106l137 1313q6 55 60.5 94t126.5 39q53 0 94 -24.5t57 -63.5l479 -954h7l94 920q4 51 51 86.5t106.5 35.5t98.5 -35.5t35 -86.5l-140 -1313q-4 -55 -58 -94t-126 -39q-53 0 -95 22.5t-56 59.5l-480 958h-6l-94 -918q-6 -51 -52 -86.5t-105.5 -35.5t-99.5 35.5 t-34 86.5z" glyph-name="N" horiz-adv-x="1452" unicode="N"/><glyph d="M1499 768q23 217 -114.5 369.5t-354.5 152.5t-386 -152.5t-191.5 -369.5t113.5 -370.5t353.5 -153.5t387 152.5t192.5 371.5zM1798 768q-23 -223 -152.5 -408.5t-329.5 -290t-425 -104.5q-344 0 -559 231.5t-180.5 571.5t299 571.5t608.5 231.5q342 0 558 -231.5 t181 -571.5z" glyph-name="O" horiz-adv-x="1789" unicode="O"/><glyph d="M737 768h142q100 0 179 71.5t89 172t-53.5 172t-163.5 71.5h-385l-121 -1149q-6 -51 -52 -86.5t-105.5 -35.5t-99.5 35.5t-34 86.5l137 1307q4 51 51.5 87t106.5 36h530q227 0 368.5 -150.5t117.5 -373.5q-23 -223 -196 -374t-398 -151h-141q-51 0 -83 42t-26 99.5 t46 98.5t91 41z" glyph-name="P" horiz-adv-x="1411" unicode="P"/><glyph d="M1348 580q63 96 77 204q23 209 -105 357.5t-328.5 148.5t-358.5 -148.5t-180.5 -357.5t104.5 -356t328 -147h643q51 0 82.5 -42t25.5 -99.5t-46 -98.5t-91 -41h-643q-326 0 -531.5 229.5t-171 555t287.5 556t579 230.5q213 0 383 -105.5t257 -287t64 -394.5 q-20 -168 -110 -315q-31 -49 -82 -65.5t-107 6.5q-57 25 -78.5 75t1.5 95z" glyph-name="Q" horiz-adv-x="1792" unicode="Q"/><glyph d="M745 768h134q100 0 179 71.5t89 172t-53.5 172t-163.5 71.5h-385l-121 -1149q-6 -51 -52 -86.5t-105.5 -35.5t-99.5 35.5t-34 86.5l137 1307q4 51 51.5 87t106.5 36h530q227 0 368.5 -150.5t117.5 -373.5q-18 -180 -145.5 -318.5t-305.5 -185.5l191 -313q25 -43 4 -96.5 t-74 -88.5q-51 -33 -106.5 -26.5t-79.5 49.5l-303 508q-23 43 -17 88q6 57 46 98t91 41z" glyph-name="R" horiz-adv-x="1421" unicode="R"/><glyph d="M326 358q170 -141 346 -141q123 0 207 63.5t94 163.5q8 74 -33 121t-110.5 68.5t-154.5 38t-170 43t-152.5 70.5t-103.5 133.5t-22 218.5q20 203 184 318.5t402 115.5q123 0 247 -37t214 -100q39 -29 43 -79t-29 -102q-37 -51 -87 -69.5t-91 6.5q-162 106 -326 106 q-236 0 -254 -159q-8 -72 33 -117t110.5 -66.5t155.5 -38t170 -44t152 -72.5t103.5 -135.5t21.5 -219.5q-23 -221 -199 -350t-432 -129q-291 0 -498 156l-6 6q-37 31 -37 84t39 104q39 43 93.5 56.5t89.5 -13.5z" glyph-name="S" horiz-adv-x="1312" unicode="S"/><glyph d="M637 -16q-59 0 -99 35.5t-34 86.5l137 1307q4 51 51 87t107 36h489q51 0 83 -42t26 -99.5t-46 -98.5t-91 -41h-347l-120 -1149q-6 -51 -51.5 -86.5t-104.5 -35.5zM270 1255q-49 0 -79.5 41t-24.5 99q6 59 45 100t88 41h115q49 0 79.5 -42t24.5 -99.5t-45 -98.5t-88 -41 h-115z" glyph-name="T" horiz-adv-x="1271" unicode="T"/><glyph d="M272 1430q4 51 51.5 86.5t106.5 35.5t98 -35.5t35 -86.5l-94 -895q-14 -135 69 -216t222 -81t237.5 80.5t112.5 216.5l94 895q4 51 51.5 86.5t106.5 35.5t98 -35.5t35 -86.5l-94 -895q-27 -262 -214.5 -416t-455.5 -154q-270 0 -424.5 153.5t-128.5 416.5z" glyph-name="U" horiz-adv-x="1468" unicode="U"/><glyph d="M1542 1376l-639 -1292q-55 -98 -186 -98t-166 98l-369 1292q-12 47 19.5 96.5t89.5 71.5q59 18 110.5 1t67.5 -62l285 -1067h16l510 1067q27 45 80 62.5t110 -1.5q51 -23 73 -72t-1 -96z" glyph-name="V" horiz-adv-x="1437" unicode="V"/><glyph d="M1307 1440l153 -920h8l357 950q16 45 69.5 69t108.5 7.5t80.5 -62.5t5.5 -102l-506 -1300q-23 -47 -73 -73.5t-101 -25.5t-95 26.5t-57 70.5l-157 934h-8l-355 -934q-31 -61 -102.5 -86t-138 -0.5t-84.5 88.5l-236 1300q-8 55 28 101.5t95 62.5q57 14 105.5 -7t56.5 -69 l155 -950h9l346 920q27 72 104.5 99.5t149.5 0t82 -99.5z" glyph-name="W" horiz-adv-x="1978" unicode="W"/><glyph d="M1255 1511q37 41 93.5 42t97.5 -35q45 -37 51 -91.5t-31 -95.5l-1157 -1306q-37 -39 -93 -41t-99 34.5t-49.5 91t30.5 95.5zM465 1511l223 -329q27 -41 10.5 -95.5t-67.5 -91.5t-107.5 -34.5t-83.5 40.5l-223 330q-27 41 -10.5 95.5t68 91t107.5 35.5t83 -42zM1124 535 l224 -330q29 -39 10 -94.5t-70 -92.5q-49 -37 -105.5 -34.5t-82.5 41.5l-223 329q-27 41 -10.5 95.5t67.5 91.5t107 36t83 -42z" glyph-name="X" horiz-adv-x="1404" unicode="X"/><glyph d="M694 -16q-61 0 -100 35.5t-33 86.5l70 662q2 33 31 63l602 680q37 41 93 42t97 -35q45 -37 51 -91.5t-30 -95.5l-562 -633l-61 -592q-6 -51 -52.5 -86.5t-105.5 -35.5zM444 1511l234 -344q29 -41 11.5 -95t-69 -91t-107.5 -35t-83 41l-233 344q-27 41 -10.5 95.5t67.5 91 t107 35.5t83 -42z" glyph-name="Y" horiz-adv-x="1392" unicode="Y"/><glyph d="M80 184q10 88 70 142l882 925v4h-721q-49 0 -79.5 41t-24.5 98.5t45 99.5t88 42h946q63 0 103.5 -54.5t31.5 -129.5q-8 -84 -71 -144l-879 -923v-4h719q49 0 79.5 -42t24.5 -99.5t-45 -98.5t-88 -41h-946q-63 0 -103 54t-32 130z" glyph-name="Z" unicode="Z"/><glyph d="M135 -258l180 1702q2 39 37 65.5t80 26.5h238q37 0 59.5 -30.5t18 -73.5t-33 -74t-65.5 -31h-137l-156 -1468h138q37 0 59 -31t18 -74t-32.5 -73.5t-65.5 -30.5h-237q-45 0 -74 26.5t-27 65.5z" glyph-name="bracketleft" horiz-adv-x="643" unicode="["/><glyph d="M412 1516l450 -1434q8 -25 -8 -51.5t-47 -38.5q-29 -14 -56.5 -6t-35.5 34l-451 1434q-8 23 8.5 50.5t44.5 39.5q31 14 59 5.5t36 -33.5z" glyph-name="backslash" horiz-adv-x="966" unicode="\"/><glyph d="M631 1444l-180 -1702q-2 -39 -37 -65.5t-80 -26.5h-238q-37 0 -59.5 30.5t-18 73.5t33 74t65.5 31h137l156 1468h-138q-37 0 -59.5 31t-18 74t33 73.5t65.5 30.5h237q45 0 74 -26.5t27 -65.5z" glyph-name="bracketright" horiz-adv-x="643" unicode="]"/><glyph d="M307 764q-14 -31 -52 -39t-77 8q-39 18 -58.5 53t-4.5 64l327 643q37 59 123 59t127 -59l328 -643q14 -29 -5.5 -63.5t-58.5 -53.5q-39 -16 -76.5 -8t-52.5 39l-258 528h-4z" glyph-name="asciicircum" horiz-adv-x="1134" unicode="^"/><glyph d="M0 -186h1186v-52h-1186v52z" glyph-name="underscore" horiz-adv-x="1062" unicode="_"/><glyph d="M629 1335l-252 68q-47 14 -49 63.5t33.5 85t78.5 15.5l228 -121q39 -20 19.5 -71.5t-58.5 -39.5z" glyph-name="grave" horiz-adv-x="718" unicode="`"/><glyph d="M932 16q-94 -51 -258 -51q-250 0 -404.5 180.5t-126.5 448.5q27 266 219.5 446.5t442.5 180.5q244 0 377 -207h4l6 65q4 51 49 87t104.5 36t97.5 -36t34 -87l-103 -973q-6 -51 -51 -86.5t-104.5 -35.5t-97.5 35.5t-31 86.5l51 488q16 143 -75 245.5t-237 102.5 q-143 0 -255.5 -102.5t-129.5 -245.5q-16 -145 76 -247.5t236 -102.5q49 0 98 12q39 16 75 -7.5t54 -68.5t3 -94.5t-54 -69.5z" glyph-name="a" horiz-adv-x="1486" unicode="a"/><glyph d="M678 1169q90 51 258 52q250 0 404.5 -180.5t127.5 -448.5q-29 -266 -221 -446.5t-442 -180.5q-244 0 -377 207h-4l-6 -66q-6 -51 -50 -86.5t-103.5 -35.5t-98.5 35.5t-33 86.5l139 1324q4 51 50.5 86.5t105.5 35.5t96 -34.5t33 -87.5l-88 -838q-16 -143 75 -245.5 t236 -102.5q143 0 257 102.5t130 245.5q14 143 -77 246.5t-236 103.5q-49 0 -98 -12q-39 -16 -75 7.5t-54.5 68.5t-3 94t54.5 69z" glyph-name="b" horiz-adv-x="1488" unicode="b"/><glyph d="M987 328q41 35 94.5 29.5t87.5 -46.5q39 -41 37 -97t-49 -93q-195 -156 -430 -156q-272 0 -441 180.5t-143 448.5q27 266 235 446.5t480 180.5q244 0 397 -154q41 -41 33 -93t-59 -97q-43 -41 -98.5 -46.5t-86.5 29.5q-88 82 -215 82q-143 0 -255.5 -102.5t-129 -245.5 t75.5 -245.5t236 -102.5q129 0 231 82z" glyph-name="c" horiz-adv-x="1255" unicode="c"/><glyph d="M934 16q-94 -51 -258 -51q-250 0 -405.5 180.5t-127.5 448.5q27 266 220.5 446.5t443.5 180.5q244 0 377 -207h4l43 416q4 51 49 86.5t104.5 35.5t97.5 -35.5t34 -86.5l-140 -1324q-6 -51 -51 -86.5t-104.5 -35.5t-97.5 35.5t-31 86.5l51 488q16 143 -75 245.5 t-237 102.5q-143 0 -256.5 -102.5t-130.5 -245.5q-14 -143 77 -246.5t237 -103.5q49 0 98 12q39 16 75 -7.5t54.5 -68.5t3 -94.5t-54.5 -69.5z" glyph-name="d" horiz-adv-x="1488" unicode="d"/><glyph d="M553 588q4 51 40 88t81 37h454q-27 109 -107.5 172t-193.5 63q-141 0 -253.5 -105.5t-129.5 -248.5q-16 -147 77 -258t241 -111q80 0 167 29t144 76q35 35 85 33.5t85 -37.5q37 -33 40 -84.5t-30 -83.5q-104 -92 -241.5 -142.5t-276.5 -50.5q-279 0 -449.5 180.5 t-142.5 448.5q27 266 235 446.5t478 180.5q264 0 431 -182.5t140 -444.5q-4 -51 -52 -92t-107 -41h-621q-45 0 -72.5 38t-21.5 89z" glyph-name="e" horiz-adv-x="1447" unicode="e"/><glyph d="M725 1280q-31 25 -57.5 25t-49 -20.5t-26.5 -49.5l-6 -49h102q45 0 72.5 -37t23.5 -90q-6 -53 -41.5 -90t-80.5 -37h-424q-45 0 -73 38t-22 89q4 51 40 89t81 38h35l6 55q14 141 129 235.5t262 94.5q127 0 222 -90q33 -29 28.5 -82t-41.5 -94q-41 -43 -92 -48.5t-88 23.5 zM406 829q57 0 96 -35.5t35 -84.5l-64 -605q-6 -49 -52 -84.5t-104 -35.5q-59 0 -98 35.5t-33 84.5l64 605q4 49 50.5 84.5t105.5 35.5z" glyph-name="f" horiz-adv-x="835" unicode="f"/><glyph d="M715 279q55 0 110 20q41 16 86 0t62 -57q35 -88 -49 -154q-98 -76 -238 -80q-248 10 -406.5 191.5t-132.5 431.5q27 254 226.5 422t451.5 168q229 0 365 -187h4l4 53q6 51 47 83t96.5 32t91 -32.5t29.5 -82.5l-86 -827q-27 -264 -244 -454.5t-487 -190.5q-217 0 -414 106 q-39 23 -44 75t28 101.5t83 70t91 -0.5q139 -82 285 -82q133 0 265 92.5t144 217.5l45 415q14 137 -72.5 234.5t-224.5 97.5q-139 0 -254.5 -93t-130 -228.5t63.5 -238.5t205 -103z" glyph-name="g" horiz-adv-x="1472" unicode="g"/><glyph d="M559 1430l-139 -1324q-6 -51 -51 -86.5t-104.5 -35.5t-98.5 35.5t-33 86.5l139 1324q4 51 50.5 86.5t105.5 35.5t97 -35.5t34 -86.5zM942 106l59 574q14 125 -46 200.5t-185 61.5l-39 -4q-43 -4 -74.5 26.5t-35.5 79.5q-4 51 20.5 91.5t67.5 54.5q78 31 178 31 q207 0 318.5 -139.5t86.5 -364.5l-63 -611q-6 -51 -51 -86.5t-104.5 -35.5t-98.5 35.5t-33 86.5z" glyph-name="h" unicode="h"/><glyph d="M133 106l103 973q4 51 50 87t105.5 36t97 -36t33.5 -87l-102 -973q-6 -51 -51 -86.5t-104.5 -35.5t-98.5 35.5t-33 86.5zM252 1417q8 68 60.5 115t120 47t109.5 -47t33 -115q-6 -68 -58 -115t-119.5 -47t-109.5 47t-36 115z" glyph-name="i" horiz-adv-x="532" unicode="i"/><glyph d="M362 1079q4 51 50.5 87t106 36t97 -36t33.5 -87l-117 -1114q-14 -145 -131.5 -247.5t-261.5 -102.5q-129 0 -217 84q-37 33 -32.5 85t44.5 93q39 47 91.5 57.5t85.5 -22.5q37 -27 57 -27q29 0 51.5 20.5t24.5 51.5zM379 1417q8 68 60.5 115t120 47t109.5 -47t33 -115 q-6 -68 -58 -115t-119.5 -47t-109.5 47t-36 115z" glyph-name="j" horiz-adv-x="659" unicode="j"/><glyph d="M133 106l139 1324q4 51 50.5 86.5t105.5 35.5t97 -35.5t34 -86.5l-139 -1324q-6 -51 -51 -86.5t-104.5 -35.5t-98.5 35.5t-33 86.5zM885 594l309 -391q29 -35 15.5 -88.5t-62.5 -94.5q-49 -37 -100.5 -37.5t-79.5 37.5l-377 467q-37 45 -31 107q6 57 51 106l471 465 q39 39 90.5 38t90.5 -38q41 -41 43 -94t-33 -88z" glyph-name="k" horiz-adv-x="1230" unicode="k"/><glyph d="M133 106l139 1324q4 51 50.5 86.5t105.5 35.5t97 -35.5t34 -86.5l-139 -1324q-6 -51 -51 -86.5t-104.5 -35.5t-98.5 35.5t-33 86.5z" glyph-name="l" horiz-adv-x="532" unicode="l"/><glyph d="M1542 106l66 627q8 88 -46.5 148.5t-142.5 60.5q-16 0 -47 -6q-43 -10 -77.5 16.5t-45.5 77.5q-12 88 62 135q90 55 188 56q197 0 307.5 -137.5t87.5 -350.5l-65 -627q-6 -51 -51 -86.5t-104.5 -35.5t-98.5 35.5t-33 86.5zM721 1210q37 10 74 11q197 0 307 -137.5 t88 -350.5l-66 -627q-6 -51 -51 -86.5t-104.5 -35.5t-98.5 35.5t-32 86.5l65 627q10 88 -37 146.5t-131 60.5q-43 -4 -75.5 28.5t-36.5 84.5q-8 55 21.5 101t76.5 56zM133 106l103 973q4 51 50 87t105.5 36t97 -36t33.5 -87l-102 -973q-6 -51 -51 -86.5t-104.5 -35.5 t-98.5 35.5t-33 86.5z" glyph-name="m" horiz-adv-x="1941" unicode="m"/><glyph d="M522 1079l-102 -973q-6 -51 -51 -86.5t-104.5 -35.5t-98.5 35.5t-33 86.5l103 973q4 51 50 87t105.5 36t97 -36t33.5 -87zM942 106l59 574q14 125 -46 200.5t-185 61.5l-39 -4q-43 -4 -74.5 26.5t-35.5 79.5q-4 51 20.5 91.5t67.5 54.5q78 31 178 31q207 0 318.5 -139.5 t86.5 -364.5l-63 -611q-6 -51 -51 -86.5t-104.5 -35.5t-98.5 35.5t-33 86.5z" glyph-name="n" unicode="n"/><glyph d="M1141 594q16 143 -76 245.5t-238 102.5q-143 0 -254.5 -102.5t-128.5 -245.5q-14 -143 76 -246.5t234 -103.5q145 0 258 102.5t129 247.5zM1440 594q-29 -268 -236 -448.5t-479 -180.5q-270 0 -440 180.5t-142 448.5q27 266 235 446.5t478 180.5q272 0 441.5 -180.5 t142.5 -446.5z" glyph-name="o" horiz-adv-x="1460" unicode="o"/><glyph d="M678 1169q90 51 258 52q250 0 404.5 -180.5t127.5 -448.5q-29 -266 -221 -446.5t-442 -180.5q-244 0 -377 207h-4l-43 -416q-4 -51 -49 -87t-104.5 -36t-97.5 36t-34 87l140 1323q4 51 50 87t105.5 36t96 -34.5t32.5 -88.5l-51 -487q-16 -143 75 -245.5t236 -102.5 q143 0 257 102.5t130 245.5q14 143 -77 246.5t-236 103.5q-49 0 -98 -12q-39 -16 -75 7.5t-54.5 68.5t-3 94t54.5 69z" glyph-name="p" horiz-adv-x="1488" unicode="p"/><glyph d="M934 16q-94 -51 -258 -51q-250 0 -405.5 180.5t-127.5 448.5q27 266 220.5 446.5t443.5 180.5q244 0 377 -207h4l6 65q4 51 49 87t104.5 36t97.5 -36t34 -87l-140 -1323q-6 -51 -51 -87t-104.5 -36t-97 36t-31.5 87l88 838q16 143 -75 245.5t-237 102.5 q-143 0 -256.5 -102.5t-130.5 -245.5q-14 -143 77 -246.5t237 -103.5q49 0 98 12q39 16 75 -7.5t54.5 -68.5t3 -94.5t-54.5 -69.5z" glyph-name="q" horiz-adv-x="1488" unicode="q"/><glyph d="M203 778l33 301q4 51 50 87t105.5 36t97 -36t33.5 -87l-2 -24h4q150 166 332 166q70 0 102.5 -10.5t83.5 -41.5q33 -20 38 -69t-23.5 -94t-68.5 -69t-77 -7q-43 12 -94 12q-104 0 -197.5 -57.5t-142.5 -149.5q-45 -80 -143 -80q-59 0 -97 36t-34 87zM133 106l35 324 q4 51 50 87t105.5 36t97.5 -36t34 -87l-35 -324q-6 -51 -51 -86.5t-104.5 -35.5t-98.5 35.5t-33 86.5z" glyph-name="r" horiz-adv-x="989" unicode="r"/><glyph d="M293 303q135 -78 317 -88q229 0 244 123q6 55 -30 86t-97 43t-136 20.5t-148.5 26.5t-132 52t-90.5 108t-19 184q18 176 153 269.5t361 93.5q209 0 379 -88q35 -16 42 -61.5t-18 -92.5q-29 -47 -73 -67.5t-82 -0.5q-119 61 -275 62q-182 0 -192 -115q-6 -51 29.5 -80.5 t97 -42t137.5 -23t149.5 -29.5t133 -55t90 -110t20.5 -180q-20 -186 -177 -279.5t-392 -93.5q-254 0 -443 109q-35 23 -40 71t24 95q31 49 79 67.5t89 -4.5z" glyph-name="s" horiz-adv-x="1181" unicode="s"/><glyph d="M406 829q57 0 96 -35.5t35 -84.5l-39 -359q-2 -31 16 -51t47 -20h33q45 0 72.5 -41t21.5 -98.5t-42 -98.5t-81 -41h-53q-174 0 -246.5 86t-54.5 264l39 359q4 49 50.5 84.5t105.5 35.5zM299 1186l18 164q4 49 50.5 84.5t105.5 35.5q57 0 96 -35.5t35 -84.5l-18 -164h102 q45 0 72.5 -37t23.5 -90q-6 -53 -41.5 -90t-80.5 -37h-424q-45 0 -73 38t-22 89q4 51 40 89t81 38h35z" glyph-name="t" horiz-adv-x="727" unicode="t"/><glyph d="M942 106l102 973q4 51 50.5 87t106 36t97 -36t33.5 -87l-102 -973q-6 -51 -51 -86.5t-104.5 -35.5t-98.5 35.5t-33 86.5zM522 1079l-61 -573q-12 -125 48 -201t185 -61l39 4q43 4 75 -27t36 -80q4 -51 -20.5 -91t-67.5 -54q-76 -31 -178 -31q-207 0 -319 139.5t-87 364.5 l64 610q4 51 50 87t105.5 36t97 -36t33.5 -87z" glyph-name="u" unicode="u"/><glyph d="M784 72q-51 -88 -162.5 -88t-144.5 88l-336 942q-16 45 11.5 96t83.5 76q57 27 109 11.5t69 -62.5l256 -695l403 695q27 47 81 62t106 -11q51 -25 69.5 -76t-8.5 -96z" glyph-name="v" horiz-adv-x="1249" unicode="v"/><glyph d="M1935 1026l-471 -960q-16 -35 -59 -58.5t-96 -23.5q-55 0 -95 23.5t-47 58.5l-168 608l-294 -608q-16 -35 -59.5 -58.5t-96.5 -23.5q-55 0 -95 23.5t-46 58.5l-269 960q-16 47 16.5 95t92.5 69q57 23 107.5 3.5t62.5 -67.5l178 -682l326 689q12 31 49 50t84 19 q45 0 77.5 -19.5t41.5 -49.5l182 -689l321 682q25 47 79 65.5t107.5 -2t75 -69.5t-3.5 -94z" glyph-name="w" horiz-adv-x="1861" unicode="w"/><glyph d="M289 20q-39 -39 -93.5 -37.5t-95.5 42.5q-41 39 -42 94t36 92l963 954q39 39 93 38t95 -42q39 -39 41 -94t-35 -92zM340 768l-164 207q-31 37 -18.5 92t61.5 94q49 41 104.5 42t84.5 -38l165 -207q29 -37 17 -92t-62 -94q-49 -41 -104 -42t-84 38zM938 20l-166 207 q-29 37 -16.5 92.5t61.5 94.5q47 41 103.5 42t85.5 -38l163 -207q31 -37 18 -91t-61 -95q-49 -41 -104 -42.5t-84 37.5z" glyph-name="x" horiz-adv-x="1222" unicode="x"/><glyph d="M379 -352q-51 25 -68.5 76t8.5 96l754 1315q27 47 81 62t106 -11q51 -25 69.5 -76t-8.5 -96l-754 -1315q-27 -47 -81 -62.5t-107 11.5zM516 414q-57 -27 -109.5 -11.5t-68.5 62.5l-197 549q-16 45 11.5 96t83.5 76q57 27 109 11.5t69 -62.5l198 -549q16 -47 -12.5 -97 t-83.5 -75z" glyph-name="y" horiz-adv-x="1249" unicode="y"/><glyph d="M1130 129q-4 -53 -39.5 -91t-80.5 -38h-836q-45 0 -74.5 39t-25.5 90q6 53 51 98l639 695v4h-498q-45 0 -72.5 39t-21.5 92q4 53 40 91t81 38h835q45 0 73 -38t24 -91q-6 -57 -47 -99l-639 -694v-4h497q45 0 72.5 -39t21.5 -92z" glyph-name="z" horiz-adv-x="1179" unicode="z"/><glyph d="M891 1432q-4 -43 -33 -74t-65 -31q-45 0 -79 -30.5t-38 -75.5l-43 -418q-14 -123 -139 -209q109 -92 94 -209l-43 -420q-4 -45 21.5 -75.5t70.5 -30.5q37 0 59.5 -31t18.5 -74t-33 -73.5t-66 -30.5q-131 0 -214 92t-68 223l43 420q4 41 -21.5 71.5t-68.5 30.5h-17 q-37 0 -59.5 31t-18 74t33 73.5t65.5 30.5h16q43 0 77 32t38 75l43 418q14 131 115.5 223t232.5 92q37 0 59.5 -30.5t18.5 -73.5z" glyph-name="braceleft" horiz-adv-x="786" unicode="{"/><glyph d="M246 -305v1796q0 27 21.5 44t50 17t50 -17t21.5 -44v-1796q0 -27 -21.5 -44.5t-50 -17.5t-50 17.5t-21.5 44.5z" glyph-name="bar" horiz-adv-x="634" unicode="|"/><glyph d="M194.5 1432q4.5 43 33 73.5t65.5 30.5q131 0 214 -92t68 -223l-43 -418q-4 -43 22 -75t69 -32h16q37 0 59.5 -30.5t18.5 -73.5t-33 -74t-66 -31h-16q-43 0 -76.5 -30.5t-38.5 -71.5l-43 -420q-14 -131 -115.5 -223t-232.5 -92q-37 0 -59.5 30.5t-18 73.5t33 74t65.5 31 q45 0 78.5 30.5t37.5 75.5l43 420q14 119 140 209q-109 90 -94 209l43 418q4 45 -22 75.5t-71 30.5q-37 0 -59.5 31t-18 74z" glyph-name="braceright" horiz-adv-x="786" unicode="}"/><glyph d="M944 657q-14 -137 -133 -200q-92 -53 -191.5 -25.5t-154.5 121.5q-23 37 -60.5 48t-72.5 -9q-39 -16 -47 -78q-4 -35 -30 -54.5t-60 -15.5q-33 4 -53.5 29t-16.5 55q14 137 133 201q92 53 191.5 25.5t154.5 -121.5q23 -37 60.5 -48.5t72.5 9.5q39 16 47 78q4 35 30 54 t60 15q33 -4 53.5 -28.5t16.5 -55.5z" glyph-name="asciitilde" horiz-adv-x="1069" unicode="~"/><glyph glyph-name="uni00A0" horiz-adv-x="1024" unicode=" "/><glyph d="M133 104l127 938q4 39 41 67t82 28t74.5 -28t25.5 -67l-69 -938q-6 -49 -50.5 -83.5t-101.5 -34.5t-96 34.5t-33 83.5zM567 1395q-6 -63 -57 -108.5t-116.5 -45.5t-106.5 45t-35 109q8 68 58 112.5t116 44.5t107.5 -44.5t33.5 -112.5z" glyph-name="exclamdown" horiz-adv-x="528" unicode="¡"/><glyph d="M297 139q-182 178 -154 455q27 270 248 455q39 35 93.5 28.5t90.5 -49.5q39 -45 38 -99.5t-42 -88.5q-111 -98 -127 -246q-16 -143 74 -246q33 -35 23.5 -89t-56.5 -99q-45 -43 -101 -49.5t-87 28.5zM756 246q129 0 231 82q41 35 94.5 29.5t87.5 -46.5q39 -43 37 -97 t-49 -93q-129 -104 -289 -139l-12 -109q-4 -35 -47 -60.5t-100.5 -25.5t-96.5 25.5t-34 60.5l30 287q4 35 47.5 60.5t100.5 25.5zM829 942q-57 0 -96 25.5t-35 60.5l31 287q4 35 47 60.5t100.5 25.5t96.5 -25.5t35 -60.5l-13 -109q156 -35 260 -139q41 -41 33 -93t-59 -97 q-43 -41 -98.5 -46.5t-86.5 29.5q-88 82 -215 82z" glyph-name="cent" horiz-adv-x="1255" unicode="¢"/><glyph d="M135 123l62 592q6 51 52 87t105 36h594q51 0 83 -42t26 -99.5t-46 -98.5t-91 -41h-449l-29 -278h590q51 0 83 -41t26 -98.5t-46 -98.5t-91 -41h-736q-59 0 -99 36t-34 87zM524 1069q-4 -47 -51 -81t-106.5 -34t-98.5 34t-35 81q23 207 186 354.5t369.5 147.5t339 -147.5 t109.5 -354.5q-4 -47 -51 -81t-106.5 -34t-98.5 34t-35 81q10 88 -45 149.5t-143 61.5t-157 -61.5t-77 -149.5z" glyph-name="sterling" horiz-adv-x="1198" unicode="£"/><glyph d="M1386 594q0 -213 -124 -377l65 -65q25 -27 22 -67t-34 -69q-29 -31 -69 -33.5t-66 21.5l-72 70q-162 -109 -371 -109t-370 109l-70 -70q-27 -25 -67 -21.5t-68 33.5q-31 29 -34 69t22 67l65 65q-125 160 -125 377q0 207 125 375l-65 65q-25 27 -22 67t34 68 q29 31 68.5 34t66.5 -21l70 -70q162 109 370 109q205 0 371 -111l72 72q27 25 66.5 21.5t68.5 -34.5q31 -29 34 -68.5t-22 -66.5l-65 -65q124 -168 124 -375zM1087 594q0 143 -102 245.5t-248 102.5q-143 0 -244.5 -102.5t-101.5 -245.5q0 -145 101.5 -247.5t244.5 -102.5 q145 0 247.5 102.5t102.5 247.5z" glyph-name="currency" horiz-adv-x="1476" unicode="¤"/><glyph d="M1294 946h-176l-200 -219l-66 -621q-6 -51 -52 -86.5t-106 -35.5q-61 0 -100 35.5t-33 86.5l72 691q6 33 33 63l598 651q37 41 93 42t97 -35q45 -37 51 -91.5t-30 -95.5l-195 -209h33q31 0 49 -25.5t14 -62.5t-27.5 -62.5t-54.5 -25.5zM444 1511l234 -344 q29 -41 11.5 -95t-68.5 -91q-47 -35 -111 -35h-219q-31 0 -48.5 26.5t-13.5 61.5t27 61.5t53 26.5h29l-141 209q-27 41 -10.5 95.5t67.5 91t107 35.5t83 -42zM1260 608h-185q-31 0 -49 25.5t-14 62.5t27.5 62.5t54.5 25.5h184q31 0 48 -26.5t13 -61t-26 -61.5t-53 -27z M440 608h-184q-31 0 -49.5 25.5t-14 62.5t28 62.5t53.5 25.5h185q31 0 48 -26.5t13 -61t-26.5 -61.5t-53.5 -27z" glyph-name="yen" horiz-adv-x="1392" unicode="¥"/><glyph d="M227 682q-43 0 -73.5 25.5t-30.5 60.5v455q0 35 30.5 60.5t73.5 25.5t74 -26t31 -60v-455q0 -35 -31 -60.5t-74 -25.5zM227 -119q-43 0 -73.5 25.5t-30.5 60.5v453q0 35 30.5 60.5t73.5 25.5t74 -25.5t31 -60.5v-453q0 -35 -31 -60.5t-74 -25.5z" glyph-name="brokenbar" horiz-adv-x="454" unicode="¦"/><glyph d="M1139 602q-8 -72 -57.5 -105.5t-120.5 -25.5q-55 6 -90 42t-29 81q10 68 -42 113t-134 45q-209 0 -335 113.5t-108 287.5q18 184 168 301t361 117q162 0 279.5 -83t146.5 -212q14 -45 -19 -92t-88 -67.5t-103 -4.5t-63 62q-41 117 -182 116q-84 0 -140.5 -35.5 t-64.5 -105.5q-6 -63 46 -100t128 -37q213 0 340 -112t107 -298zM164 586q8 72 57 105.5t121 25.5q55 -6 90 -42t29 -81q-10 -68 42 -113t134 -45q209 0 335 -113.5t107 -287.5q-18 -184 -167.5 -301t-360.5 -117q-162 0 -279.5 83t-146.5 212q-14 45 18.5 92t88 67.5 t103.5 4t62 -61.5q41 -117 183 -116q84 0 140 35.5t62 105.5q8 63 -44 100t-128 37q-213 0 -339.5 112t-106.5 298z" glyph-name="section" horiz-adv-x="1179" unicode="§"/><glyph d="M393 1466q-4 -43 -39 -73.5t-75 -30.5q-45 0 -72 30.5t-23 73.5t38 74t79 31q41 0 68.5 -31t23.5 -74zM799 1466q-4 -43 -38 -73.5t-79 -30.5q-43 0 -69.5 30.5t-22.5 73.5t38 74t77 31q45 0 71.5 -31t22.5 -74z" glyph-name="dieresis" horiz-adv-x="675" unicode="¨"/><glyph d="M1264 594q0 229 -162 391t-393 162q-229 0 -391 -162t-162 -391t161.5 -392t391.5 -163q231 0 393 163t162 392zM1337 594q0 -262 -183 -445.5t-445 -183.5q-260 0 -443.5 184.5t-183.5 444.5t183.5 443.5t443.5 183.5t444 -183.5t184 -443.5zM905 424q16 20 44 21 t50 -19q23 -18 27 -46t-12 -46q-125 -141 -303 -141q-172 0 -292 115.5t-120 285.5t120 285.5t292 115.5q174 0 303 -141q16 -18 12 -47t-26.5 -47.5t-50 -17.5t-44.5 20q-96 92 -194 92q-109 0 -185.5 -76t-76.5 -184.5t76.5 -185t185.5 -76.5q59 0 102 22.5t92 69.5z" glyph-name="copyright" horiz-adv-x="1419" unicode="©"/><glyph d="M608 969q-51 -27 -129 -27q-125 0 -202.5 90t-63.5 225q14 133 110.5 223.5t221.5 90.5q123 0 188 -105h2l2 33q2 27 25.5 44.5t52.5 17.5q31 0 49.5 -17.5t14.5 -44.5l-50 -485q-2 -27 -25.5 -44.5t-53.5 -17.5q-29 0 -47.5 17.5t-14.5 44.5l25 243q8 72 -38 123.5 t-118 51.5t-128 -51.5t-64.5 -123t38 -124t117.5 -52.5q25 0 47 6q20 8 39 -3t27 -33q10 -23 2.5 -47.5t-27.5 -34.5z" glyph-name="ordfeminine" horiz-adv-x="825" unicode="ª"/><glyph d="M158 662l338 305q29 27 67.5 22.5t67.5 -35.5q27 -31 25.5 -70.5t-29.5 -66.5l-246 -223l203 -232q23 -25 15.5 -64.5t-38.5 -68.5q-35 -29 -72.5 -31.5t-60.5 23.5l-272 303q-27 31 -26 71t28 67zM588 662l338 305q29 27 67.5 22.5t67.5 -35.5q27 -31 25.5 -70.5 t-29.5 -66.5l-246 -223l203 -232q23 -25 15.5 -64.5t-38.5 -68.5q-35 -29 -72.5 -31.5t-60.5 23.5l-272 303q-27 31 -26 71t28 67z" glyph-name="guillemotleft" horiz-adv-x="1067" unicode="«"/><glyph d="M682 334q-43 0 -73.5 26.5t-30.5 63.5v63h-381q-37 0 -64 31t-27 74t27 73.5t64 30.5h485q43 0 73.5 -26.5t30.5 -63.5v-182q0 -37 -30.5 -63.5t-73.5 -26.5z" glyph-name="logicalnot" horiz-adv-x="909" unicode="¬"/><glyph d="M571 1327q0 -100 -71.5 -173t-171.5 -73q-102 0 -174 72t-72 174q0 100 72.5 172t173 72t172 -72t71.5 -172zM543 1327q0 88 -62.5 150.5t-152.5 62.5t-153.5 -62.5t-63.5 -150.5q0 -90 63.5 -153.5t153.5 -63.5t152.5 63.5t62.5 153.5zM459 1174h-64l-57 114h-68v-114 h-55v313h141q43 0 73 -28.5t30 -69.5q0 -63 -62 -95zM270 1343h86q20 0 32.5 13.5t12.5 32.5q0 16 -12 28.5t-33 12.5h-86v-87z" glyph-name="registered" horiz-adv-x="653" unicode="®"/><glyph d="M258 1456q4 35 25.5 57.5t48.5 22.5h284q29 0 45.5 -23.5t12.5 -56.5q-2 -33 -23.5 -56.5t-50.5 -23.5h-285q-27 0 -44 22.5t-13 57.5z" glyph-name="macron" horiz-adv-x="628" unicode="¯"/><glyph d="M399 1362q0 35 -25.5 60.5t-62.5 25.5q-35 0 -60.5 -25.5t-25.5 -60.5q0 -37 25.5 -62.5t60.5 -25.5q37 0 62.5 25.5t25.5 62.5zM520 1362q0 -86 -60.5 -147.5t-148.5 -61.5q-86 0 -147.5 61.5t-61.5 147.5q0 88 61.5 148.5t147.5 60.5q88 0 148.5 -60.5t60.5 -148.5z " glyph-name="degree" horiz-adv-x="622" unicode="°"/><glyph d="M698 334q-43 0 -73.5 25.5t-30.5 60.5v244h-422q-35 0 -60.5 30.5t-25.5 73.5t25.5 73.5t60.5 30.5h422v244q0 35 30.5 60.5t73.5 25.5t74 -25.5t31 -60.5v-244h418q35 0 60.5 -30.5t25.5 -73.5t-26 -73.5t-60 -30.5h-418v-244q0 -35 -31 -60.5t-74 -25.5zM86 104 q0 43 25.5 74t60.5 31h1049q35 0 60.5 -31t25.5 -74t-26 -73.5t-60 -30.5h-1049q-35 0 -60.5 30.5t-25.5 73.5z" glyph-name="plusminus" horiz-adv-x="1392" unicode="±"/><glyph d="M217 1290q10 113 96 187.5t201 74.5q117 0 187.5 -69.5t58.5 -182.5q-12 -115 -123 -196l-236 -197h242q25 0 40 -20.5t11 -49t-22.5 -49t-42.5 -20.5h-377q-31 0 -50.5 25.5t-17.5 62.5q6 49 43 76l332 276q45 43 51 92q6 51 -26.5 83t-83.5 32q-49 0 -88 -36t-45 -89 q-2 -27 -28 -45t-56.5 -18t-50 18t-15.5 45z" glyph-name="uni00B2" horiz-adv-x="706" unicode="²"/><glyph d="M532 1106q-16 16 -13 43t22 49q23 23 49 29t45 -8q94 -76 80 -207q-10 -111 -97.5 -185.5t-199.5 -74.5q-94 0 -158.5 58t-75.5 146q-4 23 14.5 44.5t47 27.5t51 -7t25.5 -36q4 -41 34.5 -68.5t75.5 -27.5q49 0 89 36t44 87q6 51 -33 94zM324 1241l174 158h-172 q-25 0 -40.5 19.5t-11 48t22.5 49t43 20.5h340q27 0 43 -21.5t12 -50.5q-6 -35 -28 -57l-295 -264q-18 -16 -44 -13t-44.5 23.5t-18 46t18.5 41.5z" glyph-name="uni00B3" horiz-adv-x="692" unicode="³"/><glyph d="M633 1403l-264 -68q-39 -12 -50 33q-12 51 31 76q2 0 4 2l252 121q59 27 86 -33q25 -59 -14 -104q-16 -19 -45 -27z" glyph-name="acute" horiz-adv-x="718" unicode="´"/><glyph d="M522 1079l-61 -573q-10 -111 58.5 -192t174.5 -70l39 4q43 4 75 -27t36 -80q4 -51 -20.5 -91t-67.5 -54q-76 -31 -158 -31q-102 0 -184 78l-31 -287q-4 -51 -50 -87t-105.5 -36t-97.5 36t-34 87l111 1053l2 25l27 245q4 51 50 87t105.5 36t97 -36t33.5 -87zM942 106 l102 973q4 51 50.5 87t106 36t97 -36t33.5 -87l-102 -973q-6 -51 -51 -86.5t-104.5 -35.5t-98.5 35.5t-33 86.5z" glyph-name="uni00B5" unicode="µ"/><glyph d="M1040 1255h-122l-125 -1181q-2 -37 -36 -63.5t-77 -26.5t-71.5 26.5t-24.5 63.5l141 1339q4 51 51 87t107 36h250q59 0 98 -36t35 -87l-142 -1339q-2 -37 -35.5 -63.5t-76.5 -26.5t-72 26.5t-25 63.5zM459 1546q45 16 90 -11.5t61 -80.5q14 -47 -2 -94t-55 -74 q-70 -41 -80 -121q-6 -82 53 -121q33 -27 40 -72.5t-17 -94.5q-27 -53 -77 -81t-93 -12q-106 51 -163.5 151.5t-43.5 229.5t92 230.5t195 150.5z" glyph-name="paragraph" horiz-adv-x="1241" unicode="¶"/><glyph d="M274 436q-63 0 -105 46t-36 112q6 63 57.5 110.5t116.5 47.5q63 0 105.5 -46.5t36.5 -111.5q-6 -63 -57.5 -110.5t-117.5 -47.5z" glyph-name="periodcentered" horiz-adv-x="561" unicode="·"/><glyph d="M176 -291q-4 18 9.5 34.5t31.5 20.5q20 4 34.5 -4t16.5 -24q14 -61 78 -62q35 0 63.5 25t30.5 61q4 35 -18.5 60.5t-56.5 25.5q-27 0 -54 -18q-31 -20 -55 -12q-20 2 -31.5 18t-7.5 35l37 131h92l-20 -78q18 10 61 10q80 0 121 -48t32.5 -123.5t-67.5 -127t-137 -51.5 q-63 0 -106.5 35t-53.5 92z" glyph-name="cedilla" horiz-adv-x="772" unicode="¸"/><glyph d="M319 821l56 541l-82 -49q-23 -12 -45.5 -4t-34.5 30q-10 23 -4 47.5t24 34.5l189 111q20 12 45 12q31 0 49.5 -17.5t15.5 -43.5l-69 -662q-4 -25 -26.5 -43t-53.5 -18q-29 0 -48.5 18t-15.5 43z" glyph-name="uni00B9" horiz-adv-x="479" unicode="¹"/><glyph d="M713 1259.5q8 71.5 -38 123t-120 51.5q-70 0 -126 -51.5t-64.5 -123t38 -124t115.5 -52.5q74 0 130.5 52.5t64.5 124zM862.5 1259.5q-14.5 -133.5 -118 -224.5t-240.5 -91q-135 0 -220 91t-71 224.5t117.5 223.5t239 90t221.5 -90t71.5 -223.5z" glyph-name="ordmasculine" horiz-adv-x="813" unicode="º"/><glyph d="M772 967l272 -305q25 -27 17 -67t-43 -71l-334 -303q-29 -27 -66.5 -23.5t-66.5 31.5q-25 29 -24 69t30 64l252 232l-201 223q-23 27 -15.5 67t40.5 70q37 31 76.5 35.5t62.5 -22.5zM342 967l272 -305q25 -27 17 -67t-43 -71l-334 -303q-29 -27 -66.5 -23.5t-66.5 31.5 q-25 29 -24 69t30 64l252 232l-201 223q-23 27 -15.5 67t40.5 70q37 31 76.5 35.5t62.5 -22.5z" glyph-name="guillemotright" horiz-adv-x="1067" unicode="»"/><glyph d="M319 821l56 541l-82 -49q-23 -12 -45.5 -4t-34.5 30q-10 23 -4 47.5t24 34.5l189 111q20 12 45 12q31 0 49.5 -17.5t15.5 -43.5l-69 -662q-4 -25 -26.5 -43t-53.5 -18q-29 0 -48.5 18t-15.5 43zM293 55l770 1471q10 20 32.5 26.5t41.5 -4.5q20 -10 28.5 -28.5t-2.5 -38.5 l-768 -1471q-10 -20 -32.5 -26.5t-40.5 4.5q-49 22 -29 67zM1090 401l14 125l-205 -247h358q25 0 40.5 -20.5t11.5 -49.5t-22.5 -49.5t-43.5 -20.5h-35l-10 -86q-2 -25 -25.5 -43t-52.5 -18q-31 0 -50 18.5t-17 42.5l10 86h-262q-35 0 -55.5 28t-18.5 66q6 37 29 62l348 444 q33 37 82 37q37 0 60.5 -21.5t19.5 -54.5l-31 -299q-2 -27 -25.5 -44t-52.5 -17q-31 0 -50 17t-17 44z" glyph-name="onequarter" horiz-adv-x="1329" unicode="¼"/><glyph d="M319 821l56 541l-82 -49q-23 -12 -45.5 -4t-34.5 30q-10 23 -4 47.5t24 34.5l189 111q20 12 45 12q31 0 49.5 -17.5t15.5 -43.5l-69 -662q-4 -25 -26.5 -43t-53.5 -18q-29 0 -48.5 18t-15.5 43zM293 55l770 1471q10 20 32.5 26.5t41.5 -4.5q20 -10 28.5 -28.5t-2.5 -38.5 l-768 -1471q-10 -20 -32.5 -26.5t-40.5 4.5q-49 22 -29 67zM883 522q12 113 98 187.5t201 74.5q117 0 187.5 -69.5t57.5 -182.5q-12 -111 -122 -196l-236 -197h242q25 0 40 -20.5t11 -49t-22.5 -49t-43.5 -20.5h-376q-31 0 -51.5 25.5t-16.5 62.5q6 49 43 76l330 276 q47 45 53 92q4 51 -27.5 83t-83.5 32q-49 0 -88 -36t-47 -89q-2 -27 -26.5 -45t-55 -18t-50 18t-17.5 45z" glyph-name="onehalf" horiz-adv-x="1454" unicode="½"/><glyph d="M432 55l770 1471q10 20 32.5 26.5t41.5 -4.5q20 -10 28.5 -28.5t-1.5 -38.5l-768 -1471q-10 -20 -33 -26.5t-41 4.5q-49 22 -29 67zM532 1106q-16 16 -13 43t22 49q23 23 49 29t45 -8q94 -76 80 -207q-10 -111 -97.5 -185.5t-199.5 -74.5q-94 0 -158.5 58t-75.5 146 q-4 23 14.5 44.5t47 27.5t51 -7t25.5 -36q4 -41 34.5 -68.5t75.5 -27.5q49 0 89 36t44 87q6 51 -33 94zM324 1241l174 158h-172q-25 0 -40.5 19.5t-11 48t22.5 49t43 20.5h340q27 0 43 -21.5t12 -50.5q-6 -35 -28 -57l-295 -264q-18 -16 -44 -13t-44.5 23.5t-18 46 t18.5 41.5zM1210 401l15 125l-205 -247h358q25 0 40.5 -20.5t11 -49.5t-22.5 -49.5t-43 -20.5h-35l-10 -86q-2 -25 -25.5 -43t-52.5 -18q-31 0 -50.5 18.5t-16.5 42.5l10 86h-262q-35 0 -55.5 28t-18.5 66q6 37 29 62l348 444q33 37 82 37q37 0 60.5 -21.5t18.5 -54.5 l-30 -299q-2 -27 -25.5 -44t-52.5 -17q-31 0 -50.5 17t-17.5 44z" glyph-name="threequarters" horiz-adv-x="1449" unicode="¾"/><glyph d="M872 1065l-22 -211q-4 -51 -47 -87t-103 -36q-100 0 -180 -71.5t-90 -174.5q-10 -100 54.5 -171.5t164.5 -71.5q88 0 160 53t100 137q14 47 65.5 72.5t104.5 13.5q55 -10 84 -53t13 -90q-57 -176 -213 -293t-342 -117q-227 0 -369.5 148.5t-120.5 371.5 q20 190 153.5 328.5t305.5 169.5l8 82q6 53 48 88t101.5 35t95 -35t29.5 -88zM614 1397q8 66 58.5 111.5t113.5 45.5q66 0 108 -46t34 -111q-6 -66 -57.5 -112t-116.5 -46q-63 0 -104.5 46t-35.5 112z" glyph-name="questiondown" horiz-adv-x="1210" unicode="¿"/><glyph d="M1028 1612l-250 67q-49 14 -51 63.5t34 85.5t79 15l227 -121q39 -20 19.5 -71t-58.5 -39zM956 715l-102 407h-16l-510 -1067q-27 -45 -80 -62.5t-111 1.5q-51 23 -72.5 72t1.5 96l639 1292q55 98 186 98t166 -98l180 -633q10 -49 -18.5 -97t-85.5 -71q-59 -18 -112 -0.5 t-65 62.5zM618.5 419.5q6.5 57.5 45 98.5t88.5 41h454q51 0 88 -27.5t43 -68.5l88 -301q12 -47 -19.5 -96.5t-88.5 -71.5q-59 -18 -110.5 -1t-67.5 62l-74 224h-342q-49 0 -80 41.5t-24.5 99z" glyph-name="Agrave" horiz-adv-x="1458" unicode="À"/><glyph d="M1012 1679l-267 -67q-39 -12 -49 33q-12 51 31 75q2 0 4 2l252 121q59 25 86 -33q27 -59 -12 -104q-18 -19 -45 -27zM956 715l-102 407h-16l-510 -1067q-27 -45 -80 -62.5t-111 1.5q-51 23 -72.5 72t1.5 96l639 1292q55 98 186 98t166 -98l180 -633q10 -49 -18.5 -97 t-85.5 -71q-59 -18 -112 -0.5t-65 62.5zM618.5 419.5q6.5 57.5 45 98.5t88.5 41h454q51 0 88 -27.5t43 -68.5l88 -301q12 -47 -19.5 -96.5t-88.5 -71.5q-59 -18 -110.5 -1t-67.5 62l-74 224h-342q-49 0 -80 41.5t-24.5 99z" glyph-name="Aacute" horiz-adv-x="1458" unicode="Á"/><glyph d="M911 1743l-135 -115q-18 -16 -43.5 -12t-42.5 24q-37 51 8 89l176 153q23 18 53.5 18.5t49.5 -18.5l141 -153q18 -16 15 -41t-23 -48q-20 -20 -47 -24t-41 12zM956 715l-102 407h-16l-510 -1067q-27 -45 -80 -62.5t-111 1.5q-51 23 -72.5 72t1.5 96l639 1292 q55 98 186 98t166 -98l180 -633q10 -49 -18.5 -97t-85.5 -71q-59 -18 -112 -0.5t-65 62.5zM618.5 419.5q6.5 57.5 45 98.5t88.5 41h454q51 0 88 -27.5t43 -68.5l88 -301q12 -47 -19.5 -96.5t-88.5 -71.5q-59 -18 -110.5 -1t-67.5 62l-74 224h-342q-49 0 -80 41.5t-24.5 99z " glyph-name="Acircumflex" horiz-adv-x="1458" unicode="Â"/><glyph d="M670 1651q6 61 54 106t112 45q90 0 120 -80q8 -20 35 -20q37 0 43 39q2 18 19.5 31.5t40 13.5t38 -13.5t13.5 -31.5q-8 -66 -56.5 -109t-109.5 -43q-86 0 -125 78q-8 23 -31 23q-37 0 -43 -39q-2 -18 -19.5 -31.5t-40 -13.5t-37.5 13.5t-13 31.5zM956 715l-102 407h-16 l-510 -1067q-27 -45 -80 -62.5t-111 1.5q-51 23 -72.5 72t1.5 96l639 1292q55 98 186 98t166 -98l180 -633q10 -49 -18.5 -97t-85.5 -71q-59 -18 -112 -0.5t-65 62.5zM618.5 419.5q6.5 57.5 45 98.5t88.5 41h454q51 0 88 -27.5t43 -68.5l88 -301q12 -47 -19.5 -96.5 t-88.5 -71.5q-59 -18 -110.5 -1t-67.5 62l-74 224h-342q-49 0 -80 41.5t-24.5 99z" glyph-name="Atilde" horiz-adv-x="1458" unicode="Ã"/><glyph d="M809 1718q-4 -43 -39 -73.5t-76 -30.5q-45 0 -71.5 30.5t-22.5 73.5q4 45 38 75t79 30q43 0 69.5 -31t22.5 -74zM1217 1718q-4 -43 -39 -73.5t-80 -30.5q-43 0 -70 30.5t-22 73.5q4 45 37.5 75t76.5 30q45 0 73 -30t24 -75zM956 715l-102 407h-16l-510 -1067 q-27 -45 -80 -62.5t-111 1.5q-51 23 -72.5 72t1.5 96l639 1292q55 98 186 98t166 -98l180 -633q10 -49 -18.5 -97t-85.5 -71q-59 -18 -112 -0.5t-65 62.5zM618.5 419.5q6.5 57.5 45 98.5t88.5 41h454q51 0 88 -27.5t43 -68.5l88 -301q12 -47 -19.5 -96.5t-88.5 -71.5 q-59 -18 -110.5 -1t-67.5 62l-74 224h-342q-49 0 -80 41.5t-24.5 99z" glyph-name="Adieresis" horiz-adv-x="1458" unicode="Ä"/><glyph d="M967 1743q2 23 -12.5 38t-37 15t-41 -16.5t-20.5 -36.5q-2 -25 12.5 -41t37 -16t41 16t20.5 41zM1063 1743q-6 -63 -56.5 -108.5t-111.5 -45.5t-101 45t-34 109q6 61 56 105t111.5 44t101.5 -44t34 -105zM956 715l-102 407h-16l-510 -1067q-27 -45 -80 -62.5t-111 1.5 q-51 23 -72.5 72t1.5 96l639 1292q55 98 186 98t166 -98l180 -633q10 -49 -18.5 -97t-85.5 -71q-59 -18 -112 -0.5t-65 62.5zM618.5 419.5q6.5 57.5 45 98.5t88.5 41h454q51 0 88 -27.5t43 -68.5l88 -301q12 -47 -19.5 -96.5t-88.5 -71.5q-59 -18 -110.5 -1t-67.5 62 l-74 224h-342q-49 0 -80 41.5t-24.5 99z" glyph-name="Aring" horiz-adv-x="1458" unicode="Å"/><glyph d="M1065 123l70 663q4 51 51 87t106 36h736q51 0 82.5 -42t25.5 -99t-46 -98t-91 -41h-590l-37 -350h731q51 0 83 -41t26 -98.5t-46 -98.5t-91 -41h-877q-59 0 -99 36t-34 87zM885 559q51 0 82.5 -42t25.5 -99.5t-46 -98t-91 -40.5h-369l-200 -248q-35 -41 -89.5 -47.5 t-101.5 28.5q-45 33 -52 87.5t26 95.5l262 315q39 49 102 49h451zM2234 1536q51 0 83 -42t26 -99.5t-46 -98.5t-91 -41h-914l-440 -546q-35 -41 -89 -47.5t-101 28.5q-45 33 -53.5 87t26.5 95l502 615q39 49 102 49h995z" glyph-name="AE" horiz-adv-x="2263" unicode="Æ"/><glyph d="M1331 430q37 39 91.5 41t97.5 -37q41 -37 43 -93t-35 -93q-283 -283 -637 -283q-27 0 -41 2l-10 -45q18 10 61 10q80 0 121 -48t33 -123.5t-67.5 -127t-137.5 -51.5q-63 0 -106.5 35t-53.5 92q-4 18 9.5 34.5t31.5 20.5q20 4 34.5 -4t16.5 -24q14 -61 78 -62 q35 0 63.5 25t30.5 61q4 35 -18.5 60.5t-56.5 25.5q-27 0 -54 -18q-31 -20 -55 -12q-20 2 -31.5 18t-7.5 35l29 106q-293 45 -467 267.5t-141 525.5q23 223 152.5 408.5t329.5 290t425 104.5q356 0 579 -283q29 -37 14.5 -93t-63.5 -93q-51 -39 -104 -37t-84 41 q-86 92 -168 138t-203 46q-217 0 -386 -152.5t-191.5 -369.5t113.5 -369.5t354 -152.5q121 0 211.5 46t199.5 138z" glyph-name="Ccedilla" horiz-adv-x="1601" unicode="Ç"/><glyph d="M1010 1612l-250 67q-49 14 -51 63.5t33.5 85.5t78.5 15l228 -121q39 -20 19.5 -71t-58.5 -39zM135 123l70 663q4 51 51 87t106 36h736q51 0 82.5 -42t25.5 -99t-46 -98t-91 -41h-590l-37 -350h732q51 0 82.5 -41t25.5 -98.5t-46 -98.5t-91 -41h-877q-59 0 -99 36t-34 87z M244 1153l26 260q4 51 51.5 87t106.5 36h877q51 0 82.5 -42t25.5 -99.5t-46 -98.5t-91 -41h-731l-10 -102q-6 -51 -53.5 -87t-107 -36t-98 36t-32.5 87z" glyph-name="Egrave" horiz-adv-x="1333" unicode="È"/><glyph d="M995 1679l-266 -67q-39 -12 -49 33q-12 51 31 75q2 0 4 2l252 121q59 25 86 -33q27 -59 -13 -104q-18 -19 -45 -27zM135 123l70 663q4 51 51 87t106 36h736q51 0 82.5 -42t25.5 -99t-46 -98t-91 -41h-590l-37 -350h732q51 0 82.5 -41t25.5 -98.5t-46 -98.5t-91 -41h-877 q-59 0 -99 36t-34 87zM244 1153l26 260q4 51 51.5 87t106.5 36h877q51 0 82.5 -42t25.5 -99.5t-46 -98.5t-91 -41h-731l-10 -102q-6 -51 -53.5 -87t-107 -36t-98 36t-32.5 87z" glyph-name="Eacute" horiz-adv-x="1333" unicode="É"/><glyph d="M870 1743l-135 -115q-18 -16 -43.5 -12t-42.5 24q-37 51 8 89l177 153q23 18 53.5 18.5t48.5 -18.5l141 -153q18 -16 15.5 -41t-23.5 -48q-20 -20 -47 -24t-41 12zM135 123l70 663q4 51 51 87t106 36h736q51 0 82.5 -42t25.5 -99t-46 -98t-91 -41h-590l-37 -350h732 q51 0 82.5 -41t25.5 -98.5t-46 -98.5t-91 -41h-877q-59 0 -99 36t-34 87zM244 1153l26 260q4 51 51.5 87t106.5 36h877q51 0 82.5 -42t25.5 -99.5t-46 -98.5t-91 -41h-731l-10 -102q-6 -51 -53.5 -87t-107 -36t-98 36t-32.5 87z" glyph-name="Ecircumflex" horiz-adv-x="1333" unicode="Ê"/><glyph d="M749.5 1718q-4.5 -43 -39 -73.5t-75.5 -30.5q-45 0 -71.5 30.5t-22.5 73.5q4 45 37.5 75t78.5 30q43 0 70 -31t22.5 -74zM1157 1718q-4 -43 -39 -73.5t-80 -30.5q-43 0 -69.5 30.5t-22.5 73.5q4 45 38 75t77 30q45 0 72.5 -30t23.5 -75zM135 123l70 663q4 51 51 87 t106 36h736q51 0 82.5 -42t25.5 -99t-46 -98t-91 -41h-590l-37 -350h732q51 0 82.5 -41t25.5 -98.5t-46 -98.5t-91 -41h-877q-59 0 -99 36t-34 87zM244 1153l26 260q4 51 51.5 87t106.5 36h877q51 0 82.5 -42t25.5 -99.5t-46 -98.5t-91 -41h-731l-10 -102q-6 -51 -53.5 -87 t-107 -36t-98 36t-32.5 87z" glyph-name="Edieresis" horiz-adv-x="1333" unicode="Ë"/><glyph d="M567 1612l-250 67q-49 14 -51 63.5t34 85.5t79 15l227 -121q39 -20 19.5 -71t-58.5 -39zM133 106l139 1324q4 51 51.5 86.5t106.5 35.5t98 -35.5t35 -86.5l-139 -1324q-6 -51 -52 -86.5t-106 -35.5q-61 0 -100 35.5t-33 86.5z" glyph-name="Igrave" horiz-adv-x="536" unicode="Ì"/><glyph d="M571 1679l-266 -67q-39 -12 -49 33q-12 51 31 75q2 0 4 2l252 121q59 25 86 -33q27 -59 -13 -104q-18 -19 -45 -27zM133 106l139 1324q4 51 51.5 86.5t106.5 35.5t98 -35.5t35 -86.5l-139 -1324q-6 -51 -52 -86.5t-106 -35.5q-61 0 -100 35.5t-33 86.5z" glyph-name="Iacute" horiz-adv-x="536" unicode="Í"/><glyph d="M133 106l139 1324q4 51 51.5 86.5t106.5 35.5t98 -35.5t35 -86.5l-139 -1324q-6 -51 -52 -86.5t-106 -35.5q-61 0 -100 35.5t-33 86.5zM451 1743l-136 -115q-18 -16 -43.5 -12t-42.5 24q-37 51 9 89l176 153q20 18 53 19q31 0 49 -19l141 -153q18 -16 15.5 -41t-23.5 -48 q-20 -20 -47 -24t-41 12z" glyph-name="Icircumflex" horiz-adv-x="536" unicode="Î"/><glyph d="M362 1716q-4 -41 -37.5 -71.5t-76.5 -30.5q-45 0 -71.5 30.5t-22.5 71.5q4 45 37.5 76t78.5 31q43 0 69.5 -31t22.5 -76zM743 1716q-4 -41 -38.5 -71.5t-79.5 -30.5q-43 0 -69 30.5t-21 71.5q4 45 36.5 76t75.5 31q45 0 72.5 -31t23.5 -76zM133 106l139 1324 q4 51 51.5 86.5t106.5 35.5t98 -35.5t35 -86.5l-139 -1324q-6 -51 -52 -86.5t-106 -35.5q-61 0 -100 35.5t-33 86.5z" glyph-name="Idieresis" horiz-adv-x="536" unicode="Ï"/><glyph d="M201 383q6 51 52 87t105.5 36t99.5 -36t34 -87l-11 -104h244q201 0 359.5 143t179.5 346q20 201 -108 344t-329 143h-243l-11 -102q-6 -51 -53 -87t-106.5 -36t-98.5 36t-32 87l26 260q4 51 51.5 87t106.5 36h389q336 0 539.5 -218t169 -550t-283.5 -550t-585 -218h-389 q-59 0 -99 36t-34 87zM737 629h-528q-49 0 -80 41t-24.5 98t45 98t88.5 41h528q49 0 80 -41t24.5 -98t-45.5 -98t-88 -41z" glyph-name="Eth" horiz-adv-x="1556" unicode="Ð"/><glyph d="M133 106l137 1313q6 55 60.5 94t126.5 39q53 0 94 -24.5t57 -63.5l479 -954h7l94 920q4 51 51 86.5t106.5 35.5t98.5 -35.5t35 -86.5l-140 -1313q-4 -55 -58 -94t-126 -39q-53 0 -95 22.5t-56 59.5l-480 958h-6l-94 -918q-6 -51 -52 -86.5t-105.5 -35.5t-99.5 35.5 t-34 86.5zM662 1610q6 61 54 106t111 45q90 0 121 -80q8 -20 35 -20q37 0 43 39q2 18 19.5 31.5t40 13.5t38 -13.5t13.5 -31.5q-8 -66 -56.5 -109t-109.5 -43q-86 0 -125 78q-8 23 -31 23q-41 0 -43 -39q-2 -18 -19.5 -31.5t-40 -13.5t-37.5 13.5t-13 31.5z" glyph-name="Ntilde" horiz-adv-x="1452" unicode="Ñ"/><glyph d="M1499 768q23 217 -114.5 369.5t-354.5 152.5t-386 -152.5t-191.5 -369.5t113.5 -370.5t353.5 -153.5t387 152.5t192.5 371.5zM1798 768q-23 -223 -152.5 -408.5t-329.5 -290t-425 -104.5q-344 0 -559 231.5t-180.5 571.5t299 571.5t608.5 231.5q342 0 558 -231.5 t181 -571.5zM1219 1653l-250 67q-49 14 -51.5 63.5t33.5 85.5t79 15l227 -121q39 -20 20 -71t-58 -39z" glyph-name="Ograve" horiz-adv-x="1789" unicode="Ò"/><glyph d="M1499 768q23 217 -114.5 369.5t-354.5 152.5t-386 -152.5t-191.5 -369.5t113.5 -370.5t353.5 -153.5t387 152.5t192.5 371.5zM1798 768q-23 -223 -152.5 -408.5t-329.5 -290t-425 -104.5q-344 0 -559 231.5t-180.5 571.5t299 571.5t608.5 231.5q342 0 558 -231.5 t181 -571.5zM1202 1720l-266 -67q-39 -10 -49 33q-10 49 31 75q2 0 4 2l252 121q59 25 86 -33q27 -59 -13 -104q-18 -19 -45 -27z" glyph-name="Oacute" horiz-adv-x="1789" unicode="Ó"/><glyph d="M1499 768q23 217 -114.5 369.5t-354.5 152.5t-386 -152.5t-191.5 -369.5t113.5 -370.5t353.5 -153.5t387 152.5t192.5 371.5zM1798 768q-23 -223 -152.5 -408.5t-329.5 -290t-425 -104.5q-344 0 -559 231.5t-180.5 571.5t299 571.5t608.5 231.5q342 0 558 -231.5 t181 -571.5zM1077 1743l-135 -115q-18 -16 -44 -12t-42 24q-37 51 8 89l176 153q20 18 54 19q31 0 49 -19l141 -153q18 -16 15 -41t-23 -48q-20 -20 -47 -24t-41 12z" glyph-name="Ocircumflex" horiz-adv-x="1789" unicode="Ô"/><glyph d="M1499 768q23 217 -114.5 369.5t-354.5 152.5t-386 -152.5t-191.5 -369.5t113.5 -370.5t353.5 -153.5t387 152.5t192.5 371.5zM1798 768q-23 -223 -152.5 -408.5t-329.5 -290t-425 -104.5q-344 0 -559 231.5t-180.5 571.5t299 571.5t608.5 231.5q342 0 558 -231.5 t181 -571.5zM836 1671q6 61 54 106.5t111 45.5q90 0 121 -80q8 -20 35 -21q37 0 43 39q2 18 19.5 31.5t40 13.5t38 -13t13.5 -32q-8 -66 -56.5 -108.5t-109.5 -42.5q-86 0 -125 78q-8 23 -31 22q-37 0 -43 -39q-2 -18 -19.5 -31.5t-40 -13.5t-37.5 13.5t-13 31.5z" glyph-name="Otilde" horiz-adv-x="1789" unicode="Õ"/><glyph d="M977 1718q-4 -43 -39 -73.5t-78 -30.5q-45 0 -71.5 30.5t-22.5 73.5t38 74t79 31q43 0 70.5 -31t23.5 -74zM1382 1718q-4 -43 -38.5 -73.5t-79.5 -30.5q-41 0 -68 30.5t-22.5 73.5t38 74t74.5 31q45 0 72.5 -31t23.5 -74zM1499 768q23 217 -114.5 369.5t-354.5 152.5 t-386 -152.5t-191.5 -369.5t113.5 -370.5t353.5 -153.5t387 152.5t192.5 371.5zM1798 768q-23 -223 -152.5 -408.5t-329.5 -290t-425 -104.5q-344 0 -559 231.5t-180.5 571.5t299 571.5t608.5 231.5q342 0 558 -231.5t181 -571.5z" glyph-name="Odieresis" horiz-adv-x="1789" unicode="Ö"/><glyph d="M102 16q-31 31 -35 71t21 65l442 442l-440 440q-25 25 -20.5 65t32.5 70q31 29 71 33t65 -20l440 -441l438 439q27 25 66 21.5t69.5 -34t34.5 -70.5t-22 -65l-439 -438l439 -438q27 -27 22.5 -66t-35 -69.5t-69.5 -34.5t-66 20l-438 440l-442 -442q-25 -25 -65 -21 t-69 33z" glyph-name="multiply" horiz-adv-x="1351" unicode="×"/><glyph d="M463 637q10 -51 -23.5 -96t-97.5 -66q-59 -16 -106.5 6.5t-61.5 71.5q-25 96 -12 215q35 340 299 571.5t608 231.5q123 0 211 -33q49 -16 66.5 -63.5t-5.5 -102.5q-27 -57 -74.5 -84.5t-97.5 -13.5q-70 16 -129 16q-217 0 -387 -152.5t-192 -369.5q-6 -72 2 -131z M1815 1384l-1526 -1380q-29 -25 -69 -21.5t-66 33.5q-27 29 -27 69t29 67l1525 1380q29 25 69 21.5t65 -33.5q27 -29 27 -69t-27 -67zM1507 899q-10 51 24 96t97 66q59 16 106.5 -6.5t61.5 -71.5q25 -104 12 -215q-35 -340 -299 -571.5t-608 -231.5q-123 0 -213 33 q-47 16 -64.5 63.5t5.5 102.5q27 57 75 84.5t97 13.5q66 -16 129 -16q217 0 387 152.5t192 369.5q4 55 -2 131z" glyph-name="Oslash" horiz-adv-x="1810" unicode="Ø"/><glyph d="M272 1430q4 51 51.5 86.5t106.5 35.5t98 -35.5t35 -86.5l-94 -895q-14 -135 69 -216t222 -81t237.5 80.5t112.5 216.5l94 895q4 51 51.5 86.5t106.5 35.5t98 -35.5t35 -86.5l-94 -895q-27 -262 -214.5 -416t-455.5 -154q-270 0 -424.5 153.5t-128.5 416.5zM1057 1612 l-250 67q-49 14 -51 63.5t33.5 85.5t78.5 15l228 -121q39 -20 19.5 -71t-58.5 -39z" glyph-name="Ugrave" horiz-adv-x="1468" unicode="Ù"/><glyph d="M272 1430q4 51 51.5 86.5t106.5 35.5t98 -35.5t35 -86.5l-94 -895q-14 -135 69 -216t222 -81t237.5 80.5t112.5 216.5l94 895q4 51 51.5 86.5t106.5 35.5t98 -35.5t35 -86.5l-94 -895q-27 -262 -214.5 -416t-455.5 -154q-270 0 -424.5 153.5t-128.5 416.5zM1040 1679 l-266 -67q-39 -12 -49 33q-12 51 31 75q2 0 4 2l252 121q59 25 86 -33q27 -59 -13 -104q-18 -19 -45 -27z" glyph-name="Uacute" horiz-adv-x="1468" unicode="Ú"/><glyph d="M272 1430q4 51 51.5 86.5t106.5 35.5t98 -35.5t35 -86.5l-94 -895q-14 -135 69 -216t222 -81t237.5 80.5t112.5 216.5l94 895q4 51 51.5 86.5t106.5 35.5t98 -35.5t35 -86.5l-94 -895q-27 -262 -214.5 -416t-455.5 -154q-270 0 -424.5 153.5t-128.5 416.5zM918 1743 l-136 -115q-18 -16 -43.5 -12t-42.5 24q-37 51 9 89l176 153q20 18 53 19q31 0 49 -19l141 -153q18 -16 15.5 -41t-23.5 -48q-20 -20 -47 -24t-41 12z" glyph-name="Ucircumflex" horiz-adv-x="1468" unicode="Û"/><glyph d="M813 1718q-4 -43 -39 -73.5t-76 -30.5q-45 0 -71.5 30.5t-22.5 73.5q4 45 38 75t79 30q43 0 69.5 -31t22.5 -74zM1221 1718q-4 -43 -39 -73.5t-80 -30.5q-43 0 -69.5 30.5t-22.5 73.5q4 45 37.5 75t76.5 30q45 0 73 -30t24 -75zM272 1430q4 51 51.5 86.5t106.5 35.5 t98 -35.5t35 -86.5l-94 -895q-14 -135 69 -216t222 -81t237.5 80.5t112.5 216.5l94 895q4 51 51.5 86.5t106.5 35.5t98 -35.5t35 -86.5l-94 -895q-27 -262 -214.5 -416t-455.5 -154q-270 0 -424.5 153.5t-128.5 416.5z" glyph-name="Udieresis" horiz-adv-x="1468" unicode="Ü"/><glyph d="M1006 1679l-267 -67q-39 -12 -49 33q-12 51 31 75q2 0 4 2l252 121q59 25 86 -33q27 -59 -12 -104q-18 -19 -45 -27zM694 -16q-61 0 -100 35.5t-33 86.5l70 662q2 33 31 63l602 680q37 41 93 42t97 -35q45 -37 51 -91.5t-30 -95.5l-562 -633l-61 -592q-6 -51 -52.5 -86.5 t-105.5 -35.5zM444 1511l234 -344q29 -41 11.5 -95t-69 -91t-107.5 -35t-83 41l-233 344q-27 41 -10.5 95.5t67.5 91t107 35.5t83 -42z" glyph-name="Yacute" horiz-adv-x="1392" unicode="Ý"/><glyph d="M424 106q-6 -51 -52 -86.5t-106 -35.5q-61 0 -100 35.5t-33 86.5l139 1324q4 51 51.5 86.5t106.5 35.5t98 -35.5t35 -86.5zM705 489q-49 0 -80 41t-25 98.5t45 98.5t88 41h176q61 0 109.5 43t54.5 104q8 63 -30.5 106.5t-102.5 43.5h-176q-49 0 -80 40t-25 97 q6 59 45 100t89 41h176q178 0 290.5 -124.5t92.5 -303.5q-18 -176 -156.5 -301t-314.5 -125h-176z" glyph-name="Thorn" horiz-adv-x="1331" unicode="Þ"/><glyph d="M846 1147q2 61 -38 102t-103 41q-59 0 -108.5 -40t-61.5 -97l-148 -1397q-4 -51 -51 -87t-106.5 -36t-98.5 36t-35 87l148 1397q18 172 163.5 295t325.5 123q195 0 314.5 -117t101.5 -301q-14 -80 -64.5 -114.5t-115.5 -24.5q-59 8 -92 47t-31 86zM727 659h-35 q-49 0 -78.5 41t-25.5 99q6 57 46 98t89 41h35q221 0 351 -124t108 -345q-25 -221 -180.5 -345t-377.5 -124h-34q-49 0 -80 41t-25 98.5t45 98.5t88 41h35q88 0 154.5 53t75 137t-47 137t-143.5 53z" glyph-name="germandbls" horiz-adv-x="1249" unicode="ß"/><glyph d="M1004 1335l-252 68q-47 14 -49.5 63.5t33.5 85t79 15.5l227 -121q39 -20 20 -71.5t-58 -39.5zM932 16q-94 -51 -258 -51q-250 0 -404.5 180.5t-126.5 448.5q27 266 219.5 446.5t442.5 180.5q244 0 377 -207h4l6 65q4 51 49 87t104.5 36t97.5 -36t34 -87l-103 -973 q-6 -51 -51 -86.5t-104.5 -35.5t-97.5 35.5t-31 86.5l51 488q16 143 -75 245.5t-237 102.5q-143 0 -255.5 -102.5t-129.5 -245.5q-16 -145 76 -247.5t236 -102.5q49 0 98 12q39 16 75 -7.5t54 -68.5t3 -94.5t-54 -69.5z" glyph-name="agrave" horiz-adv-x="1486" unicode="à"/><glyph d="M985 1403l-264 -68q-39 -12 -49 33q-12 51 30 76q2 0 5 2l251 121q59 27 86 -33q25 -59 -14 -104q-16 -19 -45 -27zM932 16q-94 -51 -258 -51q-250 0 -404.5 180.5t-126.5 448.5q27 266 219.5 446.5t442.5 180.5q244 0 377 -207h4l6 65q4 51 49 87t104.5 36t97.5 -36 t34 -87l-103 -973q-6 -51 -51 -86.5t-104.5 -35.5t-97.5 35.5t-31 86.5l51 488q16 143 -75 245.5t-237 102.5q-143 0 -255.5 -102.5t-129.5 -245.5q-16 -145 76 -247.5t236 -102.5q49 0 98 12q39 16 75 -7.5t54 -68.5t3 -94.5t-54 -69.5z" glyph-name="aacute" horiz-adv-x="1486" unicode="á"/><glyph d="M850 1473l-135 -115q-18 -16 -44 -12t-42 24q-37 51 8 88l176 154q23 18 53.5 18t48.5 -18l142 -154q18 -16 15 -40.5t-23 -47.5q-20 -20 -47 -24.5t-41 12.5zM932 16q-94 -51 -258 -51q-250 0 -404.5 180.5t-126.5 448.5q27 266 219.5 446.5t442.5 180.5q244 0 377 -207 h4l6 65q4 51 49 87t104.5 36t97.5 -36t34 -87l-103 -973q-6 -51 -51 -86.5t-104.5 -35.5t-97.5 35.5t-31 86.5l51 488q16 143 -75 245.5t-237 102.5q-143 0 -255.5 -102.5t-129.5 -245.5q-16 -145 76 -247.5t236 -102.5q49 0 98 12q39 16 75 -7.5t54 -68.5t3 -94.5 t-54 -69.5z" glyph-name="acircumflex" horiz-adv-x="1486" unicode="â"/><glyph d="M621 1419q8 61 56 106.5t109 45.5q90 0 121 -80q8 -20 35 -21q37 0 43 39q2 18 19.5 31.5t40 13.5t38 -13t13.5 -32q-8 -66 -56.5 -108.5t-109.5 -42.5q-86 0 -125 78q-8 23 -31 22q-37 0 -43 -39q-2 -18 -19.5 -31.5t-40 -13.5t-37.5 13.5t-13 31.5zM932 16 q-94 -51 -258 -51q-250 0 -404.5 180.5t-126.5 448.5q27 266 219.5 446.5t442.5 180.5q244 0 377 -207h4l6 65q4 51 49 87t104.5 36t97.5 -36t34 -87l-103 -973q-6 -51 -51 -86.5t-104.5 -35.5t-97.5 35.5t-31 86.5l51 488q16 143 -75 245.5t-237 102.5 q-143 0 -255.5 -102.5t-129.5 -245.5q-16 -145 76 -247.5t236 -102.5q49 0 98 12q39 16 75 -7.5t54 -68.5t3 -94.5t-54 -69.5z" glyph-name="atilde" horiz-adv-x="1486" unicode="ã"/><glyph d="M762 1466q-4 -43 -38 -73.5t-77 -30.5q-45 0 -71.5 30.5t-22.5 73.5t38 74t79 31q43 0 69.5 -31t22.5 -74zM1169.5 1466q-4.5 -43 -39 -73.5t-79.5 -30.5q-43 0 -69 30.5t-21.5 73.5t37 74t75.5 31q45 0 73 -31t23.5 -74zM932 16q-94 -51 -258 -51q-250 0 -404.5 180.5 t-126.5 448.5q27 266 219.5 446.5t442.5 180.5q244 0 377 -207h4l6 65q4 51 49 87t104.5 36t97.5 -36t34 -87l-103 -973q-6 -51 -51 -86.5t-104.5 -35.5t-97.5 35.5t-31 86.5l51 488q16 143 -75 245.5t-237 102.5q-143 0 -255.5 -102.5t-129.5 -245.5q-16 -145 76 -247.5 t236 -102.5q49 0 98 12q39 16 75 -7.5t54 -68.5t3 -94.5t-54 -69.5z" glyph-name="adieresis" horiz-adv-x="1486" unicode="ä"/><glyph d="M922 1489q2 23 -12.5 38t-35.5 15q-25 0 -43 -15.5t-20 -37.5q-2 -25 12.5 -41t38.5 -16q23 0 40.5 16t19.5 41zM1018 1489q-6 -63 -56.5 -108.5t-109.5 -45.5q-63 0 -103 45t-34 109q6 61 56 105t114 44q59 0 99 -44t34 -105zM932 16q-94 -51 -258 -51 q-250 0 -404.5 180.5t-126.5 448.5q27 266 219.5 446.5t442.5 180.5q244 0 377 -207h4l6 65q4 51 49 87t104.5 36t97.5 -36t34 -87l-103 -973q-6 -51 -51 -86.5t-104.5 -35.5t-97.5 35.5t-31 86.5l51 488q16 143 -75 245.5t-237 102.5q-143 0 -255.5 -102.5t-129.5 -245.5 q-16 -145 76 -247.5t236 -102.5q49 0 98 12q39 16 75 -7.5t54 -68.5t3 -94.5t-54 -69.5z" glyph-name="aring" horiz-adv-x="1486" unicode="å"/><glyph d="M1604 588q4 51 39.5 88t80.5 37h455q-27 109 -107.5 172t-193.5 63q-141 0 -254 -105.5t-129 -248.5q-16 -147 77 -258t240 -111q80 0 167 29t145 76q35 35 85 33.5t85 -37.5q37 -33 40 -84.5t-30 -83.5q-104 -92 -241.5 -142.5t-276.5 -50.5q-258 0 -406 205l-6 -64 q-6 -51 -51 -86.5t-104.5 -35.5t-97.5 35.5t-31 86.5l51 488q16 143 -75 245.5t-237 102.5q-143 0 -255.5 -102.5t-129.5 -245.5q-16 -145 76 -247.5t236 -102.5q49 0 98 12q39 16 75 -7.5t54 -68.5t3 -94t-54 -70q-94 -51 -258 -51q-250 0 -404.5 180.5t-126.5 448.5 q27 266 219.5 446.5t442.5 180.5q244 0 377 -207h4l6 65q4 51 49 87t104.5 36t97.5 -36t34 -87l-7 -65h5q190 207 432 207q264 0 431 -182.5t140 -444.5q-4 -51 -52 -92t-108 -41h-620q-45 0 -72.5 38t-21.5 89z" glyph-name="ae" horiz-adv-x="2498" unicode="æ"/><glyph d="M987 328q41 35 94.5 29.5t87.5 -46.5q39 -41 37 -97t-49 -93q-195 -156 -430 -156q-27 0 -41 2l-10 -45q18 10 61 10q80 0 121 -48t33 -123.5t-67.5 -127t-137.5 -51.5q-63 0 -106 35t-54 92q-4 18 9.5 34.5t31.5 20.5q20 4 34.5 -4t16.5 -24q14 -61 78 -62q35 0 63.5 25 t31.5 61q4 35 -18.5 60.5t-57.5 25.5q-27 0 -53 -18q-31 -20 -56 -12q-20 2 -31.5 18t-7.5 35l29 108q-221 41 -349 213t-104 404q27 266 235 446.5t480 180.5q244 0 397 -154q41 -41 33 -93t-59 -97q-43 -41 -98.5 -46.5t-86.5 29.5q-88 82 -215 82q-143 0 -255.5 -102.5 t-129 -245.5t75.5 -245.5t236 -102.5q129 0 231 82z" glyph-name="ccedilla" horiz-adv-x="1255" unicode="ç"/><glyph d="M1016 1335l-252 68q-47 14 -49 63.5t33.5 85t78.5 15.5l228 -121q39 -20 19.5 -71.5t-58.5 -39.5zM553 588q4 51 40 88t81 37h454q-27 109 -107.5 172t-193.5 63q-141 0 -253.5 -105.5t-129.5 -248.5q-16 -147 77 -258t241 -111q80 0 167 29t144 76q35 35 85 33.5 t85 -37.5q37 -33 40 -84.5t-30 -83.5q-104 -92 -241.5 -142.5t-276.5 -50.5q-279 0 -449.5 180.5t-142.5 448.5q27 266 235 446.5t478 180.5q264 0 431 -182.5t140 -444.5q-4 -51 -52 -92t-107 -41h-621q-45 0 -72.5 38t-21.5 89z" glyph-name="egrave" horiz-adv-x="1447" unicode="è"/><glyph d="M997 1403l-264 -68q-39 -12 -49 33q-12 51 31 76q2 0 4 2l252 121q59 27 86 -33q25 -59 -15 -104q-16 -19 -45 -27zM553 588q4 51 40 88t81 37h454q-27 109 -107.5 172t-193.5 63q-141 0 -253.5 -105.5t-129.5 -248.5q-16 -147 77 -258t241 -111q80 0 167 29t144 76 q35 35 85 33.5t85 -37.5q37 -33 40 -84.5t-30 -83.5q-104 -92 -241.5 -142.5t-276.5 -50.5q-279 0 -449.5 180.5t-142.5 448.5q27 266 235 446.5t478 180.5q264 0 431 -182.5t140 -444.5q-4 -51 -52 -92t-107 -41h-621q-45 0 -72.5 38t-21.5 89z" glyph-name="eacute" horiz-adv-x="1447" unicode="é"/><glyph d="M965 1368l-76 127h-8l-101 -127q-35 -43 -82 -14q-20 14 -27 36.5t5 39.5l139 157q35 39 84 39t76 -39l106 -157q8 -16 -3 -39t-36 -37q-23 -12 -46 -8t-31 22zM553 588q4 51 40 88t81 37h454q-27 109 -107.5 172t-193.5 63q-141 0 -253.5 -105.5t-129.5 -248.5 q-16 -147 77 -258t241 -111q80 0 167 29t144 76q35 35 85 33.5t85 -37.5q37 -33 40 -84.5t-30 -83.5q-104 -92 -241.5 -142.5t-276.5 -50.5q-279 0 -449.5 180.5t-142.5 448.5q27 266 235 446.5t478 180.5q264 0 431 -182.5t140 -444.5q-4 -51 -52 -92t-107 -41h-621 q-45 0 -72.5 38t-21.5 89z" glyph-name="ecircumflex" horiz-adv-x="1447" unicode="ê"/><glyph d="M784 1466q-4 -43 -38.5 -73.5t-75.5 -30.5q-45 0 -72 30.5t-22.5 73.5t38 74t78.5 31q41 0 68.5 -31t23.5 -74zM1192 1466q-4 -43 -39 -73.5t-80 -30.5q-43 0 -69.5 30.5t-22.5 73.5t38 74t77 31q45 0 72.5 -31t23.5 -74zM553 588q4 51 40 88t81 37h454 q-27 109 -107.5 172t-193.5 63q-141 0 -253.5 -105.5t-129.5 -248.5q-16 -147 77 -258t241 -111q80 0 167 29t144 76q35 35 85 33.5t85 -37.5q37 -33 40 -84.5t-30 -83.5q-104 -92 -241.5 -142.5t-276.5 -50.5q-279 0 -449.5 180.5t-142.5 448.5q27 266 235 446.5t478 180.5 q264 0 431 -182.5t140 -444.5q-4 -51 -52 -92t-107 -41h-621q-45 0 -72.5 38t-21.5 89z" glyph-name="edieresis" horiz-adv-x="1447" unicode="ë"/><glyph d="M133 106l103 973q4 51 50 87t105.5 36t97 -36t33.5 -87l-102 -973q-6 -51 -51 -86.5t-104.5 -35.5t-98.5 35.5t-33 86.5zM537 1335l-252 68q-47 14 -49.5 63.5t33.5 85t79 15.5l227 -121q39 -20 20 -71.5t-58 -39.5z" glyph-name="igrave" horiz-adv-x="532" unicode="ì"/><glyph d="M133 106l103 973q4 51 50 87t105.5 36t97 -36t33.5 -87l-102 -973q-6 -51 -51 -86.5t-104.5 -35.5t-98.5 35.5t-33 86.5zM541 1403l-265 -68q-39 -12 -49 33q-12 51 31 76q2 0 4 2l252 121q59 27 86 -33q25 -59 -14 -104q-16 -19 -45 -27z" glyph-name="iacute" horiz-adv-x="532" unicode="í"/><glyph d="M133 106l103 973q4 51 50 87t105.5 36t97 -36t33.5 -87l-102 -973q-6 -51 -51 -86.5t-104.5 -35.5t-98.5 35.5t-33 86.5zM420 1473l-135 -115q-18 -16 -44 -12t-42 24q-37 51 8 88l176 154q20 18 53 18q31 0 49 -18l142 -154q18 -16 15 -40.5t-24 -47.5 q-20 -20 -46.5 -24.5t-41.5 12.5z" glyph-name="icircumflex" horiz-adv-x="532" unicode="î"/><glyph d="M330 1466q-4 -43 -39 -73.5t-76 -30.5q-45 0 -71.5 30.5t-22.5 73.5t38 74t79 31q41 0 68.5 -31t23.5 -74zM713 1466q-4 -43 -39 -73.5t-78 -30.5t-69.5 30.5t-22.5 73.5t37.5 74t77 31t71 -31t23.5 -74zM133 106l103 973q4 51 50 87t105.5 36t97 -36t33.5 -87l-102 -973 q-6 -51 -51 -86.5t-104.5 -35.5t-98.5 35.5t-33 86.5z" glyph-name="idieresis" horiz-adv-x="532" unicode="ï"/><glyph d="M342 1223q-4 20 8 39.5t33 25.5l113 31q-31 35 -21 90t57 98q45 41 101.5 45t89.5 -30l98 -113l160 45q20 4 38.5 -7t20.5 -32q4 -20 -8 -38.5t-33 -24.5l-102 -29l330 -369q158 -174 133 -403q-25 -236 -223.5 -411t-448.5 -175t-411.5 175t-137.5 411q14 145 102.5 274 t223.5 211q41 25 90 8.5t75.5 -65.5t16.5 -101.5t-53 -78.5q-137 -96 -154 -248q-12 -121 70 -215t207 -94t227.5 94t114.5 215q12 119 -66 213l-420 471l-172 -47q-23 -6 -40 4.5t-19 30.5z" glyph-name="eth" horiz-adv-x="1384" unicode="ð"/><glyph d="M633 1419q8 61 56 106.5t110 45.5q90 0 121 -80q8 -20 34 -21q37 0 43 39q2 18 19.5 31.5t40 13.5t38 -13t13.5 -32q-8 -66 -56 -108.5t-110 -42.5q-86 0 -125 78q-8 23 -31 22q-37 0 -43 -39q-2 -18 -19 -31.5t-39.5 -13.5t-38 13.5t-13.5 31.5zM522 1079l-102 -973 q-6 -51 -51 -86.5t-104.5 -35.5t-98.5 35.5t-33 86.5l103 973q4 51 50 87t105.5 36t97 -36t33.5 -87zM942 106l59 574q14 125 -46 200.5t-185 61.5l-39 -4q-43 -4 -74.5 26.5t-35.5 79.5q-4 51 20.5 91.5t67.5 54.5q78 31 178 31q207 0 318.5 -139.5t86.5 -364.5l-63 -611 q-6 -51 -51 -86.5t-104.5 -35.5t-98.5 35.5t-33 86.5z" glyph-name="ntilde" unicode="ñ"/><glyph d="M1141 594q16 143 -76 245.5t-238 102.5q-143 0 -254.5 -102.5t-128.5 -245.5q-14 -143 76 -246.5t234 -103.5q145 0 258 102.5t129 247.5zM1440 594q-29 -268 -236 -448.5t-479 -180.5q-270 0 -440 180.5t-142 448.5q27 266 235 446.5t478 180.5q272 0 441.5 -180.5 t142.5 -446.5zM1024 1335l-252 68q-47 14 -49 63.5t34 85t79 15.5l227 -121q39 -20 19.5 -71.5t-58.5 -39.5z" glyph-name="ograve" horiz-adv-x="1460" unicode="ò"/><glyph d="M1141 594q16 143 -76 245.5t-238 102.5q-143 0 -254.5 -102.5t-128.5 -245.5q-14 -143 76 -246.5t234 -103.5q145 0 258 102.5t129 247.5zM1440 594q-29 -268 -236 -448.5t-479 -180.5q-270 0 -440 180.5t-142 448.5q27 266 235 446.5t478 180.5q272 0 441.5 -180.5 t142.5 -446.5zM1006 1403l-265 -68q-39 -12 -49 33q-12 51 31 76q2 0 4 2l252 121q59 27 86 -33q25 -59 -14 -104q-16 -19 -45 -27z" glyph-name="oacute" horiz-adv-x="1460" unicode="ó"/><glyph d="M1141 594q16 143 -76 245.5t-238 102.5q-143 0 -254.5 -102.5t-128.5 -245.5q-14 -143 76 -246.5t234 -103.5q145 0 258 102.5t129 247.5zM1440 594q-29 -268 -236 -448.5t-479 -180.5q-270 0 -440 180.5t-142 448.5q27 266 235 446.5t478 180.5q272 0 441.5 -180.5 t142.5 -446.5zM883 1473l-135 -115q-18 -16 -44 -12t-42 24q-37 51 8 88l176 154q23 18 53.5 18t48.5 -18l142 -154q18 -16 15 -40.5t-24 -47.5q-20 -20 -46.5 -24.5t-41.5 12.5z" glyph-name="ocircumflex" horiz-adv-x="1460" unicode="ô"/><glyph d="M1141 594q16 143 -76 245.5t-238 102.5q-143 0 -254.5 -102.5t-128.5 -245.5q-14 -143 76 -246.5t234 -103.5q145 0 258 102.5t129 247.5zM1440 594q-29 -268 -236 -448.5t-479 -180.5q-270 0 -440 180.5t-142 448.5q27 266 235 446.5t478 180.5q272 0 441.5 -180.5 t142.5 -446.5zM645 1419q8 61 56.5 106.5t109.5 45.5q90 0 121 -80q8 -20 35 -21q37 0 43 39q2 18 19.5 31.5t40 13.5t37.5 -13t13 -32q-8 -66 -56 -108.5t-110 -42.5q-86 0 -125 78q-8 23 -30 22q-37 0 -43 -39q-2 -18 -19.5 -31.5t-40 -13.5t-38 13.5t-13.5 31.5z" glyph-name="otilde" horiz-adv-x="1460" unicode="õ"/><glyph d="M784 1466q-4 -43 -38.5 -73.5t-75.5 -30.5q-45 0 -72 30.5t-22.5 73.5t38 74t78.5 31q41 0 68.5 -31t23.5 -74zM1192 1466q-4 -43 -39 -73.5t-80 -30.5q-43 0 -69.5 30.5t-22.5 73.5t38 74t77 31q45 0 72.5 -31t23.5 -74zM1141 594q16 143 -76 245.5t-238 102.5 q-143 0 -254.5 -102.5t-128.5 -245.5q-14 -143 76 -246.5t234 -103.5q145 0 258 102.5t129 247.5zM1440 594q-29 -268 -236 -448.5t-479 -180.5q-270 0 -440 180.5t-142 448.5q27 266 235 446.5t478 180.5q272 0 441.5 -180.5t142.5 -446.5z" glyph-name="odieresis" horiz-adv-x="1460" unicode="ö"/><glyph d="M836 122.5q0 -59.5 -41 -99t-101 -39.5q-57 0 -97 41t-40 98t40 98t97 41q59 0 100.5 -40t41.5 -99.5zM557 1061q0 59 40 100t97 41q59 0 100.5 -41t41.5 -100q0 -57 -41 -97t-101 -40q-57 0 -97 40t-40 97zM86 592q0 43 25.5 73.5t60.5 30.5h1049q35 0 60.5 -30.5 t25.5 -73.5t-26 -74t-60 -31h-1049q-35 0 -60.5 31t-25.5 74z" glyph-name="divide" horiz-adv-x="1390" unicode="÷"/><glyph d="M1436 1034l-1139 -1030q-29 -25 -69 -21.5t-66 33.5q-27 29 -27 69t29 67l1139 1030q29 25 68.5 21.5t66 -34t26 -69.5t-27.5 -66zM307 432q-72 -8 -114.5 20.5t-45.5 88.5q0 16 5 53q27 266 234.5 446.5t477.5 180.5q35 0 54 -2q59 -6 82.5 -49.5t9.5 -106.5 q-16 -57 -63.5 -92t-110.5 -29q-143 0 -255 -102.5t-128 -245.5q-2 -66 -43.5 -109t-102.5 -53zM1292 754q72 8 115 -20.5t45 -88.5q0 -16 -4 -53q-29 -266 -235.5 -446.5t-477.5 -180.5q-35 0 -53 2q-59 6 -83 49t-9 107q16 59 63 93t111 28q143 0 254.5 102.5t128.5 245.5 q2 66 42 109t103 53z" glyph-name="oslash" horiz-adv-x="1476" unicode="ø"/><glyph d="M954 1335l-252 68q-47 14 -49 63.5t34 85t79 15.5l227 -121q39 -20 19.5 -71.5t-58.5 -39.5zM942 106l102 973q4 51 50.5 87t106 36t97 -36t33.5 -87l-102 -973q-6 -51 -51 -86.5t-104.5 -35.5t-98.5 35.5t-33 86.5zM522 1079l-61 -573q-12 -125 48 -201t185 -61l39 4 q43 4 75 -27t36 -80q4 -51 -20.5 -91t-67.5 -54q-76 -31 -178 -31q-207 0 -319 139.5t-87 364.5l64 610q4 51 50 87t105.5 36t97 -36t33.5 -87z" glyph-name="ugrave" unicode="ù"/><glyph d="M936 1403l-264 -68q-39 -12 -49 33q-12 51 30 76q2 0 4 2l252 121q59 27 86 -33q25 -59 -14 -104q-16 -19 -45 -27zM942 106l102 973q4 51 50.5 87t106 36t97 -36t33.5 -87l-102 -973q-6 -51 -51 -86.5t-104.5 -35.5t-98.5 35.5t-33 86.5zM522 1079l-61 -573 q-12 -125 48 -201t185 -61l39 4q43 4 75 -27t36 -80q4 -51 -20.5 -91t-67.5 -54q-76 -31 -178 -31q-207 0 -319 139.5t-87 364.5l64 610q4 51 50 87t105.5 36t97 -36t33.5 -87z" glyph-name="uacute" unicode="ú"/><glyph d="M821 1473l-135 -115q-18 -16 -44 -12t-42 24q-37 51 8 88l176 154q23 18 53.5 18t49.5 -18l141 -154q18 -16 15 -40.5t-23 -47.5q-20 -20 -47 -24.5t-41 12.5zM942 106l102 973q4 51 50.5 87t106 36t97 -36t33.5 -87l-102 -973q-6 -51 -51 -86.5t-104.5 -35.5t-98.5 35.5 t-33 86.5zM522 1079l-61 -573q-12 -125 48 -201t185 -61l39 4q43 4 75 -27t36 -80q4 -51 -20.5 -91t-67.5 -54q-76 -31 -178 -31q-207 0 -319 139.5t-87 364.5l64 610q4 51 50 87t105.5 36t97 -36t33.5 -87z" glyph-name="ucircumflex" unicode="û"/><glyph d="M725 1466q-4 -43 -39 -73.5t-76 -30.5q-45 0 -71.5 30.5t-22.5 73.5t38 74t79 31q41 0 68.5 -31t23.5 -74zM1132.5 1466q-4.5 -43 -39 -73.5t-79.5 -30.5q-43 0 -69.5 30.5t-22.5 73.5t37.5 74t76.5 31q45 0 73 -31t23.5 -74zM942 106l102 973q4 51 50.5 87t106 36 t97 -36t33.5 -87l-102 -973q-6 -51 -51 -86.5t-104.5 -35.5t-98.5 35.5t-33 86.5zM522 1079l-61 -573q-12 -125 48 -201t185 -61l39 4q43 4 75 -27t36 -80q4 -51 -20.5 -91t-67.5 -54q-76 -31 -178 -31q-207 0 -319 139.5t-87 364.5l64 610q4 51 50 87t105.5 36t97 -36 t33.5 -87z" glyph-name="udieresis" unicode="ü"/><glyph d="M901 1403l-264 -68q-39 -12 -49 33q-12 51 30 76q2 0 5 2l251 121q59 27 87 -33q25 -59 -15 -104q-16 -19 -45 -27zM379 -352q-51 25 -68.5 76t8.5 96l754 1315q27 47 81 62t106 -11q51 -25 69.5 -76t-8.5 -96l-754 -1315q-27 -47 -81 -62.5t-107 11.5zM516 414 q-57 -27 -109.5 -11.5t-68.5 62.5l-197 549q-16 45 11.5 96t83.5 76q57 27 109 11.5t69 -62.5l198 -549q16 -47 -12.5 -97t-83.5 -75z" glyph-name="yacute" horiz-adv-x="1249" unicode="ý"/><glyph d="M678 1169q90 51 258 52q250 0 404.5 -180.5t127.5 -448.5q-29 -266 -221 -446.5t-442 -180.5q-244 0 -377 207h-4l-43 -416q-4 -51 -49 -87t-104.5 -36t-97.5 36t-34 87l176 1674q4 51 50.5 86.5t105.5 35.5t96 -34.5t33 -87.5l-88 -838q-16 -143 75 -245.5t236 -102.5 q143 0 257 102.5t130 245.5q14 143 -77 246.5t-236 103.5q-49 0 -98 -12q-39 -16 -75 7.5t-54.5 68.5t-3 94t54.5 69z" glyph-name="thorn" horiz-adv-x="1488" unicode="þ"/><glyph d="M1087.5 1446q-4.5 -43 -39 -74t-79.5 -31q-43 0 -70 31t-22.5 74t38 73.5t76.5 30.5q45 0 73 -30.5t23.5 -73.5zM680 1446q-4 -43 -39 -74t-76 -31q-45 0 -71.5 31t-22.5 74t38 73.5t79 30.5q41 0 68.5 -30.5t23.5 -73.5zM379 -352q-51 25 -68.5 76t8.5 96l754 1315 q27 47 81 62t106 -11q51 -25 69.5 -76t-8.5 -96l-754 -1315q-27 -47 -81 -62.5t-107 11.5zM516 414q-57 -27 -109.5 -11.5t-68.5 62.5l-197 549q-16 45 11.5 96t83.5 76q57 27 109 11.5t69 -62.5l198 -549q16 -47 -12.5 -97t-83.5 -75z" glyph-name="ydieresis" horiz-adv-x="1249" unicode="ÿ"/><glyph d="M702 1722q2 33 24 56.5t50 23.5h285q27 0 44 -22.5t13 -57.5q-2 -33 -23.5 -56.5t-50.5 -23.5h-284q-27 0 -44.5 22.5t-13.5 57.5zM956 715l-102 407h-16l-510 -1067q-27 -45 -80 -62.5t-111 1.5q-51 23 -72.5 72t1.5 96l639 1292q55 98 186 98t166 -98l180 -633 q10 -49 -18.5 -97t-85.5 -71q-59 -18 -112 -0.5t-65 62.5zM618.5 419.5q6.5 57.5 45 98.5t88.5 41h454q51 0 88 -27.5t43 -68.5l88 -301q12 -47 -19.5 -96.5t-88.5 -71.5q-59 -18 -110.5 -1t-67.5 62l-74 224h-342q-49 0 -80 41.5t-24.5 99z" glyph-name="Amacron" horiz-adv-x="1458" unicode="Ā"/><glyph d="M674 1456q4 35 25.5 57.5t48.5 22.5h284q29 0 45.5 -23.5t12.5 -56.5q-2 -33 -24 -56.5t-50 -23.5h-285q-27 0 -44 22.5t-13 57.5zM932 16q-94 -51 -258 -51q-250 0 -404.5 180.5t-126.5 448.5q27 266 219.5 446.5t442.5 180.5q244 0 377 -207h4l6 65q4 51 49 87 t104.5 36t97.5 -36t34 -87l-103 -973q-6 -51 -51 -86.5t-104.5 -35.5t-97.5 35.5t-31 86.5l51 488q16 143 -75 245.5t-237 102.5q-143 0 -255.5 -102.5t-129.5 -245.5q-16 -145 76 -247.5t236 -102.5q49 0 98 12q39 16 75 -7.5t54 -68.5t3 -94.5t-54 -69.5z" glyph-name="amacron" horiz-adv-x="1486" unicode="ā"/><glyph d="M956 715l-102 407h-16l-510 -1067q-27 -45 -80 -62.5t-111 1.5q-51 23 -72.5 72t1.5 96l639 1292q55 98 186 98t166 -98l180 -633q10 -49 -18.5 -97t-85.5 -71q-59 -18 -112 -0.5t-65 62.5zM618.5 419.5q6.5 57.5 45 98.5t88.5 41h454q51 0 88 -27.5t43 -68.5l88 -301 q12 -47 -19.5 -96.5t-88.5 -71.5q-57 -16 -113 0q-16 6 -26 6q-49 0 -87 -35t-44 -84q-4 -49 26.5 -84t79.5 -35q10 0 26.5 4.5t26.5 4.5q23 2 37 -14.5t12 -41.5q-6 -53 -60 -76.5t-116 -23.5q-92 0 -150.5 64.5t-47.5 156.5q8 92 79.5 156.5t163.5 64.5h13l-72 222h-342 q-49 0 -80 41.5t-24.5 99z" glyph-name="Aogonek" horiz-adv-x="1458" unicode="Ą"/><glyph d="M1194 -238q10 0 26.5 4.5t26.5 4.5q23 2 37 -14.5t12 -41.5q-6 -53 -60 -76.5t-116 -23.5q-92 0 -150.5 64.5t-47.5 156.5q8 74 58 132.5t120 78.5q-12 29 -10 59l51 488q16 143 -75 245.5t-237 102.5q-143 0 -255.5 -102.5t-129.5 -245.5q-16 -145 76 -247.5t236 -102.5 q49 0 98 12q39 16 75 -7.5t54 -68.5t3 -94t-54 -70q-94 -51 -258 -51q-250 0 -404.5 180.5t-126.5 448.5q27 266 219.5 446.5t442.5 180.5q244 0 377 -207h4l6 65q4 51 49 87t104.5 36t97.5 -36t34 -87l-103 -973q-6 -51 -51 -86.5t-104 -35.5q-55 0 -91 -30t-41 -81 q-4 -47 27 -79t80 -32z" glyph-name="aogonek" horiz-adv-x="1486" unicode="ą"/><glyph d="M1331 430q37 39 91.5 41t97.5 -37q41 -37 43 -93t-35 -93q-283 -283 -637 -283q-342 0 -558 231.5t-181 571.5q23 223 152.5 408.5t329.5 290t425 104.5q356 0 579 -283q29 -37 14.5 -93t-63.5 -93q-51 -39 -104 -37t-84 41q-86 92 -168 138t-203 46q-217 0 -386 -152.5 t-191.5 -369.5t113.5 -369.5t354 -152.5q121 0 211.5 46t199.5 138zM1194 1720l-266 -67q-39 -10 -49 33q-10 49 30 75q2 0 4 2l252 121q59 25 86 -33q27 -59 -12 -104q-18 -19 -45 -27z" glyph-name="Cacute" horiz-adv-x="1601" unicode="Ć"/><glyph d="M987 328q41 35 94.5 29.5t87.5 -46.5q39 -41 37 -97t-49 -93q-195 -156 -430 -156q-272 0 -441 180.5t-143 448.5q27 266 235 446.5t480 180.5q244 0 397 -154q41 -41 33 -93t-59 -97q-43 -41 -98.5 -46.5t-86.5 29.5q-88 82 -215 82q-143 0 -255.5 -102.5t-129 -245.5 t75.5 -245.5t236 -102.5q129 0 231 82zM1001 1403l-264 -68q-39 -12 -49 33q-12 51 31 76q2 0 4 2l252 121q59 27 86 -33q25 -59 -14 -104q-17 -19 -46 -27z" glyph-name="cacute" horiz-adv-x="1255" unicode="ć"/><glyph d="M1331 430q37 39 91.5 41t97.5 -37q41 -37 43 -93t-35 -93q-283 -283 -637 -283q-342 0 -558 231.5t-181 571.5q23 223 152.5 408.5t329.5 290t425 104.5q356 0 579 -283q29 -37 14.5 -93t-63.5 -93q-51 -39 -104 -37t-84 41q-86 92 -168 138t-203 46q-217 0 -386 -152.5 t-191.5 -369.5t113.5 -369.5t354 -152.5q121 0 211.5 46t199.5 138zM971 1890l110 -114l136 114q18 16 42.5 12t41 -24t13.5 -47t-24 -41l-174 -154q-23 -18 -51 -18q-33 0 -51 18l-144 154q-35 39 11 88q20 20 48 24t42 -12z" glyph-name="Ccaron" horiz-adv-x="1601" unicode="Č"/><glyph d="M987 328q41 35 94.5 29.5t87.5 -46.5q39 -41 37 -97t-49 -93q-195 -156 -430 -156q-272 0 -441 180.5t-143 448.5q27 266 235 446.5t480 180.5q244 0 397 -154q41 -41 33 -93t-59 -97q-43 -41 -98.5 -46.5t-86.5 29.5q-88 82 -215 82q-143 0 -255.5 -102.5t-129 -245.5 t75.5 -245.5t236 -102.5q129 0 231 82zM776 1610l111 -115l135 115q18 16 44 12t40 -25q16 -20 14 -46.5t-22 -41.5l-174 -153q-25 -18 -54 -19q-35 0 -49 19l-143 153q-37 37 8 88q53 50 90 13z" glyph-name="ccaron" horiz-adv-x="1255" unicode="č"/><glyph d="M133 106l137 1307q4 51 51.5 87t106.5 36h389q334 0 538 -222t169 -554q-33 -332 -284 -554t-585 -222q-51 0 -82.5 41t-25.5 98t46 98t91 41q201 0 359.5 147.5t179.5 350.5q23 203 -105.5 349t-329.5 146h-243l-121 -1149q-6 -51 -52 -86.5t-105.5 -35.5t-99.5 35.5 t-34 86.5zM766 1880l111 -115l135 115q18 16 43.5 12t40.5 -24q16 -20 14 -47t-23 -41l-174 -154q-25 -18 -53 -18q-33 0 -49 18l-143 154q-37 37 8 88q53 49 90 12z" glyph-name="Dcaron" horiz-adv-x="1517" unicode="Ď"/><glyph d="M1573 1235l94 258q25 63 96 57q59 -6 72 -51q6 -25 -8 -51l-146 -240q-27 -41 -77 -26q-43 12 -33 47q0 4 2 6zM934 16q-94 -51 -258 -51q-250 0 -405.5 180.5t-127.5 448.5q27 266 220.5 446.5t443.5 180.5q244 0 377 -207h4l43 416q4 51 49 86.5t104.5 35.5t97.5 -35.5 t34 -86.5l-140 -1324q-6 -51 -51 -86.5t-104.5 -35.5t-97.5 35.5t-31 86.5l51 488q16 143 -75 245.5t-237 102.5q-143 0 -256.5 -102.5t-130.5 -245.5q-14 -143 77 -246.5t237 -103.5q49 0 98 12q39 16 75 -7.5t54.5 -68.5t3 -94.5t-54.5 -69.5z" glyph-name="dcaron" horiz-adv-x="1716" unicode="ď"/><glyph d="M135 123l70 663q4 51 51 87t106 36h736q51 0 82.5 -42t25.5 -99t-46 -98t-91 -41h-590l-37 -350h732q51 0 82.5 -41t25.5 -98.5t-46 -98.5t-91 -41h-877q-59 0 -99 36t-34 87zM244 1153l26 260q4 51 51.5 87t106.5 36h877q51 0 82.5 -42t25.5 -99.5t-46 -98.5t-91 -41 h-731l-10 -102q-6 -51 -53.5 -87t-107 -36t-98 36t-32.5 87zM668 1722q2 33 23.5 56.5t49.5 23.5h285q27 0 44 -22.5t13 -57.5q-2 -33 -23.5 -56.5t-49.5 -23.5h-285q-27 0 -44 22.5t-13 57.5z" glyph-name="Emacron" horiz-adv-x="1333" unicode="Ē"/><glyph d="M668 1456q4 35 25.5 57.5t47.5 22.5h285q29 0 45 -23.5t12 -56.5q-2 -33 -23.5 -56.5t-49.5 -23.5h-285q-27 0 -44 22.5t-13 57.5zM553 588q4 51 40 88t81 37h454q-27 109 -107.5 172t-193.5 63q-141 0 -253.5 -105.5t-129.5 -248.5q-16 -147 77 -258t241 -111 q80 0 167 29t144 76q35 35 85 33.5t85 -37.5q37 -33 40 -84.5t-30 -83.5q-104 -92 -241.5 -142.5t-276.5 -50.5q-279 0 -449.5 180.5t-142.5 448.5q27 266 235 446.5t478 180.5q264 0 431 -182.5t140 -444.5q-4 -51 -52 -92t-107 -41h-621q-45 0 -72.5 38t-21.5 89z" glyph-name="emacron" horiz-adv-x="1447" unicode="ē"/><glyph d="M135 123l70 663q4 51 51 87t106 36h736q51 0 82.5 -42t25.5 -99t-46 -98t-91 -41h-590l-37 -350h732q51 0 82.5 -41t25.5 -98.5t-46 -98.5t-91 -41h-877q-59 0 -99 36t-34 87zM244 1153l26 260q4 51 51.5 87t106.5 36h877q51 0 82.5 -42t25.5 -99.5t-46 -98.5t-91 -41 h-731l-10 -102q-6 -51 -53.5 -87t-107 -36t-98 36t-32.5 87zM860 1593q-63 0 -105 46.5t-36 111.5q8 66 59 112t115 46q66 0 107.5 -47t33.5 -111q-6 -63 -57 -110.5t-117 -47.5z" glyph-name="Edotaccent" horiz-adv-x="1333" unicode="Ė"/><glyph d="M553 588q4 51 40 88t81 37h454q-27 109 -107.5 172t-193.5 63q-141 0 -253.5 -105.5t-129.5 -248.5q-16 -147 77 -258t241 -111q80 0 167 29t144 76q35 35 85 33.5t85 -37.5q37 -33 40 -84.5t-30 -83.5q-104 -92 -241.5 -142.5t-276.5 -50.5q-279 0 -449.5 180.5 t-142.5 448.5q27 266 235 446.5t478 180.5q264 0 431 -182.5t140 -444.5q-4 -51 -52 -92t-107 -41h-621q-45 0 -72.5 38t-21.5 89zM868 1335q-63 0 -105 46t-36 112q8 66 59.5 112t114.5 46q66 0 108 -47.5t33 -110.5q-6 -63 -57 -110.5t-117 -47.5z" glyph-name="edotaccent" horiz-adv-x="1447" unicode="ė"/><glyph d="M1118 -238q10 0 26.5 4.5t26.5 4.5q23 2 37.5 -14.5t12.5 -41.5q-6 -53 -60.5 -76.5t-116.5 -23.5q-92 0 -150 64.5t-48 156.5q10 100 90 164h-668q-59 0 -99 36t-34 87l70 663q4 51 51 87t106 36h736q51 0 82.5 -42t25.5 -99t-46 -98t-91 -41h-590l-37 -350h732 q51 0 82.5 -41t25.5 -98.5t-46 -98.5t-91 -41q-53 0 -90 -35t-43 -84q-4 -49 26.5 -84t79.5 -35zM244 1153l26 260q4 51 51.5 87t106.5 36h877q51 0 82.5 -42t25.5 -99.5t-46 -98.5t-91 -41h-731l-10 -102q-6 -51 -53.5 -87t-107 -36t-98 36t-32.5 87z" glyph-name="Eogonek" horiz-adv-x="1333" unicode="Ę"/><glyph d="M553 588q4 51 40 88t81 37h454q-27 109 -107.5 172t-193.5 63q-141 0 -253.5 -105.5t-129.5 -248.5q-16 -147 77 -258t241 -111q80 0 167 29t144 76q35 35 85 33.5t85 -37.5q37 -33 40 -84.5t-30 -83.5q-104 -92 -247 -144q-39 -12 -67 -48t-32 -77q-6 -51 26 -89t83 -38 q10 0 26.5 4.5t26.5 4.5q23 2 37 -14.5t12 -41.5q-6 -53 -60 -76.5t-116 -23.5q-92 0 -151.5 68.5t-49.5 160.5q6 74 50 125q-37 -4 -56 -4q-279 0 -449.5 180.5t-142.5 448.5q27 266 235 446.5t478 180.5q264 0 431 -182.5t140 -444.5q-4 -51 -52 -92t-107 -41h-621 q-45 0 -72.5 38t-21.5 89z" glyph-name="eogonek" horiz-adv-x="1447" unicode="ę"/><glyph d="M135 123l70 663q4 51 51 87t106 36h736q51 0 82.5 -42t25.5 -99t-46 -98t-91 -41h-590l-37 -350h732q51 0 82.5 -41t25.5 -98.5t-46 -98.5t-91 -41h-877q-59 0 -99 36t-34 87zM244 1153l26 260q4 51 51.5 87t106.5 36h877q51 0 82.5 -42t25.5 -99.5t-46 -98.5t-91 -41 h-731l-10 -102q-6 -51 -53.5 -87t-107 -36t-98 36t-32.5 87zM762 1880l110 -115l136 115q18 16 43.5 12t40.5 -24q16 -20 14 -47t-23 -41l-174 -154q-25 -18 -53 -18q-33 0 -49 18l-143 154q-37 37 8 88q53 49 90 12z" glyph-name="Ecaron" horiz-adv-x="1333" unicode="Ě"/><glyph d="M553 588q4 51 40 88t81 37h454q-27 109 -107.5 172t-193.5 63q-141 0 -253.5 -105.5t-129.5 -248.5q-16 -147 77 -258t241 -111q80 0 167 29t144 76q35 35 85 33.5t85 -37.5q37 -33 40 -84.5t-30 -83.5q-104 -92 -241.5 -142.5t-276.5 -50.5q-279 0 -449.5 180.5 t-142.5 448.5q27 266 235 446.5t478 180.5q264 0 431 -182.5t140 -444.5q-4 -51 -52 -92t-107 -41h-621q-45 0 -72.5 38t-21.5 89zM774 1610l111 -115l135 115q18 16 44 12t40 -25q16 -20 14 -46.5t-22 -41.5l-174 -153q-25 -18 -54 -19q-33 0 -49 19l-143 153q-37 37 8 88 q53 50 90 13z" glyph-name="ecaron" horiz-adv-x="1447" unicode="ě"/><glyph d="M962.5 770q6.5 57 45.5 98t88 41h358q59 0 98 -35.5t35 -87.5l-53 -499q-2 -43 -43 -80q-262 -242 -600 -242q-342 0 -558 231.5t-181 571.5q23 223 152.5 408.5t329.5 290t425 104.5q301 0 520 -213q33 -35 22.5 -88t-55.5 -94q-47 -41 -100 -46.5t-84 29.5 q-135 131 -332 131q-215 0 -385 -152.5t-192.5 -369.5t115 -370.5t352.5 -153.5q184 0 346 118l28 267h-227q-49 0 -80 42t-24.5 99zM745 -438q2 18 15.5 31.5t32.5 13.5q33 0 58.5 23.5t31.5 60.5q-10 -4 -23 -4q-49 0 -79.5 34.5t-24.5 83.5q4 47 43 83t88 36 q47 0 78.5 -35.5t27.5 -83.5l-12 -114q-8 -74 -66.5 -126t-132.5 -52q-18 0 -28.5 14.5t-8.5 34.5z" glyph-name="Gcommaaccent" horiz-adv-x="1619" unicode="Ģ"/><glyph d="M715 279q55 0 110 20q41 16 86 0t62 -57q35 -88 -49 -154q-98 -76 -238 -80q-248 10 -406.5 191.5t-132.5 431.5q27 254 226.5 422t451.5 168q229 0 365 -187h4l4 53q6 51 47 83t96.5 32t91 -32.5t29.5 -82.5l-86 -827q-27 -264 -244 -454.5t-487 -190.5q-217 0 -414 106 q-39 23 -44 75t28 101.5t83 70t91 -0.5q139 -82 285 -82q133 0 265 92.5t144 217.5l45 415q14 137 -72.5 234.5t-224.5 97.5q-139 0 -254.5 -93t-130 -228.5t63.5 -238.5t205 -103zM987 1649q-2 -18 -15.5 -31.5t-31.5 -13.5q-33 0 -58.5 -24t-31.5 -60q10 4 22 4 q49 0 80 -35t27 -84q-6 -49 -44 -84t-87 -35q-47 0 -80 36t-27 83l11 115q8 74 66.5 126t131.5 52q18 0 28.5 -14.5t8.5 -34.5z" glyph-name="gcommaaccent" horiz-adv-x="1472" unicode="ģ"/><glyph d="M133 106l139 1324q4 51 51.5 86.5t106.5 35.5t98 -35.5t35 -86.5l-139 -1324q-6 -51 -52 -86.5t-106 -35.5q-61 0 -100 35.5t-33 86.5zM242 1722q2 33 23.5 56.5t49.5 23.5h285q27 0 44.5 -22.5t12.5 -57.5q-2 -33 -23.5 -56.5t-49.5 -23.5h-285q-27 0 -44 22.5t-13 57.5 z" glyph-name="Imacron" horiz-adv-x="536" unicode="Ī"/><glyph d="M133 106l103 973q4 51 50 87t105.5 36t97 -36t33.5 -87l-102 -973q-6 -51 -51 -86.5t-104.5 -35.5t-98.5 35.5t-33 86.5zM209 1456q4 35 25.5 57.5t48.5 22.5h284q29 0 45.5 -23.5t12.5 -56.5q-2 -33 -23.5 -56.5t-50.5 -23.5h-285q-27 0 -44 22.5t-13 57.5z" glyph-name="imacron" horiz-adv-x="532" unicode="ī"/><glyph d="M133 106l139 1324q4 51 51.5 86.5t106.5 35.5t98 -35.5t35 -86.5l-139 -1324q-6 -74 -84 -106q-80 -35 -86 -115q-6 -49 24.5 -86t79.5 -37q10 0 26.5 4.5t27.5 4.5q23 2 37 -14.5t12 -41.5q-6 -53 -60.5 -76.5t-115.5 -23.5q-92 0 -150.5 66.5t-48.5 158.5 q12 102 92 168q-51 37 -45 98z" glyph-name="Iogonek" horiz-adv-x="536" unicode="Į"/><glyph d="M133 106l103 973q4 51 50 87t105.5 36t97 -36t33.5 -87l-102 -973q-6 -76 -80 -106q-80 -35 -86 -115q-6 -49 24.5 -86t79.5 -37q10 0 26.5 4.5t27.5 4.5q23 2 37 -14.5t12 -41.5q-6 -53 -60.5 -76.5t-115.5 -23.5q-92 0 -150.5 66.5t-48.5 158.5q12 102 92 168 q-51 37 -45 98zM252 1417q8 68 60.5 115t120 47t109.5 -47t33 -115q-6 -68 -58 -115t-119.5 -47t-109.5 47t-36 115z" glyph-name="iogonek" horiz-adv-x="532" unicode="į"/><glyph d="M133 106l103 973q4 51 50 87t105.5 36t97 -36t33.5 -87l-102 -973q-6 -51 -51 -86.5t-104.5 -35.5t-98.5 35.5t-33 86.5z" glyph-name="dotlessi" horiz-adv-x="532" unicode="ı"/><glyph d="M913 768l418 -559q29 -37 15.5 -91.5t-62.5 -94.5q-51 -39 -103.5 -40t-80.5 40l-490 636q-35 45 -28.5 108.5t51.5 109.5l622 636q39 41 91.5 40t93.5 -40q41 -41 43 -95t-33 -91zM133 106l139 1324q4 51 51.5 86.5t106.5 35.5t98 -35.5t35 -86.5l-139 -1324 q-6 -51 -52 -86.5t-105.5 -35.5t-99.5 35.5t-34 86.5zM551 -397q2 18 15.5 31.5t31.5 13.5q33 0 58.5 23.5t31.5 60.5q-8 -4 -20 -4q-49 0 -81 34.5t-26 83.5q4 47 43 83t88 36q47 0 79 -35.5t28 -83.5l-13 -114q-8 -74 -65 -126t-131 -52q-18 0 -29.5 14.5t-9.5 34.5z" glyph-name="Kcommaaccent" horiz-adv-x="1398" unicode="Ķ"/><glyph d="M133 106l139 1324q4 51 50.5 86.5t105.5 35.5t97 -35.5t34 -86.5l-139 -1324q-6 -51 -51 -86.5t-104.5 -35.5t-98.5 35.5t-33 86.5zM885 594l309 -391q29 -35 15.5 -88.5t-62.5 -94.5q-49 -37 -100.5 -37.5t-79.5 37.5l-377 467q-37 45 -31 107q6 57 51 106l471 465 q39 39 90.5 38t90.5 -38q41 -41 43 -94t-33 -88zM496 -397q2 18 15 31.5t32 13.5q33 0 58.5 23.5t31.5 60.5q-8 -4 -21 -4q-49 0 -80.5 34.5t-25.5 83.5q4 47 43 83t88 36q47 0 79 -35.5t27 -83.5l-12 -114q-8 -74 -65.5 -126t-130.5 -52q-18 0 -29.5 14.5t-9.5 34.5z" glyph-name="kcommaaccent" horiz-adv-x="1230" unicode="ķ"/><glyph d="M135 123l137 1307q4 51 51.5 86.5t106.5 35.5t98 -35.5t35 -86.5l-121 -1151h660q51 0 83 -41t25.5 -98.5t-46.5 -98.5t-91 -41h-805q-59 0 -99 36t-34 87zM995 1679l-266 -67q-39 -12 -49 33q-12 51 31 75q2 0 4 2l252 121q59 25 86 -33q27 -59 -13 -104 q-18 -19 -45 -27z" glyph-name="Lacute" horiz-adv-x="1257" unicode="Ĺ"/><glyph d="M133 106l139 1324q4 51 50.5 86.5t105.5 35.5t97 -35.5t34 -86.5l-139 -1324q-6 -51 -51 -86.5t-104.5 -35.5t-98.5 35.5t-33 86.5zM565 1655l-264 -68q-39 -12 -49 33q-12 51 31 76q2 0 4 2l252 121q59 27 86 -33q25 -59 -15 -105q-16 -18 -45 -26z" glyph-name="lacute" horiz-adv-x="532" unicode="ĺ"/><glyph d="M135 123l137 1307q4 51 51.5 86.5t106.5 35.5t98 -35.5t35 -86.5l-121 -1151h660q51 0 83 -41t25.5 -98.5t-46.5 -98.5t-91 -41h-805q-59 0 -99 36t-34 87zM522 -397q2 18 15.5 31.5t31.5 13.5q33 0 58.5 23.5t31.5 60.5q-8 -4 -20 -4q-49 0 -81 34.5t-26 83.5 q4 47 43 83t89 36q47 0 78.5 -35.5t27.5 -83.5l-12 -114q-8 -74 -65.5 -126t-131.5 -52q-18 0 -29.5 14.5t-9.5 34.5z" glyph-name="Lcommaaccent" horiz-adv-x="1257" unicode="Ļ"/><glyph d="M133 106l139 1324q4 51 50.5 86.5t105.5 35.5t97 -35.5t34 -86.5l-139 -1324q-6 -51 -51 -86.5t-104.5 -35.5t-98.5 35.5t-33 86.5zM119 -418q2 18 15 31.5t32 13.5q33 0 58.5 23.5t31.5 60.5q-10 -4 -23 -4q-49 0 -79.5 35t-24.5 84q4 47 43 83t88 36q47 0 79 -36 t28 -83l-13 -115q-8 -74 -65.5 -126t-130.5 -52q-18 0 -29.5 14.5t-9.5 34.5z" glyph-name="lcommaaccent" horiz-adv-x="532" unicode="ļ"/><glyph d="M135 123l137 1307q4 51 51.5 86.5t106.5 35.5t98 -35.5t35 -86.5l-121 -1151h660q51 0 83 -41t25.5 -98.5t-46.5 -98.5t-91 -41h-805q-59 0 -99 36t-34 87zM1085 1235l95 258q25 63 96 57q59 -6 72 -51q6 -25 -9 -51l-145 -240q-27 -41 -78 -26q-43 12 -33 47q0 4 2 6z " glyph-name="Lcaron" horiz-adv-x="1257" unicode="Ľ"/><glyph d="M133 106l139 1324q4 51 50.5 86.5t105.5 35.5t97 -35.5t34 -86.5l-139 -1324q-6 -51 -51 -86.5t-104.5 -35.5t-98.5 35.5t-33 86.5zM616 1235l95 258q25 63 96 57q59 -6 72 -51q6 -25 -9 -51l-145 -240q-27 -41 -78 -26q-43 12 -33 47q0 4 2 6z" glyph-name="lcaron" horiz-adv-x="759" unicode="ľ"/><glyph d="M494 391l-13 -112h660q51 0 82.5 -41t25.5 -98.5t-46 -98.5t-91 -41h-805q-59 0 -99 36t-34 87l23 209q4 51 51 95t108 56q61 14 101.5 -13.5t36.5 -78.5zM784 694l-577 -121q-53 -10 -85 24t-26 93.5t47 109.5t95 60l577 121q53 10 85 -23.5t26 -93t-47.5 -110 t-94.5 -60.5zM414 1016q-61 -12 -101.5 15.5t-36.5 78.5l35 320q4 51 51.5 86.5t106.5 35.5t98 -35.5t35 -86.5l-27 -261q-6 -51 -53 -95t-108 -58z" glyph-name="Lslash" horiz-adv-x="1275" unicode="Ł"/><glyph d="M569 645l-362 -76q-53 -10 -85 24t-26 93t47 109.5t93 60.5l362 76q53 10 85 -24t25.5 -93t-47.5 -109.5t-92 -60.5zM430 1016q-61 -12 -100 15.5t-35 78.5l35 320q4 51 50 86.5t105.5 35.5t97.5 -35.5t33 -86.5l-26 -261q-6 -51 -52.5 -95t-107.5 -58zM373 483 q61 12 100 -15.5t33 -78.5l-29 -283q-6 -51 -51 -86.5t-104.5 -35.5t-98.5 35.5t-33 86.5l23 224q6 51 52.5 95t107.5 58z" glyph-name="lslash" horiz-adv-x="649" unicode="ł"/><glyph d="M1030 1679l-266 -67q-39 -12 -49 33q-12 51 30 75q2 0 5 2l251 121q59 25 86 -33q27 -59 -12 -104q-18 -19 -45 -27zM133 106l137 1313q6 55 60.5 94t126.5 39q53 0 94 -24.5t57 -63.5l479 -954h7l94 920q4 51 51 86.5t106.5 35.5t98.5 -35.5t35 -86.5l-140 -1313 q-4 -55 -58 -94t-126 -39q-53 0 -95 22.5t-56 59.5l-480 958h-6l-94 -918q-6 -51 -52 -86.5t-105.5 -35.5t-99.5 35.5t-34 86.5z" glyph-name="Nacute" horiz-adv-x="1452" unicode="Ń"/><glyph d="M522 1079l-102 -973q-6 -51 -51 -86.5t-104.5 -35.5t-98.5 35.5t-33 86.5l103 973q4 51 50 87t105.5 36t97 -36t33.5 -87zM942 106l59 574q14 125 -46 200.5t-185 61.5l-39 -4q-43 -4 -74.5 26.5t-35.5 79.5q-4 51 20.5 91.5t67.5 54.5q78 31 178 31q207 0 318.5 -139.5 t86.5 -364.5l-63 -611q-6 -51 -51 -86.5t-104.5 -35.5t-98.5 35.5t-33 86.5zM981 1403l-264 -68q-39 -12 -49 33q-12 51 30 76q2 0 4 2l252 121q59 27 86 -33q25 -59 -14 -104q-16 -19 -45 -27z" glyph-name="nacute" unicode="ń"/><glyph d="M580 -397q2 18 15 31.5t32 13.5q33 0 58.5 23.5t31.5 60.5q-8 -4 -21 -4q-49 0 -80.5 34.5t-25.5 83.5q4 47 43 83t88 36q47 0 78.5 -35.5t27.5 -83.5l-12 -114q-8 -74 -65.5 -126t-131.5 -52q-18 0 -29 14.5t-9 34.5zM133 106l137 1313q6 55 60.5 94t126.5 39 q53 0 94 -24.5t57 -63.5l479 -954h7l94 920q4 51 51 86.5t106.5 35.5t98.5 -35.5t35 -86.5l-140 -1313q-4 -55 -58 -94t-126 -39q-53 0 -95 22.5t-56 59.5l-480 958h-6l-94 -918q-6 -51 -52 -86.5t-105.5 -35.5t-99.5 35.5t-34 86.5z" glyph-name="Ncommaaccent" horiz-adv-x="1452" unicode="Ņ"/><glyph d="M524 -397q2 18 15.5 31.5t31.5 13.5q33 0 58.5 23.5t32.5 60.5q-8 -4 -21 -4q-49 0 -81 34.5t-25 83.5q4 47 42.5 83t88.5 36q47 0 78.5 -35.5t27.5 -83.5l-12 -114q-8 -74 -65.5 -126t-131.5 -52q-18 0 -29.5 14.5t-9.5 34.5zM522 1079l-102 -973q-6 -51 -51 -86.5 t-104.5 -35.5t-98.5 35.5t-33 86.5l103 973q4 51 50 87t105.5 36t97 -36t33.5 -87zM942 106l59 574q14 125 -46 200.5t-185 61.5l-39 -4q-43 -4 -74.5 26.5t-35.5 79.5q-4 51 20.5 91.5t67.5 54.5q78 31 178 31q207 0 318.5 -139.5t86.5 -364.5l-63 -611q-6 -51 -51 -86.5 t-104.5 -35.5t-98.5 35.5t-33 86.5z" glyph-name="ncommaaccent" unicode="ņ"/><glyph d="M801 1880l110 -115l136 115q18 16 43.5 12t39.5 -24q16 -20 14.5 -47t-22.5 -41l-174 -154q-25 -18 -53 -18q-35 0 -49 18l-144 154q-37 37 9 88q53 49 90 12zM133 106l137 1313q6 55 60.5 94t126.5 39q53 0 94 -24.5t57 -63.5l479 -954h7l94 920q4 51 51 86.5 t106.5 35.5t98.5 -35.5t35 -86.5l-140 -1313q-4 -55 -58 -94t-126 -39q-53 0 -95 22.5t-56 59.5l-480 958h-6l-94 -918q-6 -51 -52 -86.5t-105.5 -35.5t-99.5 35.5t-34 86.5z" glyph-name="Ncaron" horiz-adv-x="1452" unicode="Ň"/><glyph d="M737 1610l111 -115l135 115q18 16 44 12t40 -25q16 -20 14 -46.5t-22 -41.5l-174 -153q-25 -18 -54 -19q-33 0 -49 19l-143 153q-37 37 8 88q53 50 90 13zM522 1079l-102 -973q-6 -51 -51 -86.5t-104.5 -35.5t-98.5 35.5t-33 86.5l103 973q4 51 50 87t105.5 36t97 -36 t33.5 -87zM942 106l59 574q14 125 -46 200.5t-185 61.5l-39 -4q-43 -4 -74.5 26.5t-35.5 79.5q-4 51 20.5 91.5t67.5 54.5q78 31 178 31q207 0 318.5 -139.5t86.5 -364.5l-63 -611q-6 -51 -51 -86.5t-104.5 -35.5t-98.5 35.5t-33 86.5z" glyph-name="ncaron" unicode="ň"/><glyph d="M1499 768q23 217 -114.5 369.5t-354.5 152.5t-386 -152.5t-191.5 -369.5t113.5 -370.5t353.5 -153.5t387 152.5t192.5 371.5zM1798 768q-23 -223 -152.5 -408.5t-329.5 -290t-425 -104.5q-344 0 -559 231.5t-180.5 571.5t299 571.5t608.5 231.5q342 0 558 -231.5 t181 -571.5zM866 1722q2 33 23.5 56.5t50.5 23.5h285q27 0 44 -22.5t13 -57.5q-2 -33 -23.5 -56.5t-50.5 -23.5h-284q-27 0 -44.5 22.5t-13.5 57.5z" glyph-name="Omacron" horiz-adv-x="1789" unicode="Ō"/><glyph d="M1141 594q16 143 -76 245.5t-238 102.5q-143 0 -254.5 -102.5t-128.5 -245.5q-14 -143 76 -246.5t234 -103.5q145 0 258 102.5t129 247.5zM1440 594q-29 -268 -236 -448.5t-479 -180.5q-270 0 -440 180.5t-142 448.5q27 266 235 446.5t478 180.5q272 0 441.5 -180.5 t142.5 -446.5zM674 1456q4 35 25.5 57.5t48.5 22.5h284q29 0 45.5 -23.5t12.5 -56.5q-2 -33 -24 -56.5t-50 -23.5h-285q-27 0 -44 22.5t-13 57.5z" glyph-name="omacron" horiz-adv-x="1460" unicode="ō"/><glyph d="M1499 768q23 217 -114.5 369.5t-354.5 152.5t-386 -152.5t-191.5 -369.5t113.5 -370.5t353.5 -153.5t387 152.5t192.5 371.5zM1798 768q-23 -223 -152.5 -408.5t-329.5 -290t-425 -104.5q-344 0 -559 231.5t-180.5 571.5t299 571.5t608.5 231.5q342 0 558 -231.5 t181 -571.5zM934 1616q-27 10 -38 35.5t1 48.5l74 149q10 23 37.5 33t56.5 -2q27 -10 38 -34.5t1 -49.5l-76 -149q-10 -25 -37.5 -34t-56.5 3zM1157 1616q-27 10 -38 35.5t1 48.5l74 149q10 23 38 33t56 -2q27 -10 38 -34.5t1 -49.5l-76 -149q-10 -25 -37.5 -34t-56.5 3z " glyph-name="Ohungarumlaut" horiz-adv-x="1789" unicode="Ő"/><glyph d="M1141 594q16 143 -76 245.5t-238 102.5q-143 0 -254.5 -102.5t-128.5 -245.5q-14 -143 76 -246.5t234 -103.5q145 0 258 102.5t129 247.5zM1440 594q-29 -268 -236 -448.5t-479 -180.5q-270 0 -440 180.5t-142 448.5q27 266 235 446.5t478 180.5q272 0 441.5 -180.5 t142.5 -446.5zM723 1282q-27 10 -38 35.5t1 48.5l74 150q10 23 37.5 33t56.5 -3q27 -10 38 -34.5t1 -49.5l-76 -149q-10 -23 -37.5 -33t-56.5 2zM946 1282q-27 10 -38 35.5t1 48.5l74 150q10 23 38 33t56 -3q27 -10 38 -34.5t1 -49.5l-76 -149q-10 -23 -37.5 -33t-56.5 2z " glyph-name="ohungarumlaut" horiz-adv-x="1460" unicode="ő"/><glyph d="M1069 258q55 14 96 -15.5t52 -84.5q10 -57 -19 -108.5t-80 -59.5q-100 -25 -227 -25q-344 0 -559 231.5t-180.5 571.5t299 571.5t608.5 231.5q139 0 229 -34t172 -101q14 43 57.5 71.5t96.5 28.5h876q51 0 83 -42t26 -99.5t-46 -98.5t-91 -41h-731l-11 -102 q-6 -51 -53 -87t-106 -36q-80 0 -119 60q-61 90 -174 145t-238 55q-217 0 -386 -152.5t-191.5 -369.5t113.5 -370.5t354 -153.5q90 0 149 14zM1321 123l70 663q4 51 51 87t106 36h736q51 0 82.5 -42t25.5 -99t-46 -98t-91 -41h-590l-37 -350h731q51 0 83 -41t26 -98.5 t-46 -98.5t-91 -41h-877q-59 0 -99 36t-34 87z" glyph-name="OE" horiz-adv-x="2519" unicode="Œ"/><glyph d="M934 291q47 20 94 -2.5t68 -75.5q23 -51 2 -106.5t-68 -73.5q-162 -68 -305 -68q-270 0 -440 180.5t-142 448.5q27 266 235 446.5t478 180.5q147 0 271 -59.5t204 -162.5q215 221 520 222q264 0 431 -182.5t141 -444.5q-4 -51 -52.5 -92t-107.5 -41h-621q-45 0 -72.5 38 t-21.5 89q4 51 40 88t81 37h455q-27 109 -108 172t-193 63q-141 0 -254 -105.5t-129 -248.5q-16 -147 77 -258t240 -111q80 0 167 29t144 76q35 35 85.5 33.5t84.5 -37.5q37 -33 40 -84.5t-29 -83.5q-104 -92 -241.5 -142.5t-276.5 -50.5q-279 0 -449 180.5t-141 448.5 q16 143 -76 245.5t-238 102.5q-143 0 -254.5 -102.5t-128.5 -245.5q-14 -143 76 -246.5t234 -103.5q90 0 180 47z" glyph-name="oe" horiz-adv-x="2443" unicode="œ"/><glyph d="M745 768h134q100 0 179 71.5t89 172t-53.5 172t-163.5 71.5h-385l-121 -1149q-6 -51 -52 -86.5t-105.5 -35.5t-99.5 35.5t-34 86.5l137 1307q4 51 51.5 87t106.5 36h530q227 0 368.5 -150.5t117.5 -373.5q-18 -180 -145.5 -318.5t-305.5 -185.5l191 -313q25 -43 4 -96.5 t-74 -88.5q-51 -33 -106.5 -26.5t-79.5 49.5l-303 508q-23 43 -17 88q6 57 46 98t91 41zM1008 1679l-267 -67q-39 -12 -49 33q-12 51 31 75q2 0 4 2l252 121q59 25 86 -33q27 -59 -12 -104q-18 -19 -45 -27z" glyph-name="Racute" horiz-adv-x="1421" unicode="Ŕ"/><glyph d="M803 1403l-264 -68q-39 -12 -50 33q-12 51 31 76q2 0 4 2l252 121q59 27 86 -33q25 -59 -14 -104q-16 -19 -45 -27zM203 778l33 301q4 51 50 87t105.5 36t97 -36t33.5 -87l-2 -24h4q150 166 332 166q70 0 102.5 -10.5t83.5 -41.5q33 -20 38 -69t-23.5 -94t-68.5 -69 t-77 -7q-43 12 -94 12q-104 0 -197.5 -57.5t-142.5 -149.5q-45 -80 -143 -80q-59 0 -97 36t-34 87zM133 106l35 324q4 51 50 87t105.5 36t97.5 -36t34 -87l-35 -324q-6 -51 -51 -86.5t-104.5 -35.5t-98.5 35.5t-33 86.5z" glyph-name="racute" horiz-adv-x="989" unicode="ŕ"/><glyph d="M745 768h134q100 0 179 71.5t89 172t-53.5 172t-163.5 71.5h-385l-121 -1149q-6 -51 -52 -86.5t-105.5 -35.5t-99.5 35.5t-34 86.5l137 1307q4 51 51.5 87t106.5 36h530q227 0 368.5 -150.5t117.5 -373.5q-18 -180 -145.5 -318.5t-305.5 -185.5l191 -313q25 -43 4 -96.5 t-74 -88.5q-51 -33 -106.5 -26.5t-79.5 49.5l-303 508q-23 43 -17 88q6 57 46 98t91 41zM514 -397q2 18 15.5 31.5t31.5 13.5q33 0 58.5 23.5t31.5 60.5q-8 -4 -20 -4q-49 0 -81 34.5t-26 83.5q4 47 43 83t88 36q47 0 79 -35.5t28 -83.5l-12 -114q-8 -74 -65.5 -126 t-131.5 -52q-18 0 -29.5 14.5t-9.5 34.5z" glyph-name="Rcommaaccent" horiz-adv-x="1421" unicode="Ŗ"/><glyph d="M379 -397q2 18 15.5 31.5t31.5 13.5q33 0 58.5 23.5t31.5 60.5q-8 -4 -20 -4q-49 0 -81 34.5t-26 83.5q4 47 43 83t88 36q47 0 79 -35.5t28 -83.5l-13 -114q-8 -74 -65 -126t-131 -52q-18 0 -29.5 14.5t-9.5 34.5zM203 778l33 301q4 51 50 87t105.5 36t97 -36t33.5 -87 l-2 -24h4q150 166 332 166q70 0 102.5 -10.5t83.5 -41.5q33 -20 38 -69t-23.5 -94t-68.5 -69t-77 -7q-43 12 -94 12q-104 0 -197.5 -57.5t-142.5 -149.5q-45 -80 -143 -80q-59 0 -97 36t-34 87zM133 106l35 324q4 51 50 87t105.5 36t97.5 -36t34 -87l-35 -324 q-6 -51 -51 -86.5t-104.5 -35.5t-98.5 35.5t-33 86.5z" glyph-name="rcommaaccent" horiz-adv-x="989" unicode="ŗ"/><glyph d="M745 768h134q100 0 179 71.5t89 172t-53.5 172t-163.5 71.5h-385l-121 -1149q-6 -51 -52 -86.5t-105.5 -35.5t-99.5 35.5t-34 86.5l137 1307q4 51 51.5 87t106.5 36h530q227 0 368.5 -150.5t117.5 -373.5q-18 -180 -145.5 -318.5t-305.5 -185.5l191 -313q25 -43 4 -96.5 t-74 -88.5q-51 -33 -106.5 -26.5t-79.5 49.5l-303 508q-23 43 -17 88q6 57 46 98t91 41zM750 1880l110 -115l135 115q18 16 44 12t40 -24q16 -20 14.5 -47t-22.5 -41l-174 -154q-25 -18 -53 -18q-33 0 -49 18l-144 154q-37 37 8 88q54 49 91 12z" glyph-name="Rcaron" horiz-adv-x="1421" unicode="Ř"/><glyph d="M569 1610l111 -115l135 115q18 16 44 12t40 -25q16 -20 14 -46.5t-22 -41.5l-174 -153q-25 -18 -53 -19q-33 0 -50 19l-143 153q-37 37 8 88q53 50 90 13zM203 778l33 301q4 51 50 87t105.5 36t97 -36t33.5 -87l-2 -24h4q150 166 332 166q70 0 102.5 -10.5t83.5 -41.5 q33 -20 38 -69t-23.5 -94t-68.5 -69t-77 -7q-43 12 -94 12q-104 0 -197.5 -57.5t-142.5 -149.5q-45 -80 -143 -80q-59 0 -97 36t-34 87zM133 106l35 324q4 51 50 87t105.5 36t97.5 -36t34 -87l-35 -324q-6 -51 -51 -86.5t-104.5 -35.5t-98.5 35.5t-33 86.5z" glyph-name="rcaron" horiz-adv-x="989" unicode="ř"/><glyph d="M963 1720l-267 -67q-39 -10 -49 33q-10 49 31 75q2 0 4 2l252 121q59 25 86 -33q27 -59 -12 -104q-18 -19 -45 -27zM326 358q170 -141 346 -141q123 0 207 63.5t94 163.5q8 74 -33 121t-110.5 68.5t-154.5 38t-170 43t-152.5 70.5t-103.5 133.5t-22 218.5 q20 203 184 318.5t402 115.5q123 0 247 -37t214 -100q39 -29 43 -79t-29 -102q-37 -51 -87 -69.5t-91 6.5q-162 106 -326 106q-236 0 -254 -159q-8 -72 33 -117t110.5 -66.5t155.5 -38t170 -44t152 -72.5t103.5 -135.5t21.5 -219.5q-23 -221 -199 -350t-432 -129 q-291 0 -498 156l-6 6q-37 31 -37 84t39 104q39 43 93.5 56.5t89.5 -13.5z" glyph-name="Sacute" horiz-adv-x="1312" unicode="Ś"/><glyph d="M858 1403l-264 -68q-39 -12 -49 33q-12 51 30 76q2 0 5 2l251 121q59 27 87 -33q25 -59 -15 -104q-16 -19 -45 -27zM293 303q135 -78 317 -88q229 0 244 123q6 55 -30 86t-97 43t-136 20.5t-148.5 26.5t-132 52t-90.5 108t-19 184q18 176 153 269.5t361 93.5 q209 0 379 -88q35 -16 42 -61.5t-18 -92.5q-29 -47 -73 -67.5t-82 -0.5q-119 61 -275 62q-182 0 -192 -115q-6 -51 29.5 -80.5t97 -42t137.5 -23t149.5 -29.5t133 -55t90 -110t20.5 -180q-20 -186 -177 -279.5t-392 -93.5q-254 0 -443 109q-35 23 -40 71t24 95 q31 49 79 67.5t89 -4.5z" glyph-name="sacute" horiz-adv-x="1181" unicode="ś"/><glyph d="M725 1890l111 -114l135 114q18 16 42.5 12t41 -24t13.5 -47t-24 -41l-174 -154q-23 -18 -51 -18q-33 0 -51 18l-143 154q-35 39 10 88q20 20 48 24t42 -12zM326 358q170 -141 346 -141q123 0 207 63.5t94 163.5q8 74 -33 121t-110.5 68.5t-154.5 38t-170 43t-152.5 70.5 t-103.5 133.5t-22 218.5q20 203 184 318.5t402 115.5q123 0 247 -37t214 -100q39 -29 43 -79t-29 -102q-37 -51 -87 -69.5t-91 6.5q-162 106 -326 106q-236 0 -254 -159q-8 -72 33 -117t110.5 -66.5t155.5 -38t170 -44t152 -72.5t103.5 -135.5t21.5 -219.5 q-23 -221 -199 -350t-432 -129q-291 0 -498 156l-6 6q-37 31 -37 84t39 104q39 43 93.5 56.5t89.5 -13.5z" glyph-name="Scaron" horiz-adv-x="1312" unicode="Š"/><glyph d="M633 1610l110 -115l136 115q18 16 43.5 12t40.5 -25q16 -20 14 -46.5t-23 -41.5l-174 -153q-25 -18 -53 -19q-35 0 -49 19l-143 153q-37 37 8 88q53 50 90 13zM293 303q135 -78 317 -88q229 0 244 123q6 55 -30 86t-97 43t-136 20.5t-148.5 26.5t-132 52t-90.5 108 t-19 184q18 176 153 269.5t361 93.5q209 0 379 -88q35 -16 42 -61.5t-18 -92.5q-29 -47 -73 -67.5t-82 -0.5q-119 61 -275 62q-182 0 -192 -115q-6 -51 29.5 -80.5t97 -42t137.5 -23t149.5 -29.5t133 -55t90 -110t20.5 -180q-20 -186 -177 -279.5t-392 -93.5 q-254 0 -443 109q-35 23 -40 71t24 95q31 49 79 67.5t89 -4.5z" glyph-name="scaron" horiz-adv-x="1181" unicode="š"/><glyph d="M713 1880l110 -115l135 115q18 16 44 12t40 -24q16 -20 14.5 -47t-22.5 -41l-174 -154q-25 -18 -53 -18q-33 0 -49 18l-144 154q-37 37 9 88q53 49 90 12zM637 -16q-59 0 -99 35.5t-34 86.5l137 1307q4 51 51 87t107 36h489q51 0 83 -42t26 -99.5t-46 -98.5t-91 -41h-347 l-120 -1149q-6 -51 -51.5 -86.5t-104.5 -35.5zM270 1255q-49 0 -79.5 41t-24.5 99q6 59 45 100t88 41h115q49 0 79.5 -42t24.5 -99.5t-45 -98.5t-88 -41h-115z" glyph-name="Tcaron" horiz-adv-x="1271" unicode="Ť"/><glyph d="M406 829q57 0 96 -35.5t35 -84.5l-39 -359q-2 -31 16 -51t47 -20h33q45 0 72.5 -41t21.5 -98.5t-42 -98.5t-81 -41h-53q-174 0 -246.5 86t-54.5 264l39 359q4 49 50.5 84.5t105.5 35.5zM299 1186l18 164q4 49 50.5 84.5t105.5 35.5q57 0 96 -35.5t35 -84.5l-18 -164h102 q45 0 72.5 -37t23.5 -90q-6 -53 -41.5 -90t-80.5 -37h-424q-45 0 -73 38t-22 89q4 51 40 89t81 38h35zM803 1235l94 258q25 63 96 57q59 -6 72 -51q6 -25 -8 -51l-146 -240q-27 -41 -77 -26q-43 12 -33 47q0 4 2 6z" glyph-name="tcaron" horiz-adv-x="937" unicode="ť"/><glyph d="M707 1722q2 33 23.5 56.5t49.5 23.5h285q27 0 44 -22.5t13 -57.5q-2 -33 -23.5 -56.5t-49.5 -23.5h-285q-27 0 -44 22.5t-13 57.5zM272 1430q4 51 51.5 86.5t106.5 35.5t98 -35.5t35 -86.5l-94 -895q-14 -135 69 -216t222 -81t237.5 80.5t112.5 216.5l94 895 q4 51 51.5 86.5t106.5 35.5t98 -35.5t35 -86.5l-94 -895q-27 -262 -214.5 -416t-455.5 -154q-270 0 -424.5 153.5t-128.5 416.5z" glyph-name="Umacron" horiz-adv-x="1468" unicode="Ū"/><glyph d="M614 1456q4 35 26 57.5t48 22.5h285q29 0 45 -23.5t12 -56.5q-2 -33 -23.5 -56.5t-50.5 -23.5h-284q-27 0 -44.5 22.5t-13.5 57.5zM942 106l102 973q4 51 50.5 87t106 36t97 -36t33.5 -87l-102 -973q-6 -51 -51 -86.5t-104.5 -35.5t-98.5 35.5t-33 86.5zM522 1079 l-61 -573q-12 -125 48 -201t185 -61l39 4q43 4 75 -27t36 -80q4 -51 -20.5 -91t-67.5 -54q-76 -31 -178 -31q-207 0 -319 139.5t-87 364.5l64 610q4 51 50 87t105.5 36t97 -36t33.5 -87z" glyph-name="umacron" unicode="ū"/><glyph d="M971 1743q2 23 -12.5 38t-37 15t-41 -16.5t-20.5 -36.5q-2 -25 12.5 -41t37 -16t41 16t20.5 41zM1067 1743q-6 -63 -56 -108.5t-111.5 -45.5t-101.5 45t-34 109q6 61 56 105t111.5 44t101.5 -44t34 -105zM272 1430q4 51 51.5 86.5t106.5 35.5t98 -35.5t35 -86.5l-94 -895 q-14 -135 69 -216t222 -81t237.5 80.5t112.5 216.5l94 895q4 51 51.5 86.5t106.5 35.5t98 -35.5t35 -86.5l-94 -895q-27 -262 -214.5 -416t-455.5 -154q-270 0 -424.5 153.5t-128.5 416.5z" glyph-name="Uring" horiz-adv-x="1468" unicode="Ů"/><glyph d="M881 1489q2 23 -12.5 38t-34.5 15q-25 0 -43.5 -15.5t-20.5 -37.5q-2 -25 12.5 -41t38.5 -16q23 0 40.5 16t19.5 41zM977 1489q-6 -63 -56.5 -108.5t-109.5 -45.5q-63 0 -103 45t-34 109q6 61 56 105t114 44q59 0 99 -44t34 -105zM942 106l102 973q4 51 50.5 87t106 36 t97 -36t33.5 -87l-102 -973q-6 -51 -51 -86.5t-104.5 -35.5t-98.5 35.5t-33 86.5zM522 1079l-61 -573q-12 -125 48 -201t185 -61l39 4q43 4 75 -27t36 -80q4 -51 -20.5 -91t-67.5 -54q-76 -31 -178 -31q-207 0 -319 139.5t-87 364.5l64 610q4 51 50 87t105.5 36t97 -36 t33.5 -87z" glyph-name="uring" unicode="ů"/><glyph d="M272 1430q4 51 51.5 86.5t106.5 35.5t98 -35.5t35 -86.5l-94 -895q-14 -135 69 -216t222 -81t237.5 80.5t112.5 216.5l94 895q4 51 51.5 86.5t106.5 35.5t98 -35.5t35 -86.5l-94 -895q-27 -262 -214.5 -416t-455.5 -154q-270 0 -424.5 153.5t-128.5 416.5zM760 1616 q-27 10 -38 35.5t1 48.5l74 149q10 23 37.5 33t56.5 -2q27 -10 38 -34.5t1 -49.5l-76 -149q-10 -25 -37.5 -34t-56.5 3zM983 1616q-27 10 -38 35.5t1 48.5l74 149q10 23 37.5 33t56.5 -2q27 -10 38 -34.5t1 -49.5l-76 -149q-10 -25 -37.5 -34t-56.5 3z" glyph-name="Uhungarumlaut" horiz-adv-x="1468" unicode="Ű"/><glyph d="M942 106l102 973q4 51 50.5 87t106 36t97 -36t33.5 -87l-102 -973q-6 -51 -51 -86.5t-104.5 -35.5t-98.5 35.5t-33 86.5zM522 1079l-61 -573q-12 -125 48 -201t185 -61l39 4q43 4 75 -27t36 -80q4 -51 -20.5 -91t-67.5 -54q-76 -31 -178 -31q-207 0 -319 139.5t-87 364.5 l64 610q4 51 50 87t105.5 36t97 -36t33.5 -87zM662 1282q-27 10 -38.5 35.5t1.5 48.5l73 150q10 23 38 33t57 -3q27 -10 38 -34.5t0 -49.5l-75 -149q-10 -23 -37.5 -33t-56.5 2zM885 1282q-27 10 -38 35.5t1 48.5l74 150q10 23 37.5 33t56.5 -3q27 -10 38 -34.5t1 -49.5 l-76 -149q-10 -23 -37.5 -33t-56.5 2z" glyph-name="uhungarumlaut" unicode="ű"/><glyph d="M272 1430q4 51 51.5 86.5t106.5 35.5t98 -35.5t35 -86.5l-94 -895q-14 -135 69 -216t222 -81t237.5 80.5t112.5 216.5l94 895q4 51 51.5 86.5t106.5 35.5t98 -35.5t35 -86.5l-94 -895q-20 -193 -131 -330t-283 -199q-35 -12 -58.5 -45t-27.5 -72q-6 -53 24.5 -90 t80.5 -37q10 0 26.5 4.5t26.5 4.5q23 2 37 -14.5t12 -41.5q-6 -53 -60.5 -76.5t-115.5 -23.5q-92 0 -150.5 64.5t-48.5 156.5q10 72 53 131q-8 0 -26.5 -1t-28.5 -1q-270 0 -424.5 153.5t-128.5 416.5z" glyph-name="Uogonek" horiz-adv-x="1468" unicode="Ų"/><glyph d="M522 1079l-61 -573q-12 -125 48 -201t185 -61l39 4q43 4 75 -27t36 -80q4 -51 -20.5 -91t-67.5 -54q-76 -31 -178 -31q-207 0 -319 139.5t-87 364.5l64 610q4 51 50 87t105.5 36t97 -36t33.5 -87zM942 106l102 973q4 51 50.5 87t106 36t97 -36t33.5 -87l-102 -973 q-6 -76 -80 -106q-80 -35 -86 -115q-6 -49 24.5 -86t79.5 -37q10 0 26.5 4.5t27.5 4.5q23 2 37 -14.5t12 -41.5q-6 -53 -60.5 -76.5t-115.5 -23.5q-92 0 -150.5 66.5t-48.5 158.5q12 102 92 168q-51 37 -45 98z" glyph-name="uogonek" unicode="ų"/><glyph d="M776 1718q-4 -43 -39 -73.5t-75 -30.5q-45 0 -72 30.5t-23 73.5q4 45 38 75t79 30q43 0 69.5 -31t22.5 -74zM1182 1718q-4 -43 -38 -73.5t-79 -30.5q-43 0 -69.5 30.5t-22.5 73.5q4 45 37.5 75t76.5 30q45 0 72 -30t23 -75zM694 -16q-61 0 -100 35.5t-33 86.5l70 662 q2 33 31 63l602 680q37 41 93 42t97 -35q45 -37 51 -91.5t-30 -95.5l-562 -633l-61 -592q-6 -51 -52.5 -86.5t-105.5 -35.5zM444 1511l234 -344q29 -41 11.5 -95t-69 -91t-107.5 -35t-83 41l-233 344q-27 41 -10.5 95.5t67.5 91t107 35.5t83 -42z" glyph-name="Ydieresis" horiz-adv-x="1392" unicode="Ÿ"/><glyph d="M975 1679l-266 -67q-39 -12 -50 33q-12 51 31 75q2 0 4 2l252 121q59 25 86 -33q27 -59 -12 -104q-18 -19 -45 -27zM80 184q10 88 70 142l882 925v4h-721q-49 0 -79.5 41t-24.5 98.5t45 99.5t88 42h946q63 0 103.5 -54.5t31.5 -129.5q-8 -84 -71 -144l-879 -923v-4h719 q49 0 79.5 -42t24.5 -99.5t-45 -98.5t-88 -41h-946q-63 0 -103 54t-32 130z" glyph-name="Zacute" unicode="Ź"/><glyph d="M862 1403l-264 -68q-39 -12 -49 33q-12 51 31 76q2 0 4 2l252 121q59 27 86 -33q25 -59 -15 -104q-16 -19 -45 -27zM1130 129q-4 -53 -39.5 -91t-80.5 -38h-836q-45 0 -74.5 39t-25.5 90q6 53 51 98l639 695v4h-498q-45 0 -72.5 39t-21.5 92q4 53 40 91t81 38h835 q45 0 73 -38t24 -91q-6 -57 -47 -99l-639 -694v-4h497q45 0 72.5 -39t21.5 -92z" glyph-name="zacute" horiz-adv-x="1179" unicode="ź"/><glyph d="M838 1593q-63 0 -105.5 46.5t-36.5 111.5q8 66 59.5 112t114.5 46q66 0 108 -47t34 -111q-6 -63 -57 -110.5t-117 -47.5zM80 184q10 88 70 142l882 925v4h-721q-49 0 -79.5 41t-24.5 98.5t45 99.5t88 42h946q63 0 103.5 -54.5t31.5 -129.5q-8 -84 -71 -144l-879 -923v-4 h719q49 0 79.5 -42t24.5 -99.5t-45 -98.5t-88 -41h-946q-63 0 -103 54t-32 130z" glyph-name="Zdotaccent" unicode="Ż"/><glyph d="M729 1335q-63 0 -105 46t-36 112q8 66 59 112t115 46q66 0 107.5 -47.5t33.5 -110.5q-6 -63 -57 -110.5t-117 -47.5zM1130 129q-4 -53 -39.5 -91t-80.5 -38h-836q-45 0 -74.5 39t-25.5 90q6 53 51 98l639 695v4h-498q-45 0 -72.5 39t-21.5 92q4 53 40 91t81 38h835 q45 0 73 -38t24 -91q-6 -57 -47 -99l-639 -694v-4h497q45 0 72.5 -39t21.5 -92z" glyph-name="zdotaccent" horiz-adv-x="1179" unicode="ż"/><glyph d="M80 184q10 88 70 142l882 925v4h-721q-49 0 -79.5 41t-24.5 98.5t45 99.5t88 42h946q63 0 103.5 -54.5t31.5 -129.5q-8 -84 -71 -144l-879 -923v-4h719q49 0 79.5 -42t24.5 -99.5t-45 -98.5t-88 -41h-946q-63 0 -103 54t-32 130zM745 1880l111 -115l135 115q18 16 44 12 t40 -24q16 -20 14 -47t-22 -41l-174 -154q-25 -18 -53 -18q-33 0 -49 18l-144 154q-37 37 8 88q53 49 90 12z" glyph-name="Zcaron" unicode="Ž"/><glyph d="M1130 129q-4 -53 -39.5 -91t-80.5 -38h-836q-45 0 -74.5 39t-25.5 90q6 53 51 98l639 695v4h-498q-45 0 -72.5 39t-21.5 92q4 53 40 91t81 38h835q45 0 73 -38t24 -91q-6 -57 -47 -99l-639 -694v-4h497q45 0 72.5 -39t21.5 -92zM635 1610l110 -115l136 115q18 16 43.5 12 t40.5 -25q16 -20 14 -46.5t-23 -41.5l-174 -153q-25 -18 -53 -19q-33 0 -49 19l-143 153q-37 37 8 88q53 50 90 13z" glyph-name="zcaron" horiz-adv-x="1179" unicode="ž"/><glyph d="M846 909h-451q-47 0 -71.5 39t-10 92.5t57.5 91t90 37.5h86l6 33q41 139 166 236.5t264 97.5h16q47 0 73 -39t11 -94q-12 -55 -56 -94t-91 -39h-16q-29 0 -55.5 -20.5t-33.5 -47.5l-6 -33h86q47 0 72 -37.5t10.5 -91t-57.5 -92.5t-90 -39zM707 684l-172 -698 q-41 -139 -165 -237.5t-266 -98.5h-18q-47 0 -70.5 39t-13.5 94q14 55 57 94t91 39h18q27 0 53.5 20.5t34.5 49.5l170 698q12 51 62.5 87t107.5 36t90 -36t21 -87z" glyph-name="florin" horiz-adv-x="964" unicode="ƒ"/><glyph d="M588 1473l-135 -115q-18 -16 -44 -12t-42 24q-37 51 8 88l176 154q20 18 53 18q31 0 49 -18l142 -154q18 -16 15 -40.5t-24 -47.5q-20 -20 -46.5 -24.5t-41.5 12.5z" glyph-name="circumflex" horiz-adv-x="868" unicode="ˆ"/><glyph d="M479 1610l111 -115l135 115q18 16 44 12t40 -25q16 -20 14 -46.5t-22 -41.5l-174 -153q-25 -18 -54 -19q-33 0 -49 19l-143 153q-37 37 8 88q53 50 90 13z" glyph-name="caron" horiz-adv-x="868" unicode="ˇ"/><glyph d="M645 1473q-70 -113 -199 -113q-59 0 -106 30.5t-68 82.5q-10 23 2.5 50t38.5 42q29 14 57.5 9t37.5 -26q12 -43 55 -43q41 0 63 43q10 20 41 25.5t58 -8.5q25 -14 30.5 -41.5t-10.5 -50.5z" glyph-name="breve" horiz-adv-x="610" unicode="˘"/><glyph d="M420 1335q-63 0 -105.5 46t-35.5 112q8 66 59 112t115 46q66 0 107.5 -47.5t33.5 -110.5q-6 -63 -57 -110.5t-117 -47.5z" glyph-name="dotaccent" horiz-adv-x="561" unicode="˙"/><glyph d="M567 1489q2 23 -12 38t-35 15q-25 0 -43 -15.5t-20 -37.5q-2 -25 12 -41t39 -16q23 0 40 16t19 41zM664 1489q-6 -63 -56.5 -108.5t-109.5 -45.5q-63 0 -103.5 45t-34.5 109q6 61 56.5 105t113.5 44q59 0 99.5 -44t34.5 -105z" glyph-name="ring" horiz-adv-x="712" unicode="˚"/><glyph d="M377 -238q10 0 26.5 4.5t26.5 4.5q23 2 37 -14.5t12 -41.5q-6 -53 -60 -76.5t-116 -23.5q-92 0 -150.5 64.5t-48.5 156.5q8 92 80 156.5t164 64.5q23 0 60 -8l-5 -49q-49 0 -88 -35t-45 -84q-4 -49 27 -84t80 -35z" glyph-name="ogonek" horiz-adv-x="632" unicode="˛"/><glyph d="M352 1419q8 61 56.5 106.5t109.5 45.5q90 0 121 -80q8 -20 35 -21q37 0 43 39q2 18 19.5 31.5t40 13.5t37.5 -13t13 -32q-8 -66 -56 -108.5t-109 -42.5q-86 0 -125 78q-8 23 -31 22q-37 0 -43 -39q-2 -18 -19.5 -31.5t-40 -13.5t-38 13.5t-13.5 31.5z" glyph-name="tilde" horiz-adv-x="874" unicode="˜"/><glyph d="M295 1282q-27 10 -38 35.5t1 48.5l74 150q10 23 37.5 33t56.5 -3q27 -10 38 -34.5t1 -49.5l-76 -149q-10 -23 -37.5 -33t-56.5 2zM518 1282q-27 10 -38 35.5t1 48.5l74 150q10 23 38 33t56 -3q27 -10 38 -34.5t1 -49.5l-76 -149q-10 -23 -37.5 -33t-56.5 2z" glyph-name="hungarumlaut" horiz-adv-x="649" unicode="˝"/><glyph d="M1346 928h-193l-72 -688q-6 -63 52 -64q27 0 53 8l-23 -219q-49 -6 -65 -6q-168 0 -240 66.5t-53 230.5l69 672h-245l-97 -928h-278l96 928h-192l26 258h1188z" glyph-name="pi" horiz-adv-x="1310" unicode="π"/><glyph d="M137 592q4 43 33 73.5t63 30.5h961q35 0 57.5 -30.5t18.5 -73.5t-33 -74t-63 -31h-961q-35 0 -57.5 31t-18.5 74z" glyph-name="endash" horiz-adv-x="1267" unicode="–"/><glyph d="M137 592q4 43 33 73.5t63 30.5h1553q35 0 57.5 -30.5t18.5 -73.5t-33 -74t-64 -31h-1552q-35 0 -57.5 31t-18.5 74z" glyph-name="emdash" horiz-adv-x="1861" unicode="—"/><glyph d="M553 1489q-2 -27 -21.5 -44.5t-44.5 -17.5q-45 0 -77.5 -30.5t-38.5 -79.5q10 4 26 4q66 0 108 -47t34 -111q-6 -63 -57.5 -110t-116.5 -47q-63 0 -105.5 46t-36.5 111l17 152q10 98 85.5 167.5t174.5 69.5q25 0 40 -18t13 -45z" glyph-name="quoteleft" horiz-adv-x="479" unicode="‘"/><glyph d="M192.5 1069q2.5 27 23 44t44.5 17q45 0 77 31t38 80q-10 -4 -27 -4q-63 0 -105 46t-36 112q6 63 57 110t117 47q63 0 105 -46t36 -111l-16 -152q-10 -98 -86 -167.5t-174 -69.5q-25 0 -40.5 18t-13 45z" glyph-name="quoteright" horiz-adv-x="479" unicode="’"/><glyph d="M102 -184.5q2 26.5 21.5 44t44.5 17.5q45 0 78 31t39 80q-10 -4 -27 -4q-66 0 -107.5 47t-33.5 110q6 63 57 110.5t117 47.5q63 0 105 -46t36 -112l-16 -151q-10 -98 -86 -168t-174 -70q-25 0 -40.5 18.5t-13.5 45z" glyph-name="quotesinglbase" horiz-adv-x="479" unicode="‚"/><glyph d="M553 1489q-2 -27 -21.5 -44.5t-44.5 -17.5q-45 0 -77.5 -30.5t-38.5 -79.5q10 4 26 4q66 0 108 -47t34 -111q-6 -63 -57.5 -110t-116.5 -47q-63 0 -105.5 46t-36.5 111l17 152q10 98 85.5 167.5t174.5 69.5q25 0 40 -18t13 -45zM930 1489q-2 -27 -21.5 -44.5t-44.5 -17.5 q-45 0 -77.5 -30.5t-38.5 -79.5q10 4 26 4q66 0 108 -47t33 -111q-6 -63 -57 -110t-117 -47q-63 0 -105 46t-36 111l16 152q10 98 86 167.5t175 69.5q25 0 40 -18t13 -45z" glyph-name="quotedblleft" horiz-adv-x="856" unicode="“"/><glyph d="M569 1069q2 27 22.5 44t45.5 17q45 0 76.5 31t38.5 80q-10 -4 -27 -4q-63 0 -105 46t-36 112q6 63 57 110t117 47q63 0 105 -46t36 -111l-16 -152q-10 -98 -86 -167.5t-174 -69.5q-25 0 -40.5 18t-13.5 45zM192.5 1069q2.5 27 23 44t44.5 17q45 0 77 31t38 80 q-10 -4 -27 -4q-63 0 -105 46t-36 112q6 63 57 110t117 47q63 0 105 -46t36 -111l-16 -152q-10 -98 -86 -167.5t-174 -69.5q-25 0 -40.5 18t-13 45z" glyph-name="quotedblright" horiz-adv-x="856" unicode="”"/><glyph d="M61 -184.5q2 26.5 21.5 44t44.5 17.5q45 0 78 31t39 80q-10 -4 -27 -4q-66 0 -107.5 47t-33.5 110q6 63 57 110.5t117 47.5q63 0 105 -46t36 -112l-16 -151q-10 -98 -86 -168t-174 -70q-25 0 -40.5 18.5t-13.5 45zM438 -184.5q2 26.5 21.5 44t44.5 17.5q45 0 77.5 31 t39.5 80q-10 -4 -27 -4q-66 0 -108 47t-33 110q6 63 57 110.5t117 47.5q63 0 105 -46t36 -112l-16 -151q-10 -98 -86 -168t-174 -70q-25 0 -40.5 18.5t-13.5 45z" glyph-name="quotedblbase" horiz-adv-x="856" unicode="„"/><glyph d="M946 977h-649q-37 0 -59.5 30.5t-18.5 73.5t33 74t65 31h224l30 278q2 37 36 62.5t77 25.5t70.5 -25.5t25.5 -62.5l-30 -278h217q37 0 58.5 -31t17 -74t-32 -73.5t-64.5 -30.5zM709 799l-95 -901q-2 -37 -35.5 -61.5t-76.5 -24.5t-71 24.5t-25 61.5l94 901 q4 37 37.5 61.5t76.5 24.5t71 -24.5t24 -61.5z" glyph-name="dagger" horiz-adv-x="1036" unicode="†"/><glyph d="M946 977h-649q-37 0 -59.5 30.5t-18.5 73.5t33 74t65 31h224l30 278q2 37 36 62.5t77 25.5t70.5 -25.5t25.5 -62.5l-30 -278h217q37 0 58.5 -31t17 -74t-32 -73.5t-64.5 -30.5zM860 174h-217l-29 -276q-2 -37 -35.5 -61.5t-76.5 -24.5t-71 24.5t-25 61.5l28 276h-223 q-37 0 -58.5 31t-17.5 74t33 73.5t65 30.5h650q37 0 58.5 -30.5t17 -73.5t-33 -74t-65.5 -31zM475 561l25 238q4 37 37.5 61.5t76.5 24.5t71 -24.5t24 -61.5l-25 -238q-2 -37 -36 -61.5t-77 -24.5t-70.5 24.5t-25.5 61.5z" glyph-name="daggerdbl" horiz-adv-x="1036" unicode="‡"/><glyph d="M451 350q-102 0 -174 72t-72 172t71.5 172t174.5 72q100 0 171.5 -72t71.5 -172t-71.5 -172t-171.5 -72z" glyph-name="bullet" horiz-adv-x="899" unicode="•"/><glyph d="M1667 141q6 66 57.5 112t117 46t105.5 -46t33 -112q-8 -66 -57 -111.5t-114.5 -45.5t-107.5 45.5t-34 111.5zM877 141q6 63 57 110.5t117 47.5q63 0 105 -46t36 -112q-8 -66 -59.5 -111.5t-114.5 -45.5q-66 0 -107.5 47t-33.5 110zM86 141q6 63 57.5 110.5t116.5 47.5 q63 0 105.5 -46t35.5 -112q-8 -66 -59 -111.5t-115 -45.5q-66 0 -107.5 47t-33.5 110z" glyph-name="ellipsis" horiz-adv-x="2037" unicode="…"/><glyph d="M293 152l1059 1366q23 29 63.5 32.5t73.5 -18.5q31 -25 37 -63.5t-19 -67.5l-1058 -1366q-25 -31 -64 -34t-70 19q-33 25 -40 64t18 68zM926 1219q-14 -145 -132 -250t-263.5 -105t-240.5 104.5t-81 250.5q14 143 132 247.5t263.5 104.5t240.5 -104.5t81 -247.5z M707 1219q6 57 -31 98t-94 41q-55 0 -101.5 -41t-52.5 -98.5t32 -99.5t93 -42q57 0 102.5 41.5t51.5 100.5zM1587 322q-14 -145 -132 -250t-263 -105t-240.5 104.5t-81.5 250.5q14 143 132 247.5t263.5 104.5t240.5 -104.5t81 -247.5zM1368 322q6 57 -31 98t-94 41 q-55 0 -101 -41t-52.5 -98.5t31.5 -99.5t93 -42q57 0 102.5 41.5t51.5 100.5zM2365 322q-14 -145 -131.5 -250t-263 -105t-241 104.5t-80.5 250.5q14 143 131.5 247.5t263 104.5t240.5 -104.5t81 -247.5zM2146 322q6 57 -30.5 98t-94.5 41q-55 0 -101 -41t-52 -98.5 t31.5 -99.5t93.5 -42q57 0 102 41.5t51 100.5z" glyph-name="perthousand" horiz-adv-x="2414" unicode="‰"/><glyph d="M158 662l338 305q29 27 67.5 22.5t67.5 -35.5q27 -31 25.5 -70.5t-29.5 -66.5l-246 -223l203 -232q23 -25 15.5 -64.5t-38.5 -68.5q-35 -29 -72.5 -31.5t-60.5 23.5l-272 303q-27 31 -26 71t28 67z" glyph-name="guilsinglleft" horiz-adv-x="636" unicode="‹"/><glyph d="M342 967l272 -305q25 -27 17 -67t-43 -71l-334 -303q-29 -27 -66.5 -23.5t-66.5 31.5q-25 29 -24 69t30 64l252 232l-201 223q-23 27 -15.5 67t40.5 70q37 31 76.5 35.5t62.5 -22.5z" glyph-name="guilsinglright" horiz-adv-x="636" unicode="›"/><glyph d="M131 55l770 1471q10 20 32.5 26.5t41.5 -4.5q20 -10 28.5 -28.5t-2.5 -38.5l-768 -1471q-10 -20 -32.5 -26.5t-40.5 4.5q-49 22 -29 67z" glyph-name="fraction" horiz-adv-x="974" unicode="⁄"/><glyph d="M555 819h-338q-33 0 -52.5 25.5t-15 62.5t29 62.5t57.5 25.5h122q88 260 270.5 418t428.5 158q156 0 259 -64.5t189 -195.5q16 -37 6 -77t-42.5 -68.5t-70.5 -46t-76 -8.5t-60 44q-88 135 -234 135q-139 0 -255 -116.5t-132 -266.5q-2 -37 -27.5 -62.5t-58.5 -25.5z M834 995h456q33 0 52.5 -25.5t15.5 -62.5q-2 -37 -27.5 -62.5t-58.5 -25.5h-457q-33 0 -53.5 25.5t-16 62.5t30 62.5t58.5 25.5zM205 717h338q33 0 53 -25.5t16 -62.5q-16 -150 75 -266.5t231 -116.5q147 0 262 135q37 45 89 47t88 -29.5t53 -77t-19 -96.5 q-111 -131 -229 -195.5t-273 -64.5q-246 0 -396.5 158t-183.5 418h-123q-33 0 -51 25.5t-14 62.5t27.5 62.5t56.5 25.5zM1077 541h-293q-33 0 -52 25.5t-15 62.5q2 37 27.5 62.5t58.5 25.5h293q33 0 53 -25.5t16 -62.5t-29.5 -62.5t-58.5 -25.5z" glyph-name="Euro" horiz-adv-x="1466" unicode="€"/><glyph d="M662 1536v-307h-58v168h-2l-65 -168h-58l-67 168h-2v-168h-56v307h56l96 -231h4l94 231h58zM82 1536h240v-57h-91v-250h-57v250h-92v57z" glyph-name="trademark" horiz-adv-x="743" unicode="™"/><glyph d="M1808 768q-8 -84 -34.5 -154.5t-79 -138t-80 -96.5t-94.5 -96v-4h182l-29 -279h-579l28 279q154 57 261.5 190t125.5 299q23 217 -114.5 369.5t-354.5 152.5t-386 -152.5t-191 -369.5q-18 -166 60.5 -299t224.5 -190l-29 -279h-582l29 279h184v4q-53 63 -75.5 95 t-60.5 98.5t-49 137t-3 154.5q35 342 298 572.5t609 230.5t560 -230.5t179 -572.5z" glyph-name="uni2126" horiz-adv-x="1810" unicode="Ω"/><glyph d="M1415 694q-35 -322 -231.5 -525.5t-474.5 -203.5q-270 0 -433 168t-135 442q23 223 194 380t392 157q293 0 406 -194l6 4q20 203 -93.5 300t-283.5 97q-72 0 -161 -26.5t-155 -71.5l29 270q59 31 160.5 54.5t173.5 23.5q698 -1 606 -875zM1100 571q14 137 -71 232.5 t-222 95.5t-242.5 -95t-120 -232.5t70.5 -232.5t222 -95t242 95t121 232z" glyph-name="partialdiff" horiz-adv-x="1425" unicode="∂"/><glyph d="M41 0l621 1536h208l301 -1536h-1130zM344 209h565l-180 954h-8z" glyph-name="uni2206" horiz-adv-x="1212" unicode="∆"/><glyph d="M1239 1255h-192v-1255h-279v1255h-244v-1255h-280v1255h-193v281h1188v-281z" glyph-name="product" horiz-adv-x="1290" unicode="∏"/><glyph d="M1098 279v-279h-1047v279l490 489l-490 487v281h1047v-281h-649v-4l487 -483l-487 -485v-4h649z" glyph-name="summation" horiz-adv-x="1148" unicode="∑"/><glyph d="M86 592q0 43 25.5 73.5t60.5 30.5h1049q35 0 60.5 -30.5t25.5 -73.5t-26 -74t-60 -31h-1049q-35 0 -60.5 31t-25.5 74z" glyph-name="minus" horiz-adv-x="1392" unicode="−"/><glyph d="M430 631l137 -350h8l205 1255h228l-271 -1536h-270l-135 358h-8l-48 -147h-215l162 420h207z" glyph-name="radical" horiz-adv-x="1069" unicode="√"/><glyph d="M735 711q125 197 293 196q137 0 238.5 -91t101.5 -222q0 -133 -101.5 -224t-238.5 -91q-166 0 -293 190q-127 -190 -293 -190q-137 0 -238.5 91t-101.5 224q0 131 101.5 222t238.5 91q168 1 293 -196zM1210 592q0 78 -53 131t-129 53q-111 0 -219 -186q106 -178 219 -178 q78 0 130 52t52 128zM662 590q-109 186 -220 186q-76 0 -129 -53t-53 -131q0 -76 52.5 -128t129.5 -52q114 0 220 178z" glyph-name="infinity" horiz-adv-x="1470" unicode="∞"/><glyph d="M205 -43l-4 1294q2 131 87 209t206 78h161v-225h-84q-33 0 -55 -23.5t-24 -58.5l4 -1294q-2 -131 -87 -209t-206 -78h-162v225h84q33 0 55.5 23.5t24.5 58.5z" glyph-name="integral" horiz-adv-x="696" unicode="∫"/><glyph d="M102 315v209q16 6 46 17.5t111 32t152.5 26.5t153.5 -10.5t131 -65.5t128 -66.5t157 -8t148.5 26t115.5 32.5l43 16v-209q-16 -6 -46 -17t-110.5 -31.5t-152.5 -27t-151.5 10t-129 66t-129.5 66.5t-157.5 8t-149.5 -25.5t-115 -32.5zM102 662v210q16 6 46 17.5t111 32 t152.5 26.5t153.5 -10t131 -65.5t128 -68t157 -9t148.5 26t115.5 34.5l43 16v-210q-16 -6 -46 -17.5t-110.5 -32t-152.5 -26.5t-151.5 10t-129 65.5t-129.5 68t-157.5 9t-149.5 -26t-115 -32.5z" glyph-name="approxequal" horiz-adv-x="1390" unicode="≈"/><glyph d="M86 420q0 43 25.5 73.5t60.5 30.5h309l140 140h-449q-35 0 -60.5 30.5t-25.5 73.5t25.5 73.5t60.5 30.5h657l207 207q25 27 65 23t70.5 -35t34.5 -71t-22 -64l-60 -60h97q35 0 60.5 -30.5t25.5 -73.5t-26 -73.5t-60 -30.5h-306l-139 -140h445q35 0 60.5 -30.5t25.5 -73.5 t-26 -74t-60 -31h-654l-211 -211q-25 -27 -64.5 -22.5t-70.5 35t-35 70.5t23 65l63 63h-100q-35 0 -60.5 31t-25.5 74z" glyph-name="notequal" horiz-adv-x="1392" unicode="≠"/><glyph d="M66 793q0 125 98 168l500 235q33 14 68.5 -3t54 -56t8 -77t-42.5 -54l-455 -209v-9l455 -208q33 -16 43 -54.5t-8.5 -77t-54.5 -56t-68 -3.5l-500 234q-98 43 -98 170zM66 104q0 43 25.5 74t60.5 31h561q35 0 60.5 -31t25.5 -74t-25.5 -73.5t-60.5 -30.5h-561 q-35 0 -60.5 30.5t-25.5 73.5z" glyph-name="lessequal" horiz-adv-x="864" unicode="≤"/><glyph d="M799 793q0 -127 -99 -170l-499 -234q-33 -14 -69 3.5t-54.5 56t-8 76.5t43.5 55l454 208v9l-454 209q-33 16 -43.5 54t8 77t54.5 56t69 3l499 -235q99 -43 99 -168zM799 104q0 -43 -25.5 -73.5t-60.5 -30.5h-561q-35 0 -60.5 30.5t-25.5 73.5t25.5 74t60.5 31h561 q35 0 60.5 -31t25.5 -74z" glyph-name="greaterequal" horiz-adv-x="864" unicode="≥"/><glyph d="M1059 768l-383 -768h-209l-385 768l385 768h209zM315 768l254 -510h4l252 510l-252 510h-4z" glyph-name="lozenge" horiz-adv-x="1140" unicode="◊"/><glyph glyph-name="uniF8FF" horiz-adv-x="1024" unicode=""/><glyph d="M905 106l86 826h-753q-45 0 -73 38t-22 89q4 51 40 89t81 38h35l6 55q14 141 129 235.5t262 94.5q127 0 222 -90q33 -29 28.5 -82t-41.5 -94q-41 -43 -92 -48.5t-88 23.5q-31 25 -57.5 25t-49 -20.5t-26.5 -49.5l-6 -49h575q59 0 98 -36t33 -87l-100 -957 q-6 -51 -51 -86.5t-104.5 -35.5t-98.5 35.5t-33 86.5zM406 829q57 0 96 -35.5t35 -84.5l-64 -605q-6 -49 -52 -84.5t-104 -35.5q-59 0 -98 35.5t-33 84.5l64 605q4 49 50.5 84.5t105.5 35.5zM1024 1417q8 68 60.5 115t120 47t109.5 -47t34 -115q-6 -68 -58.5 -115t-120 -47 t-109.5 47t-36 115z" glyph-name="uniFB01" horiz-adv-x="1304" unicode="ﬁ"/><glyph d="M264 1186h35l2 20q16 137 127 233.5t256 96.5h514q59 0 97 -36t34 -87l-137 -1307q-6 -51 -51 -86.5t-104.5 -35.5t-98.5 35.5t-33 86.5l123 1172h-364q-29 0 -53.5 -21.5t-26.5 -50.5l-2 -20h106q45 0 72.5 -37t23.5 -90q-6 -53 -41.5 -90t-80.5 -37h-424q-45 0 -73 38 t-22 89q4 51 40 89t81 38zM406 829q57 0 96 -35.5t35 -84.5l-64 -605q-6 -49 -52 -84.5t-104 -35.5q-59 0 -98 35.5t-33 84.5l64 605q4 49 50.5 84.5t105.5 35.5z" glyph-name="uniFB02" horiz-adv-x="1304" unicode="ﬂ"/><glyph d="M1602 106l86 826h-1450q-45 0 -73 38t-22 89q4 51 40 89t81 38h35l6 55q14 141 129 235.5t262 94.5q127 0 222 -90q33 -29 28.5 -82t-41.5 -94q-41 -43 -92 -48.5t-88 23.5q-31 25 -57.5 25t-49 -20.5t-26.5 -49.5l-6 -49h409l6 55q14 141 129 235.5t263 94.5 q127 0 221 -90q33 -29 28.5 -82t-40.5 -94q-41 -43 -92.5 -48.5t-88.5 23.5q-31 25 -57.5 25t-49 -20.5t-26.5 -49.5l-6 -49h576q59 0 98 -36t33 -87l-101 -957q-6 -51 -51 -86.5t-104.5 -35.5t-98 35.5t-32.5 86.5zM1102 829q57 0 96 -35.5t35 -84.5l-64 -605 q-6 -49 -52 -84.5t-103 -35.5q-59 0 -98 35.5t-33 84.5l63 605q4 49 50.5 84.5t105.5 35.5zM406 829q57 0 96 -35.5t35 -84.5l-64 -605q-6 -49 -52 -84.5t-104 -35.5q-59 0 -98 35.5t-33 84.5l64 605q4 49 50.5 84.5t105.5 35.5zM1720 1417q8 68 60.5 115t120 47t109.5 -47 t34 -115q-6 -68 -58.5 -115t-120 -47t-109.5 47t-36 115z" glyph-name="uniFB03" horiz-adv-x="1998" unicode="ﬃ"/><glyph d="M725 1280q-31 25 -57.5 25t-49 -20.5t-26.5 -49.5l-6 -49h418l2 20q16 137 126.5 233.5t256.5 96.5h514q59 0 97 -36t34 -87l-138 -1307q-6 -51 -51 -86.5t-104.5 -35.5t-98 35.5t-32.5 86.5l123 1172h-365q-29 0 -53.5 -21.5t-26.5 -50.5l-2 -20h107q45 0 72.5 -37 t23.5 -90q-6 -53 -42 -90t-81 -37h-1128q-45 0 -73 38t-22 89q4 51 40 89t81 38h35l6 55q14 141 129 235.5t262 94.5q127 0 222 -90q33 -29 28.5 -82t-41.5 -94q-41 -43 -92 -48.5t-88 23.5zM1110 829q57 0 96 -35.5t35 -84.5l-63 -605q-6 -49 -52.5 -84.5t-103.5 -35.5 q-59 0 -98 35.5t-33 84.5l63 605q4 49 50.5 84.5t105.5 35.5zM406 829q57 0 96 -35.5t35 -84.5l-64 -605q-6 -49 -52 -84.5t-104 -35.5q-59 0 -98 35.5t-33 84.5l64 605q4 49 50.5 84.5t105.5 35.5z" glyph-name="uniFB04" horiz-adv-x="2009" unicode="ﬄ"/><glyph d="M1337 594q0 -262 -183 -445.5t-445 -183.5q-260 0 -443.5 184.5t-183.5 444.5t183.5 443.5t443.5 183.5t444 -183.5t184 -443.5zM1264 594q0 229 -162 391t-393 162q-229 0 -391 -162t-162 -391t161.5 -392t391.5 -163q231 0 393 163t162 392zM449 266v654q0 27 21.5 44 t51.5 17h264q113 0 192 -75t79 -187q0 -111 -79 -186.5t-192 -75.5h-192v-191q0 -25 -21.5 -43t-50.5 -18q-31 0 -52 18t-21 43zM909 719q0 51 -35.5 87t-87.5 36h-192v-244h192q51 0 87 35t36 86z" glyph-name="uniFB05" horiz-adv-x="1419" unicode="ﬅ"/><glyph d="M995 1186l19 164q4 49 50 84.5t105 35.5q57 0 96.5 -35.5t34.5 -84.5l-18 -164h102q45 0 73 -37t24 -90q-6 -53 -42 -90t-81 -37h-1120q-45 0 -73 38t-22 89q4 51 40 89t81 38h35l6 55q14 141 129 235.5t262 94.5q127 0 222 -90q33 -29 28.5 -82t-41.5 -94 q-41 -43 -92 -48.5t-88 23.5q-31 25 -57.5 25t-49 -20.5t-26.5 -49.5l-6 -49h409zM406 829q57 0 96 -35.5t35 -84.5l-64 -605q-6 -49 -52 -84.5t-104 -35.5q-59 0 -98 35.5t-33 84.5l64 605q4 49 50.5 84.5t105.5 35.5zM1102 829q57 0 96 -35.5t35 -84.5l-39 -359 q-2 -31 16.5 -51t46.5 -20h33q45 0 73 -41t21.5 -98.5t-42 -98.5t-80.5 -41h-54q-164 0 -240.5 91t-60.5 259l39 359q4 49 50.5 84.5t105.5 35.5z" glyph-name="uniFB06" horiz-adv-x="1402" unicode="ﬆ"/><glyph d="M995 1186l19 164q4 49 50 84.5t105 35.5q57 0 96.5 -35.5t34.5 -84.5l-18 -164h102q45 0 73 -37t24 -90q-6 -53 -42 -90t-81 -37h-1120q-45 0 -73 38t-22 89q4 51 40 89t81 38h35l18 164q4 49 50.5 84.5t105.5 35.5q57 0 96 -35.5t35 -84.5l-18 -164h409zM406 829 q57 0 96 -35.5t35 -84.5l-39 -359q-2 -31 16 -51t47 -20h33q45 0 72.5 -41t21.5 -98.5t-42 -98.5t-81 -41h-53q-164 0 -240.5 91t-60.5 259l39 359q4 49 50.5 84.5t105.5 35.5zM1102 829q57 0 96 -35.5t35 -84.5l-39 -359q-2 -31 16.5 -51t46.5 -20h33q45 0 73 -41 t21.5 -98.5t-42 -98.5t-80.5 -41h-54q-164 0 -240.5 91t-60.5 259l39 359q4 49 50.5 84.5t105.5 35.5z" glyph-name="uniFB07" horiz-adv-x="1402" unicode="﬇"/><glyph glyph-name="glyph317" horiz-adv-x="1026"/></font>
</defs>
</svg>
