<?xml version="1.0" standalone="no"?>
<!DOCTYPE svg PUBLIC "-//W3C//DTD SVG 1.1//EN" "http://www.w3.org/Graphics/SVG/1.1/DTD/svg11.dtd">
<svg xmlns="http://www.w3.org/2000/svg"><metadata>This SVG WebFont was generated by YouWorkForThem.
 Copyright (c)2016 Talbot Type. All Rights Reserved</metadata><defs><font horiz-adv-x="315" id="ywftsvg"><font-face ascent="1618" bbox="-111.364 -418 2861 1892" cap-height="1552" descent="-430" font-family="" font-stretch="normal" font-weight="300" panose-1="2 11 3 3 3 6 0 13 0 4" underline-position="0" underline-thickness="0" unicode-range="U+0020-FB07" units-per-em="2048" x-height="1186"/><missing-glyph horiz-adv-x="391"/><glyph glyph-name=".notdef" horiz-adv-x="391"/><glyph glyph-name="glyph1" horiz-adv-x="0"/><glyph glyph-name="glyph2" horiz-adv-x="681"/><glyph glyph-name="space" horiz-adv-x="552" unicode=" "/><glyph d="M168 350l113 1168q2 14 13 24t25.5 10t23.5 -10t7 -24l-133 -1168q0 -25 -27 -24q-22 -1 -22 24zM102 39q4 23 21.5 39t42.5 16q23 0 38 -16.5t13 -39t-20.5 -38.5t-40.5 -16q-25 0 -40.5 16t-13.5 39z" glyph-name="exclam" unicode="!"/><glyph d="M102 1198v326q0 29 29 28.5t29 -28.5v-326q0 -29 -29 -29t-29 29zM205 1198v326q0 29 28.5 28.5t28.5 -28.5v-326q0 -29 -28.5 -29t-28.5 29z" glyph-name="quotedbl" horiz-adv-x="364" unicode="&quot;"/><glyph d="M266 18l172 541h-321q-14 0 -23.5 10.5t-7.5 24.5t13.5 24.5t25.5 10.5h336l88 278h-397q-14 0 -22.5 10.5t-6.5 24.5t13 24.5t24 10.5h411l170 541q12 35 47 34q14 0 20.5 -10t2.5 -24l-170 -541h281l172 541q12 35 47 34q14 0 20 -10t2 -24l-172 -541h322 q14 0 23.5 -10.5t7 -24.5t-13.5 -24.5t-25 -10.5h-336l-88 -278h395q14 0 23.5 -10.5t7.5 -24.5t-13.5 -24.5t-25.5 -10.5h-410l-172 -541q-2 -14 -16.5 -24t-28.5 -10t-21.5 10t-3.5 24l172 541h-280l-172 -541q-2 -14 -16.5 -24t-29 -10t-21.5 10t-3 24zM899 907h-281 l-88 -278h281z" glyph-name="numbersign" horiz-adv-x="1269" unicode="#"/><glyph d="M743 14q-2 14 6.5 26.5t20.5 16.5q137 41 226 130t100 202q12 113 -32 190.5t-123 115.5t-176 64.5t-194.5 53.5t-176.5 64.5t-123 113.5t-31 187q12 121 106 219t234 141q35 10 43 -20q8 -33 -25 -45q-119 -37 -197.5 -117t-89.5 -178q-10 -96 35 -160t125 -95.5 t177 -55t194.5 -53.5t175.5 -74t121 -133t28 -218q-14 -135 -120.5 -243.5t-262.5 -153.5q-14 -4 -26.5 3t-14.5 19zM592 33q20 0 33.5 -14.5t11.5 -34.5l-12 -105q-4 -35 -37 -35q-14 0 -24.5 10.5t-8.5 24.5l10 86q-268 8 -452 148q-18 18 -17 32q4 35 37 35q12 0 25 -12 q170 -133 434 -135zM1178 1382q-160 111 -404 115q-20 0 -32.5 14.5t-10.5 34.5l10 107q2 14 13.5 24.5t26 10.5t23.5 -10.5t7 -24.5l-8 -84q242 -8 416 -129q23 -12 22 -33q-2 -14 -13 -24.5t-26 -10.5q-8 0 -24 10z" glyph-name="dollar" horiz-adv-x="1210" unicode="$"/><glyph d="M999.5 1179.5q-16.5 -161.5 -145.5 -277.5t-293 -116q-162 0 -267.5 116t-88.5 278q16 160 147 275.5t291 115.5q164 0 268.5 -115t88 -276.5zM1669.5 358.5q-16.5 -161.5 -145.5 -277.5t-293 -116q-162 0 -267.5 116t-89.5 277q16 160 147.5 276t291.5 116 q164 0 268.5 -115t88 -276.5zM927.5 1179.5q14.5 137.5 -69.5 230.5t-221 93q-131 0 -238.5 -94t-122.5 -229q-14 -137 73 -231.5t218 -94.5q137 0 241.5 94t119 231.5zM1597.5 358.5q14.5 137.5 -70.5 230.5t-222 93q-131 0 -237.5 -94t-121 -229.5t72.5 -230.5t218 -95 q137 0 241.5 94t119 231.5zM326 41l8 16l1153 1479q16 20 39 16q33 -6 24 -41q-4 -8 -8 -12l-1155 -1483q-16 -20 -37 -16q-32 6 -24 41z" glyph-name="percent" horiz-adv-x="1714" unicode="%"/><glyph d="M592 35q168 0 309 117q10 8 25.5 7t23.5 -12q8 -8 5 -23t-13 -26q-164 -133 -356 -133q-211 0 -344 148.5t-110.5 357.5t186 357.5t374.5 148.5q109 0 193 76.5t94 185.5q12 109 -55.5 185.5t-176 76.5t-194.5 -76.5t-98 -185.5q-8 -80 34 -156q6 -10 0 -25.5t-18 -21.5 q-29 -14 -47 13q-49 86 -41 190q14 137 122.5 234.5t248.5 97.5q137 0 224 -97.5t72.5 -234.5t-122 -234.5t-244.5 -97.5q-180 0 -321.5 -128t-159.5 -308q-20 -180 94.5 -308t294.5 -128zM1169 733l-53 -504q-8 -72 39 -124t119 -52q14 0 23.5 -10t7.5 -25q0 -14 -11.5 -24 t-25.5 -10q-100 0 -166 72.5t-55 172.5l53 504q10 100 91 173t181 73q14 0 23.5 -10.5t7.5 -24.5t-13.5 -24.5t-25.5 -10.5q-72 0 -129.5 -52t-65.5 -124z" glyph-name="ampersand" horiz-adv-x="1341" unicode="&amp;"/><glyph d="M102 1198v326q0 29 29 28.5t29 -28.5v-326q0 -29 -29 -29t-29 29z" glyph-name="quotesingle" horiz-adv-x="262" unicode="'"/><glyph d="M225 592q29 260 124 517t241 462q12 16 28 16q29 0 25 -28q0 -8 -10 -23q-272 -385 -330 -944q-59 -561 131 -944q8 -14 6 -23q-4 -29 -30 -28q-18 0 -25 16q-104 205 -146.5 463t-13.5 516z" glyph-name="parenleft" horiz-adv-x="542" unicode="("/><glyph d="M440 592q-29 -260 -124 -517t-240 -462q-12 -16 -29 -16q-12 0 -20.5 8t-6.5 20q0 4 11 23q272 383 331 944q59 563 -133 944q0 2 -3 9t-3 14q4 29 33 28q18 0 25 -16q104 -205 146 -463t13 -516z" glyph-name="parenright" horiz-adv-x="542" unicode=")"/><glyph d="M348 1460l125 -86l8 158q0 14 12.5 24.5t27 10.5t23.5 -10.5t7 -24.5l-23 -158l140 86q14 8 28.5 3t18.5 -17q6 -10 1 -25.5t-20 -21.5l-145 -72l131 -72q12 -6 14 -21t-8 -28q-6 -12 -21.5 -16t-25.5 4l-123 84l-10 -156q0 -14 -12.5 -24.5t-26.5 -10.5t-23.5 10.5 t-7.5 24.5l25 156l-141 -84q-29 -18 -48 12q-6 12 -0.5 27.5t19.5 21.5l147 72l-133 72q-12 6 -14 21.5t8 25.5q22 34 47 14z" glyph-name="asterisk" horiz-adv-x="712" unicode="*"/><glyph d="M662 18v541h-541q-14 0 -24.5 10.5t-10.5 24.5t10 24.5t25 10.5h541v538q0 14 10 24.5t24.5 10.5t24.5 -10t10 -25v-538h541q14 0 24.5 -10.5t10.5 -24.5t-10.5 -24.5t-24.5 -10.5h-541v-541q0 -14 -10 -24t-24.5 -10t-24.5 10t-10 24z" glyph-name="plus" horiz-adv-x="1392" unicode="+"/><glyph d="M55 -186q4 27 29 26q16 0 30.5 13.5t18.5 29.5l10 101h-10q-27 0 -43 19.5t-14 45.5q4 25 23.5 43.5t46 18.5t43 -18.5t12.5 -43.5l-19 -168q-4 -39 -33.5 -66.5t-68.5 -27.5q-10 0 -18.5 8.5t-6.5 18.5z" glyph-name="comma" horiz-adv-x="370" unicode=","/><glyph d="M188 594q2 14 13.5 24.5t25.5 10.5h627q14 0 23.5 -10.5t7.5 -24.5t-13.5 -24.5t-25.5 -10.5h-627q-14 0 -23.5 10.5t-7.5 24.5z" glyph-name="hyphen" horiz-adv-x="950" unicode="-"/><glyph d="M133 -16q-27 0 -43 19.5t-14 45.5q4 25 23.5 43.5t46 18.5t43 -18.5t12.5 -43.5q-4 -29 -22.5 -47t-45.5 -18z" glyph-name="period" horiz-adv-x="370" unicode="."/><glyph d="M106 18l7 19l778 1493q10 23 35 22q14 0 23 -10t7 -24q0 -6 -2 -13l-780 -1499q-14 -23 -35 -22q-14 0 -23.5 10t-9.5 24z" glyph-name="slash" horiz-adv-x="905" unicode="/"/><glyph d="M1229 1063l-62 -592q-23 -209 -186.5 -357.5t-372.5 -148.5q-211 0 -343 148.5t-109 357.5l61 592q23 211 185.5 359.5t373.5 148.5q209 0 341 -148.5t112 -359.5zM1098 471l61 592q18 182 -95.5 310t-293.5 128q-182 0 -323.5 -129t-159.5 -309l-62 -592 q-20 -180 94.5 -308t295 -128t322 128t161.5 308z" glyph-name="zero" horiz-adv-x="1224" unicode="0"/><glyph d="M225 1366q0 20 21 31l272 149q10 6 25 6q20 0 33.5 -14t11.5 -35l-158 -1485q0 -14 -11 -24t-25.5 -10t-24 10t-9.5 24l154 1448l-244 -131q-8 -4 -14 -4q-14 0 -23.5 10.5t-7.5 24.5z" glyph-name="one" horiz-adv-x="552" unicode="1"/><glyph d="M154 49q2 23 26 41l789 610q176 133 198 347q20 188 -97.5 321t-306 133t-335.5 -133t-168 -321l-2 -27q-2 -14 -13.5 -24.5t-25.5 -10.5t-23.5 10.5t-7.5 24.5l2 27q23 217 193 370.5t387 153.5t354.5 -153.5t114.5 -370.5q-12 -117 -72.5 -222.5t-154.5 -179.5 l-750 -575h791q14 0 23 -10.5t7 -24.5q-4 -35 -36 -35h-848q-20 0 -33.5 14.5t-11.5 34.5z" glyph-name="two" horiz-adv-x="1212" unicode="2"/><glyph d="M727 977q8 35 41 31q195 -27 311.5 -175.5t96.5 -347.5q-23 -215 -193 -367.5t-387 -152.5q-211 0 -347 144.5t-124 351.5q2 14 13.5 24.5t25.5 10.5t23.5 -10.5t7.5 -24.5q-10 -178 108.5 -302t298.5 -124q188 0 335.5 132t166.5 318q18 174 -83 303.5t-267 149.5 q-14 2 -22.5 13.5t-4.5 25.5zM305 1501q0 14 11.5 24.5t25.5 10.5h776q20 0 33.5 -14.5t11.5 -34.5q-2 -23 -26 -43l-754 -621q-12 -12 -29 -12q-14 0 -23 10t-7 25q2 18 14 26l719 594h-721q-14 0 -23.5 10.5t-7.5 24.5z" glyph-name="three" horiz-adv-x="1208" unicode="3"/><glyph d="M921.5 557q-14.5 0 -23.5 10.5t-7 24.5l88 850l-805 -987h991q14 0 23.5 -10.5t7.5 -24.5t-13.5 -24.5t-25.5 -10.5h-219l-39 -367q0 -14 -11 -24t-25.5 -10t-24 10t-9.5 24l39 367h-743q-20 0 -32.5 14.5t-10.5 34.5q0 18 16 35l871 1061q18 23 43 22q20 0 33.5 -14 t11.5 -35l-96 -911q-2 -14 -13.5 -24.5t-26 -10.5z" glyph-name="four" horiz-adv-x="1214" unicode="4"/><glyph d="M453 915q-4 12 3 26.5t21 21.5q102 47 225 47q217 0 355.5 -152.5t116.5 -368.5q-23 -217 -193 -370.5t-387 -153.5q-207 0 -341 140.5t-128 345.5v8q2 14 13.5 24.5t25.5 10.5t23.5 -10.5t7.5 -24.5q-6 -180 109.5 -302t295.5 -122q188 0 334.5 133t167.5 321 q18 188 -99.5 320.5t-306.5 132.5q-98 0 -196 -43q-33 -11 -47 16zM256 791l195 702q12 43 53 43h586q14 0 23 -10t9 -25q-2 -14 -13 -24.5t-26 -10.5h-567l-194 -688q-8 -33 -43 -28q-33 8 -23 41z" glyph-name="five" horiz-adv-x="1204" unicode="5"/><glyph d="M616 967q0 29 35 37q27 6 60 6q217 0 355 -152.5t116 -368.5q-23 -217 -193 -370.5t-387 -153.5q-219 0 -355 153.5t-114 370.5q14 160 123 293l580 752q14 18 32 18q14 0 23.5 -10t7.5 -24q0 -12 -12 -25l-584 -760q-84 -104 -98 -244q-20 -188 97.5 -321t306 -133 t335 133t166.5 321q18 188 -99.5 319.5t-305.5 131.5q-23 0 -52 -4q-14 -2 -25.5 7.5t-11.5 23.5z" glyph-name="six" horiz-adv-x="1212" unicode="6"/><glyph d="M375 18l6 17l745 1431h-893q-14 0 -23 10.5t-7 24.5q0 14 11 24.5t26 10.5h927q20 0 33.5 -14.5t11.5 -34.5q-4 -12 -8 -23l-762 -1454q-18 -27 -34 -26q-14 0 -23.5 10t-9.5 24z" glyph-name="seven" horiz-adv-x="1101" unicode="7"/><glyph d="M981 682q-27 20 0 47q8 12 23.5 14t23.5 -8q164 -133 143 -334q-20 -193 -185 -314.5t-386 -121.5t-359.5 122t-118 314.5t185.5 315.5t386 123q176 0 298 90t138 239q14 150 -88 241t-278 91t-299 -91t-137 -241q-14 -141 75 -231q2 -2 5 -2q20 -27 -7 -49 q-10 -10 -25.5 -10t-23.5 10q-115 111 -96 282q18 178 164.5 290t347.5 112t327 -111.5t107 -290.5q-20 -178 -167.5 -288.5t-348.5 -110.5q-197 0 -335 -101.5t-156 -267.5q-16 -166 99.5 -266t314 -100t336.5 100.5t155 265.5q18 170 -119 281z" glyph-name="eight" horiz-adv-x="1212" unicode="8"/><glyph d="M756 569q0 -29 -35 -37q-27 -6 -59 -6q-217 0 -355.5 152.5t-116.5 368.5q23 217 193 370.5t387 153.5q219 0 355.5 -153.5t113.5 -370.5q-14 -154 -123 -293l-579 -752q-14 -18 -33 -18q-14 0 -23.5 10t-9.5 24q2 12 14 25l584 760q84 109 98 244q20 188 -97.5 321 t-306 133t-334.5 -133t-166.5 -321.5t98 -319.5t307.5 -131q23 0 51 4q14 2 25.5 -7.5t11.5 -23.5z" glyph-name="nine" horiz-adv-x="1212" unicode="9"/><glyph d="M133 -16q-27 0 -43 19.5t-14 45.5q4 25 23.5 43.5t46 18.5t43 -18.5t12.5 -43.5q-4 -29 -22.5 -47t-45.5 -18zM247.5 1075q-26.5 0 -43 19.5t-14.5 46.5q4 25 23.5 43t46.5 18t43 -18.5t12 -42.5q-4 -29 -22.5 -47.5t-45 -18.5z" glyph-name="colon" horiz-adv-x="370" unicode=":"/><glyph d="M247.5 1075q-26.5 0 -43 19.5t-14.5 46.5q4 25 23.5 43t46.5 18t43 -18.5t12 -42.5q-4 -29 -22.5 -47.5t-45 -18.5zM55 -186q4 27 29 26q16 0 30.5 13.5t18.5 29.5l10 101h-10q-27 0 -43 19.5t-14 45.5q4 25 23.5 43.5t46 18.5t43 -18.5t12.5 -43.5l-19 -168 q-4 -39 -33.5 -66.5t-68.5 -27.5q-10 0 -18.5 8.5t-6.5 18.5z" glyph-name="semicolon" horiz-adv-x="370" unicode=";"/><glyph d="M784 152q18 -12 19 -31q0 -14 -10.5 -24.5t-24.5 -10.5q-10 0 -27 12l-671 457q-20 14 -20.5 38.5t20.5 39.5l671 457q16 12 27 12q14 0 24.5 -10.5t10.5 -24.5q0 -18 -19 -31l-651 -442z" glyph-name="less" horiz-adv-x="884" unicode="&lt;"/><glyph d="M86 420q0 14 10 24.5t25 10.5h1149q14 0 24.5 -10.5t10.5 -24.5t-10.5 -24.5t-24.5 -10.5h-1149q-14 0 -24.5 10.5t-10.5 24.5zM86 768q0 14 10 24.5t25 10.5h1149q14 0 24.5 -10.5t10.5 -24.5t-10.5 -24.5t-24.5 -10.5h-1149q-14 0 -24.5 10.5t-10.5 24.5z" glyph-name="equal" horiz-adv-x="1390" unicode="="/><glyph d="M100 152l652 442l-652 442q-18 12 -18 31q0 14 10 24.5t25 10.5q10 0 26 -12l672 -457q20 -14 20.5 -39t-20.5 -39l-672 -457q-16 -12 -26 -12q-14 0 -24.5 10t-10.5 25q0 19 18 31z" glyph-name="greater" horiz-adv-x="884" unicode=">"/><glyph d="M680 594q184 6 326.5 139t160.5 318q20 186 -98.5 318t-306.5 132q-180 0 -324.5 -124t-173.5 -302q-2 -14 -13 -24.5t-25.5 -10.5t-23.5 10.5t-7 24.5q31 207 196.5 351.5t376.5 144.5q217 0 355.5 -152.5t115.5 -367.5q-20 -209 -179 -359.5t-366 -165.5l-20 -182 q-2 -14 -13.5 -24.5t-25.5 -10.5t-23.5 10.5t-7.5 24.5l21 201q4 20 19.5 34.5t35.5 14.5zM662 37q-2 -23 -19.5 -38t-40 -15t-38 15t-13.5 38q2 25 20.5 41t41 16t37 -16t12.5 -41z" glyph-name="question" horiz-adv-x="1212" unicode="?"/><glyph d="M924 385q129 0 233 74q27 16 49 -8q14 -27 -14 -50q-133 -86 -274 -86q-188 0 -308.5 132.5t-100 320.5t167 321.5t335 133.5t307.5 -133.5t98 -321.5l-26 -244q-6 -57 30.5 -98t94.5 -41q59 0 104 41t51 98l27 244q33 303 -159.5 518t-496 215t-540 -215t-269 -518 t159 -518t494.5 -215q133 0 321 69q8 4 17 5q14 0 23 -10.5t7 -24.5q-4 -27 -28 -35q-178 -74 -346 -74q-334 0 -544 235.5t-175 567.5t294 567.5t593 235.5q332 0 542.5 -235.5t175.5 -567.5l-26 -244q-8 -86 -76 -147.5t-156 -61.5q-86 0 -140 61.5t-46 149.5l25 242 q16 158 -84.5 271.5t-257.5 113.5q-160 0 -284 -112.5t-140 -272.5q-16 -158 83 -270.5t259 -112.5z" glyph-name="at" horiz-adv-x="1789" unicode="@"/><glyph d="M1114 578l-266 858l-742 -1430q-14 -23 -34 -22q-18 0 -28.5 15t-0.5 36l770 1485q14 33 47 32q31 0 39 -32l285 -914q6 -18 -7.5 -34.5t-32 -16.5t-30.5 23zM471 453h725q33 0 43 -35l119 -383q8 -18 -5.5 -34.5t-31.5 -16.5q-23 0 -31 22l-116 377h-711q-14 0 -23.5 10 t-7.5 24.5t13.5 25t25.5 10.5z" glyph-name="A" horiz-adv-x="1396" unicode="A"/><glyph d="M1155 942q84 84 100 211q14 129 -67.5 221t-212.5 92h-629l-147 -1396h663q143 0 256 102t129.5 245.5t-76 247t-235.5 103.5h-526q-14 0 -23.5 10t-7.5 25q4 35 37 35h526q174 0 284.5 -123t92 -297t-153.5 -296t-309 -122h-684q-20 0 -33.5 14.5t-11.5 34.5l152 1438 q2 20 17 34.5t36 14.5h649q160 0 261 -112.5t85 -270.5q-16 -152 -127 -260q-8 -8 -24.5 -8t-24.5 8t-7 24.5t11 24.5z" glyph-name="B" horiz-adv-x="1357" unicode="B"/><glyph d="M868 -35q-332 0 -542.5 235.5t-176 567.5t295 567.5t591.5 235.5q324 0 539 -232q8 -8 8 -24q-2 -14 -13 -24.5t-26 -10.5q-16 0 -22 10q-197 211 -492 211q-303 0 -539.5 -215t-269.5 -518t158.5 -518t494.5 -215q295 0 537 211q10 10 27 10q14 0 23 -10t7 -25 q-4 -16 -12 -24q-264 -232 -588 -232z" glyph-name="C" horiz-adv-x="1511" unicode="C"/><glyph d="M123 18l156 1469q2 20 17 34.5t36 14.5h475q317 0 519 -225.5t169 -542.5q-35 -317 -282.5 -542.5t-565.5 -225.5h-317q-14 0 -24.5 10t-8.5 24.5t13.5 25t25.5 10.5h317q289 0 514.5 203.5t255.5 494.5q31 289 -151 493.5t-471 204.5h-455l-153 -1448q0 -14 -11.5 -24 t-26 -10t-23.5 10t-9 24z" glyph-name="D" horiz-adv-x="1486" unicode="D"/><glyph d="M201 754q4 20 19.5 34.5t35.5 14.5h893q14 0 23.5 -10.5t7.5 -24.5t-13.5 -24.5t-25.5 -10.5h-873l-69 -663h1013q14 0 23.5 -10.5t7.5 -24.5q-4 -35 -37 -35h-1034q-20 0 -33.5 14.5t-11.5 34.5zM252 905q-14 0 -23.5 10.5t-7.5 24.5l58 547q2 20 17 34.5t36 14.5h1034 q14 0 23.5 -10t9.5 -25q-2 -14 -13.5 -24.5t-25.5 -10.5h-1014l-55 -526q-2 -14 -13.5 -24.5t-25.5 -10.5z" glyph-name="E" horiz-adv-x="1312" unicode="E"/><glyph d="M201 754q4 20 19.5 34.5t35.5 14.5h856q14 0 23.5 -10.5t7.5 -24.5t-13.5 -24.5t-25.5 -10.5h-836l-75 -715q0 -14 -11.5 -24t-26 -10t-23.5 10t-9 24zM252 905q-14 0 -23.5 10.5t-7.5 24.5l58 547q2 20 17 34.5t36 14.5h997q14 0 23.5 -10t9.5 -25q-2 -14 -13.5 -24.5 t-25.5 -10.5h-977l-55 -526q-2 -14 -13.5 -24.5t-25.5 -10.5z" glyph-name="F" horiz-adv-x="1234" unicode="F"/><glyph d="M938 768q2 14 13.5 24.5t25.5 10.5h543q20 0 32.5 -14.5t10.5 -34.5l-52 -490q-4 -23 -16 -33q-125 -125 -288 -195.5t-337 -70.5q-332 0 -542.5 235.5t-176 567.5t295 567.5t591.5 235.5q319 0 533 -223q8 -14 6 -25q-4 -35 -37 -35q-14 0 -24 10q-193 203 -484 203 q-303 0 -539.5 -215t-269.5 -518t158.5 -518t495.5 -215q324 0 565 237l49 461h-522q-14 0 -23.5 10.5t-7.5 24.5z" glyph-name="G" horiz-adv-x="1587" unicode="G"/><glyph d="M201 754q4 20 19.5 34.5t35.5 14.5h1067l74 715q2 14 13 24t25.5 10t23.5 -10t7 -24l-75 -736q-4 -20 -19.5 -34.5t-36.5 -14.5h-1067l-75 -715q0 -14 -11.5 -24t-26 -10t-23.5 10t-9 24zM252 905q-14 0 -23.5 10.5t-7.5 24.5l60 578q2 14 13 24t25.5 10t23.5 -10t7 -24 l-59 -578q-2 -14 -13.5 -24.5t-25.5 -10.5zM1339.5 631q14.5 0 23.5 -10.5t7 -24.5l-61 -578q0 -14 -11.5 -24t-26 -10t-23.5 10t-9 24l61 578q2 14 13.5 24.5t26 10.5z" glyph-name="H" horiz-adv-x="1431" unicode="H"/><glyph d="M123 18l158 1500q2 14 13 24t25.5 10t23.5 -10t7 -24l-157 -1500q0 -14 -11.5 -24t-26 -10t-23.5 10t-9 24z" glyph-name="I" unicode="I"/><glyph d="M51 102q2 14 13.5 24.5t25.5 10.5q12 0 21 -8q88 -94 229 -94q150 0 259.5 84t123.5 225l123 1174q2 14 13 24t25.5 10t24 -10t6.5 -24l-122 -1174q-18 -170 -150.5 -274.5t-308.5 -104.5q-168 0 -275 111q-10 14 -8 26z" glyph-name="J" horiz-adv-x="880" unicode="J"/><glyph d="M369 768q4 23 20 37l899 739q8 8 22.5 8t23.5 -10t7 -24q0 -12 -12 -25l-880 -725l729 -725q8 -12 6 -25q0 -14 -11.5 -24t-25.5 -10t-23 8l-743 739q-14 19 -12 37zM123 18l158 1500q2 14 13 24t25.5 10t23.5 -10t7 -24l-157 -1500q0 -14 -11.5 -24t-26 -10t-23.5 10 t-9 24z" glyph-name="K" horiz-adv-x="1220" unicode="K"/><glyph d="M172 0q-20 0 -33.5 14.5t-11.5 34.5l154 1469q2 14 13 24t25.5 10t23.5 -10t7 -24l-151 -1448h942q14 0 23.5 -10.5t6.5 -24.5q-4 -35 -36 -35h-963z" glyph-name="L" horiz-adv-x="1200" unicode="L"/><glyph d="M1817 1513l-158 -1495q0 -14 -11.5 -24t-25.5 -10t-23.5 10t-9.5 24l150 1409l-744 -772q-14 -16 -39 -16q-20 0 -34 16l-580 772l-149 -1409q0 -14 -11.5 -24t-26 -10t-23.5 10t-9 24l158 1495q2 14 14 26.5t29 12.5q20 0 34 -22l607 -811l778 811q23 23 39 22 q14 0 25.5 -11.5t9.5 -27.5z" glyph-name="M" horiz-adv-x="1781" unicode="M"/><glyph d="M1466 1518l-155 -1498q-2 -14 -14.5 -25t-28.5 -11q-23 0 -29 16l-899 1417l-147 -1399q0 -14 -11.5 -24t-26 -10t-23.5 10t-9 24l158 1498q2 14 14 25t29 11q23 0 28 -16l899 -1417l146 1399q2 14 13 24t25.5 10t23.5 -10t7 -24z" glyph-name="N" horiz-adv-x="1431" unicode="N"/><glyph d="M1685.5 768q32.5 303 -159 518t-494.5 215t-539.5 -215t-269.5 -518t158.5 -518t495 -215t540 215t269 518zM1757 768q-35 -332 -295 -567.5t-592 -235.5q-334 0 -543.5 235.5t-175 567.5t294 567.5t592.5 235.5q332 0 543 -235.5t176 -567.5z" glyph-name="O" horiz-adv-x="1748" unicode="O"/><glyph d="M360 628.5q2 14.5 13.5 25t25.5 10.5h475q166 0 295 116.5t145.5 282.5t-87 284.5t-269.5 118.5h-612l-153 -1448q0 -14 -11.5 -24t-26 -10t-23.5 10t-9 24l156 1469q2 20 17 34.5t36 14.5h633q195 0 318.5 -138t102.5 -335q-20 -193 -172.5 -331t-347.5 -138h-475 q-14 0 -23.5 10t-7.5 24.5z" glyph-name="P" horiz-adv-x="1347" unicode="P"/><glyph d="M1335 233q131 100 215 244t103 307q31 297 -155.5 507t-483.5 210t-527.5 -210t-261.5 -507q-33 -297 153.5 -505.5t483.5 -208.5h731q14 0 23.5 -10.5t7.5 -24.5q-4 -35 -37 -35h-731q-326 0 -531.5 229.5t-171 555t287.5 556t579 230.5q213 0 383 -105.5t257 -287 t64 -394.5q-20 -180 -112 -336.5t-236 -267.5q-31 -23 -49.5 3.5t8.5 49.5z" glyph-name="Q" horiz-adv-x="1740" unicode="Q"/><glyph d="M602 614q2 20 18.5 35t36.5 15h217q166 0 295 117.5t146 283.5q18 166 -86.5 283.5t-270.5 117.5h-612l-153 -1448q0 -14 -11.5 -24t-26 -10t-23.5 10t-9 24l156 1469q2 20 17 34.5t36 14.5h633q195 0 318.5 -137t103 -334t-173 -334t-347.5 -137h-174l375 -555 q18 -27 -10 -49q-31 -18 -49 6l-396 584q-12 18 -10 34z" glyph-name="R" horiz-adv-x="1357" unicode="R"/><glyph d="M1180 1384q-168 117 -418 117q-178 0 -307 -89t-144 -234q-10 -96 35 -160t125 -95.5t177 -55t194.5 -53.5t175.5 -74t121 -133t28 -218q-20 -186 -183 -305t-384 -119q-287 0 -487 148q-18 18 -17 32q4 35 37 35q12 0 25 -12q176 -133 448 -133q193 0 333 97t157 257 q12 113 -32 190.5t-123 115.5t-176 64.5t-194.5 53.5t-176.5 64.5t-123 113.5t-31 187q18 174 169.5 283.5t358.5 109.5q264 0 451 -129q25 -14 22 -33q-2 -14 -13 -24.5t-26 -10.5q-8 0 -22 10z" glyph-name="S" horiz-adv-x="1210" unicode="S"/><glyph d="M788 1536h543q14 0 23.5 -10t9.5 -25q-2 -14 -13.5 -24.5t-25.5 -10.5h-522l-154 -1448q0 -14 -11 -24t-25.5 -10t-23.5 10t-9 24l155 1469q2 20 17.5 34.5t35.5 14.5zM596 1466h-387q-14 0 -23.5 10.5t-7.5 24.5q0 14 11.5 24.5t25.5 10.5h387q14 0 23.5 -10t9.5 -25 q-2 -14 -13.5 -24.5t-25.5 -10.5z" glyph-name="T" horiz-adv-x="1226" unicode="T"/><glyph d="M350 1518l-100 -959q-23 -217 114.5 -370.5t354.5 -153.5t386 153.5t191 370.5l101 959q2 14 13 24t25.5 10t23.5 -10t7 -24l-100 -959q-27 -246 -218.5 -420t-434.5 -174q-246 0 -402.5 174t-130.5 420l101 959q2 14 13 24t25.5 10t23.5 -10t7 -24z" glyph-name="U" horiz-adv-x="1431" unicode="U"/><glyph d="M1495 1516q0 -8 -6 -19l-768 -1491q-14 -23 -39 -22q-27 0 -35 22l-457 1491q0 2 -1 8t-1 11q4 37 39 36q27 0 33 -28l434 -1426l733 1426q14 29 37 28q35 1 31 -36z" glyph-name="V" horiz-adv-x="1368" unicode="V"/><glyph d="M1985 1501l-580 -1483q-2 -14 -14.5 -24t-28.5 -10q-31 0 -39 34l-248 1385l-538 -1385q-8 -35 -43 -34.5t-39 34.5l-265 1483q-4 20 7.5 35.5t31.5 15.5q25 0 33 -30l246 -1389l541 1389q8 31 43 30q31 0 38 -30l246 -1389l541 1389q8 31 37 30q20 0 29.5 -15.5 t1.5 -35.5z" glyph-name="W" horiz-adv-x="1859" unicode="W"/><glyph d="M41 18q4 12 8 21l1262 1495q14 18 32 18q14 0 23.5 -10t7.5 -24q0 -12 -8 -21l-1260 -1495q-14 -18 -32 -18q-14 0 -23.5 10t-9.5 24zM614 874q-18 0 -28 19l-383 604q-4 12 -4 21q2 14 13 24t26 10q20 0 28 -18l383 -604q6 -10 4 -21q-2 -14 -13.5 -24.5t-25.5 -10.5z M1180 -16q-20 0 -29 18l-383 604q-6 10 -4 21q4 35 37 35q20 0 30 -19l381 -604q6 -10 5 -21q0 -14 -11.5 -24t-25.5 -10z" glyph-name="X" horiz-adv-x="1257" unicode="X"/><glyph d="M602 18l78 723q0 16 14 35l643 758q14 18 33 18q14 0 23.5 -10t7.5 -24q0 -12 -8 -21l-645 -762l-76 -717q0 -14 -11.5 -24t-25.5 -10t-23.5 10t-9.5 24zM618 852q-18 0 -28 18l-397 627q-4 12 -5 21q2 14 13.5 24t25.5 10q20 0 29 -18l397 -627q4 -6 4 -20 q-2 -14 -13.5 -24.5t-25.5 -10.5z" glyph-name="Y" horiz-adv-x="1273" unicode="Y"/><glyph d="M1264 35q-4 -35 -37 -35h-1149q-16 0 -26.5 11.5t-8.5 25.5q4 14 12 22l1256 1407h-1082q-14 0 -23 10.5t-7 24.5q0 14 11 24.5t26 10.5h1148q14 0 24.5 -10t8.5 -27q0 -12 -10 -22l-1255 -1407h1081q14 0 23.5 -10.5t7.5 -24.5z" glyph-name="Z" horiz-adv-x="1302" unicode="Z"/><glyph d="M387 1466l-184 -1747h192q14 0 23.5 -10t7.5 -24q-4 -35 -37 -35h-213q-20 0 -33.5 14t-11.5 35l188 1788q2 20 17.5 34.5t36.5 14.5h213q14 0 23 -10t9 -25q-2 -14 -13 -24.5t-25 -10.5h-193z" glyph-name="bracketleft" horiz-adv-x="505" unicode="["/><glyph d="M799 18q0 -14 -11.5 -24t-25.5 -10q-23 0 -31 22l-465 1499q-2 6 -2 13q2 14 13.5 24t25.5 10q27 0 31 -22l463 -1493q4 -13 2 -19z" glyph-name="backslash" horiz-adv-x="905" unicode="\"/><glyph d="M242 -281l184 1747h-193q-14 0 -23 10.5t-7 24.5q0 14 11 24.5t26 10.5h213q20 0 33.5 -14.5t11.5 -34.5l-189 -1788q-2 -20 -17.5 -34.5t-35.5 -14.5h-213q-14 0 -24.5 10t-8.5 24.5t13.5 24.5t25.5 10h193z" glyph-name="bracketright" horiz-adv-x="505" unicode="]"/><glyph d="M1053 791q0 -14 -10.5 -24.5t-24.5 -10.5q-23 0 -33 22l-405 684l-406 -684q-10 -23 -33 -22q-14 0 -24.5 10t-10.5 25q0 10 5 16l421 711q20 35 47 34.5t48 -34.5l422 -711q4 -6 4 -16z" glyph-name="asciicircum" horiz-adv-x="1159" unicode="^"/><glyph d="M0 -186h1186v-52h-1186v52z" glyph-name="underscore" horiz-adv-x="1062" unicode="_"/><glyph d="M334 1530q2 16 15 28.5t30 12.5q10 0 24 -6l271 -113q18 -8 18 -25q-4 -25 -28 -24q-4 0 -11 2l-293 86q-30 8 -26 39z" glyph-name="grave" horiz-adv-x="716" unicode="`"/><glyph d="M712.5 35q231.5 0 415.5 164q23 27 50 0q23 -27 -7 -49q-207 -184 -464 -185q-260 0 -425 184.5t-138.5 444.5t230.5 443.5t464 183.5q180 0 321 -93.5t203 -246.5l29 286q2 14 13 24.5t25.5 10.5t23.5 -10t7 -25l-121 -1149q0 -14 -11 -24t-25.5 -10t-23.5 10t-9 24 l61 576q25 231 -121.5 394t-378.5 163q-229 0 -410 -163t-206 -394.5t120.5 -395t377 -163.5z" glyph-name="a" horiz-adv-x="1462" unicode="a"/><glyph d="M872 1151q-236 0 -415 -164q-27 -27 -49.5 0t6.5 49q205 184 465 184.5t424.5 -184t138 -444.5t-230 -443.5t-463.5 -183.5q-180 0 -321.5 93.5t-203.5 246.5l-30 -287q0 -14 -11.5 -24t-26 -10t-23.5 10t-9 24l158 1500q2 14 13 24t25.5 10t23.5 -10t7 -24l-96 -926 q-25 -231 121.5 -394t378.5 -163q229 0 410.5 162.5t206 394t-121.5 395.5t-377 164z" glyph-name="b" horiz-adv-x="1462" unicode="b"/><glyph d="M709 -35q-260 0 -427 184.5t-138.5 444.5t232.5 443.5t464 183.5q250 0 413 -170q12 -12 9 -27q-2 -14 -13.5 -24.5t-26 -10.5t-20.5 8q-147 154 -368 154q-231 0 -412.5 -164t-206.5 -393t121.5 -394t378.5 -165q219 0 401 155q10 8 24.5 8.5t24 -10t6.5 -24.5 q-4 -18 -12 -27q-204 -172 -450 -172z" glyph-name="c" horiz-adv-x="1224" unicode="c"/><glyph d="M712.5 35q231.5 0 415.5 164q23 27 50 0q23 -27 -7 -49q-207 -184 -464 -185q-260 0 -425 184.5t-138.5 444.5t230.5 443.5t464 183.5q180 0 321 -93.5t203 -246.5l65 637q2 14 13.5 24t26 10t23.5 -10t7 -24l-158 -1500q0 -14 -11 -24t-25.5 -10t-23.5 10t-9 24l61 576 q25 231 -121.5 394t-378.5 163q-229 0 -410 -163t-206 -394.5t120.5 -395t377 -163.5z" glyph-name="d" horiz-adv-x="1462" unicode="d"/><glyph d="M317 594q2 14 13.5 24.5t25.5 10.5h975q10 219 -135 370.5t-367 151.5q-229 0 -409 -163t-205 -394.5t120.5 -395t375.5 -163.5q145 0 277 70.5t220 189.5q10 25 37 24q14 0 23.5 -10t7.5 -24q0 -8 -12 -25q-100 -135 -248 -215t-311 -80q-260 0 -424 184.5t-138 444.5 q29 260 230.5 443.5t462.5 183.5q252 0 415.5 -177.5t147.5 -429.5q-2 -25 -18.5 -40t-37.5 -15h-995q-14 0 -23.5 10.5t-7.5 24.5z" glyph-name="e" horiz-adv-x="1417" unicode="e"/><glyph d="M145 1151q4 35 37 35h121l14 125q10 106 94.5 183t192.5 77q106 0 174 -74q12 -10 10 -27q-2 -14 -13 -24t-25 -10q-18 0 -25 10q-51 55 -127 55q-80 0 -141.5 -55t-69.5 -135l-14 -125h297q14 0 24.5 -10.5t8 -24.5t-13.5 -24.5t-25 -10.5h-488q-14 0 -23.5 10.5 t-7.5 24.5zM321.5 1014q14.5 0 23.5 -10.5t7 -24.5l-102 -961q0 -14 -11.5 -24t-25.5 -10t-23.5 10t-9.5 24l103 961q2 14 13 24.5t25.5 10.5z" glyph-name="f" horiz-adv-x="659" unicode="f"/><glyph d="M713 35q221 0 403 153q10 8 25.5 8.5t23.5 -8.5q23 -23 -4 -49q-207 -174 -454 -174q-260 0 -425 184.5t-138.5 444.5t230.5 443.5t464 183.5q180 0 321 -93.5t203 -246.5l29 286q2 14 13 24.5t25.5 10.5t23.5 -10t7 -25l-96 -923q-29 -260 -231.5 -444.5t-462.5 -184.5 q-225 0 -453 119q-16 8 -16 30q4 35 37 35q12 0 18 -4q193 -111 420 -110q231 0 412.5 163.5t205.5 395.5l37 350q25 231 -121.5 394t-378.5 163q-229 0 -410 -163t-206 -394.5t121 -395t377 -163.5z" glyph-name="g" horiz-adv-x="1462" unicode="g"/><glyph d="M422 1098q158 123 352 123q201 0 329 -142.5t107 -345.5l-75 -715q0 -14 -11.5 -24t-26 -10t-23.5 10t-9 24l76 715q18 174 -90.5 296t-282.5 122q-166 0 -307 -107q-29 -20 -49 5q-19 26 10 49zM123 18l158 1500q2 14 13 24t25.5 10t23.5 -10t7 -24l-157 -1500 q0 -14 -11.5 -24t-26 -10t-23.5 10t-9 24z" glyph-name="h" horiz-adv-x="1257" unicode="h"/><glyph d="M123 18l121 1149q2 14 13 24.5t25.5 10.5t23.5 -10t7 -25l-120 -1149q0 -14 -11.5 -24t-26 -10t-23.5 10t-9 24zM268 1521.5q2 20.5 17.5 35t36 14.5t34 -14.5t11.5 -34.5q-4 -20 -19.5 -34.5t-36 -14.5t-33 14t-10.5 34.5z" glyph-name="i" unicode="i"/><glyph d="M-111 -289q4 35 37 35q14 0 25 -10q45 -51 123 -51t140 56t71 134l135 1292q2 14 13 24.5t25.5 10.5t24 -10t6.5 -25l-135 -1292q-10 -109 -94 -184.5t-192 -75.5q-106 0 -172 72q-9 14 -7 24zM442 1520q4 20 19.5 34.5t36 14.5t33 -14.5t10.5 -35t-17.5 -35t-36 -14.5 t-34 15t-11.5 35z" glyph-name="j" horiz-adv-x="491" unicode="j"/><glyph d="M350 594q4 25 23 41l743 561q12 8 23 8q14 0 23 -10t9 -25q-2 -14 -22 -30l-717 -545l602 -545q16 -14 15 -31q0 -14 -11.5 -24t-25.5 -10q-10 0 -23 8l-624 561q-19 14 -15 41zM123 18l158 1500q2 14 13 24t25.5 10t23.5 -10t7 -24l-157 -1500q0 -14 -11.5 -24t-26 -10 t-23.5 10t-9 24z" glyph-name="k" horiz-adv-x="1085" unicode="k"/><glyph d="M123 18l158 1500q2 14 13 24t25.5 10t23.5 -10t7 -24l-157 -1500q0 -14 -11.5 -24t-26 -10t-23.5 10t-9 24z" glyph-name="l" unicode="l"/><glyph d="M1094 1100q137 121 296.5 121t264 -113t88.5 -270l-86 -820q0 -14 -11.5 -24t-25.5 -10t-23.5 10t-9.5 24l86 820q14 129 -71.5 221t-217.5 92q-133 0 -241 -96q-27 -27 -51 -4q-23 22 2 49zM428 1141q117 80 246 80q160 0 264 -113t88 -270l-86 -820q0 -14 -11 -24 t-25.5 -10t-24 10t-9.5 24l86 820q14 129 -71.5 221t-216.5 92q-106 0 -205 -66q-31 -23 -47 7q-19 29 12 49zM193 18q0 -14 -11.5 -24t-26 -10t-23.5 10t-9 24l121 1149q2 14 13 24.5t25.5 10.5t23.5 -10t7 -25z" glyph-name="m" horiz-adv-x="1779" unicode="m"/><glyph d="M424 1098q158 123 348 123q205 0 333 -143.5t105 -344.5l-75 -715q0 -14 -11.5 -24t-26 -10t-23.5 10t-9 24l76 715q18 174 -91.5 296t-283.5 122q-168 0 -307 -111q-31 -16 -49 9q-15 29 14 49zM313 1167l-120 -1149q0 -14 -11.5 -24t-26 -10t-23.5 10t-9 24l121 1149 q2 14 13 24.5t25.5 10.5t23.5 -10.5t7 -24.5z" glyph-name="n" horiz-adv-x="1257" unicode="n"/><glyph d="M1331.5 593.5q24.5 231.5 -122 394.5t-378.5 163q-229 0 -410 -163t-206 -394.5t120.5 -395t377 -163.5t413 163.5t206 395zM1403 594q-27 -260 -230.5 -444.5t-465.5 -184.5q-260 0 -425 184.5t-138.5 444.5t230.5 443.5t464 183.5q262 0 427 -183.5t138 -443.5z" glyph-name="o" horiz-adv-x="1423" unicode="o"/><glyph d="M872 1151q-236 0 -415 -164q-27 -27 -49.5 0t6.5 49q205 184 465 184.5t424.5 -184t138 -444.5t-230 -443.5t-463.5 -183.5q-180 0 -321.5 93.5t-203.5 246.5l-67 -637q0 -14 -11.5 -24.5t-26 -10.5t-23.5 10.5t-9 24.5l158 1499q2 14 13 24.5t25.5 10.5t23.5 -10t7 -25 l-59 -575q-25 -231 121.5 -394t378.5 -163q229 0 410.5 162.5t206 394t-121.5 395.5t-377 164z" glyph-name="p" horiz-adv-x="1462" unicode="p"/><glyph d="M712.5 35q231.5 0 415.5 164q23 27 50 0q23 -27 -7 -49q-207 -184 -464 -185q-260 0 -425 184.5t-138.5 444.5t230.5 443.5t464 183.5q180 0 321 -93.5t203 -246.5l29 286q2 14 13 24.5t25.5 10.5t23.5 -10t7 -25l-157 -1499q0 -14 -11.5 -24.5t-26 -10.5t-23.5 10.5 t-9 24.5l98 926q25 231 -121.5 394t-378.5 163q-229 0 -410 -163t-206 -394.5t120.5 -395t377 -163.5z" glyph-name="q" horiz-adv-x="1462" unicode="q"/><glyph d="M217 575q-14 0 -23.5 10.5t-7.5 24.5l58 557q2 14 13 24.5t25.5 10.5t23.5 -10t7 -25l-28 -286q78 156 213 248t299 92q31 0 61 -7q31 -8 21 -40q-10 -31 -45 -27q-33 4 -43 4q-209 0 -357.5 -155.5t-177.5 -385.5q-2 -14 -13.5 -24.5t-25.5 -10.5zM238 438l-45 -420 q0 -14 -11.5 -24t-26 -10t-23.5 10t-9 24l45 420q2 14 13.5 24.5t25.5 10.5t23.5 -10.5t7.5 -24.5z" glyph-name="r" horiz-adv-x="776" unicode="r"/><glyph d="M1016 1069q-160 82 -350 82q-162 0 -263.5 -60.5t-111.5 -170.5q-10 -88 29.5 -141.5t108.5 -75t155 -33t171 -27.5t153.5 -48t105.5 -104.5t24 -187.5q-16 -158 -151 -248t-350 -90q-250 0 -431 107q-10 6 -13 20t5 27q6 12 21.5 16t25.5 -2q168 -98 398 -98 q180 0 294.5 70.5t129.5 201.5q10 96 -28 156.5t-107.5 85t-154.5 37t-170 27t-154.5 43t-106.5 95t-27 171.5q14 141 137 220t316 79q211 0 385 -91q10 -6 13 -20t-5 -27q-18 -28 -49 -14z" glyph-name="s" horiz-adv-x="1089" unicode="s"/><glyph d="M352 979l-73 -700q-10 -88 44 -148.5t142 -60.5h88q14 0 23.5 -10.5t7.5 -24.5q-4 -35 -37 -35h-88q-115 0 -188.5 81t-61.5 195l74 703q2 14 13 24.5t25.5 10.5t23.5 -10.5t7 -24.5zM145 1151q4 35 37 35h121l27 250q2 14 13 24t25.5 10t23.5 -10t7 -24l-26 -250h297 q14 0 24.5 -10.5t8 -24.5t-13.5 -24.5t-25 -10.5h-488q-14 0 -23.5 10.5t-7.5 24.5z" glyph-name="t" horiz-adv-x="606" unicode="t"/><glyph d="M956 88q-158 -123 -348 -123q-205 0 -333 143.5t-105 344.5l74 714q2 14 13 24.5t25.5 10.5t23.5 -10t7 -25l-73 -714q-18 -174 91 -296t283 -122q164 0 308 110q31 18 49 -8q14 -29 -15 -49zM1065 18l121 1149q2 14 13 24.5t25.5 10.5t23.5 -10t7 -25l-120 -1149 q0 -14 -11.5 -24t-26 -10t-23.5 10t-9 24z" glyph-name="u" horiz-adv-x="1257" unicode="u"/><glyph d="M532 20l-385 1129q0 2 -1 8t-1 10q2 14 13.5 24.5t25.5 10.5q27 0 31 -22l373 -1092l602 1092q10 23 35 22q14 0 23 -10t7 -25q0 -12 -6 -18l-618 -1129q-16 -37 -53.5 -37t-45.5 37z" glyph-name="v" horiz-adv-x="1159" unicode="v"/><glyph d="M1724 1171q8 31 37 31q14 0 23.5 -10t7.5 -25q0 -10 -2 -16l-492 -1131q-14 -37 -53 -36q-37 0 -45 36l-239 1061l-461 -1061q-14 -37 -54 -36q-37 0 -45 36l-254 1131q-2 6 -2 16q2 14 13.5 24.5t25.5 10.5q25 0 33 -31l240 -1075l463 1063q20 43 53 43t45 -43 l237 -1063z" glyph-name="w" horiz-adv-x="1695" unicode="w"/><glyph d="M57 -16q-14 0 -23 10t-9 24q2 10 10 21l1030 1147q16 16 33 16q14 0 23 -10t7 -25q0 -10 -10 -20l-1028 -1147q-17 -16 -33 -16zM184 1202q18 0 29 -16l299 -434q16 -29 -4 -50q-10 -10 -26.5 -10t-22.5 10l-307 445q-6 18 -7 20q2 14 13.5 24.5t25.5 10.5zM971 -16 q-18 0 -29 16l-299 434q-16 29 4 49q10 10 26.5 10.5t22.5 -10.5l305 -444q8 -12 7 -21q0 -14 -11.5 -24t-25.5 -10z" glyph-name="x" horiz-adv-x="1032" unicode="x"/><glyph d="M360 -332l7 19l823 1493q10 23 35 22q14 0 23 -10t7 -25q0 -12 -6 -18l-821 -1493q-10 -23 -35 -23q-14 0 -23.5 10.5t-9.5 24.5zM473 193l-326 956q0 2 -1 8t-1 10q2 14 13.5 24.5t25.5 10.5q27 0 31 -22l328 -959q10 -31 -25 -47t-45 19z" glyph-name="y" horiz-adv-x="1159" unicode="y"/><glyph d="M987 35q-4 -35 -37 -35h-860q-20 0 -33.5 14.5t-11.5 34.5q4 23 18 35l947 1032h-817q-14 0 -23.5 10.5t-7.5 24.5q4 35 37 35h860q20 0 33.5 -14.5t11.5 -34.5q-2 -18 -19 -35l-946 -1032h817q14 0 23.5 -10.5t7.5 -24.5z" glyph-name="z" horiz-adv-x="1026" unicode="z"/><glyph d="M776 1501q-2 -14 -13 -24.5t-26 -10.5q-72 0 -127 -51t-63 -125l-51 -487q-16 -139 -144 -209q51 -33 79 -88t20 -121l-52 -487q-8 -76 37 -127.5t117 -51.5q14 0 23.5 -10t7.5 -24q-4 -35 -37 -35q-100 0 -165 72.5t-54 175.5l51 487q8 70 -38 122t-118 52 q-14 0 -23.5 10.5t-7 24.5t13.5 24.5t25 10.5q72 0 128.5 51t64.5 123l51 487q10 100 89 173t179 73q14 0 23.5 -10.5t9.5 -24.5z" glyph-name="braceleft" horiz-adv-x="663" unicode="{"/><glyph d="M246 -332v1850q0 14 10 24t24.5 10t24.5 -10t10 -24v-1850q0 -14 -10 -24.5t-24.5 -10.5t-24.5 10.5t-10 24.5z" glyph-name="bar" horiz-adv-x="561" unicode="|"/><glyph d="M10 -315.5q2 14.5 13.5 24.5t25.5 10q72 0 127 51.5t64 125.5l51 487q16 139 143 209q-51 33 -78.5 88t-19.5 121l51 487q8 76 -37 127t-117 51q-14 0 -23 10.5t-7 24.5q0 14 11 24.5t26 10.5q100 0 164.5 -72.5t54.5 -175.5l-51 -487q-8 -70 38 -122t117 -52 q14 0 23.5 -10.5t7.5 -24.5t-13.5 -24.5t-25.5 -10.5q-72 0 -128 -51t-65 -123l-51 -487q-10 -100 -89 -173t-179 -73q-14 0 -24.5 10t-8.5 24.5z" glyph-name="braceright" horiz-adv-x="663" unicode="}"/><glyph d="M598 537q43 0 76 26.5t43 69.5q8 33 41 29q33 -8 28 -41q-14 -68 -66 -111t-122 -43q-119 0 -172 108q-35 74 -113 74q-43 0 -75.5 -26.5t-42.5 -69.5q-8 -33 -41 -29q-33 8 -29 41q14 68 66.5 111t121.5 43q119 0 172 -109q35 -73 113 -73z" glyph-name="asciitilde" horiz-adv-x="911" unicode="~"/><glyph glyph-name="uni00A0" horiz-adv-x="1024" unicode=" "/><glyph d="M123 18l133 1168q4 25 28.5 24.5t20.5 -24.5l-112 -1168q0 -14 -11.5 -24t-26 -10t-23.5 10t-9 24zM256 1497q4 23 21.5 39t41.5 16q23 0 38.5 -16t13.5 -38.5t-21.5 -39t-42.5 -16.5q-25 0 -39 16t-12 39z" glyph-name="exclamdown" unicode="¡"/><glyph d="M143.5 594q20.5 199 151.5 359.5t321 228.5q12 4 25.5 -2t15.5 -21q8 -31 -26 -43q-168 -61 -283 -204.5t-133 -317.5t67 -317.5t238 -204.5q14 -4 19.5 -17.5t-0.5 -25.5q-14 -33 -45 -23q-176 68 -273.5 228.5t-77 359.5zM625 -156l16 156q0 14 11.5 24.5t25.5 10.5h37 q219 0 401 155q10 8 24.5 8.5t24 -10t6.5 -24.5q-4 -18 -12 -27q-203 -170 -450 -170h-2l-13 -123q-2 -14 -13 -24t-25.5 -10t-23.5 10t-7 24zM764 1188l16 155q2 14 13.5 24.5t26 10.5t23.5 -10t7 -25l-12 -122h2q250 0 413 -170q12 -12 9 -27q-2 -14 -13.5 -24.5 t-26 -10.5t-20.5 8q-150 156 -368 156h-37q-14 0 -23.5 10.5t-9.5 24.5z" glyph-name="cent" horiz-adv-x="1224" unicode="¢"/><glyph d="M201 754q4 20 19.5 34.5t35.5 14.5h715q14 0 23.5 -10.5t7 -24.5t-13.5 -24.5t-25 -10.5h-695l-69 -663h837q14 0 23.5 -10.5t7.5 -24.5q-4 -35 -37 -35h-858q-20 0 -33.5 14.5t-11.5 34.5zM1110 1100q14 168 -90.5 284.5t-267.5 116.5q-166 0 -297 -117.5t-148 -283.5 l-16 -160q-2 -14 -13.5 -24.5t-25.5 -10.5t-23.5 10.5t-7.5 24.5l17 160q20 195 172.5 333t347 138t318.5 -138.5t104 -332.5q-2 -14 -13.5 -24.5t-26 -10.5t-23.5 10.5t-7 24.5z" glyph-name="sterling" horiz-adv-x="1136" unicode="£"/><glyph d="M176 1194l131 -133q180 160 420 160q238 0 420 -160l133 133q27 23 49 0q27 -27 0 -49l-133 -133q162 -178 162 -418t-162 -422l133 -131q23 -27 0 -49q-27 -27 -49 0l-133 133q-180 -160 -420 -160q-242 0 -418 160l-133 -133q-27 -23 -49 0q-27 27 0 49l131 131 q-160 180 -160 422t160 418l-131 133q-23 27 0 49q26 27 49 0zM1286 593.5q0 231.5 -164 394.5t-395 163t-394 -164t-163 -393q0 -231 163 -395t394 -164t395 163.5t164 395z" glyph-name="currency" horiz-adv-x="1456" unicode="¤"/><glyph d="M1165 852h-319l-98 -117l-76 -717q0 -14 -11.5 -24t-25.5 -10t-23.5 10t-9.5 24l78 723q0 16 14 35l643 758q14 18 33 18q14 0 23.5 -10t7.5 -24q0 -12 -8 -21l-488 -575h269q14 0 23 -10.5t7 -25t-13.5 -24.5t-25.5 -10zM618 852h-333q-14 0 -23.5 10t-7.5 24.5t13.5 25 t25.5 10.5h264l-364 575q-4 12 -5 21q2 14 13.5 24t25.5 10q20 0 29 -18l397 -627q4 -6 4 -20q-2 -14 -13.5 -24.5t-25.5 -10.5zM1145 647h-268q-14 0 -23.5 10.5t-9.5 24.5q2 14 13 24.5t26 10.5h268q14 0 23.5 -10.5t7.5 -24.5q0 -14 -11.5 -24.5t-25.5 -10.5zM532 647 h-268q-14 0 -23.5 10.5t-9.5 24.5q2 14 13.5 24.5t25.5 10.5h269q14 0 23 -10.5t7 -24.5q0 -14 -11.5 -24.5t-25.5 -10.5z" glyph-name="yen" horiz-adv-x="1273" unicode="¥"/><glyph d="M123 717v557q0 14 10 24.5t24.5 10.5t25 -10.5t10.5 -24.5v-557q0 -14 -10.5 -24.5t-25 -10.5t-24.5 10.5t-10 24.5zM123 -84v555q0 14 10 24.5t24.5 10.5t25 -10.5t10.5 -24.5v-555q0 -14 -10.5 -24.5t-25 -10.5t-24.5 10.5t-10 24.5z" glyph-name="brokenbar" unicode="¦"/><glyph d="M293 829q10 10 25.5 10.5t23.5 -10.5q20 -25 -4 -49q-92 -78 -102 -186q-12 -123 71.5 -201t229.5 -78q174 0 277.5 -98t87 -249.5t-143.5 -251t-295 -99.5q-154 0 -261.5 91t-105.5 222q2 14 13.5 25.5t25.5 11.5q31 0 31 -30q2 -106 89 -178t214 -72q139 0 242.5 78.5 t117.5 201.5q12 123 -71.5 201t-229.5 78q-174 0 -277.5 98t-86.5 250q12 129 129 235zM838 358q-10 -10 -25.5 -10t-24.5 10q-20 25 5 50q92 78 102 186q12 123 -72 200.5t-229 77.5q-174 0 -277.5 98.5t-87 250t143.5 251t295 99.5q154 0 261 -91t105 -223q-2 -14 -13 -25 t-26 -11q-31 0 -30 30q-2 106 -89.5 178t-213.5 72q-139 0 -243 -79t-118 -201q-12 -123 72 -201t229 -78q174 0 277.5 -98.5t87.5 -249.5q-14 -132 -129 -236z" glyph-name="section" horiz-adv-x="1007" unicode="§"/><glyph d="M289 1522q-4 -20 -19.5 -34.5t-36 -14.5t-33 14t-10 34.5t17.5 35t35.5 14.5t34 -14.5t11.5 -34.5zM692 1522q-4 -20 -18.5 -34.5t-35 -14.5t-32.5 14t-10 34.5t17.5 35t36 14.5t32.5 -14.5t10 -34.5z" glyph-name="dieresis" horiz-adv-x="563" unicode="¨"/><glyph d="M1278 594q0 236 -166 401.5t-403 165.5q-233 0 -400.5 -166t-167.5 -401.5t167 -402t401 -166.5q238 0 403.5 165.5t165.5 403.5zM1337 594q0 -262 -183 -445.5t-445 -183.5q-260 0 -443.5 184.5t-183.5 444.5t183.5 443.5t443.5 183.5t444 -183.5t184 -443.5zM995 877 q25 -25 0 -50q-25 -20 -49 0q-98 98 -235 99q-139 0 -235.5 -97.5t-94.5 -234.5q-2 -137 95 -233.5t235 -96.5q135 0 235 94q27 23 49.5 0.5t-0.5 -49.5q-121 -119 -284 -114q-166 -2 -284 115.5t-118 283.5q0 168 118 285.5t284 115.5q163 3 284 -118z" glyph-name="copyright" horiz-adv-x="1419" unicode="©"/><glyph d="M499.5 977q114.5 0 207.5 82q10 14 24 0q10 -10 -2 -25q-106 -92 -233 -92q-131 0 -214 92t-69 223q14 129 115.5 221.5t232.5 92.5q90 0 161 -47t99 -123l17 143q0 16 20 17q14 0 14 -17l-61 -575q0 -16 -18 -17q-16 0 -17 17l31 288q12 115 -61.5 197t-188.5 82 t-205 -82t-102 -197q-12 -117 61.5 -198.5t188 -81.5z" glyph-name="ordfeminine" horiz-adv-x="813" unicode="ª"/><glyph d="M137 559q-29 33 8 70l332 301q27 23 49 0q18 -27 -4 -49l-317 -287l254 -287q25 -20 -4 -49q-27 -23 -49 0zM354 559q-29 33 8 70l332 301q27 23 49 0q18 -27 -4 -49l-317 -287l254 -287q25 -20 -4 -49q-27 -23 -49 0z" glyph-name="guillemotleft" horiz-adv-x="722" unicode="«"/><glyph d="M786 580v-144q0 -14 -10 -24.5t-24.5 -10.5t-24.5 10.5t-10 24.5v123h-576q-14 0 -24.5 10.5t-10.5 24.5t10.5 24.5t24.5 10.5h596q20 0 34.5 -14.5t14.5 -34.5z" glyph-name="logicalnot" horiz-adv-x="909" unicode="¬"/><glyph d="M571 1327q0 -100 -71.5 -173t-171.5 -73q-102 0 -174 72t-72 174q0 100 72.5 172t173 72t172 -72t71.5 -172zM543 1327q0 90 -62.5 152.5t-152.5 62.5t-153.5 -62.5t-63.5 -152.5t63.5 -153.5t153.5 -63.5t152.5 63.5t62.5 153.5zM459 1389q0 -72 -68 -97l62 -121l-31 -2 l-60 119h-118v-117h-29v316h141q43 0 73 -28.5t30 -69.5zM428 1389q0 29 -20.5 50t-51.5 21h-112v-145h112q31 0 51.5 20.5t20.5 53.5z" glyph-name="registered" horiz-adv-x="653" unicode="®"/><glyph d="M264 1501q0 14 11.5 24.5t25.5 10.5h346q14 0 23.5 -10t9.5 -25q-2 -14 -13.5 -24.5t-25.5 -10.5h-346q-14 0 -23.5 10.5t-7.5 24.5z" glyph-name="macron" horiz-adv-x="628" unicode="¯"/><glyph d="M451 1362q0 57 -41 98t-98.5 41t-98.5 -41t-41 -98t41 -98t98.5 -41t98.5 40t41 99zM520 1362q0 -86 -61.5 -147.5t-147.5 -61.5t-147.5 61.5t-61.5 147.5t61.5 147.5t147.5 61.5t147.5 -61.5t61.5 -147.5z" glyph-name="degree" horiz-adv-x="622" unicode="°"/><glyph d="M662 369v364h-541q-14 0 -24.5 10.5t-10.5 24.5t10 24.5t25 10.5h541v364q0 14 10 24.5t24.5 10.5t24.5 -10t10 -25v-364h539q14 0 24.5 -10.5t10.5 -24.5t-10.5 -24.5t-24.5 -10.5h-539v-364q0 -14 -10 -24.5t-24.5 -10.5t-24.5 10.5t-10 24.5zM86 34.5q0 14.5 10 25 t25 10.5h1149q14 0 24.5 -10.5t10.5 -25t-10.5 -24.5t-24.5 -10h-1149q-14 0 -24.5 10t-10.5 24.5z" glyph-name="plusminus" horiz-adv-x="1390" unicode="±"/><glyph d="M197 793q2 12 14 20l395 305q86 66 99 172q10 96 -49.5 163t-153.5 67t-167 -67t-83 -163l-2 -12q0 -18 -21 -18q-14 0 -14 18l2 12q10 109 95 185.5t193.5 76.5t177.5 -76.5t58 -185.5q-12 -121 -116 -200l-373 -287h395q16 0 17 -19q-4 -16 -21 -16h-424q-10 0 -17 7.5 t-5 17.5z" glyph-name="uni00B2" horiz-adv-x="688" unicode="²"/><glyph d="M485 1257q4 18 23 15q96 -12 153.5 -86t47.5 -174q-10 -109 -95.5 -184.5t-193.5 -75.5q-104 0 -172 71.5t-62 175.5q0 16 19 17q16 0 16 -17q-4 -90 54.5 -152.5t148.5 -62.5q94 0 167 67t83 161q8 88 -41 151.5t-133 73.5q-15 2 -15 20zM274 1520q4 16 19 16h389 q10 0 17.5 -7t5.5 -18q0 -10 -15 -20l-377 -311q-2 -6 -12 -6q-20 0 -16 18q0 8 6 12l360 297h-360q-17 1 -17 19z" glyph-name="uni00B3" horiz-adv-x="686" unicode="³"/><glyph d="M702 1530q-4 -29 -34 -39l-310 -86q-10 -2 -14 -2q-25 0 -20 24q0 14 22 25l295 113q16 6 25 6q16 0 27 -12.5t9 -28.5z" glyph-name="acute" horiz-adv-x="716" unicode="´"/><glyph d="M86 -332l158 1499q2 14 13 24.5t25.5 10.5t23.5 -10t7 -25l-75 -733q-18 -166 94 -282.5t282 -116.5q164 0 308 110q31 18 49 -8q14 -29 -15 -49q-158 -123 -348 -123q-133 0 -237.5 63.5t-157.5 172.5l-57 -533q0 -14 -11.5 -24.5t-26 -10.5t-23.5 10.5t-9 24.5z M1065 18l121 1149q2 14 13 24.5t25.5 10.5t23.5 -10t7 -25l-120 -1149q0 -14 -11.5 -24t-26 -10t-23.5 10t-9 24z" glyph-name="uni00B5" horiz-adv-x="1257" unicode="µ"/><glyph d="M764 1487q2 20 17.5 34.5t35.5 14.5h322q20 0 33.5 -14.5t11.5 -34.5l-156 -1469q0 -14 -11 -24t-25.5 -10t-24 10t-9.5 24l154 1448h-281l-153 -1448q0 -14 -11.5 -24t-25.5 -10t-23.5 10t-9.5 24zM244 1153q-14 -131 66.5 -223t209.5 -92h37q14 0 24.5 -10.5t8.5 -25 t-13.5 -24.5t-25.5 -10h-37q-158 0 -258 112.5t-84 272.5q14 158 139 270.5t283 112.5h37q14 0 23.5 -10t9.5 -25q-2 -14 -13.5 -24.5t-25.5 -10.5h-37q-129 0 -229.5 -92t-114.5 -221z" glyph-name="paragraph" horiz-adv-x="1150" unicode="¶"/><glyph d="M190.5 528q-26.5 0 -43 19.5t-14.5 46.5q4 25 23.5 43t46 18t43 -18.5t12.5 -42.5q-4 -29 -22.5 -47.5t-45 -18.5z" glyph-name="periodcentered" horiz-adv-x="370" unicode="·"/><glyph d="M223 -162q0 -2 45 162h43l-32 -117q33 23 79 23q66 0 109 -48t35 -116q-6 -66 -59.5 -113t-118.5 -47q-68 0 -111 47t-37 113q4 23 25 22q23 0 18 -22q-4 -49 28 -84t81 -35t87 35t42 84q6 51 -25 86t-80 35q-47 0 -90 -39q-6 -8 -18 -8q-21 -1 -21 22z" glyph-name="cedilla" horiz-adv-x="735" unicode="¸"/><glyph d="M254 1460q4 12 12 15l135 75q4 2 13 2q27 0 22 -24l-78 -742q-4 -18 -18 -18q-20 0 -16 18l75 723l-120 -65l-5 -2h-4q-16 0 -16 18z" glyph-name="uni00B9" horiz-adv-x="399" unicode="¹"/><glyph d="M807 1257q12 115 -61.5 197t-190.5 82q-115 0 -205 -82t-102 -197q-12 -117 61.5 -198.5t188.5 -81.5q117 0 207 81.5t102 198.5zM842 1257q-14 -131 -115.5 -223t-232.5 -92q-129 0 -212 92t-69 223q14 129 115.5 221.5t230.5 92.5q131 0 214 -92.5t69 -221.5z" glyph-name="ordmasculine" horiz-adv-x="792" unicode="º"/><glyph d="M700 559l-329 -301q-31 -23 -49 0q-25 25 4 49l315 287l-256 287q-23 23 4 49q31 23 49 0l271 -301q28 -37 -9 -70zM483 559l-329 -301q-31 -23 -50 0q-25 25 5 49l315 287l-256 287q-23 23 4 49q31 23 49 0l271 -301q28 -37 -9 -70z" glyph-name="guillemotright" horiz-adv-x="722" unicode="»"/><glyph d="M1075 1536q0 -6 -2 -10l-788 -1530q-4 -12 -17 -12q-18 0 -14 16q0 6 2 10l788 1530q4 12 17 12q18 0 14 -16zM254 1460q4 12 12 15l135 75q4 2 13 2q27 0 22 -24l-78 -742q-4 -18 -18 -18q-20 0 -16 18l75 723l-120 -65l-5 -2h-4q-16 0 -16 18zM1104 270q-14 0 -14 19 l45 424l-404 -494h496q16 0 16 -16q-4 -18 -20 -19h-109l-18 -182q-4 -18 -21 -18q-18 0 -14 18l18 182h-372q-23 0 -23 25q4 12 8 18l436 531q10 10 23 10q23 0 23 -25l-50 -454q0 -19 -20 -19z" glyph-name="onequarter" horiz-adv-x="1263" unicode="¼"/><glyph d="M1075 1536q0 -6 -2 -10l-788 -1530q-4 -12 -17 -12q-18 0 -14 16q0 6 2 10l788 1530q4 12 17 12q18 0 14 -16zM254 1460q4 12 12 15l135 75q4 2 13 2q27 0 22 -24l-78 -742q-4 -18 -18 -18q-20 0 -16 18l75 723l-120 -65l-5 -2h-4q-16 0 -16 18zM817 25q0 12 14 20 l394 305q88 66 98 172q10 94 -48 162t-152.5 68t-168 -67t-84.5 -163v-12q-4 -18 -20 -18q-18 0 -14 18v12q12 109 97 185.5t193.5 76.5t177 -76.5t56.5 -185.5q-12 -121 -115 -200l-375 -287h396q20 0 16 -19q0 -16 -18 -16h-424q-10 0 -17.5 7.5t-5.5 17.5z" glyph-name="onehalf" horiz-adv-x="1388" unicode="½"/><glyph d="M1276 1536q0 -6 -2 -10l-789 -1530q-4 -12 -16 -12q-18 0 -14 16q0 6 2 10l788 1530q4 12 17 12q18 0 14 -16zM485 1257q4 18 23 15q96 -12 153.5 -86t47.5 -174q-10 -109 -95.5 -184.5t-193.5 -75.5q-104 0 -172 71.5t-62 175.5q0 16 19 17q16 0 16 -17 q-4 -90 54.5 -152.5t148.5 -62.5q94 0 167 67t83 161q8 88 -41 151.5t-133 73.5q-15 2 -15 20zM274 1520q4 16 19 16h389q10 0 17.5 -7t5.5 -18q0 -10 -15 -20l-377 -311q-2 -6 -12 -6q-20 0 -16 18q0 8 6 12l360 297h-360q-17 1 -17 19zM1305 270q-14 0 -15 19l45 424 l-403 -494h495q16 0 17 -16q-4 -18 -21 -19h-108l-19 -182q-4 -18 -20 -18q-18 0 -14 18l18 182h-373q-23 0 -22 25q4 12 8 18l436 531q10 10 23 10q23 0 22 -25l-49 -454q0 -19 -20 -19z" glyph-name="threequarters" horiz-adv-x="1464" unicode="¾"/><glyph d="M692 942q-184 -6 -326.5 -138t-162.5 -319q-18 -186 100.5 -318t306.5 -132q180 0 324.5 124t173.5 302q2 14 13.5 24.5t25.5 10.5t23.5 -10.5t7.5 -24.5q-31 -207 -197 -351.5t-377 -144.5q-217 0 -356 152.5t-117 367.5q23 209 180.5 359.5t366.5 165.5l20 182 q4 35 37 35q14 0 24.5 -10.5t8.5 -24.5l-23 -201q-2 -20 -17.5 -34.5t-35.5 -14.5zM709 1499q4 23 21.5 38t40 15t37.5 -15t11 -38q-2 -25 -20.5 -41t-41 -16t-36.5 16t-12 41z" glyph-name="questiondown" horiz-adv-x="1212" unicode="¿"/><glyph d="M700 1735q2 16 15.5 28.5t29.5 12.5q10 0 23 -7l272 -112q18 -10 17 -25q0 -25 -27 -24q-4 0 -12 2l-291 86q-31 8 -27 39zM1114 578l-266 858l-742 -1430q-14 -23 -34 -22q-18 0 -28.5 15t-0.5 36l770 1485q14 33 47 32q31 0 39 -32l285 -914q6 -18 -7.5 -34.5 t-32 -16.5t-30.5 23zM471 453h725q33 0 43 -35l119 -383q8 -18 -5.5 -34.5t-31.5 -16.5q-23 0 -31 22l-116 377h-711q-14 0 -23.5 10t-7.5 24.5t13.5 25t25.5 10.5z" glyph-name="Agrave" horiz-adv-x="1396" unicode="À"/><glyph d="M1065 1735q-4 -29 -35 -39l-311 -86q-8 -2 -12 -2q-23 0 -23 24q2 16 25 25l292 112q18 6 27 7q16 0 27.5 -12.5t9.5 -28.5zM1114 578l-266 858l-742 -1430q-14 -23 -34 -22q-18 0 -28.5 15t-0.5 36l770 1485q14 33 47 32q31 0 39 -32l285 -914q6 -18 -7.5 -34.5 t-32 -16.5t-30.5 23zM471 453h725q33 0 43 -35l119 -383q8 -18 -5.5 -34.5t-31.5 -16.5q-23 0 -31 22l-116 377h-711q-14 0 -23.5 10t-7.5 24.5t13.5 25t25.5 10.5z" glyph-name="Aacute" horiz-adv-x="1396" unicode="Á"/><glyph d="M1055 1638q-4 -27 -31 -26q-14 0 -20 12l-115 156l-148 -156q-12 -12 -24 -12q-27 0 -23 26q0 8 13 21l161 176q10 12 27 12q18 0 27 -12l125 -176q8 -17 8 -21zM1114 578l-266 858l-742 -1430q-14 -23 -34 -22q-18 0 -28.5 15t-0.5 36l770 1485q14 33 47 32q31 0 39 -32 l285 -914q6 -18 -7.5 -34.5t-32 -16.5t-30.5 23zM471 453h725q33 0 43 -35l119 -383q8 -18 -5.5 -34.5t-31.5 -16.5q-23 0 -31 22l-116 377h-711q-14 0 -23.5 10t-7.5 24.5t13.5 25t25.5 10.5z" glyph-name="Acircumflex" horiz-adv-x="1396" unicode="Â"/><glyph d="M1112 1735q-6 -55 -49 -94t-96 -39q-37 0 -69 19t-46 54q-14 49 -68 49q-31 0 -57.5 -22.5t-28.5 -52.5q-4 -27 -28 -27q-10 0 -18.5 8t-6.5 19q6 55 50 94t96 39q80 0 112 -74q25 -51 70 -51q33 0 57.5 21.5t28.5 56.5q0 10 9 18t19 8q25 1 25 -26zM1114 578l-266 858 l-742 -1430q-14 -23 -34 -22q-18 0 -28.5 15t-0.5 36l770 1485q14 33 47 32q31 0 39 -32l285 -914q6 -18 -7.5 -34.5t-32 -16.5t-30.5 23zM471 453h725q33 0 43 -35l119 -383q8 -18 -5.5 -34.5t-31.5 -16.5q-23 0 -31 22l-116 377h-711q-14 0 -23.5 10t-7.5 24.5t13.5 25 t25.5 10.5z" glyph-name="Atilde" horiz-adv-x="1396" unicode="Ã"/><glyph d="M725 1712.5q-2 -20.5 -17.5 -35t-36 -14.5t-33.5 14.5t-11 35t18.5 34.5t36.5 14q23 0 34 -14t9 -34.5zM1130.5 1712.5q-2.5 -20.5 -16.5 -35t-34.5 -14.5t-34 14.5t-11.5 35t18.5 34.5t37 14t32 -14t9 -34.5zM1114 578l-266 858l-742 -1430q-14 -23 -34 -22 q-18 0 -28.5 15t-0.5 36l770 1485q14 33 47 32q31 0 39 -32l285 -914q6 -18 -7.5 -34.5t-32 -16.5t-30.5 23zM471 453h725q33 0 43 -35l119 -383q8 -18 -5.5 -34.5t-31.5 -16.5q-23 0 -31 22l-116 377h-711q-14 0 -23.5 10t-7.5 24.5t13.5 25t25.5 10.5z" glyph-name="Adieresis" horiz-adv-x="1396" unicode="Ä"/><glyph d="M975 1743q4 39 -20.5 66.5t-63.5 27.5t-71 -27.5t-36 -66.5t20.5 -67.5t65.5 -28.5q39 0 70 28.5t35 67.5zM1030 1743q-6 -63 -55 -108.5t-111 -45.5q-63 0 -103 45t-34 109q6 61 56.5 105t113.5 44q61 0 100 -44t33 -105zM1114 578l-266 858l-742 -1430q-14 -23 -34 -22 q-18 0 -28.5 15t-0.5 36l770 1485q14 33 47 32q31 0 39 -32l285 -914q6 -18 -7.5 -34.5t-32 -16.5t-30.5 23zM471 453h725q33 0 43 -35l119 -383q8 -18 -5.5 -34.5t-31.5 -16.5q-23 0 -31 22l-116 377h-711q-14 0 -23.5 10t-7.5 24.5t13.5 25t25.5 10.5z" glyph-name="Aring" horiz-adv-x="1396" unicode="Å"/><glyph d="M1249 754q4 20 19.5 34.5t36.5 14.5h893q14 0 23 -10.5t7 -24.5t-13 -24.5t-26 -10.5h-872l-70 -663h1014q14 0 23.5 -10.5t7.5 -24.5q-4 -35 -37 -35h-1034q-20 0 -33.5 14.5t-11.5 34.5zM33 20q0 10 14 27l332 385q18 23 43 23h659q14 0 23.5 -10.5t7.5 -24.5 t-13.5 -24.5t-25.5 -10.5h-639l-336 -385q-12 -16 -32 -16q-14 0 -24.5 10t-8.5 26zM537 614l776 902q20 20 43 20h1059q14 0 23 -10t9 -25q-2 -14 -13 -24.5t-26 -10.5h-1046l-776 -897q-27 -27 -49 -4q-27 22 0 49z" glyph-name="AE" horiz-adv-x="2361" unicode="Æ"/><glyph d="M868 -35q-23 0 -63 4l-23 -86q33 23 80 23q66 0 109 -48t35 -116q-6 -66 -59.5 -113t-119.5 -47q-68 0 -110.5 47t-36.5 113q4 23 25 22q23 0 18 -22q-4 -49 27.5 -84t81 -35t87 35t42.5 84q6 51 -25 86t-80 35q-47 0 -90 -39q-6 -8 -18 -8q-20 0 -21 22l35 135 q-293 39 -469 265.5t-143 529.5q35 332 295 567.5t591 235.5q324 0 539 -232q8 -8 8 -24q-2 -14 -13 -24.5t-26 -10.5q-16 0 -22 10q-197 211 -492 211q-303 0 -539.5 -215t-269.5 -518t158.5 -518t494.5 -215q295 0 537 211q10 10 27 10q14 0 23 -10t7 -25q-4 -16 -12 -24 q-264 -232 -588 -232z" glyph-name="Ccedilla" horiz-adv-x="1511" unicode="Ç"/><glyph d="M686 1735q2 16 15.5 28.5t29.5 12.5q10 0 23 -7l272 -112q18 -10 16 -25q0 -25 -26 -24q-4 0 -12 2l-291 86q-31 8 -27 39zM201 754q4 20 19.5 34.5t35.5 14.5h893q14 0 23.5 -10.5t7.5 -24.5t-13.5 -24.5t-25.5 -10.5h-873l-69 -663h1013q14 0 23.5 -10.5t7.5 -24.5 q-4 -35 -37 -35h-1034q-20 0 -33.5 14.5t-11.5 34.5zM252 905q-14 0 -23.5 10.5t-7.5 24.5l58 547q2 20 17 34.5t36 14.5h1034q14 0 23.5 -10t9.5 -25q-2 -14 -13.5 -24.5t-25.5 -10.5h-1014l-55 -526q-2 -14 -13.5 -24.5t-25.5 -10.5z" glyph-name="Egrave" horiz-adv-x="1312" unicode="È"/><glyph d="M1055 1735q-4 -29 -35 -39l-311 -86q-8 -2 -13 -2q-23 0 -22 24q2 16 24 25l293 112q18 6 27 7q16 0 27.5 -12.5t9.5 -28.5zM201 754q4 20 19.5 34.5t35.5 14.5h893q14 0 23.5 -10.5t7.5 -24.5t-13.5 -24.5t-25.5 -10.5h-873l-69 -663h1013q14 0 23.5 -10.5t7.5 -24.5 q-4 -35 -37 -35h-1034q-20 0 -33.5 14.5t-11.5 34.5zM252 905q-14 0 -23.5 10.5t-7.5 24.5l58 547q2 20 17 34.5t36 14.5h1034q14 0 23.5 -10t9.5 -25q-2 -14 -13.5 -24.5t-25.5 -10.5h-1014l-55 -526q-2 -14 -13.5 -24.5t-25.5 -10.5z" glyph-name="Eacute" horiz-adv-x="1312" unicode="É"/><glyph d="M1034 1638q-4 -27 -30 -26q-14 0 -21 12l-115 156l-147 -156q-12 -12 -25 -12q-27 0 -22 26q0 8 12 21l162 176q8 12 26.5 12t26.5 -12l125 -176q8 -17 8 -21zM201 754q4 20 19.5 34.5t35.5 14.5h893q14 0 23.5 -10.5t7.5 -24.5t-13.5 -24.5t-25.5 -10.5h-873l-69 -663 h1013q14 0 23.5 -10.5t7.5 -24.5q-4 -35 -37 -35h-1034q-20 0 -33.5 14.5t-11.5 34.5zM252 905q-14 0 -23.5 10.5t-7.5 24.5l58 547q2 20 17 34.5t36 14.5h1034q14 0 23.5 -10t9.5 -25q-2 -14 -13.5 -24.5t-25.5 -10.5h-1014l-55 -526q-2 -14 -13.5 -24.5t-25.5 -10.5z" glyph-name="Ecircumflex" horiz-adv-x="1312" unicode="Ê"/><glyph d="M682 1712.5q-2 -20.5 -17.5 -35t-36 -14.5t-33.5 14.5t-11 35t18 34.5t36.5 14t33 -14t10.5 -34.5zM1085 1712q-2 -20 -16 -34.5t-34.5 -14.5t-34 14.5t-11.5 35t18.5 34.5t36.5 14q47 0 41 -49zM201 754q4 20 19.5 34.5t35.5 14.5h893q14 0 23.5 -10.5t7.5 -24.5 t-13.5 -24.5t-25.5 -10.5h-873l-69 -663h1013q14 0 23.5 -10.5t7.5 -24.5q-4 -35 -37 -35h-1034q-20 0 -33.5 14.5t-11.5 34.5zM252 905q-14 0 -23.5 10.5t-7.5 24.5l58 547q2 20 17 34.5t36 14.5h1034q14 0 23.5 -10t9.5 -25q-2 -14 -13.5 -24.5t-25.5 -10.5h-1014 l-55 -526q-2 -14 -13.5 -24.5t-25.5 -10.5z" glyph-name="Edieresis" horiz-adv-x="1312" unicode="Ë"/><glyph d="M123 18l158 1500q2 14 13 24t25.5 10t23.5 -10t7 -24l-157 -1500q0 -14 -11.5 -24t-26 -10t-23.5 10t-9 24zM156 1735q2 16 15 28.5t30 12.5q10 0 22 -7l273 -112q18 -10 16 -25q0 -25 -27 -24q-4 0 -12 2l-291 86q-30 8 -26 39z" glyph-name="Igrave" unicode="Ì"/><glyph d="M123 18l158 1500q2 14 13 24t25.5 10t23.5 -10t7 -24l-157 -1500q0 -14 -11.5 -24t-26 -10t-23.5 10t-9 24zM524 1735q-4 -29 -35 -39l-311 -86q-8 -2 -12 -2q-23 0 -23 24q2 16 25 25l293 112q18 6 26 7q16 0 27.5 -12.5t9.5 -28.5z" glyph-name="Iacute" unicode="Í"/><glyph d="M123 18l158 1500q2 14 13 24t25.5 10t23.5 -10t7 -24l-157 -1500q0 -14 -11.5 -24t-26 -10t-23.5 10t-9 24zM510 1638q-4 -27 -31 -26q-14 0 -20 12l-115 156l-147 -156q-12 -12 -25 -12q-27 0 -22 26q0 8 12 21l162 176q10 12 26 12q18 0 27 -12l125 -176q8 -17 8 -21z " glyph-name="Icircumflex" unicode="Î"/><glyph d="M182 1712.5q-2 -20.5 -17 -35t-35.5 -14.5t-34 14.5t-11.5 35t18.5 34.5t37 14t32.5 -14t10 -34.5zM586 1712q-2 -20 -16.5 -34.5t-35 -14.5t-34 14.5t-11 35t18.5 34.5t37 14q47 0 41 -49zM123 18l158 1500q2 14 13 24t25.5 10t23.5 -10t7 -24l-157 -1500 q0 -14 -11.5 -24t-26 -10t-23.5 10t-9 24z" glyph-name="Idieresis" unicode="Ï"/><glyph d="M293 598l-55 -528h454q289 0 514.5 203.5t255.5 494.5q31 289 -151.5 493.5t-470.5 204.5h-455l-55 -524q-2 -14 -13.5 -24.5t-26 -10.5t-23.5 10.5t-7 24.5l57 545q2 20 17.5 34.5t36.5 14.5h475q317 0 519 -225.5t169 -542.5q-35 -317 -282.5 -542.5t-565.5 -225.5 h-475q-20 0 -33.5 14.5t-11.5 34.5l57 549q2 14 13.5 24.5t25.5 10.5t23.5 -10.5t7.5 -24.5zM623 735h-488q-14 0 -23.5 10.5t-7.5 24.5t13.5 24.5t25.5 10.5h488q14 0 23.5 -10.5t7 -24.5t-13.5 -24.5t-25 -10.5z" glyph-name="Eth" horiz-adv-x="1525" unicode="Ð"/><glyph d="M1466 1518l-155 -1498q-2 -14 -14.5 -25t-28.5 -11q-23 0 -29 16l-899 1417l-147 -1399q0 -14 -11.5 -24t-26 -10t-23.5 10t-9 24l158 1498q2 14 14 25t29 11q23 0 28 -16l899 -1417l146 1399q2 14 13 24t25.5 10t23.5 -10t7 -24zM1124 1714q-4 -55 -47 -94t-96 -39 q-37 0 -68.5 19.5t-46.5 54.5q-14 49 -67 49q-31 0 -57.5 -22.5t-28.5 -53.5q-4 -27 -29 -26q-10 0 -18.5 8t-6.5 18q6 55 50.5 94t95.5 39q80 0 113 -73q25 -51 67 -52q35 0 59.5 22.5t26.5 55.5q4 27 30.5 27t22.5 -27z" glyph-name="Ntilde" horiz-adv-x="1431" unicode="Ñ"/><glyph d="M877 1776q2 16 15 28.5t30 12.5q10 0 22 -7l273 -112q18 -10 16 -25q0 -25 -27 -24q-4 0 -12 2l-291 86q-30 8 -26 39zM1685.5 768q32.5 303 -159 518t-494.5 215t-539.5 -215t-269.5 -518t158.5 -518t495 -215t540 215t269 518zM1757 768q-35 -332 -295 -567.5 t-592 -235.5q-334 0 -543.5 235.5t-175 567.5t294 567.5t592.5 235.5q332 0 543 -235.5t176 -567.5z" glyph-name="Ograve" horiz-adv-x="1748" unicode="Ò"/><glyph d="M1245 1776q-4 -29 -35 -39l-311 -86q-8 -2 -12 -2q-23 0 -23 24q2 16 25 25l293 112q18 6 26 7q16 0 27.5 -12.5t9.5 -28.5zM1685.5 768q32.5 303 -159 518t-494.5 215t-539.5 -215t-269.5 -518t158.5 -518t495 -215t540 215t269 518zM1757 768q-35 -332 -295 -567.5 t-592 -235.5q-334 0 -543.5 235.5t-175 567.5t294 567.5t592.5 235.5q332 0 543 -235.5t176 -567.5z" glyph-name="Oacute" horiz-adv-x="1748" unicode="Ó"/><glyph d="M1227 1638q-4 -27 -31 -26q-14 0 -20 12l-115 156l-148 -156q-12 -12 -24 -12q-27 0 -23 26q0 8 13 21l161 176q8 12 26.5 12t27.5 -12l125 -176q8 -17 8 -21zM1685.5 768q32.5 303 -159 518t-494.5 215t-539.5 -215t-269.5 -518t158.5 -518t495 -215t540 215t269 518z M1757 768q-35 -332 -295 -567.5t-592 -235.5q-334 0 -543.5 235.5t-175 567.5t294 567.5t592.5 235.5q332 0 543 -235.5t176 -567.5z" glyph-name="Ocircumflex" horiz-adv-x="1748" unicode="Ô"/><glyph d="M1286 1755q-6 -55 -49 -94t-96 -39q-86 0 -113 74q-18 49 -70 49q-31 0 -57.5 -22.5t-28.5 -53.5q-4 -27 -28 -27q-10 0 -18.5 8.5t-6.5 18.5q6 55 50 94t96 39q82 0 112 -73q25 -51 70 -52q33 0 57.5 21.5t28.5 56.5q0 10 9 18.5t20 8.5q24 0 24 -27zM1685.5 768 q32.5 303 -159 518t-494.5 215t-539.5 -215t-269.5 -518t158.5 -518t495 -215t540 215t269 518zM1757 768q-35 -332 -295 -567.5t-592 -235.5q-334 0 -543.5 235.5t-175 567.5t294 567.5t592.5 235.5q332 0 543 -235.5t176 -567.5z" glyph-name="Otilde" horiz-adv-x="1748" unicode="Õ"/><glyph d="M899 1712.5q-2 -20.5 -17.5 -35t-36 -14.5t-33.5 14.5t-11 34.5q4 20 19.5 34.5t36 14.5t32.5 -14t10 -34.5zM1303 1712q-2 -20 -16.5 -34.5t-35 -14.5t-34 14.5t-11.5 34.5q4 20 19.5 34.5t36 14.5t33 -14.5t8.5 -34.5zM1685.5 768q32.5 303 -159 518t-494.5 215 t-539.5 -215t-269.5 -518t158.5 -518t495 -215t540 215t269 518zM1757 768q-35 -332 -295 -567.5t-592 -235.5q-334 0 -543.5 235.5t-175 567.5t294 567.5t592.5 235.5q332 0 543 -235.5t176 -567.5z" glyph-name="Odieresis" horiz-adv-x="1748" unicode="Ö"/><glyph d="M1229 -8l-551 553l-553 -553q-10 -8 -24.5 -8t-24.5 8t-10 24.5t10 24.5l553 553l-551 551q-10 10 -10 24.5t10 24.5q23 23 49 0l551 -551l549 551q27 23 49 0q27 -27 0 -49l-549 -551l551 -553q10 -10 10 -25.5t-10 -23.5q-22 -23 -49 0z" glyph-name="multiply" horiz-adv-x="1355" unicode="×"/><glyph d="M1815 1495l-1659 -1503q-31 -23 -50 0q-23 27 7 49l1659 1503q27 23 49 0q23 -26 -6 -49zM287 330q-12 -8 -26.5 -5t-20.5 13q-102 190 -78 430q35 332 294 567.5t593 235.5q229 0 415 -125q25 -20 2 -49q-23 -27 -49 -8q-170 113 -375 112q-303 0 -539.5 -215 t-269.5 -518q-25 -215 68 -389q15 -31 -14 -49zM1640 1206q33 18 50 -8q102 -190 77 -430q-35 -332 -294 -567.5t-592 -235.5q-229 0 -416 125q-25 20 -2 49q8 10 23.5 13.5t25.5 -5.5q168 -113 375 -112q303 0 539.5 215t269.5 518q23 219 -68 389q-15 31 12 49z" glyph-name="Oslash" horiz-adv-x="1769" unicode="Ø"/><glyph d="M350 1518l-100 -959q-23 -217 114.5 -370.5t354.5 -153.5t386 153.5t191 370.5l101 959q2 14 13 24t25.5 10t23.5 -10t7 -24l-100 -959q-27 -246 -218.5 -420t-434.5 -174q-246 0 -402.5 174t-130.5 420l101 959q2 14 13 24t25.5 10t23.5 -10t7 -24zM713 1735 q2 16 15 28.5t30 12.5q10 0 22 -7l273 -112q18 -10 16 -25q0 -25 -27 -24q-4 0 -12 2l-291 86q-30 8 -26 39z" glyph-name="Ugrave" horiz-adv-x="1431" unicode="Ù"/><glyph d="M350 1518l-100 -959q-23 -217 114.5 -370.5t354.5 -153.5t386 153.5t191 370.5l101 959q2 14 13 24t25.5 10t23.5 -10t7 -24l-100 -959q-27 -246 -218.5 -420t-434.5 -174q-246 0 -402.5 174t-130.5 420l101 959q2 14 13 24t25.5 10t23.5 -10t7 -24zM1081 1735 q-4 -29 -34 -39l-312 -86q-8 -2 -12 -2q-23 0 -23 24q2 16 25 25l293 112q18 6 26 7q16 0 27.5 -12.5t9.5 -28.5z" glyph-name="Uacute" horiz-adv-x="1431" unicode="Ú"/><glyph d="M350 1518l-100 -959q-23 -217 114.5 -370.5t354.5 -153.5t386 153.5t191 370.5l101 959q2 14 13 24t25.5 10t23.5 -10t7 -24l-100 -959q-27 -246 -218.5 -420t-434.5 -174q-246 0 -402.5 174t-130.5 420l101 959q2 14 13 24t25.5 10t23.5 -10t7 -24zM1067 1638 q-4 -27 -31 -26q-14 0 -20 12l-115 156l-147 -156q-12 -12 -25 -12q-27 0 -22 26q0 8 12 21l162 176q10 12 26 12q18 0 27 -12l125 -176q8 -17 8 -21z" glyph-name="Ucircumflex" horiz-adv-x="1431" unicode="Û"/><glyph d="M741 1712.5q-2 -20.5 -17 -35t-35.5 -14.5t-34 14.5t-11.5 35t18.5 34.5t37 14t32.5 -14t10 -34.5zM1145 1712q-2 -20 -16.5 -34.5t-35 -14.5t-33.5 14.5t-11 35t18 34.5t37 14q47 0 41 -49zM350 1518l-100 -959q-23 -217 114.5 -370.5t354.5 -153.5t386 153.5t191 370.5 l101 959q2 14 13 24t25.5 10t23.5 -10t7 -24l-100 -959q-27 -246 -218.5 -420t-434.5 -174q-246 0 -402.5 174t-130.5 420l101 959q2 14 13 24t25.5 10t23.5 -10t7 -24z" glyph-name="Udieresis" horiz-adv-x="1431" unicode="Ü"/><glyph d="M999 1735q-4 -29 -34 -39l-312 -86q-8 -2 -12 -2q-23 0 -23 24q2 16 25 25l293 112q18 6 27 7q16 0 27 -12.5t9 -28.5zM602 18l78 723q0 16 14 35l643 758q14 18 33 18q14 0 23.5 -10t7.5 -24q0 -12 -8 -21l-645 -762l-76 -717q0 -14 -11.5 -24t-25.5 -10t-23.5 10 t-9.5 24zM618 852q-18 0 -28 18l-397 627q-4 12 -5 21q2 14 13.5 24t25.5 10q20 0 29 -18l397 -627q4 -6 4 -20q-2 -14 -13.5 -24.5t-25.5 -10.5z" glyph-name="Yacute" horiz-adv-x="1273" unicode="Ý"/><glyph d="M391 594h516q143 0 252 99.5t125 242.5q14 141 -75 239.5t-230 98.5h-516q-14 0 -23.5 10t-7.5 25q4 35 37 34h516q170 0 278.5 -119.5t92.5 -287.5q-18 -170 -152.5 -291t-304.5 -121h-516q-14 0 -23.5 10.5t-7.5 24.5t13.5 24.5t25.5 10.5zM350 1518l-157 -1500 q0 -14 -11.5 -24t-26 -10t-23.5 10t-9 24l158 1500q2 14 13 24t25.5 10t23.5 -10t7 -24z" glyph-name="Thorn" horiz-adv-x="1331" unicode="Þ"/><glyph d="M856 991q80 92 88 195q14 131 -66.5 223t-211.5 92q-129 0 -232.5 -92t-118.5 -223l-159 -1518q0 -14 -11.5 -24.5t-26 -10.5t-23.5 10.5t-9 24.5l160 1518q16 160 142 272.5t283.5 112.5t259 -112.5t85.5 -272.5q-12 -127 -107 -236q-8 -12 -24.5 -14t-24.5 8 q-29 18 -4 47zM664 803h-250q-14 0 -23.5 10t-9.5 25q2 14 13.5 24t25.5 10h250q178 0 293.5 -128t97.5 -308q-20 -180 -161.5 -308t-319.5 -128h-250q-14 0 -24.5 10t-8.5 24.5t13.5 25t25.5 10.5h250q150 0 268.5 107.5t135 259t-79.5 259t-246 107.5z" glyph-name="germandbls" horiz-adv-x="1097" unicode="ß"/><glyph d="M686 1530q2 16 15.5 28.5t29.5 12.5q10 0 25 -6l270 -113q18 -8 18 -25q-4 -25 -28 -24q-4 0 -10 2l-293 86q-31 8 -27 39zM712.5 35q231.5 0 415.5 164q23 27 50 0q23 -27 -7 -49q-207 -184 -464 -185q-260 0 -425 184.5t-138.5 444.5t230.5 443.5t464 183.5 q180 0 321 -93.5t203 -246.5l29 286q2 14 13 24.5t25.5 10.5t23.5 -10t7 -25l-121 -1149q0 -14 -11 -24t-25.5 -10t-23.5 10t-9 24l61 576q25 231 -121.5 394t-378.5 163q-229 0 -410 -163t-206 -394.5t120.5 -395t377 -163.5z" glyph-name="agrave" horiz-adv-x="1462" unicode="à"/><glyph d="M1055 1530q-4 -29 -35 -39l-309 -86q-10 -2 -15 -2q-25 0 -20 24q0 14 22 25l295 113q14 6 25 6q16 0 27.5 -12.5t9.5 -28.5zM712.5 35q231.5 0 415.5 164q23 27 50 0q23 -27 -7 -49q-207 -184 -464 -185q-260 0 -425 184.5t-138.5 444.5t230.5 443.5t464 183.5 q180 0 321 -93.5t203 -246.5l29 286q2 14 13 24.5t25.5 10.5t23.5 -10t7 -25l-121 -1149q0 -14 -11 -24t-25.5 -10t-23.5 10t-9 24l61 576q25 231 -121.5 394t-378.5 163q-229 0 -410 -163t-206 -394.5t120.5 -395t377 -163.5z" glyph-name="aacute" horiz-adv-x="1462" unicode="á"/><glyph d="M1038 1417q-4 -27 -28 -26q-14 0 -23 12l-115 156l-147 -156q-8 -12 -23 -12q-10 0 -18 8t-6 18q2 6 12 21l162 176q12 12 29 12q18 0 24 -12l125 -176q10 -13 8 -21zM712.5 35q231.5 0 415.5 164q23 27 50 0q23 -27 -7 -49q-207 -184 -464 -185q-260 0 -425 184.5 t-138.5 444.5t230.5 443.5t464 183.5q180 0 321 -93.5t203 -246.5l29 286q2 14 13 24.5t25.5 10.5t23.5 -10t7 -25l-121 -1149q0 -14 -11 -24t-25.5 -10t-23.5 10t-9 24l61 576q25 231 -121.5 394t-378.5 163q-229 0 -410 -163t-206 -394.5t120.5 -395t377 -163.5z" glyph-name="acircumflex" horiz-adv-x="1462" unicode="â"/><glyph d="M1094 1524q-6 -55 -49.5 -94t-96.5 -39q-86 0 -112 73q-18 49 -70 49q-31 0 -57.5 -22.5t-28.5 -52.5q0 -10 -9 -18.5t-20 -8.5q-25 0 -24 27q6 55 50 94t95 39q82 0 113 -74q25 -51 69 -51q33 0 57.5 21.5t28.5 56.5q0 10 9.5 18t19.5 8q25 1 25 -26zM712.5 35 q231.5 0 415.5 164q23 27 50 0q23 -27 -7 -49q-207 -184 -464 -185q-260 0 -425 184.5t-138.5 444.5t230.5 443.5t464 183.5q180 0 321 -93.5t203 -246.5l29 286q2 14 13 24.5t25.5 10.5t23.5 -10t7 -25l-121 -1149q0 -14 -11 -24t-25.5 -10t-23.5 10t-9 24l61 576 q25 231 -121.5 394t-378.5 163q-229 0 -410 -163t-206 -394.5t120.5 -395t377 -163.5z" glyph-name="atilde" horiz-adv-x="1462" unicode="ã"/><glyph d="M717 1522q-4 -20 -19.5 -34.5t-36 -14.5t-33 14t-10 34.5t17.5 35t35.5 14.5t34 -14.5t11.5 -34.5zM1120 1522q-4 -20 -18.5 -34.5t-34.5 -14.5t-32.5 14t-10.5 34.5t17.5 35t36 14.5t32.5 -14.5t10 -34.5zM712.5 35q231.5 0 415.5 164q23 27 50 0q23 -27 -7 -49 q-207 -184 -464 -185q-260 0 -425 184.5t-138.5 444.5t230.5 443.5t464 183.5q180 0 321 -93.5t203 -246.5l29 286q2 14 13 24.5t25.5 10.5t23.5 -10t7 -25l-121 -1149q0 -14 -11 -24t-25.5 -10t-23.5 10t-9 24l61 576q25 231 -121.5 394t-378.5 163q-229 0 -410 -163 t-206 -394.5t120.5 -395t377 -163.5z" glyph-name="adieresis" horiz-adv-x="1462" unicode="ä"/><glyph d="M961 1489q4 39 -19.5 66.5t-62.5 27.5q-41 0 -72 -27.5t-35 -66.5q-4 -41 20.5 -68.5t65.5 -27.5q39 0 69 27.5t34 68.5zM1018 1489q-6 -63 -56.5 -108.5t-109.5 -45.5q-63 0 -103 45t-34 109q6 61 56 105t114 44q59 0 99 -44t34 -105zM712.5 35q231.5 0 415.5 164 q23 27 50 0q23 -27 -7 -49q-207 -184 -464 -185q-260 0 -425 184.5t-138.5 444.5t230.5 443.5t464 183.5q180 0 321 -93.5t203 -246.5l29 286q2 14 13 24.5t25.5 10.5t23.5 -10t7 -25l-121 -1149q0 -14 -11 -24t-25.5 -10t-23.5 10t-9 24l61 576q25 231 -121.5 394 t-378.5 163q-229 0 -410 -163t-206 -394.5t120.5 -395t377 -163.5z" glyph-name="aring" horiz-adv-x="1462" unicode="å"/><glyph d="M1505 594q2 14 13.5 24.5t25.5 10.5h975q10 219 -135.5 370.5t-366.5 151.5q-229 0 -410.5 -163t-206 -394.5t121 -395t376.5 -163.5q145 0 277.5 70.5t220.5 189.5q10 25 37 24q14 0 23.5 -10t7.5 -24q0 -8 -13 -25q-100 -135 -247.5 -215t-311.5 -80q-180 0 -319 92.5 t-203 245.5l-31 -285q0 -14 -11 -24t-25.5 -10t-23.5 10t-9 24l61 576q25 231 -121.5 394t-378.5 163q-229 0 -410 -163t-206 -394.5t120.5 -395t377 -163.5t415.5 164q23 27 50 0q23 -27 -7 -49q-207 -184 -464 -185q-260 0 -425 184.5t-138.5 444.5t230.5 443.5t464 183.5 q180 0 321 -93.5t203 -246.5l29 286q2 14 13 24.5t25.5 10.5t23.5 -10t7 -25l-28 -286q96 154 253.5 247t337.5 93q252 0 416 -177.5t148 -429.5q-2 -25 -18.5 -40t-37.5 -15h-995q-14 0 -23.5 10.5t-7.5 24.5z" glyph-name="ae" horiz-adv-x="2605" unicode="æ"/><glyph d="M709 -33q-23 0 -64 4l-22 -88q33 23 79 23q66 0 109 -48t35 -116q-6 -66 -59.5 -113t-118.5 -47q-68 0 -111 47t-37 113q4 23 25 22q23 0 18 -22q-4 -49 28 -84t81 -35t87 35t42 84q6 51 -25 86t-80 35q-47 0 -90 -39q-6 -8 -18 -8q-20 0 -21 22l37 137q-221 37 -353 212 t-108 407q29 260 233 443.5t464 183.5q250 0 413 -170q12 -12 9 -27q-2 -14 -13.5 -24.5t-26 -10.5t-20.5 8q-147 154 -368 154q-231 0 -412.5 -164t-206.5 -393t121.5 -394t378.5 -165q219 0 401 155q10 8 24.5 8.5t24 -10t6.5 -24.5q-4 -18 -12 -27q-202 -170 -450 -170z " glyph-name="ccedilla" horiz-adv-x="1224" unicode="ç"/><glyph d="M686 1530q2 16 15.5 28.5t29.5 12.5q10 0 25 -6l270 -113q18 -8 18 -25q-4 -25 -28 -24q-4 0 -10 2l-293 86q-31 8 -27 39zM317 594q2 14 13.5 24.5t25.5 10.5h975q10 219 -135 370.5t-367 151.5q-229 0 -409 -163t-205 -394.5t120.5 -395t375.5 -163.5q145 0 277 70.5 t220 189.5q10 25 37 24q14 0 23.5 -10t7.5 -24q0 -8 -12 -25q-100 -135 -248 -215t-311 -80q-260 0 -424 184.5t-138 444.5q29 260 230.5 443.5t462.5 183.5q252 0 415.5 -177.5t147.5 -429.5q-2 -25 -18.5 -40t-37.5 -15h-995q-14 0 -23.5 10.5t-7.5 24.5z" glyph-name="egrave" horiz-adv-x="1417" unicode="è"/><glyph d="M1055 1530q-4 -29 -35 -39l-309 -86q-10 -2 -15 -2q-25 0 -20 24q0 14 22 25l295 113q14 6 25 6q16 0 27.5 -12.5t9.5 -28.5zM317 594q2 14 13.5 24.5t25.5 10.5h975q10 219 -135 370.5t-367 151.5q-229 0 -409 -163t-205 -394.5t120.5 -395t375.5 -163.5q145 0 277 70.5 t220 189.5q10 25 37 24q14 0 23.5 -10t7.5 -24q0 -8 -12 -25q-100 -135 -248 -215t-311 -80q-260 0 -424 184.5t-138 444.5q29 260 230.5 443.5t462.5 183.5q252 0 415.5 -177.5t147.5 -429.5q-2 -25 -18.5 -40t-37.5 -15h-995q-14 0 -23.5 10.5t-7.5 24.5z" glyph-name="eacute" horiz-adv-x="1417" unicode="é"/><glyph d="M1038 1417q-4 -27 -28 -26q-14 0 -23 12l-115 156l-147 -156q-8 -12 -23 -12q-10 0 -18 8t-6 18q2 6 12 21l162 176q12 12 29 12q18 0 24 -12l125 -176q10 -13 8 -21zM317 594q2 14 13.5 24.5t25.5 10.5h975q10 219 -135 370.5t-367 151.5q-229 0 -409 -163t-205 -394.5 t120.5 -395t375.5 -163.5q145 0 277 70.5t220 189.5q10 25 37 24q14 0 23.5 -10t7.5 -24q0 -8 -12 -25q-100 -135 -248 -215t-311 -80q-260 0 -424 184.5t-138 444.5q29 260 230.5 443.5t462.5 183.5q252 0 415.5 -177.5t147.5 -429.5q-2 -25 -18.5 -40t-37.5 -15h-995 q-14 0 -23.5 10.5t-7.5 24.5z" glyph-name="ecircumflex" horiz-adv-x="1417" unicode="ê"/><glyph d="M717 1522q-4 -20 -19.5 -34.5t-36 -14.5t-33 14t-10 34.5t17.5 35t35.5 14.5t34 -14.5t11.5 -34.5zM1120 1522q-4 -20 -18.5 -34.5t-34.5 -14.5t-32.5 14t-10.5 34.5t17.5 35t36 14.5t32.5 -14.5t10 -34.5zM317 594q2 14 13.5 24.5t25.5 10.5h975q10 219 -135 370.5 t-367 151.5q-229 0 -409 -163t-205 -394.5t120.5 -395t375.5 -163.5q145 0 277 70.5t220 189.5q10 25 37 24q14 0 23.5 -10t7.5 -24q0 -8 -12 -25q-100 -135 -248 -215t-311 -80q-260 0 -424 184.5t-138 444.5q29 260 230.5 443.5t462.5 183.5q252 0 415.5 -177.5 t147.5 -429.5q-2 -25 -18.5 -40t-37.5 -15h-995q-14 0 -23.5 10.5t-7.5 24.5z" glyph-name="edieresis" horiz-adv-x="1417" unicode="ë"/><glyph d="M123 18l121 1149q2 14 13 24.5t25.5 10.5t23.5 -10t7 -25l-120 -1149q0 -14 -11.5 -24t-26 -10t-23.5 10t-9 24zM133 1530q2 16 15.5 28.5t29.5 12.5q10 0 25 -6l270 -113q18 -8 19 -25q-4 -25 -29 -24q-4 0 -10 2l-293 86q-31 8 -27 39z" glyph-name="igrave" unicode="ì"/><glyph d="M123 18l121 1149q2 14 13 24.5t25.5 10.5t23.5 -10t7 -25l-120 -1149q0 -14 -11.5 -24t-26 -10t-23.5 10t-9 24zM502 1530q-4 -29 -35 -39l-309 -86q-10 -2 -15 -2q-25 0 -20 24q0 14 22 25l295 113q14 6 25 6q16 0 27.5 -12.5t9.5 -28.5z" glyph-name="iacute" unicode="í"/><glyph d="M123 18l121 1149q2 14 13 24.5t25.5 10.5t23.5 -10t7 -25l-120 -1149q0 -14 -11.5 -24t-26 -10t-23.5 10t-9 24zM485 1417q-4 -27 -28 -26q-12 0 -23 12l-115 156l-147 -156q-8 -12 -22 -12q-10 0 -18.5 8t-6.5 18q2 6 12 21l162 176q12 12 29 12q18 0 24 -12l125 -176 q10 -13 8 -21z" glyph-name="icircumflex" unicode="î"/><glyph d="M164 1522q-4 -20 -19.5 -34.5t-36 -14.5t-33 14t-10 34.5t17.5 35t35.5 14.5t34 -14.5t11.5 -34.5zM567 1522q-4 -20 -18 -34.5t-34.5 -14.5t-33 14t-10.5 34.5t17.5 35t36 14.5t32.5 -14.5t10 -34.5zM123 18l121 1149q2 14 13 24.5t25.5 10.5t23.5 -10t7 -25l-120 -1149 q0 -14 -11.5 -24t-26 -10t-23.5 10t-9 24z" glyph-name="idieresis" unicode="ï"/><glyph d="M1290 575q20 195 -106 343l-375 434l-174 -49q-6 -2 -17 -3q-14 0 -23 10.5t-7 24.5q4 27 35 35l137 39l-78 84q-8 8 -8 25q2 14 13 24t25.5 10t24.5 -10l101 -110l198 55q18 4 30.5 -6.5t10.5 -26.5q-2 -27 -37 -35l-153 -45l356 -409q143 -166 119 -390 q-27 -254 -223.5 -432t-450.5 -178t-413.5 178.5t-133.5 431.5q25 238 220.5 406t449.5 168h20q14 0 23.5 -11.5t7.5 -25.5q-4 -33 -41 -33h-16q-223 0 -396 -148.5t-196 -355.5q-23 -225 117.5 -382.5t363.5 -157.5q225 0 399 157.5t197 382.5z" glyph-name="eth" horiz-adv-x="1384" unicode="ð"/><glyph d="M1034 1524q-6 -55 -49 -94t-96 -39q-86 0 -113 73q-18 49 -69 49q-31 0 -57.5 -22.5t-28.5 -52.5q0 -10 -9.5 -18.5t-19.5 -8.5q-25 0 -25 27q6 55 50.5 94t95.5 39q82 0 112 -74q25 -51 70 -51q33 0 57.5 21.5t28.5 56.5q0 10 9 18t20 8q24 1 24 -26zM424 1098 q158 123 348 123q205 0 333 -143.5t105 -344.5l-75 -715q0 -14 -11.5 -24t-26 -10t-23.5 10t-9 24l76 715q18 174 -91.5 296t-283.5 122q-168 0 -307 -111q-31 -16 -49 9q-15 29 14 49zM313 1167l-120 -1149q0 -14 -11.5 -24t-26 -10t-23.5 10t-9 24l121 1149q2 14 13 24.5 t25.5 10.5t23.5 -10.5t7 -24.5z" glyph-name="ntilde" horiz-adv-x="1257" unicode="ñ"/><glyph d="M684 1530q2 16 15.5 28.5t29.5 12.5q8 0 25 -6l270 -113q18 -8 18 -25q-4 -25 -28 -24q-4 0 -10 2l-293 86q-31 8 -27 39zM1331.5 593.5q24.5 231.5 -122 394.5t-378.5 163q-229 0 -410 -163t-206 -394.5t120.5 -395t377 -163.5t413 163.5t206 395zM1403 594 q-27 -260 -230.5 -444.5t-465.5 -184.5q-260 0 -425 184.5t-138.5 444.5t230.5 443.5t464 183.5q262 0 427 -183.5t138 -443.5z" glyph-name="ograve" horiz-adv-x="1423" unicode="ò"/><glyph d="M1053 1530q-4 -29 -35 -39l-309 -86q-10 -2 -15 -2q-25 0 -20 24q0 14 22 25l295 113q14 6 25 6q16 0 27.5 -12.5t9.5 -28.5zM1331.5 593.5q24.5 231.5 -122 394.5t-378.5 163q-229 0 -410 -163t-206 -394.5t120.5 -395t377 -163.5t413 163.5t206 395zM1403 594 q-27 -260 -230.5 -444.5t-465.5 -184.5q-260 0 -425 184.5t-138.5 444.5t230.5 443.5t464 183.5q262 0 427 -183.5t138 -443.5z" glyph-name="oacute" horiz-adv-x="1423" unicode="ó"/><glyph d="M1038 1417q-4 -27 -28 -26q-14 0 -23 12l-115 156l-147 -156q-8 -12 -23 -12q-10 0 -18 8t-6 18q2 6 12 21l162 176q12 12 29 12q18 0 24 -12l125 -176q10 -13 8 -21zM1331.5 593.5q24.5 231.5 -122 394.5t-378.5 163q-229 0 -410 -163t-206 -394.5t120.5 -395 t377 -163.5t413 163.5t206 395zM1403 594q-27 -260 -230.5 -444.5t-465.5 -184.5q-260 0 -425 184.5t-138.5 444.5t230.5 443.5t464 183.5q262 0 427 -183.5t138 -443.5z" glyph-name="ocircumflex" horiz-adv-x="1423" unicode="ô"/><glyph d="M1098 1524q-6 -55 -49 -94t-97 -39q-86 0 -112 73q-18 49 -70 49q-31 0 -57.5 -22.5t-28.5 -52.5q0 -10 -9 -18.5t-20 -8.5q-25 0 -24 27q6 55 50 94t95 39q82 0 113 -74q25 -51 69 -51q33 0 57.5 21.5t28.5 56.5q0 10 9.5 18t19.5 8q25 1 25 -26zM1331.5 593.5 q24.5 231.5 -122 394.5t-378.5 163q-229 0 -410 -163t-206 -394.5t120.5 -395t377 -163.5t413 163.5t206 395zM1403 594q-27 -260 -230.5 -444.5t-465.5 -184.5q-260 0 -425 184.5t-138.5 444.5t230.5 443.5t464 183.5q262 0 427 -183.5t138 -443.5z" glyph-name="otilde" horiz-adv-x="1423" unicode="õ"/><glyph d="M717 1522q-4 -20 -19.5 -34.5t-36 -14.5t-33 14t-10 34.5t17.5 35t35.5 14.5t34 -14.5t11.5 -34.5zM1120 1522q-4 -20 -18.5 -34.5t-34.5 -14.5t-32.5 14t-10.5 34.5t17.5 35t36 14.5t32.5 -14.5t10 -34.5zM1331.5 593.5q24.5 231.5 -122 394.5t-378.5 163 q-229 0 -410 -163t-206 -394.5t120.5 -395t377 -163.5t413 163.5t206 395zM1403 594q-27 -260 -230.5 -444.5t-465.5 -184.5q-260 0 -425 184.5t-138.5 444.5t230.5 443.5t464 183.5q262 0 427 -183.5t138 -443.5z" glyph-name="odieresis" horiz-adv-x="1423" unicode="ö"/><glyph d="M752 41q0 -25 -16.5 -41t-39 -16t-39 16t-16.5 41q0 23 16.5 38t39 15t39 -15t16.5 -38zM641 1145q0 25 16.5 41t39 16t39 -16.5t16.5 -40.5q0 -23 -16.5 -39t-39 -16t-39 16t-16.5 39zM1272 559h-1151q-14 0 -24.5 10.5t-10.5 24.5t10 24.5t25 10.5h1151 q14 0 24.5 -10.5t10.5 -24.5t-10.5 -24.5t-24.5 -10.5z" glyph-name="divide" horiz-adv-x="1390" unicode="÷"/><glyph d="M1440 1145l-1274 -1153q-31 -23 -49 0q-23 27 6 49l1274 1153q27 23 49 0q23 -26 -6 -49zM195 291q-61 141 -43 303q27 260 230.5 443.5t463.5 183.5q162 0 291 -76q33 -20 10 -49q-23 -27 -51 -13q-123 68 -256 68q-229 0 -410.5 -163t-206.5 -394q-16 -147 37 -268 q12 -29 -18 -47q-29 -15 -47 12zM1366 895q63 -139 45 -303q-27 -260 -230.5 -443.5t-463.5 -183.5q-162 0 -291 76q-33 20 -10 49q23 27 51 12q123 -68 256 -67q229 0 410.5 162.5t205.5 394.5q16 147 -36 268q-14 27 18 47q29 17 45 -12z" glyph-name="oslash" horiz-adv-x="1439" unicode="ø"/><glyph d="M602 1530q2 16 15.5 28.5t29.5 12.5q8 0 25 -6l270 -113q18 -8 19 -25q-4 -25 -29 -24q-4 0 -10 2l-293 86q-31 8 -27 39zM956 88q-158 -123 -348 -123q-205 0 -333 143.5t-105 344.5l74 714q2 14 13 24.5t25.5 10.5t23.5 -10t7 -25l-73 -714q-18 -174 91 -296t283 -122 q164 0 308 110q31 18 49 -8q14 -29 -15 -49zM1065 18l121 1149q2 14 13 24.5t25.5 10.5t23.5 -10t7 -25l-120 -1149q0 -14 -11.5 -24t-26 -10t-23.5 10t-9 24z" glyph-name="ugrave" horiz-adv-x="1257" unicode="ù"/><glyph d="M971 1530q-4 -29 -35 -39l-309 -86q-10 -2 -15 -2q-25 0 -20 24q0 14 22 25l295 113q14 6 25 6q16 0 27.5 -12.5t9.5 -28.5zM956 88q-158 -123 -348 -123q-205 0 -333 143.5t-105 344.5l74 714q2 14 13 24.5t25.5 10.5t23.5 -10t7 -25l-73 -714q-18 -174 91 -296 t283 -122q164 0 308 110q31 18 49 -8q14 -29 -15 -49zM1065 18l121 1149q2 14 13 24.5t25.5 10.5t23.5 -10t7 -25l-120 -1149q0 -14 -11.5 -24t-26 -10t-23.5 10t-9 24z" glyph-name="uacute" horiz-adv-x="1257" unicode="ú"/><glyph d="M954 1417q-4 -27 -28 -26q-12 0 -23 12l-115 156l-147 -156q-10 -12 -23 -12q-10 0 -18 8t-6 18q2 6 12 21l162 176q12 12 29 12q18 0 24 -12l125 -176q10 -13 8 -21zM956 88q-158 -123 -348 -123q-205 0 -333 143.5t-105 344.5l74 714q2 14 13 24.5t25.5 10.5t23.5 -10 t7 -25l-73 -714q-18 -174 91 -296t283 -122q164 0 308 110q31 18 49 -8q14 -29 -15 -49zM1065 18l121 1149q2 14 13 24.5t25.5 10.5t23.5 -10t7 -25l-120 -1149q0 -14 -11.5 -24t-26 -10t-23.5 10t-9 24z" glyph-name="ucircumflex" horiz-adv-x="1257" unicode="û"/><glyph d="M633 1522q-4 -20 -19.5 -34.5t-36 -14.5t-33 14t-10 34.5t17.5 35t35.5 14.5t34 -14.5t11.5 -34.5zM1036 1522q-4 -20 -18 -34.5t-34.5 -14.5t-33 14t-10.5 34.5t17.5 35t36 14.5t32.5 -14.5t10 -34.5zM956 88q-158 -123 -348 -123q-205 0 -333 143.5t-105 344.5l74 714 q2 14 13 24.5t25.5 10.5t23.5 -10t7 -25l-73 -714q-18 -174 91 -296t283 -122q164 0 308 110q31 18 49 -8q14 -29 -15 -49zM1065 18l121 1149q2 14 13 24.5t25.5 10.5t23.5 -10t7 -25l-120 -1149q0 -14 -11.5 -24t-26 -10t-23.5 10t-9 24z" glyph-name="udieresis" horiz-adv-x="1257" unicode="ü"/><glyph d="M360 -332l7 19l823 1493q10 23 35 22q14 0 23 -10t7 -25q0 -12 -6 -18l-821 -1493q-10 -23 -35 -23q-14 0 -23.5 10.5t-9.5 24.5zM473 193l-326 956q0 2 -1 8t-1 10q2 14 13.5 24.5t25.5 10.5q27 0 31 -22l328 -959q10 -31 -25 -47t-45 19zM922 1530q-4 -29 -35 -39 l-309 -86q-10 -2 -15 -2q-25 0 -20 24q0 14 22 25l295 113q16 6 25 6q16 0 27.5 -12.5t9.5 -28.5z" glyph-name="yacute" horiz-adv-x="1159" unicode="ý"/><glyph d="M872 1151q-236 0 -415 -164q-27 -27 -49.5 0t6.5 49q205 184 465 184.5t424.5 -184t138 -444.5t-230 -443.5t-463.5 -183.5q-180 0 -321.5 93.5t-203.5 246.5l-67 -637q0 -14 -11.5 -24.5t-26 -10.5t-23.5 10.5t-9 24.5l195 1850q2 14 13 24t25.5 10t23.5 -10t7 -24 l-96 -926q-25 -231 121.5 -395t378.5 -164q229 0 410.5 163.5t206 395t-121.5 395.5t-377 164z" glyph-name="thorn" horiz-adv-x="1462" unicode="þ"/><glyph d="M360 -332l7 19l823 1493q10 23 35 22q14 0 23 -10t7 -25q0 -12 -6 -18l-821 -1493q-10 -23 -35 -23q-14 0 -23.5 10.5t-9.5 24.5zM473 193l-326 956q0 2 -1 8t-1 10q2 14 13.5 24.5t25.5 10.5q27 0 31 -22l328 -959q10 -31 -25 -47t-45 19zM586 1522q-4 -20 -19.5 -34.5 t-36 -14.5t-33 14t-10.5 34.5t17.5 35t36 14.5t34 -14.5t11.5 -34.5zM989 1522q-4 -20 -18.5 -34.5t-35 -14.5t-32.5 14t-10 34.5t17.5 35t36 14.5t32.5 -14.5t10 -34.5z" glyph-name="ydieresis" horiz-adv-x="1159" unicode="ÿ"/><glyph d="M668 1687.5q2 14.5 13 24.5t26 10h346q14 0 23 -10t7 -24.5t-13 -24.5t-26 -10h-346q-14 0 -23 10t-7 24.5zM1114 578l-266 858l-742 -1430q-14 -23 -34 -22q-18 0 -28.5 15t-0.5 36l770 1485q14 33 47 32q31 0 39 -32l285 -914q6 -18 -7.5 -34.5t-32 -16.5t-30.5 23z M471 453h725q33 0 43 -35l119 -383q8 -18 -5.5 -34.5t-31.5 -16.5q-23 0 -31 22l-116 377h-711q-14 0 -23.5 10t-7.5 24.5t13.5 25t25.5 10.5z" glyph-name="Amacron" horiz-adv-x="1396" unicode="Ā"/><glyph d="M659 1501q0 14 11.5 24.5t25.5 10.5h346q14 0 23.5 -10t9.5 -25q-2 -14 -13 -24.5t-26 -10.5h-346q-14 0 -23.5 10.5t-7.5 24.5zM712.5 35q231.5 0 415.5 164q23 27 50 0q23 -27 -7 -49q-207 -184 -464 -185q-260 0 -425 184.5t-138.5 444.5t230.5 443.5t464 183.5 q180 0 321 -93.5t203 -246.5l29 286q2 14 13 24.5t25.5 10.5t23.5 -10t7 -25l-121 -1149q0 -14 -11 -24t-25.5 -10t-23.5 10t-9 24l61 576q25 231 -121.5 394t-378.5 163q-229 0 -410 -163t-206 -394.5t120.5 -395t377 -163.5z" glyph-name="amacron" horiz-adv-x="1462" unicode="ā"/><glyph d="M1114 578l-266 858l-742 -1430q-14 -23 -34 -22q-18 0 -28.5 15t-0.5 36l770 1485q14 33 47 32q31 0 39 -32l285 -914q6 -18 -7.5 -34.5t-32 -16.5t-30.5 23zM471 453h725q33 0 43 -35l119 -383q8 -18 -5.5 -34.5t-31.5 -16.5q-6 0 -14 4q-25 12 -58 12q-63 0 -113.5 -47 t-58.5 -111q-6 -66 34 -111.5t103 -45.5q39 0 76 20q8 4 19 4q14 0 23 -10t7 -25q-4 -20 -22 -30q-47 -29 -109 -29q-92 0 -151.5 66.5t-50.5 160.5q10 88 82.5 145.5t164.5 57.5q10 0 27 -4l-106 342h-711q-14 0 -23.5 10t-7.5 24.5t13.5 25t25.5 10.5z" glyph-name="Aogonek" horiz-adv-x="1396" unicode="Ą"/><glyph d="M1270 -315q39 0 76 20q8 4 18 4q14 0 23.5 -10t7.5 -25q-4 -20 -23 -30q-47 -29 -108 -29q-92 0 -151.5 63.5t-51.5 155.5q8 80 69.5 132t141.5 61l59 567q25 231 -121.5 394t-378.5 163q-229 0 -410 -163t-206 -394.5t120.5 -395t377 -163.5t415.5 164q23 27 50 0 q23 -27 -7 -49q-207 -184 -464 -185q-260 0 -425 184.5t-138.5 444.5t230.5 443.5t464 183.5q180 0 321 -93.5t203 -246.5l29 286q2 14 13 24.5t25.5 10.5t23.5 -10t7 -25l-121 -1149q0 -14 -11 -24t-25 -10q-63 0 -113.5 -44t-56.5 -106q-6 -63 32.5 -106t104.5 -43z" glyph-name="aogonek" horiz-adv-x="1462" unicode="ą"/><glyph d="M1225 1776q-4 -29 -35 -39l-311 -86q-8 -2 -13 -2q-23 0 -22 24q2 16 24 25l293 112q18 6 27 7q16 0 27.5 -12.5t9.5 -28.5zM868 -35q-332 0 -542.5 235.5t-176 567.5t295 567.5t591.5 235.5q324 0 539 -232q8 -8 8 -24q-2 -14 -13 -24.5t-26 -10.5q-16 0 -22 10 q-197 211 -492 211q-303 0 -539.5 -215t-269.5 -518t158.5 -518t494.5 -215q295 0 537 211q10 10 27 10q14 0 23 -10t7 -25q-4 -16 -12 -24q-264 -232 -588 -232z" glyph-name="Cacute" horiz-adv-x="1511" unicode="Ć"/><glyph d="M1049 1530q-4 -29 -35 -39l-309 -86q-10 -2 -15 -2q-25 0 -20 24q0 14 22 25l295 113q14 6 25 6q16 0 27.5 -12.5t9.5 -28.5zM709 -35q-260 0 -427 184.5t-138.5 444.5t232.5 443.5t464 183.5q250 0 413 -170q12 -12 9 -27q-2 -14 -13.5 -24.5t-26 -10.5t-20.5 8 q-147 154 -368 154q-231 0 -412.5 -164t-206.5 -393t121.5 -394t378.5 -165q219 0 401 155q10 8 24.5 8.5t24 -10t6.5 -24.5q-4 -18 -12 -27q-204 -172 -450 -172z" glyph-name="cacute" horiz-adv-x="1224" unicode="ć"/><glyph d="M1243 1827q0 -8 -12 -21l-162 -176q-8 -12 -27 -12q-16 0 -26 12l-125 176q-8 16 -8 21q4 27 30 26q12 0 21 -12l115 -155l147 155q8 12 25 12q26 1 22 -26zM868 -35q-332 0 -542.5 235.5t-176 567.5t295 567.5t591.5 235.5q324 0 539 -232q8 -8 8 -24q-2 -14 -13 -24.5 t-26 -10.5q-16 0 -22 10q-197 211 -492 211q-303 0 -539.5 -215t-269.5 -518t158.5 -518t494.5 -215q295 0 537 211q10 10 27 10q14 0 23 -10t7 -25q-4 -16 -12 -24q-264 -232 -588 -232z" glyph-name="Ccaron" horiz-adv-x="1511" unicode="Č"/><glyph d="M1061 1599q-2 -6 -12 -20l-164 -176q-8 -12 -27 -12q-16 0 -27 12l-122 176q-10 14 -9 20q0 10 9.5 18.5t19.5 8.5q14 0 21 -12l114 -156l148 156q12 12 24 12q25 0 25 -27zM709 -35q-260 0 -427 184.5t-138.5 444.5t232.5 443.5t464 183.5q250 0 413 -170q12 -12 9 -27 q-2 -14 -13.5 -24.5t-26 -10.5t-20.5 8q-147 154 -368 154q-231 0 -412.5 -164t-206.5 -393t121.5 -394t378.5 -165q219 0 401 155q10 8 24.5 8.5t24 -10t6.5 -24.5q-4 -18 -12 -27q-204 -172 -450 -172z" glyph-name="ccaron" horiz-adv-x="1224" unicode="č"/><glyph d="M123 18l156 1469q2 20 17 34.5t36 14.5h475q317 0 519 -225.5t169 -542.5q-35 -317 -282.5 -542.5t-565.5 -225.5h-317q-14 0 -24.5 10t-8.5 24.5t13.5 25t25.5 10.5h317q289 0 514.5 203.5t255.5 494.5q31 289 -151 493.5t-471 204.5h-455l-153 -1448q0 -14 -11.5 -24 t-26 -10t-23.5 10t-9 24zM1063 1817q-2 -6 -12 -21l-162 -176q-12 -12 -29 -12q-18 0 -24 12l-125 176q-10 14 -9 21q0 10 9.5 18t19.5 8q14 0 21 -12l114 -156l148 156q12 12 24 12q25 1 25 -26z" glyph-name="Dcaron" horiz-adv-x="1486" unicode="Ď"/><glyph d="M1698 1552q16 0 27.5 -12t9.5 -29q0 -4 -9 -24l-143 -283q-8 -20 -27 -20q-25 0 -20 24q0 4 2 13l119 301q12 30 41 30zM712.5 35q231.5 0 415.5 164q23 27 50 0q23 -27 -7 -49q-207 -184 -464 -185q-260 0 -425 184.5t-138.5 444.5t230.5 443.5t464 183.5 q180 0 321 -93.5t203 -246.5l65 637q2 14 13.5 24t26 10t23.5 -10t7 -24l-158 -1500q0 -14 -11 -24t-25.5 -10t-23.5 10t-9 24l61 576q25 231 -121.5 394t-378.5 163q-229 0 -410 -163t-206 -394.5t120.5 -395t377 -163.5z" glyph-name="dcaron" horiz-adv-x="1605" unicode="ď"/><glyph d="M201 754q4 20 19.5 34.5t35.5 14.5h893q14 0 23.5 -10.5t7.5 -24.5t-13.5 -24.5t-25.5 -10.5h-873l-69 -663h1013q14 0 23.5 -10.5t7.5 -24.5q-4 -35 -37 -35h-1034q-20 0 -33.5 14.5t-11.5 34.5zM252 905q-14 0 -23.5 10.5t-7.5 24.5l58 547q2 20 17 34.5t36 14.5h1034 q14 0 23.5 -10t9.5 -25q-2 -14 -13.5 -24.5t-25.5 -10.5h-1014l-55 -526q-2 -14 -13.5 -24.5t-25.5 -10.5zM666 1687.5q2 14.5 13 24.5t26 10h346q14 0 23 -10t7 -24.5t-13 -24.5t-26 -10h-346q-14 0 -23 10t-7 24.5z" glyph-name="Emacron" horiz-adv-x="1312" unicode="Ē"/><glyph d="M659 1501q0 14 11.5 24.5t25.5 10.5h346q14 0 23.5 -10t9.5 -25q-2 -14 -13 -24.5t-26 -10.5h-346q-14 0 -23.5 10.5t-7.5 24.5zM317 594q2 14 13.5 24.5t25.5 10.5h975q10 219 -135 370.5t-367 151.5q-229 0 -409 -163t-205 -394.5t120.5 -395t375.5 -163.5 q145 0 277 70.5t220 189.5q10 25 37 24q14 0 23.5 -10t7.5 -24q0 -8 -12 -25q-100 -135 -248 -215t-311 -80q-260 0 -424 184.5t-138 444.5q29 260 230.5 443.5t462.5 183.5q252 0 415.5 -177.5t147.5 -429.5q-2 -25 -18.5 -40t-37.5 -15h-995q-14 0 -23.5 10.5t-7.5 24.5z " glyph-name="emacron" horiz-adv-x="1417" unicode="ē"/><glyph d="M201 754q4 20 19.5 34.5t35.5 14.5h893q14 0 23.5 -10.5t7.5 -24.5t-13.5 -24.5t-25.5 -10.5h-873l-69 -663h1013q14 0 23.5 -10.5t7.5 -24.5q-4 -35 -37 -35h-1034q-20 0 -33.5 14.5t-11.5 34.5zM252 905q-14 0 -23.5 10.5t-7.5 24.5l58 547q2 20 17 34.5t36 14.5h1034 q14 0 23.5 -10t9.5 -25q-2 -14 -13.5 -24.5t-25.5 -10.5h-1014l-55 -526q-2 -14 -13.5 -24.5t-25.5 -10.5zM958 1683q-4 -37 -33.5 -63.5t-64.5 -26.5q-37 0 -60.5 27t-19.5 63q4 35 33 62t66 27q35 0 59 -27t20 -62z" glyph-name="Edotaccent" horiz-adv-x="1312" unicode="Ė"/><glyph d="M950 1477q-2 -37 -31.5 -64t-64.5 -27q-37 0 -61.5 27t-20.5 64q4 35 34 61.5t66 26.5q35 0 58.5 -26.5t19.5 -61.5zM317 594q2 14 13.5 24.5t25.5 10.5h975q10 219 -135 370.5t-367 151.5q-229 0 -409 -163t-205 -394.5t120.5 -395t375.5 -163.5q145 0 277 70.5 t220 189.5q10 25 37 24q14 0 23.5 -10t7.5 -24q0 -8 -12 -25q-100 -135 -248 -215t-311 -80q-260 0 -424 184.5t-138 444.5q29 260 230.5 443.5t462.5 183.5q252 0 415.5 -177.5t147.5 -429.5q-2 -25 -18.5 -40t-37.5 -15h-995q-14 0 -23.5 10.5t-7.5 24.5z" glyph-name="edotaccent" horiz-adv-x="1417" unicode="ė"/><glyph d="M1081 -315q39 0 76 20q8 4 19 4q14 0 23 -10t7 -25q-4 -20 -22 -30q-47 -29 -109 -29q-92 0 -151.5 66.5t-51.5 160.5q12 102 99 158h-799q-20 0 -33.5 14.5t-11.5 34.5l74 705q4 20 19.5 34.5t35.5 14.5h893q14 0 23.5 -10.5t7.5 -24.5t-13.5 -24.5t-25.5 -10.5h-873 l-69 -663h1013q14 0 23.5 -10.5t7.5 -24.5q-4 -35 -37 -35h-96q-59 0 -108.5 -47t-57.5 -111q-6 -66 34 -111.5t103 -45.5zM252 905q-14 0 -23.5 10.5t-7.5 24.5l58 547q2 20 17 34.5t36 14.5h1034q14 0 23.5 -10t9.5 -25q-2 -14 -13.5 -24.5t-25.5 -10.5h-1014l-55 -526 q-2 -14 -13.5 -24.5t-25.5 -10.5z" glyph-name="Eogonek" horiz-adv-x="1312" unicode="Ę"/><glyph d="M317 594q2 14 13.5 24.5t25.5 10.5h975q10 219 -135 370.5t-367 151.5q-229 0 -409 -163t-205 -394.5t120.5 -395t375.5 -163.5q145 0 277 70.5t220 189.5q10 25 37 24q14 0 23.5 -10t7.5 -24q0 -8 -12 -25q-139 -188 -361 -262q-43 -18 -71.5 -60t-32.5 -92 q-8 -66 31.5 -113.5t103.5 -47.5q39 0 76 20q8 4 18 4q14 0 23.5 -10t7.5 -25q-4 -20 -23 -30q-47 -29 -108 -29q-92 0 -151.5 68.5t-49.5 162.5q6 70 55 123q-53 -4 -77 -4q-260 0 -424 184.5t-138 444.5q29 260 230.5 443.5t462.5 183.5q252 0 415.5 -177.5t147.5 -429.5 q-2 -25 -18.5 -40t-37.5 -15h-995q-14 0 -23.5 10.5t-7.5 24.5z" glyph-name="eogonek" horiz-adv-x="1417" unicode="ę"/><glyph d="M201 754q4 20 19.5 34.5t35.5 14.5h893q14 0 23.5 -10.5t7.5 -24.5t-13.5 -24.5t-25.5 -10.5h-873l-69 -663h1013q14 0 23.5 -10.5t7.5 -24.5q-4 -35 -37 -35h-1034q-20 0 -33.5 14.5t-11.5 34.5zM252 905q-14 0 -23.5 10.5t-7.5 24.5l58 547q2 20 17 34.5t36 14.5h1034 q14 0 23.5 -10t9.5 -25q-2 -14 -13.5 -24.5t-25.5 -10.5h-1014l-55 -526q-2 -14 -13.5 -24.5t-25.5 -10.5zM1049 1817q-2 -6 -13 -21l-162 -176q-12 -12 -28 -12q-18 0 -25 12l-125 176q-10 14 -8 21q0 10 9.5 18t19.5 8q14 0 20 -12l115 -156l147 156q12 12 25 12 q25 1 25 -26z" glyph-name="Ecaron" horiz-adv-x="1312" unicode="Ě"/><glyph d="M1057 1599q-2 -6 -13 -20l-163 -176q-8 -12 -26.5 -12t-27.5 12l-122 176q-10 14 -9 20q0 10 9.5 18.5t19.5 8.5q14 0 20 -12l115 -156l148 156q12 12 24 12q25 0 25 -27zM317 594q2 14 13.5 24.5t25.5 10.5h975q10 219 -135 370.5t-367 151.5q-229 0 -409 -163 t-205 -394.5t120.5 -395t375.5 -163.5q145 0 277 70.5t220 189.5q10 25 37 24q14 0 23.5 -10t7.5 -24q0 -8 -12 -25q-100 -135 -248 -215t-311 -80q-260 0 -424 184.5t-138 444.5q29 260 230.5 443.5t462.5 183.5q252 0 415.5 -177.5t147.5 -429.5q-2 -25 -18.5 -40 t-37.5 -15h-995q-14 0 -23.5 10.5t-7.5 24.5z" glyph-name="ecaron" horiz-adv-x="1417" unicode="ě"/><glyph d="M793 -313q4 23 24 22q14 0 24.5 10.5t12.5 22.5l8 82h-8q-20 0 -33.5 14.5t-11.5 36.5q2 20 18.5 34.5t38.5 14.5q20 0 32.5 -14t10.5 -35l-14 -133q-4 -31 -27.5 -53.5t-56.5 -22.5q-18 1 -18 21zM938 768q2 14 13.5 24.5t25.5 10.5h543q20 0 32.5 -14.5t10.5 -34.5 l-52 -490q-4 -23 -16 -33q-125 -125 -288 -195.5t-337 -70.5q-332 0 -542.5 235.5t-176 567.5t295 567.5t591.5 235.5q319 0 533 -223q8 -14 6 -25q-4 -35 -37 -35q-14 0 -24 10q-193 203 -484 203q-303 0 -539.5 -215t-269.5 -518t158.5 -518t495.5 -215q324 0 565 237 l49 461h-522q-14 0 -23.5 10.5t-7.5 24.5z" glyph-name="Gcommaaccent" horiz-adv-x="1587" unicode="Ģ"/><glyph d="M918 1536q0 -8 -7.5 -15.5t-15.5 -7.5q-14 0 -25.5 -10t-13.5 -22l-8 -82h8q20 0 34.5 -14.5t12.5 -36.5q-4 -20 -20.5 -35t-37 -15t-33.5 14.5t-9 35.5l12 133q4 31 28.5 53t55.5 22q8 0 14.5 -6t4.5 -14zM713 35q221 0 403 153q10 8 25.5 8.5t23.5 -8.5q23 -23 -4 -49 q-207 -174 -454 -174q-260 0 -425 184.5t-138.5 444.5t230.5 443.5t464 183.5q180 0 321 -93.5t203 -246.5l29 286q2 14 13 24.5t25.5 10.5t23.5 -10t7 -25l-96 -923q-29 -260 -231.5 -444.5t-462.5 -184.5q-225 0 -453 119q-16 8 -16 30q4 35 37 35q12 0 18 -4 q193 -111 420 -110q231 0 412.5 163.5t205.5 395.5l37 350q25 231 -121.5 394t-378.5 163q-229 0 -410 -163t-206 -394.5t121 -395t377 -163.5z" glyph-name="gcommaaccent" horiz-adv-x="1462" unicode="ģ"/><glyph d="M123 18l158 1500q2 14 13 24t25.5 10t23.5 -10t7 -24l-157 -1500q0 -14 -11.5 -24t-26 -10t-23.5 10t-9 24zM176 1687.5q2 14.5 13.5 24.5t25.5 10h246q14 0 23.5 -10t7 -24.5t-13.5 -24.5t-25 -10h-246q-14 0 -23.5 10t-7.5 24.5z" glyph-name="Imacron" unicode="Ī"/><glyph d="M123 18l121 1149q2 14 13 24.5t25.5 10.5t23.5 -10t7 -25l-120 -1149q0 -14 -11.5 -24t-26 -10t-23.5 10t-9 24zM158 1501q0 14 11 24.5t26 10.5h245q14 0 23.5 -10t9.5 -25q-2 -14 -13 -24.5t-26 -10.5h-246q-14 0 -23 10.5t-7 24.5z" glyph-name="imacron" unicode="ī"/><glyph d="M197 -315q16 0 41 6q33 10 36 -25q8 -33 -24 -43q-27 -8 -60 -8q-92 0 -151 66.5t-49 160.5q16 127 135 178l156 1498q2 14 13 24t25.5 10t23.5 -10t7 -24l-157 -1500q0 -20 -25 -32q-43 -18 -72.5 -57.5t-36.5 -86.5q-6 -66 34.5 -111.5t103.5 -45.5z" glyph-name="Iogonek" unicode="Į"/><glyph d="M197 -315q16 0 41 6q33 10 36 -25q8 -33 -24 -43q-27 -8 -60 -8q-92 0 -151 66.5t-49 160.5q16 127 135 178l119 1147q2 14 13 24.5t25.5 10.5t23.5 -10t7 -25l-120 -1149q0 -20 -25 -32q-43 -18 -72.5 -57.5t-36.5 -86.5q-6 -66 34.5 -111.5t103.5 -45.5zM268 1521.5 q2 20.5 17.5 35t36 14.5t34 -14.5t11.5 -34.5q-4 -20 -19.5 -34.5t-36 -14.5t-33 14t-10.5 34.5z" glyph-name="iogonek" unicode="į"/><glyph d="M123 18l121 1149q2 14 13 24.5t25.5 10.5t23.5 -10t7 -25l-120 -1149q0 -14 -11.5 -24t-26 -10t-23.5 10t-9 24z" glyph-name="dotlessi" unicode="ı"/><glyph d="M369 768q4 23 20 37l899 739q8 8 22.5 8t23.5 -10t7 -24q0 -12 -12 -25l-880 -725l729 -725q8 -12 6 -25q0 -14 -11.5 -24t-25.5 -10t-23 8l-743 739q-14 19 -12 37zM123 18l158 1500q2 14 13 24t25.5 10t23.5 -10t7 -24l-157 -1500q0 -14 -11.5 -24t-26 -10t-23.5 10 t-9 24zM514 -272q0 8 7 15t16 7q14 0 25 10.5t11 22.5l11 82h-9q-20 0 -34.5 14.5t-12.5 36.5q4 20 20.5 34.5t37 14.5t34 -14t9.5 -35l-15 -133q-4 -31 -27.5 -53.5t-56.5 -22.5q-20 1 -16 21z" glyph-name="Kcommaaccent" horiz-adv-x="1220" unicode="Ķ"/><glyph d="M350 594q4 25 23 41l743 561q12 8 23 8q14 0 23 -10t9 -25q-2 -14 -22 -30l-717 -545l602 -545q16 -14 15 -31q0 -14 -11.5 -24t-25.5 -10q-10 0 -23 8l-624 561q-19 14 -15 41zM123 18l158 1500q2 14 13 24t25.5 10t23.5 -10t7 -24l-157 -1500q0 -14 -11.5 -24t-26 -10 t-23.5 10t-9 24zM473 -272q0 8 7 15t16 7q14 0 25 10.5t11 22.5l11 82h-8q-20 0 -35 14.5t-13 36.5q4 20 20.5 34.5t37 14.5t34 -14t9.5 -35l-15 -133q-4 -31 -27.5 -53.5t-56.5 -22.5q-20 1 -16 21z" glyph-name="kcommaaccent" horiz-adv-x="1085" unicode="ķ"/><glyph d="M172 0q-20 0 -33.5 14.5t-11.5 34.5l154 1469q2 14 13 24t25.5 10t23.5 -10t7 -24l-151 -1448h942q14 0 23.5 -10.5t6.5 -24.5q-4 -35 -36 -35h-963zM1040 1735q-4 -29 -34 -39l-312 -86q-8 -2 -12 -2q-23 0 -23 24q2 16 25 25l293 112q18 6 27 7q16 0 27 -12.5t9 -28.5z " glyph-name="Lacute" horiz-adv-x="1200" unicode="Ĺ"/><glyph d="M123 18l158 1500q2 14 13 24t25.5 10t23.5 -10t7 -24l-157 -1500q0 -14 -11.5 -24t-26 -10t-23.5 10t-9 24zM520 1714q0 -29 -35 -39l-309 -86q-8 -2 -12 -2q-27 0 -23 25q2 16 23 24l295 113q14 6 26 6q16 0 26.5 -12.5t8.5 -28.5z" glyph-name="lacute" unicode="ĺ"/><glyph d="M172 0q-20 0 -33.5 14.5t-11.5 34.5l154 1469q2 14 13 24t25.5 10t23.5 -10t7 -24l-151 -1448h942q14 0 23.5 -10.5t6.5 -24.5q-4 -35 -36 -35h-963zM565 -272q0 8 7.5 15t15.5 7q14 0 25.5 10.5t11.5 22.5l10 82h-8q-20 0 -34.5 14.5t-12.5 36.5q4 20 20 34.5t36.5 14.5 t34 -14t9.5 -35l-14 -133q-4 -31 -28 -53.5t-56 -22.5q-21 1 -17 21z" glyph-name="Lcommaaccent" horiz-adv-x="1200" unicode="Ļ"/><glyph d="M123 18l158 1500q2 14 13 24t25.5 10t23.5 -10t7 -24l-157 -1500q0 -14 -11.5 -24t-26 -10t-23.5 10t-9 24zM78 -293q4 23 24 23q14 0 24.5 10t12.5 22l11 82h-9q-20 0 -34.5 14.5t-12.5 37.5q4 20 20.5 34.5t37 14.5t34 -14.5t9.5 -34.5l-15 -134q-4 -31 -27.5 -53 t-56.5 -22q-18 0 -18 20z" glyph-name="lcommaaccent" unicode="ļ"/><glyph d="M172 0q-20 0 -33.5 14.5t-11.5 34.5l154 1469q2 14 13 24t25.5 10t23.5 -10t7 -24l-151 -1448h942q14 0 23.5 -10.5t6.5 -24.5q-4 -35 -36 -35h-963zM1290 1552q16 0 27.5 -12t9.5 -29q0 -4 -8 -24l-143 -283q-8 -20 -27 -20q-25 0 -21 24q0 4 2 13l119 301q12 30 41 30z " glyph-name="Lcaron" horiz-adv-x="1200" unicode="Ľ"/><glyph d="M123 18l158 1500q2 14 13 24t25.5 10t23.5 -10t7 -24l-157 -1500q0 -14 -11.5 -24t-26 -10t-23.5 10t-9 24zM551 1552q16 0 27.5 -12t9.5 -29q0 -4 -8 -24l-144 -283q-8 -20 -26 -20q-25 0 -21 24q0 4 2 13l119 301q12 30 41 30z" glyph-name="lcaron" horiz-adv-x="458" unicode="ľ"/><glyph d="M293 602l-55 -532h942q14 0 23 -10.5t7 -24.5q-4 -35 -36 -35h-963q-20 0 -33.5 14.5t-11.5 34.5l57 539q4 33 39 41q14 4 23.5 -4.5t7.5 -22.5zM100 729q-4 35 31 43l629 129q14 2 24.5 -6t12.5 -21q4 -35 -31 -43l-627 -129q-35 -4 -39 27zM291 905q-14 -4 -24.5 4.5 t-8.5 22.5l61 586q2 14 13.5 24t26 10t23.5 -10t7 -24l-59 -572q-4 -33 -39 -41z" glyph-name="Lslash" horiz-adv-x="1241" unicode="Ł"/><glyph d="M276 932l62 584q2 14 13 25t26 11q12 0 22.5 -10t8.5 -24l-60 -572q-4 -33 -39 -41q-14 -4 -24.5 4.5t-8.5 22.5zM311 600l-61 -582q0 -14 -11.5 -25t-25.5 -9q-14 0 -23.5 10t-9.5 22l62 570q4 35 39 41q14 4 23 -4.5t7 -22.5zM102 725q-4 35 31 43l316 66q14 2 25 -6.5 t13 -20.5q4 -35 -30 -43l-318 -66q-12 -2 -23.5 6.5t-13.5 20.5z" glyph-name="lslash" horiz-adv-x="430" unicode="ł"/><glyph d="M1081 1735q-4 -29 -34 -39l-312 -86q-8 -2 -12 -2q-23 0 -23 24q2 16 25 25l293 112q18 6 26 7q16 0 27.5 -12.5t9.5 -28.5zM1466 1518l-155 -1498q-2 -14 -14.5 -25t-28.5 -11q-23 0 -29 16l-899 1417l-147 -1399q0 -14 -11.5 -24t-26 -10t-23.5 10t-9 24l158 1498 q2 14 14 25t29 11q23 0 28 -16l899 -1417l146 1399q2 14 13 24t25.5 10t23.5 -10t7 -24z" glyph-name="Nacute" horiz-adv-x="1431" unicode="Ń"/><glyph d="M424 1098q158 123 348 123q205 0 333 -143.5t105 -344.5l-75 -715q0 -14 -11.5 -24t-26 -10t-23.5 10t-9 24l76 715q18 174 -91.5 296t-283.5 122q-168 0 -307 -111q-31 -16 -49 9q-15 29 14 49zM313 1167l-120 -1149q0 -14 -11.5 -24t-26 -10t-23.5 10t-9 24l121 1149 q2 14 13 24.5t25.5 10.5t23.5 -10.5t7 -24.5zM991 1530q-4 -29 -35 -39l-309 -86q-10 -2 -14 -2q-25 0 -21 24q0 14 23 25l295 113q14 6 24 6q16 0 27.5 -12.5t9.5 -28.5z" glyph-name="nacute" horiz-adv-x="1257" unicode="ń"/><glyph d="M641 -272q0 8 7 15t16 7q14 0 25 10.5t11 22.5l11 82h-9q-20 0 -34.5 14.5t-12.5 36.5q4 20 20.5 34.5t37 14.5t34 -14t9.5 -35l-15 -133q-4 -31 -27.5 -53.5t-56.5 -22.5q-20 1 -16 21zM1466 1518l-155 -1498q-2 -14 -14.5 -25t-28.5 -11q-23 0 -29 16l-899 1417 l-147 -1399q0 -14 -11.5 -24t-26 -10t-23.5 10t-9 24l158 1498q2 14 14 25t29 11q23 0 28 -16l899 -1417l146 1399q2 14 13 24t25.5 10t23.5 -10t7 -24z" glyph-name="Ncommaaccent" horiz-adv-x="1431" unicode="Ņ"/><glyph d="M553 -272q0 8 7 15t15 7q14 0 25.5 10.5t11.5 22.5l11 82h-9q-20 0 -34.5 14.5t-12.5 36.5q4 20 20.5 34.5t37 14.5t34 -14t9.5 -35l-15 -133q-4 -31 -27.5 -53.5t-56.5 -22.5q-20 1 -16 21zM424 1098q158 123 348 123q205 0 333 -143.5t105 -344.5l-75 -715 q0 -14 -11.5 -24t-26 -10t-23.5 10t-9 24l76 715q18 174 -91.5 296t-283.5 122q-168 0 -307 -111q-31 -16 -49 9q-15 29 14 49zM313 1167l-120 -1149q0 -14 -11.5 -24t-26 -10t-23.5 10t-9 24l121 1149q2 14 13 24.5t25.5 10.5t23.5 -10.5t7 -24.5z" glyph-name="ncommaaccent" horiz-adv-x="1257" unicode="ņ"/><glyph d="M1087 1817q-2 -6 -12 -21l-162 -176q-12 -12 -28 -12q-18 0 -25 12l-125 176q-10 14 -8 21q0 10 9 18t20 8q14 0 20 -12l115 -156l147 156q12 12 25 12q24 1 24 -26zM1466 1518l-155 -1498q-2 -14 -14.5 -25t-28.5 -11q-23 0 -29 16l-899 1417l-147 -1399 q0 -14 -11.5 -24t-26 -10t-23.5 10t-9 24l158 1498q2 14 14 25t29 11q23 0 28 -16l899 -1417l146 1399q2 14 13 24t25.5 10t23.5 -10t7 -24z" glyph-name="Ncaron" horiz-adv-x="1431" unicode="Ň"/><glyph d="M424 1098q158 123 348 123q205 0 333 -143.5t105 -344.5l-75 -715q0 -14 -11.5 -24t-26 -10t-23.5 10t-9 24l76 715q18 174 -91.5 296t-283.5 122q-168 0 -307 -111q-31 -16 -49 9q-15 29 14 49zM313 1167l-120 -1149q0 -14 -11.5 -24t-26 -10t-23.5 10t-9 24l121 1149 q2 14 13 24.5t25.5 10.5t23.5 -10.5t7 -24.5zM993 1599q-2 -6 -12 -20l-164 -176q-10 -12 -26.5 -12t-26.5 12l-123 176q-10 14 -8 20q0 10 9 18.5t20 8.5q14 0 20 -12l115 -156l147 156q12 12 25 12q24 0 24 -27z" glyph-name="ncaron" horiz-adv-x="1257" unicode="ň"/><glyph d="M842 1687.5q2 14.5 13 24.5t26 10h346q14 0 23.5 -10t7 -24.5t-13.5 -24.5t-25 -10h-347q-14 0 -23 10t-7 24.5zM1685.5 768q32.5 303 -159 518t-494.5 215t-539.5 -215t-269.5 -518t158.5 -518t495 -215t540 215t269 518zM1757 768q-35 -332 -295 -567.5t-592 -235.5 q-334 0 -543.5 235.5t-175 567.5t294 567.5t592.5 235.5q332 0 543 -235.5t176 -567.5z" glyph-name="Omacron" horiz-adv-x="1748" unicode="Ō"/><glyph d="M662 1501q0 14 11 24.5t25 10.5h346q14 0 23.5 -10t9.5 -25q-2 -14 -13 -24.5t-26 -10.5h-346q-14 0 -23 10.5t-7 24.5zM1331.5 593.5q24.5 231.5 -122 394.5t-378.5 163q-229 0 -410 -163t-206 -394.5t120.5 -395t377 -163.5t413 163.5t206 395zM1403 594 q-27 -260 -230.5 -444.5t-465.5 -184.5q-260 0 -425 184.5t-138.5 444.5t230.5 443.5t464 183.5q262 0 427 -183.5t138 -443.5z" glyph-name="omacron" horiz-adv-x="1423" unicode="ō"/><glyph d="M944 1622q-37 16 -18 57l71 136q20 39 60 26q37 -18 18 -57l-71 -135q-21 -41 -60 -27zM1102 1622q-37 16 -19 57l72 136q20 39 59 26q37 -18 19 -57l-72 -135q-20 -41 -59 -27zM1685.5 768q32.5 303 -159 518t-494.5 215t-539.5 -215t-269.5 -518t158.5 -518t495 -215 t540 215t269 518zM1757 768q-35 -332 -295 -567.5t-592 -235.5q-334 0 -543.5 235.5t-175 567.5t294 567.5t592.5 235.5q332 0 543 -235.5t176 -567.5z" glyph-name="Ohungarumlaut" horiz-adv-x="1748" unicode="Ő"/><glyph d="M758 1331q-37 16 -19 58l72 135q20 39 59 26q37 -16 19 -57l-72 -135q-20 -41 -59 -27zM915 1331q-37 16 -18 58l72 135q20 39 59 26q37 -16 19 -57l-72 -135q-21 -41 -60 -27zM1331.5 593.5q24.5 231.5 -122 394.5t-378.5 163q-229 0 -410 -163t-206 -394.5t120.5 -395 t377 -163.5t413 163.5t206 395zM1403 594q-27 -260 -230.5 -444.5t-465.5 -184.5q-260 0 -425 184.5t-138.5 444.5t230.5 443.5t464 183.5q262 0 427 -183.5t138 -443.5z" glyph-name="ohungarumlaut" horiz-adv-x="1423" unicode="ő"/><glyph d="M877 35q324 0 573 246q10 10 25.5 12t23.5 -8.5t8 -24.5t-8 -24q-274 -270 -629 -271q-334 0 -543.5 235.5t-175 567.5t294 567.5t592.5 235.5q227 0 405.5 -118t260.5 -312l37 346q2 20 17.5 34.5t35.5 14.5h1034q14 0 23.5 -10t9.5 -25q-2 -14 -13.5 -24.5t-25.5 -10.5 h-1014l-55 -526q-2 -14 -13 -24.5t-26 -10.5q-25 0 -33 27q-29 246 -211 407.5t-438 161.5q-303 0 -539.5 -215t-269.5 -518t159 -518t495 -215zM1663 754q4 20 19.5 34.5t35.5 14.5h893q14 0 23.5 -10.5t7.5 -24.5t-13.5 -24.5t-25.5 -10.5h-872l-70 -663h1014 q14 0 23 -10.5t7 -24.5q-4 -35 -36 -35h-1035q-20 0 -33.5 14.5t-11.5 34.5z" glyph-name="OE" horiz-adv-x="2775" unicode="Œ"/><glyph d="M1208 287q8 12 24.5 14t27.5 -8q10 -8 9 -24.5t-12 -26.5q-102 -129 -247.5 -203t-302.5 -74q-260 0 -425 184.5t-138.5 444.5t230.5 443.5t464 183.5q203 0 353 -117t198 -301q84 184 258 301t376 117q252 0 416 -177.5t148 -429.5q-2 -25 -18.5 -40t-37.5 -15h-995 q-14 0 -23.5 10.5t-7.5 24.5t13.5 24.5t25.5 10.5h975q10 219 -135.5 370.5t-366.5 151.5q-229 0 -409.5 -163t-205 -394.5t121 -395t374.5 -163.5q145 0 277.5 70.5t220.5 189.5q10 25 37 24q14 0 23.5 -10t7.5 -24q0 -8 -13 -25q-100 -135 -247.5 -215t-311.5 -80 q-260 0 -423.5 184.5t-137.5 444.5q25 231 -121.5 394t-378.5 163q-229 0 -410 -163t-206 -394.5t120.5 -395t377.5 -163.5q143 0 275 67.5t220 184.5z" glyph-name="oe" horiz-adv-x="2605" unicode="œ"/><glyph d="M602 614q2 20 18.5 35t36.5 15h217q166 0 295 117.5t146 283.5q18 166 -86.5 283.5t-270.5 117.5h-612l-153 -1448q0 -14 -11.5 -24t-26 -10t-23.5 10t-9 24l156 1469q2 20 17 34.5t36 14.5h633q195 0 318.5 -137t103 -334t-173 -334t-347.5 -137h-174l375 -555 q18 -27 -10 -49q-31 -18 -49 6l-396 584q-12 18 -10 34zM1026 1735q-4 -29 -35 -39l-311 -86q-8 -2 -12 -2q-23 0 -23 24q2 16 25 25l293 112q18 6 26 7q16 0 27.5 -12.5t9.5 -28.5z" glyph-name="Racute" horiz-adv-x="1357" unicode="Ŕ"/><glyph d="M782 1530q-4 -29 -34 -39l-310 -86q-10 -2 -14 -2q-25 0 -21 24q0 14 23 25l295 113q14 6 24 6q16 0 27.5 -12.5t9.5 -28.5zM217 575q-14 0 -23.5 10.5t-7.5 24.5l58 557q2 14 13 24.5t25.5 10.5t23.5 -10t7 -25l-28 -286q78 156 213 248t299 92q31 0 61 -7q31 -8 21 -40 q-10 -31 -45 -27q-33 4 -43 4q-209 0 -357.5 -155.5t-177.5 -385.5q-2 -14 -13.5 -24.5t-25.5 -10.5zM238 438l-45 -420q0 -14 -11.5 -24t-26 -10t-23.5 10t-9 24l45 420q2 14 13.5 24.5t25.5 10.5t23.5 -10.5t7.5 -24.5z" glyph-name="racute" horiz-adv-x="776" unicode="ŕ"/><glyph d="M602 614q2 20 18.5 35t36.5 15h217q166 0 295 117.5t146 283.5q18 166 -86.5 283.5t-270.5 117.5h-612l-153 -1448q0 -14 -11.5 -24t-26 -10t-23.5 10t-9 24l156 1469q2 20 17 34.5t36 14.5h633q195 0 318.5 -137t103 -334t-173 -334t-347.5 -137h-174l375 -555 q18 -27 -10 -49q-31 -18 -49 6l-396 584q-12 18 -10 34zM502 -272q0 8 7 15t15 7q14 0 25.5 10.5t11.5 22.5l10 82h-8q-20 0 -34.5 14.5t-12.5 36.5q4 20 20.5 34.5t37 14.5t34 -14t8.5 -35l-14 -133q-4 -31 -27.5 -53.5t-56.5 -22.5q-20 1 -16 21z" glyph-name="Rcommaaccent" horiz-adv-x="1357" unicode="Ŗ"/><glyph d="M389 -272q0 8 7 15t16 7q14 0 25.5 10.5t11.5 22.5l10 82h-8q-20 0 -35 14.5t-13 36.5q4 20 20.5 34.5t37 14.5t34 -14t9.5 -35l-15 -133q-4 -31 -27.5 -53.5t-55.5 -22.5q-21 1 -17 21zM217 575q-14 0 -23.5 10.5t-7.5 24.5l58 557q2 14 13 24.5t25.5 10.5t23.5 -10 t7 -25l-28 -286q78 156 213 248t299 92q31 0 61 -7q31 -8 21 -40q-10 -31 -45 -27q-33 4 -43 4q-209 0 -357.5 -155.5t-177.5 -385.5q-2 -14 -13.5 -24.5t-25.5 -10.5zM238 438l-45 -420q0 -14 -11.5 -24t-26 -10t-23.5 10t-9 24l45 420q2 14 13.5 24.5t25.5 10.5 t23.5 -10.5t7.5 -24.5z" glyph-name="rcommaaccent" horiz-adv-x="776" unicode="ŗ"/><glyph d="M602 614q2 20 18.5 35t36.5 15h217q166 0 295 117.5t146 283.5q18 166 -86.5 283.5t-270.5 117.5h-612l-153 -1448q0 -14 -11.5 -24t-26 -10t-23.5 10t-9 24l156 1469q2 20 17 34.5t36 14.5h633q195 0 318.5 -137t103 -334t-173 -334t-347.5 -137h-174l375 -555 q18 -27 -10 -49q-31 -18 -49 6l-396 584q-12 18 -10 34zM1024 1817q-2 -6 -12 -21l-162 -176q-12 -12 -29 -12q-18 0 -24 12l-125 176q-10 14 -8 21q0 10 9 18t19 8q14 0 21 -12l114 -156l148 156q12 12 24 12q25 1 25 -26z" glyph-name="Rcaron" horiz-adv-x="1357" unicode="Ř"/><glyph d="M784 1599q-2 -6 -12 -20l-164 -176q-10 -12 -26.5 -12t-26.5 12l-123 176q-10 14 -8 20q0 10 9 18.5t20 8.5q14 0 20 -12l115 -156l147 156q12 12 25 12q24 0 24 -27zM217 575q-14 0 -23.5 10.5t-7.5 24.5l58 557q2 14 13 24.5t25.5 10.5t23.5 -10t7 -25l-28 -286 q78 156 213 248t299 92q31 0 61 -7q31 -8 21 -40q-10 -31 -45 -27q-33 4 -43 4q-209 0 -357.5 -155.5t-177.5 -385.5q-2 -14 -13.5 -24.5t-25.5 -10.5zM238 438l-45 -420q0 -14 -11.5 -24t-26 -10t-23.5 10t-9 24l45 420q2 14 13.5 24.5t25.5 10.5t23.5 -10.5t7.5 -24.5z " glyph-name="rcaron" horiz-adv-x="776" unicode="ř"/><glyph d="M975 1778q-4 -29 -35 -39l-311 -86q-8 -2 -13 -2q-23 0 -22 24q2 16 24 25l295 112q16 6 25 7q16 0 27.5 -12.5t9.5 -28.5zM1180 1384q-168 117 -418 117q-178 0 -307 -89t-144 -234q-10 -96 35 -160t125 -95.5t177 -55t194.5 -53.5t175.5 -74t121 -133t28 -218 q-20 -186 -183 -305t-384 -119q-287 0 -487 148q-18 18 -17 32q4 35 37 35q12 0 25 -12q176 -133 448 -133q193 0 333 97t157 257q12 113 -32 190.5t-123 115.5t-176 64.5t-194.5 53.5t-176.5 64.5t-123 113.5t-31 187q18 174 169.5 283.5t358.5 109.5q264 0 451 -129 q25 -14 22 -33q-2 -14 -13 -24.5t-26 -10.5q-8 0 -22 10z" glyph-name="Sacute" horiz-adv-x="1210" unicode="Ś"/><glyph d="M889 1530q-4 -29 -35 -39l-309 -86q-10 -2 -15 -2q-25 0 -20 24q0 14 22 25l295 113q14 6 25 6q16 0 27.5 -12.5t9.5 -28.5zM1016 1069q-160 82 -350 82q-162 0 -263.5 -60.5t-111.5 -170.5q-10 -88 29.5 -141.5t108.5 -75t155 -33t171 -27.5t153.5 -48t105.5 -104.5 t24 -187.5q-16 -158 -151 -248t-350 -90q-250 0 -431 107q-10 6 -13 20t5 27q6 12 21.5 16t25.5 -2q168 -98 398 -98q180 0 294.5 70.5t129.5 201.5q10 96 -28 156.5t-107.5 85t-154.5 37t-170 27t-154.5 43t-106.5 95t-27 171.5q14 141 137 220t316 79q211 0 385 -91 q10 -6 13 -20t-5 -27q-18 -28 -49 -14z" glyph-name="sacute" horiz-adv-x="1089" unicode="ś"/><glyph d="M977 1827q0 -8 -12 -21l-162 -176q-8 -12 -26.5 -12t-26.5 12l-125 176q-8 16 -9 21q4 27 31 26q12 0 21 -12l114 -155l148 155q10 12 24 12q27 1 23 -26zM1180 1384q-168 117 -418 117q-178 0 -307 -89t-144 -234q-10 -96 35 -160t125 -95.5t177 -55t194.5 -53.5 t175.5 -74t121 -133t28 -218q-20 -186 -183 -305t-384 -119q-287 0 -487 148q-18 18 -17 32q4 35 37 35q12 0 25 -12q176 -133 448 -133q193 0 333 97t157 257q12 113 -32 190.5t-123 115.5t-176 64.5t-194.5 53.5t-176.5 64.5t-123 113.5t-31 187q18 174 169.5 283.5 t358.5 109.5q264 0 451 -129q25 -14 22 -33q-2 -14 -13 -24.5t-26 -10.5q-8 0 -22 10z" glyph-name="Scaron" horiz-adv-x="1210" unicode="Š"/><glyph d="M893 1599q-2 -6 -12 -20l-164 -176q-8 -12 -26.5 -12t-26.5 12l-123 176q-10 14 -9 20q0 10 9.5 18.5t19.5 8.5q14 0 21 -12l114 -156l148 156q12 12 24 12q25 0 25 -27zM1016 1069q-160 82 -350 82q-162 0 -263.5 -60.5t-111.5 -170.5q-10 -88 29.5 -141.5t108.5 -75 t155 -33t171 -27.5t153.5 -48t105.5 -104.5t24 -187.5q-16 -158 -151 -248t-350 -90q-250 0 -431 107q-10 6 -13 20t5 27q6 12 21.5 16t25.5 -2q168 -98 398 -98q180 0 294.5 70.5t129.5 201.5q10 96 -28 156.5t-107.5 85t-154.5 37t-170 27t-154.5 43t-106.5 95t-27 171.5 q14 141 137 220t316 79q211 0 385 -91q10 -6 13 -20t-5 -27q-18 -28 -49 -14z" glyph-name="scaron" horiz-adv-x="1089" unicode="š"/><glyph d="M985 1817q-2 -6 -12 -21l-162 -176q-12 -12 -29 -12q-18 0 -24 12l-125 176q-10 14 -8 21q0 10 9 18t19 8q14 0 21 -12l114 -156l148 156q12 12 25 12q24 1 24 -26zM788 1536h543q14 0 23.5 -10t9.5 -25q-2 -14 -13.5 -24.5t-25.5 -10.5h-522l-154 -1448q0 -14 -11 -24 t-25.5 -10t-23.5 10t-9 24l155 1469q2 20 17.5 34.5t35.5 14.5zM596 1466h-387q-14 0 -23.5 10.5t-7.5 24.5q0 14 11.5 24.5t25.5 10.5h387q14 0 23.5 -10t9.5 -25q-2 -14 -13.5 -24.5t-25.5 -10.5z" glyph-name="Tcaron" horiz-adv-x="1226" unicode="Ť"/><glyph d="M352 979l-73 -700q-10 -88 44 -148.5t142 -60.5h88q14 0 23.5 -10.5t7.5 -24.5q-4 -35 -37 -35h-88q-115 0 -188.5 81t-61.5 195l74 703q2 14 13 24.5t25.5 10.5t23.5 -10.5t7 -24.5zM145 1151q4 35 37 35h121l27 250q2 14 13 24t25.5 10t23.5 -10t7 -24l-26 -250h297 q14 0 24.5 -10.5t8 -24.5t-13.5 -24.5t-25 -10.5h-488q-14 0 -23.5 10.5t-7.5 24.5zM897 1552q16 0 27.5 -12t9.5 -29q0 -4 -8 -24l-144 -283q-8 -20 -26 -20q-25 0 -21 24q0 4 2 13l119 301q12 30 41 30z" glyph-name="tcaron" horiz-adv-x="796" unicode="ť"/><glyph d="M684 1687.5q2 14.5 13.5 24.5t25.5 10h346q14 0 23.5 -10t7.5 -24.5t-13.5 -24.5t-25.5 -10h-346q-14 0 -23.5 10t-7.5 24.5zM350 1518l-100 -959q-23 -217 114.5 -370.5t354.5 -153.5t386 153.5t191 370.5l101 959q2 14 13 24t25.5 10t23.5 -10t7 -24l-100 -959 q-27 -246 -218.5 -420t-434.5 -174q-246 0 -402.5 174t-130.5 420l101 959q2 14 13 24t25.5 10t23.5 -10t7 -24z" glyph-name="Umacron" horiz-adv-x="1431" unicode="Ū"/><glyph d="M578 1501q0 14 11 24.5t25 10.5h347q14 0 23 -10t9 -25q-2 -14 -13 -24.5t-26 -10.5h-346q-14 0 -23 10.5t-7 24.5zM956 88q-158 -123 -348 -123q-205 0 -333 143.5t-105 344.5l74 714q2 14 13 24.5t25.5 10.5t23.5 -10t7 -25l-73 -714q-18 -174 91 -296t283 -122 q164 0 308 110q31 18 49 -8q14 -29 -15 -49zM1065 18l121 1149q2 14 13 24.5t25.5 10.5t23.5 -10t7 -25l-120 -1149q0 -14 -11.5 -24t-26 -10t-23.5 10t-9 24z" glyph-name="umacron" horiz-adv-x="1257" unicode="ū"/><glyph d="M995 1743q4 39 -20.5 66.5t-63.5 27.5t-70.5 -27.5t-35.5 -66.5t20.5 -67.5t65.5 -28.5q39 0 69.5 28.5t34.5 67.5zM1051 1743q-6 -63 -55.5 -108.5t-110.5 -45.5q-63 0 -103.5 45t-33.5 109q6 61 56 105t114 44q61 0 100 -44t33 -105zM350 1518l-100 -959 q-23 -217 114.5 -370.5t354.5 -153.5t386 153.5t191 370.5l101 959q2 14 13 24t25.5 10t23.5 -10t7 -24l-100 -959q-27 -246 -218.5 -420t-434.5 -174q-246 0 -402.5 174t-130.5 420l101 959q2 14 13 24t25.5 10t23.5 -10t7 -24z" glyph-name="Uring" horiz-adv-x="1431" unicode="Ů"/><glyph d="M879 1489q4 39 -19.5 66.5t-62.5 27.5q-41 0 -72 -27.5t-35 -66.5q-4 -41 20.5 -68.5t65.5 -27.5q39 0 69 27.5t34 68.5zM936 1489q-6 -63 -56.5 -108.5t-109.5 -45.5q-63 0 -103 45t-34 109q6 61 56 105t114 44q59 0 99 -44t34 -105zM956 88q-158 -123 -348 -123 q-205 0 -333 143.5t-105 344.5l74 714q2 14 13 24.5t25.5 10.5t23.5 -10t7 -25l-73 -714q-18 -174 91 -296t283 -122q164 0 308 110q31 18 49 -8q14 -29 -15 -49zM1065 18l121 1149q2 14 13 24.5t25.5 10.5t23.5 -10t7 -25l-120 -1149q0 -14 -11.5 -24t-26 -10t-23.5 10 t-9 24z" glyph-name="uring" horiz-adv-x="1257" unicode="ů"/><glyph d="M350 1518l-100 -959q-23 -217 114.5 -370.5t354.5 -153.5t386 153.5t191 370.5l101 959q2 14 13 24t25.5 10t23.5 -10t7 -24l-100 -959q-27 -246 -218.5 -420t-434.5 -174q-246 0 -402.5 174t-130.5 420l101 959q2 14 13 24t25.5 10t23.5 -10t7 -24zM780 1622 q-37 16 -18 57l72 136q20 39 59 26q37 -18 18 -57l-71 -135q-21 -41 -60 -27zM938 1622q-37 16 -18 57l71 136q20 39 60 26q37 -18 18 -57l-72 -135q-20 -41 -59 -27z" glyph-name="Uhungarumlaut" horiz-adv-x="1431" unicode="Ű"/><glyph d="M666 1331q-37 16 -19 58l72 135q20 39 59 26q37 -16 19 -57l-72 -135q-20 -41 -59 -27zM823 1331q-37 16 -18 58l72 135q20 39 59 26q37 -16 18 -57l-71 -135q-21 -41 -60 -27zM956 88q-158 -123 -348 -123q-205 0 -333 143.5t-105 344.5l74 714q2 14 13 24.5t25.5 10.5 t23.5 -10t7 -25l-73 -714q-18 -174 91 -296t283 -122q164 0 308 110q31 18 49 -8q14 -29 -15 -49zM1065 18l121 1149q2 14 13 24.5t25.5 10.5t23.5 -10t7 -25l-120 -1149q0 -14 -11.5 -24t-26 -10t-23.5 10t-9 24z" glyph-name="uhungarumlaut" horiz-adv-x="1257" unicode="ű"/><glyph d="M350 1518l-100 -959q-23 -217 114.5 -370.5t354.5 -153.5t386 153.5t191 370.5l101 959q2 14 13 24t25.5 10t23.5 -10t7 -24l-100 -959q-20 -184 -138 -333.5t-290 -217.5q-47 -16 -82 -60t-41 -98q-8 -68 32 -116.5t103 -48.5q39 0 76 20q8 4 18 4q14 0 23.5 -10 t7.5 -25q-4 -20 -22 -30q-47 -29 -109 -29q-92 0 -151.5 70.5t-49.5 164.5q6 70 54 121q-43 -6 -84 -6q-246 0 -402.5 174t-130.5 420l101 959q2 14 13 24t25.5 10t23.5 -10t7 -24z" glyph-name="Uogonek" horiz-adv-x="1431" unicode="Ų"/><glyph d="M1065 -315q39 0 76 20q8 4 18 4q14 0 23.5 -10t7.5 -25q-4 -20 -23 -30q-47 -29 -108 -29q-92 0 -151.5 63.5t-51.5 155.5q8 80 69.5 132t141.5 61l119 1140q2 14 13 24.5t25.5 10.5t23.5 -10t7 -25l-120 -1149q0 -14 -11.5 -24t-25.5 -10q-63 0 -113.5 -44t-56.5 -106 q-6 -63 32.5 -106t104.5 -43zM956 88q-158 -123 -348 -123q-205 0 -333 143.5t-105 344.5l74 714q2 14 13 24.5t25.5 10.5t23.5 -10t7 -25l-73 -714q-18 -174 91 -296t283 -122q164 0 308 110q31 18 49 -8q14 -29 -15 -49z" glyph-name="uogonek" horiz-adv-x="1257" unicode="ų"/><glyph d="M661.5 1712.5q-2.5 -20.5 -17.5 -35t-35.5 -14.5t-34 14.5t-11.5 35t18.5 34.5t37 14t33 -14t10 -34.5zM1065 1712q-2 -20 -16.5 -34.5t-35 -14.5t-33.5 14.5t-11 35t18.5 34.5t36.5 14q47 0 41 -49zM602 18l78 723q0 16 14 35l643 758q14 18 33 18q14 0 23.5 -10 t7.5 -24q0 -12 -8 -21l-645 -762l-76 -717q0 -14 -11.5 -24t-25.5 -10t-23.5 10t-9.5 24zM618 852q-18 0 -28 18l-397 627q-4 12 -5 21q2 14 13.5 24t25.5 10q20 0 29 -18l397 -627q4 -6 4 -20q-2 -14 -13.5 -24.5t-25.5 -10.5z" glyph-name="Ydieresis" horiz-adv-x="1273" unicode="Ÿ"/><glyph d="M1018 1735q-4 -29 -35 -39l-311 -86q-8 -2 -13 -2q-23 0 -22 24q2 16 25 25l292 112q18 6 27 7q16 0 27.5 -12.5t9.5 -28.5zM1264 35q-4 -35 -37 -35h-1149q-16 0 -26.5 11.5t-8.5 25.5q4 14 12 22l1256 1407h-1082q-14 0 -23 10.5t-7 24.5q0 14 11 24.5t26 10.5h1148 q14 0 24.5 -10t8.5 -27q0 -12 -10 -22l-1255 -1407h1081q14 0 23.5 -10.5t7.5 -24.5z" glyph-name="Zacute" horiz-adv-x="1302" unicode="Ź"/><glyph d="M856 1530q-4 -29 -35 -39l-309 -86q-10 -2 -14 -2q-25 0 -21 24q0 14 23 25l295 113q16 6 24 6q16 0 27.5 -12.5t9.5 -28.5zM987 35q-4 -35 -37 -35h-860q-20 0 -33.5 14.5t-11.5 34.5q4 23 18 35l947 1032h-817q-14 0 -23.5 10.5t-7.5 24.5q4 35 37 35h860 q20 0 33.5 -14.5t11.5 -34.5q-2 -18 -19 -35l-946 -1032h817q14 0 23.5 -10.5t7.5 -24.5z" glyph-name="zacute" horiz-adv-x="1026" unicode="ź"/><glyph d="M918 1683q-4 -37 -34 -63.5t-65 -26.5q-37 0 -60.5 27t-19.5 63q4 35 33 62t66 27q35 0 59.5 -27t20.5 -62zM1264 35q-4 -35 -37 -35h-1149q-16 0 -26.5 11.5t-8.5 25.5q4 14 12 22l1256 1407h-1082q-14 0 -23 10.5t-7 24.5q0 14 11 24.5t26 10.5h1148q14 0 24.5 -10 t8.5 -27q0 -12 -10 -22l-1255 -1407h1081q14 0 23.5 -10.5t7.5 -24.5z" glyph-name="Zdotaccent" horiz-adv-x="1302" unicode="Ż"/><glyph d="M756 1477q-2 -37 -32 -64t-65 -27q-37 0 -61.5 27t-19.5 64q4 35 33.5 61.5t66.5 26.5q35 0 58.5 -26.5t19.5 -61.5zM987 35q-4 -35 -37 -35h-860q-20 0 -33.5 14.5t-11.5 34.5q4 23 18 35l947 1032h-817q-14 0 -23.5 10.5t-7.5 24.5q4 35 37 35h860q20 0 33.5 -14.5 t11.5 -34.5q-2 -18 -19 -35l-946 -1032h817q14 0 23.5 -10.5t7.5 -24.5z" glyph-name="zdotaccent" horiz-adv-x="1026" unicode="ż"/><glyph d="M1022 1817q-2 -6 -12 -21l-162 -176q-12 -12 -29 -12q-18 0 -24 12l-125 176q-10 14 -8 21q0 10 9 18t19 8q14 0 21 -12l114 -156l148 156q12 12 24 12q25 1 25 -26zM1264 35q-4 -35 -37 -35h-1149q-16 0 -26.5 11.5t-8.5 25.5q4 14 12 22l1256 1407h-1082 q-14 0 -23 10.5t-7 24.5q0 14 11 24.5t26 10.5h1148q14 0 24.5 -10t8.5 -27q0 -12 -10 -22l-1255 -1407h1081q14 0 23.5 -10.5t7.5 -24.5z" glyph-name="Zcaron" horiz-adv-x="1302" unicode="Ž"/><glyph d="M860 1599q-2 -6 -12 -20l-164 -176q-8 -12 -26.5 -12t-26.5 12l-123 176q-10 14 -8 20q0 10 9 18.5t19 8.5q14 0 21 -12l115 -156l147 156q12 12 25 12q24 0 24 -27zM987 35q-4 -35 -37 -35h-860q-20 0 -33.5 14.5t-11.5 34.5q4 23 18 35l947 1032h-817q-14 0 -23.5 10.5 t-7.5 24.5q4 35 37 35h860q20 0 33.5 -14.5t11.5 -34.5q-2 -18 -19 -35l-946 -1032h817q14 0 23.5 -10.5t7.5 -24.5z" glyph-name="zcaron" horiz-adv-x="1026" unicode="ž"/><glyph d="M625 979l-256 -1049q-29 -117 -130.5 -198.5t-218.5 -81.5q-14 0 -22 10t-4 25q8 35 43 34q86 2 162.5 63.5t97.5 147.5l258 1049q8 35 43 35q14 0 22.5 -10.5t4.5 -24.5zM338 1151q8 35 41 35h227l19 69q29 117 129 199t217 82q14 0 22 -10t6 -24.5t-16 -25t-29 -10.5 q-86 0 -162.5 -61.5t-99.5 -149.5l-16 -69h227q14 0 22.5 -10.5t6.5 -24.5t-16.5 -24.5t-28.5 -10.5h-525q-14 0 -21 10.5t-3 24.5z" glyph-name="florin" horiz-adv-x="868" unicode="ƒ"/><glyph d="M713 1417q-4 -27 -29 -26q-12 0 -22 12l-115 156l-148 -156q-10 -12 -22 -12q-10 0 -18.5 8t-6.5 18q2 6 13 21l161 176q12 12 29 12q18 0 25 -12l125 -176q10 -13 8 -21z" glyph-name="circumflex" horiz-adv-x="770" unicode="ˆ"/><glyph d="M733 1599q-2 -6 -12 -20l-164 -176q-8 -12 -26.5 -12t-26.5 12l-123 176q-10 14 -8 20q0 10 9 18.5t19 8.5q14 0 21 -12l115 -156l147 156q12 12 25 12q24 0 24 -27z" glyph-name="caron" horiz-adv-x="770" unicode="ˇ"/><glyph d="M459 1454q88 0 133 82q16 33 41 33q16 0 25.5 -14.5t3.5 -32.5q-25 -61 -84.5 -98.5t-125 -37.5t-117.5 38t-63 98q-4 18 8.5 32.5t28.5 14.5q25 0 33 -33q31 -82 117 -82z" glyph-name="breve" horiz-adv-x="614" unicode="˘"/><glyph d="M455 1477q-2 -37 -32 -64t-65 -27q-37 0 -61.5 27t-20.5 64q4 35 34 61.5t67 26.5q35 0 58.5 -26.5t19.5 -61.5z" glyph-name="dotaccent" horiz-adv-x="423" unicode="˙"/><glyph d="M606 1489q4 39 -19.5 66.5t-62.5 27.5q-41 0 -71.5 -27.5t-34.5 -66.5q-4 -41 20.5 -68.5t65.5 -27.5q39 0 68.5 27.5t33.5 68.5zM664 1489q-6 -63 -56.5 -108.5t-109.5 -45.5q-63 0 -103.5 45t-34.5 109q6 61 56.5 105t113.5 44q59 0 99.5 -44t34.5 -105z" glyph-name="ring" horiz-adv-x="712" unicode="˚"/><glyph d="M313 -315q39 0 76 20q8 4 19 4q14 0 23 -10t7 -25q-4 -20 -22 -30q-47 -29 -109 -29q-92 0 -151.5 66.5t-51.5 160.5q10 86 82 144.5t156 58.5h10l-4 -45h-6q-59 -2 -108.5 -48t-57.5 -110q-6 -66 34 -111.5t103 -45.5z" glyph-name="ogonek" horiz-adv-x="595" unicode="˛"/><glyph d="M821 1524q-6 -55 -49 -94t-96 -39q-86 0 -113 73q-18 49 -69 49q-31 0 -57.5 -22.5t-28.5 -52.5q0 -10 -9.5 -18.5t-19.5 -8.5q-25 0 -25 27q6 55 50.5 94t95.5 39q82 0 112 -74q25 -51 70 -51q33 0 57.5 21.5t28.5 56.5q0 10 9 18t20 8q24 1 24 -26z" glyph-name="tilde" horiz-adv-x="866" unicode="˜"/><glyph d="M279 1331q-37 16 -19 58l72 135q20 39 59 26q37 -16 19 -57l-72 -135q-20 -41 -59 -27zM436 1331q-37 16 -18 58l71 135q20 39 60 26q37 -16 18 -57l-71 -135q-21 -41 -60 -27z" glyph-name="hungarumlaut" horiz-adv-x="526" unicode="˝"/><glyph d="M901 176l98 940h-454l-117 -1116h-70l117 1116h-297l6 70h1186l-6 -70h-295l-98 -940q-8 -66 34 -103.5t111 -37.5q33 0 64 12l-9 -74q-41 -8 -61 -8q-98 0 -158.5 58.5t-50.5 152.5z" glyph-name="pi" horiz-adv-x="1308" unicode="π"/><glyph d="M137 594q2 14 13.5 24.5t25.5 10.5h975q14 0 23.5 -10.5t7.5 -24.5t-13.5 -24.5t-25.5 -10.5h-975q-14 0 -23.5 10.5t-7.5 24.5z" glyph-name="endash" horiz-adv-x="1196" unicode="–"/><glyph d="M137 594q2 14 13.5 24.5t25.5 10.5h1499q14 0 23.5 -10.5t7.5 -24.5t-13.5 -24.5t-25.5 -10.5h-1499q-14 0 -23.5 10.5t-7.5 24.5z" glyph-name="emdash" horiz-adv-x="1720" unicode="—"/><glyph d="M383 1524q-4 -27 -31 -27q-16 0 -30.5 -13.5t-16.5 -29.5l-10 -100h10q27 0 43.5 -19.5t13.5 -46.5q-4 -25 -24.5 -43t-47 -18t-42 18.5t-10.5 42.5l16 168q4 39 34.5 66.5t69.5 27.5q25 1 25 -26z" glyph-name="quoteleft" horiz-adv-x="329" unicode="‘"/><glyph d="M237.5 1253.5q4.5 26.5 28.5 26.5q16 0 30.5 13.5t16.5 29.5l13 100h-11q-27 0 -43 19.5t-14 46.5q4 25 23.5 43t46 18t43 -18.5t12.5 -42.5l-18 -168q-4 -39 -35 -66.5t-70 -27.5q-27 0 -22.5 26.5z" glyph-name="quoteright" horiz-adv-x="329" unicode="’"/><glyph d="M86 -186q4 27 29 26q16 0 30.5 13.5t18.5 29.5l10 101h-10q-27 0 -43.5 19.5t-14.5 45.5q4 25 24 43.5t46.5 18.5t43 -18.5t11.5 -43.5l-18 -168q-4 -39 -33.5 -66.5t-68.5 -27.5q-10 0 -18.5 8.5t-6.5 18.5z" glyph-name="quotesinglbase" horiz-adv-x="288" unicode="‚"/><glyph d="M383 1524q-4 -27 -31 -27q-16 0 -30.5 -13.5t-16.5 -29.5l-10 -100h10q27 0 43.5 -19.5t13.5 -46.5q-4 -25 -24.5 -43t-47 -18t-42 18.5t-10.5 42.5l16 168q4 39 34.5 66.5t69.5 27.5q25 1 25 -26zM553 1524q-4 -27 -31 -27q-16 0 -30.5 -13.5t-16.5 -29.5l-10 -100h10 q27 0 43.5 -19.5t13.5 -46.5q-4 -25 -24.5 -43t-47 -18t-42 18.5t-10.5 42.5l16 168q4 39 34.5 66.5t69.5 27.5q25 1 25 -26z" glyph-name="quotedblleft" horiz-adv-x="458" unicode="“"/><glyph d="M366.5 1253.5q4.5 26.5 28.5 26.5q16 0 30.5 13.5t16.5 29.5l13 100h-11q-27 0 -43 19.5t-14 46.5q4 25 23.5 43t46 18t43 -18.5t12.5 -42.5l-18 -168q-4 -39 -35 -66.5t-70 -27.5q-27 0 -22.5 26.5zM197 1253.5q4 26.5 28 26.5q16 0 30.5 13.5t16.5 29.5l13 100h-11 q-27 0 -43 19.5t-14 46.5q4 25 23.5 43t46 18t43 -18.5t12.5 -42.5l-18 -168q-4 -39 -35 -66.5t-70 -27.5q-26 0 -22 26.5z" glyph-name="quotedblright" horiz-adv-x="458" unicode="”"/><glyph d="M45 -186q4 27 29 26q16 0 30.5 13.5t18.5 29.5l10 101h-10q-27 0 -43.5 19.5t-13.5 45.5q4 25 23.5 43.5t46 18.5t43 -18.5t11.5 -43.5l-18 -168q-4 -39 -33.5 -66.5t-68.5 -27.5q-10 0 -18.5 8.5t-6.5 18.5zM215 -186q4 27 29 26q16 0 30.5 13.5t18.5 29.5l10 101h-10 q-27 0 -43.5 19.5t-13.5 45.5q4 25 23.5 43.5t46 18.5t43 -18.5t11.5 -43.5l-18 -168q-4 -39 -33.5 -66.5t-68.5 -27.5q-10 0 -18.5 8.5t-6.5 18.5z" glyph-name="quotedblbase" horiz-adv-x="458" unicode="„"/><glyph d="M1081 1116h-823q-14 0 -23.5 10.5t-7.5 24.5q4 35 37 35h377l35 332q2 14 13 24t25.5 10t24 -10t6.5 -24l-34 -332h376q14 0 24.5 -10.5t8.5 -24.5t-13.5 -24.5t-25.5 -10.5zM690 979l-121 -1137q-4 -35 -37 -35q-14 0 -24 10.5t-8 24.5l121 1137q2 14 13 24.5t25.5 10.5 t23.5 -10.5t7 -24.5z" glyph-name="dagger" horiz-adv-x="1105" unicode="†"/><glyph d="M1081 1116h-823q-14 0 -23.5 10.5t-7.5 24.5q4 35 37 35h377l35 332q2 14 13 24t25.5 10t24 -10t6.5 -24l-34 -332h376q14 0 24.5 -10.5t8.5 -24.5t-13.5 -24.5t-25.5 -10.5zM690 979l-63 -598q-2 -14 -13.5 -24.5t-26 -10.5t-23.5 10.5t-7 24.5l64 598q2 14 13 24.5 t25.5 10.5t23.5 -10.5t7 -24.5zM166 244h823q14 0 23.5 -10.5t7.5 -24.5t-13.5 -24.5t-25.5 -10.5h-377l-35 -332q-4 -35 -37 -35q-14 0 -24 10.5t-8 24.5l35 332h-377q-14 0 -23.5 10.5t-7.5 24.5t13.5 24.5t25.5 10.5z" glyph-name="daggerdbl" horiz-adv-x="1105" unicode="‡"/><glyph d="M346 453q-59 0 -100 42t-41 99t42 98t99 41t98 -41t41 -98t-41 -99t-98 -42z" glyph-name="bullet" horiz-adv-x="690" unicode="•"/><glyph d="M133 -16q-27 0 -43 19.5t-14 45.5q4 25 23.5 43.5t46 18.5t43 -18.5t12.5 -43.5q-4 -29 -22.5 -47t-45.5 -18zM1128.5 -16q-26.5 0 -43 19.5t-14.5 45.5q4 25 23.5 43.5t46 18.5t43 -18.5t12.5 -43.5q-4 -29 -22.5 -47t-45 -18zM630.5 -16q-26.5 0 -43 19.5t-14.5 45.5 q4 25 23.5 43.5t46.5 18.5t43 -18.5t12 -43.5q-4 -29 -22.5 -47t-45 -18z" glyph-name="ellipsis" horiz-adv-x="1263" unicode="…"/><glyph d="M926 1219q-14 -145 -132 -250t-263.5 -105t-240.5 104.5t-81 250.5q14 143 132 247.5t263.5 104.5t240.5 -104.5t81 -247.5zM1432 319q-14 -145 -132 -249.5t-263.5 -104.5t-241 104.5t-80.5 249.5q14 143 132 248t263 105t240.5 -105t81.5 -248zM2218 319 q-14 -145 -132 -249.5t-263.5 -104.5t-240.5 104.5t-81 249.5q14 143 132 248t263.5 105t240.5 -105t81 -248zM1360 319q12 117 -61.5 201t-194.5 84q-117 0 -211 -84t-106.5 -200.5t63.5 -201.5t192 -85q121 0 213.5 83.5t104.5 202.5zM2146 319q12 117 -61.5 201 t-194.5 84q-117 0 -211 -84t-106 -200.5t63.5 -201.5t192.5 -85q121 0 213 83.5t104 202.5zM854 1219q12 117 -61.5 200.5t-194.5 83.5q-117 0 -211 -84t-106.5 -200.5t63.5 -201.5t193 -85q121 0 213 84t104 203zM209 41l8 16l1153 1479q16 20 39 16q33 -6 25 -41 q-4 -8 -9 -12l-1155 -1483q-16 -20 -37 -16q-32 6 -24 41z" glyph-name="perthousand" horiz-adv-x="2267" unicode="‰"/><glyph d="M137 559q-29 33 8 70l332 301q27 23 49 0q18 -27 -4 -49l-317 -287l254 -287q25 -20 -4 -49q-27 -23 -49 0z" glyph-name="guilsinglleft" horiz-adv-x="505" unicode="‹"/><glyph d="M483 559l-329 -301q-31 -23 -50 0q-25 25 5 49l315 287l-256 287q-23 23 4 49q31 23 49 0l271 -301q28 -37 -9 -70z" glyph-name="guilsinglright" horiz-adv-x="505" unicode="›"/><glyph d="M944 1536q0 -6 -2 -10l-788 -1530q-4 -12 -17 -12q-18 0 -14 16q0 6 2 10l788 1530q4 12 17 12q18 0 14 -16z" glyph-name="fraction" horiz-adv-x="907" unicode="⁄"/><glyph d="M123 628.5q2 14.5 13 25t26 10.5h190q39 0 43 -50q16 -256 156.5 -417.5t343.5 -161.5q129 0 250 67.5t215 188.5q16 23 37 22q14 0 23.5 -10t6.5 -24q-2 -10 -12 -25q-106 -135 -242.5 -212t-283.5 -77q-229 0 -387 178.5t-178 450.5h-170q-14 0 -23.5 10t-7.5 24.5z M500 628.5q2 14.5 13 25t26 10.5h598q14 0 23 -10.5t7 -25t-13 -24.5t-26 -10h-598q-14 0 -23 10t-7 24.5zM152 907.5q2 14.5 13 24.5t25 10h170q78 272 272.5 450.5t424.5 178.5q147 0 267 -77t198 -212q8 -12 8 -25q-2 -14 -13.5 -24t-25.5 -10q-18 0 -31 22 q-70 121 -175 188.5t-234 67.5q-203 0 -378 -161.5t-245 -417.5q-14 -49 -55 -50h-191q-14 0 -23 10.5t-7 25zM528 907.5q2 14.5 13.5 24.5t25.5 10h772q14 0 23.5 -10t7.5 -24.5t-13 -25t-26 -10.5h-772q-14 0 -23.5 10.5t-7.5 25z" glyph-name="Euro" horiz-adv-x="1480" unicode="€"/><glyph d="M657 1536v-307h-28v241l-111 -241h-26l-113 241v-241h-29v307h29l125 -270l125 270h28zM324 1507h-107v-278h-29v278h-106v29h242v-29z" glyph-name="trademark" horiz-adv-x="739" unicode="™"/><glyph d="M1767 768q-25 -223 -153.5 -408.5t-325.5 -289.5h371l-6 -70h-537l6 72q229 74 388 264t186 432q33 303 -158.5 517t-497.5 214q-303 0 -538.5 -214t-268.5 -517q-27 -242 94.5 -432.5t336.5 -263.5l-7 -72h-540l6 70h373q-174 104 -266.5 290.5t-67.5 407.5 q35 332 295 567.5t592 235.5q334 0 543.5 -235.5t174.5 -567.5z" glyph-name="uni2126" horiz-adv-x="1769" unicode="Ω"/><glyph d="M1317 664q-47 -340 -226.5 -519.5t-437.5 -179.5q-248 0 -395 164t-121 410q27 244 206 408.5t411 164.5q397 0 499 -342l7 4q18 180 -2.5 313.5t-65.5 210t-119 123.5t-147.5 62.5t-163.5 15.5q-78 0 -187.5 -24.5t-183.5 -57.5l8 74q68 31 169.5 54.5t181.5 23.5 q70 0 128 -7.5t120.5 -23.5t110.5 -48t92 -78t73 -115.5t46 -158.5t16 -209t-19 -265zM1216.5 539q22.5 211 -107.5 357t-343 146q-211 0 -373 -146t-184.5 -357t109 -357.5t341.5 -146.5q213 0 374 146.5t183.5 357.5z" glyph-name="partialdiff" horiz-adv-x="1331" unicode="∂"/><glyph d="M41 0l688 1536h72l368 -1536h-1128zM145 70h932l-323 1353z" glyph-name="uni2206" horiz-adv-x="1210" unicode="∆"/><glyph d="M1227 1466h-295v-1466h-70v1466h-454v-1466h-70v1466h-297v70h1186v-70z" glyph-name="product" horiz-adv-x="1267" unicode="∏"/><glyph d="M139 70h948v-70h-1046v70l700 698l-700 696v72h1046v-70h-948l701 -698z" glyph-name="summation" horiz-adv-x="1128" unicode="∑"/><glyph d="M1272 559h-1151q-14 0 -24.5 10.5t-10.5 24.5t10 24.5t25 10.5h1151q14 0 24.5 -10.5t10.5 -24.5t-10.5 -24.5t-24.5 -10.5z" glyph-name="minus" horiz-adv-x="1390" unicode="−"/><glyph d="M209 547l172 -445l401 1434h74l-430 -1536h-80l-184 457l-39 -95l-62 29l66 156h82z" glyph-name="radical" horiz-adv-x="917" unicode="√"/><glyph d="M711 676q131 209 293 209q129 0 222 -84t93 -207q0 -125 -93 -209t-222 -84q-160 0 -293 203q-133 -203 -293 -203q-129 0 -222.5 84t-93.5 209q0 123 93.5 207t222.5 84q162 0 293 -209zM1247 594q0 96 -71.5 158.5t-171.5 62.5q-66 0 -124.5 -49t-134.5 -176 q76 -125 134.5 -172t124.5 -47q100 0 171.5 62.5t71.5 160.5zM174 594q0 -98 71.5 -160.5t172.5 -62.5q66 0 124 47t134 172q-76 127 -134.5 176t-123.5 49q-100 0 -172 -62.5t-72 -158.5z" glyph-name="infinity" horiz-adv-x="1421" unicode="∞"/><glyph d="M330 1296v-1407q0 -113 -80 -176t-201 -63h-18v69h18q92 0 152.5 44t58.5 126v1407q0 113 79 176.5t200 63.5h14v-70h-14q-90 0 -148.5 -43t-60.5 -127z" glyph-name="integral" horiz-adv-x="583" unicode="∫"/><glyph d="M102 387v68q18 6 49 16t116 29.5t159 25.5t157 -11t132 -66.5t127 -66.5t152.5 -7t143 27.5t111.5 35.5l41 17v-68q-16 -8 -44.5 -18.5t-110.5 -32t-156 -26.5t-160 14.5t-141 72.5q-49 47 -127 63.5t-153.5 6.5t-143.5 -27.5t-111 -33.5zM102 735v70q18 6 49 16 t116 29.5t159 26t157 -12t132 -67.5t127 -65.5t152.5 -6.5t143 27.5t111.5 33.5l41 19v-70q-16 -8 -44.5 -18t-110.5 -30.5t-156 -27t-160 13t-141 72.5q-49 47 -127 63.5t-153.5 6.5t-143.5 -27.5t-111 -33.5z" glyph-name="approxequal" horiz-adv-x="1392" unicode="≈"/><glyph d="M264 164q-23 23 0 49l172 172h-315q-14 0 -24.5 10.5t-10.5 24.5t10 24.5t25 10.5h385l278 278h-663q-14 0 -24.5 10.5t-10.5 24.5t10 24.5t25 10.5h733l223 221q8 10 24.5 10t24.5 -10q23 -23 0 -49l-172 -172h316q14 0 24.5 -10.5t10.5 -24.5t-10.5 -24.5t-24.5 -10.5 h-385l-281 -278h666q14 0 24.5 -10.5t10.5 -24.5t-10.5 -24.5t-24.5 -10.5h-735l-222 -221q-10 -10 -24.5 -10t-24.5 10z" glyph-name="notequal" horiz-adv-x="1390" unicode="≠"/><glyph d="M66 796.5q0 32.5 32 47.5l643 350q16 8 23 8q14 0 24.5 -10t10.5 -25q0 -20 -19 -30l-622 -340l622 -340q18 -10 19 -31q0 -14 -10.5 -24.5t-24.5 -10.5q-6 0 -23 8l-643 351q-32 14 -32 46.5zM66 34.5q0 14.5 10 25t24 10.5h664q14 0 24.5 -10.5t10.5 -25t-10.5 -24.5 t-24.5 -10h-664q-14 0 -24 10t-10 24.5z" glyph-name="lessequal" horiz-adv-x="864" unicode="≤"/><glyph d="M799 796.5q0 -32.5 -33 -46.5l-643 -351q-16 -8 -23 -8q-14 0 -24 10.5t-10 24.5q0 20 18 31l623 340l-623 340q-18 10 -18 30q0 14 10 24.5t24 10.5q6 0 23 -8l643 -350q33 -15 33 -47.5zM799 34.5q0 -14.5 -10.5 -24.5t-24.5 -10h-664q-14 0 -24 10t-10 24.5t10 25 t24 10.5h664q14 0 24.5 -10.5t10.5 -25z" glyph-name="greaterequal" horiz-adv-x="864" unicode="≥"/><glyph d="M606 0h-69l-455 768l455 768h69l455 -768zM164 768l409 -690l406 690l-406 690z" glyph-name="lozenge" horiz-adv-x="1142" unicode="◊"/><glyph glyph-name="uniF8FF" horiz-adv-x="1024" unicode=""/><glyph d="M145 1151q4 35 37 35h121l14 125q10 106 94.5 183t192.5 77q106 0 174 -74q12 -10 10 -27q-2 -14 -13 -24t-25 -10q-18 0 -25 10q-53 57 -127 57q-78 0 -140.5 -56t-70.5 -136l-14 -125h575q20 0 33.5 -14.5t11.5 -34.5l-119 -1119q0 -14 -11 -24t-25.5 -10t-23.5 10 t-9 24l117 1098h-746q-14 0 -23.5 10.5t-7.5 24.5zM321.5 1014q14.5 0 23.5 -10.5t7 -24.5l-102 -961q0 -14 -11.5 -24t-25.5 -10t-23.5 10t-9.5 24l103 961q2 14 13 24.5t25.5 10.5zM950 1521.5q2 20.5 17.5 35t36 14.5t34 -14.5t11.5 -34.5q-4 -20 -19.5 -34.5t-36 -14.5 t-33 14t-10.5 34.5z" glyph-name="uniFB01" horiz-adv-x="997" unicode="ﬁ"/><glyph d="M313 1276q10 106 94.5 183t192.5 77h385q20 0 33.5 -14.5t11.5 -34.5l-156 -1469q0 -14 -11 -24t-25.5 -10t-23.5 10t-9 24l153 1450h-364q-78 0 -140.5 -56t-70.5 -136l-10 -90h280q14 0 24.5 -10.5t8.5 -24.5t-13 -24.5t-26 -10.5h-471q-14 0 -23.5 10.5t-7.5 24.5 q4 35 37 35h121zM321.5 1014q14.5 0 23.5 -10.5t7 -24.5l-102 -961q0 -14 -11.5 -24t-25.5 -10t-23.5 10t-9.5 24l103 961q2 14 13 24.5t25.5 10.5z" glyph-name="uniFB02" horiz-adv-x="997" unicode="ﬂ"/><glyph d="M145 1151q4 35 37 35h121l14 125q10 106 94.5 183t192.5 77q106 0 174 -74q12 -10 10 -27q-2 -14 -13 -24t-25 -10q-18 0 -25 10q-53 57 -127 57q-78 0 -140.5 -56t-70.5 -136l-14 -125h557l14 125q10 106 94 183t193 77q106 0 174 -74q12 -10 10 -27q-2 -14 -13 -24 t-26 -10q-18 0 -24 10q-53 57 -127 57q-78 0 -140.5 -56t-70.5 -136l-15 -125h576q20 0 33.5 -14.5t11.5 -34.5l-119 -1119q0 -14 -11 -24t-25.5 -10t-23.5 10t-9 24l116 1098h-1372q-14 0 -23.5 10.5t-7.5 24.5zM321.5 1014q14.5 0 23.5 -10.5t7 -24.5l-102 -961 q0 -14 -11.5 -24t-25.5 -10t-23.5 10t-9.5 24l103 961q2 14 13 24.5t25.5 10.5zM948.5 1014q14.5 0 23.5 -10.5t7 -24.5l-102 -961q0 -14 -11.5 -24t-26 -10t-23.5 10t-9 24l102 961q2 14 13.5 24.5t26 10.5zM1577 1521.5q2 20.5 17.5 35t36 14.5t33.5 -14.5t11 -34.5 q-4 -20 -19.5 -34.5t-36 -14.5t-32.5 14t-10 34.5z" glyph-name="uniFB03" horiz-adv-x="1624" unicode="ﬃ"/><glyph d="M145 1151q4 35 37 35h121l14 125q10 106 94.5 183t192.5 77q106 0 174 -74q12 -10 10 -27q-2 -14 -13 -24t-25 -10q-18 0 -25 10q-53 57 -127 57q-78 0 -140.5 -56t-70.5 -136l-14 -125h559l10 90q10 106 94 183t193 77h385q20 0 33.5 -14.5t11.5 -34.5l-156 -1469 q0 -14 -11 -24t-25.5 -10t-23.5 10t-9 24l153 1450h-364q-78 0 -140.5 -56t-70.5 -136l-11 -90h281q14 0 24.5 -10.5t8.5 -24.5t-13.5 -24.5t-25.5 -10.5h-1100q-14 0 -23.5 10.5t-7.5 24.5zM321.5 1014q14.5 0 23.5 -10.5t7 -24.5l-102 -961q0 -14 -11.5 -24t-25.5 -10 t-23.5 10t-9.5 24l103 961q2 14 13 24.5t25.5 10.5zM950.5 1014q14.5 0 23.5 -10.5t7 -24.5l-102 -961q0 -14 -11.5 -24t-26 -10t-23.5 10t-9 24l102 961q2 14 13.5 24.5t26 10.5z" glyph-name="uniFB04" horiz-adv-x="1626" unicode="ﬄ"/><glyph d="M1337 594q0 -262 -183 -445.5t-445 -183.5q-260 0 -443.5 184.5t-183.5 444.5t183.5 443.5t443.5 183.5t444 -183.5t184 -443.5zM1278 594q0 236 -166 401.5t-403 165.5q-233 0 -400.5 -166t-167.5 -401.5t167 -402t401 -166.5q238 0 403.5 165.5t165.5 403.5zM473 944 q0 14 10.5 24.5t24.5 10.5h297q100 0 172 -71.5t72 -172t-72 -172t-172 -71.5h-262v-254q0 -14 -10.5 -24.5t-24.5 -10.5t-24.5 10t-10.5 25v706zM979 735.5q0 71.5 -51 122.5t-123 51h-262v-350h262q72 0 123 52.5t51 124z" glyph-name="uniFB05" horiz-adv-x="1419" unicode="ﬅ"/><glyph d="M145 1151q4 35 37 35h121l14 125q10 106 94.5 183t192.5 77q106 0 174 -74q12 -10 10 -27q-2 -14 -13 -24t-25 -10q-18 0 -25 10q-53 57 -127 57q-78 0 -140.5 -56t-70.5 -136l-14 -125h551l26 250q2 14 13.5 24t26 10t23.5 -10t7 -24l-27 -250h297q14 0 24.5 -10.5 t8.5 -24.5t-13.5 -24.5t-25.5 -10.5h-1108q-14 0 -23.5 10.5t-7.5 24.5zM973 979l-74 -700q-10 -88 44 -148.5t142 -60.5h89q14 0 23 -10.5t7 -24.5q-4 -35 -37 -35h-88q-115 0 -188.5 81t-61.5 195l74 703q2 14 13.5 24.5t25.5 10.5t23.5 -10.5t7.5 -24.5zM321.5 1014 q14.5 0 23.5 -10.5t7 -24.5l-102 -961q0 -14 -11.5 -24t-25.5 -10t-23.5 10t-9.5 24l103 961q2 14 13 24.5t25.5 10.5z" glyph-name="uniFB06" horiz-adv-x="1226" unicode="ﬆ"/><glyph d="M145 1151q4 35 37 35h121l27 250q2 14 13 24t25.5 10t23.5 -10t7 -24l-26 -250h551l26 250q2 14 13.5 24t26 10t23.5 -10t7 -24l-27 -250h297q14 0 24.5 -10.5t8.5 -24.5t-13.5 -24.5t-25.5 -10.5h-1108q-14 0 -23.5 10.5t-7.5 24.5zM973 979l-74 -700q-10 -88 44 -148.5 t142 -60.5h89q14 0 23 -10.5t7 -24.5q-4 -35 -37 -35h-88q-115 0 -188.5 81t-61.5 195l74 703q2 14 13.5 24.5t25.5 10.5t23.5 -10.5t7.5 -24.5zM352 979l-73 -700q-10 -88 44 -148.5t142 -60.5h88q14 0 23.5 -10.5t7.5 -24.5q-4 -35 -37 -35h-88q-115 0 -188.5 81 t-61.5 195l74 703q2 14 13 24.5t25.5 10.5t23.5 -10.5t7 -24.5z" glyph-name="uniFB07" horiz-adv-x="1226" unicode="﬇"/><glyph glyph-name="glyph317" horiz-adv-x="1026"/></font>
</defs>
</svg>
