<?xml version="1.0" standalone="no"?>
<!DOCTYPE svg PUBLIC "-//W3C//DTD SVG 1.1//EN" "http://www.w3.org/Graphics/SVG/1.1/DTD/svg11.dtd">
<svg xmlns="http://www.w3.org/2000/svg"><metadata>This SVG WebFont was generated by YouWorkForThem.
 Copyright (c)2016 Talbot Type. All Rights Reserved</metadata><defs><font horiz-adv-x="1341" id="ywftsvg"><font-face ascent="1618" bbox="-88.1026 -487 2454 1909" cap-height="1552" descent="-430" font-family="" font-stretch="normal" font-weight="700" panose-1="2 11 8 3 3 6 0 6 0 4" underline-position="0" underline-thickness="0" unicode-range="U+0020-FB07" units-per-em="2048" x-height="1186"/><missing-glyph horiz-adv-x="391"/><glyph glyph-name=".notdef" horiz-adv-x="391"/><glyph glyph-name="glyph1" horiz-adv-x="0"/><glyph glyph-name="glyph2" horiz-adv-x="681"/><glyph glyph-name="space" horiz-adv-x="552" unicode=" "/><glyph d="M123 1434q0 49 42 83.5t99.5 34.5t98 -34.5t40.5 -83.5l-28 -938q0 -39 -33 -67t-78 -28t-78.5 28t-33.5 67zM422 143q0 -68 -46 -112.5t-111.5 -44.5t-112 45t-46.5 112q0 63 46.5 108.5t112 45.5t111.5 -45.5t46 -108.5z" glyph-name="exclam" horiz-adv-x="528" unicode="!"/><glyph d="M102 1032v447q0 33 21.5 53t52.5 20t52.5 -20.5t21.5 -52.5v-447q0 -31 -21.5 -51t-52.5 -20t-52.5 20t-21.5 51zM383 1032v447q0 33 21.5 53t52 20t52 -20.5t21.5 -52.5v-447q0 -31 -21.5 -51t-52 -20t-52 20t-21.5 51z" glyph-name="quotedbl" horiz-adv-x="632" unicode="&quot;"/><glyph d="M25 592q0 29 21.5 49.5t49.5 20.5h271l45 210h-316q-29 0 -50 20.5t-21 49.5t21.5 49.5t49.5 20.5h344l99 469q8 29 32.5 50t53 21t46 -21.5t9.5 -49.5l-98 -469h209l98 469q8 29 32.5 50t53.5 21t46 -21.5t9 -49.5l-98 -469h242q29 0 50 -20.5t21 -49.5t-21.5 -49.5 t-49.5 -20.5h-275l-45 -210h320q29 0 50 -20.5t21 -49.5t-21.5 -48.5t-49.5 -19.5h-349l-98 -469q-8 -29 -33.5 -50t-54.5 -21t-45 21.5t-8 49.5l102 469h-211l-100 -469q-8 -29 -33 -50t-53.5 -21t-44 21.5t-6.5 49.5l98 469h-242q-29 0 -50 19.5t-21 48.5zM762 872h-211 l-43 -210h209z" glyph-name="numbersign" horiz-adv-x="1269" unicode="#"/><glyph d="M893 371q33 47 37 95t-44 96t-138 73l-263 63q-186 51 -281 147.5t-95 264.5q0 113 69 213q27 43 83 50t108 -23q51 -33 68.5 -86.5t-9.5 -96.5q-43 -49 -10 -111.5t141 -92.5l246 -62q209 -53 317.5 -154.5t108.5 -285.5q0 -172 -131 -299q-33 -35 -89.5 -31t-99.5 47 q-43 45 -48 101.5t30 91.5zM788 -80q0 -35 -40.5 -60.5t-98 -25.5t-97.5 25.5t-40 60.5v90q-215 29 -383 150q-41 31 -46 84t28 104q35 43 88 56.5t90 -13.5q154 -117 360 -117q57 0 98 -25.5t41 -60.5v-268zM649 1257q-57 0 -97 26t-40 63v235q0 37 40 62.5t97.5 25.5 t98 -25.5t40.5 -62.5v-55q195 -33 336 -125q43 -29 52.5 -79t-19.5 -101q-31 -51 -80 -69.5t-92 5.5q-162 100 -336 100z" glyph-name="dollar" horiz-adv-x="1312" unicode="$"/><glyph d="M877 1179.5q0 -161.5 -117 -277.5t-281 -116q-162 0 -279.5 116t-117.5 278q0 160 118.5 275.5t278.5 115.5q164 0 281 -115t117 -276.5zM1782 360.5q0 -161.5 -117 -277.5t-281 -116q-162 0 -279.5 116t-117.5 277q0 160 119 276t278 116q164 0 281 -115t117 -276.5z M657 1180q0 74 -51 126t-127 52q-72 0 -125 -52.5t-53 -126t53.5 -127t124.5 -53.5q76 0 127 52.5t51 128.5zM1563 360q0 74 -51.5 126.5t-127.5 52.5q-72 0 -125 -52.5t-53 -126t53.5 -127t124.5 -53.5q76 0 127.5 52t51.5 128zM395 152l916 1366q20 29 60 32.5t75 -18.5 q33 -25 43 -63.5t-10 -67.5l-916 -1366q-20 -31 -60 -34t-73 19q-35 25 -45 64t10 68z" glyph-name="percent" horiz-adv-x="1863" unicode="%"/><glyph d="M229 1167q0 172 121 288t293 116t292 -116t120 -286q0 -166 -123 -283.5t-289 -117.5q-109 0 -184.5 -77t-75.5 -185.5t76 -185t184 -76.5q29 0 49 4q49 10 91 -19.5t57 -85.5q14 -57 -7.5 -104t-66.5 -59q-57 -14 -123 -15q-238 0 -399.5 152.5t-161.5 390.5 q0 233 159.5 375.5t401.5 142.5q57 0 99 41t42 100q0 57 -42 97.5t-99 40.5t-98 -39t-41 -99q0 -43 -40 -72.5t-97.5 -29.5t-97.5 29.5t-40 72.5zM1198 244h33q45 0 75.5 -37t30.5 -94q0 -55 -30.5 -92t-75.5 -37h-45q-129 0 -205 81.5t-76 213.5v335q0 131 76 213t205 82 h45q45 0 75.5 -36.5t30.5 -92.5q0 -57 -30.5 -94t-75.5 -37h-33q-14 0 -25.5 -10t-11.5 -25v-335q0 -14 11.5 -24.5t25.5 -10.5z" glyph-name="ampersand" horiz-adv-x="1370" unicode="&amp;"/><glyph d="M102 1032v447q0 33 21.5 53t52.5 20t52.5 -20.5t21.5 -52.5v-447q0 -31 -21.5 -51t-52.5 -20t-52.5 20t-21.5 51z" glyph-name="quotesingle" horiz-adv-x="352" unicode="'"/><glyph d="M571 -299q14 -29 -5 -59.5t-58 -44.5q-37 -14 -72 -4t-45 38q-227 428 -227 956.5t227 956.5q10 29 45 39t72 -4q39 -14 58.5 -45t4.5 -59q-104 -223 -151 -419t-47 -468.5t47 -468t151 -418.5z" glyph-name="parenleft" horiz-adv-x="638" unicode="("/><glyph d="M68 -299q104 223 151 418.5t47 468t-47 468t-151 419.5q-14 29 5 59.5t58 44.5q37 14 72 4t45 -39q227 -428 227 -956.5t-227 -956.5q-10 -29 -45 -39t-72 5q-39 14 -58 44.5t-5 59.5z" glyph-name="parenright" horiz-adv-x="638" unicode=")"/><glyph d="M307 1133q0 10 19 110q-74 -66 -86 -72q-16 -10 -38 -1.5t-36 34.5q-14 25 -11 48.5t19 33.5q20 10 107 39q-86 29 -107 39q-16 10 -19 33.5t11 48.5q14 27 35.5 35t38.5 -2q12 -6 86 -74q-18 102 -19 113q0 20 18.5 34.5t47 14.5t48 -14.5t19.5 -34.5q0 -10 -20 -113 q76 68 88 74q39 25 76 -33q31 -59 -11 -82q-20 -10 -106 -39q86 -29 106 -39q41 -23 11 -82q-37 -57 -76 -33q-12 6 -88 74q20 -102 20 -112q0 -20 -19.5 -35t-48 -15t-47 15t-18.5 35z" glyph-name="asterisk" horiz-adv-x="747" unicode="*"/><glyph d="M86 592q0 43 25.5 73.5t60.5 30.5h422v420q0 35 30.5 60.5t73.5 25.5t74 -25.5t31 -60.5v-420h418q35 0 60.5 -30.5t25.5 -73.5t-26 -74t-60 -31h-418v-417q0 -35 -31 -60.5t-74 -25.5t-73.5 25.5t-30.5 60.5v417h-422q-35 0 -60.5 31t-25.5 74z" glyph-name="plus" horiz-adv-x="1392" unicode="+"/><glyph d="M92 -184.5q0 26.5 17.5 44t42.5 17.5q45 0 73.5 31t30.5 80q-10 -4 -27 -4q-66 0 -111.5 47t-45.5 110.5t46 110.5t111.5 47t111.5 -47t46 -111v-151q0 -98 -68.5 -168t-166.5 -70q-25 0 -42.5 18.5t-17.5 45z" glyph-name="comma" horiz-adv-x="561" unicode=","/><glyph d="M127 592q0 43 25.5 73.5t60.5 30.5h528q35 0 60.5 -30.5t25.5 -73.5t-25.5 -74t-60.5 -31h-528q-35 0 -60.5 31t-25.5 74z" glyph-name="hyphen" horiz-adv-x="952" unicode="-"/><glyph d="M229.5 -16q-65.5 0 -111.5 47t-46 110.5t46 110.5t111.5 47t111.5 -47t46 -110.5t-46 -110.5t-111.5 -47z" glyph-name="period" horiz-adv-x="561" unicode="."/><glyph d="M113 82l600 1434q10 25 39.5 34t58.5 -6q27 -12 40 -39.5t3 -50.5l-600 -1434q-12 -27 -41 -35t-55 7q-29 12 -42 38.5t-3 51.5z" glyph-name="slash" horiz-adv-x="966" unicode="/"/><glyph d="M1206 1030v-526q0 -221 -161.5 -380t-387 -159t-388.5 158t-163 381v526q0 223 163 382t388.5 159t387 -159t161.5 -382zM920 504v526q0 106 -77 183t-185.5 77t-186.5 -76.5t-78 -183.5v-526q0 -106 78 -183t186.5 -77t185.5 77t77 183z" glyph-name="zero" horiz-adv-x="1312" unicode="0"/><glyph d="M434 106v1082l-158 -98q-41 -25 -88 -10.5t-75 61.5q-27 45 -20 94t46 72l350 219q41 27 89 26q59 0 101 -35.5t42 -86.5v-1324q0 -51 -42 -86.5t-101.5 -35.5t-101.5 35.5t-42 86.5z" glyph-name="one" horiz-adv-x="843" unicode="1"/><glyph d="M82 1047q0 225 155.5 374.5t385 149.5t386 -140.5t156.5 -363.5q0 -221 -202 -395l-431 -391h484q49 0 84 -41t35 -99q0 -59 -35 -100t-84 -41h-756q-61 0 -105 52t-44 126q0 96 69 152l600 551q86 86 86 186t-69.5 163.5t-173.5 63.5q-100 0 -171 -70.5t-73 -176.5 q0 -51 -44 -89t-105.5 -38t-104.5 37t-43 90z" glyph-name="two" horiz-adv-x="1247" unicode="2"/><glyph d="M754 674q-37 31 -37 86t35 100q35 47 89 59.5t93 -18.5q94 -70 150.5 -178.5t56.5 -237.5q0 -223 -158 -371.5t-385 -148.5q-186 0 -329.5 117t-182.5 293q-10 47 21.5 90t89.5 53q55 12 104 -13.5t57 -72.5q18 -84 85 -137t155 -53q100 0 172 71.5t72 171.5 q0 107 -88 189zM309 946l316 314h-346q-47 0 -82 39.5t-35 97t34.5 98.5t82.5 41h682q51 0 86.5 -43t35.5 -102q0 -68 -45 -113l-532 -528q-35 -33 -87 -28t-93 46q-41 39 -46.5 92t29.5 86z" glyph-name="three" horiz-adv-x="1222" unicode="3"/><glyph d="M713 801v252l-359 -496h719q49 0 84 -41t35 -98.5t-35 -98t-84 -40.5h-69v-173q0 -51 -43 -86.5t-102.5 -35.5t-102.5 35.5t-43 86.5v173h-527q-68 0 -114.5 54t-46.5 132q0 72 38 123l609 889q51 76 153 75q74 0 126.5 -44t52.5 -107v-600q0 -51 -43 -87t-102.5 -36 t-102.5 36t-43 87z" glyph-name="four" horiz-adv-x="1216" unicode="4"/><glyph d="M702 1040q227 -33 346 -176t119 -360q0 -231 -162.5 -385t-400.5 -154q-195 0 -339 106.5t-191 280.5q-14 55 21.5 105.5t90.5 60.5q59 12 108.5 -14.5t57.5 -75.5q25 -80 95.5 -133t156.5 -53q109 0 186.5 76.5t77.5 185.5q0 90 -58 160.5t-148 93.5q-51 12 -83 54 t-26 99q4 55 48 96t101 33zM152 836l102 583q6 51 47 84t98 33h508q49 0 84 -42t35 -99.5t-35 -98.5t-84 -41h-399l-82 -473q-10 -47 -56 -72.5t-104 -13.5q-57 10 -90.5 51.5t-23.5 88.5z" glyph-name="five" horiz-adv-x="1249" unicode="5"/><glyph d="M743 748q-43 20 -56 70t9.5 103.5t70.5 77t91 2.5q154 -61 251 -193t97 -300q0 -233 -163.5 -388t-399 -155t-398.5 154.5t-163 388.5q0 141 74 270l438 725q23 41 77 48.5t107 -23.5q45 -27 59.5 -79t-10.5 -97l-399 -699q-45 -76 -45 -145q0 -109 76 -186.5 t184.5 -77.5t184 77.5t75.5 186.5q0 76 -43 140.5t-117 99.5z" glyph-name="six" horiz-adv-x="1288" unicode="6"/><glyph d="M317 160l457 1097h-618q-49 0 -84 41t-35 98.5t34.5 98.5t84.5 41h778q98 0 141 -94t-2 -189l-498 -1200q-18 -45 -69 -62.5t-103 5.5q-55 23 -79.5 70t-6.5 94z" glyph-name="seven" horiz-adv-x="1138" unicode="7"/><glyph d="M1229 463q0 -223 -165 -360.5t-408.5 -137.5t-408.5 137.5t-165 360.5q0 221 163 350t410 129q102 0 165 42t63 132t-61.5 132t-164.5 42q-227 0 -227 -184q4 -47 -27.5 -89t-89.5 -56q-84 -14 -128 30.5t-44 124.5q0 207 148.5 331t368 124t368 -124t148.5 -331 t-148.5 -330.5t-370.5 -123.5q-279 0 -278.5 -209t279 -209t278.5 209q0 31 -6 61q-14 47 15.5 93t88.5 65q100 27 148.5 -38t48.5 -171z" glyph-name="eight" horiz-adv-x="1310" unicode="8"/><glyph d="M545 786q43 -20 56 -70t-9.5 -103.5t-70.5 -77t-91 -3.5q-154 61 -251 193.5t-97 300.5q0 233 164 388t399.5 155t398 -154.5t162.5 -388.5q0 -141 -73 -270l-439 -725q-23 -41 -77 -48.5t-107 23.5q-45 27 -59.5 79t10.5 97l399 699q45 76 45 145q0 109 -75.5 186.5 t-184 77.5t-184.5 -77.5t-76 -186.5q0 -76 43 -140.5t117 -99.5z" glyph-name="nine" horiz-adv-x="1288" unicode="9"/><glyph d="M387 141.5q0 -63.5 -46 -110.5t-111.5 -47t-111.5 47t-46 110.5t46 110.5t111.5 47t111.5 -47t46 -110.5zM72 1044.5q0 65.5 46 111.5t111.5 46t111.5 -46t46 -111.5t-46 -111.5t-111.5 -46t-111.5 46t-46 111.5z" glyph-name="colon" horiz-adv-x="561" unicode=":"/><glyph d="M72 1044.5q0 65.5 46 111.5t111.5 46t111.5 -46t46 -111.5t-46 -111.5t-111.5 -46t-111.5 46t-46 111.5zM92 -184.5q0 26.5 17.5 44t42.5 17.5q45 0 73.5 31t30.5 80q-10 -4 -27 -4q-66 0 -111.5 47t-45.5 110.5t46 110.5t111.5 47t111.5 -47t46 -111v-151 q0 -98 -68.5 -168t-166.5 -70q-25 0 -42.5 18.5t-17.5 45z" glyph-name="semicolon" horiz-adv-x="561" unicode=";"/><glyph d="M778 268q31 -18 38 -58t-13 -77q-23 -39 -59.5 -53t-67.5 6l-526 371q-84 51 -84 135t84 135l526 371q31 20 67.5 6t59.5 -53q20 -37 13 -77t-38 -59l-475 -317v-12z" glyph-name="less" horiz-adv-x="884" unicode="&lt;"/><glyph d="M86 768q0 43 25.5 73.5t60.5 30.5h1049q35 0 60.5 -30.5t25.5 -73.5t-26 -73.5t-60 -30.5h-1049q-35 0 -60.5 30.5t-25.5 73.5zM86 420q0 43 25.5 73.5t60.5 30.5h1049q35 0 60.5 -30.5t25.5 -73.5t-26 -74t-60 -31h-1049q-35 0 -60.5 31t-25.5 74z" glyph-name="equal" horiz-adv-x="1392" unicode="="/><glyph d="M106 268l476 318v12l-476 317q-31 18 -38 58.5t14 77.5q23 39 59.5 53t67.5 -6l526 -371q84 -51 84 -135t-84 -135l-526 -371q-31 -20 -68 -6t-59 53q-20 37 -13.5 77t37.5 58z" glyph-name="greater" horiz-adv-x="884" unicode=">"/><glyph d="M449 473v211q0 51 38.5 87t98.5 36q100 0 171.5 71.5t71.5 174.5q0 100 -71.5 171.5t-171.5 71.5q-88 0 -154.5 -53t-85.5 -137q-8 -47 -57 -72.5t-105 -13.5q-57 10 -89 53t-21 90q39 176 182 293t330 117q227 0 384.5 -148.5t157.5 -371.5q0 -190 -117.5 -328.5 t-287.5 -169.5v-82q0 -53 -39 -88t-98.5 -35t-98 35t-38.5 88zM741 141.5q0 -65.5 -46 -111.5t-109 -46q-66 0 -112 46t-46 111.5t46 111.5t112 46q63 0 109 -46t46 -111.5z" glyph-name="question" horiz-adv-x="1210" unicode="?"/><glyph d="M885 367q-168 0 -285 117.5t-117 283.5t118 283.5t284 117.5t283.5 -117.5t117.5 -283.5v-78q0 -35 22.5 -57.5t55.5 -22.5t56.5 22.5t23.5 57.5v78q0 231 -165 395t-394 164q-231 0 -395 -164t-164 -395t163.5 -395t395.5 -164q109 0 200 37q39 14 81 -7.5t61 -66.5 q18 -49 4 -93t-55 -61q-147 -53 -291 -53q-334 0 -568.5 235.5t-234.5 567.5t234.5 567.5t568.5 235.5q332 0 567.5 -235.5t235.5 -567.5v-78q0 -133 -95.5 -228t-228.5 -95t-227.5 95t-94.5 228v78q0 63 -46 110.5t-111.5 47.5t-111.5 -47.5t-46 -110.5t46 -110.5 t112 -47.5q41 0 70.5 -35.5t29.5 -87t-29.5 -86t-70.5 -34.5z" glyph-name="at" horiz-adv-x="1789" unicode="@"/><glyph d="M883 715l-146 407h-16l-397 -1067q-20 -45 -73.5 -62.5t-111.5 1.5q-55 23 -80.5 72t-9.5 96l504 1292q45 98 176 98t176 -98l246 -633q16 -49 -7.5 -97t-78.5 -71q-57 -18 -111.5 -0.5t-70.5 62.5zM575 420q0 57 35 98t84 41h455q51 0 91 -27.5t50 -68.5l119 -301 q16 -47 -9.5 -96.5t-80.5 -71.5q-57 -18 -110.5 -1t-73.5 62l-99 224h-342q-49 0 -84 41t-35 100z" glyph-name="A" horiz-adv-x="1458" unicode="A"/><glyph d="M516 774q0 57 35 98t84 41h213q207 0 349 -129t142 -327.5t-142 -327.5t-349 -129h-580q-59 0 -102 36t-43 87v1290q0 51 43 87t102 36h545q190 0 323.5 -119t133.5 -299q0 -55 -13 -84q-20 -47 -72 -66.5t-112 1.5q-96 33 -104 135q-4 63 -48 107t-108 44h-399v-976h434 q80 0 136 51t56 126.5t-56 126t-136 50.5h-213q-49 0 -84 41t-35 100z" glyph-name="B" horiz-adv-x="1421" unicode="B"/><glyph d="M1286 430q35 39 88 41t101 -37q45 -37 53 -93t-25 -93q-254 -283 -608 -283q-342 0 -582.5 231.5t-240.5 571.5t240.5 571.5t582.5 231.5q354 0 608 -283q33 -37 25 -93t-53 -93q-47 -39 -100.5 -37t-88.5 41q-98 92 -184 138t-207 46q-217 0 -369.5 -152.5 t-152.5 -369.5t152.5 -369.5t369.5 -152.5q121 0 207 46t184 138z" glyph-name="C" horiz-adv-x="1601" unicode="C"/><glyph d="M123 106v1307q0 51 43 87t102 36h389q334 0 561.5 -222t227.5 -554t-227.5 -554t-561.5 -222q-51 0 -86.5 41t-35.5 98t35.5 98t86.5 41q201 0 344.5 147.5t143.5 350.5t-143.5 349t-344.5 146h-243v-1149q0 -51 -43 -86.5t-102.5 -35.5t-102.5 35.5t-43 86.5z" glyph-name="D" horiz-adv-x="1517" unicode="D"/><glyph d="M123 123v663q0 51 43 87t102 36h736q51 0 86.5 -42t35.5 -99t-35.5 -98t-86.5 -41h-590v-350h731q51 0 87 -41t36 -98.5t-36 -98.5t-87 -41h-877q-59 0 -102 36t-43 87zM123 1153v260q0 51 43 87t102 36h877q51 0 87 -42t36 -99.5t-36 -98.5t-87 -41h-731v-102 q0 -51 -43 -87t-102.5 -36t-102.5 36t-43 87z" glyph-name="E" horiz-adv-x="1333" unicode="E"/><glyph d="M123 106v680q0 51 43 87t102 36h701q51 0 87 -42t36 -99t-36 -98t-87 -41h-555v-523q0 -51 -43 -86.5t-102.5 -35.5t-102.5 35.5t-43 86.5zM123 1153v260q0 51 43 87t102 36h840q51 0 87 -42t36 -99.5t-36 -98.5t-87 -41h-694v-102q0 -51 -43 -87t-102.5 -36t-102.5 36 t-43 87z" glyph-name="F" horiz-adv-x="1245" unicode="F"/><glyph d="M883 770q0 57 34.5 98t83.5 41h359q59 0 102 -35.5t43 -87.5v-499q0 -45 -35 -80q-236 -242 -575 -242q-342 0 -582.5 231.5t-240.5 571.5t240.5 571.5t582.5 231.5q301 0 543 -213q35 -35 30.5 -88t-45.5 -94t-94 -46.5t-88 29.5q-147 131 -346 131 q-215 0 -368.5 -152.5t-153.5 -369.5t153.5 -370.5t368.5 -153.5q186 0 334 118v267h-228q-49 0 -83.5 41t-34.5 100z" glyph-name="G" horiz-adv-x="1619" unicode="G"/><glyph d="M1183.5 1552q59.5 0 102.5 -35.5t43 -86.5v-678q0 -51 -43 -87t-102 -36h-770v-523q0 -51 -43 -86.5t-102.5 -35.5t-102.5 35.5t-43 86.5v680q0 51 43 87t102 36h770v521q0 51 43 86.5t102.5 35.5zM1329 106q0 -51 -43 -86.5t-102.5 -35.5t-102.5 35.5t-43 86.5v279 q0 51 43 87t102.5 36t102.5 -36t43 -87v-279zM123 1430q0 51 43 86.5t102.5 35.5t102.5 -35.5t43 -86.5v-277q0 -51 -43 -87t-102.5 -36t-102.5 36t-43 87v277z" glyph-name="H" horiz-adv-x="1452" unicode="H"/><glyph d="M123 106v1324q0 51 43 86.5t102.5 35.5t102.5 -35.5t43 -86.5v-1324q0 -51 -43 -86.5t-102.5 -35.5t-102.5 35.5t-43 86.5z" glyph-name="I" horiz-adv-x="536" unicode="I"/><glyph d="M649 1430q0 51 43 86.5t102.5 35.5t102.5 -35.5t43 -86.5v-975q0 -213 -144.5 -351.5t-355.5 -138.5q-227 0 -372 176q-33 41 -24 97.5t56 91.5t100.5 31.5t82.5 -44.5q59 -72 157 -71q88 0 148.5 60.5t60.5 148.5v975z" glyph-name="J" horiz-adv-x="1062" unicode="J"/><glyph d="M834 768l477 -559q33 -37 24.5 -91.5t-53.5 -94.5q-45 -39 -98.5 -40t-85.5 40l-555 636q-41 45 -41 108.5t41 109.5l555 636q33 41 86 40t98 -40q45 -41 53 -95t-24 -91zM123 106v1324q0 51 43 86.5t102.5 35.5t102.5 -35.5t43 -86.5v-1324q0 -51 -43 -86.5 t-102.5 -35.5t-102.5 35.5t-43 86.5z" glyph-name="K" horiz-adv-x="1398" unicode="K"/><glyph d="M123 123v1307q0 51 43 86.5t102.5 35.5t102.5 -35.5t43 -86.5v-1151h659q51 0 87 -41t36 -98.5t-36 -98.5t-87 -41h-805q-59 0 -102 36t-43 87z" glyph-name="L" horiz-adv-x="1257" unicode="L"/><glyph d="M123 106v1311q0 57 52 96t126 39q109 0 156 -71l444 -559l449 565q51 66 153 65q74 0 125 -38.5t51 -96.5v-1311q0 -51 -43 -86.5t-102 -35.5t-102 35.5t-43 86.5v975h-7l-356 -467q-47 -63 -126 -63t-126 63l-354 467h-6v-975q0 -51 -43 -86.5t-102.5 -35.5t-102.5 35.5 t-43 86.5z" glyph-name="M" horiz-adv-x="1802" unicode="M"/><glyph d="M123 106v1313q0 55 50 94t122 39q117 0 160 -88l579 -954h6l-2 920q0 51 43 86.5t102.5 35.5t102.5 -35.5t43 -86.5v-1313q0 -55 -50 -94t-122 -39q-119 0 -160 82l-579 958h-6l2 -918q0 -51 -43 -86.5t-102.5 -35.5t-102.5 35.5t-43 86.5z" glyph-name="N" horiz-adv-x="1452" unicode="N"/><glyph d="M1419 768q0 217 -153.5 369.5t-370.5 152.5t-369.5 -152.5t-152.5 -369.5t152.5 -370.5t369.5 -153.5q219 0 371.5 152.5t152.5 371.5zM1718 768q0 -340 -240.5 -571.5t-582.5 -231.5q-344 0 -583.5 231.5t-239.5 571.5t239.5 571.5t583.5 231.5q342 0 582.5 -231.5 t240.5 -571.5z" glyph-name="O" horiz-adv-x="1789" unicode="O"/><glyph d="M657 768h142q100 0 171.5 71.5t71.5 172t-71.5 172t-171.5 71.5h-385v-1149q0 -51 -43 -86.5t-102.5 -35.5t-102.5 35.5t-43 86.5v1307q0 51 43 87t102 36h531q225 0 382.5 -150.5t157.5 -374t-157.5 -374t-382.5 -150.5h-142q-51 0 -86.5 42t-35.5 99.5t35.5 98.5 t86.5 41z" glyph-name="P" horiz-adv-x="1411" unicode="P"/><glyph d="M1288 580q55 98 55 204q0 209 -143 357.5t-344 148.5t-343 -148.5t-142 -357.5t142 -356t343 -147h643q51 0 87 -42t36 -99.5t-36 -98.5t-87 -41h-643q-326 0 -555 229.5t-229 555t229 556t555 230.5t556 -230.5t230 -556.5q0 -166 -77 -315q-25 -49 -74 -65.5t-109 6.5 q-57 25 -84.5 74t-9.5 96z" glyph-name="Q" horiz-adv-x="1792" unicode="Q"/><glyph d="M666 768h133q100 0 171.5 71.5t71.5 172t-71.5 172t-171.5 71.5h-385v-1149q0 -51 -43 -86.5t-102.5 -35.5t-102.5 35.5t-43 86.5v1307q0 51 43 87t102 36h531q225 0 382.5 -150.5t157.5 -373.5q0 -180 -113.5 -318.5t-285.5 -185.5l225 -313q29 -43 13.5 -97.5 t-64.5 -87.5t-104.5 -26.5t-83.5 49.5l-357 508q-27 41 -26 88q0 57 36 98t87 41z" glyph-name="R" horiz-adv-x="1421" unicode="R"/><glyph d="M289 358q186 -141 360 -141q125 0 202 63.5t77 163.5q0 74 -45 121t-118 68.5t-160 38t-174 43t-159.5 70.5t-117.5 133.5t-45 218.5q0 203 152.5 318.5t387.5 115.5q268 0 475 -137q43 -29 52.5 -79t-19.5 -102q-31 -51 -80 -69.5t-92 6.5q-172 106 -336 106 q-238 0 -237 -159q0 -72 45 -117t117.5 -66.5t159.5 -38t174 -44t160 -72.5t118 -135.5t45 -219.5q0 -221 -163 -350t-419 -129q-291 0 -514 156l-6 6q-41 31 -46 84t28 104q35 43 88 56.5t90 -13.5z" glyph-name="S" horiz-adv-x="1312" unicode="S"/><glyph d="M639 -16q-59 0 -102 35.5t-43 86.5v1307q0 51 43 87t102 36h489q51 0 87 -42t36 -99.5t-35.5 -98.5t-87.5 -41h-346v-1149q0 -51 -42 -86.5t-101 -35.5zM139 1255q-49 0 -84 41t-35 99q0 59 35 100t84 41h115q49 0 84 -41t35 -100q0 -57 -35 -98.5t-84 -41.5h-115z" glyph-name="T" horiz-adv-x="1271" unicode="T"/><glyph d="M123 1430q0 51 43 86.5t102.5 35.5t102.5 -35.5t43 -86.5v-895q0 -135 91 -216t230 -81t229.5 80.5t90.5 216.5v895q0 51 43 86.5t102.5 35.5t102.5 -35.5t43 -86.5v-895q0 -262 -171 -416t-440 -154q-270 0 -441 153.5t-171 416.5v895z" glyph-name="U" horiz-adv-x="1468" unicode="U"/><glyph d="M1399 1376l-504 -1292q-45 -98 -176 -98t-176 98l-504 1292q-16 47 9.5 96.5t80.5 71.5q57 18 110.5 1t73.5 -62l398 -1067h16l397 1067q20 45 73.5 62.5t111.5 -1.5q55 -23 80.5 -72t9.5 -96z" glyph-name="V" horiz-adv-x="1437" unicode="V"/><glyph d="M1157 1440l250 -920h8l256 950q12 47 62.5 69t107.5 7q57 -16 88 -62t17 -102l-371 -1300q-25 -63 -94.5 -88t-138 -0.5t-93.5 86.5l-256 934h-8l-256 -934q-25 -61 -93.5 -86t-138 -0.5t-94.5 88.5l-370 1300q-14 55 16.5 101.5t87.5 62.5q57 14 107.5 -7t62.5 -69 l256 -950h8l250 920q18 72 93 99.5t150 0t93 -99.5z" glyph-name="W" horiz-adv-x="1978" unicode="W"/><glyph d="M1098 1511q33 41 89 42t101 -35q47 -37 59.5 -91.5t-20.5 -95.5l-1020 -1306q-33 -39 -89 -41t-101 34q-47 37 -59.5 91.5t20.5 95.5zM307 1511l258 -329q33 -41 20.5 -95.5t-59.5 -91.5q-45 -37 -101 -34.5t-89 40.5l-258 330q-33 41 -20.5 95.5t59.5 91.5 q45 37 101 35.5t89 -42.5zM1069 535l258 -330q33 -41 20.5 -95.5t-59.5 -91.5q-45 -37 -101.5 -34.5t-88.5 41.5l-258 329q-33 41 -21 95.5t60 91.5q45 37 101 36t89 -42z" glyph-name="X" horiz-adv-x="1404" unicode="X"/><glyph d="M696.5 -16q-59.5 0 -102.5 35.5t-43 86.5v662q0 33 24 63l531 680q33 41 89 42t101 -35q47 -37 59.5 -91.5t-20.5 -95.5l-493 -633v-592q0 -51 -43 -86.5t-102.5 -35.5zM287 1511l270 -344q33 -41 20.5 -95t-59.5 -91q-45 -37 -101.5 -35t-88.5 41l-271 344 q-33 41 -20.5 95.5t59.5 91.5q45 37 101.5 35.5t89.5 -42.5z" glyph-name="Y" horiz-adv-x="1392" unicode="Y"/><glyph d="M61 184q0 90 56 142l784 925v4h-721q-49 0 -84 41t-35 98.5t35 99.5t84 42h946q63 0 108.5 -54.5t45.5 -129.5q0 -86 -57 -144l-781 -923v-4h719q49 0 84 -42t35 -99.5t-35 -98.5t-84 -41h-946q-63 0 -108.5 54t-45.5 130z" glyph-name="Z" unicode="Z"/><glyph d="M164 -258v1702q0 39 31.5 65.5t76.5 26.5h238q37 0 62.5 -30.5t25.5 -73.5t-25.5 -74t-62.5 -31h-137v-1468h137q37 0 62.5 -31t25.5 -74t-25.5 -73.5t-62.5 -30.5h-238q-45 0 -76.5 26.5t-31.5 65.5z" glyph-name="bracketleft" horiz-adv-x="643" unicode="["/><glyph d="M254 1516l600 -1434q10 -25 -3 -51.5t-42 -38.5q-27 -14 -55.5 -6t-40.5 34l-600 1434q-10 23 3 50.5t40 39.5q29 14 58.5 5.5t39.5 -33.5z" glyph-name="backslash" horiz-adv-x="966" unicode="\"/><glyph d="M479 1444v-1702q0 -39 -31.5 -65.5t-76.5 -26.5h-238q-37 0 -62.5 30.5t-25.5 73.5t25.5 74t62.5 31h137v1468h-137q-37 0 -62.5 31t-25.5 74t25.5 73.5t62.5 30.5h238q45 0 76.5 -26.5t31.5 -65.5z" glyph-name="bracketright" horiz-adv-x="643" unicode="]"/><glyph d="M307 764q-14 -31 -52 -39t-77 8q-39 18 -58.5 53t-4.5 64l327 643q37 59 123 59t127 -59l328 -643q14 -29 -5.5 -63.5t-58.5 -53.5q-39 -16 -76.5 -8t-52.5 39l-258 528h-4z" glyph-name="asciicircum" horiz-adv-x="1134" unicode="^"/><glyph d="M0 -186h1186v-52h-1186v52z" glyph-name="underscore" horiz-adv-x="1062" unicode="_"/><glyph d="M489 1335l-258 68q-63 16 -57 86q4 61 51 80q25 10 51 -2l240 -121q27 -14 30 -44t-14.5 -52.5t-42.5 -14.5z" glyph-name="grave" horiz-adv-x="718" unicode="`"/><glyph d="M932 16q-88 -51 -254 -51q-250 0 -423 180.5t-173 448.5q0 266 173 446.5t423 180.5q244 0 397 -207h4v65q0 51 41 87t100.5 36t101.5 -36t42 -87v-973q0 -51 -42 -86.5t-101.5 -35.5t-100.5 35.5t-41 86.5v488q0 143 -101 245.5t-247 102.5q-143 0 -245.5 -102.5 t-102.5 -245.5q0 -145 102.5 -247.5t245.5 -102.5q51 0 96 12q37 16 76 -7.5t61.5 -68.5t13.5 -94.5t-46 -69.5z" glyph-name="a" horiz-adv-x="1486" unicode="a"/><glyph d="M555 1169q88 51 254 52q250 0 424 -180.5t174 -448.5q0 -266 -174 -446.5t-424 -180.5q-244 0 -397 207h-4v-66q0 -51 -41 -86.5t-100.5 -35.5t-101.5 35.5t-42 86.5v1324q0 51 42 86.5t101.5 35.5t100.5 -35.5t41 -86.5v-838q0 -143 101 -245.5t247 -102.5 q143 0 246.5 102.5t103.5 245.5q0 145 -102.5 247.5t-247.5 102.5q-51 0 -97 -12q-37 -16 -75.5 7.5t-61 68.5t-13.5 94t46 69z" glyph-name="b" horiz-adv-x="1488" unicode="b"/><glyph d="M954 328q35 35 89.5 29.5t95.5 -46.5q43 -43 46 -97t-40 -93q-178 -156 -414 -156q-272 0 -460.5 181.5t-188.5 447.5t188.5 446.5t460.5 180.5q244 0 414 -154q43 -41 41 -93t-47 -97q-41 -41 -95.5 -46.5t-89.5 29.5q-94 82 -223 82q-143 0 -245.5 -102.5 t-102.5 -245.5t102.5 -245.5t245.5 -102.5q129 0 223 82z" glyph-name="c" horiz-adv-x="1255" unicode="c"/><glyph d="M934 16q-88 -51 -254 -51q-250 0 -424 180.5t-174 448.5q0 266 174 446.5t424 180.5q244 0 397 -207h4v416q0 51 41 86.5t100.5 35.5t101.5 -35.5t42 -86.5v-1324q0 -51 -42 -86.5t-101.5 -35.5t-100.5 35.5t-41 86.5v488q0 143 -101 245.5t-247 102.5 q-143 0 -246.5 -102.5t-103.5 -245.5t103.5 -246.5t246.5 -103.5q49 0 96 12q37 16 76 -7.5t61.5 -68.5t13.5 -94.5t-46 -69.5z" glyph-name="d" horiz-adv-x="1488" unicode="d"/><glyph d="M492 588q0 51 31.5 88t76.5 37h455q-37 109 -125 172t-201 63q-141 0 -243.5 -105.5t-102.5 -248.5q0 -147 104.5 -258t251.5 -111q80 0 164 29t137 76q31 35 81 33.5t89 -37.5q39 -33 47.5 -84.5t-20.5 -83.5q-92 -92 -225 -142.5t-273 -50.5q-279 0 -468 180.5 t-189 448.5q0 266 188.5 446.5t458.5 180.5q264 0 450.5 -182.5t186.5 -444.5q0 -51 -43 -92t-102 -41h-621q-45 0 -76.5 38t-31.5 89z" glyph-name="e" horiz-adv-x="1447" unicode="e"/><glyph d="M592 1280q-37 25 -60 25q-29 0 -49 -21.5t-20 -48.5v-49h102q45 0 77 -38t32 -89t-32 -89t-77 -38h-424q-45 0 -76.5 38t-31.5 89t31.5 89t76.5 38h35v55q0 141 104.5 235.5t251.5 94.5q127 0 232 -90q35 -29 37 -82t-31 -94q-35 -43 -86 -48.5t-92 23.5zM319.5 829 q57.5 0 100.5 -35.5t43 -84.5v-605q0 -49 -43 -84.5t-100.5 -35.5t-100.5 35.5t-43 84.5v605q0 49 43 84.5t100.5 35.5z" glyph-name="f" horiz-adv-x="835" unicode="f"/><glyph d="M686 279q57 0 109 20q39 16 86 0t67 -57q43 -88 -33 -154q-92 -76 -229 -80q-250 10 -427 191.5t-177 431.5q0 254 182 422t434 168q227 0 383 -187h4v53q0 49 38 82t93.5 33t94.5 -32.5t39 -82.5v-827q0 -264 -197 -454.5t-467 -190.5q-217 0 -424 106q-43 23 -53 75 t18 102q27 49 76 69.5t90 -0.5q147 -82 293 -82q133 0 256 92.5t123 217.5v415q0 137 -97.5 234.5t-234.5 97.5q-139 0 -244.5 -93t-105.5 -228.5t88 -238.5t215 -103z" glyph-name="g" horiz-adv-x="1472" unicode="g"/><glyph d="M410 1430v-1324q0 -51 -42 -86.5t-101.5 -35.5t-101.5 35.5t-42 86.5v1324q0 51 42 86.5t101.5 35.5t101.5 -35.5t42 -86.5zM932 106v574q0 125 -68.5 200.5t-191.5 61.5l-39 -4q-41 -4 -76 26.5t-45 79.5q-10 51 10.5 91.5t61.5 54.5q74 31 176 31q207 0 333 -139.5 t126 -364.5v-611q0 -51 -42 -86.5t-101.5 -35.5t-101.5 35.5t-42 86.5z" glyph-name="h" unicode="h"/><glyph d="M123 106v973q0 51 42 87t101.5 36t101.5 -36t42 -87v-973q0 -51 -42 -86.5t-101.5 -35.5t-101.5 35.5t-42 86.5zM104 1417.5q0 67.5 47.5 114.5t115 47t114.5 -47t47 -114.5t-47 -115t-114.5 -47.5t-115 47.5t-47.5 115z" glyph-name="i" horiz-adv-x="532" unicode="i"/><glyph d="M250 1079q0 51 42 87t101.5 36t101.5 -36t42 -87v-1114q0 -145 -106.5 -247.5t-250.5 -102.5q-131 0 -227 84q-39 33 -41 85t35 93q35 47 86 57.5t88 -22.5q43 -27 59 -27q29 0 49.5 20.5t20.5 51.5v1122zM231 1417.5q0 67.5 47.5 114.5t115 47t114.5 -47t47 -114.5 t-47 -115t-114.5 -47.5t-115 47.5t-47.5 115z" glyph-name="j" horiz-adv-x="659" unicode="j"/><glyph d="M123 106v1324q0 51 42 86.5t101.5 35.5t101.5 -35.5t42 -86.5v-1324q0 -51 -42 -86.5t-101.5 -35.5t-101.5 35.5t-42 86.5zM823 594l351 -391q33 -35 24.5 -88.5t-53.5 -94.5q-45 -37 -96.5 -37.5t-83.5 37.5l-426 467q-41 47 -41 106.5t41 106.5l422 465q33 39 84 38 t96 -38q45 -41 53 -94t-25 -88z" glyph-name="k" horiz-adv-x="1230" unicode="k"/><glyph d="M123 106v1324q0 51 42 86.5t101.5 35.5t101.5 -35.5t42 -86.5v-1324q0 -51 -42 -86.5t-101.5 -35.5t-101.5 35.5t-42 86.5z" glyph-name="l" horiz-adv-x="532" unicode="l"/><glyph d="M1532 106v627q0 88 -61.5 148.5t-149.5 60.5q-16 0 -47 -6q-41 -10 -79 16.5t-52 77.5q-23 90 47 135q84 55 182 56q197 0 322 -137.5t125 -350.5v-627q0 -51 -42 -86.5t-101.5 -35.5t-101.5 35.5t-42 86.5zM594 1210q37 10 74 11q197 0 321.5 -137.5t124.5 -350.5v-627 q0 -51 -42 -86.5t-101.5 -35.5t-101.5 35.5t-42 86.5v627q0 88 -52 146.5t-138 60.5q-41 -4 -78 28.5t-47 84.5q-12 55 12.5 101t69.5 56zM123 106v973q0 51 42 87t101.5 36t101.5 -36t42 -87v-973q0 -51 -42 -86.5t-101.5 -35.5t-101.5 35.5t-42 86.5z" glyph-name="m" horiz-adv-x="1941" unicode="m"/><glyph d="M410 1079v-973q0 -51 -42 -86.5t-101.5 -35.5t-101.5 35.5t-42 86.5v973q0 51 42 87t101.5 36t101.5 -36t42 -87zM932 106v574q0 125 -68.5 200.5t-191.5 61.5l-39 -4q-41 -4 -76 26.5t-45 79.5q-10 51 10.5 91.5t61.5 54.5q74 31 176 31q207 0 333 -139.5t126 -364.5 v-611q0 -51 -42 -86.5t-101.5 -35.5t-101.5 35.5t-42 86.5z" glyph-name="n" unicode="n"/><glyph d="M1079 594q0 143 -102.5 245.5t-247.5 102.5q-143 0 -244.5 -102.5t-101.5 -245.5q0 -145 101.5 -247.5t244.5 -102.5q145 0 247.5 102.5t102.5 247.5zM1378 594q0 -268 -188.5 -448.5t-460.5 -180.5q-270 0 -458.5 180.5t-188.5 448.5q0 266 188.5 446.5t458.5 180.5 q272 0 460.5 -180.5t188.5 -446.5z" glyph-name="o" horiz-adv-x="1460" unicode="o"/><glyph d="M555 1169q88 51 254 52q250 0 424 -180.5t174 -448.5q0 -266 -174 -446.5t-424 -180.5q-244 0 -397 207h-4v-416q0 -51 -41 -87t-100.5 -36t-101.5 36t-42 87v1323q0 51 42 87t101.5 36t100.5 -36t41 -87v-487q0 -143 101 -245.5t247 -102.5q143 0 246.5 102.5 t103.5 245.5q0 145 -102.5 247.5t-247.5 102.5q-51 0 -97 -12q-37 -16 -75.5 7.5t-61 68.5t-13.5 94t46 69z" glyph-name="p" horiz-adv-x="1488" unicode="p"/><glyph d="M934 16q-88 -51 -254 -51q-250 0 -424 180.5t-174 448.5q0 266 174 446.5t424 180.5q244 0 397 -207h4v65q0 51 41 87t100.5 36t101.5 -36t42 -87v-1323q0 -51 -42 -87t-101.5 -36t-100.5 36t-41 87v838q0 143 -101 245.5t-247 102.5q-143 0 -246.5 -102.5t-103.5 -245.5 t103.5 -246.5t246.5 -103.5q49 0 96 12q37 16 76 -7.5t61.5 -68.5t13.5 -94.5t-46 -69.5z" glyph-name="q" horiz-adv-x="1488" unicode="q"/><glyph d="M123 778v301q0 51 42 87t101.5 36t101.5 -36t42 -87v-24h4q131 166 315 166q70 0 103.5 -10.5t87.5 -41.5q37 -20 46 -69t-13.5 -94t-61.5 -69t-76 -7q-45 12 -96 12q-104 0 -190.5 -57.5t-127.5 -149.5q-39 -80 -135 -80q-59 0 -101 36t-42 87zM123 106v324q0 51 42 87 t101.5 36t101.5 -36t42 -87v-324q0 -51 -42 -86.5t-101.5 -35.5t-101.5 35.5t-42 86.5z" glyph-name="r" horiz-adv-x="989" unicode="r"/><glyph d="M262 303q141 -78 326 -88q231 0 231 123q0 63 -52 96t-131 40t-171 24.5t-171 45t-131 107.5t-52 207q0 176 125.5 269.5t351.5 93.5q207 0 387 -88q37 -16 49 -61.5t-8 -92.5q-23 -47 -66 -67.5t-82 -0.5q-127 61 -280 62q-182 0 -182 -115q0 -59 53 -91t132 -40 t171 -27.5t171 -48t132 -108.5t53 -205q0 -186 -147.5 -279.5t-382.5 -93.5q-256 0 -453 109q-37 23 -48 71t13 95q27 49 73 67.5t89 -4.5z" glyph-name="s" horiz-adv-x="1181" unicode="s"/><glyph d="M319.5 829q57.5 0 100.5 -35.5t43 -84.5v-359q0 -31 20.5 -51t48.5 -20h33q45 0 77 -41t32 -98.5t-32 -98.5t-77 -41h-53q-174 0 -255 86t-81 264v359q0 49 43 84.5t100.5 35.5zM176 1186v164q0 49 43 84.5t100.5 35.5t100.5 -35.5t43 -84.5v-164h102q45 0 77 -38t32 -89 t-32 -89t-77 -38h-424q-45 0 -76.5 38t-31.5 89t31.5 89t76.5 38h35z" glyph-name="t" horiz-adv-x="727" unicode="t"/><glyph d="M932 106v973q0 51 42 87t101.5 36t101.5 -36t42 -87v-973q0 -51 -42 -86.5t-101.5 -35.5t-101.5 35.5t-42 86.5zM410 1079v-573q0 -125 68.5 -201t191.5 -61l39 4q41 4 75.5 -27t44.5 -80q10 -51 -10 -91t-61 -54q-74 -31 -176 -31q-207 0 -333 139.5t-126 364.5v610 q0 51 42 87t101.5 36t101.5 -36t42 -87z" glyph-name="u" unicode="u"/><glyph d="M778 72q-41 -88 -153.5 -88t-153.5 88l-436 942q-23 47 0.5 97t77.5 75q53 27 106 11.5t76 -62.5l330 -695l329 695q23 47 76 62t107 -11q53 -25 76.5 -75t0.5 -97z" glyph-name="v" horiz-adv-x="1249" unicode="v"/><glyph d="M1829 1026l-371 -960q-10 -35 -52 -58.5t-95 -23.5q-55 0 -97.5 23.5t-52.5 58.5l-231 608l-232 -608q-10 -35 -52 -58.5t-95 -23.5q-55 0 -97 23.5t-53 58.5l-368 960q-20 47 6.5 95t83.5 69q55 20 107.5 2t70.5 -66l250 -682l252 689q10 31 45 50t82 19q98 0 125 -69 l256 -689l250 682q18 47 70 65.5t108 -1.5q57 -20 83.5 -68.5t6.5 -95.5z" glyph-name="w" horiz-adv-x="1861" unicode="w"/><glyph d="M287 20q-35 -39 -89.5 -37.5t-99.5 42.5q-45 39 -52 94t28 92l862 954q35 39 89 38t99 -42q45 -39 52.5 -94t-27.5 -92zM260 768l-186 207q-35 37 -28 92t52 94q45 41 99.5 42t89.5 -38l186 -207q35 -37 28 -92t-52 -94q-45 -41 -99.5 -42t-89.5 38zM936 20l-186 207 q-35 37 -28 92.5t52 94.5q45 41 99.5 42t89.5 -38l186 -207q35 -37 27.5 -92.5t-52.5 -93.5q-45 -41 -99 -42.5t-89 37.5z" glyph-name="x" horiz-adv-x="1222" unicode="x"/><glyph d="M418 -352q-53 25 -77 75t-1 97l614 1315q23 47 76 62t107 -11q53 -25 76.5 -75t0.5 -97l-614 -1315q-23 -47 -76 -62.5t-106 11.5zM473 414q-53 -27 -106.5 -11.5t-75.5 62.5l-256 549q-23 47 0.5 97t77.5 75q53 27 106 11.5t76 -62.5l256 -549q23 -47 -1 -97t-77 -75z " glyph-name="y" horiz-adv-x="1249" unicode="y"/><glyph d="M1118 129q0 -53 -31.5 -91t-76.5 -38h-836q-45 0 -79 39t-34 90q0 53 41 98l566 695v4h-498q-45 0 -77 39t-32 92t32 91t77 38h836q45 0 76.5 -38t31.5 -91q0 -57 -37 -99l-565 -694v-4h498q45 0 76.5 -39t31.5 -92z" glyph-name="z" horiz-adv-x="1179" unicode="z"/><glyph d="M741 1432q0 -43 -25.5 -74t-62.5 -31q-45 0 -74.5 -30.5t-29.5 -75.5v-418q0 -121 -117 -209q117 -92 117 -209v-420q0 -45 29.5 -75.5t74.5 -30.5q37 0 62.5 -31t25.5 -74t-25.5 -73.5t-62.5 -30.5q-131 0 -223 92t-92 223v420q0 41 -29.5 71.5t-72.5 30.5h-17 q-37 0 -62.5 31t-25.5 74t25.5 73.5t62.5 30.5h17q43 0 72.5 32t29.5 75v418q0 131 92 223t223 92q37 0 62.5 -30.5t25.5 -73.5z" glyph-name="braceleft" horiz-adv-x="786" unicode="{"/><glyph d="M246 -305v1796q0 27 21.5 44t50 17t50 -17t21.5 -44v-1796q0 -27 -21.5 -44.5t-50 -17.5t-50 17.5t-21.5 44.5z" glyph-name="bar" horiz-adv-x="634" unicode="|"/><glyph d="M45 1432q0 43 25.5 73.5t62.5 30.5q131 0 223.5 -92t92.5 -223v-418q0 -43 29.5 -75t72.5 -32h16q37 0 62.5 -30.5t25.5 -73.5t-25.5 -74t-62.5 -31h-16q-43 0 -72.5 -30.5t-29.5 -71.5v-420q0 -131 -92.5 -223t-223.5 -92q-37 0 -62.5 30.5t-25.5 73.5t25.5 74t62.5 31 q45 0 75 30.5t30 75.5v420q0 117 116 209q-117 88 -116 209v418q0 45 -30 75.5t-75 30.5q-37 0 -62.5 31t-25.5 74z" glyph-name="braceright" horiz-adv-x="786" unicode="}"/><glyph d="M944 657q-14 -137 -133 -200q-92 -53 -191.5 -25.5t-154.5 121.5q-23 37 -60.5 48t-72.5 -9q-39 -16 -47 -78q-4 -35 -30 -54.5t-60 -15.5q-33 4 -53.5 29t-16.5 55q14 137 133 201q92 53 191.5 25.5t154.5 -121.5q23 -37 60.5 -48.5t72.5 9.5q39 16 47 78q4 35 30 54 t60 15q33 -4 53.5 -28.5t16.5 -55.5z" glyph-name="asciitilde" horiz-adv-x="1069" unicode="~"/><glyph glyph-name="uni00A0" horiz-adv-x="1024" unicode=" "/><glyph d="M123 104l29 938q0 39 33.5 67t78.5 28t78 -28t33 -67l28 -938q0 -49 -40.5 -83.5t-98 -34.5t-99.5 34.5t-42 83.5zM422 1395q0 -63 -46 -108.5t-111.5 -45.5t-112 45t-46.5 109q0 68 46.5 112.5t112 44.5t111.5 -44.5t46 -112.5z" glyph-name="exclamdown" horiz-adv-x="528" unicode="¡"/><glyph d="M283 139q-201 180 -201 454.5t201 455.5q35 35 90 28.5t96 -49.5q43 -45 47 -99.5t-33 -88.5q-100 -100 -100 -245.5t100 -246.5q37 -35 33 -89t-47 -99q-41 -43 -96 -49.5t-90 28.5zM731 246q129 0 223 82q35 35 89.5 29.5t95.5 -46.5q45 -45 47 -97t-41 -93 q-117 -104 -275 -139v-109q0 -35 -41 -60.5t-98 -25.5t-98 25.5t-41 60.5v287q0 35 41 60.5t98 25.5zM731 942q-57 0 -98 25.5t-41 60.5v287q0 35 41 60.5t98 25.5t98 -25.5t41 -60.5v-109q158 -35 275 -139q43 -41 41 -93t-47 -97q-41 -41 -95.5 -46.5t-89.5 29.5 q-94 82 -223 82z" glyph-name="cent" horiz-adv-x="1255" unicode="¢"/><glyph d="M123 123v592q0 51 43 87t102 36h594q51 0 87 -42t36 -99.5t-36 -98.5t-87 -41h-448v-278h590q51 0 86.5 -41t35.5 -98.5t-35.5 -98.5t-86.5 -41h-736q-59 0 -102 36t-43 87zM414 1069q0 -47 -43 -81t-102.5 -34t-102.5 34t-43 81q0 207 147.5 354.5t354 147.5t354 -147.5 t147.5 -354.5q0 -47 -43 -81t-102 -34t-102 34t-43 81q0 88 -61.5 149.5t-149.5 61.5t-149.5 -61.5t-61.5 -149.5z" glyph-name="sterling" horiz-adv-x="1198" unicode="£"/><glyph d="M1386 594q0 -213 -124 -377l65 -65q25 -27 22 -67t-34 -69q-29 -31 -69 -33.5t-66 21.5l-72 70q-162 -109 -371 -109t-370 109l-70 -70q-27 -25 -67 -21.5t-68 33.5q-31 29 -34 69t22 67l65 65q-125 160 -125 377q0 207 125 375l-65 65q-25 27 -22 67t34 68 q29 31 68.5 34t66.5 -21l70 -70q162 109 370 109q205 0 371 -111l72 72q27 25 66.5 21.5t68.5 -34.5q31 -29 34 -68.5t-22 -66.5l-65 -65q124 -168 124 -375zM1087 594q0 143 -102 245.5t-248 102.5q-143 0 -244.5 -102.5t-101.5 -245.5q0 -145 101.5 -247.5t244.5 -102.5 q145 0 247.5 102.5t102.5 247.5z" glyph-name="currency" horiz-adv-x="1476" unicode="¤"/><glyph d="M1196 946h-176l-178 -219v-621q0 -51 -43 -86.5t-102.5 -35.5t-102.5 35.5t-43 86.5v691q0 33 24 63l531 651q33 41 89 42t101 -35q47 -37 59.5 -91.5t-20.5 -95.5l-172 -209h33q31 0 51.5 -25.5t20.5 -62.5t-20.5 -62.5t-51.5 -25.5zM287 1511l270 -344q33 -41 20.5 -95 t-59.5 -91q-43 -35 -106 -35h-219q-31 0 -51.5 25.5t-20.5 62.5t20.5 62.5t51.5 25.5h28l-164 209q-33 41 -20.5 95.5t59.5 91.5q45 37 101.5 35.5t89.5 -42.5zM1196 608h-184q-31 0 -51.5 25.5t-20.5 62.5t20.5 62.5t51.5 25.5h184q31 0 51.5 -25.5t20.5 -62.5t-20.5 -62.5 t-51.5 -25.5zM377 608h-184q-31 0 -51.5 25.5t-20.5 62.5t20.5 62.5t51.5 25.5h184q31 0 51.5 -25.5t20.5 -62.5t-20.5 -62.5t-51.5 -25.5z" glyph-name="yen" horiz-adv-x="1392" unicode="¥"/><glyph d="M227 682q-43 0 -73.5 25.5t-30.5 60.5v455q0 35 30.5 60.5t73.5 25.5t74 -26t31 -60v-455q0 -35 -31 -60.5t-74 -25.5zM227 -119q-43 0 -73.5 25.5t-30.5 60.5v453q0 35 30.5 60.5t73.5 25.5t74 -25.5t31 -60.5v-453q0 -35 -31 -60.5t-74 -25.5z" glyph-name="brokenbar" horiz-adv-x="454" unicode="¦"/><glyph d="M1077 602q0 -72 -46 -105.5t-120 -25.5q-55 6 -94 42t-37 81q2 68 -54 113t-138 45q-209 0 -347.5 113.5t-138.5 287.5q0 184 137.5 301t348.5 117q162 0 287.5 -83t168.5 -212q18 -45 -8 -92t-82 -68q-51 -20 -101 -4t-71 62q-53 117 -194 116q-82 0 -135.5 -35.5 t-53.5 -105.5q0 -63 56.5 -100t132.5 -37q213 0 351 -112t138 -298zM102 586q0 72 46.5 105.5t119.5 25.5q55 -6 94 -42t37 -81q-2 -68 54.5 -113t138.5 -45q209 0 347 -113.5t138 -287.5q0 -184 -137 -301t-348 -117q-162 0 -288 83t-169 212q-18 45 8.5 92t81.5 68 q51 20 101.5 3.5t70.5 -61.5q53 -117 195 -116q82 0 135 35.5t53 105.5q0 63 -56 100t-132 37q-213 0 -351.5 112t-138.5 298z" glyph-name="section" horiz-adv-x="1179" unicode="§"/><glyph d="M240 1466q0 -43 -31 -73.5t-72 -30.5q-45 0 -75.5 30.5t-30.5 73.5t30.5 74t75.5 31q41 0 72 -31t31 -74zM645 1466q0 -43 -29.5 -73.5t-74.5 -30.5q-43 0 -74 30.5t-31 73.5t31 74t74 31q45 0 74.5 -31t29.5 -74z" glyph-name="dieresis" horiz-adv-x="675" unicode="¨"/><glyph d="M1264 594q0 229 -162 391t-393 162q-229 0 -391 -162t-162 -391t161.5 -392t391.5 -163q231 0 393 163t162 392zM1337 594q0 -262 -183 -445.5t-445 -183.5q-260 0 -443.5 184.5t-183.5 444.5t183.5 443.5t443.5 183.5t444 -183.5t184 -443.5zM905 424q16 20 44 21 t50 -19q23 -18 27 -46t-12 -46q-125 -141 -303 -141q-172 0 -292 115.5t-120 285.5t120 285.5t292 115.5q174 0 303 -141q16 -18 12 -47t-26.5 -47.5t-50 -17.5t-44.5 20q-96 92 -194 92q-109 0 -185.5 -76t-76.5 -184.5t76.5 -185t185.5 -76.5q59 0 102 22.5t92 69.5z" glyph-name="copyright" horiz-adv-x="1419" unicode="©"/><glyph d="M508 969q-47 -27 -127 -27q-125 0 -212 90t-87 225q0 133 87 223.5t212 90.5q121 0 199 -105h2v33q0 27 20.5 44.5t48.5 17.5q31 0 51.5 -17.5t20.5 -44.5v-485q0 -27 -20.5 -44.5t-51.5 -17.5q-29 0 -49 17.5t-20 44.5v243q0 72 -51.5 123.5t-123 51.5t-123 -51.5 t-51.5 -123t51.5 -124t123.5 -52.5q27 0 47 6q39 18 69 -36q10 -23 6 -47.5t-22 -34.5z" glyph-name="ordfeminine" horiz-adv-x="825" unicode="ª"/><glyph d="M90 662l305 305q25 27 65 22.5t72 -35.5q29 -31 33 -70.5t-22 -66.5l-224 -223l228 -232q27 -25 23.5 -64.5t-31.5 -68.5q-31 -29 -70 -31.5t-63 23.5l-304 303q-31 31 -35 71t23 67zM520 662l305 305q25 27 65 22.5t73 -35.5q29 -31 32.5 -70.5t-22.5 -66.5l-223 -223 l227 -232q27 -25 23.5 -64.5t-31.5 -68.5q-31 -29 -70 -31.5t-63 23.5l-304 303q-31 31 -35 71t23 67z" glyph-name="guillemotleft" horiz-adv-x="1067" unicode="«"/><glyph d="M682 334q-43 0 -73.5 26.5t-30.5 63.5v63h-381q-37 0 -64 31t-27 74t27 73.5t64 30.5h485q43 0 73.5 -26.5t30.5 -63.5v-182q0 -37 -30.5 -63.5t-73.5 -26.5z" glyph-name="logicalnot" horiz-adv-x="909" unicode="¬"/><glyph d="M571 1327q0 -100 -71.5 -173t-171.5 -73q-102 0 -174 72t-72 174q0 100 72.5 172t173 72t172 -72t71.5 -172zM543 1327q0 88 -62.5 150.5t-152.5 62.5t-153.5 -62.5t-63.5 -150.5q0 -90 63.5 -153.5t153.5 -63.5t152.5 63.5t62.5 153.5zM459 1174h-64l-57 114h-68v-114 h-55v313h141q43 0 73 -28.5t30 -69.5q0 -63 -62 -95zM270 1343h86q20 0 32.5 13.5t12.5 32.5q0 16 -12 28.5t-33 12.5h-86v-87z" glyph-name="registered" horiz-adv-x="653" unicode="®"/><glyph d="M106 1456q0 33 18.5 56.5t47.5 23.5h285q29 0 47 -23.5t18 -56.5t-18.5 -56.5t-46.5 -23.5h-285q-29 0 -47.5 23.5t-18.5 56.5z" glyph-name="macron" horiz-adv-x="628" unicode="¯"/><glyph d="M399 1362q0 35 -25.5 60.5t-62.5 25.5q-35 0 -60.5 -25.5t-25.5 -60.5q0 -37 25.5 -62.5t60.5 -25.5q37 0 62.5 25.5t25.5 62.5zM520 1362q0 -86 -60.5 -147.5t-148.5 -61.5q-86 0 -147.5 61.5t-61.5 147.5q0 88 61.5 148.5t147.5 60.5q88 0 148.5 -60.5t60.5 -148.5z " glyph-name="degree" horiz-adv-x="622" unicode="°"/><glyph d="M698 334q-43 0 -73.5 25.5t-30.5 60.5v244h-422q-35 0 -60.5 30.5t-25.5 73.5t25.5 73.5t60.5 30.5h422v244q0 35 30.5 60.5t73.5 25.5t74 -25.5t31 -60.5v-244h418q35 0 60.5 -30.5t25.5 -73.5t-26 -73.5t-60 -30.5h-418v-244q0 -35 -31 -60.5t-74 -25.5zM86 104 q0 43 25.5 74t60.5 31h1049q35 0 60.5 -31t25.5 -74t-26 -73.5t-60 -30.5h-1049q-35 0 -60.5 30.5t-25.5 73.5z" glyph-name="plusminus" horiz-adv-x="1392" unicode="±"/><glyph d="M82 1290q0 113 78 187.5t192 74.5q117 0 195 -69.5t78 -182t-103 -196.5l-215 -197h242q25 0 42 -20.5t17 -49t-17.5 -49t-41.5 -20.5h-377q-31 0 -53.5 25.5t-22.5 62.5q0 47 35 76l301 276q43 43 43 92q0 51 -36 83t-87 32q-49 0 -84 -36t-37 -89q0 -27 -22.5 -45 t-53 -18t-52 18t-21.5 45z" glyph-name="uni00B2" horiz-adv-x="706" unicode="²"/><glyph d="M418 1106q-18 14 -18.5 43t16.5 49q18 23 44.5 29t47.5 -8q102 -76 102 -207q0 -111 -78.5 -185.5t-191.5 -74.5q-94 0 -166 58t-90 146q-6 23 10.5 44.5t44.5 27.5q27 6 51.5 -7t28.5 -36q10 -41 43 -68.5t78 -27.5q49 0 85 36t36 87t-43 94zM195 1241l157 158h-172 q-25 0 -42 19.5t-17 48t17.5 49t41.5 20.5h340q27 0 44.5 -21.5t17.5 -50.5q0 -35 -23 -57l-266 -264q-16 -16 -43 -13t-47.5 23.5t-22 46t14.5 41.5z" glyph-name="uni00B3" horiz-adv-x="692" unicode="³"/><glyph d="M487 1403l-258 -68q-25 -8 -42 14.5t-14 52.5t30 44l239 121q57 25 90 -33q31 -59 -4 -104q-14 -19 -41 -27z" glyph-name="acute" horiz-adv-x="718" unicode="´"/><glyph d="M410 1079v-573q0 -111 76.5 -192t183.5 -70l39 4q41 4 75.5 -27t44.5 -80q10 -51 -10 -91t-61 -54q-74 -31 -156 -31q-100 0 -192 78v-287q0 -51 -42 -87t-101.5 -36t-101.5 36t-42 87v1323q0 51 42 87t101.5 36t101.5 -36t42 -87zM932 106v973q0 51 42 87t101.5 36 t101.5 -36t42 -87v-973q0 -51 -42 -86.5t-101.5 -35.5t-101.5 35.5t-42 86.5z" glyph-name="uni00B5" unicode="µ"/><glyph d="M909 1255h-123v-1181q0 -37 -30.5 -63.5t-73.5 -26.5t-73.5 26.5t-30.5 63.5v1339q0 51 43 87t102 36h250q59 0 102 -36t43 -87v-1339q0 -37 -30.5 -63.5t-73.5 -26.5t-74 26.5t-31 63.5v1181zM297 1546q45 16 92 -11.5t70 -80.5q18 -49 7 -95t-48 -73q-66 -41 -66 -121 t66 -121q37 -27 48 -72.5t-7 -94.5q-23 -53 -70 -81t-92 -12q-111 51 -178.5 151.5t-67.5 229.5t67.5 229.5t178.5 151.5z" glyph-name="paragraph" horiz-adv-x="1241" unicode="¶"/><glyph d="M229.5 436q-65.5 0 -111.5 46t-46 111.5t46 112t111.5 46.5t111.5 -46.5t46 -112t-46 -111.5t-111.5 -46z" glyph-name="periodcentered" horiz-adv-x="561" unicode="·"/><glyph d="M207 -291q-6 18 6 34.5t30.5 21t34 -4t19.5 -24.5q20 -61 84 -62q35 0 60.5 25t25.5 61q0 35 -25.5 60.5t-60.5 25.5q-25 0 -51 -18q-29 -20 -54 -12q-20 2 -34.5 19.5t-10.5 33.5l23 131h92l-12 -78q18 10 61 10q80 0 126 -48t46 -123.5t-54 -127t-132 -51.5 q-63 0 -110.5 35t-63.5 92z" glyph-name="cedilla" horiz-adv-x="772" unicode="¸"/><glyph d="M233 821v541l-77 -49q-20 -12 -44 -4t-38.5 30.5t-10 47t22.5 34.5l176 111q18 12 43 12q31 0 51.5 -17.5t20.5 -43.5v-662q0 -25 -20.5 -43t-51.5 -18q-29 0 -50.5 18t-21.5 43z" glyph-name="uni00B9" horiz-adv-x="479" unicode="¹"/><glyph d="M582 1259.5q0 71.5 -51.5 123t-124.5 51.5q-70 0 -121.5 -51.5t-51.5 -123t51.5 -124t121.5 -52.5q74 0 125 52.5t51 124zM731 1260q0 -135 -95 -225.5t-230.5 -90.5t-229.5 91t-94 224.5t94 223.5t229.5 90t230.5 -90t95 -223z" glyph-name="ordmasculine" horiz-adv-x="813" unicode="º"/><glyph d="M672 967l305 -305q27 -27 22.5 -67t-34.5 -71l-303 -303q-25 -27 -64 -23.5t-70 31.5q-29 29 -31.5 69t23.5 64l228 232l-224 223q-27 27 -22.5 67t33.5 70q33 31 72.5 35.5t64.5 -22.5zM242 967l305 -305q27 -27 22.5 -67t-34.5 -71l-304 -303q-25 -27 -63.5 -23.5 t-69.5 31.5q-29 29 -32 69t24 64l227 232l-223 223q-27 27 -22.5 67t32.5 70q33 31 73 35.5t65 -22.5z" glyph-name="guillemotright" horiz-adv-x="1067" unicode="»"/><glyph d="M233 821v541l-77 -49q-20 -12 -44 -4t-38.5 30.5t-10 47t22.5 34.5l176 111q18 12 43 12q31 0 51.5 -17.5t20.5 -43.5v-662q0 -25 -20.5 -43t-51.5 -18q-29 0 -50.5 18t-21.5 43zM289 55l614 1471q8 20 29.5 26.5t42.5 -4.5q51 -23 35 -67l-615 -1471q-8 -20 -29.5 -26.5 t-41.5 4.5q-51 22 -35 67zM1049 401v125l-179 -247h359q25 0 42 -20.5t17 -49.5t-17.5 -49.5t-41.5 -20.5h-35v-86q0 -25 -21.5 -43t-50.5 -18q-31 0 -52 18.5t-21 42.5v86h-263q-35 0 -58 28t-23 66q0 35 20 62l303 444q27 37 78 37q37 0 62.5 -21.5t25.5 -54.5v-299 q0 -27 -21.5 -44t-50.5 -17q-31 0 -52 17t-21 44z" glyph-name="onequarter" horiz-adv-x="1329" unicode="¼"/><glyph d="M233 821v541l-77 -49q-20 -12 -44 -4t-38.5 30.5t-10 47t22.5 34.5l176 111q18 12 43 12q31 0 51.5 -17.5t20.5 -43.5v-662q0 -25 -20.5 -43t-51.5 -18q-29 0 -50.5 18t-21.5 43zM289 55l614 1471q8 20 29.5 26.5t42.5 -4.5q51 -23 35 -67l-615 -1471q-8 -20 -29.5 -26.5 t-41.5 4.5q-51 22 -35 67zM829 522q0 113 78 187.5t193 74.5q117 0 194.5 -69.5t77.5 -182t-102 -196.5l-215 -197h241q25 0 42.5 -20.5t17.5 -49t-17.5 -49t-42.5 -20.5h-376q-31 0 -53.5 25.5t-22.5 62.5q0 47 35 76l301 276q43 43 43 92q0 51 -36 83t-87 32 q-49 0 -84 -36t-37 -89q0 -27 -22.5 -45t-53.5 -18t-52.5 18t-21.5 45z" glyph-name="onehalf" horiz-adv-x="1454" unicode="½"/><glyph d="M428 55l614 1471q8 20 30 26.5t42 -4.5q51 -23 35 -67l-614 -1471q-8 -20 -30 -26.5t-42 4.5q-51 22 -35 67zM418 1106q-18 14 -18.5 43t16.5 49q18 23 44.5 29t47.5 -8q102 -76 102 -207q0 -111 -78.5 -185.5t-191.5 -74.5q-94 0 -166 58t-90 146q-6 23 10.5 44.5 t44.5 27.5q27 6 51.5 -7t28.5 -36q10 -41 43 -68.5t78 -27.5q49 0 85 36t36 87t-43 94zM195 1241l157 158h-172q-25 0 -42 19.5t-17 48t17.5 49t41.5 20.5h340q27 0 44.5 -21.5t17.5 -50.5q0 -35 -23 -57l-266 -264q-16 -16 -43 -13t-47.5 23.5t-22 46t14.5 41.5zM1169 401 v125l-178 -247h359q25 0 42 -20.5t17 -49.5t-17.5 -49.5t-41.5 -20.5h-35v-86q0 -25 -21.5 -43t-50.5 -18q-31 0 -52.5 18.5t-21.5 42.5v86h-262q-35 0 -58.5 28t-23.5 66q0 35 21 62l303 444q27 37 78 37q37 0 62.5 -21.5t25.5 -54.5v-299q0 -27 -21.5 -44t-50.5 -17 q-31 0 -52.5 17t-21.5 44z" glyph-name="threequarters" horiz-adv-x="1449" unicode="¾"/><glyph d="M762 1065v-211q0 -51 -39 -87t-98 -36q-100 0 -172 -71.5t-72 -174.5q0 -100 71.5 -171.5t172.5 -71.5q88 0 154.5 53t84.5 137q8 47 57.5 72.5t104.5 13.5q57 -10 89 -53t22 -90q-39 -176 -182.5 -293t-329.5 -117q-227 0 -385 148.5t-158 371.5q0 190 117.5 328.5 t287.5 169.5v82q0 53 39 88t98.5 35t98.5 -35t39 -88zM469 1396.5q0 65.5 46 111.5t110 46q66 0 111.5 -46t45.5 -111.5t-46 -111.5t-111 -46q-63 0 -109.5 46t-46.5 111.5z" glyph-name="questiondown" horiz-adv-x="1210" unicode="¿"/><glyph d="M860 1612l-258 67q-63 16 -57 86q4 61 51 80q25 10 51 -2l240 -121q27 -14 30 -43.5t-14.5 -52t-42.5 -14.5zM883 715l-146 407h-16l-397 -1067q-20 -45 -73.5 -62.5t-111.5 1.5q-55 23 -80.5 72t-9.5 96l504 1292q45 98 176 98t176 -98l246 -633q16 -49 -7.5 -97 t-78.5 -71q-57 -18 -111.5 -0.5t-70.5 62.5zM575 420q0 57 35 98t84 41h455q51 0 91 -27.5t50 -68.5l119 -301q16 -47 -9.5 -96.5t-80.5 -71.5q-57 -18 -110.5 -1t-73.5 62l-99 224h-342q-49 0 -84 41t-35 100z" glyph-name="Agrave" horiz-adv-x="1458" unicode="À"/><glyph d="M836 1679l-258 -67q-25 -8 -42.5 14.5t-14.5 52t30 43.5l240 121q57 25 90 -33q31 -59 -4 -104q-14 -19 -41 -27zM883 715l-146 407h-16l-397 -1067q-20 -45 -73.5 -62.5t-111.5 1.5q-55 23 -80.5 72t-9.5 96l504 1292q45 98 176 98t176 -98l246 -633q16 -49 -7.5 -97 t-78.5 -71q-57 -18 -111.5 -0.5t-70.5 62.5zM575 420q0 57 35 98t84 41h455q51 0 91 -27.5t50 -68.5l119 -301q16 -47 -9.5 -96.5t-80.5 -71.5q-57 -18 -110.5 -1t-73.5 62l-99 224h-342q-49 0 -84 41t-35 100z" glyph-name="Aacute" horiz-adv-x="1458" unicode="Á"/><glyph d="M729 1743l-123 -115q-16 -16 -41.5 -12t-46.5 24q-41 51 0 89l160 153q18 18 51 19q29 0 51 -19l158 -153q20 -16 19 -41t-19 -48q-18 -20 -44 -24t-42 12zM883 715l-146 407h-16l-397 -1067q-20 -45 -73.5 -62.5t-111.5 1.5q-55 23 -80.5 72t-9.5 96l504 1292 q45 98 176 98t176 -98l246 -633q16 -49 -7.5 -97t-78.5 -71q-57 -18 -111.5 -0.5t-70.5 62.5zM575 420q0 57 35 98t84 41h455q51 0 91 -27.5t50 -68.5l119 -301q16 -47 -9.5 -96.5t-80.5 -71.5q-57 -18 -110.5 -1t-73.5 62l-99 224h-342q-49 0 -84 41t-35 100z" glyph-name="Acircumflex" horiz-adv-x="1458" unicode="Â"/><glyph d="M498 1651q0 61 44 106t105 45q90 0 129 -80q12 -20 37 -20q39 0 39 39q0 18 16.5 31.5t39 13.5t39 -13.5t16.5 -31.5q0 -66 -44.5 -109t-105.5 -43q-88 0 -133 78q-12 23 -33 23q-39 0 -39 -39q0 -18 -16.5 -31.5t-39 -13.5t-38.5 13.5t-16 31.5zM883 715l-146 407h-16 l-397 -1067q-20 -45 -73.5 -62.5t-111.5 1.5q-55 23 -80.5 72t-9.5 96l504 1292q45 98 176 98t176 -98l246 -633q16 -49 -7.5 -97t-78.5 -71q-57 -18 -111.5 -0.5t-70.5 62.5zM575 420q0 57 35 98t84 41h455q51 0 91 -27.5t50 -68.5l119 -301q16 -47 -9.5 -96.5t-80.5 -71.5 q-57 -18 -110.5 -1t-73.5 62l-99 224h-342q-49 0 -84 41t-35 100z" glyph-name="Atilde" horiz-adv-x="1458" unicode="Ã"/><glyph d="M629 1718q0 -43 -31 -73.5t-72 -30.5q-45 0 -75.5 30.5t-30.5 73.5q0 45 30.5 75t75.5 30q43 0 73 -31t30 -74zM1036 1718q0 -43 -30.5 -73.5t-75.5 -30.5q-43 0 -74 30.5t-31 73.5q0 45 31 75t74 30q45 0 75.5 -30t30.5 -75zM883 715l-146 407h-16l-397 -1067 q-20 -45 -73.5 -62.5t-111.5 1.5q-55 23 -80.5 72t-9.5 96l504 1292q45 98 176 98t176 -98l246 -633q16 -49 -7.5 -97t-78.5 -71q-57 -18 -111.5 -0.5t-70.5 62.5zM575 420q0 57 35 98t84 41h455q51 0 91 -27.5t50 -68.5l119 -301q16 -47 -9.5 -96.5t-80.5 -71.5 q-57 -18 -110.5 -1t-73.5 62l-99 224h-342q-49 0 -84 41t-35 100z" glyph-name="Adieresis" horiz-adv-x="1458" unicode="Ä"/><glyph d="M784 1743q0 23 -16 38t-38.5 15t-39 -15.5t-16.5 -37.5q0 -25 16.5 -41t39 -16t38.5 16t16 41zM881 1743q0 -63 -45 -108.5t-106.5 -45.5t-106.5 45t-45 109q0 61 45 105t106.5 44t106.5 -44t45 -105zM883 715l-146 407h-16l-397 -1067q-20 -45 -73.5 -62.5t-111.5 1.5 q-55 23 -80.5 72t-9.5 96l504 1292q45 98 176 98t176 -98l246 -633q16 -49 -7.5 -97t-78.5 -71q-57 -18 -111.5 -0.5t-70.5 62.5zM575 420q0 57 35 98t84 41h455q51 0 91 -27.5t50 -68.5l119 -301q16 -47 -9.5 -96.5t-80.5 -71.5q-57 -18 -110.5 -1t-73.5 62l-99 224h-342 q-49 0 -84 41t-35 100z" glyph-name="Aring" horiz-adv-x="1458" unicode="Å"/><glyph d="M1053 123v663q0 51 43 87t102 36h735q51 0 87 -42t36 -99t-35.5 -98t-87.5 -41h-590v-350h732q51 0 87 -41t36 -98.5t-36 -98.5t-87 -41h-877q-59 0 -102 36t-43 87zM827 559q51 0 87 -42t36 -99.5t-35.5 -98t-87.5 -40.5h-368l-174 -248q-29 -41 -84.5 -47.5 t-104.5 28.5q-49 33 -61 87.5t16 95.5l228 315q37 49 98 49h450zM2075 1536q51 0 87 -42t36 -99.5t-36 -98.5t-87 -41h-914l-383 -546q-29 -41 -84 -47.5t-104 28.5q-49 33 -61.5 87t16.5 95l436 615q37 49 98 49h996z" glyph-name="AE" horiz-adv-x="2263" unicode="Æ"/><glyph d="M1286 430q35 39 88 41t101 -37q45 -37 53 -93t-25 -93q-254 -283 -608 -283q-27 0 -41 2l-6 -45q18 10 61 10q80 0 126 -48t46 -123.5t-54 -127t-132 -51.5q-63 0 -110.5 35t-63.5 92q-6 18 6 34.5t30.5 21t34 -4t19.5 -24.5q20 -61 84 -62q35 0 60.5 25t25.5 61 q0 35 -25.5 60.5t-60.5 25.5q-25 0 -51 -18q-29 -20 -53 -12q-20 2 -35 19.5t-11 33.5l19 106q-299 45 -495.5 267.5t-196.5 525.5q0 340 240.5 571.5t582.5 231.5q354 0 608 -283q33 -37 25 -93t-53 -93q-47 -39 -100.5 -37t-88.5 41q-98 92 -184 138t-207 46 q-217 0 -369.5 -152.5t-152.5 -369.5t152.5 -369.5t369.5 -152.5q121 0 207 46t184 138z" glyph-name="Ccedilla" horiz-adv-x="1601" unicode="Ç"/><glyph d="M842 1612l-258 67q-63 16 -58 86q4 61 52 80q25 10 51 -2l239 -121q27 -14 30 -43.5t-14 -52t-42 -14.5zM123 123v663q0 51 43 87t102 36h736q51 0 86.5 -42t35.5 -99t-35.5 -98t-86.5 -41h-590v-350h731q51 0 87 -41t36 -98.5t-36 -98.5t-87 -41h-877q-59 0 -102 36 t-43 87zM123 1153v260q0 51 43 87t102 36h877q51 0 87 -42t36 -99.5t-36 -98.5t-87 -41h-731v-102q0 -51 -43 -87t-102.5 -36t-102.5 36t-43 87z" glyph-name="Egrave" horiz-adv-x="1333" unicode="È"/><glyph d="M819 1679l-258 -67q-25 -8 -42 14.5t-14 52t30 43.5l239 121q57 25 90 -33q31 -59 -4 -104q-14 -19 -41 -27zM123 123v663q0 51 43 87t102 36h736q51 0 86.5 -42t35.5 -99t-35.5 -98t-86.5 -41h-590v-350h731q51 0 87 -41t36 -98.5t-36 -98.5t-87 -41h-877q-59 0 -102 36 t-43 87zM123 1153v260q0 51 43 87t102 36h877q51 0 87 -42t36 -99.5t-36 -98.5t-87 -41h-731v-102q0 -51 -43 -87t-102.5 -36t-102.5 36t-43 87z" glyph-name="Eacute" horiz-adv-x="1333" unicode="É"/><glyph d="M688 1743l-123 -115q-16 -16 -41.5 -12t-46.5 24q-41 51 0 89l160 153q18 18 51 19q31 0 51 -19l158 -153q20 -16 19 -41t-19 -48q-18 -20 -44 -24t-42 12zM123 123v663q0 51 43 87t102 36h736q51 0 86.5 -42t35.5 -99t-35.5 -98t-86.5 -41h-590v-350h731q51 0 87 -41 t36 -98.5t-36 -98.5t-87 -41h-877q-59 0 -102 36t-43 87zM123 1153v260q0 51 43 87t102 36h877q51 0 87 -42t36 -99.5t-36 -98.5t-87 -41h-731v-102q0 -51 -43 -87t-102.5 -36t-102.5 36t-43 87z" glyph-name="Ecircumflex" horiz-adv-x="1333" unicode="Ê"/><glyph d="M569 1718q0 -43 -30.5 -73.5t-71.5 -30.5q-45 0 -76 30.5t-31 73.5q0 45 31 75t76 30q41 0 71.5 -31t30.5 -74zM977 1718q0 -43 -31 -73.5t-76 -30.5q-43 0 -73.5 30.5t-30.5 73.5q0 45 30.5 75t73.5 30q45 0 76 -30t31 -75zM123 123v663q0 51 43 87t102 36h736 q51 0 86.5 -42t35.5 -99t-35.5 -98t-86.5 -41h-590v-350h731q51 0 87 -41t36 -98.5t-36 -98.5t-87 -41h-877q-59 0 -102 36t-43 87zM123 1153v260q0 51 43 87t102 36h877q51 0 87 -42t36 -99.5t-36 -98.5t-87 -41h-731v-102q0 -51 -43 -87t-102.5 -36t-102.5 36t-43 87z" glyph-name="Edieresis" horiz-adv-x="1333" unicode="Ë"/><glyph d="M399 1612l-258 67q-63 16 -57 86q4 61 51 80q25 10 51 -2l240 -121q27 -14 30 -43.5t-14.5 -52t-42.5 -14.5zM123 106v1324q0 51 43 86.5t102.5 35.5t102.5 -35.5t43 -86.5v-1324q0 -51 -43 -86.5t-102.5 -35.5t-102.5 35.5t-43 86.5z" glyph-name="Igrave" horiz-adv-x="536" unicode="Ì"/><glyph d="M395 1679l-258 -67q-25 -8 -42 14.5t-14 52t30 43.5l239 121q57 25 90 -33q31 -59 -4 -104q-14 -19 -41 -27zM123 106v1324q0 51 43 86.5t102.5 35.5t102.5 -35.5t43 -86.5v-1324q0 -51 -43 -86.5t-102.5 -35.5t-102.5 35.5t-43 86.5z" glyph-name="Iacute" horiz-adv-x="536" unicode="Í"/><glyph d="M123 106v1324q0 51 43 86.5t102.5 35.5t102.5 -35.5t43 -86.5v-1324q0 -51 -43 -86.5t-102.5 -35.5t-102.5 35.5t-43 86.5zM268 1743l-123 -115q-16 -16 -41.5 -12t-46.5 24q-41 51 0 89l160 153q18 18 51 19q31 0 51 -19l158 -153q20 -16 19.5 -41t-19.5 -48 q-18 -20 -43.5 -24t-42.5 12z" glyph-name="Icircumflex" horiz-adv-x="536" unicode="Î"/><glyph d="M182 1716q0 -41 -29.5 -71.5t-72.5 -30.5q-45 0 -76 30.5t-31 71.5q0 45 31 76t76 31q43 0 72.5 -31t29.5 -76zM563 1716q0 -41 -30.5 -71.5t-75.5 -30.5q-43 0 -73 30.5t-30 71.5q0 45 30 76t73 31q45 0 75.5 -31t30.5 -76zM123 106v1324q0 51 43 86.5t102.5 35.5 t102.5 -35.5t43 -86.5v-1324q0 -51 -43 -86.5t-102.5 -35.5t-102.5 35.5t-43 86.5z" glyph-name="Idieresis" horiz-adv-x="536" unicode="Ï"/><glyph d="M162 383q0 51 43 87t102.5 36t102.5 -36t43 -87v-104h243q201 0 344.5 143t143.5 346q0 201 -143.5 344t-344.5 143h-243v-102q0 -51 -43 -87t-102.5 -36t-102.5 36t-43 87v260q0 51 43 87t102 36h389q336 0 562.5 -218t226.5 -550t-226.5 -550t-562.5 -218h-389 q-59 0 -102 36t-43 87v260zM672 629h-529q-49 0 -83.5 41t-34.5 98t34.5 98t83.5 41h529q49 0 84 -41t35 -98t-35 -98t-84 -41z" glyph-name="Eth" horiz-adv-x="1556" unicode="Ð"/><glyph d="M123 106v1313q0 55 50 94t122 39q117 0 160 -88l579 -954h6l-2 920q0 51 43 86.5t102.5 35.5t102.5 -35.5t43 -86.5v-1313q0 -55 -50 -94t-122 -39q-119 0 -160 82l-579 958h-6l2 -918q0 -51 -43 -86.5t-102.5 -35.5t-102.5 35.5t-43 86.5zM494 1610q0 61 44 106t105 45 q90 0 129 -80q12 -20 37 -20q39 0 39 39q0 18 16.5 31.5t39 13.5t38.5 -13.5t16 -31.5q0 -66 -44 -109t-105 -43q-88 0 -133 78q-12 23 -33 23q-39 0 -39 -39q0 -18 -16.5 -31.5t-39 -13.5t-38.5 13.5t-16 31.5z" glyph-name="Ntilde" horiz-adv-x="1452" unicode="Ñ"/><glyph d="M1419 768q0 217 -153.5 369.5t-370.5 152.5t-369.5 -152.5t-152.5 -369.5t152.5 -370.5t369.5 -153.5q219 0 371.5 152.5t152.5 371.5zM1718 768q0 -340 -240.5 -571.5t-582.5 -231.5q-344 0 -583.5 231.5t-239.5 571.5t239.5 571.5t583.5 231.5q342 0 582.5 -231.5 t240.5 -571.5zM1047 1653l-259 67q-63 16 -57 86q4 61 51 80q25 10 52 -2l239 -121q27 -14 30 -43.5t-14 -52t-42 -14.5z" glyph-name="Ograve" horiz-adv-x="1789" unicode="Ò"/><glyph d="M1419 768q0 217 -153.5 369.5t-370.5 152.5t-369.5 -152.5t-152.5 -369.5t152.5 -370.5t369.5 -153.5q219 0 371.5 152.5t152.5 371.5zM1718 768q0 -340 -240.5 -571.5t-582.5 -231.5q-344 0 -583.5 231.5t-239.5 571.5t239.5 571.5t583.5 231.5q342 0 582.5 -231.5 t240.5 -571.5zM1022 1720l-258 -67q-25 -8 -42 14.5t-14 52t29 43.5l240 121q57 25 90 -33q31 -59 -4 -104q-14 -19 -41 -27z" glyph-name="Oacute" horiz-adv-x="1789" unicode="Ó"/><glyph d="M1419 768q0 217 -153.5 369.5t-370.5 152.5t-369.5 -152.5t-152.5 -369.5t152.5 -370.5t369.5 -153.5q219 0 371.5 152.5t152.5 371.5zM1718 768q0 -340 -240.5 -571.5t-582.5 -231.5q-344 0 -583.5 231.5t-239.5 571.5t239.5 571.5t583.5 231.5q342 0 582.5 -231.5 t240.5 -571.5zM895 1743l-123 -115q-16 -16 -41.5 -12t-46.5 24q-41 51 0 89l160 153q18 18 51 19q31 0 51 -19l158 -153q20 -16 19 -41t-19 -48q-18 -20 -44 -24t-42 12z" glyph-name="Ocircumflex" horiz-adv-x="1789" unicode="Ô"/><glyph d="M1419 768q0 217 -153.5 369.5t-370.5 152.5t-369.5 -152.5t-152.5 -369.5t152.5 -370.5t369.5 -153.5q219 0 371.5 152.5t152.5 371.5zM1718 768q0 -340 -240.5 -571.5t-582.5 -231.5q-344 0 -583.5 231.5t-239.5 571.5t239.5 571.5t583.5 231.5q342 0 582.5 -231.5 t240.5 -571.5zM662 1671q0 61 44 106.5t105 45.5q90 0 129 -80q12 -20 37 -21q39 0 39 39q0 18 16.5 31.5t39 13.5t38.5 -13t16 -32q0 -66 -44 -108.5t-105 -42.5q-88 0 -133 78q-12 23 -33 22q-39 0 -39 -39q0 -18 -16.5 -31.5t-39 -13.5t-38.5 13.5t-16 31.5z" glyph-name="Otilde" horiz-adv-x="1789" unicode="Õ"/><glyph d="M797 1718q0 -43 -31 -73.5t-74 -30.5q-45 0 -75.5 30.5t-30.5 73.5t30.5 74t75.5 31q43 0 74 -31t31 -74zM1202 1718q0 -43 -30.5 -73.5t-75.5 -30.5q-41 0 -72 30.5t-31 73.5t31 74t72 31q45 0 75.5 -31t30.5 -74zM1419 768q0 217 -153.5 369.5t-370.5 152.5 t-369.5 -152.5t-152.5 -369.5t152.5 -370.5t369.5 -153.5q219 0 371.5 152.5t152.5 371.5zM1718 768q0 -340 -240.5 -571.5t-582.5 -231.5q-344 0 -583.5 231.5t-239.5 571.5t239.5 571.5t583.5 231.5q342 0 582.5 -231.5t240.5 -571.5z" glyph-name="Odieresis" horiz-adv-x="1789" unicode="Ö"/><glyph d="M102 16q-31 31 -35 71t21 65l442 442l-440 440q-25 25 -20.5 65t32.5 70q31 29 71 33t65 -20l440 -441l438 439q27 25 66 21.5t69.5 -34t34.5 -70.5t-22 -65l-439 -438l439 -438q27 -27 22.5 -66t-35 -69.5t-69.5 -34.5t-66 20l-438 440l-442 -442q-25 -25 -65 -21 t-69 33z" glyph-name="multiply" horiz-adv-x="1351" unicode="×"/><glyph d="M397 637q16 -51 -13.5 -96t-90.5 -66q-57 -16 -107.5 6.5t-68.5 71.5q-35 98 -35 215q0 340 239.5 571.5t583.5 231.5q123 0 215 -33q49 -16 71.5 -63.5t6.5 -102.5q-20 -57 -65.5 -84.5t-96.5 -13.5q-70 16 -131 16q-217 0 -370.5 -152.5t-153.5 -369.5q0 -61 16 -131z M1669 1384l-1380 -1380q-27 -25 -67 -21.5t-68 33.5q-31 29 -34 69t21 67l1381 1380q27 25 66.5 21.5t68.5 -33.5q31 -29 34 -69t-22 -67zM1413 899q-16 51 13.5 96t91.5 66q57 16 107 -6.5t69 -71.5q35 -98 35 -215q0 -340 -240 -571.5t-584 -231.5q-123 0 -215 33 q-49 16 -71.5 63.5t-6.5 102.5q20 57 65.5 84.5t96.5 13.5q70 -16 131 -16q217 0 371 152.5t154 369.5q-1 61 -17 131z" glyph-name="Oslash" horiz-adv-x="1810" unicode="Ø"/><glyph d="M123 1430q0 51 43 86.5t102.5 35.5t102.5 -35.5t43 -86.5v-895q0 -135 91 -216t230 -81t229.5 80.5t90.5 216.5v895q0 51 43 86.5t102.5 35.5t102.5 -35.5t43 -86.5v-895q0 -262 -171 -416t-440 -154q-270 0 -441 153.5t-171 416.5v895zM889 1612l-258 67q-63 16 -58 86 q4 61 52 80q25 10 51 -2l239 -121q27 -14 30 -43.5t-14 -52t-42 -14.5z" glyph-name="Ugrave" horiz-adv-x="1468" unicode="Ù"/><glyph d="M123 1430q0 51 43 86.5t102.5 35.5t102.5 -35.5t43 -86.5v-895q0 -135 91 -216t230 -81t229.5 80.5t90.5 216.5v895q0 51 43 86.5t102.5 35.5t102.5 -35.5t43 -86.5v-895q0 -262 -171 -416t-440 -154q-270 0 -441 153.5t-171 416.5v895zM864 1679l-258 -67 q-25 -8 -42 14.5t-14 52t30 43.5l239 121q57 25 90 -33q31 -59 -4 -104q-14 -19 -41 -27z" glyph-name="Uacute" horiz-adv-x="1468" unicode="Ú"/><glyph d="M123 1430q0 51 43 86.5t102.5 35.5t102.5 -35.5t43 -86.5v-895q0 -135 91 -216t230 -81t229.5 80.5t90.5 216.5v895q0 51 43 86.5t102.5 35.5t102.5 -35.5t43 -86.5v-895q0 -262 -171 -416t-440 -154q-270 0 -441 153.5t-171 416.5v895zM735 1743l-123 -115 q-16 -16 -41.5 -12t-46.5 24q-41 51 0 89l160 153q18 18 51 19q31 0 51 -19l158 -153q20 -16 19.5 -41t-19.5 -48q-18 -20 -44 -24t-42 12z" glyph-name="Ucircumflex" horiz-adv-x="1468" unicode="Û"/><glyph d="M633 1718q0 -43 -31 -73.5t-72 -30.5q-45 0 -75.5 30.5t-30.5 73.5q0 45 30.5 75t75.5 30q43 0 73 -31t30 -74zM1040 1718q0 -43 -30.5 -73.5t-75.5 -30.5q-43 0 -74 30.5t-31 73.5q0 45 31 75t74 30q45 0 75.5 -30t30.5 -75zM123 1430q0 51 43 86.5t102.5 35.5 t102.5 -35.5t43 -86.5v-895q0 -135 91 -216t230 -81t229.5 80.5t90.5 216.5v895q0 51 43 86.5t102.5 35.5t102.5 -35.5t43 -86.5v-895q0 -262 -171 -416t-440 -154q-270 0 -441 153.5t-171 416.5v895z" glyph-name="Udieresis" horiz-adv-x="1468" unicode="Ü"/><glyph d="M829 1679l-258 -67q-25 -8 -42 14.5t-14 52t30 43.5l239 121q57 25 90 -33q31 -59 -4 -104q-14 -19 -41 -27zM696.5 -16q-59.5 0 -102.5 35.5t-43 86.5v662q0 33 24 63l531 680q33 41 89 42t101 -35q47 -37 59.5 -91.5t-20.5 -95.5l-493 -633v-592q0 -51 -43 -86.5 t-102.5 -35.5zM287 1511l270 -344q33 -41 20.5 -95t-59.5 -91q-45 -37 -101.5 -35t-88.5 41l-271 344q-33 41 -20.5 95.5t59.5 91.5q45 37 101.5 35.5t89.5 -42.5z" glyph-name="Yacute" horiz-adv-x="1392" unicode="Ý"/><glyph d="M414 106q0 -51 -43 -86.5t-102.5 -35.5t-102.5 35.5t-43 86.5v1324q0 51 43 86.5t102.5 35.5t102.5 -35.5t43 -86.5v-1324zM653 489q-49 0 -83.5 41t-34.5 98.5t34.5 98.5t83.5 41h176q63 0 106.5 44t43.5 103q0 63 -43 106.5t-107 43.5h-176q-49 0 -83.5 40t-34.5 97 q0 59 34.5 100t83.5 41h176q176 0 302 -124.5t126 -303.5q0 -176 -125.5 -301t-302.5 -125h-176z" glyph-name="Thorn" horiz-adv-x="1331" unicode="Þ"/><glyph d="M727 1147q-4 61 -49 102t-109 41q-59 0 -104 -40t-51 -97v-1397q0 -51 -43 -87t-102.5 -36t-102.5 36t-43 87v1397q0 172 133 295t313 123q195 0 327 -117t132 -301q-6 -80 -53 -114.5t-113 -24.5q-59 8 -95 47t-40 86zM659 659h-34q-49 0 -84 41t-35 98.5t34.5 98.5 t84.5 41h34q221 0 364.5 -125t143.5 -344t-143 -344t-365 -125h-34q-49 0 -84 41t-35 98.5t34.5 98.5t84.5 41h34q88 0 148.5 53t60.5 137t-60.5 137t-148.5 53z" glyph-name="germandbls" horiz-adv-x="1249" unicode="ß"/><glyph d="M864 1335l-258 68q-63 16 -57 86q4 61 51 80q25 10 51 -2l240 -121q27 -14 30 -44t-14.5 -52.5t-42.5 -14.5zM932 16q-88 -51 -254 -51q-250 0 -423 180.5t-173 448.5q0 266 173 446.5t423 180.5q244 0 397 -207h4v65q0 51 41 87t100.5 36t101.5 -36t42 -87v-973 q0 -51 -42 -86.5t-101.5 -35.5t-100.5 35.5t-41 86.5v488q0 143 -101 245.5t-247 102.5q-143 0 -245.5 -102.5t-102.5 -245.5q0 -145 102.5 -247.5t245.5 -102.5q51 0 96 12q37 16 76 -7.5t61.5 -68.5t13.5 -94.5t-46 -69.5z" glyph-name="agrave" horiz-adv-x="1486" unicode="à"/><glyph d="M840 1403l-258 -68q-25 -8 -42.5 14.5t-14.5 52.5t30 44l240 121q57 25 90 -33q31 -59 -4 -104q-14 -19 -41 -27zM932 16q-88 -51 -254 -51q-250 0 -423 180.5t-173 448.5q0 266 173 446.5t423 180.5q244 0 397 -207h4v65q0 51 41 87t100.5 36t101.5 -36t42 -87v-973 q0 -51 -42 -86.5t-101.5 -35.5t-100.5 35.5t-41 86.5v488q0 143 -101 245.5t-247 102.5q-143 0 -245.5 -102.5t-102.5 -245.5q0 -145 102.5 -247.5t245.5 -102.5q51 0 96 12q37 16 76 -7.5t61.5 -68.5t13.5 -94.5t-46 -69.5z" glyph-name="aacute" horiz-adv-x="1486" unicode="á"/><glyph d="M696 1473l-123 -115q-16 -16 -41.5 -12t-46.5 24q-41 51 0 88l160 154q18 18 51 18q29 0 52 -18l157 -154q20 -16 19.5 -40.5t-19.5 -47.5q-18 -20 -43.5 -24.5t-42.5 12.5zM932 16q-88 -51 -254 -51q-250 0 -423 180.5t-173 448.5q0 266 173 446.5t423 180.5 q244 0 397 -207h4v65q0 51 41 87t100.5 36t101.5 -36t42 -87v-973q0 -51 -42 -86.5t-101.5 -35.5t-100.5 35.5t-41 86.5v488q0 143 -101 245.5t-247 102.5q-143 0 -245.5 -102.5t-102.5 -245.5q0 -145 102.5 -247.5t245.5 -102.5q51 0 96 12q37 16 76 -7.5t61.5 -68.5 t13.5 -94.5t-46 -69.5z" glyph-name="acircumflex" horiz-adv-x="1486" unicode="â"/><glyph d="M473 1419q0 61 44 106.5t106 45.5q90 0 129 -80q12 -20 36 -21q39 0 39 39q0 18 16.5 31.5t39 13.5t39 -13t16.5 -32q0 -66 -44 -108.5t-106 -42.5q-88 0 -133 78q-12 23 -32 22q-39 0 -39 -39q0 -18 -16.5 -31.5t-39 -13.5t-39 13.5t-16.5 31.5zM932 16 q-88 -51 -254 -51q-250 0 -423 180.5t-173 448.5q0 266 173 446.5t423 180.5q244 0 397 -207h4v65q0 51 41 87t100.5 36t101.5 -36t42 -87v-973q0 -51 -42 -86.5t-101.5 -35.5t-100.5 35.5t-41 86.5v488q0 143 -101 245.5t-247 102.5q-143 0 -245.5 -102.5t-102.5 -245.5 q0 -145 102.5 -247.5t245.5 -102.5q51 0 96 12q37 16 76 -7.5t61.5 -68.5t13.5 -94.5t-46 -69.5z" glyph-name="atilde" horiz-adv-x="1486" unicode="ã"/><glyph d="M608 1466q0 -43 -29.5 -73.5t-72.5 -30.5q-45 0 -76 30.5t-31 73.5t31 74t76 31q43 0 72.5 -31t29.5 -74zM1016 1466q0 -43 -31 -73.5t-76 -30.5q-43 0 -72.5 30.5t-29.5 73.5t29.5 74t72.5 31q45 0 76 -31t31 -74zM932 16q-88 -51 -254 -51q-250 0 -423 180.5 t-173 448.5q0 266 173 446.5t423 180.5q244 0 397 -207h4v65q0 51 41 87t100.5 36t101.5 -36t42 -87v-973q0 -51 -42 -86.5t-101.5 -35.5t-100.5 35.5t-41 86.5v488q0 143 -101 245.5t-247 102.5q-143 0 -245.5 -102.5t-102.5 -245.5q0 -145 102.5 -247.5t245.5 -102.5 q51 0 96 12q37 16 76 -7.5t61.5 -68.5t13.5 -94.5t-46 -69.5z" glyph-name="adieresis" horiz-adv-x="1486" unicode="ä"/><glyph d="M766 1489q0 23 -16.5 38t-36.5 15q-25 0 -41.5 -15.5t-16.5 -37.5q0 -25 16.5 -41t41.5 -16q23 0 38 16t15 41zM862 1489q0 -63 -45 -108.5t-104 -45.5q-63 0 -108.5 45t-45.5 109q0 61 45 105t109 44q59 0 104 -44t45 -105zM932 16q-88 -51 -254 -51q-250 0 -423 180.5 t-173 448.5q0 266 173 446.5t423 180.5q244 0 397 -207h4v65q0 51 41 87t100.5 36t101.5 -36t42 -87v-973q0 -51 -42 -86.5t-101.5 -35.5t-100.5 35.5t-41 86.5v488q0 143 -101 245.5t-247 102.5q-143 0 -245.5 -102.5t-102.5 -245.5q0 -145 102.5 -247.5t245.5 -102.5 q51 0 96 12q37 16 76 -7.5t61.5 -68.5t13.5 -94.5t-46 -69.5z" glyph-name="aring" horiz-adv-x="1486" unicode="å"/><glyph d="M1542 588q0 51 32 88t77 37h454q-37 109 -125 172t-200 63q-141 0 -243.5 -105.5t-102.5 -248.5q0 -147 104 -258t252 -111q80 0 164 29t137 76q31 35 81 33.5t89 -37.5q39 -33 47 -84.5t-20 -83.5q-92 -92 -225.5 -142.5t-272.5 -50.5q-258 0 -426 205v-64 q0 -51 -42 -86.5t-101.5 -35.5t-100.5 35.5t-41 86.5v488q0 143 -101 245.5t-247 102.5q-143 0 -245.5 -102.5t-102.5 -245.5q0 -145 102.5 -247.5t245.5 -102.5q51 0 96 12q37 16 76 -7.5t61.5 -68.5t13.5 -94t-46 -70q-88 -51 -254 -51q-250 0 -423 180.5t-173 448.5 q0 266 173 446.5t423 180.5q244 0 397 -207h4v65q0 51 41 87t100.5 36t101.5 -36t42 -87v-65h4q168 207 412 207q264 0 450.5 -182.5t186.5 -444.5q0 -51 -43 -92t-103 -41h-620q-45 0 -77 38t-32 89z" glyph-name="ae" horiz-adv-x="2498" unicode="æ"/><glyph d="M954 328q35 35 89.5 29.5t95.5 -46.5q43 -43 46 -97t-40 -93q-178 -156 -414 -156q-27 0 -41 2l-6 -45q18 10 61 10q80 0 126.5 -48t46.5 -123.5t-54.5 -127t-132.5 -51.5q-63 0 -110.5 35t-63.5 92q-6 18 6 34.5t30.5 21t34 -4t19.5 -24.5q20 -61 84 -62q35 0 60.5 25 t25.5 61q0 35 -25.5 60.5t-60.5 25.5q-25 0 -51 -18q-29 -20 -53 -12q-20 2 -34.5 19.5t-10.5 33.5l18 108q-225 41 -371.5 213t-146.5 404q0 266 188.5 446.5t460.5 180.5q244 0 414 -154q43 -41 41 -93t-47 -97q-41 -41 -95.5 -46.5t-89.5 29.5q-94 82 -223 82 q-143 0 -245.5 -102.5t-102.5 -245.5t102.5 -245.5t245.5 -102.5q129 0 223 82z" glyph-name="ccedilla" horiz-adv-x="1255" unicode="ç"/><glyph d="M877 1335l-259 68q-63 16 -57 86q4 61 51 80q25 10 52 -2l239 -121q27 -14 30 -44t-14 -52.5t-42 -14.5zM492 588q0 51 31.5 88t76.5 37h455q-37 109 -125 172t-201 63q-141 0 -243.5 -105.5t-102.5 -248.5q0 -147 104.5 -258t251.5 -111q80 0 164 29t137 76 q31 35 81 33.5t89 -37.5q39 -33 47.5 -84.5t-20.5 -83.5q-92 -92 -225 -142.5t-273 -50.5q-279 0 -468 180.5t-189 448.5q0 266 188.5 446.5t458.5 180.5q264 0 450.5 -182.5t186.5 -444.5q0 -51 -43 -92t-102 -41h-621q-45 0 -76.5 38t-31.5 89z" glyph-name="egrave" horiz-adv-x="1447" unicode="è"/><glyph d="M852 1403l-258 -68q-25 -8 -42 14.5t-14 52.5t29 44l240 121q57 25 90 -33q31 -59 -4 -104q-14 -19 -41 -27zM492 588q0 51 31.5 88t76.5 37h455q-37 109 -125 172t-201 63q-141 0 -243.5 -105.5t-102.5 -248.5q0 -147 104.5 -258t251.5 -111q80 0 164 29t137 76 q31 35 81 33.5t89 -37.5q39 -33 47.5 -84.5t-20.5 -83.5q-92 -92 -225 -142.5t-273 -50.5q-279 0 -468 180.5t-189 448.5q0 266 188.5 446.5t458.5 180.5q264 0 450.5 -182.5t186.5 -444.5q0 -51 -43 -92t-102 -41h-621q-45 0 -76.5 38t-31.5 89z" glyph-name="eacute" horiz-adv-x="1447" unicode="é"/><glyph d="M821 1368l-88 127h-8l-88 -127q-29 -43 -80 -14q-23 14 -32 36.5t1 39.5l123 157q31 39 80 39t80 -39l123 -157q10 -16 1 -39t-32 -37q-51 -29 -80 14zM492 588q0 51 31.5 88t76.5 37h455q-37 109 -125 172t-201 63q-141 0 -243.5 -105.5t-102.5 -248.5 q0 -147 104.5 -258t251.5 -111q80 0 164 29t137 76q31 35 81 33.5t89 -37.5q39 -33 47.5 -84.5t-20.5 -83.5q-92 -92 -225 -142.5t-273 -50.5q-279 0 -468 180.5t-189 448.5q0 266 188.5 446.5t458.5 180.5q264 0 450.5 -182.5t186.5 -444.5q0 -51 -43 -92t-102 -41h-621 q-45 0 -76.5 38t-31.5 89z" glyph-name="ecircumflex" horiz-adv-x="1447" unicode="ê"/><glyph d="M631 1466q0 -43 -31 -73.5t-72 -30.5q-45 0 -75.5 30.5t-30.5 73.5t30.5 74t75.5 31q41 0 72 -31t31 -74zM1038 1466q0 -43 -30.5 -73.5t-75.5 -30.5q-43 0 -74 30.5t-31 73.5t31 74t74 31q45 0 75.5 -31t30.5 -74zM492 588q0 51 31.5 88t76.5 37h455q-37 109 -125 172 t-201 63q-141 0 -243.5 -105.5t-102.5 -248.5q0 -147 104.5 -258t251.5 -111q80 0 164 29t137 76q31 35 81 33.5t89 -37.5q39 -33 47.5 -84.5t-20.5 -83.5q-92 -92 -225 -142.5t-273 -50.5q-279 0 -468 180.5t-189 448.5q0 266 188.5 446.5t458.5 180.5q264 0 450.5 -182.5 t186.5 -444.5q0 -51 -43 -92t-102 -41h-621q-45 0 -76.5 38t-31.5 89z" glyph-name="edieresis" horiz-adv-x="1447" unicode="ë"/><glyph d="M123 106v973q0 51 42 87t101.5 36t101.5 -36t42 -87v-973q0 -51 -42 -86.5t-101.5 -35.5t-101.5 35.5t-42 86.5zM397 1335l-258 68q-63 16 -57 86q4 61 51 80q25 10 51 -2l240 -121q27 -14 30 -44t-14.5 -52.5t-42.5 -14.5z" glyph-name="igrave" horiz-adv-x="532" unicode="ì"/><glyph d="M123 106v973q0 51 42 87t101.5 36t101.5 -36t42 -87v-973q0 -51 -42 -86.5t-101.5 -35.5t-101.5 35.5t-42 86.5zM395 1403l-258 -68q-25 -8 -42 14.5t-14 52.5t30 44l239 121q57 25 90 -33q31 -59 -4 -104q-14 -19 -41 -27z" glyph-name="iacute" horiz-adv-x="532" unicode="í"/><glyph d="M123 106v973q0 51 42 87t101.5 36t101.5 -36t42 -87v-973q0 -51 -42 -86.5t-101.5 -35.5t-101.5 35.5t-42 86.5zM266 1473l-123 -115q-16 -16 -41.5 -12t-46.5 24q-41 51 0 88l160 154q18 18 51 18q29 0 51 -18l158 -154q20 -16 19.5 -40.5t-19.5 -47.5 q-18 -20 -43.5 -24.5t-42.5 12.5z" glyph-name="icircumflex" horiz-adv-x="532" unicode="î"/><glyph d="M176 1466q0 -43 -30.5 -73.5t-71.5 -30.5q-45 0 -76 30.5t-31 73.5t31 74t76 31q41 0 71.5 -31t30.5 -74zM559 1466q0 -43 -30.5 -73.5t-73.5 -30.5t-74 30.5t-31 73.5t31 74t74 31t73.5 -31t30.5 -74zM123 106v973q0 51 42 87t101.5 36t101.5 -36t42 -87v-973 q0 -51 -42 -86.5t-101.5 -35.5t-101.5 35.5t-42 86.5z" glyph-name="idieresis" horiz-adv-x="532" unicode="ï"/><glyph d="M215 1223q-6 20 3 39.5t30 25.5l110 31q-35 35 -30.5 90t47.5 98q41 41 96 45t92 -30l111 -113l155 45q20 4 39 -7t25 -31.5t-4 -39t-31 -24.5l-98 -29l368 -369q174 -174 175 -403q0 -236 -180.5 -411t-430.5 -175t-430 175t-180 411q0 143 73.5 273t200.5 212 q39 25 89.5 8.5t83 -65.5t27.5 -101.5t-44 -78.5q-59 -43 -94 -109.5t-35 -138.5q0 -121 92 -215t217 -94t217 94t92 215q0 119 -88 213l-469 471l-165 -47q-23 -6 -41.5 4.5t-22.5 30.5z" glyph-name="eth" horiz-adv-x="1384" unicode="ð"/><glyph d="M485 1419q0 61 44 106.5t106 45.5q90 0 129 -80q12 -20 37 -21q39 0 39 39q0 18 16 31.5t39 13.5t39 -13t16 -32q0 -66 -44 -108.5t-105 -42.5q-88 0 -133 78q-12 23 -33 22q-39 0 -39 -39q0 -18 -16.5 -31.5t-39 -13.5t-39 13.5t-16.5 31.5zM410 1079v-973 q0 -51 -42 -86.5t-101.5 -35.5t-101.5 35.5t-42 86.5v973q0 51 42 87t101.5 36t101.5 -36t42 -87zM932 106v574q0 125 -68.5 200.5t-191.5 61.5l-39 -4q-41 -4 -76 26.5t-45 79.5q-10 51 10.5 91.5t61.5 54.5q74 31 176 31q207 0 333 -139.5t126 -364.5v-611 q0 -51 -42 -86.5t-101.5 -35.5t-101.5 35.5t-42 86.5z" glyph-name="ntilde" unicode="ñ"/><glyph d="M1079 594q0 143 -102.5 245.5t-247.5 102.5q-143 0 -244.5 -102.5t-101.5 -245.5q0 -145 101.5 -247.5t244.5 -102.5q145 0 247.5 102.5t102.5 247.5zM1378 594q0 -268 -188.5 -448.5t-460.5 -180.5q-270 0 -458.5 180.5t-188.5 448.5q0 266 188.5 446.5t458.5 180.5 q272 0 460.5 -180.5t188.5 -446.5zM885 1335l-258 68q-63 16 -58 86q4 61 52 80q25 10 51 -2l239 -121q27 -14 30 -44t-14 -52.5t-42 -14.5z" glyph-name="ograve" horiz-adv-x="1460" unicode="ò"/><glyph d="M1079 594q0 143 -102.5 245.5t-247.5 102.5q-143 0 -244.5 -102.5t-101.5 -245.5q0 -145 101.5 -247.5t244.5 -102.5q145 0 247.5 102.5t102.5 247.5zM1378 594q0 -268 -188.5 -448.5t-460.5 -180.5q-270 0 -458.5 180.5t-188.5 448.5q0 266 188.5 446.5t458.5 180.5 q272 0 460.5 -180.5t188.5 -446.5zM860 1403l-258 -68q-25 -8 -42 14.5t-14 52.5t29 44l240 121q57 25 90 -33q31 -59 -4 -104q-14 -19 -41 -27z" glyph-name="oacute" horiz-adv-x="1460" unicode="ó"/><glyph d="M1079 594q0 143 -102.5 245.5t-247.5 102.5q-143 0 -244.5 -102.5t-101.5 -245.5q0 -145 101.5 -247.5t244.5 -102.5q145 0 247.5 102.5t102.5 247.5zM1378 594q0 -268 -188.5 -448.5t-460.5 -180.5q-270 0 -458.5 180.5t-188.5 448.5q0 266 188.5 446.5t458.5 180.5 q272 0 460.5 -180.5t188.5 -446.5zM729 1473l-123 -115q-16 -16 -41.5 -12t-46.5 24q-41 51 0 88l160 154q18 18 51 18q29 0 51 -18l158 -154q20 -16 19 -40.5t-19 -47.5q-18 -20 -44 -24.5t-42 12.5z" glyph-name="ocircumflex" horiz-adv-x="1460" unicode="ô"/><glyph d="M1079 594q0 143 -102.5 245.5t-247.5 102.5q-143 0 -244.5 -102.5t-101.5 -245.5q0 -145 101.5 -247.5t244.5 -102.5q145 0 247.5 102.5t102.5 247.5zM1378 594q0 -268 -188.5 -448.5t-460.5 -180.5q-270 0 -458.5 180.5t-188.5 448.5q0 266 188.5 446.5t458.5 180.5 q272 0 460.5 -180.5t188.5 -446.5zM498 1419q0 61 44 106.5t105 45.5q90 0 129 -80q12 -20 37 -21q39 0 39 39q0 18 16.5 31.5t39 13.5t39 -13t16.5 -32q0 -66 -44.5 -108.5t-105.5 -42.5q-88 0 -133 78q-12 23 -33 22q-39 0 -39 -39q0 -18 -16.5 -31.5t-39 -13.5 t-38.5 13.5t-16 31.5z" glyph-name="otilde" horiz-adv-x="1460" unicode="õ"/><glyph d="M631 1466q0 -43 -31 -73.5t-72 -30.5q-45 0 -75.5 30.5t-30.5 73.5t30.5 74t75.5 31q41 0 72 -31t31 -74zM1038 1466q0 -43 -30.5 -73.5t-75.5 -30.5q-43 0 -74 30.5t-31 73.5t31 74t74 31q45 0 75.5 -31t30.5 -74zM1079 594q0 143 -102.5 245.5t-247.5 102.5 q-143 0 -244.5 -102.5t-101.5 -245.5q0 -145 101.5 -247.5t244.5 -102.5q145 0 247.5 102.5t102.5 247.5zM1378 594q0 -268 -188.5 -448.5t-460.5 -180.5q-270 0 -458.5 180.5t-188.5 448.5q0 266 188.5 446.5t458.5 180.5q272 0 460.5 -180.5t188.5 -446.5z" glyph-name="odieresis" horiz-adv-x="1460" unicode="ö"/><glyph d="M836 122.5q0 -59.5 -41 -99t-101 -39.5q-57 0 -97 41t-40 98t40 98t97 41q59 0 100.5 -40t41.5 -99.5zM557 1061q0 59 40 100t97 41q59 0 100.5 -41t41.5 -100q0 -57 -41 -97t-101 -40q-57 0 -97 40t-40 97zM86 592q0 43 25.5 73.5t60.5 30.5h1049q35 0 60.5 -30.5 t25.5 -73.5t-26 -74t-60 -31h-1049q-35 0 -60.5 31t-25.5 74z" glyph-name="divide" horiz-adv-x="1390" unicode="÷"/><glyph d="M1327 1034l-1030 -1030q-27 -25 -67 -21.5t-68 33.5q-31 29 -34 69t22 67l1030 1030q27 25 66.5 21.5t68.5 -34.5q31 -29 34 -68.5t-22 -66.5zM262 432q-70 -8 -116 20.5t-54 88.5q-2 18 -2 53q0 266 188.5 446.5t458.5 180.5q35 0 54 -2q59 -6 87.5 -49.5t20.5 -106.5 q-10 -57 -53 -92t-109 -29q-143 0 -244.5 -102.5t-101.5 -245.5q4 -66 -32 -109t-97 -53zM1214 754q70 8 116 -20.5t54 -88.5q2 -18 2 -53q0 -266 -188 -446.5t-459 -180.5q-35 0 -53 2q-59 6 -88 49t-20 107q10 57 53 92t108 29q143 0 244.5 102.5t101.5 245.5 q-4 66 32 109t97 53z" glyph-name="oslash" horiz-adv-x="1476" unicode="ø"/><glyph d="M815 1335l-258 68q-63 16 -57 86q4 61 51 80q25 10 51 -2l240 -121q27 -14 29.5 -44t-14.5 -52.5t-42 -14.5zM932 106v973q0 51 42 87t101.5 36t101.5 -36t42 -87v-973q0 -51 -42 -86.5t-101.5 -35.5t-101.5 35.5t-42 86.5zM410 1079v-573q0 -125 68.5 -201t191.5 -61 l39 4q41 4 75.5 -27t44.5 -80q10 -51 -10 -91t-61 -54q-74 -31 -176 -31q-207 0 -333 139.5t-126 364.5v610q0 51 42 87t101.5 36t101.5 -36t42 -87z" glyph-name="ugrave" unicode="ù"/><glyph d="M791 1403l-259 -68q-25 -8 -42 14.5t-14 52.5t30 44l239 121q57 25 91 -33q31 -59 -5 -104q-13 -19 -40 -27zM932 106v973q0 51 42 87t101.5 36t101.5 -36t42 -87v-973q0 -51 -42 -86.5t-101.5 -35.5t-101.5 35.5t-42 86.5zM410 1079v-573q0 -125 68.5 -201t191.5 -61 l39 4q41 4 75.5 -27t44.5 -80q10 -51 -10 -91t-61 -54q-74 -31 -176 -31q-207 0 -333 139.5t-126 364.5v610q0 51 42 87t101.5 36t101.5 -36t42 -87z" glyph-name="uacute" unicode="ú"/><glyph d="M668 1473l-123 -115q-16 -16 -42 -12t-46 24q-41 51 0 88l159 154q18 18 52 18q29 0 51 -18l158 -154q20 -16 19 -40.5t-19 -47.5q-18 -20 -44 -24.5t-42 12.5zM932 106v973q0 51 42 87t101.5 36t101.5 -36t42 -87v-973q0 -51 -42 -86.5t-101.5 -35.5t-101.5 35.5 t-42 86.5zM410 1079v-573q0 -125 68.5 -201t191.5 -61l39 4q41 4 75.5 -27t44.5 -80q10 -51 -10 -91t-61 -54q-74 -31 -176 -31q-207 0 -333 139.5t-126 364.5v610q0 51 42 87t101.5 36t101.5 -36t42 -87z" glyph-name="ucircumflex" unicode="û"/><glyph d="M571 1466q0 -43 -30.5 -73.5t-71.5 -30.5q-45 0 -76 30.5t-31 73.5t31 74t76 31q41 0 71.5 -31t30.5 -74zM979 1466q0 -43 -30.5 -73.5t-76.5 -30.5q-43 0 -73.5 30.5t-30.5 73.5t30.5 74t73.5 31q45 0 76 -31t31 -74zM932 106v973q0 51 42 87t101.5 36t101.5 -36t42 -87 v-973q0 -51 -42 -86.5t-101.5 -35.5t-101.5 35.5t-42 86.5zM410 1079v-573q0 -125 68.5 -201t191.5 -61l39 4q41 4 75.5 -27t44.5 -80q10 -51 -10 -91t-61 -54q-74 -31 -176 -31q-207 0 -333 139.5t-126 364.5v610q0 51 42 87t101.5 36t101.5 -36t42 -87z" glyph-name="udieresis" unicode="ü"/><glyph d="M756 1403l-258 -68q-25 -8 -42.5 14.5t-14.5 52.5t30 44l240 121q57 25 90 -33q31 -59 -4 -104q-14 -19 -41 -27zM418 -352q-53 25 -77 75t-1 97l614 1315q23 47 76 62t107 -11q53 -25 76.5 -75t0.5 -97l-614 -1315q-23 -47 -76 -62.5t-106 11.5zM473 414 q-53 -27 -106.5 -11.5t-75.5 62.5l-256 549q-23 47 0.5 97t77.5 75q53 27 106 11.5t76 -62.5l256 -549q23 -47 -1 -97t-77 -75z" glyph-name="yacute" horiz-adv-x="1249" unicode="ý"/><glyph d="M555 1169q88 51 254 52q250 0 424 -180.5t174 -448.5q0 -266 -174 -446.5t-424 -180.5q-244 0 -397 207h-4v-416q0 -51 -41 -87t-100.5 -36t-101.5 36t-42 87v1674q0 51 42 86.5t101.5 35.5t100.5 -35.5t41 -86.5v-838q0 -143 101 -245.5t247 -102.5q143 0 246.5 102.5 t103.5 245.5q0 145 -102.5 247.5t-247.5 102.5q-51 0 -97 -12q-37 -16 -75.5 7.5t-61 68.5t-13.5 94t46 69z" glyph-name="thorn" horiz-adv-x="1488" unicode="þ"/><glyph d="M936 1446q0 -43 -31 -74t-76 -31q-43 0 -73.5 31t-30.5 74t30.5 73.5t73.5 30.5q45 0 76 -30.5t31 -73.5zM528 1446q0 -43 -30.5 -74t-71.5 -31q-45 0 -76 31t-31 74t31 73.5t76 30.5q41 0 71.5 -30.5t30.5 -73.5zM418 -352q-53 25 -77 75t-1 97l614 1315q23 47 76 62 t107 -11q53 -25 76.5 -75t0.5 -97l-614 -1315q-23 -47 -76 -62.5t-106 11.5zM473 414q-53 -27 -106.5 -11.5t-75.5 62.5l-256 549q-23 47 0.5 97t77.5 75q53 27 106 11.5t76 -62.5l256 -549q23 -47 -1 -97t-77 -75z" glyph-name="ydieresis" horiz-adv-x="1249" unicode="ÿ"/><glyph d="M522 1722.5q0 32.5 18.5 56t47.5 23.5h284q29 0 47.5 -23.5t18.5 -56t-18.5 -56.5t-47.5 -24h-284q-29 0 -47.5 24t-18.5 56.5zM883 715l-146 407h-16l-397 -1067q-20 -45 -73.5 -62.5t-111.5 1.5q-55 23 -80.5 72t-9.5 96l504 1292q45 98 176 98t176 -98l246 -633 q16 -49 -7.5 -97t-78.5 -71q-57 -18 -111.5 -0.5t-70.5 62.5zM575 420q0 57 35 98t84 41h455q51 0 91 -27.5t50 -68.5l119 -301q16 -47 -9.5 -96.5t-80.5 -71.5q-57 -18 -110.5 -1t-73.5 62l-99 224h-342q-49 0 -84 41t-35 100z" glyph-name="Amacron" horiz-adv-x="1458" unicode="Ā"/><glyph d="M522 1456q0 33 18.5 56.5t47.5 23.5h284q29 0 47.5 -23.5t18.5 -56.5t-18.5 -56.5t-47.5 -23.5h-284q-29 0 -47.5 23.5t-18.5 56.5zM932 16q-88 -51 -254 -51q-250 0 -423 180.5t-173 448.5q0 266 173 446.5t423 180.5q244 0 397 -207h4v65q0 51 41 87t100.5 36 t101.5 -36t42 -87v-973q0 -51 -42 -86.5t-101.5 -35.5t-100.5 35.5t-41 86.5v488q0 143 -101 245.5t-247 102.5q-143 0 -245.5 -102.5t-102.5 -245.5q0 -145 102.5 -247.5t245.5 -102.5q51 0 96 12q37 16 76 -7.5t61.5 -68.5t13.5 -94.5t-46 -69.5z" glyph-name="amacron" horiz-adv-x="1486" unicode="ā"/><glyph d="M883 715l-146 407h-16l-397 -1067q-20 -45 -73.5 -62.5t-111.5 1.5q-55 23 -80.5 72t-9.5 96l504 1292q45 98 176 98t176 -98l246 -633q16 -49 -7.5 -97t-78.5 -71q-57 -18 -111.5 -0.5t-70.5 62.5zM575 420q0 57 35 98t84 41h455q51 0 91 -27.5t50 -68.5l119 -301 q16 -47 -9.5 -96.5t-80.5 -71.5q-57 -16 -113 0q-14 6 -28 6q-49 0 -83 -35t-34 -84t34.5 -84t84.5 -35q10 0 25.5 4.5t25.5 4.5q23 2 39 -15.5t16 -40.5q0 -53 -52 -76.5t-114 -23.5q-92 0 -156.5 64.5t-64.5 156.5t64.5 156.5t156.5 64.5h13l-97 222h-342q-49 0 -84 41 t-35 100z" glyph-name="Aogonek" horiz-adv-x="1458" unicode="Ą"/><glyph d="M1221 -238q10 0 25.5 4.5t25.5 4.5q23 2 39 -15.5t16 -40.5q0 -53 -52 -76.5t-114 -23.5q-92 0 -156.5 64.5t-64.5 156.5q0 74 44 132.5t112 78.5q-16 29 -17 59v488q0 143 -101 245.5t-247 102.5q-143 0 -245.5 -102.5t-102.5 -245.5q0 -145 102.5 -247.5t245.5 -102.5 q51 0 96 12q37 16 76 -7.5t61.5 -68.5t13.5 -94t-46 -70q-88 -51 -254 -51q-250 0 -423 180.5t-173 448.5q0 266 173 446.5t423 180.5q244 0 397 -207h4v65q0 51 41 87t100.5 36t101.5 -36t42 -87v-973q0 -51 -42 -86.5t-101 -35.5q-55 0 -87 -30t-32 -81q0 -45 35 -78 t84 -33z" glyph-name="aogonek" horiz-adv-x="1486" unicode="ą"/><glyph d="M1286 430q35 39 88 41t101 -37q45 -37 53 -93t-25 -93q-254 -283 -608 -283q-342 0 -582.5 231.5t-240.5 571.5t240.5 571.5t582.5 231.5q354 0 608 -283q33 -37 25 -93t-53 -93q-47 -39 -100.5 -37t-88.5 41q-98 92 -184 138t-207 46q-217 0 -369.5 -152.5 t-152.5 -369.5t152.5 -369.5t369.5 -152.5q121 0 207 46t184 138zM1014 1720l-258 -67q-25 -8 -42.5 14.5t-14.5 52t30 43.5l240 121q57 25 90 -33q31 -59 -4 -104q-14 -19 -41 -27z" glyph-name="Cacute" horiz-adv-x="1601" unicode="Ć"/><glyph d="M954 328q35 35 89.5 29.5t95.5 -46.5q43 -43 46 -97t-40 -93q-178 -156 -414 -156q-272 0 -460.5 181.5t-188.5 447.5t188.5 446.5t460.5 180.5q244 0 414 -154q43 -41 41 -93t-47 -97q-41 -41 -95.5 -46.5t-89.5 29.5q-94 82 -223 82q-143 0 -245.5 -102.5 t-102.5 -245.5t102.5 -245.5t245.5 -102.5q129 0 223 82zM856 1403l-258 -68q-25 -8 -42 14.5t-14 52.5t29 44l240 121q57 25 90 -33q31 -59 -4 -104q-14 -19 -41 -27z" glyph-name="cacute" horiz-adv-x="1255" unicode="ć"/><glyph d="M1286 430q35 39 88 41t101 -37q45 -37 53 -93t-25 -93q-254 -283 -608 -283q-342 0 -582.5 231.5t-240.5 571.5t240.5 571.5t582.5 231.5q354 0 608 -283q33 -37 25 -93t-53 -93q-47 -39 -100.5 -37t-88.5 41q-98 92 -184 138t-207 46q-217 0 -369.5 -152.5 t-152.5 -369.5t152.5 -369.5t369.5 -152.5q121 0 207 46t184 138zM772 1890l123 -114l123 114q16 16 41.5 12t44.5 -24q18 -23 19 -47.5t-19 -40.5l-158 -154q-20 -18 -51 -18q-33 0 -51 18l-160 154q-41 37 0 88q20 20 46 24t42 -12z" glyph-name="Ccaron" horiz-adv-x="1601" unicode="Č"/><glyph d="M954 328q35 35 89.5 29.5t95.5 -46.5q43 -43 46 -97t-40 -93q-178 -156 -414 -156q-272 0 -460.5 181.5t-188.5 447.5t188.5 446.5t460.5 180.5q244 0 414 -154q43 -41 41 -93t-47 -97q-41 -41 -95.5 -46.5t-89.5 29.5q-94 82 -223 82q-143 0 -245.5 -102.5 t-102.5 -245.5t102.5 -245.5t245.5 -102.5q129 0 223 82zM608 1610l123 -115l123 115q16 16 42 12t44 -25q18 -23 19.5 -47t-19.5 -41l-158 -153q-20 -18 -51 -19q-33 0 -51 19l-160 153q-41 37 0 88q20 20 46 24.5t42 -11.5z" glyph-name="ccaron" horiz-adv-x="1255" unicode="č"/><glyph d="M123 106v1307q0 51 43 87t102 36h389q334 0 561.5 -222t227.5 -554t-227.5 -554t-561.5 -222q-51 0 -86.5 41t-35.5 98t35.5 98t86.5 41q201 0 344.5 147.5t143.5 350.5t-143.5 349t-344.5 146h-243v-1149q0 -51 -43 -86.5t-102.5 -35.5t-102.5 35.5t-43 86.5zM569 1880 l123 -115l123 115q16 16 42 12t44 -24q18 -23 19.5 -47.5t-19.5 -40.5l-158 -154q-23 -18 -51 -18q-33 0 -51 18l-160 154q-41 37 0 88q20 20 46 24t42 -12z" glyph-name="Dcaron" horiz-adv-x="1517" unicode="Ď"/><glyph d="M1444 1235l67 258q16 63 86 57q61 -4 80 -51q10 -25 -2 -51l-121 -240q-14 -27 -43.5 -29.5t-52 14.5t-14.5 42zM934 16q-88 -51 -254 -51q-250 0 -424 180.5t-174 448.5q0 266 174 446.5t424 180.5q244 0 397 -207h4v416q0 51 41 86.5t100.5 35.5t101.5 -35.5t42 -86.5 v-1324q0 -51 -42 -86.5t-101.5 -35.5t-100.5 35.5t-41 86.5v488q0 143 -101 245.5t-247 102.5q-143 0 -246.5 -102.5t-103.5 -245.5t103.5 -246.5t246.5 -103.5q49 0 96 12q37 16 76 -7.5t61.5 -68.5t13.5 -94.5t-46 -69.5z" glyph-name="dcaron" horiz-adv-x="1716" unicode="ď"/><glyph d="M123 123v663q0 51 43 87t102 36h736q51 0 86.5 -42t35.5 -99t-35.5 -98t-86.5 -41h-590v-350h731q51 0 87 -41t36 -98.5t-36 -98.5t-87 -41h-877q-59 0 -102 36t-43 87zM123 1153v260q0 51 43 87t102 36h877q51 0 87 -42t36 -99.5t-36 -98.5t-87 -41h-731v-102 q0 -51 -43 -87t-102.5 -36t-102.5 36t-43 87zM487 1722.5q0 32.5 18.5 56t47.5 23.5h285q29 0 47 -23.5t18 -56t-18.5 -56.5t-46.5 -24h-285q-29 0 -47.5 24t-18.5 56.5z" glyph-name="Emacron" horiz-adv-x="1333" unicode="Ē"/><glyph d="M516 1456q0 33 18.5 56.5t47.5 23.5h284q29 0 47.5 -23.5t18.5 -56.5t-18.5 -56.5t-47.5 -23.5h-284q-29 0 -47.5 23.5t-18.5 56.5zM492 588q0 51 31.5 88t76.5 37h455q-37 109 -125 172t-201 63q-141 0 -243.5 -105.5t-102.5 -248.5q0 -147 104.5 -258t251.5 -111 q80 0 164 29t137 76q31 35 81 33.5t89 -37.5q39 -33 47.5 -84.5t-20.5 -83.5q-92 -92 -225 -142.5t-273 -50.5q-279 0 -468 180.5t-189 448.5q0 266 188.5 446.5t458.5 180.5q264 0 450.5 -182.5t186.5 -444.5q0 -51 -43 -92t-102 -41h-621q-45 0 -76.5 38t-31.5 89z" glyph-name="emacron" horiz-adv-x="1447" unicode="ē"/><glyph d="M123 123v663q0 51 43 87t102 36h736q51 0 86.5 -42t35.5 -99t-35.5 -98t-86.5 -41h-590v-350h731q51 0 87 -41t36 -98.5t-36 -98.5t-87 -41h-877q-59 0 -102 36t-43 87zM123 1153v260q0 51 43 87t102 36h877q51 0 87 -42t36 -99.5t-36 -98.5t-87 -41h-731v-102 q0 -51 -43 -87t-102.5 -36t-102.5 36t-43 87zM694.5 1593q-63.5 0 -110.5 47.5t-47 111t47 110.5t110.5 47t110.5 -47t47 -110.5t-47 -111t-110.5 -47.5z" glyph-name="Edotaccent" horiz-adv-x="1333" unicode="Ė"/><glyph d="M492 588q0 51 31.5 88t76.5 37h455q-37 109 -125 172t-201 63q-141 0 -243.5 -105.5t-102.5 -248.5q0 -147 104.5 -258t251.5 -111q80 0 164 29t137 76q31 35 81 33.5t89 -37.5q39 -33 47.5 -84.5t-20.5 -83.5q-92 -92 -225 -142.5t-273 -50.5q-279 0 -468 180.5 t-189 448.5q0 266 188.5 446.5t458.5 180.5q264 0 450.5 -182.5t186.5 -444.5q0 -51 -43 -92t-102 -41h-621q-45 0 -76.5 38t-31.5 89zM729.5 1335q-65.5 0 -112 47.5t-46.5 110.5t46.5 110.5t112 47.5t111.5 -47.5t46 -110.5t-46 -110.5t-111.5 -47.5z" glyph-name="edotaccent" horiz-adv-x="1447" unicode="ė"/><glyph d="M1145 -238q10 0 25.5 4.5t25.5 4.5q23 2 39 -15.5t16 -40.5q0 -53 -52 -76.5t-114 -23.5q-92 0 -156.5 64.5t-64.5 156.5q0 102 72 164h-668q-59 0 -102 36t-43 87v663q0 51 43 87t102 36h736q51 0 86.5 -42t35.5 -99t-35.5 -98t-86.5 -41h-590v-350h731q51 0 87 -41 t36 -98.5t-36 -98.5t-87 -41q-53 0 -86 -35t-33 -84t35 -84t84 -35zM123 1153v260q0 51 43 87t102 36h877q51 0 87 -42t36 -99.5t-36 -98.5t-87 -41h-731v-102q0 -51 -43 -87t-102.5 -36t-102.5 36t-43 87z" glyph-name="Eogonek" horiz-adv-x="1333" unicode="Ę"/><glyph d="M492 588q0 51 31.5 88t76.5 37h455q-37 109 -125 172t-201 63q-141 0 -243.5 -105.5t-102.5 -248.5q0 -147 104.5 -258t251.5 -111q80 0 164 29t137 76q31 35 81 33.5t89 -37.5q39 -33 47.5 -84.5t-20.5 -83.5q-92 -92 -231 -144q-37 -12 -61.5 -48t-24.5 -77 q0 -51 35.5 -89t86.5 -38q10 0 25.5 4.5t26.5 4.5q23 2 39 -15.5t16 -40.5q0 -53 -52.5 -76.5t-113.5 -23.5q-92 0 -158.5 68.5t-66.5 160.5q0 74 37 125q-37 -4 -56 -4q-279 0 -468 180.5t-189 448.5q0 266 188.5 446.5t458.5 180.5q264 0 450.5 -182.5t186.5 -444.5 q0 -51 -43 -92t-102 -41h-621q-45 0 -76.5 38t-31.5 89z" glyph-name="eogonek" horiz-adv-x="1447" unicode="ę"/><glyph d="M123 123v663q0 51 43 87t102 36h736q51 0 86.5 -42t35.5 -99t-35.5 -98t-86.5 -41h-590v-350h731q51 0 87 -41t36 -98.5t-36 -98.5t-87 -41h-877q-59 0 -102 36t-43 87zM123 1153v260q0 51 43 87t102 36h877q51 0 87 -42t36 -99.5t-36 -98.5t-87 -41h-731v-102 q0 -51 -43 -87t-102.5 -36t-102.5 36t-43 87zM565 1880l123 -115l123 115q16 16 42 12t44 -24q18 -23 19.5 -47.5t-19.5 -40.5l-158 -154q-20 -18 -51 -18q-33 0 -51 18l-160 154q-41 37 0 88q20 20 46 24t42 -12z" glyph-name="Ecaron" horiz-adv-x="1333" unicode="Ě"/><glyph d="M492 588q0 51 31.5 88t76.5 37h455q-37 109 -125 172t-201 63q-141 0 -243.5 -105.5t-102.5 -248.5q0 -147 104.5 -258t251.5 -111q80 0 164 29t137 76q31 35 81 33.5t89 -37.5q39 -33 47.5 -84.5t-20.5 -83.5q-92 -92 -225 -142.5t-273 -50.5q-279 0 -468 180.5 t-189 448.5q0 266 188.5 446.5t458.5 180.5q264 0 450.5 -182.5t186.5 -444.5q0 -51 -43 -92t-102 -41h-621q-45 0 -76.5 38t-31.5 89zM606 1610l123 -115l123 115q16 16 42 12t44 -25q18 -23 19 -47t-19 -41l-158 -153q-23 -18 -51 -19q-33 0 -51 19l-160 153q-41 37 0 88 q20 20 46 24.5t42 -11.5z" glyph-name="ecaron" horiz-adv-x="1447" unicode="ě"/><glyph d="M883 770q0 57 34.5 98t83.5 41h359q59 0 102 -35.5t43 -87.5v-499q0 -45 -35 -80q-236 -242 -575 -242q-342 0 -582.5 231.5t-240.5 571.5t240.5 571.5t582.5 231.5q301 0 543 -213q35 -35 30.5 -88t-45.5 -94t-94 -46.5t-88 29.5q-147 131 -346 131 q-215 0 -368.5 -152.5t-153.5 -369.5t153.5 -370.5t368.5 -153.5q186 0 334 118v267h-228q-49 0 -83.5 41t-34.5 100zM793 -438q0 18 12 31.5t31 13.5q33 0 55 23.5t24 60.5q-8 -4 -20 -4q-49 0 -84 34.5t-35 83.5q0 47 35 83t84 36q47 0 83 -35.5t36 -83.5v-114 q0 -74 -52.5 -126t-125.5 -52q-18 0 -30.5 14.5t-12.5 34.5z" glyph-name="Gcommaaccent" horiz-adv-x="1619" unicode="Ģ"/><glyph d="M686 279q57 0 109 20q39 16 86 0t67 -57q43 -88 -33 -154q-92 -76 -229 -80q-250 10 -427 191.5t-177 431.5q0 254 182 422t434 168q227 0 383 -187h4v53q0 49 38 82t93.5 33t94.5 -32.5t39 -82.5v-827q0 -264 -197 -454.5t-467 -190.5q-217 0 -424 106q-43 23 -53 75 t18 102q27 49 76 69.5t90 -0.5q147 -82 293 -82q133 0 256 92.5t123 217.5v415q0 137 -97.5 234.5t-234.5 97.5q-139 0 -244.5 -93t-105.5 -228.5t88 -238.5t215 -103zM815 1649q0 -18 -12 -31.5t-31 -13.5q-33 0 -55.5 -24t-24.5 -60q8 4 21 4q49 0 83.5 -35t34.5 -84 q0 -47 -34.5 -83t-83.5 -36q-47 0 -83 36t-36 83v115q0 74 52 126t126 52q18 0 30.5 -14.5t12.5 -34.5z" glyph-name="gcommaaccent" horiz-adv-x="1472" unicode="ģ"/><glyph d="M123 106v1324q0 51 43 86.5t102.5 35.5t102.5 -35.5t43 -86.5v-1324q0 -51 -43 -86.5t-102.5 -35.5t-102.5 35.5t-43 86.5zM61 1722.5q0 32.5 18.5 56t47.5 23.5h285q29 0 47 -23.5t18 -56t-18.5 -56.5t-46.5 -24h-285q-29 0 -47.5 24t-18.5 56.5z" glyph-name="Imacron" horiz-adv-x="536" unicode="Ī"/><glyph d="M123 106v973q0 51 42 87t101.5 36t101.5 -36t42 -87v-973q0 -51 -42 -86.5t-101.5 -35.5t-101.5 35.5t-42 86.5zM57 1456q0 33 18.5 56.5t47.5 23.5h285q29 0 47 -23.5t18 -56.5t-18.5 -56.5t-46.5 -23.5h-285q-29 0 -47.5 23.5t-18.5 56.5z" glyph-name="imacron" horiz-adv-x="532" unicode="ī"/><glyph d="M123 106v1324q0 51 43 86.5t102.5 35.5t102.5 -35.5t43 -86.5v-1324q0 -76 -74 -106q-74 -35 -74 -115q0 -49 35 -86t84 -37q10 0 25.5 4.5t25.5 4.5q23 2 39.5 -15.5t16.5 -40.5q0 -53 -52.5 -76.5t-113.5 -23.5q-92 0 -157 66.5t-65 158.5q0 100 74 168q-55 39 -55 98z " glyph-name="Iogonek" horiz-adv-x="536" unicode="Į"/><glyph d="M123 106v973q0 51 42 87t101.5 36t101.5 -36t42 -87v-973q0 -76 -70 -106q-74 -35 -74 -115q0 -49 35 -86t84 -37q10 0 25.5 4.5t25.5 4.5q23 2 39.5 -15.5t16.5 -40.5q0 -53 -52.5 -76.5t-113.5 -23.5q-92 0 -157 66.5t-65 158.5q0 100 74 168q-55 39 -55 98z M104 1417.5q0 67.5 47.5 114.5t115 47t114.5 -47t47 -114.5t-47 -115t-114.5 -47.5t-115 47.5t-47.5 115z" glyph-name="iogonek" horiz-adv-x="532" unicode="į"/><glyph d="M123 106v973q0 51 42 87t101.5 36t101.5 -36t42 -87v-973q0 -51 -42 -86.5t-101.5 -35.5t-101.5 35.5t-42 86.5z" glyph-name="dotlessi" horiz-adv-x="532" unicode="ı"/><glyph d="M834 768l477 -559q33 -37 24.5 -91.5t-53.5 -94.5q-45 -39 -98.5 -40t-85.5 40l-555 636q-41 45 -41 108.5t41 109.5l555 636q33 41 86 40t98 -40q45 -41 53 -95t-24 -91zM123 106v1324q0 51 43 86.5t102.5 35.5t102.5 -35.5t43 -86.5v-1324q0 -51 -43 -86.5 t-102.5 -35.5t-102.5 35.5t-43 86.5zM594 -397q0 18 12 31.5t31 13.5q33 0 55.5 23.5t24.5 60.5q-8 -4 -21 -4q-49 0 -83.5 34.5t-34.5 83.5q0 47 34.5 83t83.5 36q47 0 83 -35.5t36 -83.5v-114q0 -74 -52 -126t-126 -52q-18 0 -30.5 14.5t-12.5 34.5z" glyph-name="Kcommaaccent" horiz-adv-x="1398" unicode="Ķ"/><glyph d="M123 106v1324q0 51 42 86.5t101.5 35.5t101.5 -35.5t42 -86.5v-1324q0 -51 -42 -86.5t-101.5 -35.5t-101.5 35.5t-42 86.5zM823 594l351 -391q33 -35 24.5 -88.5t-53.5 -94.5q-45 -37 -96.5 -37.5t-83.5 37.5l-426 467q-41 47 -41 106.5t41 106.5l422 465q33 39 84 38 t96 -38q45 -41 53 -94t-25 -88zM539 -397q0 18 12 31.5t31 13.5q33 0 55 23.5t25 60.5q-8 -4 -21 -4q-49 0 -84 34.5t-35 83.5q0 47 35 83t84 36q47 0 83 -35.5t36 -83.5v-114q0 -74 -52.5 -126t-125.5 -52q-18 0 -30.5 14.5t-12.5 34.5z" glyph-name="kcommaaccent" horiz-adv-x="1230" unicode="ķ"/><glyph d="M123 123v1307q0 51 43 86.5t102.5 35.5t102.5 -35.5t43 -86.5v-1151h659q51 0 87 -41t36 -98.5t-36 -98.5t-87 -41h-805q-59 0 -102 36t-43 87zM819 1679l-258 -67q-25 -8 -42 14.5t-14 52t30 43.5l239 121q57 25 90 -33q31 -59 -4 -104q-14 -19 -41 -27z" glyph-name="Lacute" horiz-adv-x="1257" unicode="Ĺ"/><glyph d="M123 106v1324q0 51 42 86.5t101.5 35.5t101.5 -35.5t42 -86.5v-1324q0 -51 -42 -86.5t-101.5 -35.5t-101.5 35.5t-42 86.5zM393 1655l-258 -68q-25 -8 -42 14.5t-14 52t30 44.5l239 121q57 25 90 -33q31 -59 -4 -105q-14 -18 -41 -26z" glyph-name="lacute" horiz-adv-x="532" unicode="ĺ"/><glyph d="M123 123v1307q0 51 43 86.5t102.5 35.5t102.5 -35.5t43 -86.5v-1151h659q51 0 87 -41t36 -98.5t-36 -98.5t-87 -41h-805q-59 0 -102 36t-43 87zM565 -397q0 18 12.5 31.5t30.5 13.5q33 0 55.5 23.5t24.5 60.5q-8 -4 -20 -4q-49 0 -84 34.5t-35 83.5q0 47 34.5 83t84.5 36 q47 0 82.5 -35.5t35.5 -83.5v-114q0 -74 -52 -126t-126 -52q-18 0 -30.5 14.5t-12.5 34.5z" glyph-name="Lcommaaccent" horiz-adv-x="1257" unicode="Ļ"/><glyph d="M123 106v1324q0 51 42 86.5t101.5 35.5t101.5 -35.5t42 -86.5v-1324q0 -51 -42 -86.5t-101.5 -35.5t-101.5 35.5t-42 86.5zM164 -418q0 18 12 31.5t31 13.5q33 0 55.5 23.5t24.5 60.5q-8 -4 -21 -4q-49 0 -84 35t-35 84q0 47 35 83t84 36q47 0 83 -36t36 -83v-115 q0 -74 -52 -126t-126 -52q-18 0 -30.5 14.5t-12.5 34.5z" glyph-name="lcommaaccent" horiz-adv-x="532" unicode="ļ"/><glyph d="M123 123v1307q0 51 43 86.5t102.5 35.5t102.5 -35.5t43 -86.5v-1151h659q51 0 87 -41t36 -98.5t-36 -98.5t-87 -41h-805q-59 0 -102 36t-43 87zM956 1235l68 258q16 63 86 57q61 -4 80 -51q10 -25 -2 -51l-121 -240q-14 -27 -44 -29.5t-52.5 14.5t-14.5 42z" glyph-name="Lcaron" horiz-adv-x="1257" unicode="Ľ"/><glyph d="M123 106v1324q0 51 42 86.5t101.5 35.5t101.5 -35.5t42 -86.5v-1324q0 -51 -42 -86.5t-101.5 -35.5t-101.5 35.5t-42 86.5zM487 1235l68 258q16 63 86 57q61 -4 80 -51q10 -25 -2 -51l-121 -240q-14 -27 -44 -29.5t-52.5 14.5t-14.5 42z" glyph-name="lcaron" horiz-adv-x="759" unicode="ľ"/><glyph d="M453 391v-112h659q51 0 87 -41t36 -98.5t-36 -98.5t-87 -41h-805q-59 0 -102 36t-43 87v209q0 51 43 95t102 56q59 14 102.5 -13.5t43.5 -78.5zM713 694l-566 -121q-51 -10 -86.5 24t-35.5 93.5t35.5 109.5t86.5 60l566 121q51 10 87 -23.5t36 -93t-36 -110t-87 -60.5z M307 1016q-59 -12 -102 15.5t-43 78.5v320q0 51 43 86.5t102.5 35.5t102.5 -35.5t43 -86.5v-261q0 -51 -43.5 -95t-102.5 -58z" glyph-name="Lslash" horiz-adv-x="1275" unicode="Ł"/><glyph d="M502 645l-355 -76q-51 -10 -86.5 24t-35.5 93t35.5 109.5t86.5 60.5l355 76q51 10 87 -24t36 -93t-36 -109.5t-87 -60.5zM324 1016q-59 -12 -101.5 15.5t-42.5 78.5v320q0 51 42 86.5t101.5 35.5t101.5 -35.5t42 -86.5v-261q0 -51 -42 -95t-101 -58zM324 483 q59 12 101 -15.5t42 -78.5v-283q0 -51 -42 -86.5t-101.5 -35.5t-101.5 35.5t-42 86.5v224q0 51 42.5 95t101.5 58z" glyph-name="lslash" horiz-adv-x="649" unicode="ł"/><glyph d="M854 1679l-258 -67q-25 -8 -42 14.5t-14 52t29 43.5l240 121q57 25 90 -33q31 -59 -4 -104q-14 -19 -41 -27zM123 106v1313q0 55 50 94t122 39q117 0 160 -88l579 -954h6l-2 920q0 51 43 86.5t102.5 35.5t102.5 -35.5t43 -86.5v-1313q0 -55 -50 -94t-122 -39 q-119 0 -160 82l-579 958h-6l2 -918q0 -51 -43 -86.5t-102.5 -35.5t-102.5 35.5t-43 86.5z" glyph-name="Nacute" horiz-adv-x="1452" unicode="Ń"/><glyph d="M410 1079v-973q0 -51 -42 -86.5t-101.5 -35.5t-101.5 35.5t-42 86.5v973q0 51 42 87t101.5 36t101.5 -36t42 -87zM932 106v574q0 125 -68.5 200.5t-191.5 61.5l-39 -4q-41 -4 -76 26.5t-45 79.5q-10 51 10.5 91.5t61.5 54.5q74 31 176 31q207 0 333 -139.5t126 -364.5 v-611q0 -51 -42 -86.5t-101.5 -35.5t-101.5 35.5t-42 86.5zM836 1403l-258 -68q-25 -8 -42.5 14.5t-14.5 52.5t30 44l240 121q57 25 90 -33q31 -59 -4 -104q-14 -19 -41 -27z" glyph-name="nacute" unicode="ń"/><glyph d="M623 -397q0 18 12 31.5t31 13.5q33 0 55 23.5t24 60.5q-8 -4 -20 -4q-49 0 -84 34.5t-35 83.5q0 47 35 83t84 36q47 0 83 -35.5t36 -83.5v-114q0 -74 -52.5 -126t-125.5 -52q-18 0 -30.5 14.5t-12.5 34.5zM123 106v1313q0 55 50 94t122 39q117 0 160 -88l579 -954h6 l-2 920q0 51 43 86.5t102.5 35.5t102.5 -35.5t43 -86.5v-1313q0 -55 -50 -94t-122 -39q-119 0 -160 82l-579 958h-6l2 -918q0 -51 -43 -86.5t-102.5 -35.5t-102.5 35.5t-43 86.5z" glyph-name="Ncommaaccent" horiz-adv-x="1452" unicode="Ņ"/><glyph d="M567 -397q0 18 12.5 31.5t30.5 13.5q33 0 55.5 23.5t24.5 60.5q-8 -4 -20 -4q-49 0 -84 34.5t-35 83.5q0 47 35 83t84 36q47 0 82.5 -35.5t35.5 -83.5v-114q0 -74 -52 -126t-126 -52q-18 0 -30.5 14.5t-12.5 34.5zM410 1079v-973q0 -51 -42 -86.5t-101.5 -35.5 t-101.5 35.5t-42 86.5v973q0 51 42 87t101.5 36t101.5 -36t42 -87zM932 106v574q0 125 -68.5 200.5t-191.5 61.5l-39 -4q-41 -4 -76 26.5t-45 79.5q-10 51 10.5 91.5t61.5 54.5q74 31 176 31q207 0 333 -139.5t126 -364.5v-611q0 -51 -42 -86.5t-101.5 -35.5t-101.5 35.5 t-42 86.5z" glyph-name="ncommaaccent" unicode="ņ"/><glyph d="M604 1880l123 -115l123 115q16 16 42 12t44 -24q18 -23 19 -47.5t-19 -40.5l-158 -154q-20 -18 -51 -18q-33 0 -51 18l-160 154q-41 37 0 88q20 20 46 24t42 -12zM123 106v1313q0 55 50 94t122 39q117 0 160 -88l579 -954h6l-2 920q0 51 43 86.5t102.5 35.5t102.5 -35.5 t43 -86.5v-1313q0 -55 -50 -94t-122 -39q-119 0 -160 82l-579 958h-6l2 -918q0 -51 -43 -86.5t-102.5 -35.5t-102.5 35.5t-43 86.5z" glyph-name="Ncaron" horiz-adv-x="1452" unicode="Ň"/><glyph d="M569 1610l123 -115l123 115q16 16 42 12t44 -25q18 -23 19.5 -47t-19.5 -41l-158 -153q-23 -18 -51 -19q-33 0 -51 19l-160 153q-41 37 0 88q20 20 46 24.5t42 -11.5zM410 1079v-973q0 -51 -42 -86.5t-101.5 -35.5t-101.5 35.5t-42 86.5v973q0 51 42 87t101.5 36 t101.5 -36t42 -87zM932 106v574q0 125 -68.5 200.5t-191.5 61.5l-39 -4q-41 -4 -76 26.5t-45 79.5q-10 51 10.5 91.5t61.5 54.5q74 31 176 31q207 0 333 -139.5t126 -364.5v-611q0 -51 -42 -86.5t-101.5 -35.5t-101.5 35.5t-42 86.5z" glyph-name="ncaron" unicode="ň"/><glyph d="M1419 768q0 217 -153.5 369.5t-370.5 152.5t-369.5 -152.5t-152.5 -369.5t152.5 -370.5t369.5 -153.5q219 0 371.5 152.5t152.5 371.5zM1718 768q0 -340 -240.5 -571.5t-582.5 -231.5q-344 0 -583.5 231.5t-239.5 571.5t239.5 571.5t583.5 231.5q342 0 582.5 -231.5 t240.5 -571.5zM686 1722.5q0 32.5 18.5 56t47.5 23.5h284q29 0 47.5 -23.5t18.5 -56t-18.5 -56.5t-47.5 -24h-284q-29 0 -47.5 24t-18.5 56.5z" glyph-name="Omacron" horiz-adv-x="1789" unicode="Ō"/><glyph d="M1079 594q0 143 -102.5 245.5t-247.5 102.5q-143 0 -244.5 -102.5t-101.5 -245.5q0 -145 101.5 -247.5t244.5 -102.5q145 0 247.5 102.5t102.5 247.5zM1378 594q0 -268 -188.5 -448.5t-460.5 -180.5q-270 0 -458.5 180.5t-188.5 448.5q0 266 188.5 446.5t458.5 180.5 q272 0 460.5 -180.5t188.5 -446.5zM522 1456q0 33 18.5 56.5t47.5 23.5h284q29 0 47.5 -23.5t18.5 -56.5t-18.5 -56.5t-47.5 -23.5h-284q-29 0 -47.5 23.5t-18.5 56.5z" glyph-name="omacron" horiz-adv-x="1460" unicode="ō"/><glyph d="M1419 768q0 217 -153.5 369.5t-370.5 152.5t-369.5 -152.5t-152.5 -369.5t152.5 -370.5t369.5 -153.5q219 0 371.5 152.5t152.5 371.5zM1718 768q0 -340 -240.5 -571.5t-582.5 -231.5q-344 0 -583.5 231.5t-239.5 571.5t239.5 571.5t583.5 231.5q342 0 582.5 -231.5 t240.5 -571.5zM766 1616q-29 10 -42 34.5t-5 49.5l59 149q8 23 35 33t55 -2q29 -10 42.5 -34.5t4.5 -49.5l-59 -149q-8 -23 -34.5 -33t-55.5 2zM989 1616q-29 10 -42 34.5t-5 49.5l59 149q8 23 35 33t56 -2q29 -10 42 -34.5t5 -49.5l-60 -149q-8 -23 -34.5 -33t-55.5 2z" glyph-name="Ohungarumlaut" horiz-adv-x="1789" unicode="Ő"/><glyph d="M1079 594q0 143 -102.5 245.5t-247.5 102.5q-143 0 -244.5 -102.5t-101.5 -245.5q0 -145 101.5 -247.5t244.5 -102.5q145 0 247.5 102.5t102.5 247.5zM1378 594q0 -268 -188.5 -448.5t-460.5 -180.5q-270 0 -458.5 180.5t-188.5 448.5q0 266 188.5 446.5t458.5 180.5 q272 0 460.5 -180.5t188.5 -446.5zM590 1282q-29 10 -42 34.5t-5 49.5l59 150q8 23 35 33t55 -3q29 -10 42.5 -34.5t4.5 -49.5l-59 -149q-8 -23 -34.5 -33t-55.5 2zM813 1282q-29 10 -42 34.5t-5 49.5l59 150q8 23 35 33t55 -3q29 -10 42.5 -34.5t5.5 -49.5l-60 -149 q-8 -23 -34.5 -33t-55.5 2z" glyph-name="ohungarumlaut" horiz-adv-x="1460" unicode="ő"/><glyph d="M1042 258q53 14 98.5 -15.5t59.5 -84.5q16 -57 -7.5 -108.5t-72.5 -59.5q-98 -25 -225 -25q-344 0 -583.5 231.5t-239.5 571.5t239.5 571.5t583.5 231.5q139 0 232.5 -34t183.5 -101q10 43 50 71.5t93 28.5h877q51 0 87 -42t36 -99.5t-36 -98.5t-87 -41h-732v-102 q0 -51 -43 -87t-102 -36q-84 0 -125 60q-72 90 -190.5 145t-243.5 55q-217 0 -369.5 -152.5t-152.5 -369.5t152.5 -370.5t369.5 -153.5q90 0 147 14zM1309 123v663q0 51 43 87t102 36h735q51 0 87 -42t36 -99t-35.5 -98t-87.5 -41h-590v-350h732q51 0 87 -41t36 -98.5 t-36 -98.5t-87 -41h-877q-59 0 -102 36t-43 87z" glyph-name="OE" horiz-adv-x="2519" unicode="Œ"/><glyph d="M905 291q45 20 94.5 -2.5t75.5 -75.5q27 -51 12.5 -106.5t-59.5 -73.5q-156 -68 -299 -68q-270 0 -458.5 180.5t-188.5 448.5q0 266 188.5 446.5t458.5 180.5q303 0 498 -222q90 104 219 163t278 59q264 0 450.5 -182.5t186.5 -444.5q0 -51 -43 -92t-102 -41h-621 q-45 0 -76.5 38t-31.5 89t31.5 88t76.5 37h455q-37 109 -125 172t-201 63q-141 0 -243.5 -105.5t-102.5 -248.5q0 -147 104.5 -258t252.5 -111q80 0 163.5 29t137.5 76q31 35 81 33.5t89 -37.5q39 -33 47 -84.5t-21 -83.5q-92 -92 -225 -142.5t-272 -50.5 q-279 0 -467.5 180.5t-188.5 448.5q0 143 -102.5 245.5t-247.5 102.5q-143 0 -244.5 -102.5t-101.5 -245.5q0 -145 101.5 -247.5t244.5 -102.5q88 0 176 47z" glyph-name="oe" horiz-adv-x="2443" unicode="œ"/><glyph d="M666 768h133q100 0 171.5 71.5t71.5 172t-71.5 172t-171.5 71.5h-385v-1149q0 -51 -43 -86.5t-102.5 -35.5t-102.5 35.5t-43 86.5v1307q0 51 43 87t102 36h531q225 0 382.5 -150.5t157.5 -373.5q0 -180 -113.5 -318.5t-285.5 -185.5l225 -313q29 -43 13.5 -97.5 t-64.5 -87.5t-104.5 -26.5t-83.5 49.5l-357 508q-27 41 -26 88q0 57 36 98t87 41zM831 1679l-258 -67q-25 -8 -42 14.5t-14 52t30 43.5l239 121q57 25 91 -33q31 -59 -5 -104q-14 -19 -41 -27z" glyph-name="Racute" horiz-adv-x="1421" unicode="Ŕ"/><glyph d="M657 1403l-258 -68q-25 -8 -42 14.5t-14 52.5t30 44l239 121q57 25 90 -33q31 -59 -4 -104q-14 -19 -41 -27zM123 778v301q0 51 42 87t101.5 36t101.5 -36t42 -87v-24h4q131 166 315 166q70 0 103.5 -10.5t87.5 -41.5q37 -20 46 -69t-13.5 -94t-61.5 -69t-76 -7 q-45 12 -96 12q-104 0 -190.5 -57.5t-127.5 -149.5q-39 -80 -135 -80q-59 0 -101 36t-42 87zM123 106v324q0 51 42 87t101.5 36t101.5 -36t42 -87v-324q0 -51 -42 -86.5t-101.5 -35.5t-101.5 35.5t-42 86.5z" glyph-name="racute" horiz-adv-x="989" unicode="ŕ"/><glyph d="M666 768h133q100 0 171.5 71.5t71.5 172t-71.5 172t-171.5 71.5h-385v-1149q0 -51 -43 -86.5t-102.5 -35.5t-102.5 35.5t-43 86.5v1307q0 51 43 87t102 36h531q225 0 382.5 -150.5t157.5 -373.5q0 -180 -113.5 -318.5t-285.5 -185.5l225 -313q29 -43 13.5 -97.5 t-64.5 -87.5t-104.5 -26.5t-83.5 49.5l-357 508q-27 41 -26 88q0 57 36 98t87 41zM557 -397q0 18 12.5 31.5t30.5 13.5q33 0 55.5 23.5t24.5 60.5q-8 -4 -21 -4q-49 0 -83.5 34.5t-34.5 83.5q0 47 34.5 83t83.5 36q47 0 83 -35.5t36 -83.5v-114q0 -74 -52 -126t-126 -52 q-18 0 -30.5 14.5t-12.5 34.5z" glyph-name="Rcommaaccent" horiz-adv-x="1421" unicode="Ŗ"/><glyph d="M422 -397q0 18 12 31.5t31 13.5q33 0 55.5 23.5t24.5 60.5q-8 -4 -21 -4q-49 0 -83.5 34.5t-34.5 83.5q0 47 34.5 83t83.5 36q47 0 83 -35.5t36 -83.5v-114q0 -74 -52 -126t-126 -52q-18 0 -30.5 14.5t-12.5 34.5zM123 778v301q0 51 42 87t101.5 36t101.5 -36t42 -87v-24 h4q131 166 315 166q70 0 103.5 -10.5t87.5 -41.5q37 -20 46 -69t-13.5 -94t-61.5 -69t-76 -7q-45 12 -96 12q-104 0 -190.5 -57.5t-127.5 -149.5q-39 -80 -135 -80q-59 0 -101 36t-42 87zM123 106v324q0 51 42 87t101.5 36t101.5 -36t42 -87v-324q0 -51 -42 -86.5 t-101.5 -35.5t-101.5 35.5t-42 86.5z" glyph-name="rcommaaccent" horiz-adv-x="989" unicode="ŗ"/><glyph d="M666 768h133q100 0 171.5 71.5t71.5 172t-71.5 172t-171.5 71.5h-385v-1149q0 -51 -43 -86.5t-102.5 -35.5t-102.5 35.5t-43 86.5v1307q0 51 43 87t102 36h531q225 0 382.5 -150.5t157.5 -373.5q0 -180 -113.5 -318.5t-285.5 -185.5l225 -313q29 -43 13.5 -97.5 t-64.5 -87.5t-104.5 -26.5t-83.5 49.5l-357 508q-27 41 -26 88q0 57 36 98t87 41zM553 1880l123 -115l123 115q16 16 41.5 12t44.5 -24q18 -23 19 -47.5t-19 -40.5l-158 -154q-23 -18 -51 -18q-33 0 -51 18l-160 154q-41 37 0 88q20 20 46 24t42 -12z" glyph-name="Rcaron" horiz-adv-x="1421" unicode="Ř"/><glyph d="M401 1610l123 -115l123 115q16 16 42 12t44 -25q18 -23 19.5 -47t-19.5 -41l-158 -153q-23 -18 -51 -19q-33 0 -51 19l-160 153q-41 37 0 88q20 20 46 24.5t42 -11.5zM123 778v301q0 51 42 87t101.5 36t101.5 -36t42 -87v-24h4q131 166 315 166q70 0 103.5 -10.5 t87.5 -41.5q37 -20 46 -69t-13.5 -94t-61.5 -69t-76 -7q-45 12 -96 12q-104 0 -190.5 -57.5t-127.5 -149.5q-39 -80 -135 -80q-59 0 -101 36t-42 87zM123 106v324q0 51 42 87t101.5 36t101.5 -36t42 -87v-324q0 -51 -42 -86.5t-101.5 -35.5t-101.5 35.5t-42 86.5z" glyph-name="rcaron" horiz-adv-x="989" unicode="ř"/><glyph d="M782 1720l-258 -67q-25 -8 -42 14.5t-14 52t30 43.5l239 121q57 25 90 -33q31 -59 -4 -104q-14 -19 -41 -27zM289 358q186 -141 360 -141q125 0 202 63.5t77 163.5q0 74 -45 121t-118 68.5t-160 38t-174 43t-159.5 70.5t-117.5 133.5t-45 218.5q0 203 152.5 318.5 t387.5 115.5q268 0 475 -137q43 -29 52.5 -79t-19.5 -102q-31 -51 -80 -69.5t-92 6.5q-172 106 -336 106q-238 0 -237 -159q0 -72 45 -117t117.5 -66.5t159.5 -38t174 -44t160 -72.5t118 -135.5t45 -219.5q0 -221 -163 -350t-419 -129q-291 0 -514 156l-6 6q-41 31 -46 84 t28 104q35 43 88 56.5t90 -13.5z" glyph-name="Sacute" horiz-adv-x="1312" unicode="Ś"/><glyph d="M713 1403l-258 -68q-25 -8 -42.5 14.5t-14.5 52.5t30 44l240 121q57 25 90 -33q31 -59 -4 -104q-14 -19 -41 -27zM262 303q141 -78 326 -88q231 0 231 123q0 63 -52 96t-131 40t-171 24.5t-171 45t-131 107.5t-52 207q0 176 125.5 269.5t351.5 93.5q207 0 387 -88 q37 -16 49 -61.5t-8 -92.5q-23 -47 -66 -67.5t-82 -0.5q-127 61 -280 62q-182 0 -182 -115q0 -59 53 -91t132 -40t171 -27.5t171 -48t132 -108.5t53 -205q0 -186 -147.5 -279.5t-382.5 -93.5q-256 0 -453 109q-37 23 -48 71t13 95q27 49 73 67.5t89 -4.5z" glyph-name="sacute" horiz-adv-x="1181" unicode="ś"/><glyph d="M526 1890l123 -114l123 114q16 16 42 12t44 -24q18 -23 19.5 -47.5t-19.5 -40.5l-158 -154q-20 -18 -51 -18q-33 0 -51 18l-160 154q-41 37 0 88q20 20 46 24t42 -12zM289 358q186 -141 360 -141q125 0 202 63.5t77 163.5q0 74 -45 121t-118 68.5t-160 38t-174 43 t-159.5 70.5t-117.5 133.5t-45 218.5q0 203 152.5 318.5t387.5 115.5q268 0 475 -137q43 -29 52.5 -79t-19.5 -102q-31 -51 -80 -69.5t-92 6.5q-172 106 -336 106q-238 0 -237 -159q0 -72 45 -117t117.5 -66.5t159.5 -38t174 -44t160 -72.5t118 -135.5t45 -219.5 q0 -221 -163 -350t-419 -129q-291 0 -514 156l-6 6q-41 31 -46 84t28 104q35 43 88 56.5t90 -13.5z" glyph-name="Scaron" horiz-adv-x="1312" unicode="Š"/><glyph d="M465 1610l123 -115l123 115q16 16 41.5 12t44.5 -25q18 -23 19 -47t-19 -41l-158 -153q-20 -18 -51 -19q-33 0 -51 19l-160 153q-41 37 0 88q20 20 46 24.5t42 -11.5zM262 303q141 -78 326 -88q231 0 231 123q0 63 -52 96t-131 40t-171 24.5t-171 45t-131 107.5t-52 207 q0 176 125.5 269.5t351.5 93.5q207 0 387 -88q37 -16 49 -61.5t-8 -92.5q-23 -47 -66 -67.5t-82 -0.5q-127 61 -280 62q-182 0 -182 -115q0 -59 53 -91t132 -40t171 -27.5t171 -48t132 -108.5t53 -205q0 -186 -147.5 -279.5t-382.5 -93.5q-256 0 -453 109q-37 23 -48 71 t13 95q27 49 73 67.5t89 -4.5z" glyph-name="scaron" horiz-adv-x="1181" unicode="š"/><glyph d="M516 1880l123 -115l123 115q16 16 41.5 12t44.5 -24q18 -23 19 -47.5t-19 -40.5l-158 -154q-23 -18 -51 -18q-33 0 -51 18l-160 154q-41 37 0 88q20 20 46 24t42 -12zM639 -16q-59 0 -102 35.5t-43 86.5v1307q0 51 43 87t102 36h489q51 0 87 -42t36 -99.5t-35.5 -98.5 t-87.5 -41h-346v-1149q0 -51 -42 -86.5t-101 -35.5zM139 1255q-49 0 -84 41t-35 99q0 59 35 100t84 41h115q49 0 84 -41t35 -100q0 -57 -35 -98.5t-84 -41.5h-115z" glyph-name="Tcaron" horiz-adv-x="1271" unicode="Ť"/><glyph d="M319.5 829q57.5 0 100.5 -35.5t43 -84.5v-359q0 -31 20.5 -51t48.5 -20h33q45 0 77 -41t32 -98.5t-32 -98.5t-77 -41h-53q-174 0 -255 86t-81 264v359q0 49 43 84.5t100.5 35.5zM176 1186v164q0 49 43 84.5t100.5 35.5t100.5 -35.5t43 -84.5v-164h102q45 0 77 -38t32 -89 t-32 -89t-77 -38h-424q-45 0 -76.5 38t-31.5 89t31.5 89t76.5 38h35zM674 1235l67 258q16 63 86 57q61 -4 80 -51q10 -25 -2 -51l-121 -240q-14 -27 -43.5 -29.5t-52 14.5t-14.5 42z" glyph-name="tcaron" horiz-adv-x="937" unicode="ť"/><glyph d="M526 1722.5q0 32.5 18.5 56t47.5 23.5h285q29 0 47 -23.5t18 -56t-18.5 -56.5t-46.5 -24h-285q-29 0 -47.5 24t-18.5 56.5zM123 1430q0 51 43 86.5t102.5 35.5t102.5 -35.5t43 -86.5v-895q0 -135 91 -216t230 -81t229.5 80.5t90.5 216.5v895q0 51 43 86.5t102.5 35.5 t102.5 -35.5t43 -86.5v-895q0 -262 -171 -416t-440 -154q-270 0 -441 153.5t-171 416.5v895z" glyph-name="Umacron" horiz-adv-x="1468" unicode="Ū"/><glyph d="M463 1456q0 33 18.5 56.5t46.5 23.5h285q29 0 47.5 -23.5t18.5 -56.5t-18.5 -56.5t-47.5 -23.5h-285q-29 0 -47 23.5t-18 56.5zM932 106v973q0 51 42 87t101.5 36t101.5 -36t42 -87v-973q0 -51 -42 -86.5t-101.5 -35.5t-101.5 35.5t-42 86.5zM410 1079v-573 q0 -125 68.5 -201t191.5 -61l39 4q41 4 75.5 -27t44.5 -80q10 -51 -10 -91t-61 -54q-74 -31 -176 -31q-207 0 -333 139.5t-126 364.5v610q0 51 42 87t101.5 36t101.5 -36t42 -87z" glyph-name="umacron" unicode="ū"/><glyph d="M788 1743q0 23 -16 38t-38.5 15t-39 -15.5t-16.5 -37.5q0 -25 16.5 -41t39 -16t38.5 16t16 41zM885 1743q0 -63 -45 -108.5t-106.5 -45.5t-106.5 45t-45 109q0 61 45 105t106.5 44t106.5 -44t45 -105zM123 1430q0 51 43 86.5t102.5 35.5t102.5 -35.5t43 -86.5v-895 q0 -135 91 -216t230 -81t229.5 80.5t90.5 216.5v895q0 51 43 86.5t102.5 35.5t102.5 -35.5t43 -86.5v-895q0 -262 -171 -416t-440 -154q-270 0 -441 153.5t-171 416.5v895z" glyph-name="Uring" horiz-adv-x="1468" unicode="Ů"/><glyph d="M725 1489q0 23 -16.5 38t-36.5 15q-25 0 -41.5 -15.5t-16.5 -37.5q0 -25 16.5 -41t41.5 -16q23 0 38 16t15 41zM821 1489q0 -63 -45 -108.5t-104 -45.5q-63 0 -108.5 45t-45.5 109q0 61 45 105t109 44q59 0 104 -44t45 -105zM932 106v973q0 51 42 87t101.5 36t101.5 -36 t42 -87v-973q0 -51 -42 -86.5t-101.5 -35.5t-101.5 35.5t-42 86.5zM410 1079v-573q0 -125 68.5 -201t191.5 -61l39 4q41 4 75.5 -27t44.5 -80q10 -51 -10 -91t-61 -54q-74 -31 -176 -31q-207 0 -333 139.5t-126 364.5v610q0 51 42 87t101.5 36t101.5 -36t42 -87z" glyph-name="uring" unicode="ů"/><glyph d="M123 1430q0 51 43 86.5t102.5 35.5t102.5 -35.5t43 -86.5v-895q0 -135 91 -216t230 -81t229.5 80.5t90.5 216.5v895q0 51 43 86.5t102.5 35.5t102.5 -35.5t43 -86.5v-895q0 -262 -171 -416t-440 -154q-270 0 -441 153.5t-171 416.5v895zM592 1616q-29 10 -42 34.5 t-5 49.5l59 149q8 23 35 33t55 -2q29 -10 42.5 -34.5t4.5 -49.5l-59 -149q-8 -23 -34.5 -33t-55.5 2zM815 1616q-29 10 -42 34.5t-5 49.5l59 149q8 23 35 33t56 -2q29 -10 42 -34.5t5 -49.5l-60 -149q-8 -23 -34.5 -33t-55.5 2z" glyph-name="Uhungarumlaut" horiz-adv-x="1468" unicode="Ű"/><glyph d="M932 106v973q0 51 42 87t101.5 36t101.5 -36t42 -87v-973q0 -51 -42 -86.5t-101.5 -35.5t-101.5 35.5t-42 86.5zM410 1079v-573q0 -125 68.5 -201t191.5 -61l39 4q41 4 75.5 -27t44.5 -80q10 -51 -10 -91t-61 -54q-74 -31 -176 -31q-207 0 -333 139.5t-126 364.5v610 q0 51 42 87t101.5 36t101.5 -36t42 -87zM528 1282q-29 10 -42 34.5t-5 49.5l60 150q8 23 34.5 33t55.5 -3q29 -10 42 -34.5t5 -49.5l-60 -149q-8 -23 -34.5 -33t-55.5 2zM752 1282q-29 10 -42.5 34.5t-4.5 49.5l59 150q8 23 34.5 33t55.5 -3q29 -10 42 -34.5t5 -49.5 l-59 -149q-8 -23 -34.5 -33t-55.5 2z" glyph-name="uhungarumlaut" unicode="ű"/><glyph d="M123 1430q0 51 43 86.5t102.5 35.5t102.5 -35.5t43 -86.5v-895q0 -135 91 -216t230 -81t229.5 80.5t90.5 216.5v895q0 51 43 86.5t102.5 35.5t102.5 -35.5t43 -86.5v-895q0 -193 -96.5 -330t-262.5 -199q-74 -29 -74 -117q0 -53 35 -90t84 -37q10 0 25.5 4.5t25.5 4.5 q23 2 39.5 -15.5t16.5 -40.5q0 -53 -52.5 -76.5t-113.5 -23.5q-92 0 -156.5 64.5t-64.5 156.5q0 70 39 131q-8 0 -27 -1t-29 -1q-270 0 -441 153.5t-171 416.5v895z" glyph-name="Uogonek" horiz-adv-x="1468" unicode="Ų"/><glyph d="M410 1079v-573q0 -125 68.5 -201t191.5 -61l39 4q41 4 75.5 -27t44.5 -80q10 -51 -10 -91t-61 -54q-74 -31 -176 -31q-207 0 -333 139.5t-126 364.5v610q0 51 42 87t101.5 36t101.5 -36t42 -87zM932 106v973q0 51 42 87t101.5 36t101.5 -36t42 -87v-973q0 -76 -70 -106 q-74 -35 -74 -115q0 -49 35 -86t84 -37q10 0 25.5 4.5t25.5 4.5q23 2 39 -15.5t16 -40.5q0 -53 -52 -76.5t-113 -23.5q-92 0 -157 66.5t-65 158.5q0 100 74 168q-55 39 -55 98z" glyph-name="uogonek" unicode="ų"/><glyph d="M596 1718q0 -43 -30.5 -73.5t-71.5 -30.5q-45 0 -76 30.5t-31 73.5q0 45 31 75t76 30q43 0 72.5 -31t29.5 -74zM1001 1718q0 -43 -29.5 -73.5t-74.5 -30.5q-43 0 -73.5 30.5t-30.5 73.5q0 45 30.5 75t73.5 30q45 0 74.5 -30t29.5 -75zM696.5 -16q-59.5 0 -102.5 35.5 t-43 86.5v662q0 33 24 63l531 680q33 41 89 42t101 -35q47 -37 59.5 -91.5t-20.5 -95.5l-493 -633v-592q0 -51 -43 -86.5t-102.5 -35.5zM287 1511l270 -344q33 -41 20.5 -95t-59.5 -91q-45 -37 -101.5 -35t-88.5 41l-271 344q-33 41 -20.5 95.5t59.5 91.5q45 37 101.5 35.5 t89.5 -42.5z" glyph-name="Ydieresis" horiz-adv-x="1392" unicode="Ÿ"/><glyph d="M799 1679l-258 -67q-25 -8 -42.5 14.5t-14.5 52t30 43.5l240 121q57 25 90 -33q31 -59 -4 -104q-14 -19 -41 -27zM61 184q0 90 56 142l784 925v4h-721q-49 0 -84 41t-35 98.5t35 99.5t84 42h946q63 0 108.5 -54.5t45.5 -129.5q0 -86 -57 -144l-781 -923v-4h719 q49 0 84 -42t35 -99.5t-35 -98.5t-84 -41h-946q-63 0 -108.5 54t-45.5 130z" glyph-name="Zacute" unicode="Ź"/><glyph d="M717 1403l-258 -68q-25 -8 -42.5 14.5t-14 52.5t29.5 44l240 121q57 25 90 -33q31 -59 -4 -104q-14 -19 -41 -27zM1118 129q0 -53 -31.5 -91t-76.5 -38h-836q-45 0 -79 39t-34 90q0 53 41 98l566 695v4h-498q-45 0 -77 39t-32 92t32 91t77 38h836q45 0 76.5 -38t31.5 -91 q0 -57 -37 -99l-565 -694v-4h498q45 0 76.5 -39t31.5 -92z" glyph-name="zacute" horiz-adv-x="1179" unicode="ź"/><glyph d="M671.5 1593q-65.5 0 -111.5 47.5t-46 111t46 110.5t111.5 47t111.5 -47t46 -110.5t-46 -111t-111.5 -47.5zM61 184q0 90 56 142l784 925v4h-721q-49 0 -84 41t-35 98.5t35 99.5t84 42h946q63 0 108.5 -54.5t45.5 -129.5q0 -86 -57 -144l-781 -923v-4h719q49 0 84 -42 t35 -99.5t-35 -98.5t-84 -41h-946q-63 0 -108.5 54t-45.5 130z" glyph-name="Zdotaccent" unicode="Ż"/><glyph d="M589.5 1335q-65.5 0 -111.5 47.5t-46 110.5t46 110.5t111.5 47.5t112 -47.5t46.5 -110.5t-46.5 -110.5t-112 -47.5zM1118 129q0 -53 -31.5 -91t-76.5 -38h-836q-45 0 -79 39t-34 90q0 53 41 98l566 695v4h-498q-45 0 -77 39t-32 92t32 91t77 38h836q45 0 76.5 -38 t31.5 -91q0 -57 -37 -99l-565 -694v-4h498q45 0 76.5 -39t31.5 -92z" glyph-name="zdotaccent" horiz-adv-x="1179" unicode="ż"/><glyph d="M61 184q0 90 56 142l784 925v4h-721q-49 0 -84 41t-35 98.5t35 99.5t84 42h946q63 0 108.5 -54.5t45.5 -129.5q0 -86 -57 -144l-781 -923v-4h719q49 0 84 -42t35 -99.5t-35 -98.5t-84 -41h-946q-63 0 -108.5 54t-45.5 130zM549 1880l123 -115l123 115q16 16 41.5 12 t44.5 -24q18 -23 19 -47.5t-19 -40.5l-158 -154q-23 -18 -51 -18q-33 0 -51 18l-160 154q-41 37 0 88q20 20 46 24t42 -12z" glyph-name="Zcaron" unicode="Ž"/><glyph d="M1118 129q0 -53 -31.5 -91t-76.5 -38h-836q-45 0 -79 39t-34 90q0 53 41 98l566 695v4h-498q-45 0 -77 39t-32 92t32 91t77 38h836q45 0 76.5 -38t31.5 -91q0 -57 -37 -99l-565 -694v-4h498q45 0 76.5 -39t31.5 -92zM467 1610l123 -115l123 115q16 16 41.5 12t44.5 -25 q18 -23 19 -47t-19 -41l-158 -153q-23 -18 -51 -19q-33 0 -51 19l-160 153q-41 37 0 88q20 20 46 24.5t42 -11.5z" glyph-name="zcaron" horiz-adv-x="1179" unicode="ž"/><glyph d="M752 909h-451q-47 0 -75.5 39t-20.5 92.5t47 91t86 37.5h86l4 33q27 139 141.5 236.5t253.5 97.5h17q47 0 76.5 -39t21.5 -94t-48 -94t-87 -39h-17q-29 0 -53 -20.5t-26 -47.5l-5 -33h86q47 0 76 -37.5t21 -91t-47 -92.5t-86 -39zM635 684l-98 -698 q-25 -139 -139.5 -237.5t-256.5 -98.5h-18q-47 0 -76 39t-20.5 94t47.5 94t86 39h18q27 0 51.5 20.5t28.5 49.5l96 698q8 51 54.5 87t103.5 36t94 -36t29 -87z" glyph-name="florin" horiz-adv-x="964" unicode="ƒ"/><glyph d="M434 1473l-123 -115q-16 -16 -41.5 -12t-46.5 24q-41 51 0 88l160 154q18 18 51 18q29 0 51 -18l158 -154q20 -16 19.5 -40.5t-19.5 -47.5q-18 -20 -44 -24.5t-42 12.5z" glyph-name="circumflex" horiz-adv-x="868" unicode="ˆ"/><glyph d="M311 1610l123 -115l123 115q16 16 42 12t44 -25q18 -23 19.5 -47t-19.5 -41l-158 -153q-23 -18 -51 -19q-33 0 -51 19l-160 153q-41 37 0 88q20 20 46 24.5t42 -11.5z" glyph-name="caron" horiz-adv-x="868" unicode="ˇ"/><glyph d="M492 1473q-57 -113 -186.5 -113t-186.5 113q-12 23 -4 50t35 42q29 14 57.5 9t38.5 -26q18 -43 59 -43t60 43q10 20 38.5 25.5t57.5 -8.5q27 -14 35 -41.5t-4 -50.5z" glyph-name="breve" horiz-adv-x="610" unicode="˘"/><glyph d="M280.5 1335q-63.5 0 -110.5 47.5t-47 110.5t47 110.5t110.5 47.5t110.5 -47.5t47 -110.5t-47 -110.5t-110.5 -47.5z" glyph-name="dotaccent" horiz-adv-x="561" unicode="˙"/><glyph d="M412 1489q0 23 -15.5 38t-38.5 15q-25 0 -41 -15.5t-16 -37.5q0 -25 16.5 -41t40.5 -16q23 0 38.5 16t15.5 41zM508 1489q0 -63 -45 -108.5t-105 -45.5q-63 0 -108 45t-45 109q0 61 45 105t108 44q59 0 104.5 -44t45.5 -105z" glyph-name="ring" horiz-adv-x="712" unicode="˚"/><glyph d="M403 -238q10 0 25.5 4.5t26.5 4.5q23 2 39 -15.5t16 -40.5q0 -53 -52 -76.5t-114 -23.5q-92 0 -156.5 64.5t-64.5 156.5t64.5 156.5t156.5 64.5q23 0 59 -8v-49q-49 0 -83.5 -35t-34.5 -84t34.5 -84t83.5 -35z" glyph-name="ogonek" horiz-adv-x="632" unicode="˛"/><glyph d="M205 1419q0 61 44 106.5t105 45.5q90 0 129 -80q12 -20 37 -21q39 0 39 39q0 18 16.5 31.5t39 13.5t39 -13t16.5 -32q0 -66 -44 -108.5t-106 -42.5q-88 0 -133 78q-10 23 -33 22q-39 0 -39 -39q0 -18 -16 -31.5t-38.5 -13.5t-39 13.5t-16.5 31.5z" glyph-name="tilde" horiz-adv-x="874" unicode="˜"/><glyph d="M162 1282q-29 10 -42.5 34.5t-4.5 49.5l59 150q8 23 35 33t55 -3q29 -10 42 -34.5t5 -49.5l-59 -149q-8 -23 -34.5 -33t-55.5 2zM385 1282q-29 10 -42 34.5t-5 49.5l59 150q8 23 35 33t55 -3q29 -10 42.5 -34.5t5.5 -49.5l-60 -149q-8 -23 -34.5 -33t-55.5 2z" glyph-name="hungarumlaut" horiz-adv-x="649" unicode="˝"/><glyph d="M1249 928h-192v-688q0 -63 57 -64q27 0 53 8v-219q-49 -6 -63 -6q-168 0 -247 66.5t-79 230.5v672h-246v-928h-278v928h-193v258h1188v-258z" glyph-name="pi" horiz-adv-x="1310" unicode="π"/><glyph d="M76 592q0 43 25.5 73.5t60.5 30.5h960q35 0 60.5 -30.5t25.5 -73.5t-25.5 -74t-60.5 -31h-960q-35 0 -60.5 31t-25.5 74z" glyph-name="endash" horiz-adv-x="1267" unicode="–"/><glyph d="M76 592q0 43 25.5 73.5t60.5 30.5h1552q35 0 60.5 -30.5t25.5 -73.5t-25.5 -74t-60.5 -31h-1552q-35 0 -60.5 31t-25.5 74z" glyph-name="emdash" horiz-adv-x="1861" unicode="—"/><glyph d="M397 1489q0 -27 -17.5 -44.5t-41.5 -17.5q-45 0 -73.5 -30.5t-31.5 -79.5q10 4 27 4q63 0 110.5 -46t47.5 -111.5t-47 -111.5t-110.5 -46t-111 46t-47.5 111v152q0 98 69 167.5t167 69.5q25 0 42 -18t17 -45z" glyph-name="quoteleft" horiz-adv-x="479" unicode="‘"/><glyph d="M82 1069q0 27 17.5 44t41.5 17q45 0 74 31t31 80q-10 -4 -27 -4q-63 0 -110.5 47t-47.5 110.5t47.5 110.5t111 47t110.5 -47t47 -110v-152q0 -98 -68.5 -167.5t-167.5 -69.5q-25 0 -42 18t-17 45z" glyph-name="quoteright" horiz-adv-x="479" unicode="’"/><glyph d="M123 -184.5q0 26.5 17.5 44t41.5 17.5q45 0 74 31t31 80q-10 -4 -27 -4q-63 0 -110.5 47t-47.5 110.5t47.5 110.5t111 47t110.5 -47t47 -111v-151q0 -98 -68.5 -168t-167.5 -70q-25 0 -42 18.5t-17 45z" glyph-name="quotesinglbase" horiz-adv-x="479" unicode="‚"/><glyph d="M397 1489q0 -27 -17.5 -44.5t-41.5 -17.5q-45 0 -73.5 -30.5t-31.5 -79.5q10 4 27 4q63 0 110.5 -46t47.5 -111.5t-47 -111.5t-110.5 -46t-111 46t-47.5 111v152q0 98 69 167.5t167 69.5q25 0 42 -18t17 -45zM774 1489q0 -27 -17.5 -44.5t-41.5 -17.5q-45 0 -74 -30.5 t-31 -79.5q10 4 27 4q63 0 110.5 -46t47.5 -111.5t-47.5 -111.5t-111 -46t-110.5 46t-47 111v152q0 98 68.5 167.5t167.5 69.5q25 0 42 -18t17 -45z" glyph-name="quotedblleft" horiz-adv-x="856" unicode="“"/><glyph d="M459 1069q0 27 17.5 44t41.5 17q45 0 74 31t31 80q-10 -4 -27 -4q-63 0 -110.5 47t-47.5 110.5t47 110.5t110.5 47t111 -47t47.5 -110v-152q0 -98 -69 -167.5t-167 -69.5q-25 0 -42 18t-17 45zM82 1069q0 27 17.5 44t41.5 17q45 0 74 31t31 80q-10 -4 -27 -4 q-63 0 -110.5 47t-47.5 110.5t47.5 110.5t111 47t110.5 -47t47 -110v-152q0 -98 -68.5 -167.5t-167.5 -69.5q-25 0 -42 18t-17 45z" glyph-name="quotedblright" horiz-adv-x="856" unicode="”"/><glyph d="M82 -184.5q0 26.5 17.5 44t41.5 17.5q45 0 74 31t31 80q-10 -4 -27 -4q-63 0 -110.5 47t-47.5 110.5t47.5 110.5t111 47t110.5 -47t47 -111v-151q0 -98 -68.5 -168t-167.5 -70q-25 0 -42 18.5t-17 45zM459 -184.5q0 26.5 17.5 44t41.5 17.5q45 0 74 31t31 80 q-10 -4 -27 -4q-63 0 -110.5 47t-47.5 110.5t47 110.5t110.5 47t111 -47t47.5 -111v-151q0 -98 -69 -168t-167 -70q-25 0 -42 18.5t-17 45z" glyph-name="quotedblbase" horiz-adv-x="856" unicode="„"/><glyph d="M844 977h-649q-37 0 -63 30.5t-26 73.5t26 74t63 31h223v278q0 37 30.5 62.5t73.5 25.5t74 -25.5t31 -62.5v-278h217q37 0 61.5 -31t24.5 -74t-24.5 -73.5t-61.5 -30.5zM627 799v-901q0 -37 -31 -61.5t-74 -24.5t-73.5 24.5t-30.5 61.5v901q0 37 30.5 61.5t73.5 24.5 t74 -24.5t31 -61.5z" glyph-name="dagger" horiz-adv-x="1036" unicode="†"/><glyph d="M844 977h-649q-37 0 -63 30.5t-26 73.5t26 74t63 31h223v278q0 37 30.5 62.5t73.5 25.5t74 -25.5t31 -62.5v-278h217q37 0 61.5 -31t24.5 -74t-24.5 -73.5t-61.5 -30.5zM844 174h-217v-276q0 -37 -31 -61.5t-74 -24.5t-73.5 24.5t-30.5 61.5v276h-223q-37 0 -63 31 t-26 74t26 73.5t63 30.5h649q37 0 61.5 -30.5t24.5 -73.5t-24.5 -74t-61.5 -31zM418 561v238q0 37 30.5 61.5t73.5 24.5t74 -24.5t31 -61.5v-238q0 -37 -31 -61.5t-74 -24.5t-73.5 24.5t-30.5 61.5z" glyph-name="daggerdbl" horiz-adv-x="1036" unicode="‡"/><glyph d="M451 350q-102 0 -174 72t-72 172t71.5 172t174.5 72q100 0 171.5 -72t71.5 -172t-71.5 -172t-171.5 -72z" glyph-name="bullet" horiz-adv-x="899" unicode="•"/><glyph d="M1653 141.5q0 65.5 46 111.5t111.5 46t110.5 -46t45 -111.5t-45 -111.5t-110.5 -46t-111.5 46t-46 111.5zM862 141.5q0 63.5 46 110.5t111.5 47t112 -47t46.5 -110.5t-46.5 -110.5t-112 -47t-111.5 47t-46 110.5zM72 141.5q0 63.5 46 110.5t111.5 47t111.5 -47t46 -110.5 t-46 -110.5t-111.5 -47t-111.5 47t-46 110.5z" glyph-name="ellipsis" horiz-adv-x="2037" unicode="…"/><glyph d="M279 152l915 1366q20 29 60 32.5t75 -18.5q33 -25 43 -63.5t-10 -67.5l-916 -1366q-20 -31 -60 -34t-73 19q-35 25 -44.5 64t10.5 68zM799 1219q0 -145 -106.5 -250t-252 -105t-252 104.5t-106.5 250.5q0 143 106.5 247.5t252 104.5t252 -104.5t106.5 -247.5zM580 1219 q0 57 -41 98t-99 41q-55 0 -97 -41t-42 -98.5t42 -99.5t97 -42q57 0 98.5 41.5t41.5 100.5zM1554 322q0 -145 -106.5 -250t-251.5 -105t-251.5 104.5t-106.5 250.5q0 143 106.5 247.5t251.5 104.5t251.5 -104.5t106.5 -247.5zM1335 322q0 57 -41 98t-98 41q-55 0 -97 -41 t-42 -98.5t42 -99.5t97 -42q57 0 98 41.5t41 100.5zM2333 322q0 -145 -106.5 -250t-252 -105t-252 104.5t-106.5 250.5q0 143 106.5 247.5t252 104.5t252 -104.5t106.5 -247.5zM2114 322q0 57 -41 98t-99 41q-55 0 -97 -41t-42 -98.5t42 -99.5t97 -42q57 0 98.5 41.5 t41.5 100.5z" glyph-name="perthousand" horiz-adv-x="2414" unicode="‰"/><glyph d="M90 662l305 305q25 27 65 22.5t72 -35.5q29 -31 33 -70.5t-22 -66.5l-224 -223l228 -232q27 -25 23.5 -64.5t-31.5 -68.5q-31 -29 -70 -31.5t-63 23.5l-304 303q-31 31 -35 71t23 67z" glyph-name="guilsinglleft" horiz-adv-x="636" unicode="‹"/><glyph d="M242 967l305 -305q27 -27 22.5 -67t-34.5 -71l-304 -303q-25 -27 -63.5 -23.5t-69.5 31.5q-29 29 -32 69t24 64l227 232l-223 223q-27 27 -22.5 67t32.5 70q33 31 73 35.5t65 -22.5z" glyph-name="guilsinglright" horiz-adv-x="636" unicode="›"/><glyph d="M127 55l614 1471q8 20 30 26.5t42 -4.5q51 -23 35 -67l-615 -1471q-8 -20 -29.5 -26.5t-41.5 4.5q-51 22 -35 67z" glyph-name="fraction" horiz-adv-x="974" unicode="⁄"/><glyph d="M469 819h-338q-33 0 -54.5 25.5t-21.5 62.5t21.5 62.5t54.5 25.5h123q61 260 227 418t412 158q156 0 266.5 -64.5t208.5 -195.5q31 -51 9.5 -96.5t-60.5 -77t-91 -29.5t-85 47q-102 135 -248 135q-139 0 -242.5 -116.5t-103.5 -266.5q0 -37 -22.5 -62.5t-55.5 -25.5z M729 995h457q33 0 55.5 -25.5t22.5 -62.5t-22.5 -62.5t-55.5 -25.5h-457q-33 0 -55.5 25.5t-22.5 62.5t22.5 62.5t55.5 25.5zM131 717h338q33 0 55.5 -25.5t22.5 -62.5q0 -150 103.5 -266.5t242.5 -116.5q145 0 248 135q33 45 85 47t91 -29.5t60.5 -77t-9.5 -96.5 q-98 -131 -208.5 -195.5t-266.5 -64.5q-246 0 -412 158t-227 418h-123q-33 0 -54.5 25.5t-21.5 62.5t21.5 62.5t54.5 25.5zM1022 541h-293q-33 0 -55.5 25.5t-22.5 62.5t22.5 62.5t55.5 25.5h293q33 0 55.5 -25.5t22.5 -62.5t-22.5 -62.5t-55.5 -25.5z" glyph-name="Euro" horiz-adv-x="1466" unicode="€"/><glyph d="M662 1536v-307h-58v168h-2l-65 -168h-58l-67 168h-2v-168h-56v307h56l96 -231h4l94 231h58zM82 1536h240v-57h-91v-250h-57v250h-92v57z" glyph-name="trademark" horiz-adv-x="743" unicode="™"/><glyph d="M1729 768q0 -68 -17.5 -132.5t-34 -104t-59.5 -98t-59.5 -77t-67.5 -73.5v-4h182v-279h-579v279q150 57 243 191t93 298q0 217 -154 369.5t-371 152.5t-369.5 -152.5t-152.5 -369.5q0 -166 92 -299t244 -190v-279h-582v279h185v4q-59 63 -85 95t-71 98.5t-64.5 137 t-19.5 154.5q0 342 238.5 572.5t584.5 230.5t585 -230.5t239 -572.5z" glyph-name="uni2126" horiz-adv-x="1810" unicode="Ω"/><glyph d="M1343 694q0 -322 -176 -525.5t-454 -203.5q-270 0 -450.5 168t-180.5 442q0 225 153.5 381t374.5 156q293 0 426 -194l6 4q0 104 -36.5 184t-99 125t-133.5 66.5t-148 21.5q-72 0 -158 -26.5t-148 -71.5v270q57 31 155.5 54.5t170.5 23.5q698 -1 698 -875zM1040 571.5 q0 137.5 -95 232.5t-232.5 95t-232.5 -95t-95 -232.5t95 -232.5t232.5 -95t232.5 95t95 232.5z" glyph-name="partialdiff" horiz-adv-x="1425" unicode="∂"/><glyph d="M41 0l461 1536h209l460 -1536h-1130zM324 209h565l-281 954h-8z" glyph-name="uni2206" horiz-adv-x="1212" unicode="∆"/><glyph d="M1239 1255h-192v-1255h-279v1255h-244v-1255h-280v1255h-193v281h1188v-281z" glyph-name="product" horiz-adv-x="1290" unicode="∏"/><glyph d="M1098 279v-279h-1047v279l490 489l-490 487v281h1047v-281h-649v-4l487 -483l-487 -485v-4h649z" glyph-name="summation" horiz-adv-x="1148" unicode="∑"/><glyph d="M86 592q0 43 25.5 73.5t60.5 30.5h1049q35 0 60.5 -30.5t25.5 -73.5t-26 -74t-60 -31h-1049q-35 0 -60.5 31t-25.5 74z" glyph-name="minus" horiz-adv-x="1392" unicode="−"/><glyph d="M430 631l137 -350h8l205 1255h228l-271 -1536h-270l-135 358h-8l-48 -147h-215l162 420h207z" glyph-name="radical" horiz-adv-x="1069" unicode="√"/><glyph d="M735 711q125 197 293 196q137 0 238.5 -91t101.5 -222q0 -133 -101.5 -224t-238.5 -91q-166 0 -293 190q-127 -190 -293 -190q-137 0 -238.5 91t-101.5 224q0 131 101.5 222t238.5 91q168 1 293 -196zM1210 592q0 78 -53 131t-129 53q-111 0 -219 -186q106 -178 219 -178 q78 0 130 52t52 128zM662 590q-109 186 -220 186q-76 0 -129 -53t-53 -131q0 -76 52.5 -128t129.5 -52q114 0 220 178z" glyph-name="infinity" horiz-adv-x="1470" unicode="∞"/><glyph d="M205 -43l-4 1294q2 131 87 209t206 78h161v-225h-84q-33 0 -55 -23.5t-24 -58.5l4 -1294q-2 -131 -87 -209t-206 -78h-162v225h84q33 0 55.5 23.5t24.5 58.5z" glyph-name="integral" horiz-adv-x="696" unicode="∫"/><glyph d="M102 315v209q16 6 46 17.5t111 32t152.5 26.5t153.5 -10.5t131 -65.5t128 -66.5t157 -8t148.5 26t115.5 32.5l43 16v-209q-16 -6 -46 -17t-110.5 -31.5t-152.5 -27t-151.5 10t-129 66t-129.5 66.5t-157.5 8t-149.5 -25.5t-115 -32.5zM102 662v210q16 6 46 17.5t111 32 t152.5 26.5t153.5 -10t131 -65.5t128 -68t157 -9t148.5 26t115.5 34.5l43 16v-210q-16 -6 -46 -17.5t-110.5 -32t-152.5 -26.5t-151.5 10t-129 65.5t-129.5 68t-157.5 9t-149.5 -26t-115 -32.5z" glyph-name="approxequal" horiz-adv-x="1390" unicode="≈"/><glyph d="M86 420q0 43 25.5 73.5t60.5 30.5h309l140 140h-449q-35 0 -60.5 30.5t-25.5 73.5t25.5 73.5t60.5 30.5h657l207 207q25 27 65 23t70.5 -35t34.5 -71t-22 -64l-60 -60h97q35 0 60.5 -30.5t25.5 -73.5t-26 -73.5t-60 -30.5h-306l-139 -140h445q35 0 60.5 -30.5t25.5 -73.5 t-26 -74t-60 -31h-654l-211 -211q-25 -27 -64.5 -22.5t-70.5 35t-35 70.5t23 65l63 63h-100q-35 0 -60.5 31t-25.5 74z" glyph-name="notequal" horiz-adv-x="1392" unicode="≠"/><glyph d="M66 793q0 125 98 168l500 235q33 14 68.5 -3t54 -56t8 -77t-42.5 -54l-455 -209v-9l455 -208q33 -16 43 -54.5t-8.5 -77t-54.5 -56t-68 -3.5l-500 234q-98 43 -98 170zM66 104q0 43 25.5 74t60.5 31h561q35 0 60.5 -31t25.5 -74t-25.5 -73.5t-60.5 -30.5h-561 q-35 0 -60.5 30.5t-25.5 73.5z" glyph-name="lessequal" horiz-adv-x="864" unicode="≤"/><glyph d="M799 793q0 -127 -99 -170l-499 -234q-33 -14 -69 3.5t-54.5 56t-8 76.5t43.5 55l454 208v9l-454 209q-33 16 -43.5 54t8 77t54.5 56t69 3l499 -235q99 -43 99 -168zM799 104q0 -43 -25.5 -73.5t-60.5 -30.5h-561q-35 0 -60.5 30.5t-25.5 73.5t25.5 74t60.5 31h561 q35 0 60.5 -31t25.5 -74z" glyph-name="greaterequal" horiz-adv-x="864" unicode="≥"/><glyph d="M1059 768l-383 -768h-209l-385 768l385 768h209zM315 768l254 -510h4l252 510l-252 510h-4z" glyph-name="lozenge" horiz-adv-x="1140" unicode="◊"/><glyph glyph-name="uniF8FF" horiz-adv-x="1024" unicode=""/><glyph d="M895 106v826h-754q-45 0 -76.5 38t-31.5 89t31.5 89t76.5 38h35v55q0 141 104.5 235.5t251.5 94.5q127 0 232 -90q35 -29 37 -82t-31 -94q-35 -43 -86 -48.5t-92 23.5q-37 25 -60 25q-29 0 -49 -21.5t-20 -48.5v-49h575q59 0 101.5 -36t42.5 -87v-957q0 -51 -42 -86.5 t-101.5 -35.5t-101.5 35.5t-42 86.5zM319.5 829q57.5 0 100.5 -35.5t43 -84.5v-605q0 -49 -43 -84.5t-100.5 -35.5t-100.5 35.5t-43 84.5v605q0 49 43 84.5t100.5 35.5zM877 1417.5q0 67.5 47 114.5t114.5 47t114.5 -47t47 -114.5t-47 -115t-114.5 -47.5t-114.5 47.5 t-47 115z" glyph-name="uniFB01" horiz-adv-x="1304" unicode="ﬁ"/><glyph d="M141 1186h35v20q0 137 101.5 233.5t246.5 96.5h514q59 0 101.5 -36t42.5 -87v-1307q0 -51 -42 -86.5t-101.5 -35.5t-101.5 35.5t-42 86.5v1172h-365q-29 0 -50 -21.5t-21 -50.5v-20h106q45 0 77 -38t32 -89t-32 -89t-77 -38h-424q-45 0 -76.5 38t-31.5 89t31.5 89 t76.5 38zM319.5 829q57.5 0 100.5 -35.5t43 -84.5v-605q0 -49 -43 -84.5t-100.5 -35.5t-100.5 35.5t-43 84.5v605q0 49 43 84.5t100.5 35.5z" glyph-name="uniFB02" horiz-adv-x="1304" unicode="ﬂ"/><glyph d="M1591 106v826h-1450q-45 0 -76.5 38t-31.5 89t31.5 89t76.5 38h35v55q0 141 104.5 235.5t251.5 94.5q127 0 232 -90q35 -29 37 -82t-31 -94q-35 -43 -86 -48.5t-92 23.5q-37 25 -60 25q-29 0 -49 -21.5t-20 -48.5v-49h409v55q0 141 104.5 235.5t252.5 94.5q127 0 231 -90 q35 -29 37 -82t-31 -94q-35 -43 -86 -48.5t-92 23.5q-37 25 -59 25q-29 0 -49.5 -21.5t-20.5 -48.5v-49h576q59 0 101 -36t42 -87v-957q0 -51 -42 -86.5t-101.5 -35.5t-101.5 35.5t-42 86.5zM1015.5 829q57.5 0 100.5 -35.5t43 -84.5v-605q0 -49 -43 -84.5t-100.5 -35.5 t-100.5 35.5t-43 84.5v605q0 49 43 84.5t100.5 35.5zM319.5 829q57.5 0 100.5 -35.5t43 -84.5v-605q0 -49 -43 -84.5t-100.5 -35.5t-100.5 35.5t-43 84.5v605q0 49 43 84.5t100.5 35.5zM1573 1417.5q0 67.5 47 114.5t114.5 47t114.5 -47t47 -114.5t-47 -115t-114.5 -47.5 t-114.5 47.5t-47 115z" glyph-name="uniFB03" horiz-adv-x="1998" unicode="ﬃ"/><glyph d="M592 1280q-37 25 -60 25q-29 0 -49 -21.5t-20 -48.5v-49h418v20q0 137 101 233.5t247 96.5h514q59 0 101 -36t42 -87v-1307q0 -51 -42 -86.5t-101.5 -35.5t-101.5 35.5t-42 86.5v1172h-364q-29 0 -50.5 -21.5t-21.5 -50.5v-20h107q45 0 76.5 -38t31.5 -89t-31.5 -89 t-76.5 -38h-1129q-45 0 -76.5 38t-31.5 89t31.5 89t76.5 38h35v55q0 141 104.5 235.5t251.5 94.5q127 0 232 -90q35 -29 37 -82t-31 -94q-35 -43 -86 -48.5t-92 23.5zM1024 829q57 0 100 -35.5t43 -84.5v-605q0 -49 -43 -84.5t-100 -35.5t-100 35.5t-43 84.5v605 q0 49 43 84.5t100 35.5zM319.5 829q57.5 0 100.5 -35.5t43 -84.5v-605q0 -49 -43 -84.5t-100.5 -35.5t-100.5 35.5t-43 84.5v605q0 49 43 84.5t100.5 35.5z" glyph-name="uniFB04" horiz-adv-x="2009" unicode="ﬄ"/><glyph d="M1337 594q0 -262 -183 -445.5t-445 -183.5q-260 0 -443.5 184.5t-183.5 444.5t183.5 443.5t443.5 183.5t444 -183.5t184 -443.5zM1264 594q0 229 -162 391t-393 162q-229 0 -391 -162t-162 -391t161.5 -392t391.5 -163q231 0 393 163t162 392zM449 266v654q0 27 21.5 44 t51.5 17h264q113 0 192 -75t79 -187q0 -111 -79 -186.5t-192 -75.5h-192v-191q0 -25 -21.5 -43t-50.5 -18q-31 0 -52 18t-21 43zM909 719q0 51 -35.5 87t-87.5 36h-192v-244h192q51 0 87 35t36 86z" glyph-name="uniFB05" horiz-adv-x="1419" unicode="ﬅ"/><glyph d="M872 1186v164q0 49 43 84.5t100.5 35.5t100.5 -35.5t43 -84.5v-164h103q45 0 76.5 -38t31.5 -89t-31.5 -89t-76.5 -38h-1121q-45 0 -76.5 38t-31.5 89t31.5 89t76.5 38h35v55q0 141 104.5 235.5t251.5 94.5q127 0 232 -90q35 -29 37 -82t-31 -94q-35 -43 -86 -48.5 t-92 23.5q-37 25 -60 25q-29 0 -49 -21.5t-20 -48.5v-49h409zM319.5 829q57.5 0 100.5 -35.5t43 -84.5v-605q0 -49 -43 -84.5t-100.5 -35.5t-100.5 35.5t-43 84.5v605q0 49 43 84.5t100.5 35.5zM1015.5 829q57.5 0 100.5 -35.5t43 -84.5v-359q0 -31 20.5 -51t49.5 -20h33 q45 0 76.5 -41t31.5 -98.5t-31.5 -98.5t-76.5 -41h-54q-164 0 -250 91t-86 259v359q0 49 43 84.5t100.5 35.5z" glyph-name="uniFB06" horiz-adv-x="1402" unicode="ﬆ"/><glyph d="M872 1186v164q0 49 43 84.5t100.5 35.5t100.5 -35.5t43 -84.5v-164h103q45 0 76.5 -38t31.5 -89t-31.5 -89t-76.5 -38h-1121q-45 0 -76.5 38t-31.5 89t31.5 89t76.5 38h35v164q0 49 43 84.5t100.5 35.5t100.5 -35.5t43 -84.5v-164h409zM319.5 829q57.5 0 100.5 -35.5 t43 -84.5v-359q0 -31 20.5 -51t48.5 -20h33q45 0 77 -41t32 -98.5t-32 -98.5t-77 -41h-53q-164 0 -250 91t-86 259v359q0 49 43 84.5t100.5 35.5zM1015.5 829q57.5 0 100.5 -35.5t43 -84.5v-359q0 -31 20.5 -51t49.5 -20h33q45 0 76.5 -41t31.5 -98.5t-31.5 -98.5t-76.5 -41 h-54q-164 0 -250 91t-86 259v359q0 49 43 84.5t100.5 35.5z" glyph-name="uniFB07" horiz-adv-x="1402" unicode="﬇"/><glyph glyph-name="glyph317" horiz-adv-x="1026"/></font>
</defs>
</svg>
