<?xml version="1.0" standalone="no"?>
<!DOCTYPE svg PUBLIC "-//W3C//DTD SVG 1.1//EN" "http://www.w3.org/Graphics/SVG/1.1/DTD/svg11.dtd">
<svg xmlns="http://www.w3.org/2000/svg"><metadata>This SVG WebFont was generated by YouWorkForThem.
 Copyright (c)2016 Talbot Type. All Rights Reserved</metadata><defs><font horiz-adv-x="655" id="ywftsvg"><font-face ascent="790" bbox="-43.0526 -238 1198 932" cap-height="758" descent="-210" font-family="" font-stretch="normal" font-weight="700" panose-1="2 11 8 3 3 6 0 6 0 4" underline-position="0" underline-thickness="0" unicode-range="U+0020-FB07" units-per-em="1000" x-height="579"/><missing-glyph horiz-adv-x="191"/><glyph glyph-name=".notdef" horiz-adv-x="191"/><glyph glyph-name="glyph1" horiz-adv-x="0"/><glyph glyph-name="glyph2" horiz-adv-x="333"/><glyph glyph-name="space" horiz-adv-x="270" unicode=" "/><glyph d="M60 700q0 24 20.5 41t48.5 17t48 -17t20 -41l-14 -458q0 -19 -16 -32.5t-38 -13.5t-38.5 13.5t-16.5 32.5zM206 70q0 -33 -22.5 -55t-54.5 -22t-54.5 22t-22.5 55q0 31 22.5 53t54.5 22t54.5 -22t22.5 -53z" glyph-name="exclam" horiz-adv-x="258" unicode="!"/><glyph d="M50 504v218q0 16 10.5 26t25.5 10t25.5 -10t10.5 -26v-218q0 -15 -10.5 -25t-25.5 -10t-25.5 10t-10.5 25zM187 504v218q0 16 10.5 26t25.5 10t25.5 -10t10.5 -26v-218q0 -15 -10.5 -25t-25.5 -10t-25.5 10t-10.5 25z" glyph-name="quotedbl" horiz-adv-x="309" unicode="&quot;"/><glyph d="M12 289q0 14 10.5 24t24.5 10h132l22 103h-154q-14 0 -24.5 10t-10.5 24t10.5 24t24.5 10h168l48 229q4 14 16 24.5t26 10.5t22.5 -10.5t4.5 -24.5l-48 -229h102l48 229q4 14 16 24.5t26 10.5t22.5 -10.5t4.5 -24.5l-48 -229h118q14 0 24.5 -10t10.5 -24t-10.5 -24 t-24.5 -10h-134l-22 -103h156q14 0 24.5 -10t10.5 -24t-10.5 -23.5t-24.5 -9.5h-170l-48 -229q-4 -14 -16.5 -24.5t-26.5 -10.5t-22 10.5t-4 24.5l50 229h-103l-49 -229q-4 -14 -16 -24.5t-26 -10.5t-21.5 10.5t-3.5 24.5l48 229h-118q-14 0 -24.5 9.5t-10.5 23.5zM372 426 h-103l-21 -103h102z" glyph-name="numbersign" horiz-adv-x="620" unicode="#"/><glyph d="M436 181q16 23 18 46.5t-21.5 47t-67.5 35.5l-128 31q-91 25 -137.5 72t-46.5 129q0 55 34 104q13 21 40.5 24.5t52.5 -11.5q25 -16 33.5 -42t-4.5 -47q-21 -24 -5 -54.5t69 -45.5l120 -30q102 -26 155 -75.5t53 -139.5q0 -84 -64 -146q-16 -17 -43.5 -15t-48.5 23 q-21 22 -23.5 49.5t14.5 44.5zM385 -39q0 -17 -20 -29.5t-48 -12.5t-47.5 12.5t-19.5 29.5v44q-105 14 -187 73q-20 15 -22.5 41t13.5 51q17 21 43 27.5t44 -6.5q75 -57 176 -57q28 0 48 -12.5t20 -29.5v-131zM317 614q-28 0 -47.5 12.5t-19.5 30.5v115q0 18 19.5 30.5 t47.5 12.5t48 -12.5t20 -30.5v-27q95 -16 164 -61q21 -14 25.5 -38.5t-9.5 -49.5q-15 -25 -39 -34t-45 3q-79 49 -164 49z" glyph-name="dollar" horiz-adv-x="641" unicode="$"/><glyph d="M428 576q0 -79 -57 -135.5t-137 -56.5q-79 0 -136.5 56.5t-57.5 135.5q0 78 58 134.5t136 56.5q80 0 137 -56t57 -135zM870 176q0 -79 -57 -135.5t-137 -56.5q-79 0 -136.5 56.5t-57.5 135.5q0 78 58 134.5t136 56.5q80 0 137 -56t57 -135zM321 576q0 36 -25 61.5 t-62 25.5q-35 0 -61 -25.5t-26 -61.5t26 -62t61 -26q37 0 62 25.5t25 62.5zM763 176q0 36 -25 61.5t-62 25.5q-35 0 -61 -25.5t-26 -61.5t26 -62t61 -26q37 0 62 25.5t25 62.5zM193 74l447 667q10 14 29.5 16t36.5 -9q16 -12 21 -31t-5 -33l-447 -667q-10 -15 -29.5 -16.5 t-35.5 9.5q-17 12 -22 31t5 33z" glyph-name="percent" horiz-adv-x="910" unicode="%"/><glyph d="M112 570q0 84 59 140.5t143 56.5t142.5 -56.5t58.5 -139.5q0 -81 -60 -138.5t-141 -57.5q-53 0 -90 -37.5t-37 -90.5t37 -90.5t90 -37.5q14 0 24 2q24 5 44.5 -9.5t27.5 -41.5q7 -28 -3.5 -51t-32.5 -29q-28 -7 -60 -7q-116 0 -195 74.5t-79 190.5q0 114 78 183.5 t196 69.5q28 0 48.5 20t20.5 49q0 28 -20.5 47.5t-48.5 19.5t-48 -19t-20 -48q0 -21 -19.5 -35.5t-47.5 -14.5t-47.5 14.5t-19.5 35.5zM585 119h16q22 0 37 -18t15 -46q0 -27 -15 -45t-37 -18h-22q-63 0 -100 40t-37 104v164q0 64 37 104t100 40h22q22 0 37 -18t15 -45 q0 -28 -15 -46t-37 -18h-16q-7 0 -12.5 -5t-5.5 -12v-164q0 -7 5.5 -12t12.5 -5z" glyph-name="ampersand" horiz-adv-x="669" unicode="&amp;"/><glyph d="M50 504v218q0 16 10.5 26t25.5 10t25.5 -10t10.5 -26v-218q0 -15 -10.5 -25t-25.5 -10t-25.5 10t-10.5 25z" glyph-name="quotesingle" horiz-adv-x="172" unicode="'"/><glyph d="M279 -146q7 -14 -2.5 -29t-28.5 -22q-18 -7 -35 -2t-22 19q-111 209 -111 467t111 467q5 14 22 19t35 -2q19 -7 28.5 -22t2.5 -29q-51 -109 -74 -204.5t-23 -228.5t23 -228.5t74 -204.5z" glyph-name="parenleft" horiz-adv-x="312" unicode="("/><glyph d="M33 -146q51 109 74 204.5t23 228.5t-23 228.5t-74 204.5q-7 14 2.5 29t28.5 22q18 7 35 2t22 -19q111 -209 111 -467t-111 -467q-5 -14 -22 -19t-35 2q-19 7 -28.5 22t-2.5 29z" glyph-name="parenright" horiz-adv-x="312" unicode=")"/><glyph d="M150 553q0 5 9 54q-36 -32 -42 -35q-8 -5 -18.5 -1t-17.5 17q-7 12 -5.5 23.5t9.5 16.5q10 5 52 19q-42 14 -52 19q-8 5 -9.5 16.5t5.5 23.5q7 13 17.5 17t18.5 -1q6 -3 42 -36q-9 50 -9 55q0 10 9 17t23 7t23.5 -7t9.5 -17q0 -5 -10 -55q37 33 43 36q19 12 37 -16 q15 -29 -5 -40q-10 -5 -52 -19q42 -14 52 -19q20 -11 5 -40q-18 -28 -37 -16q-6 3 -43 36q10 -50 10 -55q0 -10 -9.5 -17t-23.5 -7t-23 7t-9 17z" glyph-name="asterisk" horiz-adv-x="365" unicode="*"/><glyph d="M42 289q0 21 12.5 36t29.5 15h206v205q0 17 15 29.5t36 12.5t36 -12.5t15 -29.5v-205h204q17 0 29.5 -15t12.5 -36t-12.5 -36t-29.5 -15h-204v-204q0 -17 -15 -29.5t-36 -12.5t-36 12.5t-15 29.5v204h-206q-17 0 -29.5 15t-12.5 36z" glyph-name="plus" horiz-adv-x="680" unicode="+"/><glyph d="M45 -90q0 13 8.5 21.5t20.5 8.5q22 0 36 15t15 39q-5 -2 -13 -2q-32 0 -54.5 23t-22.5 54t22.5 54t54.5 23t54.5 -23t22.5 -54v-74q0 -48 -33.5 -82t-81.5 -34q-12 0 -20.5 9t-8.5 22z" glyph-name="comma" horiz-adv-x="274" unicode=","/><glyph d="M62 289q0 21 12.5 36t29.5 15h258q17 0 29.5 -15t12.5 -36t-12.5 -36t-29.5 -15h-258q-17 0 -29.5 15t-12.5 36z" glyph-name="hyphen" horiz-adv-x="465" unicode="-"/><glyph d="M112 -8q-32 0 -54.5 23t-22.5 54t22.5 54t54.5 23t54.5 -23t22.5 -54t-22.5 -54t-54.5 -23z" glyph-name="period" horiz-adv-x="274" unicode="."/><glyph d="M55 40l293 700q5 12 19.5 16.5t28.5 -2.5q13 -6 19.5 -19.5t1.5 -24.5l-293 -700q-6 -13 -20 -17t-27 3q-14 6 -20.5 19t-1.5 25z" glyph-name="slash" horiz-adv-x="472" unicode="/"/><glyph d="M589 503v-257q0 -108 -79 -185.5t-189 -77.5t-189.5 77t-79.5 186v257q0 109 79.5 186.5t189.5 77.5t189 -77.5t79 -186.5zM449 246v257q0 52 -37.5 89.5t-90.5 37.5t-91 -37.5t-38 -89.5v-257q0 -52 38 -89.5t91 -37.5t90.5 37.5t37.5 89.5z" glyph-name="zero" horiz-adv-x="641" unicode="0"/><glyph d="M212 52v528l-77 -48q-20 -12 -43 -5t-37 30q-13 22 -9.5 46t22.5 35l171 107q20 13 43 13q29 0 49.5 -17.5t20.5 -42.5v-646q0 -25 -20.5 -42.5t-49.5 -17.5t-49.5 17.5t-20.5 42.5z" glyph-name="one" horiz-adv-x="412" unicode="1"/><glyph d="M40 511q0 110 76 183t188 73t188.5 -68.5t76.5 -177.5q0 -108 -99 -193l-210 -191h236q24 0 41 -20t17 -48q0 -29 -17 -49t-41 -20h-369q-30 0 -51.5 25.5t-21.5 61.5q0 47 34 74l293 269q42 42 42 91t-34 80t-85 31q-49 0 -83.5 -34.5t-35.5 -86.5q0 -25 -21.5 -43.5 t-51.5 -18.5t-51 18t-21 44z" glyph-name="two" horiz-adv-x="609" unicode="2"/><glyph d="M368 329q-18 15 -18 42t17 49q17 23 43.5 29t45.5 -9q46 -34 73.5 -87t27.5 -116q0 -109 -77 -181.5t-188 -72.5q-91 0 -161 57t-89 143q-5 23 10.5 44t43.5 26q27 6 51 -6.5t28 -35.5q9 -41 41.5 -67t75.5 -26q49 0 84 35t35 84q0 52 -43 92zM151 462l154 153h-169 q-23 0 -40 19.5t-17 47.5t17 48t40 20h333q25 0 42.5 -21t17.5 -50q0 -33 -22 -55l-260 -258q-17 -16 -42.5 -13.5t-45.5 22.5q-20 19 -22.5 45t14.5 42z" glyph-name="three" horiz-adv-x="597" unicode="3"/><glyph d="M348 391v123l-175 -242h351q24 0 41 -20t17 -48t-17 -48t-41 -20h-34v-84q0 -25 -21 -42.5t-50 -17.5t-50 17.5t-21 42.5v84h-257q-33 0 -56 26.5t-23 64.5q0 35 19 60l297 434q25 37 75 37q36 0 61.5 -21.5t25.5 -52.5v-293q0 -25 -21 -42.5t-50 -17.5t-50 17.5 t-21 42.5z" glyph-name="four" horiz-adv-x="594" unicode="4"/><glyph d="M343 508q111 -16 169 -86t58 -176q0 -113 -79.5 -188t-195.5 -75q-95 0 -165.5 52t-93.5 137q-7 27 10.5 51.5t44.5 29.5q29 6 53 -7t28 -37q12 -39 46.5 -65t76.5 -26q53 0 91 37.5t38 90.5q0 44 -28.5 78.5t-72.5 45.5q-25 6 -40.5 26.5t-12.5 48.5q2 27 23.5 47 t49.5 16zM74 408l50 285q3 25 23 41t48 16h248q24 0 41 -20.5t17 -48.5t-17 -48t-41 -20h-195l-40 -231q-5 -23 -27.5 -35.5t-50.5 -6.5q-28 5 -44.5 25t-11.5 43z" glyph-name="five" horiz-adv-x="610" unicode="5"/><glyph d="M363 365q-21 10 -27.5 34.5t4.5 50.5t34.5 37.5t44.5 1.5q75 -30 122.5 -94.5t47.5 -146.5q0 -114 -80 -189.5t-195 -75.5t-194.5 75.5t-79.5 189.5q0 69 36 132l214 354q11 20 37.5 23.5t52.5 -11.5q22 -13 29 -38.5t-5 -47.5l-195 -341q-22 -37 -22 -71q0 -53 37 -91 t90 -38t90 38t37 91q0 37 -21 68.5t-57 48.5z" glyph-name="six" horiz-adv-x="629" unicode="6"/><glyph d="M155 78l223 536h-302q-24 0 -41 20t-17 48t17 48t41 20h380q48 0 69 -46t-1 -92l-243 -586q-9 -22 -34 -30.5t-50 2.5q-27 11 -39 34t-3 46z" glyph-name="seven" horiz-adv-x="556" unicode="7"/><glyph d="M600 226q0 -109 -80.5 -176t-199.5 -67t-199.5 67t-80.5 176q0 108 79.5 171t200.5 63q50 0 80.5 20.5t30.5 64.5t-30 64.5t-80 20.5q-111 0 -111 -90q2 -23 -13.5 -43.5t-43.5 -27.5q-41 -7 -62.5 15t-21.5 61q0 101 72.5 161.5t179.5 60.5t179.5 -60.5t72.5 -161.5 t-72.5 -161.5t-180.5 -60.5q-136 0 -136 -102t136 -102t136 102q0 15 -3 30q-7 23 7.5 45.5t43.5 31.5q49 13 72.5 -18.5t23.5 -83.5z" glyph-name="eight" horiz-adv-x="640" unicode="8"/><glyph d="M266 384q21 -10 27.5 -34.5t-4.5 -50.5t-34.5 -37.5t-44.5 -1.5q-75 30 -122.5 94.5t-47.5 146.5q0 114 80 189.5t195 75.5t194.5 -75.5t79.5 -189.5q0 -69 -36 -132l-214 -354q-11 -20 -37.5 -23.5t-52.5 11.5q-22 13 -29 38.5t5 47.5l195 341q22 37 22 71q0 53 -37 91 t-90 38t-90 -38t-37 -91q0 -37 21 -68.5t57 -48.5z" glyph-name="nine" horiz-adv-x="629" unicode="9"/><glyph d="M189 69q0 -31 -22.5 -54t-54.5 -23t-54.5 23t-22.5 54t22.5 54t54.5 23t54.5 -23t22.5 -54zM35 510q0 32 22.5 54.5t54.5 22.5t54.5 -22.5t22.5 -54.5t-22.5 -54.5t-54.5 -22.5t-54.5 22.5t-22.5 54.5z" glyph-name="colon" horiz-adv-x="274" unicode=":"/><glyph d="M35 510q0 32 22.5 54.5t54.5 22.5t54.5 -22.5t22.5 -54.5t-22.5 -54.5t-54.5 -22.5t-54.5 22.5t-22.5 54.5zM45 -90q0 13 8.5 21.5t20.5 8.5q22 0 36 15t15 39q-5 -2 -13 -2q-32 0 -54.5 23t-22.5 54t22.5 54t54.5 23t54.5 -23t22.5 -54v-74q0 -48 -33.5 -82t-81.5 -34 q-12 0 -20.5 9t-8.5 22z" glyph-name="semicolon" horiz-adv-x="274" unicode=";"/><glyph d="M380 131q15 -9 18.5 -28.5t-6.5 -37.5q-11 -19 -29 -26t-33 3l-257 181q-41 25 -41 66t41 66l257 181q15 10 33 3t29 -26q10 -18 6.5 -37.5t-18.5 -28.5l-232 -155v-6z" glyph-name="less" horiz-adv-x="432" unicode="&lt;"/><glyph d="M42 375q0 21 12.5 36t29.5 15h512q17 0 29.5 -15t12.5 -36t-12.5 -36t-29.5 -15h-512q-17 0 -29.5 15t-12.5 36zM42 205q0 21 12.5 36t29.5 15h512q17 0 29.5 -15t12.5 -36t-12.5 -36t-29.5 -15h-512q-17 0 -29.5 15t-12.5 36z" glyph-name="equal" horiz-adv-x="680" unicode="="/><glyph d="M52 131l232 155v6l-232 155q-15 9 -18.5 28.5t6.5 37.5q11 19 29 26t33 -3l257 -181q41 -25 41 -66t-41 -66l-257 -181q-15 -10 -33 -3t-29 26q-10 18 -6.5 37.5t18.5 28.5z" glyph-name="greater" horiz-adv-x="432" unicode=">"/><glyph d="M219 231v103q0 25 19 42.5t48 17.5q49 0 84 35t35 85q0 49 -35 84t-84 35q-43 0 -75.5 -26t-41.5 -67q-4 -23 -28 -35.5t-51 -6.5q-28 5 -43.5 26t-10.5 44q19 86 89 143t161 57q111 0 188 -72.5t77 -181.5q0 -93 -57.5 -160.5t-140.5 -82.5v-40q0 -26 -19 -43t-48 -17 t-48 17t-19 43zM362 69q0 -32 -22.5 -54.5t-53.5 -22.5q-32 0 -54.5 22.5t-22.5 54.5t22.5 54.5t54.5 22.5q31 0 53.5 -22.5t22.5 -54.5z" glyph-name="question" horiz-adv-x="591" unicode="?"/><glyph d="M432 179q-82 0 -139 57.5t-57 138.5t57.5 138.5t138.5 57.5t138.5 -57.5t57.5 -138.5v-38q0 -17 11 -28t27 -11t27.5 11t11.5 28v38q0 113 -80.5 193t-192.5 80q-113 0 -193 -80t-80 -193t80 -193t193 -80q53 0 98 18q19 7 39.5 -3.5t29.5 -32.5q9 -24 2 -45.5t-27 -29.5 q-72 -26 -142 -26q-163 0 -277.5 115t-114.5 277t114.5 277t277.5 115q162 0 277 -115t115 -277v-38q0 -65 -46.5 -111.5t-111.5 -46.5t-111 46.5t-46 111.5v38q0 31 -22.5 54t-54.5 23t-54.5 -23t-22.5 -54t22.5 -54t54.5 -23q20 0 34.5 -17.5t14.5 -42.5t-14.5 -42 t-34.5 -17z" glyph-name="at" horiz-adv-x="874" unicode="@"/><glyph d="M431 349l-71 199h-8l-194 -521q-10 -22 -36 -30.5t-54 0.5q-27 11 -39.5 35t-4.5 47l246 631q22 48 86 48t86 -48l120 -309q8 -24 -3.5 -47.5t-38.5 -34.5q-28 -9 -54.5 -0.5t-34.5 30.5zM281 205q0 28 17 48t41 20h222q25 0 44.5 -13.5t24.5 -33.5l58 -147 q8 -23 -4.5 -47t-39.5 -35q-28 -9 -54 -0.5t-36 30.5l-48 109h-167q-24 0 -41 20t-17 49z" glyph-name="A" horiz-adv-x="712" unicode="A"/><glyph d="M252 378q0 28 17 48t41 20h104q101 0 170.5 -63t69.5 -160t-69.5 -160t-170.5 -63h-283q-29 0 -50 17.5t-21 42.5v630q0 25 21 42.5t50 17.5h266q93 0 158 -58t65 -146q0 -27 -6 -41q-10 -23 -35.5 -32.5t-54.5 0.5q-47 16 -51 66q-2 31 -23.5 52.5t-52.5 21.5h-195v-477 h212q39 0 66.5 25t27.5 62t-27.5 61.5t-66.5 24.5h-104q-24 0 -41 20t-17 49z" glyph-name="B" horiz-adv-x="694" unicode="B"/><glyph d="M628 210q17 19 43 20t49 -18q22 -18 26 -45.5t-12 -45.5q-124 -138 -297 -138q-167 0 -284.5 113t-117.5 279t117.5 279t284.5 113q173 0 297 -138q16 -18 12 -45.5t-26 -45.5q-23 -19 -49 -18t-43 20q-48 45 -90 67.5t-101 22.5q-106 0 -180.5 -74.5t-74.5 -180.5 t74.5 -180.5t180.5 -74.5q59 0 101 22.5t90 67.5z" glyph-name="C" horiz-adv-x="782" unicode="C"/><glyph d="M60 52v638q0 25 21 42.5t50 17.5h190q163 0 274 -108.5t111 -270.5t-111 -270.5t-274 -108.5q-25 0 -42.5 20t-17.5 48t17.5 48t42.5 20q98 0 168 72t70 171t-70 170.5t-168 71.5h-119v-561q0 -25 -21 -42.5t-50 -17.5t-50 17.5t-21 42.5z" glyph-name="D" horiz-adv-x="741" unicode="D"/><glyph d="M60 60v324q0 25 21 42.5t50 17.5h359q25 0 42.5 -20.5t17.5 -48.5t-17.5 -48t-42.5 -20h-288v-171h357q25 0 42.5 -20t17.5 -48t-17.5 -48t-42.5 -20h-428q-29 0 -50 17.5t-21 42.5zM60 563v127q0 25 21 42.5t50 17.5h428q25 0 42.5 -20.5t17.5 -48.5t-17.5 -48 t-42.5 -20h-357v-50q0 -25 -21 -42.5t-50 -17.5t-50 17.5t-21 42.5z" glyph-name="E" horiz-adv-x="651" unicode="E"/><glyph d="M60 52v332q0 25 21 42.5t50 17.5h342q25 0 42.5 -20.5t17.5 -48.5t-17.5 -48t-42.5 -20h-271v-255q0 -25 -21 -42.5t-50 -17.5t-50 17.5t-21 42.5zM60 563v127q0 25 21 42.5t50 17.5h410q25 0 42.5 -20.5t17.5 -48.5t-17.5 -48t-42.5 -20h-339v-50q0 -25 -21 -42.5 t-50 -17.5t-50 17.5t-21 42.5z" glyph-name="F" horiz-adv-x="608" unicode="F"/><glyph d="M431 376q0 28 17 48t41 20h175q29 0 50 -17.5t21 -42.5v-244q0 -22 -17 -39q-115 -118 -281 -118q-167 0 -284.5 113t-117.5 279t117.5 279t284.5 113q147 0 265 -104q17 -17 15 -43t-22 -46t-46 -22.5t-43 14.5q-72 64 -169 64q-105 0 -180 -74.5t-75 -180.5t75 -181 t180 -75q91 0 163 58v130h-111q-24 0 -41 20t-17 49z" glyph-name="G" horiz-adv-x="791" unicode="G"/><glyph d="M578 758q29 0 50 -17.5t21 -42.5v-331q0 -25 -21 -42.5t-50 -17.5h-376v-255q0 -25 -21 -42.5t-50 -17.5t-50 17.5t-21 42.5v332q0 25 21 42.5t50 17.5h376v254q0 25 21 42.5t50 17.5zM649 52q0 -25 -21 -42.5t-50 -17.5t-50 17.5t-21 42.5v136q0 25 21 42.5t50 17.5 t50 -17.5t21 -42.5v-136zM60 698q0 25 21 42.5t50 17.5t50 -17.5t21 -42.5v-135q0 -25 -21 -42.5t-50 -17.5t-50 17.5t-21 42.5v135z" glyph-name="H" horiz-adv-x="709" unicode="H"/><glyph d="M60 52v646q0 25 21 42.5t50 17.5t50 -17.5t21 -42.5v-646q0 -25 -21 -42.5t-50 -17.5t-50 17.5t-21 42.5z" glyph-name="I" horiz-adv-x="262" unicode="I"/><glyph d="M317 698q0 25 21 42.5t50 17.5t50 -17.5t21 -42.5v-476q0 -104 -70.5 -171.5t-173.5 -67.5q-111 0 -182 86q-16 20 -11.5 47.5t27.5 44.5t49 15.5t40 -21.5q29 -35 77 -35q43 0 72.5 29.5t29.5 72.5v476z" glyph-name="J" horiz-adv-x="519" unicode="J"/><glyph d="M407 375l233 -273q16 -18 12 -44.5t-26 -46.5q-22 -19 -48 -19.5t-42 19.5l-271 311q-20 22 -20 53t20 53l271 311q16 20 42 19.5t48 -19.5q22 -20 26 -46.5t-12 -44.5zM60 52v646q0 25 21 42.5t50 17.5t50 -17.5t21 -42.5v-646q0 -25 -21 -42.5t-50 -17.5t-50 17.5 t-21 42.5z" glyph-name="K" horiz-adv-x="683" unicode="K"/><glyph d="M60 60v638q0 25 21 42.5t50 17.5t50 -17.5t21 -42.5v-562h322q25 0 42.5 -20t17.5 -48t-17.5 -48t-42.5 -20h-393q-29 0 -50 17.5t-21 42.5z" glyph-name="L" horiz-adv-x="614" unicode="L"/><glyph d="M60 52v640q0 28 25.5 47t61.5 19q53 0 76 -35l217 -273l219 276q25 32 75 32q36 0 61 -19t25 -47v-640q0 -25 -21 -42.5t-50 -17.5t-50 17.5t-21 42.5v476h-3l-174 -228q-23 -31 -61.5 -31t-61.5 31l-173 228h-3v-476q0 -25 -21 -42.5t-50 -17.5t-50 17.5t-21 42.5z" glyph-name="M" horiz-adv-x="880" unicode="M"/><glyph d="M60 52v641q0 27 24.5 46t59.5 19q57 0 78 -43l283 -466h3l-1 449q0 25 21 42.5t50 17.5t50 -17.5t21 -42.5v-641q0 -27 -24.5 -46t-59.5 -19q-58 0 -78 40l-283 468h-3l1 -448q0 -25 -21 -42.5t-50 -17.5t-50 17.5t-21 42.5z" glyph-name="N" horiz-adv-x="709" unicode="N"/><glyph d="M693 375q0 106 -75 180.5t-181 74.5t-180.5 -74.5t-74.5 -180.5t74.5 -181t180.5 -75q107 0 181.5 74.5t74.5 181.5zM839 375q0 -166 -117.5 -279t-284.5 -113q-168 0 -285 113t-117 279t117 279t285 113q167 0 284.5 -113t117.5 -279z" glyph-name="O" horiz-adv-x="874" unicode="O"/><glyph d="M321 375h69q49 0 84 35t35 84t-35 84t-84 35h-188v-561q0 -25 -21 -42.5t-50 -17.5t-50 17.5t-21 42.5v638q0 25 21 42.5t50 17.5h259q110 0 187 -73.5t77 -182.5t-77 -182.5t-187 -73.5h-69q-25 0 -42.5 20.5t-17.5 48.5t17.5 48t42.5 20z" glyph-name="P" horiz-adv-x="689" unicode="P"/><glyph d="M629 283q27 48 27 100q0 102 -70 174.5t-168 72.5t-167.5 -72.5t-69.5 -174.5t69.5 -174t167.5 -72h314q25 0 42.5 -20.5t17.5 -48.5t-17.5 -48t-42.5 -20h-314q-159 0 -271 112t-112 271t112 271.5t271 112.5t271.5 -112.5t112.5 -271.5q0 -81 -38 -154q-12 -24 -36 -32 t-53 3q-28 12 -41.5 36t-4.5 47z" glyph-name="Q" horiz-adv-x="875" unicode="Q"/><glyph d="M325 375h65q49 0 84 35t35 84t-35 84t-84 35h-188v-561q0 -25 -21 -42.5t-50 -17.5t-50 17.5t-21 42.5v638q0 25 21 42.5t50 17.5h259q110 0 187 -73.5t77 -182.5q0 -88 -55.5 -155.5t-139.5 -90.5l110 -153q14 -21 6.5 -47.5t-31.5 -42.5t-51 -13t-41 24l-174 248 q-13 20 -13 43q0 28 17.5 48t42.5 20z" glyph-name="R" horiz-adv-x="694" unicode="R"/><glyph d="M141 175q91 -69 176 -69q61 0 98.5 31t37.5 80q0 36 -22 59t-57.5 33.5t-78 18.5t-85 21t-78 34.5t-57.5 65t-22 106.5q0 99 74.5 155.5t189.5 56.5q131 0 232 -67q21 -14 25.5 -38.5t-9.5 -49.5q-15 -25 -39 -34t-45 3q-84 52 -164 52q-116 0 -116 -78q0 -35 22 -57 t57.5 -32.5t78 -18.5t85 -21.5t78 -35.5t57.5 -66t22 -107q0 -108 -79.5 -171t-204.5 -63q-142 0 -251 76l-3 3q-20 15 -22.5 41t13.5 51q17 21 43 27.5t44 -6.5z" glyph-name="S" horiz-adv-x="641" unicode="S"/><glyph d="M312 -8q-29 0 -50 17.5t-21 42.5v638q0 25 21 42.5t50 17.5h239q25 0 42.5 -20.5t17.5 -48.5t-17.5 -48t-42.5 -20h-169v-561q0 -25 -20.5 -42.5t-49.5 -17.5zM68 613q-24 0 -41 20t-17 48q0 29 17 49t41 20h56q24 0 41 -20t17 -49q0 -28 -17 -48t-41 -20h-56z" glyph-name="T" horiz-adv-x="621" unicode="T"/><glyph d="M60 698q0 25 21 42.5t50 17.5t50 -17.5t21 -42.5v-437q0 -66 44.5 -105.5t112.5 -39.5t112 39.5t44 105.5v437q0 25 21 42.5t50 17.5t50 -17.5t21 -42.5v-437q0 -128 -83.5 -203t-214.5 -75q-132 0 -215.5 75t-83.5 203v437z" glyph-name="U" horiz-adv-x="717" unicode="U"/><glyph d="M683 672l-246 -631q-22 -48 -86 -48t-86 48l-246 631q-8 23 4.5 47t39.5 35q28 9 54 0.5t36 -30.5l194 -521h8l194 521q10 22 36 30.5t54 -0.5q27 -11 39.5 -35t4.5 -47z" glyph-name="V" horiz-adv-x="702" unicode="V"/><glyph d="M565 703l122 -449h4l125 464q6 23 30.5 33.5t52.5 3.5q28 -8 43 -30.5t8 -49.5l-181 -635q-12 -31 -46 -43t-67.5 0t-45.5 42l-125 456h-4l-125 -456q-12 -30 -45.5 -42t-67.5 0t-46 43l-181 635q-7 27 8 49.5t43 30.5q28 7 52.5 -3.5t30.5 -33.5l125 -464h4l122 449 q9 35 45.5 48.5t73 0t45.5 -48.5z" glyph-name="W" horiz-adv-x="966" unicode="W"/><glyph d="M536 738q16 20 43.5 20.5t49.5 -17.5q23 -18 29 -44.5t-10 -46.5l-498 -638q-16 -19 -43.5 -20t-49.5 17q-23 18 -29 44.5t10 46.5zM150 738l126 -161q16 -20 10 -46.5t-29 -44.5q-22 -18 -49.5 -17t-43.5 20l-126 161q-16 20 -10 46.5t29 44.5q22 18 49.5 17.5 t43.5 -20.5zM522 261l126 -161q16 -20 10 -46.5t-29 -44.5q-22 -18 -49.5 -17t-43.5 20l-126 161q-16 20 -10 46.5t29 44.5q22 18 49.5 17.5t43.5 -20.5z" glyph-name="X" horiz-adv-x="686" unicode="X"/><glyph d="M340 -8q-29 0 -50 17.5t-21 42.5v323q0 16 12 31l259 332q16 20 43.5 20.5t49.5 -17.5q23 -18 29 -44.5t-10 -46.5l-241 -309v-289q0 -25 -21 -42.5t-50 -17.5zM140 738l132 -168q16 -20 10 -46.5t-29 -44.5q-22 -18 -49.5 -17t-43.5 20l-132 168q-16 20 -10 46.5 t29 44.5q22 18 49.5 17.5t43.5 -20.5z" glyph-name="Y" horiz-adv-x="680" unicode="Y"/><glyph d="M30 90q0 44 27 69l383 452v2h-352q-24 0 -41 20t-17 48t17 48.5t41 20.5h462q31 0 53 -26.5t22 -63.5q0 -42 -28 -70l-381 -451v-2h351q24 0 41 -20.5t17 -48.5t-17 -48t-41 -20h-462q-31 0 -53 26.5t-22 63.5z" glyph-name="Z" unicode="Z"/><glyph d="M80 -126v831q0 19 15.5 32t37.5 13h116q18 0 30.5 -15t12.5 -36t-12.5 -36t-30.5 -15h-67v-717h67q18 0 30.5 -15t12.5 -36t-12.5 -36t-30.5 -15h-116q-22 0 -37.5 13t-15.5 32z" glyph-name="bracketleft" horiz-adv-x="314" unicode="["/><glyph d="M124 740l293 -700q5 -12 -1.5 -25t-20.5 -19q-13 -7 -27 -3t-20 17l-293 700q-5 11 1.5 24.5t19.5 19.5q14 7 28.5 2.5t19.5 -16.5z" glyph-name="backslash" horiz-adv-x="472" unicode="\"/><glyph d="M234 705v-831q0 -19 -15.5 -32t-37.5 -13h-116q-18 0 -30.5 15t-12.5 36t12.5 36t30.5 15h67v717h-67q-18 0 -30.5 15t-12.5 36t12.5 36t30.5 15h116q22 0 37.5 -13t15.5 -32z" glyph-name="bracketright" horiz-adv-x="314" unicode="]"/><glyph d="M150 373q-7 -15 -25.5 -19t-37.5 4q-19 9 -28.5 26t-2.5 31l160 314q18 29 60 29t62 -29l160 -314q7 -14 -2.5 -31t-28.5 -26q-19 -8 -37.5 -4t-25.5 19l-126 258h-2z" glyph-name="asciicircum" horiz-adv-x="554" unicode="^"/><glyph d="M0 -91h579v-25h-579v25z" glyph-name="underscore" horiz-adv-x="519" unicode="_"/><glyph d="M239 652l-126 33q-31 8 -28 42q2 30 25 39q12 5 25 -1l117 -59q13 -7 14.5 -21.5t-7 -25.5t-20.5 -7z" glyph-name="grave" horiz-adv-x="351" unicode="`"/><glyph d="M455 8q-43 -25 -124 -25q-122 0 -206.5 88t-84.5 219q0 130 84.5 218t206.5 88q119 0 194 -101h2v32q0 25 20 42.5t49 17.5t49.5 -17.5t20.5 -42.5v-475q0 -25 -20.5 -42.5t-49.5 -17.5t-49 17.5t-20 42.5v238q0 70 -49.5 120t-120.5 50q-70 0 -120 -50t-50 -120 q0 -71 50 -121t120 -50q25 0 47 6q18 8 37 -3.5t30 -33.5t6.5 -46t-22.5 -34z" glyph-name="a" horiz-adv-x="726" unicode="a"/><glyph d="M271 571q43 25 124 25q122 0 207 -88t85 -219q0 -130 -85 -218t-207 -88q-119 0 -194 101h-2v-32q0 -25 -20 -42.5t-49 -17.5t-49.5 17.5t-20.5 42.5v646q0 25 20.5 42.5t49.5 17.5t49 -17.5t20 -42.5v-409q0 -70 49.5 -120t120.5 -50q70 0 120.5 50t50.5 120 q0 71 -50 121t-121 50q-25 0 -47 -6q-18 -8 -37 3.5t-30 33.5t-6.5 46t22.5 34z" glyph-name="b" horiz-adv-x="727" unicode="b"/><glyph d="M466 160q17 17 43.5 14.5t46.5 -22.5q21 -21 22.5 -47.5t-19.5 -45.5q-87 -76 -202 -76q-133 0 -225 88.5t-92 218.5t92 218t225 88q119 0 202 -75q21 -20 20 -45.5t-23 -47.5q-20 -20 -46.5 -22.5t-43.5 14.5q-46 40 -109 40q-70 0 -120 -50t-50 -120t50 -120t120 -50 q63 0 109 40z" glyph-name="c" horiz-adv-x="613" unicode="c"/><glyph d="M456 8q-43 -25 -124 -25q-122 0 -207 88t-85 219q0 130 85 218t207 88q119 0 194 -101h2v203q0 25 20 42.5t49 17.5t49.5 -17.5t20.5 -42.5v-646q0 -25 -20.5 -42.5t-49.5 -17.5t-49 17.5t-20 42.5v238q0 70 -49.5 120t-120.5 50q-70 0 -120.5 -50t-50.5 -120 t50.5 -120.5t120.5 -50.5q24 0 47 6q18 8 37 -3.5t30 -33.5t6.5 -46t-22.5 -34z" glyph-name="d" horiz-adv-x="727" unicode="d"/><glyph d="M240 287q0 25 15.5 43t37.5 18h222q-18 53 -61 84t-98 31q-69 0 -119 -51.5t-50 -121.5q0 -72 51 -126t123 -54q39 0 80 14t67 37q15 17 39.5 16.5t43.5 -18.5q19 -16 23 -41t-10 -41q-45 -45 -110 -69.5t-133 -24.5q-136 0 -228.5 88t-92.5 219q0 130 92 218t224 88 q129 0 220 -89t91 -217q0 -25 -21 -45t-50 -20h-303q-22 0 -37.5 18.5t-15.5 43.5z" glyph-name="e" horiz-adv-x="707" unicode="e"/><glyph d="M289 625q-18 12 -29 12q-14 0 -24 -10.5t-10 -23.5v-24h50q22 0 37.5 -18.5t15.5 -43.5t-15.5 -43.5t-37.5 -18.5h-207q-22 0 -37.5 18.5t-15.5 43.5t15.5 43.5t37.5 18.5h17v27q0 69 51 115t123 46q62 0 113 -44q17 -14 18 -40t-15 -46q-17 -21 -42 -23.5t-45 11.5z M156 405q28 0 49 -17.5t21 -41.5v-295q0 -24 -21 -41.5t-49 -17.5t-49 17.5t-21 41.5v295q0 24 21 41.5t49 17.5z" glyph-name="f" horiz-adv-x="408" unicode="f"/><glyph d="M335 136q28 0 53 10q19 8 42 0t33 -28q21 -43 -16 -75q-45 -37 -112 -39q-122 5 -208.5 93.5t-86.5 210.5q0 124 89 206t212 82q111 0 187 -91h2v26q0 24 18.5 40t45.5 16t46 -16t19 -40v-404q0 -129 -96 -222t-228 -93q-106 0 -207 52q-21 11 -26 36.5t9 49.5 q13 24 37 34t44 0q72 -40 143 -40q65 0 125 45t60 106v203q0 67 -47.5 114.5t-114.5 47.5q-68 0 -119.5 -45.5t-51.5 -111.5t43 -116.5t105 -50.5z" glyph-name="g" horiz-adv-x="719" unicode="g"/><glyph d="M200 698v-646q0 -25 -20.5 -42.5t-49.5 -17.5t-49.5 17.5t-20.5 42.5v646q0 25 20.5 42.5t49.5 17.5t49.5 -17.5t20.5 -42.5zM455 52v280q0 61 -33.5 98t-93.5 30l-19 -2q-20 -2 -37 13t-22 39q-5 25 5 44.5t30 26.5q36 15 86 15q101 0 162.5 -68t61.5 -178v-298 q0 -25 -20.5 -42.5t-49.5 -17.5t-49.5 17.5t-20.5 42.5z" glyph-name="h" unicode="h"/><glyph d="M60 52v475q0 25 20.5 42.5t49.5 17.5t49.5 -17.5t20.5 -42.5v-475q0 -25 -20.5 -42.5t-49.5 -17.5t-49.5 17.5t-20.5 42.5zM51 692q0 33 23 56t56 23t56 -23t23 -56t-23 -56t-56 -23t-56 23t-23 56z" glyph-name="i" horiz-adv-x="260" unicode="i"/><glyph d="M122 527q0 25 20.5 42.5t49.5 17.5t49.5 -17.5t20.5 -42.5v-544q0 -71 -52 -121t-122 -50q-64 0 -111 41q-19 16 -20 41.5t17 45.5q17 23 42 28t43 -11q21 -13 29 -13q14 0 24 10t10 25v548zM113 692q0 33 23 56t56 23t56 -23t23 -56t-23 -56t-56 -23t-56 23t-23 56z" glyph-name="j" horiz-adv-x="322" unicode="j"/><glyph d="M60 52v646q0 25 20.5 42.5t49.5 17.5t49.5 -17.5t20.5 -42.5v-646q0 -25 -20.5 -42.5t-49.5 -17.5t-49.5 17.5t-20.5 42.5zM402 290l171 -191q16 -17 12 -43t-26 -46q-22 -18 -47 -18.5t-41 18.5l-208 228q-20 23 -20 52t20 52l206 227q16 19 41 18.5t47 -18.5 q22 -20 26 -46t-12 -43z" glyph-name="k" horiz-adv-x="601" unicode="k"/><glyph d="M60 52v646q0 25 20.5 42.5t49.5 17.5t49.5 -17.5t20.5 -42.5v-646q0 -25 -20.5 -42.5t-49.5 -17.5t-49.5 17.5t-20.5 42.5z" glyph-name="l" horiz-adv-x="260" unicode="l"/><glyph d="M748 52v306q0 43 -30 72.5t-73 29.5q-8 0 -23 -3q-20 -5 -38.5 8t-25.5 38q-11 44 23 66q41 27 89 27q96 0 157 -67t61 -171v-306q0 -25 -20.5 -42.5t-49.5 -17.5t-49.5 17.5t-20.5 42.5zM290 591q18 5 36 5q96 0 157 -67t61 -171v-306q0 -25 -20.5 -42.5t-49.5 -17.5 t-49.5 17.5t-20.5 42.5v306q0 43 -25.5 71.5t-67.5 29.5q-20 -2 -38 14t-23 41q-6 27 6 49.5t34 27.5zM60 52v475q0 25 20.5 42.5t49.5 17.5t49.5 -17.5t20.5 -42.5v-475q0 -25 -20.5 -42.5t-49.5 -17.5t-49.5 17.5t-20.5 42.5z" glyph-name="m" horiz-adv-x="948" unicode="m"/><glyph d="M200 527v-475q0 -25 -20.5 -42.5t-49.5 -17.5t-49.5 17.5t-20.5 42.5v475q0 25 20.5 42.5t49.5 17.5t49.5 -17.5t20.5 -42.5zM455 52v280q0 61 -33.5 98t-93.5 30l-19 -2q-20 -2 -37 13t-22 39q-5 25 5 44.5t30 26.5q36 15 86 15q101 0 162.5 -68t61.5 -178v-298 q0 -25 -20.5 -42.5t-49.5 -17.5t-49.5 17.5t-20.5 42.5z" glyph-name="n" unicode="n"/><glyph d="M527 290q0 70 -50 120t-121 50q-70 0 -119.5 -50t-49.5 -120q0 -71 49.5 -121t119.5 -50q71 0 121 50t50 121zM673 290q0 -131 -92 -219t-225 -88q-132 0 -224 88t-92 219q0 130 92 218t224 88q133 0 225 -88t92 -218z" glyph-name="o" horiz-adv-x="713" unicode="o"/><glyph d="M271 571q43 25 124 25q122 0 207 -88t85 -219q0 -130 -85 -218t-207 -88q-119 0 -194 101h-2v-203q0 -25 -20 -42.5t-49 -17.5t-49.5 17.5t-20.5 42.5v646q0 25 20.5 42.5t49.5 17.5t49 -17.5t20 -42.5v-238q0 -70 49.5 -120t120.5 -50q70 0 120.5 50t50.5 120 q0 71 -50 121t-121 50q-25 0 -47 -6q-18 -8 -37 3.5t-30 33.5t-6.5 46t22.5 34z" glyph-name="p" horiz-adv-x="727" unicode="p"/><glyph d="M456 8q-43 -25 -124 -25q-122 0 -207 88t-85 219q0 130 85 218t207 88q119 0 194 -101h2v32q0 25 20 42.5t49 17.5t49.5 -17.5t20.5 -42.5v-646q0 -25 -20.5 -42.5t-49.5 -17.5t-49 17.5t-20 42.5v409q0 70 -49.5 120t-120.5 50q-70 0 -120.5 -50t-50.5 -120t50.5 -120.5 t120.5 -50.5q24 0 47 6q18 8 37 -3.5t30 -33.5t6.5 -46t-22.5 -34z" glyph-name="q" horiz-adv-x="727" unicode="q"/><glyph d="M60 380v147q0 25 20.5 42.5t49.5 17.5t49.5 -17.5t20.5 -42.5v-12h2q64 81 154 81q34 0 50.5 -5t42.5 -20q18 -10 22.5 -34t-6.5 -46t-30 -33.5t-37 -3.5q-22 6 -47 6q-51 0 -93 -28t-62 -73q-19 -39 -66 -39q-29 0 -49.5 17.5t-20.5 42.5zM60 52v158q0 25 20.5 42.5 t49.5 17.5t49.5 -17.5t20.5 -42.5v-158q0 -25 -20.5 -42.5t-49.5 -17.5t-49.5 17.5t-20.5 42.5z" glyph-name="r" horiz-adv-x="483" unicode="r"/><glyph d="M128 148q69 -38 159 -43q113 0 113 60q0 31 -25.5 47t-64 19.5t-83.5 12t-83.5 22t-64 52.5t-25.5 101q0 86 61.5 131.5t171.5 45.5q101 0 189 -43q18 -8 24 -30t-4 -45q-11 -23 -32 -33t-40 0q-62 30 -137 30q-89 0 -89 -56q0 -29 26 -44.5t64.5 -19.5t83.5 -13.5 t83.5 -23.5t64.5 -53t26 -100q0 -91 -72 -136.5t-187 -45.5q-125 0 -221 53q-18 11 -23.5 34.5t6.5 46.5q13 24 35.5 33t43.5 -2z" glyph-name="s" horiz-adv-x="577" unicode="s"/><glyph d="M156 405q28 0 49 -17.5t21 -41.5v-175q0 -15 10 -25t24 -10h16q22 0 37.5 -20t15.5 -48t-15.5 -48t-37.5 -20h-26q-85 0 -124.5 42t-39.5 129v175q0 24 21 41.5t49 17.5zM86 579v80q0 24 21 41.5t49 17.5t49 -17.5t21 -41.5v-80h50q22 0 37.5 -18.5t15.5 -43.5 t-15.5 -43.5t-37.5 -18.5h-207q-22 0 -37.5 18.5t-15.5 43.5t15.5 43.5t37.5 18.5h17z" glyph-name="t" horiz-adv-x="355" unicode="t"/><glyph d="M455 52v475q0 25 20.5 42.5t49.5 17.5t49.5 -17.5t20.5 -42.5v-475q0 -25 -20.5 -42.5t-49.5 -17.5t-49.5 17.5t-20.5 42.5zM200 527v-280q0 -61 33.5 -98t93.5 -30l19 2q20 2 37 -13t22 -39q5 -25 -5 -44.5t-30 -26.5q-36 -15 -86 -15q-101 0 -162.5 68t-61.5 178v298 q0 25 20.5 42.5t49.5 17.5t49.5 -17.5t20.5 -42.5z" glyph-name="u" unicode="u"/><glyph d="M380 35q-20 -43 -75 -43t-75 43l-213 460q-11 23 0.5 47.5t37.5 36.5q26 13 52 5.5t37 -30.5l161 -339l161 339q11 23 37 30.5t52 -5.5q26 -12 37.5 -36.5t0.5 -47.5z" glyph-name="v" horiz-adv-x="610" unicode="v"/><glyph d="M893 501l-181 -469q-5 -17 -25.5 -28.5t-46.5 -11.5q-27 0 -47.5 11.5t-25.5 28.5l-113 297l-113 -297q-5 -17 -25.5 -28.5t-46.5 -11.5q-27 0 -47.5 11.5t-25.5 28.5l-180 469q-10 23 3 46.5t41 33.5q27 10 52.5 1t34.5 -32l122 -333l123 336q5 15 22 24.5t40 9.5 q48 0 61 -34l125 -336l122 333q9 23 34.5 32t52.5 -1q28 -10 41 -33.5t3 -46.5z" glyph-name="w" horiz-adv-x="909" unicode="w"/><glyph d="M140 10q-17 -19 -43.5 -18.5t-48.5 20.5q-22 19 -25.5 46t13.5 45l421 466q17 19 43.5 18.5t48.5 -20.5q22 -19 25.5 -46t-13.5 -45zM127 375l-91 101q-17 18 -13.5 45t25.5 46q22 20 48.5 20.5t43.5 -18.5l91 -101q17 -18 13.5 -45t-25.5 -46q-22 -20 -48.5 -20.5 t-43.5 18.5zM457 10l-91 101q-17 18 -13.5 45t25.5 46q22 20 48.5 20.5t43.5 -18.5l91 -101q17 -18 13.5 -45t-25.5 -46q-22 -20 -48.5 -20.5t-43.5 18.5z" glyph-name="x" horiz-adv-x="597" unicode="x"/><glyph d="M204 -172q-26 12 -37.5 36.5t-0.5 47.5l300 642q11 23 37 30.5t52 -5.5q26 -12 37.5 -36.5t0.5 -47.5l-300 -642q-11 -23 -37 -30.5t-52 5.5zM231 202q-26 -13 -52 -5.5t-37 30.5l-125 268q-11 23 0.5 47.5t37.5 36.5q26 13 52 5.5t37 -30.5l125 -268q11 -23 -0.5 -47.5 t-37.5 -36.5z" glyph-name="y" horiz-adv-x="610" unicode="y"/><glyph d="M546 63q0 -26 -15.5 -44.5t-37.5 -18.5h-408q-22 0 -38.5 19t-16.5 44q0 26 20 48l276 339v2h-243q-22 0 -37.5 19t-15.5 45t15.5 44.5t37.5 18.5h408q22 0 37.5 -18.5t15.5 -44.5q0 -28 -18 -48l-276 -339v-2h243q22 0 37.5 -19t15.5 -45z" glyph-name="z" horiz-adv-x="576" unicode="z"/><glyph d="M362 699q0 -21 -12.5 -36t-30.5 -15q-22 0 -36.5 -15t-14.5 -37v-204q0 -59 -57 -102q57 -45 57 -102v-205q0 -22 14.5 -37t36.5 -15q18 0 30.5 -15t12.5 -36t-12.5 -36t-30.5 -15q-64 0 -109 45t-45 109v205q0 20 -14.5 35t-35.5 15h-8q-18 0 -30.5 15t-12.5 36t12.5 36 t30.5 15h8q21 0 35.5 15.5t14.5 36.5v204q0 64 45 109t109 45q18 0 30.5 -15t12.5 -36z" glyph-name="braceleft" horiz-adv-x="384" unicode="{"/><glyph d="M120 -149v877q0 13 10.5 21.5t24.5 8.5t24.5 -8.5t10.5 -21.5v-877q0 -13 -10.5 -21.5t-24.5 -8.5t-24.5 8.5t-10.5 21.5z" glyph-name="bar" horiz-adv-x="310" unicode="|"/><glyph d="M22 699q0 21 12.5 36t30.5 15q64 0 109 -45t45 -109v-204q0 -21 14.5 -36.5t35.5 -15.5h8q18 0 30.5 -15t12.5 -36t-12.5 -36t-30.5 -15h-8q-21 0 -35.5 -15t-14.5 -35v-205q0 -64 -45 -109t-109 -45q-18 0 -30.5 15t-12.5 36t12.5 36t30.5 15q22 0 36.5 15t14.5 37v205 q0 57 57 102q-57 43 -57 102v204q0 22 -14.5 37t-36.5 15q-18 0 -30.5 15t-12.5 36z" glyph-name="braceright" horiz-adv-x="384" unicode="}"/><glyph d="M461 321q-7 -67 -65 -98q-45 -26 -93.5 -12.5t-75.5 59.5q-11 18 -29.5 23.5t-35.5 -4.5q-19 -8 -23 -38q-2 -17 -14.5 -26.5t-29.5 -7.5q-16 2 -26 14t-8 27q7 67 65 98q45 26 93.5 12.5t75.5 -59.5q11 -18 29.5 -23.5t35.5 4.5q19 8 23 38q2 17 14.5 26.5t29.5 7.5 q16 -2 26 -14t8 -27z" glyph-name="asciitilde" horiz-adv-x="522" unicode="~"/><glyph glyph-name="uni00A0" horiz-adv-x="500" unicode=" "/><glyph d="M60 51l14 458q0 19 16.5 32.5t38.5 13.5t38 -13.5t16 -32.5l14 -458q0 -24 -20 -41t-48 -17t-48.5 17t-20.5 41zM206 681q0 -31 -22.5 -53t-54.5 -22t-54.5 22t-22.5 53q0 33 22.5 55t54.5 22t54.5 -22t22.5 -55z" glyph-name="exclamdown" horiz-adv-x="258" unicode="¡"/><glyph d="M138 68q-98 88 -98 222t98 222q17 17 44 14t47 -24q21 -22 23 -48.5t-16 -43.5q-49 -49 -49 -120t49 -120q18 -17 16 -43.5t-23 -48.5q-20 -21 -47 -24t-44 14zM357 120q63 0 109 40q17 17 43.5 14.5t46.5 -22.5q22 -22 23 -47.5t-20 -45.5q-57 -51 -134 -68v-53 q0 -17 -20 -29.5t-48 -12.5t-48 12.5t-20 29.5v140q0 17 20 29.5t48 12.5zM357 460q-28 0 -48 12.5t-20 29.5v140q0 17 20 29.5t48 12.5t48 -12.5t20 -29.5v-53q77 -17 134 -68q21 -20 20 -45.5t-23 -47.5q-20 -20 -46.5 -22.5t-43.5 14.5q-46 40 -109 40z" glyph-name="cent" horiz-adv-x="613" unicode="¢"/><glyph d="M60 60v289q0 25 21 42.5t50 17.5h290q25 0 42.5 -20.5t17.5 -48.5t-17.5 -48t-42.5 -20h-219v-136h288q25 0 42.5 -20t17.5 -48t-17.5 -48t-42.5 -20h-359q-29 0 -50 17.5t-21 42.5zM202 522q0 -23 -21 -39.5t-50 -16.5t-50 16.5t-21 39.5q0 101 72 173t173 72t173 -72 t72 -173q0 -23 -21 -39.5t-50 -16.5t-50 16.5t-21 39.5q0 43 -30 73t-73 30t-73 -30t-30 -73z" glyph-name="sterling" horiz-adv-x="585" unicode="£"/><glyph d="M677 290q0 -104 -61 -184l32 -32q12 -13 10.5 -32.5t-16.5 -33.5q-14 -15 -33.5 -16.5t-32.5 10.5l-35 34q-79 -53 -181 -53t-181 53l-34 -34q-13 -12 -32.5 -10.5t-33.5 16.5q-15 14 -16.5 33.5t10.5 32.5l32 32q-61 78 -61 184q0 101 61 183l-32 32q-12 13 -10.5 32.5 t16.5 33.5q14 15 33.5 16.5t32.5 -10.5l34 -34q79 53 181 53q100 0 181 -54l35 35q13 12 32.5 10.5t33.5 -16.5q15 -14 16.5 -33.5t-10.5 -32.5l-32 -32q61 -82 61 -183zM531 290q0 70 -50 120t-121 50q-70 0 -119.5 -50t-49.5 -120q0 -71 49.5 -121t119.5 -50q71 0 121 50 t50 121z" glyph-name="currency" horiz-adv-x="721" unicode="¤"/><glyph d="M584 462h-86l-87 -107v-303q0 -25 -21 -42.5t-50 -17.5t-50 17.5t-21 42.5v337q0 16 12 31l259 318q16 20 43.5 20.5t49.5 -17.5q23 -18 29 -44.5t-10 -46.5l-84 -102h16q15 0 25 -12.5t10 -30.5t-10 -30.5t-25 -12.5zM140 738l132 -168q16 -20 10 -46.5t-29 -44.5 q-21 -17 -52 -17h-107q-15 0 -25 12.5t-10 30.5t10 30.5t25 12.5h14l-80 102q-16 20 -10 46.5t29 44.5q22 18 49.5 17.5t43.5 -20.5zM584 297h-90q-15 0 -25 12.5t-10 30.5t10 30.5t25 12.5h90q15 0 25 -12.5t10 -30.5t-10 -30.5t-25 -12.5zM184 297h-90q-15 0 -25 12.5 t-10 30.5t10 30.5t25 12.5h90q15 0 25 -12.5t10 -30.5t-10 -30.5t-25 -12.5z" glyph-name="yen" horiz-adv-x="680" unicode="¥"/><glyph d="M111 333q-21 0 -36 12.5t-15 29.5v222q0 17 15 29.5t36 12.5t36 -12.5t15 -29.5v-222q0 -17 -15 -29.5t-36 -12.5zM111 -58q-21 0 -36 12.5t-15 29.5v221q0 17 15 29.5t36 12.5t36 -12.5t15 -29.5v-221q0 -17 -15 -29.5t-36 -12.5z" glyph-name="brokenbar" horiz-adv-x="222" unicode="¦"/><glyph d="M526 294q0 -35 -22.5 -51.5t-58.5 -12.5q-27 3 -46 20.5t-18 39.5q1 33 -26.5 55t-67.5 22q-102 0 -169.5 55.5t-67.5 140.5q0 90 67 147t170 57q79 0 140.5 -40.5t82.5 -103.5q9 -22 -4 -45t-40 -33q-25 -10 -49.5 -2t-34.5 30q-26 57 -95 57q-40 0 -66 -17.5t-26 -51.5 q0 -31 27.5 -49t64.5 -18q104 0 171.5 -54.5t67.5 -145.5zM50 286q0 35 22.5 51.5t58.5 12.5q27 -3 46 -20.5t18 -39.5q-1 -33 26.5 -55t67.5 -22q102 0 169.5 -55.5t67.5 -140.5q0 -90 -67 -147t-170 -57q-79 0 -140.5 40.5t-82.5 103.5q-9 22 4 45t40 33q25 10 49.5 2 t34.5 -30q26 -57 95 -57q40 0 66 17.5t26 51.5q0 31 -27.5 49t-64.5 18q-104 0 -171.5 54.5t-67.5 145.5z" glyph-name="section" horiz-adv-x="576" unicode="§"/><glyph d="M117 716q0 -21 -15 -36t-35 -15q-22 0 -37 15t-15 36t15 36t37 15q20 0 35 -15t15 -36zM315 716q0 -21 -14.5 -36t-36.5 -15q-21 0 -36 15t-15 36t15 36t36 15q22 0 36.5 -15t14.5 -36z" glyph-name="dieresis" horiz-adv-x="330" unicode="¨"/><glyph d="M617 290q0 112 -79 191t-192 79q-112 0 -191 -79t-79 -191t79 -191.5t191 -79.5q113 0 192 79.5t79 191.5zM653 290q0 -128 -89.5 -217.5t-217.5 -89.5q-127 0 -216.5 90t-89.5 217t89.5 216.5t216.5 89.5t217 -89.5t90 -216.5zM442 207q8 10 21.5 10.5t24.5 -9.5 q11 -9 13 -22.5t-6 -22.5q-61 -69 -148 -69q-84 0 -142.5 56.5t-58.5 139.5t58.5 139.5t142.5 56.5q85 0 148 -69q8 -9 6 -23t-13 -23t-24.5 -8.5t-21.5 9.5q-47 45 -95 45q-53 0 -90.5 -37t-37.5 -90t37.5 -90.5t90.5 -37.5q29 0 50 11t45 34z" glyph-name="copyright" horiz-adv-x="693" unicode="©"/><glyph d="M248 473q-23 -13 -62 -13q-61 0 -103.5 44t-42.5 110q0 65 42.5 109t103.5 44q59 0 97 -51h1v16q0 13 10 21.5t24 8.5q15 0 25 -8.5t10 -21.5v-237q0 -13 -10 -21.5t-25 -8.5q-14 0 -24 8.5t-10 21.5v119q0 35 -25 60t-60 25t-60 -25t-25 -60t25 -60.5t60 -25.5 q13 0 23 3q19 9 34 -18q5 -11 3 -23t-11 -17z" glyph-name="ordfeminine" horiz-adv-x="403" unicode="ª"/><glyph d="M44 323l149 149q12 13 31.5 11t35.5 -17q14 -15 16 -34.5t-11 -32.5l-109 -109l111 -113q13 -12 11.5 -31.5t-15.5 -33.5q-15 -14 -34 -15.5t-31 11.5l-148 148q-15 15 -17 34.5t11 32.5zM254 323l149 149q12 13 31.5 11t35.5 -17q14 -15 16 -34.5t-11 -32.5l-109 -109 l111 -113q13 -12 11.5 -31.5t-15.5 -33.5q-15 -14 -34 -15.5t-31 11.5l-148 148q-15 15 -17 34.5t11 32.5z" glyph-name="guillemotleft" horiz-adv-x="521" unicode="«"/><glyph d="M333 163q-21 0 -36 13t-15 31v31h-186q-18 0 -31 15t-13 36t13 36t31 15h237q21 0 36 -13t15 -31v-89q0 -18 -15 -31t-36 -13z" glyph-name="logicalnot" horiz-adv-x="444" unicode="¬"/><glyph d="M279 648q0 -49 -35 -84.5t-84 -35.5q-50 0 -85 35t-35 85q0 49 35.5 84t84.5 35t84 -35t35 -84zM265 648q0 43 -30.5 73.5t-74.5 30.5t-75 -30.5t-31 -73.5q0 -44 31 -75t75 -31t74.5 31t30.5 75zM224 573h-31l-28 56h-33v-56h-27v153h69q21 0 35.5 -14t14.5 -34 q0 -31 -30 -46zM132 656h42q10 0 16 6.5t6 15.5q0 8 -6 14t-16 6h-42v-42z" glyph-name="registered" horiz-adv-x="319" unicode="®"/><glyph d="M52 711q0 16 9 27.5t23 11.5h139q14 0 23 -11.5t9 -27.5t-9 -27.5t-23 -11.5h-139q-14 0 -23 11.5t-9 27.5z" glyph-name="macron" horiz-adv-x="307" unicode="¯"/><glyph d="M195 665q0 17 -12.5 29.5t-30.5 12.5q-17 0 -29.5 -12.5t-12.5 -29.5q0 -18 12.5 -30.5t29.5 -12.5q18 0 30.5 12.5t12.5 30.5zM254 665q0 -42 -29.5 -72t-72.5 -30q-42 0 -72 30t-30 72q0 43 30 72.5t72 29.5q43 0 72.5 -29.5t29.5 -72.5z" glyph-name="degree" horiz-adv-x="304" unicode="°"/><glyph d="M341 163q-21 0 -36 12.5t-15 29.5v119h-206q-17 0 -29.5 15t-12.5 36t12.5 36t29.5 15h206v119q0 17 15 29.5t36 12.5t36 -12.5t15 -29.5v-119h204q17 0 29.5 -15t12.5 -36t-12.5 -36t-29.5 -15h-204v-119q0 -17 -15 -29.5t-36 -12.5zM42 51q0 21 12.5 36t29.5 15h512 q17 0 29.5 -15t12.5 -36t-12.5 -36t-29.5 -15h-512q-17 0 -29.5 15t-12.5 36z" glyph-name="plusminus" horiz-adv-x="680" unicode="±"/><glyph d="M40 630q0 55 38 91.5t94 36.5q57 0 95 -34t38 -89t-50 -96l-105 -96h118q12 0 20.5 -10t8.5 -24t-8.5 -24t-20.5 -10h-184q-15 0 -26 12.5t-11 30.5q0 23 17 37l147 135q21 21 21 45q0 25 -17.5 40.5t-42.5 15.5q-24 0 -41 -17.5t-18 -43.5q0 -13 -11 -22t-26 -9t-25.5 9 t-10.5 22z" glyph-name="uni00B2" horiz-adv-x="345" unicode="²"/><glyph d="M204 540q-9 7 -9 21t8 24q9 11 22 14t23 -4q50 -37 50 -101q0 -54 -38.5 -90.5t-93.5 -36.5q-46 0 -81 28.5t-44 71.5q-3 11 5 21.5t22 13.5q13 3 25 -3.5t14 -17.5q5 -20 21 -33.5t38 -13.5q24 0 41.5 17.5t17.5 42.5t-21 46zM95 606l77 77h-84q-12 0 -20.5 9.5 t-8.5 23.5t8.5 24t20.5 10h166q13 0 21.5 -10.5t8.5 -24.5q0 -17 -11 -28l-130 -129q-8 -8 -21 -6.5t-23 11.5t-11 22.5t7 20.5z" glyph-name="uni00B3" horiz-adv-x="338" unicode="³"/><glyph d="M238 685l-126 -33q-12 -4 -20.5 7t-7 25.5t14.5 21.5l117 59q28 12 44 -16q15 -29 -2 -51q-7 -9 -20 -13z" glyph-name="acute" horiz-adv-x="351" unicode="´"/><glyph d="M200 527v-280q0 -54 37.5 -93.5t89.5 -34.5l19 2q20 2 37 -13t22 -39q5 -25 -5 -44.5t-30 -26.5q-36 -15 -76 -15q-49 0 -94 38v-140q0 -25 -20.5 -42.5t-49.5 -17.5t-49.5 17.5t-20.5 42.5v646q0 25 20.5 42.5t49.5 17.5t49.5 -17.5t20.5 -42.5zM455 52v475 q0 25 20.5 42.5t49.5 17.5t49.5 -17.5t20.5 -42.5v-475q0 -25 -20.5 -42.5t-49.5 -17.5t-49.5 17.5t-20.5 42.5z" glyph-name="uni00B5" unicode="µ"/><glyph d="M444 613h-60v-577q0 -18 -15 -31t-36 -13t-36 13t-15 31v654q0 25 21 42.5t50 17.5h122q29 0 50 -17.5t21 -42.5v-654q0 -18 -15 -31t-36 -13t-36 13t-15 31v577zM145 755q22 8 45 -5.5t34 -39.5q9 -24 3.5 -46.5t-23.5 -35.5q-32 -20 -32 -59t32 -59q18 -13 23.5 -35.5 t-3.5 -46.5q-11 -26 -34 -39.5t-45 -5.5q-54 25 -87 74t-33 112t33 112t87 74z" glyph-name="paragraph" horiz-adv-x="606" unicode="¶"/><glyph d="M112 213q-32 0 -54.5 22.5t-22.5 54.5t22.5 54.5t54.5 22.5t54.5 -22.5t22.5 -54.5t-22.5 -54.5t-54.5 -22.5z" glyph-name="periodcentered" horiz-adv-x="274" unicode="·"/><glyph d="M101 -142q-3 9 3 17t15 10t16.5 -2t9.5 -12q10 -30 41 -30q17 0 29.5 12t12.5 30q0 17 -12.5 29.5t-29.5 12.5q-12 0 -25 -9q-14 -10 -26 -6q-10 1 -17 9.5t-5 16.5l11 64h45l-6 -38q9 5 30 5q39 0 61.5 -23.5t22.5 -60.5t-26.5 -62t-64.5 -25q-31 0 -54 17t-31 45z" glyph-name="cedilla" horiz-adv-x="377" unicode="¸"/><glyph d="M114 401v264l-38 -24q-10 -6 -21.5 -2t-18.5 15t-5 23t11 17l86 54q9 6 21 6q15 0 25 -8.5t10 -21.5v-323q0 -12 -10 -21t-25 -9q-14 0 -24.5 9t-10.5 21z" glyph-name="uni00B9" horiz-adv-x="234" unicode="¹"/><glyph d="M284 615q0 35 -25 60t-61 25q-34 0 -59 -25t-25 -60t25 -60.5t59 -25.5q36 0 61 25.5t25 60.5zM357 615q0 -66 -46.5 -110t-112.5 -44t-112 44.5t-46 109.5t46 109t112 44t112.5 -44t46.5 -109z" glyph-name="ordmasculine" horiz-adv-x="397" unicode="º"/><glyph d="M328 472l149 -149q13 -13 11 -32.5t-17 -34.5l-148 -148q-12 -13 -31 -11.5t-34 15.5q-14 14 -15.5 33.5t11.5 31.5l111 113l-109 109q-13 13 -11 32.5t16 34.5q16 15 35.5 17t31.5 -11zM118 472l149 -149q13 -13 11 -32.5t-17 -34.5l-148 -148q-12 -13 -31 -11.5 t-34 15.5q-14 14 -15.5 33.5t11.5 31.5l111 113l-109 109q-13 13 -11 32.5t16 34.5q16 15 35.5 17t31.5 -11z" glyph-name="guillemotright" horiz-adv-x="521" unicode="»"/><glyph d="M114 401v264l-38 -24q-10 -6 -21.5 -2t-18.5 15t-5 23t11 17l86 54q9 6 21 6q15 0 25 -8.5t10 -21.5v-323q0 -12 -10 -21t-25 -9q-14 0 -24.5 9t-10.5 21zM141 27l300 718q4 10 14.5 13t20.5 -2q25 -11 17 -33l-300 -718q-4 -10 -14.5 -13t-20.5 2q-25 11 -17 33z M512 196v61l-87 -121h175q12 0 20.5 -10t8.5 -24t-8.5 -24t-20.5 -10h-17v-42q0 -12 -10.5 -21t-24.5 -9q-15 0 -25.5 9t-10.5 21v42h-128q-17 0 -28.5 13.5t-11.5 32.5q0 17 10 30l148 217q13 18 38 18q18 0 30.5 -10.5t12.5 -26.5v-146q0 -13 -10.5 -21.5t-24.5 -8.5 q-15 0 -25.5 8.5t-10.5 21.5z" glyph-name="onequarter" horiz-adv-x="649" unicode="¼"/><glyph d="M114 401v264l-38 -24q-10 -6 -21.5 -2t-18.5 15t-5 23t11 17l86 54q9 6 21 6q15 0 25 -8.5t10 -21.5v-323q0 -12 -10 -21t-25 -9q-14 0 -24.5 9t-10.5 21zM141 27l300 718q4 10 14.5 13t20.5 -2q25 -11 17 -33l-300 -718q-4 -10 -14.5 -13t-20.5 2q-25 11 -17 33z M405 255q0 55 38 91.5t94 36.5q57 0 95 -34t38 -89t-50 -96l-105 -96h118q12 0 20.5 -10t8.5 -24t-8.5 -24t-20.5 -10h-184q-15 0 -26 12.5t-11 30.5q0 23 17 37l147 135q21 21 21 45q0 25 -17.5 40.5t-42.5 15.5q-24 0 -41 -17.5t-18 -43.5q0 -13 -11 -22t-26 -9t-25.5 9 t-10.5 22z" glyph-name="onehalf" horiz-adv-x="710" unicode="½"/><glyph d="M209 27l300 718q4 10 14.5 13t20.5 -2q25 -11 17 -33l-300 -718q-4 -10 -14.5 -13t-20.5 2q-25 11 -17 33zM204 540q-9 7 -9 21t8 24q9 11 22 14t23 -4q50 -37 50 -101q0 -54 -38.5 -90.5t-93.5 -36.5q-46 0 -81 28.5t-44 71.5q-3 11 5 21.5t22 13.5q13 3 25 -3.5 t14 -17.5q5 -20 21 -33.5t38 -13.5q24 0 41.5 17.5t17.5 42.5t-21 46zM95 606l77 77h-84q-12 0 -20.5 9.5t-8.5 23.5t8.5 24t20.5 10h166q13 0 21.5 -10.5t8.5 -24.5q0 -17 -11 -28l-130 -129q-8 -8 -21 -6.5t-23 11.5t-11 22.5t7 20.5zM571 196v61l-87 -121h175 q12 0 20.5 -10t8.5 -24t-8.5 -24t-20.5 -10h-17v-42q0 -12 -10.5 -21t-24.5 -9q-15 0 -25.5 9t-10.5 21v42h-128q-17 0 -28.5 13.5t-11.5 32.5q0 17 10 30l148 217q13 18 38 18q18 0 30.5 -10.5t12.5 -26.5v-146q0 -13 -10.5 -21.5t-24.5 -8.5q-15 0 -25.5 8.5t-10.5 21.5z " glyph-name="threequarters" horiz-adv-x="708" unicode="¾"/><glyph d="M372 520v-103q0 -25 -19 -42.5t-48 -17.5q-49 0 -84 -35t-35 -85q0 -49 35 -84t84 -35q43 0 75.5 26t41.5 67q4 23 28 35.5t51 6.5q28 -5 43.5 -26t10.5 -44q-19 -86 -89 -143t-161 -57q-111 0 -188 72.5t-77 181.5q0 93 57.5 160.5t140.5 82.5v40q0 26 19 43t48 17 t48 -17t19 -43zM229 682q0 32 22.5 54.5t53.5 22.5q32 0 54.5 -22.5t22.5 -54.5t-22.5 -54.5t-54.5 -22.5q-31 0 -53.5 22.5t-22.5 54.5z" glyph-name="questiondown" horiz-adv-x="591" unicode="¿"/><glyph d="M420 787l-126 33q-31 8 -28 42q2 30 25 39q12 5 25 -1l117 -59q13 -7 14.5 -21.5t-7 -25.5t-20.5 -7zM431 349l-71 199h-8l-194 -521q-10 -22 -36 -30.5t-54 0.5q-27 11 -39.5 35t-4.5 47l246 631q22 48 86 48t86 -48l120 -309q8 -24 -3.5 -47.5t-38.5 -34.5 q-28 -9 -54.5 -0.5t-34.5 30.5zM281 205q0 28 17 48t41 20h222q25 0 44.5 -13.5t24.5 -33.5l58 -147q8 -23 -4.5 -47t-39.5 -35q-28 -9 -54 -0.5t-36 30.5l-48 109h-167q-24 0 -41 20t-17 49z" glyph-name="Agrave" horiz-adv-x="712" unicode="À"/><glyph d="M408 820l-126 -33q-12 -4 -20.5 7t-7 25.5t14.5 21.5l117 59q28 12 44 -16q15 -29 -2 -51q-7 -9 -20 -13zM431 349l-71 199h-8l-194 -521q-10 -22 -36 -30.5t-54 0.5q-27 11 -39.5 35t-4.5 47l246 631q22 48 86 48t86 -48l120 -309q8 -24 -3.5 -47.5t-38.5 -34.5 q-28 -9 -54.5 -0.5t-34.5 30.5zM281 205q0 28 17 48t41 20h222q25 0 44.5 -13.5t24.5 -33.5l58 -147q8 -23 -4.5 -47t-39.5 -35q-28 -9 -54 -0.5t-36 30.5l-48 109h-167q-24 0 -41 20t-17 49z" glyph-name="Aacute" horiz-adv-x="712" unicode="Á"/><glyph d="M356 851l-60 -56q-8 -8 -20.5 -6t-22.5 12q-20 25 0 43l78 75q9 9 25 9q14 0 25 -9l77 -75q10 -8 9.5 -20t-9.5 -23q-9 -10 -21.5 -12t-20.5 6zM431 349l-71 199h-8l-194 -521q-10 -22 -36 -30.5t-54 0.5q-27 11 -39.5 35t-4.5 47l246 631q22 48 86 48t86 -48l120 -309 q8 -24 -3.5 -47.5t-38.5 -34.5q-28 -9 -54.5 -0.5t-34.5 30.5zM281 205q0 28 17 48t41 20h222q25 0 44.5 -13.5t24.5 -33.5l58 -147q8 -23 -4.5 -47t-39.5 -35q-28 -9 -54 -0.5t-36 30.5l-48 109h-167q-24 0 -41 20t-17 49z" glyph-name="Acircumflex" horiz-adv-x="712" unicode="Â"/><glyph d="M243 806q0 30 21.5 52t51.5 22q44 0 63 -39q6 -10 18 -10q19 0 19 19q0 9 8 15.5t19 6.5t19 -6.5t8 -15.5q0 -32 -21.5 -53t-51.5 -21q-43 0 -65 38q-6 11 -16 11q-19 0 -19 -19q0 -9 -8 -15.5t-19 -6.5t-19 6.5t-8 15.5zM431 349l-71 199h-8l-194 -521 q-10 -22 -36 -30.5t-54 0.5q-27 11 -39.5 35t-4.5 47l246 631q22 48 86 48t86 -48l120 -309q8 -24 -3.5 -47.5t-38.5 -34.5q-28 -9 -54.5 -0.5t-34.5 30.5zM281 205q0 28 17 48t41 20h222q25 0 44.5 -13.5t24.5 -33.5l58 -147q8 -23 -4.5 -47t-39.5 -35q-28 -9 -54 -0.5 t-36 30.5l-48 109h-167q-24 0 -41 20t-17 49z" glyph-name="Atilde" horiz-adv-x="712" unicode="Ã"/><glyph d="M307 839q0 -21 -15 -36t-35 -15q-22 0 -37 15t-15 36q0 22 15 36.5t37 14.5q21 0 35.5 -15t14.5 -36zM506 839q0 -21 -15 -36t-37 -15q-21 0 -36 15t-15 36q0 22 15 36.5t36 14.5q22 0 37 -14.5t15 -36.5zM431 349l-71 199h-8l-194 -521q-10 -22 -36 -30.5t-54 0.5 q-27 11 -39.5 35t-4.5 47l246 631q22 48 86 48t86 -48l120 -309q8 -24 -3.5 -47.5t-38.5 -34.5q-28 -9 -54.5 -0.5t-34.5 30.5zM281 205q0 28 17 48t41 20h222q25 0 44.5 -13.5t24.5 -33.5l58 -147q8 -23 -4.5 -47t-39.5 -35q-28 -9 -54 -0.5t-36 30.5l-48 109h-167 q-24 0 -41 20t-17 49z" glyph-name="Adieresis" horiz-adv-x="712" unicode="Ä"/><glyph d="M383 851q0 11 -8 18.5t-19 7.5t-19 -7.5t-8 -18.5q0 -12 8 -20t19 -8t19 8t8 20zM430 851q0 -31 -22 -53t-52 -22t-52 22t-22 53q0 30 22 51.5t52 21.5t52 -21.5t22 -51.5zM431 349l-71 199h-8l-194 -521q-10 -22 -36 -30.5t-54 0.5q-27 11 -39.5 35t-4.5 47l246 631 q22 48 86 48t86 -48l120 -309q8 -24 -3.5 -47.5t-38.5 -34.5q-28 -9 -54.5 -0.5t-34.5 30.5zM281 205q0 28 17 48t41 20h222q25 0 44.5 -13.5t24.5 -33.5l58 -147q8 -23 -4.5 -47t-39.5 -35q-28 -9 -54 -0.5t-36 30.5l-48 109h-167q-24 0 -41 20t-17 49z" glyph-name="Aring" horiz-adv-x="712" unicode="Å"/><glyph d="M514 60v324q0 25 21 42.5t50 17.5h359q25 0 42.5 -20.5t17.5 -48.5t-17.5 -48t-42.5 -20h-288v-171h357q25 0 42.5 -20t17.5 -48t-17.5 -48t-42.5 -20h-428q-29 0 -50 17.5t-21 42.5zM404 273q25 0 42.5 -20.5t17.5 -48.5t-17.5 -48t-42.5 -20h-180l-85 -121 q-14 -20 -41 -23t-51 14q-24 16 -30 42.5t8 46.5l111 154q18 24 48 24h220zM1013 750q25 0 42.5 -20.5t17.5 -48.5t-17.5 -48t-42.5 -20h-446l-187 -267q-14 -20 -41 -23t-51 14q-24 16 -30 42.5t8 46.5l213 300q18 24 48 24h486z" glyph-name="AE" horiz-adv-x="1105" unicode="Æ"/><glyph d="M628 210q17 19 43 20t49 -18q22 -18 26 -45.5t-12 -45.5q-124 -138 -297 -138q-13 0 -20 1l-3 -22q9 5 30 5q39 0 61.5 -23.5t22.5 -60.5t-26.5 -62t-64.5 -25q-31 0 -54 17t-31 45q-3 9 3 17t15 10t16.5 -2t9.5 -12q10 -30 41 -30q17 0 29.5 12t12.5 30q0 17 -12.5 29.5 t-29.5 12.5q-12 0 -25 -9q-14 -10 -26 -6q-10 1 -17 9.5t-5 16.5l9 52q-146 22 -242 130.5t-96 256.5q0 166 117.5 279t284.5 113q173 0 297 -138q16 -18 12 -45.5t-26 -45.5q-23 -19 -49 -18t-43 20q-48 45 -90 67.5t-101 22.5q-106 0 -180.5 -74.5t-74.5 -180.5 t74.5 -180.5t180.5 -74.5q59 0 101 22.5t90 67.5z" glyph-name="Ccedilla" horiz-adv-x="782" unicode="Ç"/><glyph d="M411 787l-126 33q-31 8 -28 42q2 30 25 39q12 5 25 -1l117 -59q13 -7 14.5 -21.5t-7 -25.5t-20.5 -7zM60 60v324q0 25 21 42.5t50 17.5h359q25 0 42.5 -20.5t17.5 -48.5t-17.5 -48t-42.5 -20h-288v-171h357q25 0 42.5 -20t17.5 -48t-17.5 -48t-42.5 -20h-428 q-29 0 -50 17.5t-21 42.5zM60 563v127q0 25 21 42.5t50 17.5h428q25 0 42.5 -20.5t17.5 -48.5t-17.5 -48t-42.5 -20h-357v-50q0 -25 -21 -42.5t-50 -17.5t-50 17.5t-21 42.5z" glyph-name="Egrave" horiz-adv-x="651" unicode="È"/><glyph d="M400 820l-126 -33q-12 -4 -20.5 7t-7 25.5t14.5 21.5l117 59q28 12 44 -16q15 -29 -2 -51q-7 -9 -20 -13zM60 60v324q0 25 21 42.5t50 17.5h359q25 0 42.5 -20.5t17.5 -48.5t-17.5 -48t-42.5 -20h-288v-171h357q25 0 42.5 -20t17.5 -48t-17.5 -48t-42.5 -20h-428 q-29 0 -50 17.5t-21 42.5zM60 563v127q0 25 21 42.5t50 17.5h428q25 0 42.5 -20.5t17.5 -48.5t-17.5 -48t-42.5 -20h-357v-50q0 -25 -21 -42.5t-50 -17.5t-50 17.5t-21 42.5z" glyph-name="Eacute" horiz-adv-x="651" unicode="É"/><glyph d="M336 851l-60 -56q-8 -8 -20.5 -6t-22.5 12q-20 25 0 43l78 75q9 9 25 9q15 0 25 -9l77 -75q10 -8 9.5 -20t-9.5 -23q-9 -10 -21.5 -12t-20.5 6zM60 60v324q0 25 21 42.5t50 17.5h359q25 0 42.5 -20.5t17.5 -48.5t-17.5 -48t-42.5 -20h-288v-171h357q25 0 42.5 -20 t17.5 -48t-17.5 -48t-42.5 -20h-428q-29 0 -50 17.5t-21 42.5zM60 563v127q0 25 21 42.5t50 17.5h428q25 0 42.5 -20.5t17.5 -48.5t-17.5 -48t-42.5 -20h-357v-50q0 -25 -21 -42.5t-50 -17.5t-50 17.5t-21 42.5z" glyph-name="Ecircumflex" horiz-adv-x="651" unicode="Ê"/><glyph d="M278 839q0 -21 -15 -36t-35 -15q-22 0 -37 15t-15 36q0 22 15 36.5t37 14.5q20 0 35 -15t15 -36zM477 839q0 -21 -15 -36t-37 -15q-21 0 -36 15t-15 36q0 22 15 36.5t36 14.5q22 0 37 -14.5t15 -36.5zM60 60v324q0 25 21 42.5t50 17.5h359q25 0 42.5 -20.5t17.5 -48.5 t-17.5 -48t-42.5 -20h-288v-171h357q25 0 42.5 -20t17.5 -48t-17.5 -48t-42.5 -20h-428q-29 0 -50 17.5t-21 42.5zM60 563v127q0 25 21 42.5t50 17.5h428q25 0 42.5 -20.5t17.5 -48.5t-17.5 -48t-42.5 -20h-357v-50q0 -25 -21 -42.5t-50 -17.5t-50 17.5t-21 42.5z" glyph-name="Edieresis" horiz-adv-x="651" unicode="Ë"/><glyph d="M195 787l-126 33q-31 8 -28 42q2 30 25 39q12 5 25 -1l117 -59q13 -7 14.5 -21.5t-7 -25.5t-20.5 -7zM60 52v646q0 25 21 42.5t50 17.5t50 -17.5t21 -42.5v-646q0 -25 -21 -42.5t-50 -17.5t-50 17.5t-21 42.5z" glyph-name="Igrave" horiz-adv-x="262" unicode="Ì"/><glyph d="M193 820l-126 -33q-12 -4 -20.5 7t-7 25.5t14.5 21.5l117 59q28 12 44 -16q15 -29 -2 -51q-7 -9 -20 -13zM60 52v646q0 25 21 42.5t50 17.5t50 -17.5t21 -42.5v-646q0 -25 -21 -42.5t-50 -17.5t-50 17.5t-21 42.5z" glyph-name="Iacute" horiz-adv-x="262" unicode="Í"/><glyph d="M60 52v646q0 25 21 42.5t50 17.5t50 -17.5t21 -42.5v-646q0 -25 -21 -42.5t-50 -17.5t-50 17.5t-21 42.5zM131 851l-60 -56q-8 -8 -20.5 -6t-22.5 12q-20 25 0 43l78 75q9 9 25 9q15 0 25 -9l77 -75q10 -8 9.5 -20t-9.5 -23q-9 -10 -21.5 -12t-20.5 6z" glyph-name="Icircumflex" horiz-adv-x="262" unicode="Î"/><glyph d="M89 838q0 -20 -14.5 -35t-35.5 -15q-22 0 -37 15t-15 35q0 22 15 37t37 15q21 0 35.5 -15t14.5 -37zM275 838q0 -20 -15 -35t-37 -15q-21 0 -35.5 15t-14.5 35q0 22 14.5 37t35.5 15q22 0 37 -15t15 -37zM60 52v646q0 25 21 42.5t50 17.5t50 -17.5t21 -42.5v-646 q0 -25 -21 -42.5t-50 -17.5t-50 17.5t-21 42.5z" glyph-name="Idieresis" horiz-adv-x="262" unicode="Ï"/><glyph d="M79 187q0 25 21 42.5t50 17.5t50 -17.5t21 -42.5v-51h119q98 0 168 70t70 169q0 98 -70 168t-168 70h-119v-50q0 -25 -21 -42.5t-50 -17.5t-50 17.5t-21 42.5v127q0 25 21 42.5t50 17.5h190q164 0 274.5 -106.5t110.5 -268.5t-110.5 -268.5t-274.5 -106.5h-190 q-29 0 -50 17.5t-21 42.5v127zM328 307h-258q-24 0 -41 20t-17 48t17 48t41 20h258q24 0 41 -20t17 -48t-17 -48t-41 -20z" glyph-name="Eth" horiz-adv-x="760" unicode="Ð"/><glyph d="M60 52v641q0 27 24.5 46t59.5 19q57 0 78 -43l283 -466h3l-1 449q0 25 21 42.5t50 17.5t50 -17.5t21 -42.5v-641q0 -27 -24.5 -46t-59.5 -19q-58 0 -78 40l-283 468h-3l1 -448q0 -25 -21 -42.5t-50 -17.5t-50 17.5t-21 42.5zM241 786q0 30 21.5 52t51.5 22q44 0 63 -39 q6 -10 18 -10q19 0 19 19q0 9 8 15.5t19 6.5t19 -6.5t8 -15.5q0 -32 -21.5 -53t-51.5 -21q-43 0 -65 38q-6 11 -16 11q-19 0 -19 -19q0 -9 -8 -15.5t-19 -6.5t-19 6.5t-8 15.5z" glyph-name="Ntilde" horiz-adv-x="709" unicode="Ñ"/><glyph d="M693 375q0 106 -75 180.5t-181 74.5t-180.5 -74.5t-74.5 -180.5t74.5 -181t180.5 -75q107 0 181.5 74.5t74.5 181.5zM839 375q0 -166 -117.5 -279t-284.5 -113q-168 0 -285 113t-117 279t117 279t285 113q167 0 284.5 -113t117.5 -279zM511 807l-126 33q-31 8 -28 42 q2 30 25 39q12 5 25 -1l117 -59q13 -7 14.5 -21.5t-7 -25.5t-20.5 -7z" glyph-name="Ograve" horiz-adv-x="874" unicode="Ò"/><glyph d="M693 375q0 106 -75 180.5t-181 74.5t-180.5 -74.5t-74.5 -180.5t74.5 -181t180.5 -75q107 0 181.5 74.5t74.5 181.5zM839 375q0 -166 -117.5 -279t-284.5 -113q-168 0 -285 113t-117 279t117 279t285 113q167 0 284.5 -113t117.5 -279zM499 840l-126 -33q-12 -4 -20.5 7 t-7 25.5t14.5 21.5l117 59q28 12 44 -16q15 -29 -2 -51q-7 -9 -20 -13z" glyph-name="Oacute" horiz-adv-x="874" unicode="Ó"/><glyph d="M693 375q0 106 -75 180.5t-181 74.5t-180.5 -74.5t-74.5 -180.5t74.5 -181t180.5 -75q107 0 181.5 74.5t74.5 181.5zM839 375q0 -166 -117.5 -279t-284.5 -113q-168 0 -285 113t-117 279t117 279t285 113q167 0 284.5 -113t117.5 -279zM437 851l-60 -56q-8 -8 -20.5 -6 t-22.5 12q-20 25 0 43l78 75q9 9 25 9q15 0 25 -9l77 -75q10 -8 9.5 -20t-9.5 -23q-9 -10 -21.5 -12t-20.5 6z" glyph-name="Ocircumflex" horiz-adv-x="874" unicode="Ô"/><glyph d="M693 375q0 106 -75 180.5t-181 74.5t-180.5 -74.5t-74.5 -180.5t74.5 -181t180.5 -75q107 0 181.5 74.5t74.5 181.5zM839 375q0 -166 -117.5 -279t-284.5 -113q-168 0 -285 113t-117 279t117 279t285 113q167 0 284.5 -113t117.5 -279zM323 816q0 30 21.5 52t51.5 22 q44 0 63 -39q6 -10 18 -10q19 0 19 19q0 9 8 15.5t19 6.5t19 -6.5t8 -15.5q0 -32 -21.5 -53t-51.5 -21q-43 0 -65 38q-6 11 -16 11q-19 0 -19 -19q0 -9 -8 -15.5t-19 -6.5t-19 6.5t-8 15.5z" glyph-name="Otilde" horiz-adv-x="874" unicode="Õ"/><glyph d="M389 839q0 -21 -15 -36t-36 -15q-22 0 -37 15t-15 36t15 36t37 15q21 0 36 -15t15 -36zM587 839q0 -21 -15 -36t-37 -15q-20 0 -35 15t-15 36t15 36t35 15q22 0 37 -15t15 -36zM693 375q0 106 -75 180.5t-181 74.5t-180.5 -74.5t-74.5 -180.5t74.5 -181t180.5 -75 q107 0 181.5 74.5t74.5 181.5zM839 375q0 -166 -117.5 -279t-284.5 -113q-168 0 -285 113t-117 279t117 279t285 113q167 0 284.5 -113t117.5 -279z" glyph-name="Odieresis" horiz-adv-x="874" unicode="Ö"/><glyph d="M50 8q-15 15 -17 34.5t10 31.5l216 216l-215 215q-12 12 -10 31.5t16 34.5q15 14 34.5 16t31.5 -10l215 -215l214 214q13 12 32 10.5t34 -16.5t17 -34.5t-11 -31.5l-214 -214l214 -214q13 -13 11 -32t-17 -34t-34 -17t-32 10l-214 215l-216 -216q-12 -12 -31.5 -10 t-33.5 16z" glyph-name="multiply" horiz-adv-x="660" unicode="×"/><glyph d="M194 311q8 -25 -6.5 -47t-44.5 -32q-28 -8 -52.5 3t-33.5 35q-17 48 -17 105q0 166 117 279t285 113q60 0 105 -16q24 -8 35 -31t3 -50q-10 -28 -32 -41.5t-47 -6.5q-34 8 -64 8q-106 0 -181 -74.5t-75 -180.5q0 -30 8 -64zM815 676l-674 -674q-13 -12 -32.5 -10.5 t-33.5 16.5q-15 14 -16.5 33.5t10.5 32.5l674 674q13 12 32.5 10.5t33.5 -16.5q15 -14 16.5 -33.5t-10.5 -32.5zM690 439q-8 25 6.5 47t44.5 32q28 8 52.5 -3t33.5 -35q17 -48 17 -105q0 -166 -117 -279t-285 -113q-60 0 -105 16q-24 8 -35 31t-3 50q10 28 32 41.5t47 6.5 q34 -8 64 -8q106 0 181 74.5t75 180.5q0 30 -8 64z" glyph-name="Oslash" horiz-adv-x="884" unicode="Ø"/><glyph d="M60 698q0 25 21 42.5t50 17.5t50 -17.5t21 -42.5v-437q0 -66 44.5 -105.5t112.5 -39.5t112 39.5t44 105.5v437q0 25 21 42.5t50 17.5t50 -17.5t21 -42.5v-437q0 -128 -83.5 -203t-214.5 -75q-132 0 -215.5 75t-83.5 203v437zM434 787l-126 33q-31 8 -28 42q2 30 25 39 q12 5 25 -1l117 -59q13 -7 14.5 -21.5t-7 -25.5t-20.5 -7z" glyph-name="Ugrave" horiz-adv-x="717" unicode="Ù"/><glyph d="M60 698q0 25 21 42.5t50 17.5t50 -17.5t21 -42.5v-437q0 -66 44.5 -105.5t112.5 -39.5t112 39.5t44 105.5v437q0 25 21 42.5t50 17.5t50 -17.5t21 -42.5v-437q0 -128 -83.5 -203t-214.5 -75q-132 0 -215.5 75t-83.5 203v437zM422 820l-126 -33q-12 -4 -20.5 7t-7 25.5 t14.5 21.5l117 59q28 12 44 -16q15 -29 -2 -51q-7 -9 -20 -13z" glyph-name="Uacute" horiz-adv-x="717" unicode="Ú"/><glyph d="M60 698q0 25 21 42.5t50 17.5t50 -17.5t21 -42.5v-437q0 -66 44.5 -105.5t112.5 -39.5t112 39.5t44 105.5v437q0 25 21 42.5t50 17.5t50 -17.5t21 -42.5v-437q0 -128 -83.5 -203t-214.5 -75q-132 0 -215.5 75t-83.5 203v437zM359 851l-60 -56q-8 -8 -20.5 -6t-22.5 12 q-20 25 0 43l78 75q9 9 25 9q15 0 25 -9l77 -75q10 -8 9.5 -20t-9.5 -23q-9 -10 -21.5 -12t-20.5 6z" glyph-name="Ucircumflex" horiz-adv-x="717" unicode="Û"/><glyph d="M309 839q0 -21 -15 -36t-35 -15q-22 0 -37 15t-15 36q0 22 15 36.5t37 14.5q21 0 35.5 -15t14.5 -36zM508 839q0 -21 -15 -36t-37 -15q-21 0 -36 15t-15 36q0 22 15 36.5t36 14.5q22 0 37 -14.5t15 -36.5zM60 698q0 25 21 42.5t50 17.5t50 -17.5t21 -42.5v-437 q0 -66 44.5 -105.5t112.5 -39.5t112 39.5t44 105.5v437q0 25 21 42.5t50 17.5t50 -17.5t21 -42.5v-437q0 -128 -83.5 -203t-214.5 -75q-132 0 -215.5 75t-83.5 203v437z" glyph-name="Udieresis" horiz-adv-x="717" unicode="Ü"/><glyph d="M405 820l-126 -33q-12 -4 -20.5 7t-7 25.5t14.5 21.5l117 59q28 12 44 -16q15 -29 -2 -51q-7 -9 -20 -13zM340 -8q-29 0 -50 17.5t-21 42.5v323q0 16 12 31l259 332q16 20 43.5 20.5t49.5 -17.5q23 -18 29 -44.5t-10 -46.5l-241 -309v-289q0 -25 -21 -42.5t-50 -17.5z M140 738l132 -168q16 -20 10 -46.5t-29 -44.5q-22 -18 -49.5 -17t-43.5 20l-132 168q-16 20 -10 46.5t29 44.5q22 18 49.5 17.5t43.5 -20.5z" glyph-name="Yacute" horiz-adv-x="680" unicode="Ý"/><glyph d="M202 52q0 -25 -21 -42.5t-50 -17.5t-50 17.5t-21 42.5v646q0 25 21 42.5t50 17.5t50 -17.5t21 -42.5v-646zM319 239q-24 0 -41 20t-17 48t17 48t41 20h86q31 0 52 21.5t21 50.5q0 31 -21 52t-52 21h-86q-24 0 -41 19.5t-17 47.5q0 29 17 49t41 20h86q86 0 147.5 -61 t61.5 -148q0 -86 -61.5 -147t-147.5 -61h-86z" glyph-name="Thorn" horiz-adv-x="650" unicode="Þ"/><glyph d="M355 560q-2 30 -24 50t-53 20q-29 0 -51 -19.5t-25 -47.5v-682q0 -25 -21 -42.5t-50 -17.5t-50 17.5t-21 42.5v682q0 84 65 144t153 60q95 0 159.5 -57t64.5 -147q-3 -39 -26 -56t-55 -12q-29 4 -46.5 23t-19.5 42zM322 322h-17q-24 0 -41 20t-17 48t17 48t41 20h17 q108 0 178 -61t70 -168t-70 -168t-178 -61h-17q-24 0 -41 20t-17 48t17 48t41 20h17q43 0 72.5 26t29.5 67t-29.5 67t-72.5 26z" glyph-name="germandbls" horiz-adv-x="610" unicode="ß"/><glyph d="M422 652l-126 33q-31 8 -28 42q2 30 25 39q12 5 25 -1l117 -59q13 -7 14.5 -21.5t-7 -25.5t-20.5 -7zM455 8q-43 -25 -124 -25q-122 0 -206.5 88t-84.5 219q0 130 84.5 218t206.5 88q119 0 194 -101h2v32q0 25 20 42.5t49 17.5t49.5 -17.5t20.5 -42.5v-475 q0 -25 -20.5 -42.5t-49.5 -17.5t-49 17.5t-20 42.5v238q0 70 -49.5 120t-120.5 50q-70 0 -120 -50t-50 -120q0 -71 50 -121t120 -50q25 0 47 6q18 8 37 -3.5t30 -33.5t6.5 -46t-22.5 -34z" glyph-name="agrave" horiz-adv-x="726" unicode="à"/><glyph d="M410 685l-126 -33q-12 -4 -20.5 7t-7 25.5t14.5 21.5l117 59q28 12 44 -16q15 -29 -2 -51q-7 -9 -20 -13zM455 8q-43 -25 -124 -25q-122 0 -206.5 88t-84.5 219q0 130 84.5 218t206.5 88q119 0 194 -101h2v32q0 25 20 42.5t49 17.5t49.5 -17.5t20.5 -42.5v-475 q0 -25 -20.5 -42.5t-49.5 -17.5t-49 17.5t-20 42.5v238q0 70 -49.5 120t-120.5 50q-70 0 -120 -50t-50 -120q0 -71 50 -121t120 -50q25 0 47 6q18 8 37 -3.5t30 -33.5t6.5 -46t-22.5 -34z" glyph-name="aacute" horiz-adv-x="726" unicode="á"/><glyph d="M340 719l-60 -56q-8 -8 -20.5 -6t-22.5 12q-20 25 0 43l78 75q9 9 25 9q14 0 25 -9l77 -75q10 -8 9.5 -20t-9.5 -23q-9 -10 -21.5 -12t-20.5 6zM455 8q-43 -25 -124 -25q-122 0 -206.5 88t-84.5 219q0 130 84.5 218t206.5 88q119 0 194 -101h2v32q0 25 20 42.5t49 17.5 t49.5 -17.5t20.5 -42.5v-475q0 -25 -20.5 -42.5t-49.5 -17.5t-49 17.5t-20 42.5v238q0 70 -49.5 120t-120.5 50q-70 0 -120 -50t-50 -120q0 -71 50 -121t120 -50q25 0 47 6q18 8 37 -3.5t30 -33.5t6.5 -46t-22.5 -34z" glyph-name="acircumflex" horiz-adv-x="726" unicode="â"/><glyph d="M231 693q0 30 21.5 52t51.5 22q44 0 63 -39q6 -10 18 -10q19 0 19 19q0 9 8 15.5t19 6.5t19 -6.5t8 -15.5q0 -32 -21.5 -53t-51.5 -21q-43 0 -65 38q-6 11 -16 11q-19 0 -19 -19q0 -9 -8 -15.5t-19 -6.5t-19 6.5t-8 15.5zM455 8q-43 -25 -124 -25q-122 0 -206.5 88 t-84.5 219q0 130 84.5 218t206.5 88q119 0 194 -101h2v32q0 25 20 42.5t49 17.5t49.5 -17.5t20.5 -42.5v-475q0 -25 -20.5 -42.5t-49.5 -17.5t-49 17.5t-20 42.5v238q0 70 -49.5 120t-120.5 50q-70 0 -120 -50t-50 -120q0 -71 50 -121t120 -50q25 0 47 6q18 8 37 -3.5 t30 -33.5t6.5 -46t-22.5 -34z" glyph-name="atilde" horiz-adv-x="726" unicode="ã"/><glyph d="M297 716q0 -21 -14.5 -36t-35.5 -15q-22 0 -37 15t-15 36t15 36t37 15q21 0 35.5 -15t14.5 -36zM496 716q0 -21 -15 -36t-37 -15q-21 0 -35.5 15t-14.5 36t14.5 36t35.5 15q22 0 37 -15t15 -36zM455 8q-43 -25 -124 -25q-122 0 -206.5 88t-84.5 219q0 130 84.5 218 t206.5 88q119 0 194 -101h2v32q0 25 20 42.5t49 17.5t49.5 -17.5t20.5 -42.5v-475q0 -25 -20.5 -42.5t-49.5 -17.5t-49 17.5t-20 42.5v238q0 70 -49.5 120t-120.5 50q-70 0 -120 -50t-50 -120q0 -71 50 -121t120 -50q25 0 47 6q18 8 37 -3.5t30 -33.5t6.5 -46t-22.5 -34z " glyph-name="adieresis" horiz-adv-x="726" unicode="ä"/><glyph d="M374 727q0 11 -8 18.5t-18 7.5q-12 0 -20 -7.5t-8 -18.5q0 -12 8 -20t20 -8q11 0 18.5 8t7.5 20zM421 727q0 -31 -22 -53t-51 -22q-31 0 -53 22t-22 53q0 30 22 51.5t53 21.5q29 0 51 -21.5t22 -51.5zM455 8q-43 -25 -124 -25q-122 0 -206.5 88t-84.5 219q0 130 84.5 218 t206.5 88q119 0 194 -101h2v32q0 25 20 42.5t49 17.5t49.5 -17.5t20.5 -42.5v-475q0 -25 -20.5 -42.5t-49.5 -17.5t-49 17.5t-20 42.5v238q0 70 -49.5 120t-120.5 50q-70 0 -120 -50t-50 -120q0 -71 50 -121t120 -50q25 0 47 6q18 8 37 -3.5t30 -33.5t6.5 -46t-22.5 -34z " glyph-name="aring" horiz-adv-x="726" unicode="å"/><glyph d="M753 287q0 25 15.5 43t37.5 18h222q-18 53 -61 84t-98 31q-69 0 -119 -51.5t-50 -121.5q0 -72 51 -126t123 -54q39 0 80 14t67 37q15 17 39.5 16.5t43.5 -18.5q19 -16 23 -41t-10 -41q-45 -45 -110 -69.5t-133 -24.5q-126 0 -208 100v-31q0 -25 -20.5 -42.5t-49.5 -17.5 t-49 17.5t-20 42.5v238q0 70 -49.5 120t-120.5 50q-70 0 -120 -50t-50 -120q0 -71 50 -121t120 -50q25 0 47 6q18 8 37 -3.5t30 -33.5t6.5 -46t-22.5 -34q-43 -25 -124 -25q-122 0 -206.5 88t-84.5 219q0 130 84.5 218t206.5 88q119 0 194 -101h2v32q0 25 20 42.5t49 17.5 t49.5 -17.5t20.5 -42.5v-32h2q82 101 201 101q129 0 220 -89t91 -217q0 -25 -21 -45t-50 -20h-303q-22 0 -37.5 18.5t-15.5 43.5z" glyph-name="ae" horiz-adv-x="1220" unicode="æ"/><glyph d="M466 160q17 17 43.5 14.5t46.5 -22.5q21 -21 22.5 -47.5t-19.5 -45.5q-87 -76 -202 -76q-13 0 -20 1l-3 -22q9 5 30 5q39 0 61.5 -23.5t22.5 -60.5t-26.5 -62t-64.5 -25q-31 0 -54 17t-31 45q-3 9 3 17t15 10t16.5 -2t9.5 -12q10 -30 41 -30q17 0 29.5 12t12.5 30 q0 17 -12.5 29.5t-29.5 12.5q-12 0 -25 -9q-14 -10 -26 -6q-10 1 -17 9.5t-5 16.5l9 53q-110 20 -181.5 104t-71.5 197q0 130 92 218t225 88q119 0 202 -75q21 -20 20 -45.5t-23 -47.5q-20 -20 -46.5 -22.5t-43.5 14.5q-46 40 -109 40q-70 0 -120 -50t-50 -120t50 -120 t120 -50q63 0 109 40z" glyph-name="ccedilla" horiz-adv-x="613" unicode="ç"/><glyph d="M428 652l-126 33q-31 8 -28 42q2 30 25 39q12 5 25 -1l117 -59q13 -7 14.5 -21.5t-7 -25.5t-20.5 -7zM240 287q0 25 15.5 43t37.5 18h222q-18 53 -61 84t-98 31q-69 0 -119 -51.5t-50 -121.5q0 -72 51 -126t123 -54q39 0 80 14t67 37q15 17 39.5 16.5t43.5 -18.5 q19 -16 23 -41t-10 -41q-45 -45 -110 -69.5t-133 -24.5q-136 0 -228.5 88t-92.5 219q0 130 92 218t224 88q129 0 220 -89t91 -217q0 -25 -21 -45t-50 -20h-303q-22 0 -37.5 18.5t-15.5 43.5z" glyph-name="egrave" horiz-adv-x="707" unicode="è"/><glyph d="M416 685l-126 -33q-12 -4 -20.5 7t-7 25.5t14.5 21.5l117 59q28 12 44 -16q15 -29 -2 -51q-7 -9 -20 -13zM240 287q0 25 15.5 43t37.5 18h222q-18 53 -61 84t-98 31q-69 0 -119 -51.5t-50 -121.5q0 -72 51 -126t123 -54q39 0 80 14t67 37q15 17 39.5 16.5t43.5 -18.5 q19 -16 23 -41t-10 -41q-45 -45 -110 -69.5t-133 -24.5q-136 0 -228.5 88t-92.5 219q0 130 92 218t224 88q129 0 220 -89t91 -217q0 -25 -21 -45t-50 -20h-303q-22 0 -37.5 18.5t-15.5 43.5z" glyph-name="eacute" horiz-adv-x="707" unicode="é"/><glyph d="M401 668l-43 62h-4l-43 -62q-14 -21 -39 -7q-11 7 -15.5 18t0.5 19l60 77q15 19 39 19t39 -19l60 -77q5 -8 0.5 -19t-15.5 -18q-25 -14 -39 7zM240 287q0 25 15.5 43t37.5 18h222q-18 53 -61 84t-98 31q-69 0 -119 -51.5t-50 -121.5q0 -72 51 -126t123 -54q39 0 80 14 t67 37q15 17 39.5 16.5t43.5 -18.5q19 -16 23 -41t-10 -41q-45 -45 -110 -69.5t-133 -24.5q-136 0 -228.5 88t-92.5 219q0 130 92 218t224 88q129 0 220 -89t91 -217q0 -25 -21 -45t-50 -20h-303q-22 0 -37.5 18.5t-15.5 43.5z" glyph-name="ecircumflex" horiz-adv-x="707" unicode="ê"/><glyph d="M308 716q0 -21 -15 -36t-35 -15q-22 0 -37 15t-15 36t15 36t37 15q20 0 35 -15t15 -36zM507 716q0 -21 -15 -36t-37 -15q-21 0 -36 15t-15 36t15 36t36 15q22 0 37 -15t15 -36zM240 287q0 25 15.5 43t37.5 18h222q-18 53 -61 84t-98 31q-69 0 -119 -51.5t-50 -121.5 q0 -72 51 -126t123 -54q39 0 80 14t67 37q15 17 39.5 16.5t43.5 -18.5q19 -16 23 -41t-10 -41q-45 -45 -110 -69.5t-133 -24.5q-136 0 -228.5 88t-92.5 219q0 130 92 218t224 88q129 0 220 -89t91 -217q0 -25 -21 -45t-50 -20h-303q-22 0 -37.5 18.5t-15.5 43.5z" glyph-name="edieresis" horiz-adv-x="707" unicode="ë"/><glyph d="M60 52v475q0 25 20.5 42.5t49.5 17.5t49.5 -17.5t20.5 -42.5v-475q0 -25 -20.5 -42.5t-49.5 -17.5t-49.5 17.5t-20.5 42.5zM194 652l-126 33q-31 8 -28 42q2 30 25 39q12 5 25 -1l117 -59q13 -7 14.5 -21.5t-7 -25.5t-20.5 -7z" glyph-name="igrave" horiz-adv-x="260" unicode="ì"/><glyph d="M60 52v475q0 25 20.5 42.5t49.5 17.5t49.5 -17.5t20.5 -42.5v-475q0 -25 -20.5 -42.5t-49.5 -17.5t-49.5 17.5t-20.5 42.5zM193 685l-126 -33q-12 -4 -20.5 7t-7 25.5t14.5 21.5l117 59q28 12 44 -16q15 -29 -2 -51q-7 -9 -20 -13z" glyph-name="iacute" horiz-adv-x="260" unicode="í"/><glyph d="M60 52v475q0 25 20.5 42.5t49.5 17.5t49.5 -17.5t20.5 -42.5v-475q0 -25 -20.5 -42.5t-49.5 -17.5t-49.5 17.5t-20.5 42.5zM130 719l-60 -56q-8 -8 -20.5 -6t-22.5 12q-20 25 0 43l78 75q9 9 25 9q14 0 25 -9l77 -75q10 -8 9.5 -20t-9.5 -23q-9 -10 -21.5 -12t-20.5 6z " glyph-name="icircumflex" horiz-adv-x="260" unicode="î"/><glyph d="M86 716q0 -21 -15 -36t-35 -15q-22 0 -37 15t-15 36t15 36t37 15q20 0 35 -15t15 -36zM273 716q0 -21 -15 -36t-36 -15t-36 15t-15 36t15 36t36 15t36 -15t15 -36zM60 52v475q0 25 20.5 42.5t49.5 17.5t49.5 -17.5t20.5 -42.5v-475q0 -25 -20.5 -42.5t-49.5 -17.5 t-49.5 17.5t-20.5 42.5z" glyph-name="idieresis" horiz-adv-x="260" unicode="ï"/><glyph d="M105 597q-3 10 1.5 19.5t14.5 12.5l54 15q-17 17 -15 44t23 48q20 20 47 22t45 -15l54 -55l76 22q10 2 19 -3.5t12 -15.5t-2 -19t-15 -12l-48 -14l180 -180q85 -85 85 -197q0 -115 -88 -200.5t-210 -85.5t-210 85.5t-88 200.5q0 70 36 133.5t98 103.5q19 12 43.5 4 t40.5 -32t13.5 -49.5t-21.5 -38.5q-29 -21 -46 -53.5t-17 -67.5q0 -59 45 -105t106 -46t106 46t45 105q0 58 -43 104l-229 230l-81 -23q-11 -3 -20 2t-11 15z" glyph-name="eth" horiz-adv-x="676" unicode="ð"/><glyph d="M237 693q0 30 21.5 52t51.5 22q44 0 63 -39q6 -10 18 -10q19 0 19 19q0 9 8 15.5t19 6.5t19 -6.5t8 -15.5q0 -32 -21.5 -53t-51.5 -21q-43 0 -65 38q-6 11 -16 11q-19 0 -19 -19q0 -9 -8 -15.5t-19 -6.5t-19 6.5t-8 15.5zM200 527v-475q0 -25 -20.5 -42.5t-49.5 -17.5 t-49.5 17.5t-20.5 42.5v475q0 25 20.5 42.5t49.5 17.5t49.5 -17.5t20.5 -42.5zM455 52v280q0 61 -33.5 98t-93.5 30l-19 -2q-20 -2 -37 13t-22 39q-5 25 5 44.5t30 26.5q36 15 86 15q101 0 162.5 -68t61.5 -178v-298q0 -25 -20.5 -42.5t-49.5 -17.5t-49.5 17.5t-20.5 42.5z " glyph-name="ntilde" unicode="ñ"/><glyph d="M527 290q0 70 -50 120t-121 50q-70 0 -119.5 -50t-49.5 -120q0 -71 49.5 -121t119.5 -50q71 0 121 50t50 121zM673 290q0 -131 -92 -219t-225 -88q-132 0 -224 88t-92 219q0 130 92 218t224 88q133 0 225 -88t92 -218zM432 652l-126 33q-31 8 -28 42q2 30 25 39 q12 5 25 -1l117 -59q13 -7 14.5 -21.5t-7 -25.5t-20.5 -7z" glyph-name="ograve" horiz-adv-x="713" unicode="ò"/><glyph d="M527 290q0 70 -50 120t-121 50q-70 0 -119.5 -50t-49.5 -120q0 -71 49.5 -121t119.5 -50q71 0 121 50t50 121zM673 290q0 -131 -92 -219t-225 -88q-132 0 -224 88t-92 219q0 130 92 218t224 88q133 0 225 -88t92 -218zM420 685l-126 -33q-12 -4 -20.5 7t-7 25.5 t14.5 21.5l117 59q28 12 44 -16q15 -29 -2 -51q-7 -9 -20 -13z" glyph-name="oacute" horiz-adv-x="713" unicode="ó"/><glyph d="M527 290q0 70 -50 120t-121 50q-70 0 -119.5 -50t-49.5 -120q0 -71 49.5 -121t119.5 -50q71 0 121 50t50 121zM673 290q0 -131 -92 -219t-225 -88q-132 0 -224 88t-92 219q0 130 92 218t224 88q133 0 225 -88t92 -218zM356 719l-60 -56q-8 -8 -20.5 -6t-22.5 12 q-20 25 0 43l78 75q9 9 25 9q14 0 25 -9l77 -75q10 -8 9.5 -20t-9.5 -23q-9 -10 -21.5 -12t-20.5 6z" glyph-name="ocircumflex" horiz-adv-x="713" unicode="ô"/><glyph d="M527 290q0 70 -50 120t-121 50q-70 0 -119.5 -50t-49.5 -120q0 -71 49.5 -121t119.5 -50q71 0 121 50t50 121zM673 290q0 -131 -92 -219t-225 -88q-132 0 -224 88t-92 219q0 130 92 218t224 88q133 0 225 -88t92 -218zM243 693q0 30 21.5 52t51.5 22q44 0 63 -39 q6 -10 18 -10q19 0 19 19q0 9 8 15.5t19 6.5t19 -6.5t8 -15.5q0 -32 -21.5 -53t-51.5 -21q-43 0 -65 38q-6 11 -16 11q-19 0 -19 -19q0 -9 -8 -15.5t-19 -6.5t-19 6.5t-8 15.5z" glyph-name="otilde" horiz-adv-x="713" unicode="õ"/><glyph d="M308 716q0 -21 -15 -36t-35 -15q-22 0 -37 15t-15 36t15 36t37 15q20 0 35 -15t15 -36zM507 716q0 -21 -15 -36t-37 -15q-21 0 -36 15t-15 36t15 36t36 15q22 0 37 -15t15 -36zM527 290q0 70 -50 120t-121 50q-70 0 -119.5 -50t-49.5 -120q0 -71 49.5 -121t119.5 -50 q71 0 121 50t50 121zM673 290q0 -131 -92 -219t-225 -88q-132 0 -224 88t-92 219q0 130 92 218t224 88q133 0 225 -88t92 -218z" glyph-name="odieresis" horiz-adv-x="713" unicode="ö"/><glyph d="M408 60q0 -29 -20 -48.5t-49 -19.5q-28 0 -47.5 20t-19.5 48t19.5 48t47.5 20q29 0 49 -19.5t20 -48.5zM272 518q0 29 19.5 49t47.5 20q29 0 49 -20t20 -49q0 -28 -20 -47.5t-49 -19.5q-28 0 -47.5 19.5t-19.5 47.5zM42 289q0 21 12.5 36t29.5 15h512q17 0 29.5 -15 t12.5 -36t-12.5 -36t-29.5 -15h-512q-17 0 -29.5 15t-12.5 36z" glyph-name="divide" horiz-adv-x="679" unicode="÷"/><glyph d="M648 505l-503 -503q-13 -12 -32.5 -10.5t-33.5 16.5q-15 14 -16.5 33.5t10.5 32.5l503 503q13 12 32.5 10.5t33.5 -16.5q15 -14 16.5 -33.5t-10.5 -32.5zM128 211q-34 -4 -56.5 10t-26.5 43q-1 9 -1 26q0 130 92 218t224 88q17 0 26 -1q29 -3 43 -24t10 -52 q-5 -28 -26 -45t-53 -14q-70 0 -119.5 -50t-49.5 -120q2 -32 -15.5 -53t-47.5 -26zM593 368q34 4 56.5 -10t26.5 -43q1 -9 1 -26q0 -130 -92 -218t-224 -88q-17 0 -26 1q-29 3 -43 24t-10 52q5 28 26 45t53 14q70 0 119.5 50t49.5 120q-2 32 15.5 53t47.5 26z" glyph-name="oslash" horiz-adv-x="721" unicode="ø"/><glyph d="M398 652l-126 33q-31 8 -28 42q2 30 25 39q12 5 25 -1l117 -59q13 -7 14.5 -21.5t-7 -25.5t-20.5 -7zM455 52v475q0 25 20.5 42.5t49.5 17.5t49.5 -17.5t20.5 -42.5v-475q0 -25 -20.5 -42.5t-49.5 -17.5t-49.5 17.5t-20.5 42.5zM200 527v-280q0 -61 33.5 -98t93.5 -30 l19 2q20 2 37 -13t22 -39q5 -25 -5 -44.5t-30 -26.5q-36 -15 -86 -15q-101 0 -162.5 68t-61.5 178v298q0 25 20.5 42.5t49.5 17.5t49.5 -17.5t20.5 -42.5z" glyph-name="ugrave" unicode="ù"/><glyph d="M386 685l-126 -33q-12 -4 -20.5 7t-7 25.5t14.5 21.5l117 59q28 12 44 -16q15 -29 -2 -51q-7 -9 -20 -13zM455 52v475q0 25 20.5 42.5t49.5 17.5t49.5 -17.5t20.5 -42.5v-475q0 -25 -20.5 -42.5t-49.5 -17.5t-49.5 17.5t-20.5 42.5zM200 527v-280q0 -61 33.5 -98 t93.5 -30l19 2q20 2 37 -13t22 -39q5 -25 -5 -44.5t-30 -26.5q-36 -15 -86 -15q-101 0 -162.5 68t-61.5 178v298q0 25 20.5 42.5t49.5 17.5t49.5 -17.5t20.5 -42.5z" glyph-name="uacute" unicode="ú"/><glyph d="M326 719l-60 -56q-8 -8 -20.5 -6t-22.5 12q-20 25 0 43l78 75q9 9 25 9q14 0 25 -9l77 -75q10 -8 9.5 -20t-9.5 -23q-9 -10 -21.5 -12t-20.5 6zM455 52v475q0 25 20.5 42.5t49.5 17.5t49.5 -17.5t20.5 -42.5v-475q0 -25 -20.5 -42.5t-49.5 -17.5t-49.5 17.5t-20.5 42.5z M200 527v-280q0 -61 33.5 -98t93.5 -30l19 2q20 2 37 -13t22 -39q5 -25 -5 -44.5t-30 -26.5q-36 -15 -86 -15q-101 0 -162.5 68t-61.5 178v298q0 25 20.5 42.5t49.5 17.5t49.5 -17.5t20.5 -42.5z" glyph-name="ucircumflex" unicode="û"/><glyph d="M279 716q0 -21 -15 -36t-35 -15q-22 0 -37 15t-15 36t15 36t37 15q20 0 35 -15t15 -36zM478 716q0 -21 -15 -36t-37 -15q-21 0 -36 15t-15 36t15 36t36 15q22 0 37 -15t15 -36zM455 52v475q0 25 20.5 42.5t49.5 17.5t49.5 -17.5t20.5 -42.5v-475q0 -25 -20.5 -42.5 t-49.5 -17.5t-49.5 17.5t-20.5 42.5zM200 527v-280q0 -61 33.5 -98t93.5 -30l19 2q20 2 37 -13t22 -39q5 -25 -5 -44.5t-30 -26.5q-36 -15 -86 -15q-101 0 -162.5 68t-61.5 178v298q0 25 20.5 42.5t49.5 17.5t49.5 -17.5t20.5 -42.5z" glyph-name="udieresis" unicode="ü"/><glyph d="M369 685l-126 -33q-12 -4 -20.5 7t-7 25.5t14.5 21.5l117 59q28 12 44 -16q15 -29 -2 -51q-7 -9 -20 -13zM204 -172q-26 12 -37.5 36.5t-0.5 47.5l300 642q11 23 37 30.5t52 -5.5q26 -12 37.5 -36.5t0.5 -47.5l-300 -642q-11 -23 -37 -30.5t-52 5.5zM231 202 q-26 -13 -52 -5.5t-37 30.5l-125 268q-11 23 0.5 47.5t37.5 36.5q26 13 52 5.5t37 -30.5l125 -268q11 -23 -0.5 -47.5t-37.5 -36.5z" glyph-name="yacute" horiz-adv-x="610" unicode="ý"/><glyph d="M271 571q43 25 124 25q122 0 207 -88t85 -219q0 -130 -85 -218t-207 -88q-119 0 -194 101h-2v-203q0 -25 -20 -42.5t-49 -17.5t-49.5 17.5t-20.5 42.5v817q0 25 20.5 42.5t49.5 17.5t49 -17.5t20 -42.5v-409q0 -70 49.5 -120t120.5 -50q70 0 120.5 50t50.5 120 q0 71 -50 121t-121 50q-25 0 -47 -6q-18 -8 -37 3.5t-30 33.5t-6.5 46t22.5 34z" glyph-name="thorn" horiz-adv-x="727" unicode="þ"/><glyph d="M457 706q0 -21 -15 -36t-37 -15q-21 0 -36 15t-15 36t15 36t36 15q22 0 37 -15t15 -36zM258 706q0 -21 -15 -36t-35 -15q-22 0 -37 15t-15 36t15 36t37 15q20 0 35 -15t15 -36zM204 -172q-26 12 -37.5 36.5t-0.5 47.5l300 642q11 23 37 30.5t52 -5.5q26 -12 37.5 -36.5 t0.5 -47.5l-300 -642q-11 -23 -37 -30.5t-52 5.5zM231 202q-26 -13 -52 -5.5t-37 30.5l-125 268q-11 23 0.5 47.5t37.5 36.5q26 13 52 5.5t37 -30.5l125 -268q11 -23 -0.5 -47.5t-37.5 -36.5z" glyph-name="ydieresis" horiz-adv-x="610" unicode="ÿ"/><glyph d="M255 841q0 16 9 27.5t23 11.5h139q14 0 23 -11.5t9 -27.5t-9 -27.5t-23 -11.5h-139q-14 0 -23 11.5t-9 27.5zM431 349l-71 199h-8l-194 -521q-10 -22 -36 -30.5t-54 0.5q-27 11 -39.5 35t-4.5 47l246 631q22 48 86 48t86 -48l120 -309q8 -24 -3.5 -47.5t-38.5 -34.5 q-28 -9 -54.5 -0.5t-34.5 30.5zM281 205q0 28 17 48t41 20h222q25 0 44.5 -13.5t24.5 -33.5l58 -147q8 -23 -4.5 -47t-39.5 -35q-28 -9 -54 -0.5t-36 30.5l-48 109h-167q-24 0 -41 20t-17 49z" glyph-name="Amacron" horiz-adv-x="712" unicode="Ā"/><glyph d="M255 711q0 16 9 27.5t23 11.5h139q14 0 23 -11.5t9 -27.5t-9 -27.5t-23 -11.5h-139q-14 0 -23 11.5t-9 27.5zM455 8q-43 -25 -124 -25q-122 0 -206.5 88t-84.5 219q0 130 84.5 218t206.5 88q119 0 194 -101h2v32q0 25 20 42.5t49 17.5t49.5 -17.5t20.5 -42.5v-475 q0 -25 -20.5 -42.5t-49.5 -17.5t-49 17.5t-20 42.5v238q0 70 -49.5 120t-120.5 50q-70 0 -120 -50t-50 -120q0 -71 50 -121t120 -50q25 0 47 6q18 8 37 -3.5t30 -33.5t6.5 -46t-22.5 -34z" glyph-name="amacron" horiz-adv-x="726" unicode="ā"/><glyph d="M431 349l-71 199h-8l-194 -521q-10 -22 -36 -30.5t-54 0.5q-27 11 -39.5 35t-4.5 47l246 631q22 48 86 48t86 -48l120 -309q8 -24 -3.5 -47.5t-38.5 -34.5q-28 -9 -54.5 -0.5t-34.5 30.5zM281 205q0 28 17 48t41 20h222q25 0 44.5 -13.5t24.5 -33.5l58 -147 q8 -23 -4.5 -47t-39.5 -35q-28 -8 -55 0q-7 3 -14 3q-24 0 -40.5 -17t-16.5 -41t17 -41t41 -17q5 0 12.5 2t12.5 2q11 1 19 -7.5t8 -19.5q0 -26 -25.5 -37.5t-55.5 -11.5q-45 0 -76.5 31.5t-31.5 76.5t31.5 76.5t76.5 31.5h6l-47 108h-167q-24 0 -41 20t-17 49z" glyph-name="Aogonek" horiz-adv-x="712" unicode="Ą"/><glyph d="M596 -116q5 0 12.5 2t12.5 2q11 1 19 -7.5t8 -19.5q0 -26 -25.5 -37.5t-55.5 -11.5q-45 0 -76.5 31.5t-31.5 76.5q0 36 21.5 64.5t54.5 38.5q-8 14 -8 29v238q0 70 -49.5 120t-120.5 50q-70 0 -120 -50t-50 -120q0 -71 50 -121t120 -50q25 0 47 6q18 8 37 -3.5t30 -33.5 t6.5 -46t-22.5 -34q-43 -25 -124 -25q-122 0 -206.5 88t-84.5 219q0 130 84.5 218t206.5 88q119 0 194 -101h2v32q0 25 20 42.5t49 17.5t49.5 -17.5t20.5 -42.5v-475q0 -25 -20.5 -42.5t-49.5 -17.5q-27 0 -42.5 -14.5t-15.5 -39.5q0 -22 17 -38t41 -16z" glyph-name="aogonek" horiz-adv-x="726" unicode="ą"/><glyph d="M628 210q17 19 43 20t49 -18q22 -18 26 -45.5t-12 -45.5q-124 -138 -297 -138q-167 0 -284.5 113t-117.5 279t117.5 279t284.5 113q173 0 297 -138q16 -18 12 -45.5t-26 -45.5q-23 -19 -49 -18t-43 20q-48 45 -90 67.5t-101 22.5q-106 0 -180.5 -74.5t-74.5 -180.5 t74.5 -180.5t180.5 -74.5q59 0 101 22.5t90 67.5zM495 840l-126 -33q-12 -4 -20.5 7t-7 25.5t14.5 21.5l117 59q28 12 44 -16q15 -29 -2 -51q-7 -9 -20 -13z" glyph-name="Cacute" horiz-adv-x="782" unicode="Ć"/><glyph d="M466 160q17 17 43.5 14.5t46.5 -22.5q21 -21 22.5 -47.5t-19.5 -45.5q-87 -76 -202 -76q-133 0 -225 88.5t-92 218.5t92 218t225 88q119 0 202 -75q21 -20 20 -45.5t-23 -47.5q-20 -20 -46.5 -22.5t-43.5 14.5q-46 40 -109 40q-70 0 -120 -50t-50 -120t50 -120t120 -50 q63 0 109 40zM418 685l-126 -33q-12 -4 -20.5 7t-7 25.5t14.5 21.5l117 59q28 12 44 -16q15 -29 -2 -51q-7 -9 -20 -13z" glyph-name="cacute" horiz-adv-x="613" unicode="ć"/><glyph d="M628 210q17 19 43 20t49 -18q22 -18 26 -45.5t-12 -45.5q-124 -138 -297 -138q-167 0 -284.5 113t-117.5 279t117.5 279t284.5 113q173 0 297 -138q16 -18 12 -45.5t-26 -45.5q-23 -19 -49 -18t-43 20q-48 45 -90 67.5t-101 22.5q-106 0 -180.5 -74.5t-74.5 -180.5 t74.5 -180.5t180.5 -74.5q59 0 101 22.5t90 67.5zM377 923l60 -56l60 56q8 8 20.5 6t21.5 -12q9 -11 9.5 -23t-9.5 -20l-77 -75q-10 -9 -25 -9q-16 0 -25 9l-78 75q-20 18 0 43q10 10 22.5 12t20.5 -6z" glyph-name="Ccaron" horiz-adv-x="782" unicode="Č"/><glyph d="M466 160q17 17 43.5 14.5t46.5 -22.5q21 -21 22.5 -47.5t-19.5 -45.5q-87 -76 -202 -76q-133 0 -225 88.5t-92 218.5t92 218t225 88q119 0 202 -75q21 -20 20 -45.5t-23 -47.5q-20 -20 -46.5 -22.5t-43.5 14.5q-46 40 -109 40q-70 0 -120 -50t-50 -120t50 -120t120 -50 q63 0 109 40zM297 786l60 -56l60 56q8 8 20.5 6t21.5 -12q9 -11 9.5 -23t-9.5 -20l-77 -75q-10 -9 -25 -9q-16 0 -25 9l-78 75q-20 18 0 43q10 10 22.5 12t20.5 -6z" glyph-name="ccaron" horiz-adv-x="613" unicode="č"/><glyph d="M60 52v638q0 25 21 42.5t50 17.5h190q163 0 274 -108.5t111 -270.5t-111 -270.5t-274 -108.5q-25 0 -42.5 20t-17.5 48t17.5 48t42.5 20q98 0 168 72t70 171t-70 170.5t-168 71.5h-119v-561q0 -25 -21 -42.5t-50 -17.5t-50 17.5t-21 42.5zM278 918l60 -56l60 56 q8 8 20.5 6t21.5 -12q9 -11 9.5 -23t-9.5 -20l-77 -75q-11 -9 -25 -9q-16 0 -25 9l-78 75q-20 18 0 43q10 10 22.5 12t20.5 -6z" glyph-name="Dcaron" horiz-adv-x="741" unicode="Ď"/><glyph d="M705 603l33 126q8 31 42 28q30 -2 39 -25q5 -12 -1 -25l-59 -117q-7 -13 -21.5 -14.5t-25.5 7t-7 20.5zM456 8q-43 -25 -124 -25q-122 0 -207 88t-85 219q0 130 85 218t207 88q119 0 194 -101h2v203q0 25 20 42.5t49 17.5t49.5 -17.5t20.5 -42.5v-646q0 -25 -20.5 -42.5 t-49.5 -17.5t-49 17.5t-20 42.5v238q0 70 -49.5 120t-120.5 50q-70 0 -120.5 -50t-50.5 -120t50.5 -120.5t120.5 -50.5q24 0 47 6q18 8 37 -3.5t30 -33.5t6.5 -46t-22.5 -34z" glyph-name="dcaron" horiz-adv-x="838" unicode="ď"/><glyph d="M60 60v324q0 25 21 42.5t50 17.5h359q25 0 42.5 -20.5t17.5 -48.5t-17.5 -48t-42.5 -20h-288v-171h357q25 0 42.5 -20t17.5 -48t-17.5 -48t-42.5 -20h-428q-29 0 -50 17.5t-21 42.5zM60 563v127q0 25 21 42.5t50 17.5h428q25 0 42.5 -20.5t17.5 -48.5t-17.5 -48 t-42.5 -20h-357v-50q0 -25 -21 -42.5t-50 -17.5t-50 17.5t-21 42.5zM238 841q0 16 9 27.5t23 11.5h139q14 0 23 -11.5t9 -27.5t-9 -27.5t-23 -11.5h-139q-14 0 -23 11.5t-9 27.5z" glyph-name="Emacron" horiz-adv-x="651" unicode="Ē"/><glyph d="M252 711q0 16 9 27.5t23 11.5h139q14 0 23 -11.5t9 -27.5t-9 -27.5t-23 -11.5h-139q-14 0 -23 11.5t-9 27.5zM240 287q0 25 15.5 43t37.5 18h222q-18 53 -61 84t-98 31q-69 0 -119 -51.5t-50 -121.5q0 -72 51 -126t123 -54q39 0 80 14t67 37q15 17 39.5 16.5t43.5 -18.5 q19 -16 23 -41t-10 -41q-45 -45 -110 -69.5t-133 -24.5q-136 0 -228.5 88t-92.5 219q0 130 92 218t224 88q129 0 220 -89t91 -217q0 -25 -21 -45t-50 -20h-303q-22 0 -37.5 18.5t-15.5 43.5z" glyph-name="emacron" horiz-adv-x="707" unicode="ē"/><glyph d="M60 60v324q0 25 21 42.5t50 17.5h359q25 0 42.5 -20.5t17.5 -48.5t-17.5 -48t-42.5 -20h-288v-171h357q25 0 42.5 -20t17.5 -48t-17.5 -48t-42.5 -20h-428q-29 0 -50 17.5t-21 42.5zM60 563v127q0 25 21 42.5t50 17.5h428q25 0 42.5 -20.5t17.5 -48.5t-17.5 -48 t-42.5 -20h-357v-50q0 -25 -21 -42.5t-50 -17.5t-50 17.5t-21 42.5zM339 778q-31 0 -54 23t-23 54t23 54t54 23t54 -23t23 -54t-23 -54t-54 -23z" glyph-name="Edotaccent" horiz-adv-x="651" unicode="Ė"/><glyph d="M240 287q0 25 15.5 43t37.5 18h222q-18 53 -61 84t-98 31q-69 0 -119 -51.5t-50 -121.5q0 -72 51 -126t123 -54q39 0 80 14t67 37q15 17 39.5 16.5t43.5 -18.5q19 -16 23 -41t-10 -41q-45 -45 -110 -69.5t-133 -24.5q-136 0 -228.5 88t-92.5 219q0 130 92 218t224 88 q129 0 220 -89t91 -217q0 -25 -21 -45t-50 -20h-303q-22 0 -37.5 18.5t-15.5 43.5zM356 652q-32 0 -54.5 23t-22.5 54t22.5 54t54.5 23t54.5 -23t22.5 -54t-22.5 -54t-54.5 -23z" glyph-name="edotaccent" horiz-adv-x="707" unicode="ė"/><glyph d="M559 -116q5 0 12.5 2t12.5 2q11 1 19 -7.5t8 -19.5q0 -26 -25.5 -37.5t-55.5 -11.5q-45 0 -76.5 31.5t-31.5 76.5q0 50 35 80h-326q-29 0 -50 17.5t-21 42.5v324q0 25 21 42.5t50 17.5h359q25 0 42.5 -20.5t17.5 -48.5t-17.5 -48t-42.5 -20h-288v-171h357q25 0 42.5 -20 t17.5 -48t-17.5 -48t-42.5 -20q-26 0 -42 -17t-16 -41t17 -41t41 -17zM60 563v127q0 25 21 42.5t50 17.5h428q25 0 42.5 -20.5t17.5 -48.5t-17.5 -48t-42.5 -20h-357v-50q0 -25 -21 -42.5t-50 -17.5t-50 17.5t-21 42.5z" glyph-name="Eogonek" horiz-adv-x="651" unicode="Ę"/><glyph d="M240 287q0 25 15.5 43t37.5 18h222q-18 53 -61 84t-98 31q-69 0 -119 -51.5t-50 -121.5q0 -72 51 -126t123 -54q39 0 80 14t67 37q15 17 39.5 16.5t43.5 -18.5q19 -16 23 -41t-10 -41q-45 -45 -113 -70q-18 -6 -30 -23.5t-12 -37.5q0 -25 17.5 -43.5t42.5 -18.5 q5 0 12.5 2t12.5 2q11 1 19 -7.5t8 -19.5q0 -26 -25.5 -37.5t-55.5 -11.5q-45 0 -77.5 33.5t-32.5 78.5q0 36 18 61q-18 -2 -27 -2q-136 0 -228.5 88t-92.5 219q0 130 92 218t224 88q129 0 220 -89t91 -217q0 -25 -21 -45t-50 -20h-303q-22 0 -37.5 18.5t-15.5 43.5z" glyph-name="eogonek" horiz-adv-x="707" unicode="ę"/><glyph d="M60 60v324q0 25 21 42.5t50 17.5h359q25 0 42.5 -20.5t17.5 -48.5t-17.5 -48t-42.5 -20h-288v-171h357q25 0 42.5 -20t17.5 -48t-17.5 -48t-42.5 -20h-428q-29 0 -50 17.5t-21 42.5zM60 563v127q0 25 21 42.5t50 17.5h428q25 0 42.5 -20.5t17.5 -48.5t-17.5 -48 t-42.5 -20h-357v-50q0 -25 -21 -42.5t-50 -17.5t-50 17.5t-21 42.5zM276 918l60 -56l60 56q8 8 20.5 6t21.5 -12q9 -11 9.5 -23t-9.5 -20l-77 -75q-10 -9 -25 -9q-16 0 -25 9l-78 75q-20 18 0 43q10 10 22.5 12t20.5 -6z" glyph-name="Ecaron" horiz-adv-x="651" unicode="Ě"/><glyph d="M240 287q0 25 15.5 43t37.5 18h222q-18 53 -61 84t-98 31q-69 0 -119 -51.5t-50 -121.5q0 -72 51 -126t123 -54q39 0 80 14t67 37q15 17 39.5 16.5t43.5 -18.5q19 -16 23 -41t-10 -41q-45 -45 -110 -69.5t-133 -24.5q-136 0 -228.5 88t-92.5 219q0 130 92 218t224 88 q129 0 220 -89t91 -217q0 -25 -21 -45t-50 -20h-303q-22 0 -37.5 18.5t-15.5 43.5zM296 786l60 -56l60 56q8 8 20.5 6t21.5 -12q9 -11 9.5 -23t-9.5 -20l-77 -75q-11 -9 -25 -9q-16 0 -25 9l-78 75q-20 18 0 43q10 10 22.5 12t20.5 -6z" glyph-name="ecaron" horiz-adv-x="707" unicode="ě"/><glyph d="M431 376q0 28 17 48t41 20h175q29 0 50 -17.5t21 -42.5v-244q0 -22 -17 -39q-115 -118 -281 -118q-167 0 -284.5 113t-117.5 279t117.5 279t284.5 113q147 0 265 -104q17 -17 15 -43t-22 -46t-46 -22.5t-43 14.5q-72 64 -169 64q-105 0 -180 -74.5t-75 -180.5t75 -181 t180 -75q91 0 163 58v130h-111q-24 0 -41 20t-17 49zM387 -214q0 9 6 15.5t15 6.5q16 0 27 11.5t12 29.5q-4 -2 -10 -2q-24 0 -41 17t-17 41q0 23 17 40.5t41 17.5q23 0 40.5 -17.5t17.5 -40.5v-56q0 -36 -25.5 -61.5t-61.5 -25.5q-9 0 -15 7t-6 17z" glyph-name="Gcommaaccent" horiz-adv-x="791" unicode="Ģ"/><glyph d="M335 136q28 0 53 10q19 8 42 0t33 -28q21 -43 -16 -75q-45 -37 -112 -39q-122 5 -208.5 93.5t-86.5 210.5q0 124 89 206t212 82q111 0 187 -91h2v26q0 24 18.5 40t45.5 16t46 -16t19 -40v-404q0 -129 -96 -222t-228 -93q-106 0 -207 52q-21 11 -26 36.5t9 49.5 q13 24 37 34t44 0q72 -40 143 -40q65 0 125 45t60 106v203q0 67 -47.5 114.5t-114.5 47.5q-68 0 -119.5 -45.5t-51.5 -111.5t43 -116.5t105 -50.5zM398 805q0 -9 -6 -15.5t-15 -6.5q-16 0 -27 -11.5t-12 -29.5q4 2 10 2q24 0 41 -17t17 -41q0 -23 -17 -40.5t-41 -17.5 q-23 0 -40.5 17.5t-17.5 40.5v56q0 36 25.5 61.5t61.5 25.5q9 0 15 -7t6 -17z" glyph-name="gcommaaccent" horiz-adv-x="719" unicode="ģ"/><glyph d="M60 52v646q0 25 21 42.5t50 17.5t50 -17.5t21 -42.5v-646q0 -25 -21 -42.5t-50 -17.5t-50 17.5t-21 42.5zM30 841q0 16 9 27.5t23 11.5h139q14 0 23 -11.5t9 -27.5t-9 -27.5t-23 -11.5h-139q-14 0 -23 11.5t-9 27.5z" glyph-name="Imacron" horiz-adv-x="262" unicode="Ī"/><glyph d="M60 52v475q0 25 20.5 42.5t49.5 17.5t49.5 -17.5t20.5 -42.5v-475q0 -25 -20.5 -42.5t-49.5 -17.5t-49.5 17.5t-20.5 42.5zM28 711q0 16 9 27.5t23 11.5h139q14 0 23 -11.5t9 -27.5t-9 -27.5t-23 -11.5h-139q-14 0 -23 11.5t-9 27.5z" glyph-name="imacron" horiz-adv-x="260" unicode="ī"/><glyph d="M60 52v646q0 25 21 42.5t50 17.5t50 -17.5t21 -42.5v-646q0 -37 -36 -52q-36 -17 -36 -56q0 -24 17 -42t41 -18q5 0 12.5 2t12.5 2q11 1 19 -7.5t8 -19.5q0 -26 -25.5 -37.5t-55.5 -11.5q-45 0 -76.5 32.5t-31.5 77.5q0 49 36 82q-27 19 -27 48z" glyph-name="Iogonek" horiz-adv-x="262" unicode="Į"/><glyph d="M60 52v475q0 25 20.5 42.5t49.5 17.5t49.5 -17.5t20.5 -42.5v-475q0 -37 -34 -52q-36 -17 -36 -56q0 -24 17 -42t41 -18q5 0 12.5 2t12.5 2q11 1 19 -7.5t8 -19.5q0 -26 -25.5 -37.5t-55.5 -11.5q-45 0 -76.5 32.5t-31.5 77.5q0 49 36 82q-27 19 -27 48zM51 692 q0 33 23 56t56 23t56 -23t23 -56t-23 -56t-56 -23t-56 23t-23 56z" glyph-name="iogonek" horiz-adv-x="260" unicode="į"/><glyph d="M60 52v475q0 25 20.5 42.5t49.5 17.5t49.5 -17.5t20.5 -42.5v-475q0 -25 -20.5 -42.5t-49.5 -17.5t-49.5 17.5t-20.5 42.5z" glyph-name="dotlessi" horiz-adv-x="260" unicode="ı"/><glyph d="M407 375l233 -273q16 -18 12 -44.5t-26 -46.5q-22 -19 -48 -19.5t-42 19.5l-271 311q-20 22 -20 53t20 53l271 311q16 20 42 19.5t48 -19.5q22 -20 26 -46.5t-12 -44.5zM60 52v646q0 25 21 42.5t50 17.5t50 -17.5t21 -42.5v-646q0 -25 -21 -42.5t-50 -17.5t-50 17.5 t-21 42.5zM290 -194q0 9 6 15.5t15 6.5q16 0 27 11.5t12 29.5q-4 -2 -10 -2q-24 0 -41 17t-17 41q0 23 17 40.5t41 17.5q23 0 40.5 -17.5t17.5 -40.5v-56q0 -36 -25.5 -61.5t-61.5 -25.5q-9 0 -15 7t-6 17z" glyph-name="Kcommaaccent" horiz-adv-x="683" unicode="Ķ"/><glyph d="M60 52v646q0 25 20.5 42.5t49.5 17.5t49.5 -17.5t20.5 -42.5v-646q0 -25 -20.5 -42.5t-49.5 -17.5t-49.5 17.5t-20.5 42.5zM402 290l171 -191q16 -17 12 -43t-26 -46q-22 -18 -47 -18.5t-41 18.5l-208 228q-20 23 -20 52t20 52l206 227q16 19 41 18.5t47 -18.5 q22 -20 26 -46t-12 -43zM263 -194q0 9 6 15.5t15 6.5q16 0 27 11.5t12 29.5q-4 -2 -10 -2q-24 0 -41 17t-17 41q0 23 17 40.5t41 17.5q23 0 40.5 -17.5t17.5 -40.5v-56q0 -36 -25.5 -61.5t-61.5 -25.5q-9 0 -15 7t-6 17z" glyph-name="kcommaaccent" horiz-adv-x="601" unicode="ķ"/><glyph d="M60 60v638q0 25 21 42.5t50 17.5t50 -17.5t21 -42.5v-562h322q25 0 42.5 -20t17.5 -48t-17.5 -48t-42.5 -20h-393q-29 0 -50 17.5t-21 42.5zM400 820l-126 -33q-12 -4 -20.5 7t-7 25.5t14.5 21.5l117 59q28 12 44 -16q15 -29 -2 -51q-7 -9 -20 -13z" glyph-name="Lacute" horiz-adv-x="614" unicode="Ĺ"/><glyph d="M60 52v646q0 25 20.5 42.5t49.5 17.5t49.5 -17.5t20.5 -42.5v-646q0 -25 -20.5 -42.5t-49.5 -17.5t-49.5 17.5t-20.5 42.5zM192 808l-126 -33q-12 -4 -20.5 7t-7 25.5t14.5 21.5l117 59q28 12 44 -16q15 -29 -2 -51q-7 -9 -20 -13z" glyph-name="lacute" horiz-adv-x="260" unicode="ĺ"/><glyph d="M60 60v638q0 25 21 42.5t50 17.5t50 -17.5t21 -42.5v-562h322q25 0 42.5 -20t17.5 -48t-17.5 -48t-42.5 -20h-393q-29 0 -50 17.5t-21 42.5zM276 -194q0 9 6 15.5t15 6.5q16 0 27 11.5t12 29.5q-4 -2 -10 -2q-24 0 -41 17t-17 41q0 23 17 40.5t41 17.5q23 0 40.5 -17.5 t17.5 -40.5v-56q0 -36 -25.5 -61.5t-61.5 -25.5q-9 0 -15 7t-6 17z" glyph-name="Lcommaaccent" horiz-adv-x="614" unicode="Ļ"/><glyph d="M60 52v646q0 25 20.5 42.5t49.5 17.5t49.5 -17.5t20.5 -42.5v-646q0 -25 -20.5 -42.5t-49.5 -17.5t-49.5 17.5t-20.5 42.5zM80 -204q0 9 6 15.5t15 6.5q16 0 27 11.5t12 29.5q-4 -2 -10 -2q-24 0 -41 17t-17 41q0 23 17 40.5t41 17.5q23 0 40.5 -17.5t17.5 -40.5v-56 q0 -36 -25.5 -61.5t-61.5 -25.5q-9 0 -15 7t-6 17z" glyph-name="lcommaaccent" horiz-adv-x="260" unicode="ļ"/><glyph d="M60 60v638q0 25 21 42.5t50 17.5t50 -17.5t21 -42.5v-562h322q25 0 42.5 -20t17.5 -48t-17.5 -48t-42.5 -20h-393q-29 0 -50 17.5t-21 42.5zM467 603l33 126q8 31 42 28q30 -2 39 -25q5 -12 -1 -25l-59 -117q-7 -13 -21.5 -14.5t-25.5 7t-7 20.5z" glyph-name="Lcaron" horiz-adv-x="614" unicode="Ľ"/><glyph d="M60 52v646q0 25 20.5 42.5t49.5 17.5t49.5 -17.5t20.5 -42.5v-646q0 -25 -20.5 -42.5t-49.5 -17.5t-49.5 17.5t-20.5 42.5zM238 603l33 126q8 31 42 28q30 -2 39 -25q5 -12 -1 -25l-59 -117q-7 -13 -21.5 -14.5t-25.5 7t-7 20.5z" glyph-name="lcaron" horiz-adv-x="371" unicode="ľ"/><glyph d="M221 191v-55h322q25 0 42.5 -20t17.5 -48t-17.5 -48t-42.5 -20h-393q-29 0 -50 17.5t-21 42.5v102q0 25 21 46.5t50 27.5q29 7 50 -6.5t21 -38.5zM348 339l-276 -59q-25 -5 -42.5 11.5t-17.5 45.5t17.5 53.5t42.5 29.5l276 59q25 5 42.5 -11.5t17.5 -45.5t-17.5 -53.5 t-42.5 -29.5zM150 496q-29 -6 -50 7.5t-21 38.5v156q0 25 21 42.5t50 17.5t50 -17.5t21 -42.5v-127q0 -25 -21 -46.5t-50 -28.5z" glyph-name="Lslash" horiz-adv-x="623" unicode="Ł"/><glyph d="M245 315l-173 -37q-25 -5 -42.5 11.5t-17.5 45.5t17.5 53.5t42.5 29.5l173 37q25 5 42.5 -11.5t17.5 -45.5t-17.5 -53.5t-42.5 -29.5zM158 496q-29 -6 -49.5 7.5t-20.5 38.5v156q0 25 20.5 42.5t49.5 17.5t49.5 -17.5t20.5 -42.5v-127q0 -25 -20.5 -46.5t-49.5 -28.5z M158 236q29 6 49.5 -7.5t20.5 -38.5v-138q0 -25 -20.5 -42.5t-49.5 -17.5t-49.5 17.5t-20.5 42.5v109q0 25 20.5 46.5t49.5 28.5z" glyph-name="lslash" horiz-adv-x="317" unicode="ł"/><glyph d="M417 820l-126 -33q-12 -4 -20.5 7t-7 25.5t14.5 21.5l117 59q28 12 44 -16q15 -29 -2 -51q-7 -9 -20 -13zM60 52v641q0 27 24.5 46t59.5 19q57 0 78 -43l283 -466h3l-1 449q0 25 21 42.5t50 17.5t50 -17.5t21 -42.5v-641q0 -27 -24.5 -46t-59.5 -19q-58 0 -78 40 l-283 468h-3l1 -448q0 -25 -21 -42.5t-50 -17.5t-50 17.5t-21 42.5z" glyph-name="Nacute" horiz-adv-x="709" unicode="Ń"/><glyph d="M200 527v-475q0 -25 -20.5 -42.5t-49.5 -17.5t-49.5 17.5t-20.5 42.5v475q0 25 20.5 42.5t49.5 17.5t49.5 -17.5t20.5 -42.5zM455 52v280q0 61 -33.5 98t-93.5 30l-19 -2q-20 -2 -37 13t-22 39q-5 25 5 44.5t30 26.5q36 15 86 15q101 0 162.5 -68t61.5 -178v-298 q0 -25 -20.5 -42.5t-49.5 -17.5t-49.5 17.5t-20.5 42.5zM408 685l-126 -33q-12 -4 -20.5 7t-7 25.5t14.5 21.5l117 59q28 12 44 -16q15 -29 -2 -51q-7 -9 -20 -13z" glyph-name="nacute" unicode="ń"/><glyph d="M304 -194q0 9 6 15.5t15 6.5q16 0 27 11.5t12 29.5q-4 -2 -10 -2q-24 0 -41 17t-17 41q0 23 17 40.5t41 17.5q23 0 40.5 -17.5t17.5 -40.5v-56q0 -36 -25.5 -61.5t-61.5 -25.5q-9 0 -15 7t-6 17zM60 52v641q0 27 24.5 46t59.5 19q57 0 78 -43l283 -466h3l-1 449 q0 25 21 42.5t50 17.5t50 -17.5t21 -42.5v-641q0 -27 -24.5 -46t-59.5 -19q-58 0 -78 40l-283 468h-3l1 -448q0 -25 -21 -42.5t-50 -17.5t-50 17.5t-21 42.5z" glyph-name="Ncommaaccent" horiz-adv-x="709" unicode="Ņ"/><glyph d="M277 -194q0 9 6 15.5t15 6.5q16 0 27 11.5t12 29.5q-4 -2 -10 -2q-24 0 -41 17t-17 41q0 23 17 40.5t41 17.5q23 0 40.5 -17.5t17.5 -40.5v-56q0 -36 -25.5 -61.5t-61.5 -25.5q-9 0 -15 7t-6 17zM200 527v-475q0 -25 -20.5 -42.5t-49.5 -17.5t-49.5 17.5t-20.5 42.5v475 q0 25 20.5 42.5t49.5 17.5t49.5 -17.5t20.5 -42.5zM455 52v280q0 61 -33.5 98t-93.5 30l-19 -2q-20 -2 -37 13t-22 39q-5 25 5 44.5t30 26.5q36 15 86 15q101 0 162.5 -68t61.5 -178v-298q0 -25 -20.5 -42.5t-49.5 -17.5t-49.5 17.5t-20.5 42.5z" glyph-name="ncommaaccent" unicode="ņ"/><glyph d="M295 918l60 -56l60 56q8 8 20.5 6t21.5 -12q9 -11 9.5 -23t-9.5 -20l-77 -75q-10 -9 -25 -9q-16 0 -25 9l-78 75q-20 18 0 43q10 10 22.5 12t20.5 -6zM60 52v641q0 27 24.5 46t59.5 19q57 0 78 -43l283 -466h3l-1 449q0 25 21 42.5t50 17.5t50 -17.5t21 -42.5v-641 q0 -27 -24.5 -46t-59.5 -19q-58 0 -78 40l-283 468h-3l1 -448q0 -25 -21 -42.5t-50 -17.5t-50 17.5t-21 42.5z" glyph-name="Ncaron" horiz-adv-x="709" unicode="Ň"/><glyph d="M278 786l60 -56l60 56q8 8 20.5 6t21.5 -12q9 -11 9.5 -23t-9.5 -20l-77 -75q-11 -9 -25 -9q-16 0 -25 9l-78 75q-20 18 0 43q10 10 22.5 12t20.5 -6zM200 527v-475q0 -25 -20.5 -42.5t-49.5 -17.5t-49.5 17.5t-20.5 42.5v475q0 25 20.5 42.5t49.5 17.5t49.5 -17.5 t20.5 -42.5zM455 52v280q0 61 -33.5 98t-93.5 30l-19 -2q-20 -2 -37 13t-22 39q-5 25 5 44.5t30 26.5q36 15 86 15q101 0 162.5 -68t61.5 -178v-298q0 -25 -20.5 -42.5t-49.5 -17.5t-49.5 17.5t-20.5 42.5z" glyph-name="ncaron" unicode="ň"/><glyph d="M693 375q0 106 -75 180.5t-181 74.5t-180.5 -74.5t-74.5 -180.5t74.5 -181t180.5 -75q107 0 181.5 74.5t74.5 181.5zM839 375q0 -166 -117.5 -279t-284.5 -113q-168 0 -285 113t-117 279t117 279t285 113q167 0 284.5 -113t117.5 -279zM335 841q0 16 9 27.5t23 11.5h139 q14 0 23 -11.5t9 -27.5t-9 -27.5t-23 -11.5h-139q-14 0 -23 11.5t-9 27.5z" glyph-name="Omacron" horiz-adv-x="874" unicode="Ō"/><glyph d="M527 290q0 70 -50 120t-121 50q-70 0 -119.5 -50t-49.5 -120q0 -71 49.5 -121t119.5 -50q71 0 121 50t50 121zM673 290q0 -131 -92 -219t-225 -88q-132 0 -224 88t-92 219q0 130 92 218t224 88q133 0 225 -88t92 -218zM255 711q0 16 9 27.5t23 11.5h139q14 0 23 -11.5 t9 -27.5t-9 -27.5t-23 -11.5h-139q-14 0 -23 11.5t-9 27.5z" glyph-name="omacron" horiz-adv-x="713" unicode="ō"/><glyph d="M693 375q0 106 -75 180.5t-181 74.5t-180.5 -74.5t-74.5 -180.5t74.5 -181t180.5 -75q107 0 181.5 74.5t74.5 181.5zM839 375q0 -166 -117.5 -279t-284.5 -113q-168 0 -285 113t-117 279t117 279t285 113q167 0 284.5 -113t117.5 -279zM374 789q-14 5 -20.5 17t-2.5 24 l29 73q4 11 17 16t27 -1q14 -5 20.5 -17t2.5 -24l-29 -73q-4 -11 -17 -16t-27 1zM483 789q-14 5 -20.5 17t-2.5 24l29 73q4 11 17 16t27 -1q14 -5 20.5 -17t2.5 -24l-29 -73q-4 -11 -17 -16t-27 1z" glyph-name="Ohungarumlaut" horiz-adv-x="874" unicode="Ő"/><glyph d="M527 290q0 70 -50 120t-121 50q-70 0 -119.5 -50t-49.5 -120q0 -71 49.5 -121t119.5 -50q71 0 121 50t50 121zM673 290q0 -131 -92 -219t-225 -88q-132 0 -224 88t-92 219q0 130 92 218t224 88q133 0 225 -88t92 -218zM288 626q-14 5 -20.5 17t-2.5 24l29 73q4 11 17 16 t27 -1q14 -5 20.5 -17t2.5 -24l-29 -73q-4 -11 -17 -16t-27 1zM397 626q-14 5 -20.5 17t-2.5 24l29 73q4 11 17 16t27 -1q14 -5 20.5 -17t2.5 -24l-29 -73q-4 -11 -17 -16t-27 1z" glyph-name="ohungarumlaut" horiz-adv-x="713" unicode="ő"/><glyph d="M509 126q26 7 48 -7.5t29 -41.5q8 -28 -3.5 -53t-35.5 -29q-48 -12 -110 -12q-168 0 -285 113t-117 279t117 279t285 113q68 0 113.5 -16.5t89.5 -49.5q5 21 24.5 35t45.5 14h428q25 0 42.5 -20.5t17.5 -48.5t-17.5 -48t-42.5 -20h-357v-50q0 -25 -21 -42.5t-50 -17.5 q-41 0 -61 29q-35 44 -93 71t-119 27q-106 0 -180.5 -74.5t-74.5 -180.5t74.5 -181t180.5 -75q44 0 72 7zM639 60v324q0 25 21 42.5t50 17.5h359q25 0 42.5 -20.5t17.5 -48.5t-17.5 -48t-42.5 -20h-288v-171h357q25 0 42.5 -20t17.5 -48t-17.5 -48t-42.5 -20h-428 q-29 0 -50 17.5t-21 42.5z" glyph-name="OE" horiz-adv-x="1230" unicode="Œ"/><glyph d="M442 142q22 10 46 -1t37 -37q13 -25 6 -52t-29 -36q-76 -33 -146 -33q-132 0 -224 88t-92 219q0 130 92 218t224 88q148 0 243 -108q44 51 107 79.5t136 28.5q129 0 220 -89t91 -217q0 -25 -21 -45t-50 -20h-303q-22 0 -37.5 18.5t-15.5 43.5t15.5 43t37.5 18h222 q-18 53 -61 84t-98 31q-69 0 -119 -51.5t-50 -121.5q0 -72 51 -126t123 -54q39 0 80 14t67 37q15 17 39.5 16.5t43.5 -18.5q19 -16 23 -41t-10 -41q-45 -45 -110 -69.5t-133 -24.5q-136 0 -228 88t-92 219q0 70 -50 120t-121 50q-70 0 -119.5 -50t-49.5 -120 q0 -71 49.5 -121t119.5 -50q43 0 86 23z" glyph-name="oe" horiz-adv-x="1193" unicode="œ"/><glyph d="M325 375h65q49 0 84 35t35 84t-35 84t-84 35h-188v-561q0 -25 -21 -42.5t-50 -17.5t-50 17.5t-21 42.5v638q0 25 21 42.5t50 17.5h259q110 0 187 -73.5t77 -182.5q0 -88 -55.5 -155.5t-139.5 -90.5l110 -153q14 -21 6.5 -47.5t-31.5 -42.5t-51 -13t-41 24l-174 248 q-13 20 -13 43q0 28 17.5 48t42.5 20zM406 820l-126 -33q-12 -4 -20.5 7t-7 25.5t14.5 21.5l117 59q28 12 44 -16q15 -29 -2 -51q-7 -9 -20 -13z" glyph-name="Racute" horiz-adv-x="694" unicode="Ŕ"/><glyph d="M321 685l-126 -33q-12 -4 -20.5 7t-7 25.5t14.5 21.5l117 59q28 12 44 -16q15 -29 -2 -51q-7 -9 -20 -13zM60 380v147q0 25 20.5 42.5t49.5 17.5t49.5 -17.5t20.5 -42.5v-12h2q64 81 154 81q34 0 50.5 -5t42.5 -20q18 -10 22.5 -34t-6.5 -46t-30 -33.5t-37 -3.5 q-22 6 -47 6q-51 0 -93 -28t-62 -73q-19 -39 -66 -39q-29 0 -49.5 17.5t-20.5 42.5zM60 52v158q0 25 20.5 42.5t49.5 17.5t49.5 -17.5t20.5 -42.5v-158q0 -25 -20.5 -42.5t-49.5 -17.5t-49.5 17.5t-20.5 42.5z" glyph-name="racute" horiz-adv-x="483" unicode="ŕ"/><glyph d="M325 375h65q49 0 84 35t35 84t-35 84t-84 35h-188v-561q0 -25 -21 -42.5t-50 -17.5t-50 17.5t-21 42.5v638q0 25 21 42.5t50 17.5h259q110 0 187 -73.5t77 -182.5q0 -88 -55.5 -155.5t-139.5 -90.5l110 -153q14 -21 6.5 -47.5t-31.5 -42.5t-51 -13t-41 24l-174 248 q-13 20 -13 43q0 28 17.5 48t42.5 20zM272 -194q0 9 6 15.5t15 6.5q16 0 27 11.5t12 29.5q-4 -2 -10 -2q-24 0 -41 17t-17 41q0 23 17 40.5t41 17.5q23 0 40.5 -17.5t17.5 -40.5v-56q0 -36 -25.5 -61.5t-61.5 -25.5q-9 0 -15 7t-6 17z" glyph-name="Rcommaaccent" horiz-adv-x="694" unicode="Ŗ"/><glyph d="M206 -194q0 9 6 15.5t15 6.5q16 0 27 11.5t12 29.5q-4 -2 -10 -2q-24 0 -41 17t-17 41q0 23 17 40.5t41 17.5q23 0 40.5 -17.5t17.5 -40.5v-56q0 -36 -25.5 -61.5t-61.5 -25.5q-9 0 -15 7t-6 17zM60 380v147q0 25 20.5 42.5t49.5 17.5t49.5 -17.5t20.5 -42.5v-12h2 q64 81 154 81q34 0 50.5 -5t42.5 -20q18 -10 22.5 -34t-6.5 -46t-30 -33.5t-37 -3.5q-22 6 -47 6q-51 0 -93 -28t-62 -73q-19 -39 -66 -39q-29 0 -49.5 17.5t-20.5 42.5zM60 52v158q0 25 20.5 42.5t49.5 17.5t49.5 -17.5t20.5 -42.5v-158q0 -25 -20.5 -42.5t-49.5 -17.5 t-49.5 17.5t-20.5 42.5z" glyph-name="rcommaaccent" horiz-adv-x="483" unicode="ŗ"/><glyph d="M325 375h65q49 0 84 35t35 84t-35 84t-84 35h-188v-561q0 -25 -21 -42.5t-50 -17.5t-50 17.5t-21 42.5v638q0 25 21 42.5t50 17.5h259q110 0 187 -73.5t77 -182.5q0 -88 -55.5 -155.5t-139.5 -90.5l110 -153q14 -21 6.5 -47.5t-31.5 -42.5t-51 -13t-41 24l-174 248 q-13 20 -13 43q0 28 17.5 48t42.5 20zM270 918l60 -56l60 56q8 8 20.5 6t21.5 -12q9 -11 9.5 -23t-9.5 -20l-77 -75q-11 -9 -25 -9q-16 0 -25 9l-78 75q-20 18 0 43q10 10 22.5 12t20.5 -6z" glyph-name="Rcaron" horiz-adv-x="694" unicode="Ř"/><glyph d="M196 786l60 -56l60 56q8 8 20.5 6t21.5 -12q9 -11 9.5 -23t-9.5 -20l-77 -75q-11 -9 -25 -9q-16 0 -25 9l-78 75q-20 18 0 43q10 10 22.5 12t20.5 -6zM60 380v147q0 25 20.5 42.5t49.5 17.5t49.5 -17.5t20.5 -42.5v-12h2q64 81 154 81q34 0 50.5 -5t42.5 -20 q18 -10 22.5 -34t-6.5 -46t-30 -33.5t-37 -3.5q-22 6 -47 6q-51 0 -93 -28t-62 -73q-19 -39 -66 -39q-29 0 -49.5 17.5t-20.5 42.5zM60 52v158q0 25 20.5 42.5t49.5 17.5t49.5 -17.5t20.5 -42.5v-158q0 -25 -20.5 -42.5t-49.5 -17.5t-49.5 17.5t-20.5 42.5z" glyph-name="rcaron" horiz-adv-x="483" unicode="ř"/><glyph d="M382 840l-126 -33q-12 -4 -20.5 7t-7 25.5t14.5 21.5l117 59q28 12 44 -16q15 -29 -2 -51q-7 -9 -20 -13zM141 175q91 -69 176 -69q61 0 98.5 31t37.5 80q0 36 -22 59t-57.5 33.5t-78 18.5t-85 21t-78 34.5t-57.5 65t-22 106.5q0 99 74.5 155.5t189.5 56.5q131 0 232 -67 q21 -14 25.5 -38.5t-9.5 -49.5q-15 -25 -39 -34t-45 3q-84 52 -164 52q-116 0 -116 -78q0 -35 22 -57t57.5 -32.5t78 -18.5t85 -21.5t78 -35.5t57.5 -66t22 -107q0 -108 -79.5 -171t-204.5 -63q-142 0 -251 76l-3 3q-20 15 -22.5 41t13.5 51q17 21 43 27.5t44 -6.5z" glyph-name="Sacute" horiz-adv-x="641" unicode="Ś"/><glyph d="M348 685l-126 -33q-12 -4 -20.5 7t-7 25.5t14.5 21.5l117 59q28 12 44 -16q15 -29 -2 -51q-7 -9 -20 -13zM128 148q69 -38 159 -43q113 0 113 60q0 31 -25.5 47t-64 19.5t-83.5 12t-83.5 22t-64 52.5t-25.5 101q0 86 61.5 131.5t171.5 45.5q101 0 189 -43q18 -8 24 -30 t-4 -45q-11 -23 -32 -33t-40 0q-62 30 -137 30q-89 0 -89 -56q0 -29 26 -44.5t64.5 -19.5t83.5 -13.5t83.5 -23.5t64.5 -53t26 -100q0 -91 -72 -136.5t-187 -45.5q-125 0 -221 53q-18 11 -23.5 34.5t6.5 46.5q13 24 35.5 33t43.5 -2z" glyph-name="sacute" horiz-adv-x="577" unicode="ś"/><glyph d="M257 923l60 -56l60 56q8 8 20.5 6t21.5 -12q9 -11 9.5 -23t-9.5 -20l-77 -75q-10 -9 -25 -9q-16 0 -25 9l-78 75q-20 18 0 43q10 10 22.5 12t20.5 -6zM141 175q91 -69 176 -69q61 0 98.5 31t37.5 80q0 36 -22 59t-57.5 33.5t-78 18.5t-85 21t-78 34.5t-57.5 65t-22 106.5 q0 99 74.5 155.5t189.5 56.5q131 0 232 -67q21 -14 25.5 -38.5t-9.5 -49.5q-15 -25 -39 -34t-45 3q-84 52 -164 52q-116 0 -116 -78q0 -35 22 -57t57.5 -32.5t78 -18.5t85 -21.5t78 -35.5t57.5 -66t22 -107q0 -108 -79.5 -171t-204.5 -63q-142 0 -251 76l-3 3 q-20 15 -22.5 41t13.5 51q17 21 43 27.5t44 -6.5z" glyph-name="Scaron" horiz-adv-x="641" unicode="Š"/><glyph d="M227 786l60 -56l60 56q8 8 20.5 6t21.5 -12q9 -11 9.5 -23t-9.5 -20l-77 -75q-10 -9 -25 -9q-16 0 -25 9l-78 75q-20 18 0 43q10 10 22.5 12t20.5 -6zM128 148q69 -38 159 -43q113 0 113 60q0 31 -25.5 47t-64 19.5t-83.5 12t-83.5 22t-64 52.5t-25.5 101 q0 86 61.5 131.5t171.5 45.5q101 0 189 -43q18 -8 24 -30t-4 -45q-11 -23 -32 -33t-40 0q-62 30 -137 30q-89 0 -89 -56q0 -29 26 -44.5t64.5 -19.5t83.5 -13.5t83.5 -23.5t64.5 -53t26 -100q0 -91 -72 -136.5t-187 -45.5q-125 0 -221 53q-18 11 -23.5 34.5t6.5 46.5 q13 24 35.5 33t43.5 -2z" glyph-name="scaron" horiz-adv-x="577" unicode="š"/><glyph d="M252 918l60 -56l60 56q8 8 20.5 6t21.5 -12q9 -11 9.5 -23t-9.5 -20l-77 -75q-11 -9 -25 -9q-16 0 -25 9l-78 75q-20 18 0 43q10 10 22.5 12t20.5 -6zM312 -8q-29 0 -50 17.5t-21 42.5v638q0 25 21 42.5t50 17.5h239q25 0 42.5 -20.5t17.5 -48.5t-17.5 -48t-42.5 -20 h-169v-561q0 -25 -20.5 -42.5t-49.5 -17.5zM68 613q-24 0 -41 20t-17 48q0 29 17 49t41 20h56q24 0 41 -20t17 -49q0 -28 -17 -48t-41 -20h-56z" glyph-name="Tcaron" horiz-adv-x="621" unicode="Ť"/><glyph d="M156 405q28 0 49 -17.5t21 -41.5v-175q0 -15 10 -25t24 -10h16q22 0 37.5 -20t15.5 -48t-15.5 -48t-37.5 -20h-26q-85 0 -124.5 42t-39.5 129v175q0 24 21 41.5t49 17.5zM86 579v80q0 24 21 41.5t49 17.5t49 -17.5t21 -41.5v-80h50q22 0 37.5 -18.5t15.5 -43.5 t-15.5 -43.5t-37.5 -18.5h-207q-22 0 -37.5 18.5t-15.5 43.5t15.5 43.5t37.5 18.5h17zM329 603l33 126q8 31 42 28q30 -2 39 -25q5 -12 -1 -25l-59 -117q-7 -13 -21.5 -14.5t-25.5 7t-7 20.5z" glyph-name="tcaron" horiz-adv-x="458" unicode="ť"/><glyph d="M257 841q0 16 9 27.5t23 11.5h139q14 0 23 -11.5t9 -27.5t-9 -27.5t-23 -11.5h-139q-14 0 -23 11.5t-9 27.5zM60 698q0 25 21 42.5t50 17.5t50 -17.5t21 -42.5v-437q0 -66 44.5 -105.5t112.5 -39.5t112 39.5t44 105.5v437q0 25 21 42.5t50 17.5t50 -17.5t21 -42.5v-437 q0 -128 -83.5 -203t-214.5 -75q-132 0 -215.5 75t-83.5 203v437z" glyph-name="Umacron" horiz-adv-x="717" unicode="Ū"/><glyph d="M226 711q0 16 9 27.5t23 11.5h139q14 0 23 -11.5t9 -27.5t-9 -27.5t-23 -11.5h-139q-14 0 -23 11.5t-9 27.5zM455 52v475q0 25 20.5 42.5t49.5 17.5t49.5 -17.5t20.5 -42.5v-475q0 -25 -20.5 -42.5t-49.5 -17.5t-49.5 17.5t-20.5 42.5zM200 527v-280q0 -61 33.5 -98 t93.5 -30l19 2q20 2 37 -13t22 -39q5 -25 -5 -44.5t-30 -26.5q-36 -15 -86 -15q-101 0 -162.5 68t-61.5 178v298q0 25 20.5 42.5t49.5 17.5t49.5 -17.5t20.5 -42.5z" glyph-name="umacron" unicode="ū"/><glyph d="M385 851q0 11 -8 18.5t-19 7.5t-19 -7.5t-8 -18.5q0 -12 8 -20t19 -8t19 8t8 20zM432 851q0 -31 -22 -53t-52 -22t-52 22t-22 53q0 30 22 51.5t52 21.5t52 -21.5t22 -51.5zM60 698q0 25 21 42.5t50 17.5t50 -17.5t21 -42.5v-437q0 -66 44.5 -105.5t112.5 -39.5t112 39.5 t44 105.5v437q0 25 21 42.5t50 17.5t50 -17.5t21 -42.5v-437q0 -128 -83.5 -203t-214.5 -75q-132 0 -215.5 75t-83.5 203v437z" glyph-name="Uring" horiz-adv-x="717" unicode="Ů"/><glyph d="M354 727q0 11 -8 18.5t-18 7.5q-12 0 -20 -7.5t-8 -18.5q0 -12 8 -20t20 -8q11 0 18.5 8t7.5 20zM401 727q0 -31 -22 -53t-51 -22q-31 0 -53 22t-22 53q0 30 22 51.5t53 21.5q29 0 51 -21.5t22 -51.5zM455 52v475q0 25 20.5 42.5t49.5 17.5t49.5 -17.5t20.5 -42.5v-475 q0 -25 -20.5 -42.5t-49.5 -17.5t-49.5 17.5t-20.5 42.5zM200 527v-280q0 -61 33.5 -98t93.5 -30l19 2q20 2 37 -13t22 -39q5 -25 -5 -44.5t-30 -26.5q-36 -15 -86 -15q-101 0 -162.5 68t-61.5 178v298q0 25 20.5 42.5t49.5 17.5t49.5 -17.5t20.5 -42.5z" glyph-name="uring" unicode="ů"/><glyph d="M60 698q0 25 21 42.5t50 17.5t50 -17.5t21 -42.5v-437q0 -66 44.5 -105.5t112.5 -39.5t112 39.5t44 105.5v437q0 25 21 42.5t50 17.5t50 -17.5t21 -42.5v-437q0 -128 -83.5 -203t-214.5 -75q-132 0 -215.5 75t-83.5 203v437zM289 789q-14 5 -20.5 17t-2.5 24l29 73 q4 11 17 16t27 -1q14 -5 20.5 -17t2.5 -24l-29 -73q-4 -11 -17 -16t-27 1zM398 789q-14 5 -20.5 17t-2.5 24l29 73q4 11 17 16t27 -1q14 -5 20.5 -17t2.5 -24l-29 -73q-4 -11 -17 -16t-27 1z" glyph-name="Uhungarumlaut" horiz-adv-x="717" unicode="Ű"/><glyph d="M455 52v475q0 25 20.5 42.5t49.5 17.5t49.5 -17.5t20.5 -42.5v-475q0 -25 -20.5 -42.5t-49.5 -17.5t-49.5 17.5t-20.5 42.5zM200 527v-280q0 -61 33.5 -98t93.5 -30l19 2q20 2 37 -13t22 -39q5 -25 -5 -44.5t-30 -26.5q-36 -15 -86 -15q-101 0 -162.5 68t-61.5 178v298 q0 25 20.5 42.5t49.5 17.5t49.5 -17.5t20.5 -42.5zM258 626q-14 5 -20.5 17t-2.5 24l29 73q4 11 17 16t27 -1q14 -5 20.5 -17t2.5 -24l-29 -73q-4 -11 -17 -16t-27 1zM367 626q-14 5 -20.5 17t-2.5 24l29 73q4 11 17 16t27 -1q14 -5 20.5 -17t2.5 -24l-29 -73 q-4 -11 -17 -16t-27 1z" glyph-name="uhungarumlaut" unicode="ű"/><glyph d="M60 698q0 25 21 42.5t50 17.5t50 -17.5t21 -42.5v-437q0 -66 44.5 -105.5t112.5 -39.5t112 39.5t44 105.5v437q0 25 21 42.5t50 17.5t50 -17.5t21 -42.5v-437q0 -94 -47 -161t-128 -97q-36 -14 -36 -57q0 -26 17 -44t41 -18q5 0 12.5 2t12.5 2q11 1 19 -7.5t8 -19.5 q0 -26 -25.5 -37.5t-55.5 -11.5q-45 0 -76.5 31.5t-31.5 76.5q0 34 19 64q-4 0 -13 -0.5t-14 -0.5q-132 0 -215.5 75t-83.5 203v437z" glyph-name="Uogonek" horiz-adv-x="717" unicode="Ų"/><glyph d="M200 527v-280q0 -61 33.5 -98t93.5 -30l19 2q20 2 37 -13t22 -39q5 -25 -5 -44.5t-30 -26.5q-36 -15 -86 -15q-101 0 -162.5 68t-61.5 178v298q0 25 20.5 42.5t49.5 17.5t49.5 -17.5t20.5 -42.5zM455 52v475q0 25 20.5 42.5t49.5 17.5t49.5 -17.5t20.5 -42.5v-475 q0 -37 -34 -52q-36 -17 -36 -56q0 -24 17 -42t41 -18q5 0 12.5 2t12.5 2q11 1 19 -7.5t8 -19.5q0 -26 -25.5 -37.5t-55.5 -11.5q-45 0 -76.5 32.5t-31.5 77.5q0 49 36 82q-27 19 -27 48z" glyph-name="uogonek" unicode="ų"/><glyph d="M291 839q0 -21 -15 -36t-35 -15q-22 0 -37 15t-15 36q0 22 15 36.5t37 14.5q21 0 35.5 -15t14.5 -36zM489 839q0 -21 -14.5 -36t-36.5 -15q-21 0 -36 15t-15 36q0 22 15 36.5t36 14.5q22 0 36.5 -14.5t14.5 -36.5zM340 -8q-29 0 -50 17.5t-21 42.5v323q0 16 12 31 l259 332q16 20 43.5 20.5t49.5 -17.5q23 -18 29 -44.5t-10 -46.5l-241 -309v-289q0 -25 -21 -42.5t-50 -17.5zM140 738l132 -168q16 -20 10 -46.5t-29 -44.5q-22 -18 -49.5 -17t-43.5 20l-132 168q-16 20 -10 46.5t29 44.5q22 18 49.5 17.5t43.5 -20.5z" glyph-name="Ydieresis" horiz-adv-x="680" unicode="Ÿ"/><glyph d="M390 820l-126 -33q-12 -4 -20.5 7t-7 25.5t14.5 21.5l117 59q28 12 44 -16q15 -29 -2 -51q-7 -9 -20 -13zM30 90q0 44 27 69l383 452v2h-352q-24 0 -41 20t-17 48t17 48.5t41 20.5h462q31 0 53 -26.5t22 -63.5q0 -42 -28 -70l-381 -451v-2h351q24 0 41 -20.5t17 -48.5 t-17 -48t-41 -20h-462q-31 0 -53 26.5t-22 63.5z" glyph-name="Zacute" unicode="Ź"/><glyph d="M350 685l-126 -33q-12 -4 -20.5 7t-7 25.5t14.5 21.5l117 59q28 12 44 -16q15 -29 -2 -51q-7 -9 -20 -13zM546 63q0 -26 -15.5 -44.5t-37.5 -18.5h-408q-22 0 -38.5 19t-16.5 44q0 26 20 48l276 339v2h-243q-22 0 -37.5 19t-15.5 45t15.5 44.5t37.5 18.5h408 q22 0 37.5 -18.5t15.5 -44.5q0 -28 -18 -48l-276 -339v-2h243q22 0 37.5 -19t15.5 -45z" glyph-name="zacute" horiz-adv-x="576" unicode="ź"/><glyph d="M328 778q-32 0 -54.5 23t-22.5 54t22.5 54t54.5 23t54.5 -23t22.5 -54t-22.5 -54t-54.5 -23zM30 90q0 44 27 69l383 452v2h-352q-24 0 -41 20t-17 48t17 48.5t41 20.5h462q31 0 53 -26.5t22 -63.5q0 -42 -28 -70l-381 -451v-2h351q24 0 41 -20.5t17 -48.5t-17 -48 t-41 -20h-462q-31 0 -53 26.5t-22 63.5z" glyph-name="Zdotaccent" unicode="Ż"/><glyph d="M288 652q-32 0 -54.5 23t-22.5 54t22.5 54t54.5 23t54.5 -23t22.5 -54t-22.5 -54t-54.5 -23zM546 63q0 -26 -15.5 -44.5t-37.5 -18.5h-408q-22 0 -38.5 19t-16.5 44q0 26 20 48l276 339v2h-243q-22 0 -37.5 19t-15.5 45t15.5 44.5t37.5 18.5h408q22 0 37.5 -18.5 t15.5 -44.5q0 -28 -18 -48l-276 -339v-2h243q22 0 37.5 -19t15.5 -45z" glyph-name="zdotaccent" horiz-adv-x="576" unicode="ż"/><glyph d="M30 90q0 44 27 69l383 452v2h-352q-24 0 -41 20t-17 48t17 48.5t41 20.5h462q31 0 53 -26.5t22 -63.5q0 -42 -28 -70l-381 -451v-2h351q24 0 41 -20.5t17 -48.5t-17 -48t-41 -20h-462q-31 0 -53 26.5t-22 63.5zM268 918l60 -56l60 56q8 8 20.5 6t21.5 -12q9 -11 9.5 -23 t-9.5 -20l-77 -75q-11 -9 -25 -9q-16 0 -25 9l-78 75q-20 18 0 43q10 10 22.5 12t20.5 -6z" glyph-name="Zcaron" unicode="Ž"/><glyph d="M546 63q0 -26 -15.5 -44.5t-37.5 -18.5h-408q-22 0 -38.5 19t-16.5 44q0 26 20 48l276 339v2h-243q-22 0 -37.5 19t-15.5 45t15.5 44.5t37.5 18.5h408q22 0 37.5 -18.5t15.5 -44.5q0 -28 -18 -48l-276 -339v-2h243q22 0 37.5 -19t15.5 -45zM228 786l60 -56l60 56 q8 8 20.5 6t21.5 -12q9 -11 9.5 -23t-9.5 -20l-77 -75q-11 -9 -25 -9q-16 0 -25 9l-78 75q-20 18 0 43q10 10 22.5 12t20.5 -6z" glyph-name="zcaron" horiz-adv-x="576" unicode="ž"/><glyph d="M367 444h-220q-23 0 -37 19t-10 45t23 44.5t42 18.5h42l2 16q13 68 69 115.5t124 47.5h8q23 0 37.5 -19t10.5 -46t-23.5 -46t-42.5 -19h-8q-14 0 -26 -10t-13 -23l-2 -16h42q23 0 37 -18.5t10 -44.5t-23 -45t-42 -19zM310 334l-48 -341q-12 -68 -68 -116t-125 -48h-9 q-23 0 -37 19t-10 46t23 46t42 19h9q13 0 25 10t14 24l47 341q4 25 26.5 42.5t50.5 17.5t46 -17.5t14 -42.5z" glyph-name="florin" horiz-adv-x="471" unicode="ƒ"/><glyph d="M212 719l-60 -56q-8 -8 -20.5 -6t-22.5 12q-20 25 0 43l78 75q9 9 25 9q14 0 25 -9l77 -75q10 -8 9.5 -20t-9.5 -23q-9 -10 -21.5 -12t-20.5 6z" glyph-name="circumflex" horiz-adv-x="424" unicode="ˆ"/><glyph d="M152 786l60 -56l60 56q8 8 20.5 6t21.5 -12q9 -11 9.5 -23t-9.5 -20l-77 -75q-11 -9 -25 -9q-16 0 -25 9l-78 75q-20 18 0 43q10 10 22.5 12t20.5 -6z" glyph-name="caron" horiz-adv-x="424" unicode="ˇ"/><glyph d="M240 719q-28 -55 -91 -55t-91 55q-6 11 -2 24.5t17 20.5q14 7 28 4.5t19 -12.5q9 -21 29 -21t29 21q5 10 19 12.5t28 -4.5q13 -7 17 -20.5t-2 -24.5z" glyph-name="breve" horiz-adv-x="298" unicode="˘"/><glyph d="M137 652q-31 0 -54 23t-23 54t23 54t54 23t54 -23t23 -54t-23 -54t-54 -23z" glyph-name="dotaccent" horiz-adv-x="274" unicode="˙"/><glyph d="M201 727q0 11 -7.5 18.5t-18.5 7.5q-12 0 -20 -7.5t-8 -18.5q0 -12 8 -20t20 -8q11 0 18.5 8t7.5 20zM248 727q0 -31 -22 -53t-51 -22q-31 0 -53 22t-22 53q0 30 22 51.5t53 21.5q29 0 51 -21.5t22 -51.5z" glyph-name="ring" horiz-adv-x="348" unicode="˚"/><glyph d="M197 -116q5 0 12.5 2t12.5 2q11 1 19 -7.5t8 -19.5q0 -26 -25.5 -37.5t-55.5 -11.5q-45 0 -76.5 31.5t-31.5 76.5t31.5 76.5t76.5 31.5q11 0 29 -4v-24q-24 0 -41 -17t-17 -41t17 -41t41 -17z" glyph-name="ogonek" horiz-adv-x="309" unicode="˛"/><glyph d="M100 693q0 30 21.5 52t51.5 22q44 0 63 -39q6 -10 18 -10q19 0 19 19q0 9 8 15.5t19 6.5t19 -6.5t8 -15.5q0 -32 -21.5 -53t-51.5 -21q-43 0 -65 38q-5 11 -16 11q-19 0 -19 -19q0 -9 -8 -15.5t-19 -6.5t-19 6.5t-8 15.5z" glyph-name="tilde" horiz-adv-x="427" unicode="˜"/><glyph d="M79 626q-14 5 -20.5 17t-2.5 24l29 73q4 11 17 16t27 -1q14 -5 20.5 -17t2.5 -24l-29 -73q-4 -11 -17 -16t-27 1zM188 626q-14 5 -20.5 17t-2.5 24l29 73q4 11 17 16t27 -1q14 -5 20.5 -17t2.5 -24l-29 -73q-4 -11 -17 -16t-27 1z" glyph-name="hungarumlaut" horiz-adv-x="317" unicode="˝"/><glyph d="M610 453h-94v-336q0 -31 28 -31q13 0 26 4v-107q-24 -3 -31 -3q-82 0 -120.5 32.5t-38.5 112.5v328h-120v-453h-136v453h-94v126h580v-126z" glyph-name="pi" horiz-adv-x="640" unicode="π"/><glyph d="M37 289q0 21 12.5 36t29.5 15h469q17 0 29.5 -15t12.5 -36t-12.5 -36t-29.5 -15h-469q-17 0 -29.5 15t-12.5 36z" glyph-name="endash" horiz-adv-x="619" unicode="–"/><glyph d="M37 289q0 21 12.5 36t29.5 15h758q17 0 29.5 -15t12.5 -36t-12.5 -36t-29.5 -15h-758q-17 0 -29.5 15t-12.5 36z" glyph-name="emdash" horiz-adv-x="909" unicode="—"/><glyph d="M194 727q0 -13 -8.5 -21.5t-20.5 -8.5q-22 0 -36 -15t-15 -39q5 2 13 2q31 0 54 -22.5t23 -54.5t-23 -54.5t-54 -22.5t-54 22.5t-23 54.5v74q0 48 33.5 82t81.5 34q12 0 20.5 -9t8.5 -22z" glyph-name="quoteleft" horiz-adv-x="234" unicode="‘"/><glyph d="M40 522q0 13 8.5 21.5t20.5 8.5q22 0 36 15t15 39q-5 -2 -13 -2q-31 0 -54 23t-23 54t23 54t54 23t54 -23t23 -54v-74q0 -48 -33.5 -82t-81.5 -34q-12 0 -20.5 9t-8.5 22z" glyph-name="quoteright" horiz-adv-x="234" unicode="’"/><glyph d="M60 -90q0 13 8.5 21.5t20.5 8.5q22 0 36 15t15 39q-5 -2 -13 -2q-31 0 -54 23t-23 54t23 54t54 23t54 -23t23 -54v-74q0 -48 -33.5 -82t-81.5 -34q-12 0 -20.5 9t-8.5 22z" glyph-name="quotesinglbase" horiz-adv-x="234" unicode="‚"/><glyph d="M194 727q0 -13 -8.5 -21.5t-20.5 -8.5q-22 0 -36 -15t-15 -39q5 2 13 2q31 0 54 -22.5t23 -54.5t-23 -54.5t-54 -22.5t-54 22.5t-23 54.5v74q0 48 33.5 82t81.5 34q12 0 20.5 -9t8.5 -22zM378 727q0 -13 -8.5 -21.5t-20.5 -8.5q-22 0 -36 -15t-15 -39q5 2 13 2 q31 0 54 -22.5t23 -54.5t-23 -54.5t-54 -22.5t-54 22.5t-23 54.5v74q0 48 33.5 82t81.5 34q12 0 20.5 -9t8.5 -22z" glyph-name="quotedblleft" horiz-adv-x="418" unicode="“"/><glyph d="M224 522q0 13 8.5 21.5t20.5 8.5q22 0 36 15t15 39q-5 -2 -13 -2q-31 0 -54 23t-23 54t23 54t54 23t54 -23t23 -54v-74q0 -48 -33.5 -82t-81.5 -34q-12 0 -20.5 9t-8.5 22zM40 522q0 13 8.5 21.5t20.5 8.5q22 0 36 15t15 39q-5 -2 -13 -2q-31 0 -54 23t-23 54t23 54 t54 23t54 -23t23 -54v-74q0 -48 -33.5 -82t-81.5 -34q-12 0 -20.5 9t-8.5 22z" glyph-name="quotedblright" horiz-adv-x="418" unicode="”"/><glyph d="M40 -90q0 13 8.5 21.5t20.5 8.5q22 0 36 15t15 39q-5 -2 -13 -2q-31 0 -54 23t-23 54t23 54t54 23t54 -23t23 -54v-74q0 -48 -33.5 -82t-81.5 -34q-12 0 -20.5 9t-8.5 22zM224 -90q0 13 8.5 21.5t20.5 8.5q22 0 36 15t15 39q-5 -2 -13 -2q-31 0 -54 23t-23 54t23 54 t54 23t54 -23t23 -54v-74q0 -48 -33.5 -82t-81.5 -34q-12 0 -20.5 9t-8.5 22z" glyph-name="quotedblbase" horiz-adv-x="418" unicode="„"/><glyph d="M412 477h-317q-18 0 -30.5 15t-12.5 36t12.5 36t30.5 15h109v136q0 18 15 30.5t36 12.5t36 -12.5t15 -30.5v-136h106q18 0 30 -15t12 -36t-12 -36t-30 -15zM306 390v-440q0 -18 -15 -30t-36 -12t-36 12t-15 30v440q0 18 15 30t36 12t36 -12t15 -30z" glyph-name="dagger" horiz-adv-x="506" unicode="†"/><glyph d="M412 477h-317q-18 0 -30.5 15t-12.5 36t12.5 36t30.5 15h109v136q0 18 15 30.5t36 12.5t36 -12.5t15 -30.5v-136h106q18 0 30 -15t12 -36t-12 -36t-30 -15zM412 85h-106v-135q0 -18 -15 -30t-36 -12t-36 12t-15 30v135h-109q-18 0 -30.5 15t-12.5 36t12.5 36t30.5 15h317 q18 0 30 -15t12 -36t-12 -36t-30 -15zM204 274v116q0 18 15 30t36 12t36 -12t15 -30v-116q0 -18 -15 -30t-36 -12t-36 12t-15 30z" glyph-name="daggerdbl" horiz-adv-x="506" unicode="‡"/><glyph d="M220 171q-50 0 -85 35t-35 84t35 84t85 35q49 0 84 -35t35 -84t-35 -84t-84 -35z" glyph-name="bullet" horiz-adv-x="439" unicode="•"/><glyph d="M807 69q0 32 22.5 54.5t54.5 22.5t54 -22.5t22 -54.5t-22 -54.5t-54 -22.5t-54.5 22.5t-22.5 54.5zM421 69q0 31 22.5 54t54.5 23t54.5 -23t22.5 -54t-22.5 -54t-54.5 -23t-54.5 23t-22.5 54zM35 69q0 31 22.5 54t54.5 23t54.5 -23t22.5 -54t-22.5 -54t-54.5 -23 t-54.5 23t-22.5 54z" glyph-name="ellipsis" horiz-adv-x="995" unicode="…"/><glyph d="M136 74l447 667q10 14 29.5 16t36.5 -9q16 -12 21 -31t-5 -33l-447 -667q-10 -15 -29.5 -16.5t-35.5 9.5q-17 12 -22 31t5 33zM390 595q0 -71 -52 -122t-123 -51t-123 51t-52 122q0 70 52 121t123 51t123 -51t52 -121zM283 595q0 28 -20 48t-48 20q-27 0 -47.5 -20 t-20.5 -48t20.5 -48.5t47.5 -20.5q28 0 48 20t20 49zM759 157q0 -71 -52 -122t-123 -51t-123 51t-52 122q0 70 52 121t123 51t123 -51t52 -121zM652 157q0 28 -20 48t-48 20q-27 0 -47.5 -20t-20.5 -48t20.5 -48.5t47.5 -20.5q28 0 48 20t20 49zM1139 157q0 -71 -52 -122 t-123 -51t-123 51t-52 122q0 70 52 121t123 51t123 -51t52 -121zM1032 157q0 28 -20 48t-48 20q-27 0 -47.5 -20t-20.5 -48t20.5 -48.5t47.5 -20.5q28 0 48 20t20 49z" glyph-name="perthousand" horiz-adv-x="1179" unicode="‰"/><glyph d="M44 323l149 149q12 13 31.5 11t35.5 -17q14 -15 16 -34.5t-11 -32.5l-109 -109l111 -113q13 -12 11.5 -31.5t-15.5 -33.5q-15 -14 -34 -15.5t-31 11.5l-148 148q-15 15 -17 34.5t11 32.5z" glyph-name="guilsinglleft" horiz-adv-x="311" unicode="‹"/><glyph d="M118 472l149 -149q13 -13 11 -32.5t-17 -34.5l-148 -148q-12 -13 -31 -11.5t-34 15.5q-14 14 -15.5 33.5t11.5 31.5l111 113l-109 109q-13 13 -11 32.5t16 34.5q16 15 35.5 17t31.5 -11z" glyph-name="guilsinglright" horiz-adv-x="311" unicode="›"/><glyph d="M62 27l300 718q4 10 14.5 13t20.5 -2q25 -11 17 -33l-300 -718q-4 -10 -14.5 -13t-20.5 2q-25 11 -17 33z" glyph-name="fraction" horiz-adv-x="476" unicode="⁄"/><glyph d="M229 400h-165q-16 0 -26.5 12.5t-10.5 30.5t10.5 30.5t26.5 12.5h60q30 127 111 204t201 77q76 0 130 -31.5t102 -95.5q15 -25 4.5 -47t-29.5 -37.5t-44.5 -14.5t-41.5 23q-50 66 -121 66q-68 0 -118.5 -57t-50.5 -130q0 -18 -11 -30.5t-27 -12.5zM356 486h223 q16 0 27 -12.5t11 -30.5t-11 -30.5t-27 -12.5h-223q-16 0 -27 12.5t-11 30.5t11 30.5t27 12.5zM64 350h165q16 0 27 -12.5t11 -30.5q0 -73 50.5 -130t118.5 -57q71 0 121 66q16 22 41.5 23t44.5 -14.5t29.5 -37.5t-4.5 -47q-48 -64 -102 -95.5t-130 -31.5q-120 0 -201 77 t-111 204h-60q-16 0 -26.5 12.5t-10.5 30.5t10.5 30.5t26.5 12.5zM499 264h-143q-16 0 -27 12.5t-11 30.5t11 30.5t27 12.5h143q16 0 27 -12.5t11 -30.5t-11 -30.5t-27 -12.5z" glyph-name="Euro" horiz-adv-x="716" unicode="€"/><glyph d="M323 750v-150h-28v82h-1l-32 -82h-28l-33 82h-1v-82h-27v150h27l47 -113h2l46 113h28zM40 750h117v-28h-44v-122h-28v122h-45v28z" glyph-name="trademark" horiz-adv-x="363" unicode="™"/><glyph d="M844 375q0 -33 -8.5 -64.5t-16.5 -51t-29 -48t-29 -37.5t-33 -36v-2h89v-136h-283v136q73 28 118.5 93.5t45.5 145.5q0 106 -75 180.5t-181 74.5t-180.5 -74.5t-74.5 -180.5q0 -81 45 -146t119 -93v-136h-284v136h90v2q-29 31 -41.5 46.5t-34.5 48t-31.5 67t-9.5 75.5 q0 167 116.5 279.5t285.5 112.5t285.5 -112.5t116.5 -279.5z" glyph-name="uni2126" horiz-adv-x="884" unicode="Ω"/><glyph d="M656 339q0 -157 -86 -256.5t-222 -99.5q-132 0 -220 82t-88 216q0 110 75 186t183 76q143 0 208 -95l3 2q0 51 -18 90t-48.5 61t-65 32.5t-72.5 10.5q-35 0 -77 -13t-72 -35v132q28 15 76 26.5t83 11.5q341 0 341 -427zM508 279q0 67 -46.5 113.5t-113.5 46.5 t-113.5 -46.5t-46.5 -113.5t46.5 -113.5t113.5 -46.5t113.5 46.5t46.5 113.5z" glyph-name="partialdiff" horiz-adv-x="696" unicode="∂"/><glyph d="M20 0l225 750h102l225 -750h-552zM158 102h276l-137 466h-4z" glyph-name="uni2206" horiz-adv-x="592" unicode="∆"/><glyph d="M605 613h-94v-613h-136v613h-119v-613h-137v613h-94v137h580v-137z" glyph-name="product" horiz-adv-x="630" unicode="∏"/><glyph d="M536 136v-136h-511v136l239 239l-239 238v137h511v-137h-317v-2l238 -236l-238 -237v-2h317z" glyph-name="summation" horiz-adv-x="561" unicode="∑"/><glyph d="M42 289q0 21 12.5 36t29.5 15h512q17 0 29.5 -15t12.5 -36t-12.5 -36t-29.5 -15h-512q-17 0 -29.5 15t-12.5 36z" glyph-name="minus" horiz-adv-x="680" unicode="−"/><glyph d="M210 308l67 -171h4l100 613h111l-132 -750h-132l-66 175h-4l-23 -72h-105l79 205h101z" glyph-name="radical" horiz-adv-x="522" unicode="√"/><glyph d="M359 347q61 96 143 96q67 0 116.5 -44.5t49.5 -108.5q0 -65 -49.5 -109.5t-116.5 -44.5q-81 0 -143 93q-62 -93 -143 -93q-67 0 -116.5 44.5t-49.5 109.5q0 64 49.5 108.5t116.5 44.5q82 0 143 -96zM591 289q0 38 -26 64t-63 26q-54 0 -107 -91q52 -87 107 -87 q38 0 63.5 25.5t25.5 62.5zM323 288q-53 91 -107 91q-37 0 -63 -26t-26 -64q0 -37 25.5 -62.5t63.5 -25.5q55 0 107 87z" glyph-name="infinity" horiz-adv-x="718" unicode="∞"/><glyph d="M100 -21l-2 632q1 64 42.5 102t100.5 38h79v-110h-41q-16 0 -27 -11.5t-12 -28.5l2 -632q-1 -64 -42.5 -102t-100.5 -38h-79v110h41q16 0 27 11.5t12 28.5z" glyph-name="integral" horiz-adv-x="340" unicode="∫"/><glyph d="M50 154v102q8 3 22.5 8.5t54 15.5t74.5 13t75 -5t64 -32t62.5 -32.5t76.5 -4t72.5 12.5t56.5 16l21 8v-102q-8 -3 -22.5 -8.5t-54 -15.5t-74.5 -13t-74 5t-63 32t-63 32.5t-77 4t-73 -12.5t-56 -16zM50 323v103q8 3 22.5 8.5t54 15.5t74.5 13t75 -5t64 -32t62.5 -33 t76.5 -4.5t72.5 12.5t56.5 17l21 8v-103q-8 -3 -22.5 -8.5t-54 -15.5t-74.5 -13t-74 5t-63 32t-63 33t-77 4.5t-73 -12.5t-56 -16z" glyph-name="approxequal" horiz-adv-x="679" unicode="≈"/><glyph d="M42 205q0 21 12.5 36t29.5 15h151l68 68h-219q-17 0 -29.5 15t-12.5 36t12.5 36t29.5 15h321l101 101q12 13 31.5 11t34.5 -17t17 -34.5t-11 -31.5l-29 -29h47q17 0 29.5 -15t12.5 -36t-12.5 -36t-29.5 -15h-149l-68 -68h217q17 0 29.5 -15t12.5 -36t-12.5 -36t-29.5 -15 h-319l-103 -103q-12 -13 -31.5 -11t-34.5 17t-17 34.5t11 31.5l31 31h-49q-17 0 -29.5 15t-12.5 36z" glyph-name="notequal" horiz-adv-x="680" unicode="≠"/><glyph d="M32 387q0 61 48 82l244 115q16 7 33.5 -1.5t26.5 -27.5t4 -37.5t-21 -26.5l-222 -102v-4l222 -102q16 -8 21 -26.5t-4 -37.5t-26.5 -27.5t-33.5 -1.5l-244 114q-48 21 -48 83zM32 51q0 21 12.5 36t29.5 15h274q17 0 29.5 -15t12.5 -36t-12.5 -36t-29.5 -15h-274 q-17 0 -29.5 15t-12.5 36z" glyph-name="lessequal" horiz-adv-x="422" unicode="≤"/><glyph d="M390 387q0 -62 -48 -83l-244 -114q-16 -7 -33.5 1.5t-26.5 27.5t-4 37.5t21 26.5l222 102v4l-222 102q-16 8 -21 26.5t4 37.5t26.5 27.5t33.5 1.5l244 -115q48 -21 48 -82zM390 51q0 -21 -12.5 -36t-29.5 -15h-274q-17 0 -29.5 15t-12.5 36t12.5 36t29.5 15h274 q17 0 29.5 -15t12.5 -36z" glyph-name="greaterequal" horiz-adv-x="422" unicode="≥"/><glyph d="M517 375l-187 -375h-102l-188 375l188 375h102zM154 375l124 -249h2l123 249l-123 249h-2z" glyph-name="lozenge" horiz-adv-x="557" unicode="◊"/><glyph glyph-name="uniF8FF" horiz-adv-x="500" unicode=""/><glyph d="M437 52v403h-368q-22 0 -37.5 18.5t-15.5 43.5t15.5 43.5t37.5 18.5h17v27q0 69 51 115t123 46q62 0 113 -44q17 -14 18 -40t-15 -46q-17 -21 -42 -23.5t-45 11.5q-18 12 -29 12q-14 0 -24 -10.5t-10 -23.5v-24h281q29 0 49.5 -17.5t20.5 -42.5v-467q0 -25 -20.5 -42.5 t-49.5 -17.5t-49.5 17.5t-20.5 42.5zM156 405q28 0 49 -17.5t21 -41.5v-295q0 -24 -21 -41.5t-49 -17.5t-49 17.5t-21 41.5v295q0 24 21 41.5t49 17.5zM428 692q0 33 23 56t56 23t56 -23t23 -56t-23 -56t-56 -23t-56 23t-23 56z" glyph-name="uniFB01" horiz-adv-x="637" unicode="ﬁ"/><glyph d="M69 579h17v10q0 67 49.5 114t120.5 47h251q29 0 49.5 -17.5t20.5 -42.5v-638q0 -25 -20.5 -42.5t-49.5 -17.5t-49.5 17.5t-20.5 42.5v572h-178q-14 0 -24.5 -10.5t-10.5 -24.5v-10h52q22 0 37.5 -18.5t15.5 -43.5t-15.5 -43.5t-37.5 -18.5h-207q-22 0 -37.5 18.5 t-15.5 43.5t15.5 43.5t37.5 18.5zM156 405q28 0 49 -17.5t21 -41.5v-295q0 -24 -21 -41.5t-49 -17.5t-49 17.5t-21 41.5v295q0 24 21 41.5t49 17.5z" glyph-name="uniFB02" horiz-adv-x="637" unicode="ﬂ"/><glyph d="M777 52v403h-708q-22 0 -37.5 18.5t-15.5 43.5t15.5 43.5t37.5 18.5h17v27q0 69 51 115t123 46q62 0 113 -44q17 -14 18 -40t-15 -46q-17 -21 -42 -23.5t-45 11.5q-18 12 -29 12q-14 0 -24 -10.5t-10 -23.5v-24h200v27q0 69 51 115t123 46q62 0 113 -44q17 -14 18 -40 t-15 -46q-17 -21 -42 -23.5t-45 11.5q-18 12 -29 12q-14 0 -24 -10.5t-10 -23.5v-24h281q29 0 49.5 -17.5t20.5 -42.5v-467q0 -25 -20.5 -42.5t-49.5 -17.5t-49.5 17.5t-20.5 42.5zM496 405q28 0 49 -17.5t21 -41.5v-295q0 -24 -21 -41.5t-49 -17.5t-49 17.5t-21 41.5v295 q0 24 21 41.5t49 17.5zM156 405q28 0 49 -17.5t21 -41.5v-295q0 -24 -21 -41.5t-49 -17.5t-49 17.5t-21 41.5v295q0 24 21 41.5t49 17.5zM768 692q0 33 23 56t56 23t56 -23t23 -56t-23 -56t-56 -23t-56 23t-23 56z" glyph-name="uniFB03" horiz-adv-x="976" unicode="ﬃ"/><glyph d="M289 625q-18 12 -29 12q-14 0 -24 -10.5t-10 -23.5v-24h204v10q0 67 49.5 114t120.5 47h251q29 0 49.5 -17.5t20.5 -42.5v-638q0 -25 -20.5 -42.5t-49.5 -17.5t-49.5 17.5t-20.5 42.5v572h-178q-14 0 -24.5 -10.5t-10.5 -24.5v-10h52q22 0 37.5 -18.5t15.5 -43.5 t-15.5 -43.5t-37.5 -18.5h-551q-22 0 -37.5 18.5t-15.5 43.5t15.5 43.5t37.5 18.5h17v27q0 69 51 115t123 46q62 0 113 -44q17 -14 18 -40t-15 -46q-17 -21 -42 -23.5t-45 11.5zM500 405q28 0 49 -17.5t21 -41.5v-295q0 -24 -21 -41.5t-49 -17.5t-49 17.5t-21 41.5v295 q0 24 21 41.5t49 17.5zM156 405q28 0 49 -17.5t21 -41.5v-295q0 -24 -21 -41.5t-49 -17.5t-49 17.5t-21 41.5v295q0 24 21 41.5t49 17.5z" glyph-name="uniFB04" horiz-adv-x="981" unicode="ﬄ"/><glyph d="M653 290q0 -128 -89.5 -217.5t-217.5 -89.5q-127 0 -216.5 90t-89.5 217t89.5 216.5t216.5 89.5t217 -89.5t90 -216.5zM617 290q0 112 -79 191t-192 79q-112 0 -191 -79t-79 -191t79 -191.5t191 -79.5q113 0 192 79.5t79 191.5zM219 130v319q0 13 10.5 21.5t25.5 8.5h129 q55 0 93.5 -36.5t38.5 -91.5q0 -54 -38.5 -91t-93.5 -37h-94v-93q0 -12 -10.5 -21t-24.5 -9q-15 0 -25.5 9t-10.5 21zM444 351q0 25 -17.5 42.5t-42.5 17.5h-94v-119h94q25 0 42.5 17t17.5 42z" glyph-name="uniFB05" horiz-adv-x="693" unicode="ﬅ"/><glyph d="M426 579v80q0 24 21 41.5t49 17.5t49 -17.5t21 -41.5v-80h50q22 0 37.5 -18.5t15.5 -43.5t-15.5 -43.5t-37.5 -18.5h-547q-22 0 -37.5 18.5t-15.5 43.5t15.5 43.5t37.5 18.5h17v27q0 69 51 115t123 46q62 0 113 -44q17 -14 18 -40t-15 -46q-17 -21 -42 -23.5t-45 11.5 q-18 12 -29 12q-14 0 -24 -10.5t-10 -23.5v-24h200zM156 405q28 0 49 -17.5t21 -41.5v-295q0 -24 -21 -41.5t-49 -17.5t-49 17.5t-21 41.5v295q0 24 21 41.5t49 17.5zM496 405q28 0 49 -17.5t21 -41.5v-175q0 -15 10 -25t24 -10h16q22 0 37.5 -20t15.5 -48t-15.5 -48 t-37.5 -20h-26q-80 0 -122 44.5t-42 126.5v175q0 24 21 41.5t49 17.5z" glyph-name="uniFB06" horiz-adv-x="685" unicode="ﬆ"/><glyph d="M426 579v80q0 24 21 41.5t49 17.5t49 -17.5t21 -41.5v-80h50q22 0 37.5 -18.5t15.5 -43.5t-15.5 -43.5t-37.5 -18.5h-547q-22 0 -37.5 18.5t-15.5 43.5t15.5 43.5t37.5 18.5h17v80q0 24 21 41.5t49 17.5t49 -17.5t21 -41.5v-80h200zM156 405q28 0 49 -17.5t21 -41.5v-175 q0 -15 10 -25t24 -10h16q22 0 37.5 -20t15.5 -48t-15.5 -48t-37.5 -20h-26q-80 0 -122 44.5t-42 126.5v175q0 24 21 41.5t49 17.5zM496 405q28 0 49 -17.5t21 -41.5v-175q0 -15 10 -25t24 -10h16q22 0 37.5 -20t15.5 -48t-15.5 -48t-37.5 -20h-26q-80 0 -122 44.5t-42 126.5 v175q0 24 21 41.5t49 17.5z" glyph-name="uniFB07" horiz-adv-x="685" unicode="﬇"/><glyph glyph-name="glyph317" horiz-adv-x="501"/></font>
</defs>
</svg>
