<?xml version="1.0" standalone="no"?>
<!DOCTYPE svg PUBLIC "-//W3C//DTD SVG 1.1//EN" "http://www.w3.org/Graphics/SVG/1.1/DTD/svg11.dtd">
<svg xmlns="http://www.w3.org/2000/svg"><metadata>This SVG WebFont was generated by YouWorkForThem.
Copyright (c) Olivier Gourvat - Mostardesign Studio, 2012. All rights reserved.</metadata><defs><font horiz-adv-x="1142" id="ywftsvg"><font-face ascent="1536" bbox="-350 -528 2447 2222" cap-height="1411" descent="-512" font-family="" font-stretch="normal" font-weight="400" panose-1="2 11 0 0 0 0 0 0 0 0" underline-position="0" underline-thickness="0" unicode-range="U+0020-FB04" units-per-em="2048" x-height="956"/><missing-glyph d="M164 0l239 1362h973l-239 -1362h-973zM843.5 1053q65.5 0 106.5 -42.5t30 -104.5q-10 -62 -60 -101t-82 -47q-96 -27 -154.5 -78t-75.5 -148l-14 -77h127l12 77q6 45 35.5 67.5t103.5 42.5t143.5 92t90.5 182t-51 187t-190 77t-213 -82t-120 -215h127q14 76 66.5 123 t118 47zM607 180q38 0 70 25.5t40 62.5t-15.5 62.5t-62.5 25.5t-70 -24.5t-39 -62.5t15.5 -63.5t61.5 -25.5z" horiz-adv-x="1300"/><glyph d="M1530 1346q-131 0 -182.5 -88.5t-65.5 -190.5l-18 -111h235l-22 -122h-236l-145 -834h-138l146 834h-576l-145 -834h-137l145 834h-186l22 122h187l18 111q31 186 131.5 297t278.5 111h102l-24 -129h-103q-131 0 -181 -86.5t-67 -192.5l-18 -111h575l19 111 q31 186 131 297t278 111h103l-25 -129h-102z" glyph-name="uniFB00" horiz-adv-x="1386" unicode="ff"/><glyph d="M842 1475h102l-24 -129h-103q-131 0 -181 -86.5t-67 -192.5l-18 -111h678l-168 -956h-135l145 834h-543l-145 -834h-137l145 834h-186l22 122h187l18 111q31 186 131.5 297t278.5 111zM1243 1411q43 0 69.5 -27.5t18.5 -70.5t-43 -71t-78 -28t-69.5 28t-18.5 71t43 70.5 t78 27.5z" glyph-name="uniFB01" horiz-adv-x="1222" unicode="fi"/><glyph d="M842 1475h450l-262 -1475h-135l238 1346h-316q-131 0 -181 -86.5t-67 -192.5l-18 -111h235l-22 -122h-236l-145 -834h-137l145 834h-186l22 122h187l18 111q74 408 410 408z" glyph-name="uniFB02" horiz-adv-x="1196" unicode="fl"/><glyph d="M842 1475h102l-24 -129h-103q-131 0 -181 -86.5t-67 -192.5l-18 -111h575l19 111q31 186 131 297t278 111h103l-25 -129h-102q-131 0 -182.5 -88.5t-65.5 -190.5l-18 -111h678l-168 -956h-136l146 834h-543l-145 -834h-138l146 834h-576l-145 -834h-137l145 834h-186 l22 122h187l18 111q31 186 131.5 297t278.5 111zM1956 1411q43 0 69.5 -27.5t18.5 -70.5t-43 -71t-78 -28t-69.5 28t-18.5 71t43 70.5t78 27.5z" glyph-name="uniFB03" horiz-adv-x="1935" unicode="ffi"/><glyph d="M1530 1346q-131 0 -182.5 -88.5t-65.5 -190.5l-18 -111h235l-22 -122h-236l-145 -834h-138l146 834h-576l-145 -834h-137l145 834h-186l22 122h187l18 111q31 186 131.5 297t278.5 111h102l-24 -129h-103q-131 0 -181 -86.5t-67 -192.5l-18 -111h575l19 111 q74 408 409 408h451l-262 -1475h-135l237 1346h-315z" glyph-name="uniFB04" horiz-adv-x="1908" unicode="ffl"/><glyph d="M1380 -334q132 0 183 88t65 191l156 889h-543l-145 -834h-138l146 834h-576l-145 -834h-137l145 834h-186l22 122h187l18 111q31 186 131.5 297t278.5 111h102l-24 -129h-103q-131 0 -181 -86.5t-67 -192.5l-18 -111h575l19 111q31 186 131 297t278 111h103l-25 -129 h-102q-131 0 -182.5 -88.5t-65.5 -190.5l-18 -111h680l-179 -1011q-74 -408 -409 -408h-103l25 129h102zM1956 1411q43 0 69.5 -27.5t18.5 -70.5t-43 -71t-78 -28t-69.5 28t-18.5 71t43 70.5t78 27.5z" glyph-name="f_f_j.liga" horiz-adv-x="1937" unicode="ffj"/><glyph d="M668 -334q130 0 181 86.5t66 192.5l156 889h-543l-145 -834h-137l145 834h-186l22 122h187l18 111q31 186 131.5 297t278.5 111h102l-24 -129h-103q-131 0 -181 -86.5t-67 -192.5l-18 -111h680l-178 -1011q-74 -408 -410 -408h-102l24 129h103zM1243 1411 q43 0 69.5 -27.5t18.5 -70.5t-43 -71t-78 -28t-69.5 28t-18.5 71t43 70.5t78 27.5z" glyph-name="f_j.liga" horiz-adv-x="1224" unicode="fj"/><glyph d="M164 0l239 1362h973l-239 -1362h-973zM843.5 1053q65.5 0 106.5 -42.5t30 -104.5q-10 -62 -60 -101t-82 -47q-96 -27 -154.5 -78t-75.5 -148l-14 -77h127l12 77q6 45 35.5 67.5t103.5 42.5t143.5 92t90.5 182t-51 187t-190 77t-213 -82t-120 -215h127q14 76 66.5 123 t118 47zM607 180q38 0 70 25.5t40 62.5t-15.5 62.5t-62.5 25.5t-70 -24.5t-39 -62.5t15.5 -63.5t61.5 -25.5z" glyph-name=".notdef" horiz-adv-x="1300"/><glyph glyph-name="glyph1" horiz-adv-x="0"/><glyph glyph-name="glyph2" horiz-adv-x="681"/><glyph glyph-name="space" horiz-adv-x="544" unicode=" "/><glyph d="M299 193q47 0 73.5 -31t18.5 -76t-46 -75.5t-85 -30.5t-74.5 30.5t-19.5 75.5t47 76t86 31zM582 1411l-195 -1032h-111l170 1032h136z" glyph-name="exclam" horiz-adv-x="532" unicode="!"/><glyph d="M410 1411h108l-98 -555h-109zM645 1411h109l-99 -555h-108z" glyph-name="quotedbl" horiz-adv-x="667" unicode="&quot;"/><glyph d="M1225 1051h229l-59 -127h-230l-198 -439h229l-57 -127h-230l-159 -358h-127l159 358h-295l-159 -358h-125l159 358h-225l58 127h225l196 439h-223l58 127h225l162 360h127l-162 -360h295l162 360h126zM743 924l-198 -439h295l198 439h-295z" glyph-name="numbersign" horiz-adv-x="1343" unicode="#"/><glyph d="M580 115q144 0 246 68.5t139 162.5q39 121 -24.5 194.5t-192.5 104.5l-183 43q-315 74 -266 354q29 158 167 265.5t306 117.5l37 195h102l-37 -197q162 -20 248 -127.5t58 -271.5h-136q20 121 -53 194.5t-201 73.5t-233.5 -70.5t-124.5 -179.5q-29 -172 189 -223l182 -43 q180 -43 266 -154.5t25 -299.5q-49 -127 -174 -224.5t-299 -113.5l-41 -234h-103l41 232q-182 12 -277.5 140t-68.5 284h135q-20 -113 54.5 -202t218.5 -89z" glyph-name="dollar" horiz-adv-x="1134" unicode="$"/><glyph d="M1296 1378l-917 -1378h-96l917 1378h96zM596 1378q115 0 180.5 -80.5t45.5 -194.5t-115 -193t-209.5 -79t-179 79t-44.5 194q23 115 115 194.5t207 79.5zM518.5 948q65.5 0 120.5 45t65.5 110.5t-28.5 112t-104 46.5t-118 -46.5t-63 -112t26 -110.5t101.5 -45zM1078 526 q114 0 180.5 -79.5t46 -194.5t-114.5 -193.5t-209 -78.5t-179.5 78.5t-44 193.5t113.5 194.5t207 79.5zM1001.5 96q65.5 0 120 45t66.5 109t-26 112t-103.5 48t-118.5 -46.5t-65.5 -112t24.5 -110.5t102.5 -45z" glyph-name="percent" horiz-adv-x="1339" unicode="%"/><glyph d="M1004 1180q-40 112 -200 112q-83 0 -158 -59t-91 -149.5t34 -152t144 -61.5h320l34 181h134l-35 -183h188l-22 -120h-187l-57 -318q-12 -90 -12 -161.5t45 -115.5t137 -44l-25 -129q-117 0 -191.5 52t-86.5 138q-63 -86 -176 -138t-230 -52q-201 0 -306 129t-73 321 q20 123 104.5 226.5t205.5 162.5q-111 99 -82 253t150.5 254.5t273.5 100.5q104 0 181 -48t110 -128zM707 748q-137 0 -248 -94.5t-133 -226.5t51.5 -222t214.5 -90t245.5 86t135.5 215l57 332h-323z" glyph-name="ampersand" horiz-adv-x="1359" unicode="&amp;"/><glyph d="M410 1411h108l-98 -555h-109z" glyph-name="quotesingle" horiz-adv-x="432" unicode="'"/><glyph d="M569 -477q-248 0 -351 252.5t-24 700.5t272 699.5t441 251.5l-24 -135q-188 0 -337.5 -216t-217.5 -600t5 -601t259 -217z" glyph-name="parenleft" horiz-adv-x="739" unicode="("/><glyph d="M2 -477l18 135q186 0 337 217t219 602t-5 600t-260 215l25 135q248 0 351.5 -251.5t24.5 -697.5t-271.5 -700.5t-438.5 -254.5z" glyph-name="parenright" horiz-adv-x="739" unicode=")"/><glyph d="M670 948l-215 -250l-99 86l230 232l-277 82l72 137l260 -107q29 250 35 299h149l-69 -299l301 107l16 -137l-301 -78q31 -53 148 -238q-23 -14 -132 -82z" glyph-name="asterisk" horiz-adv-x="997" unicode="*"/><glyph d="M573 604l64 352h129l-64 -352h355l-23 -129h-354l-64 -354h-129l64 354h-352l22 129h352z" glyph-name="plus" horiz-adv-x="1069" unicode="+"/><glyph d="M90 -270l-86 28q170 197 203 432h158q-39 -164 -117 -283.5t-158 -176.5z" glyph-name="comma" horiz-adv-x="499" unicode=","/><glyph d="M242 543h698l-25 -129h-698z" glyph-name="hyphen" horiz-adv-x="993" unicode="-"/><glyph d="M293 193q47 0 73.5 -31t18.5 -76t-46 -75.5t-85 -30.5t-74.5 30.5t-19.5 75.5t47 76t86 31z" glyph-name="period" horiz-adv-x="520" unicode="."/><glyph d="M1153 1411l-938 -1411h-149l938 1411h149z" glyph-name="slash" horiz-adv-x="968" unicode="/"/><glyph d="M1202 1224.5q51 -153.5 51 -272t-26.5 -274.5t-69.5 -273.5t-112.5 -218t-177 -153.5t-247 -53t-229.5 55t-142 206.5t9 436.5q54 305 192 502.5t420 197.5q281 0 332 -153.5zM645 115q195 0 297 149.5t150 413.5q25 160 23.5 286t-68.5 202.5t-185 76.5 q-220 0 -321 -156t-148 -409q-25 -160 -21.5 -285t72 -201.5t201.5 -76.5z" glyph-name="zero" horiz-adv-x="1249" unicode="0"/><glyph d="M317 0l209 1186l-245 -80l22 123l391 133l-241 -1362h-136z" glyph-name="one" horiz-adv-x="659" unicode="1"/><glyph d="M745 1243q-115 0 -207 -59.5t-122 -159.5l-121 33q51 147 182 234t298 87t268.5 -109.5t70.5 -283.5t-209 -344l-518 -506h578l-23 -135h-817l6 47l692 690q133 131 155 249t-48 187.5t-185 69.5z" glyph-name="two" horiz-adv-x="1075" unicode="2"/><glyph d="M641 664h-131l25 129h131q102 0 185 64.5t103 158.5t-29 156.5t-149 68.5t-179 -27.5t-126 -93.5l-96 68q72 94 184.5 147.5t233.5 44.5q184 -14 260.5 -124.5t36.5 -262.5q-23 -82 -88.5 -153.5t-151.5 -106.5q111 -27 161 -141.5t17 -235.5q-45 -168 -205.5 -277.5 t-345.5 -96.5q-129 10 -221 78.5t-119 172.5l131 56q18 -70 83.5 -117t158.5 -55q129 -8 243.5 67.5t141.5 191.5t-50 202t-204 86z" glyph-name="three" horiz-adv-x="1095" unicode="3"/><glyph d="M958 291l-51 -291h-135l51 291h-712l938 1071h100l-168 -946h205l-23 -125h-205zM381 416h465l119 676z" glyph-name="four" horiz-adv-x="1200" unicode="4"/><glyph d="M573 121q160 0 266.5 87t131 220t-56 212t-190.5 79t-188.5 -22.5t-213.5 -84.5l-41 72l241 678h668l-25 -137h-551l-161 -451q178 84 288 84q188 0 297 -115.5t73 -317.5t-189.5 -323.5t-372.5 -121.5q-141 0 -253 79.5t-153 206.5l133 84q20 -98 105.5 -163.5 t191.5 -65.5z" glyph-name="five" horiz-adv-x="1148" unicode="5"/><glyph d="M1190 1149l-131 -51q-41 137 -213 145q-125 6 -221.5 -76t-146.5 -202.5t-72 -274.5q49 86 151 129t203 39q178 -8 274 -142t56 -316t-190 -305t-328 -115t-271.5 129.5t-73.5 328.5q39 309 109 513t215 318.5t326 108.5q121 -6 199.5 -55t113.5 -174zM495.5 642 q-106.5 -83 -133.5 -213t43 -219t194 -93t226.5 79t131 212t-36 219t-191.5 94t-233.5 -79z" glyph-name="six" horiz-adv-x="1138" unicode="6"/><glyph d="M1264 1362l-990 -1362h-159l895 1227h-672l22 135h904z" glyph-name="seven" horiz-adv-x="1060" unicode="7"/><glyph d="M824 1378q148 0 232.5 -97t58.5 -244t-167 -246q94 -57 138 -158t24 -219q-33 -182 -187.5 -308t-349 -126t-305 125.5t-78.5 308.5q20 119 101.5 219t197.5 158q-104 93 -77 243t145.5 247t266.5 97zM596 115q137 0 246.5 87t132 212t-56 215t-216.5 90l-14 -2 q-133 -10 -237.5 -97t-126.5 -209t56.5 -209t215.5 -87zM800 1243q-91 0 -163 -57.5t-86 -141t32 -143t132 -59.5l18 2q92 6 164 63t86 139t-39 139.5t-144 57.5z" glyph-name="eight" horiz-adv-x="1157" unicode="8"/><glyph d="M180 207l127 51q41 -133 230 -145q184 -6 292.5 152.5t145.5 400.5q-49 -86 -151.5 -129t-202.5 -39q-180 8 -275.5 142t-54.5 316t190.5 305t327.5 115t272.5 -130t73.5 -328q-43 -317 -113 -518t-214 -315t-322 -108q-271 13 -326 230zM882.5 714q108.5 83 134.5 212 t-44 219t-193 94t-225 -79t-131 -212t34.5 -219t189.5 -94t234.5 79z" glyph-name="nine" unicode="9"/><glyph d="M293 193q47 0 73.5 -31t18.5 -76t-46 -75.5t-85 -30.5t-74.5 30.5t-19.5 75.5t47 76t86 31zM432 977q47 0 75 -31t19.5 -76t-46.5 -75.5t-85 -30.5t-74.5 30.5t-19.5 75.5t46 76t85 31z" glyph-name="colon" horiz-adv-x="520" unicode=":"/><glyph d="M131 -270l-88 28q172 195 205 432h158q-39 -164 -117 -283.5t-158 -176.5zM469 977q47 0 74.5 -31t19.5 -76t-47 -75.5t-86 -30.5t-73.5 30.5t-18.5 75.5t46 76t85 31z" glyph-name="semicolon" horiz-adv-x="567" unicode=";"/><glyph d="M1155 82l-973 399l29 148l1112 399l-25 -147l-944 -326l828 -328z" glyph-name="less" horiz-adv-x="1288" unicode="&lt;"/><glyph d="M295 788h940l-23 -129h-940zM221 369h940l-24 -129h-940z" glyph-name="equal" horiz-adv-x="1255" unicode="="/><glyph d="M1270 481l-1112 -399l26 145l942 328l-827 326l27 147l970 -399z" glyph-name="greater" horiz-adv-x="1288" unicode=">"/><glyph d="M746 1425q168 0 272 -109.5t76 -267.5t-128 -261t-214 -135t-163.5 -69.5t-66.5 -123.5l-14 -80h-135l14 80q25 135 108 206.5t220 110.5q88 27 156.5 94.5t86.5 171.5t-52 176t-182 72t-202 -71.5t-110 -188.5h-136q31 176 166.5 285.5t303.5 109.5zM407.5 193 q47.5 0 74 -31t18.5 -76t-46 -75.5t-85 -30.5t-75 30.5t-19.5 75.5t47 76t86 31z" glyph-name="question" horiz-adv-x="997" unicode="?"/><glyph d="M1124.5 811q-116.5 0 -215 -82t-118.5 -200t47 -200.5t181 -82.5t216 86l-25 -146q-113 -66 -211 -65q-170 0 -267 119.5t-66 288.5t172 288t305 119t265 -114t77 -275l-55 -305q-27 -152 137 -152q74 0 136 46t119.5 155.5t84.5 261.5q57 319 -143.5 534.5t-528.5 215.5 t-592 -229.5t-321.5 -557.5t125 -553t505.5 -225h37l-22 -125h-37q-377 0 -589 262t-144.5 641t374 645t682.5 266q250 0 444.5 -112.5t287 -314t49.5 -447.5q-33 -202 -122 -336.5t-177 -191t-202 -56.5t-183.5 66.5t-42.5 220.5l49 270v2q20 119 -47.5 201t-184 82z" glyph-name="at" horiz-adv-x="2021" unicode="@"/><glyph d="M184 0h-145l790 1411h144l295 -1411h-146l-80 371h-653zM1018 498l-150 725l-407 -725h557z" glyph-name="A" horiz-adv-x="1306" unicode="A"/><glyph d="M766 0h-561l248 1411h514q170 0 252 -94t53 -256q-41 -246 -225 -309q100 -18 153 -127t31 -230q-31 -168 -157 -281.5t-308 -113.5zM879 811q104 0 171.5 72.5t86 177t-39 161t-167.5 56.5h-363l-82 -467h394zM874 684h-413l-96 -549h421q117 0 203.5 77t104.5 182 t-42.5 197.5t-177.5 92.5z" glyph-name="B" horiz-adv-x="1271" unicode="B"/><glyph d="M1046 1427q296 0 463 -210l-110 -95q-139 170 -378 170t-424 -171t-228 -418.5t80.5 -417.5t363 -170t438.5 172l78 -97q-240 -210 -538 -210t-455.5 209.5t-102.5 513.5t286 514t527 210z" glyph-name="C" horiz-adv-x="1359" unicode="C"/><glyph d="M735 0h-530l248 1411h530q291 0 423 -198.5t77 -508.5t-256 -507t-492 -197zM758 135q236 0 390.5 157t199.5 410.5t-53.5 413.5t-333.5 160h-396l-203 -1141h396z" glyph-name="D" horiz-adv-x="1478" unicode="D"/><glyph d="M453 1411h804l-22 -135h-670l-92 -516h586l-25 -135h-585l-87 -490h693l-23 -135h-827z" glyph-name="E" horiz-adv-x="1144" unicode="E"/><glyph d="M453 1411h792l-22 -135h-658l-92 -516h522l-24 -135h-522l-109 -625h-135z" glyph-name="F" horiz-adv-x="1064" unicode="F"/><glyph d="M818 -20q-304 0 -471 210.5t-114 512.5t295 513t541 211q254 0 424 -163l-113 -97q-135 125 -333 125q-244 0 -439.5 -172t-238.5 -417.5t91 -416.5t370 -171t388 118.5t203 331.5h-411l22 127h563q-61 -352 -267 -532t-510 -180z" glyph-name="G" horiz-adv-x="1548" unicode="G"/><glyph d="M1497 1411l-248 -1411h-135l113 637h-774l-113 -637h-135l248 1411h135l-115 -647h774l115 647h135z" glyph-name="H" horiz-adv-x="1454" unicode="H"/><glyph d="M588 1411l-248 -1411h-135l248 1411h135z" glyph-name="I" horiz-adv-x="544" unicode="I"/><glyph d="M-147 -393q145 0 228 87t107 226l263 1491h135l-264 -1491q-35 -199 -158 -323.5t-336 -124.5q-55 0 -125 16l37 133q43 -14 113 -14z" glyph-name="J" horiz-adv-x="544" unicode="J"/><glyph d="M606 705l545 -705h-182l-514 664l-115 -664h-135l248 1411h135l-121 -686l653 686h160z" glyph-name="K" unicode="K"/><glyph d="M453 1411h135l-226 -1276h599l-23 -135h-733z" glyph-name="L" horiz-adv-x="997" unicode="L"/><glyph d="M1022 311l729 1100h135l-76 -1411h-133l64 1169l-680 -1015h-135l-318 1015l-350 -1169h-133l420 1411h135z" glyph-name="M" horiz-adv-x="1935" unicode="M"/><glyph d="M1198 0h-139l-512 1182l-207 -1182h-135l248 1411h145l504 -1173l209 1173h135z" glyph-name="N" horiz-adv-x="1402" unicode="N"/><glyph d="M1069 1427q299 0 468 -210.5t116 -512.5t-297 -513t-543 -211t-466 210.5t-114 512.5t295 513t541 211zM837.5 115q243.5 0 440.5 171t240 416.5t-92.5 417.5t-379 172t-439 -172t-239.5 -418t91 -416.5t378.5 -170.5z" glyph-name="O" horiz-adv-x="1640" unicode="O"/><glyph d="M1008 1411q201 0 277.5 -126t43.5 -306t-152.5 -304t-320.5 -124h-418l-96 -551h-137l248 1411h555zM985 1276h-418l-104 -590h407q139 0 220 84t104 209t-27.5 211t-181.5 86z" glyph-name="P" horiz-adv-x="1230" unicode="P"/><glyph d="M1069 1427q299 0 468 -210.5t116 -514.5q-35 -197 -159 -362.5t-300 -261.5l111 -238l-129 -73l-117 253q-119 -41 -246 -40q-299 0 -466 210.5t-114 512.5t295 513t541 211zM1046.5 1292q-243.5 0 -439 -172t-238.5 -417.5t91 -416.5t378 -171q90 0 166 20l-115 258 l129 74l121 -277q145 78 247.5 214.5t131.5 297.5q43 246 -92.5 418t-379 172z" glyph-name="Q" horiz-adv-x="1640" unicode="Q"/><glyph d="M977 1411q137 0 217 -64.5t99.5 -157.5t-1.5 -210q-31 -178 -144 -300t-306 -128l293 -551h-166l-293 551h-238l-96 -551h-137l248 1411h524zM954 1276h-387l-104 -590h377q139 0 217.5 83t100.5 209t-25.5 212t-178.5 86z" glyph-name="R" horiz-adv-x="1245" unicode="R"/><glyph d="M595 115q144 0 245.5 68.5t138.5 162.5q39 121 -24.5 194.5t-192.5 104.5l-180 43q-315 76 -269 354q31 166 182.5 275.5t334.5 109.5t289 -110.5t75 -292.5h-135q20 121 -53.5 194.5t-200.5 73.5t-233.5 -70.5t-125.5 -179.5q-29 -172 189 -223l182 -43 q180 -43 266 -154.5t25 -299.5q-53 -139 -195.5 -240.5t-343.5 -101.5t-306 131t-77 295h136q-20 -113 54.5 -202t218.5 -89z" glyph-name="S" horiz-adv-x="1163" unicode="S"/><glyph d="M307 1411h1041l-23 -135h-453l-225 -1276h-135l225 1276h-452z" glyph-name="T" horiz-adv-x="1159" unicode="T"/><glyph d="M710.5 115q153.5 0 275.5 100t151 262l166 934h135l-164 -934q-39 -221 -208 -359t-379 -138t-330.5 138t-84.5 359l166 934h135l-165 -934q-29 -162 60 -262t242.5 -100z" glyph-name="U" horiz-adv-x="1380" unicode="U"/><glyph d="M457 1411l143 -1190l565 1190h140l-670 -1411h-141l-177 1411h140z" glyph-name="V" horiz-adv-x="1128" unicode="V"/><glyph d="M1917 1411h143l-725 -1411h-129l-110 946l-443 -946h-129l-229 1411h143l185 -1198l473 1012h102l113 -1012z" glyph-name="W" horiz-adv-x="1859" unicode="W"/><glyph d="M819 760l363 -760h-166l-299 645l-524 -645h-164l626 760l-323 651h166l260 -534l450 534h164z" glyph-name="X" horiz-adv-x="1210" unicode="X"/><glyph d="M813 655l-115 -655h-139l115 655l-398 756h162l332 -608l549 608h164z" glyph-name="Y" horiz-adv-x="1259" unicode="Y"/><glyph d="M109 135l999 1139h-768l22 137h934l-22 -135l-1002 -1139h799l-22 -137h-963z" glyph-name="Z" horiz-adv-x="1146" unicode="Z"/><glyph d="M96 -463l334 1874h336l-23 -137h-198l-285 -1598h199l-27 -139h-336z" glyph-name="bracketleft" horiz-adv-x="612" unicode="["/><glyph d="M754 0l-443 1411h150l442 -1411h-149z" glyph-name="backslash" horiz-adv-x="968" unicode="\"/><glyph d="M678 1411l-334 -1874h-334l25 139h198l285 1598h-199l23 137h336z" glyph-name="bracketright" horiz-adv-x="612" unicode="]"/><glyph d="M125 -121h1161l-22 -129h-1162z" glyph-name="underscore" horiz-adv-x="1456" unicode="_"/><glyph d="M635 1137l-123 274h168l94 -274h-139z" glyph-name="grave" horiz-adv-x="937" unicode="`"/><glyph d="M584 -20q-209 0 -325 139t-77 362.5t204 359.5t374 136q111 0 203 -46t127 -132l26 157h137l-166 -956h-137l27 164q-68 -88 -176.5 -136t-216.5 -48zM612 117q152 0 272 97t150 265t-63.5 264.5t-240.5 96.5t-264.5 -98.5t-146.5 -258.5t56 -263t237 -103z" glyph-name="a" horiz-adv-x="1253" unicode="a"/><glyph d="M836 977q209 0 323.5 -136t75.5 -359.5t-204 -362.5t-374 -139q-109 0 -199.5 48t-125.5 136l-29 -164h-137l260 1475h137l-121 -676q68 86 175.5 132t218.5 46zM816 840q-146 0 -273 -96.5t-157 -264.5t57 -265t239 -97t269.5 102t146.5 263t-53.5 259.5t-228.5 98.5z " glyph-name="b" horiz-adv-x="1253" unicode="b"/><glyph d="M590 -20q-205 0 -326 139t-82 361t208 359.5t378 137.5t322 -129l-111 -96q-86 90 -237 90t-272.5 -99.5t-152 -261.5t59 -264t237.5 -102t269 92l82 -96q-170 -131 -375 -131z" glyph-name="c" horiz-adv-x="1032" unicode="c"/><glyph d="M584 -20q-209 0 -325 139t-77 362.5t204 359.5t374 136q111 0 203 -46t127 -132l120 676h138l-261 -1475h-137l27 164q-68 -88 -176.5 -136t-216.5 -48zM612 117q152 0 272 97t150 265t-63.5 264.5t-240.5 96.5t-264.5 -98.5t-146.5 -258.5t56 -263t237 -103z" glyph-name="d" horiz-adv-x="1253" unicode="d"/><glyph d="M602 115q205 0 328 166q43 -13 129 -31q-78 -127 -207 -198.5t-274 -71.5q-207 0 -321 139t-75 362.5t201 359.5t370 136t314.5 -135t67.5 -361q0 -30 -13 -63h-811q-4 -139 76 -221t215 -82zM727 842q-133 0 -241.5 -81t-151.5 -216h674q4 137 -72 217t-209 80z" glyph-name="e" horiz-adv-x="1140" unicode="e"/><glyph d="M817 1346q-131 0 -181 -86.5t-67 -192.5l-18 -111h235l-22 -122h-236l-145 -834h-137l145 834h-186l22 122h187l18 111q74 408 410 408h102l-24 -129h-103z" glyph-name="f" horiz-adv-x="673" unicode="f"/><glyph d="M605 117q146 0 271 96t155 264t-55 265.5t-237 97.5t-271.5 -103.5t-148.5 -263.5t55.5 -258t230.5 -98zM505 -342q185 0 306 119t170 397q-61 -90 -174 -142t-223 -52q-209 0 -325 136t-77 359t205 362.5t375 139.5q109 0 200 -48t128 -136l28 163h137l-143 -804 q-111 -629 -623 -629q-125 0 -223 59t-145 178l127 68q72 -170 257 -170z" glyph-name="g" horiz-adv-x="1251" unicode="g"/><glyph d="M793 977q174 0 251.5 -111.5t40.5 -308.5l-96 -557h-137l96 557q25 133 -22 209t-167 76t-227.5 -79t-136.5 -241l-92 -522h-137l260 1475h137l-121 -676q57 88 157.5 133t193.5 45z" glyph-name="h" unicode="h"/><glyph d="M301 0h-135l168 956h135zM483 1411q43 0 70 -27.5t18.5 -70.5t-43 -71t-77.5 -28t-70 28t-18.5 71t43 70.5t77.5 27.5z" glyph-name="i" horiz-adv-x="466" unicode="i"/><glyph d="M483 1411q43 0 70 -27.5t18.5 -70.5t-43 -71t-77.5 -28t-70 28t-18.5 71t43 70.5t77.5 27.5zM-88 -334q119 0 171 78t73 201l178 1011h137l-180 -1011q-74 -408 -404 -408h-102l25 129h102z" glyph-name="j" horiz-adv-x="468" unicode="j"/><glyph d="M393 522l-92 -522h-135l260 1475h135l-160 -897l447 378h192l-483 -409l424 -547h-186z" glyph-name="k" horiz-adv-x="993" unicode="k"/><glyph d="M561 1475l-260 -1475h-135l260 1475h135z" glyph-name="l" horiz-adv-x="466" unicode="l"/><glyph d="M759 842q-120 0 -227.5 -79t-136.5 -241l-92 -522h-137l168 956h137l-29 -157q55 84 163 131t188 47q244 0 292 -209q137 209 394 209q174 0 251.5 -111.5t41.5 -308.5l-97 -557h-137l96 557q23 133 -23 209t-166 76t-227.5 -79t-136.5 -241l-92 -522h-137l96 557 q23 133 -23 209t-166 76z" glyph-name="m" horiz-adv-x="1828" unicode="m"/><glyph d="M793 977q174 0 251.5 -111.5t40.5 -308.5l-96 -557h-137l96 557q23 133 -23 209t-166 76t-227.5 -79t-136.5 -241l-92 -522h-137l168 956h137l-29 -157q57 88 157.5 133t193.5 45z" glyph-name="n" unicode="n"/><glyph d="M594 -20q-209 0 -330 139t-82 361t208 359.5t380 137.5t331 -137.5t81 -359.5t-209 -361t-379 -139zM617 115q153 0 276 102t153.5 264t-58.5 261.5t-242.5 99.5t-275.5 -99.5t-152.5 -261.5t58 -264t241.5 -102z" glyph-name="o" horiz-adv-x="1200" unicode="o"/><glyph d="M836 977q209 0 323.5 -140.5t75.5 -363.5t-204 -358t-374 -135q-111 0 -201.5 45t-125.5 131l-113 -619h-137l254 1419h137l-29 -165q68 88 176.5 137t217.5 49zM809 840q-152 0 -273.5 -98.5t-151.5 -266.5t65 -263t241 -95t262.5 97t145.5 257t-54 264.5t-235 104.5z " glyph-name="p" horiz-adv-x="1253" unicode="p"/><glyph d="M586 -20q-209 0 -326 135t-78 358t205 363.5t375 140.5q109 0 201 -49t129 -137l26 165h137l-254 -1419h-137l113 619q-68 -86 -174.5 -131t-216.5 -45zM605 117q146 0 271 95t155 263t-56 266.5t-237 98.5t-269 -103.5t-147 -264.5t54 -258t229 -97z" glyph-name="q" horiz-adv-x="1253" unicode="q"/><glyph d="M725 840q-137 0 -232.5 -138.5t-130.5 -345.5l-59 -356h-137l168 956h137l-39 -217q111 238 318 238q47 0 91 -12.5t56 -24.5l-39 -133q-59 33 -133 33z" glyph-name="r" horiz-adv-x="772" unicode="r"/><glyph d="M608 977q119 0 190.5 -61.5t67.5 -186.5h-133q-2 53 -43.5 85t-107.5 32t-122.5 -33t-72.5 -84q-45 -121 115 -160l123 -30q231 -57 192 -279q-20 -123 -134 -201.5t-254 -78.5t-225 80.5t-69 213.5h121q18 -166 199 -165q92 0 153.5 42t73.5 109q23 117 -109 148 l-129 30q-150 39 -186.5 125t-1.5 187q35 102 134 164.5t218 62.5z" glyph-name="s" horiz-adv-x="868" unicode="s"/><glyph d="M367 0h-138l146 834h-172l22 122h172l64 359h137l-63 -359h202l-22 -122h-203z" glyph-name="t" horiz-adv-x="630" unicode="t"/><glyph d="M516 -20q-174 0 -252 111.5t-41 307.5l99 557h137l-99 -557q-23 -133 23.5 -208.5t166.5 -75.5t227 78.5t138 240.5l93 522h137l-168 -956h-137l26 158q-57 -88 -157.5 -133t-192.5 -45z" glyph-name="u" unicode="u"/><glyph d="M217 956h143l185 -796l465 796h145l-565 -956h-146z" glyph-name="v" horiz-adv-x="1034" unicode="v"/><glyph d="M1233 0h-115l-162 768l-421 -768h-115l-201 956h146l145 -739l405 739h148l145 -739l406 739h145z" glyph-name="w" horiz-adv-x="1646" unicode="w"/><glyph d="M268 956h168l170 -315l283 315h168l-387 -430l288 -526h-165l-230 412l-368 -412h-164l473 526z" glyph-name="x" horiz-adv-x="989" unicode="x"/><glyph d="M307 -463h-141l274 465l-223 954h143l187 -778l463 778h145z" glyph-name="y" horiz-adv-x="1034" unicode="y"/><glyph d="M1081 956l-22 -122l-768 -699h645l-23 -135h-829l18 125l762 696h-600l23 135h794z" glyph-name="z" horiz-adv-x="1013" unicode="z"/><glyph d="M549 -338h110l-20 -125h-111q-168 0 -264 109.5t-65 285.5l63 349q10 55 -21.5 98t-84.5 43l20 117q53 0 100.5 43t57.5 98l63 352q31 176 165 285.5t302 109.5h111l-23 -124h-110q-109 0 -199 -76t-111 -195l-63 -352q-10 -63 -54 -120.5t-104 -80.5q49 -18 72.5 -77.5 t13.5 -120.5l-63 -349q-20 -117 42 -193.5t173 -76.5z" glyph-name="braceleft" horiz-adv-x="808" unicode="{"/><glyph d="M571 1620l-331 -1870h-103l332 1870h102z" glyph-name="bar" horiz-adv-x="466" unicode="|"/><glyph d="M424 1303h-111l23 124h110q168 0 265.5 -109.5t64.5 -285.5l-63 -352q-10 -55 20.5 -98t83.5 -43l-20 -117q-53 0 -99.5 -43t-56.5 -98l-61 -349q-31 -176 -167.5 -285.5t-303.5 -109.5h-107l18 125h111q111 0 202 76.5t111 193.5l64 349q10 61 54 120.5t100 77.5 q-51 23 -74 80t-10 121l63 352q20 117 -43 194t-174 77z" glyph-name="braceright" horiz-adv-x="808" unicode="}"/><glyph d="M371 743q-47 0 -75 31t-19.5 76t46 75.5t85 30.5t75 -30.5t19.5 -75.5t-46 -76t-85 -31zM281 557h110l-170 -1020h-135z" glyph-name="exclamdown" horiz-adv-x="479" unicode="¡"/><glyph d="M750 842q-150 0 -273 -99.5t-153.5 -261.5t59 -264t239.5 -102t267 92l82 -96q-154 -121 -350 -131l-39 -230h-103l41 236q-178 27 -273 162.5t-59 333.5t178 330t328 159l39 223h103l-39 -217q195 -10 301 -129l-113 -96q-85 90 -235 90z" glyph-name="cent" horiz-adv-x="1071" unicode="¢"/><glyph d="M970 1438q169 0 265 -109.5t65 -286.5h-135q20 117 -44 189t-176 72t-209 -73t-115 -188l-64 -354h332l-21 -117h-331l-78 -436h583q18 0 33 14.5t19 36.5l20 121h135l-20 -121q-14 -80 -74.5 -133t-134.5 -53h-920l23 135h201l77 436h-165l20 117h166l63 354 q31 176 173.5 286t311.5 110z" glyph-name="sterling" horiz-adv-x="1308" unicode="£"/><glyph d="M698.5 438q112.5 0 204.5 79t112.5 191.5t-45 191.5t-178 79t-204.5 -79t-112.5 -191.5t45 -191.5t178 -79zM814 1104q134 0 226 -80l177 152l61 -78l-174 -152q60 -110 36 -242t-122 -233l125 -149l-92 -78l-125 149q-113 -80 -247 -80t-230 80l-173 -149l-63 78 l172 149q-59 103 -35 239t123 236l-125 152l94 78l123 -152q115 80 249 80z" glyph-name="currency" horiz-adv-x="1245" unicode="¤"/><glyph d="M365 557l18 96h330l-398 758h162l332 -608l549 608h164l-670 -758h332l-19 -96h-331l-37 -203h331l-16 -96h-332l-43 -258h-139l43 258h-330l17 96h329l37 203h-329z" glyph-name="yen" horiz-adv-x="1341" unicode="¥"/><glyph d="M334 848l139 772h102l-139 -772h-102zM377 520l-133 -770h-103l133 770h103z" glyph-name="brokenbar" horiz-adv-x="475" unicode="¦"/><glyph d="M626 502q114 0 187 55l-27 -151q-94 -39 -188 -39q-168 0 -264 108.5t-66 284.5l49 272q31 176 166 285.5t303 109.5q129 0 219.5 -67.5t110.5 -183.5l-137 -37q-18 72 -76.5 112.5t-154.5 40.5t-186.5 -71.5t-108.5 -188.5l-50 -272q-20 -117 44.5 -187.5t178.5 -70.5z M653 770q-115 0 -186 -55l25 151q98 39 190 39q168 0 264 -108.5t66 -284.5l-49 -272q-31 -176 -166 -286t-303 -110q-129 0 -219.5 68t-110.5 184l137 37q18 -72 76.5 -112.5t154.5 -40.5t186.5 71.5t108.5 188.5l50 272q20 117 -44.5 187.5t-179.5 70.5z" glyph-name="section" horiz-adv-x="1058" unicode="§"/><glyph d="M598 1411q43 0 69.5 -27.5t18.5 -70.5t-44 -71t-79 -28t-68.5 28t-17.5 71t43 70.5t78 27.5zM961 1411q43 0 69.5 -27.5t18 -70.5t-44 -71t-78.5 -28t-69 28t-17.5 71t43.5 70.5t78 27.5z" glyph-name="dieresis" horiz-adv-x="1062" unicode="¨"/><glyph d="M1083 1427q299 0 471 -213t119 -513t-300 -510.5t-546 -210.5t-469 210.5t-116.5 512t298 513t543.5 211.5zM896 326q-153 0 -240 108t-58 260t151.5 258.5t277.5 106.5t249 -123l-92 -76q-72 88 -177 88t-192.5 -74.5t-106 -181t42.5 -181.5t165 -75t212 92l62 -79 q-141 -123 -294 -123zM848 96q252 0 457.5 177.5t251 429t-98 430t-395.5 178.5t-457 -178.5t-250 -430t97.5 -429t394.5 -177.5z" glyph-name="copyright" horiz-adv-x="1669" unicode="©"/><glyph d="M602 717q-142 0 -217.5 91t-48.5 237t134.5 235.5t257.5 89.5t196 -98l14 84h100l-112 -625h-101l19 90q-100 -104 -242 -104zM619 819q93 0 169 60.5t94 165.5t-39 165t-148 60t-165 -62t-91 -162t35 -163.5t145 -63.5zM270 516l15 84h624l-14 -84h-625z" glyph-name="ordfeminine" horiz-adv-x="974" unicode="ª"/><glyph d="M184 477l359 424h127l-359 -424l209 -424h-127zM492 477l358 424h127l-359 -424l209 -424h-127z" glyph-name="guillemotleft" horiz-adv-x="927" unicode="«"/><glyph d="M1286 721l-82 -463h-129l60 334h-875l23 129h1003z" glyph-name="logicalnot" horiz-adv-x="1318" unicode="¬"/><glyph d="M1067 1053q109 0 154 -67.5t29 -155.5t-74 -152t-144 -78l144 -264h-136l-141 260h-76l-45 -260h-112l129 717h272zM999 707q55 0 93 34.5t46.5 81.5t-17 82t-77.5 35h-159l-41 -233h155zM1083 1427q299 0 471 -213t119 -513t-300 -510.5t-546 -210.5t-469 210.5 t-116.5 512t298 513t543.5 211.5zM848 96q252 0 457.5 177.5t251 429t-98 430t-395.5 178.5t-457 -178.5t-250 -430t97.5 -429t394.5 -177.5z" glyph-name="registered" horiz-adv-x="1669" unicode="®"/><glyph d="M487 1370h488l-25 -129h-487z" glyph-name="macron" horiz-adv-x="978" unicode="¯"/><glyph d="M626.5 1427q106.5 0 168 -74.5t43 -181t-106.5 -181.5t-194.5 -75t-168 75t-43 181.5t106.5 181t194.5 74.5zM552.5 1020q63.5 0 116 44t64.5 107.5t-24.5 107.5t-100 44t-115 -44t-63.5 -107.5t23.5 -107.5t99 -44z" glyph-name="degree" horiz-adv-x="749" unicode="°"/><glyph d="M614 690l58 324h129l-58 -324h347l-23 -129h-346l-59 -325h-130l60 325h-344l22 129h344zM969 0h-819l20 129h819z" glyph-name="plusminus" horiz-adv-x="1118" unicode="±"/><glyph d="M616 1667q-60 0 -109.5 -35t-68.5 -92l-94 25q31 96 112 153.5t182 57.5t161.5 -67t41.5 -172t-122 -206q-61 -57 -266 -260h307l-21 -108h-493l12 49l393 393q70 70 81 130t-22.5 96t-93.5 36z" glyph-name="uni00B2" horiz-adv-x="657" unicode="²"/><glyph d="M553 1339h-90l16 105h90q45 0 82 26.5t51 72.5t-9 82t-79 42q-88 8 -155 -72l-68 64q101 128 264 118q84 -5 135.5 -71t33.5 -160t-122 -151q55 -20 81 -85t10 -130q-27 -102 -127.5 -169t-194.5 -60t-148.5 52.5t-72.5 114.5q10 6 19 10l81 41q23 -94 133 -108 q68 -4 127.5 35t73.5 97t-26 102t-105 44z" glyph-name="uni00B3" horiz-adv-x="665" unicode="³"/><glyph d="M823 1411l-221 -274h-139l192 274h168z" glyph-name="acute" horiz-adv-x="937" unicode="´"/><glyph d="M574 115q120 0 228.5 78.5t137.5 240.5l92 522h137l-168 -956h-137l27 158q-57 -88 -157.5 -133t-192.5 -45q-158 0 -215 86l-72 -400h-137l229 1290h137l-98 -557q-23 -133 23 -208.5t166 -75.5z" glyph-name="uni00B5" horiz-adv-x="1140" unicode="µ"/><glyph d="M764 1411h135l-270 -1532h-135l114 647q-184 0 -290.5 129t-73.5 313t184.5 313.5t335.5 129.5zM1149 1411q113 0 179.5 -80t45.5 -192l-28 -162h-136l29 162q10 57 -22.5 97t-90.5 40l-243 -1364q-25 -127 -122 -199.5t-198 -72.5h-112l22 120h113q51 0 100 36t57 83 l271 1532h135z" glyph-name="paragraph" horiz-adv-x="1253" unicode="¶"/><glyph d="M373 645q47 0 73.5 -30.5t18.5 -75.5t-46 -76t-85 -31t-75 31t-19.5 76t47.5 75.5t86 30.5z" glyph-name="periodcentered" horiz-adv-x="520" unicode="·"/><glyph d="M582 -182l-60 235h115l47 -192q20 -82 -24 -157.5t-129 -107.5t-151.5 -0.5t-86.5 109.5q-10 39 -4 88l106 -8q-5 -65 35.5 -86t79.5 -5t59.5 52.5t12.5 71.5z" glyph-name="cedilla" horiz-adv-x="1056" unicode="¸"/><glyph d="M465 963h-109l121 665l-139 -47l16 105l256 88z" glyph-name="uni00B9" horiz-adv-x="413" unicode="¹"/><glyph d="M608 721q-137 0 -215 91t-53 236.5t136.5 235.5t249.5 90t216 -89t53 -234t-137.5 -237.5t-249.5 -92.5zM629 821q94 0 172 63.5t96 165.5t-36 164t-150.5 62t-174.5 -62.5t-96 -163.5t38.5 -165t150.5 -64zM266 516l15 84h624l-14 -84h-625z" glyph-name="ordmasculine" horiz-adv-x="972" unicode="º"/><glyph d="M907 477l-356 -424h-127l356 424l-205 424h127zM600 477l-356 -424h-127l356 424l-205 424h127z" glyph-name="guillemotright" horiz-adv-x="927" unicode="»"/><glyph d="M1364 606l-291 -338h232zM1511 166h-116l-27 -166h-108l26 166h-418l559 637h82l-96 -535h117zM438 559h-108l116 666l-139 -47l21 104l254 88zM1464 1378l-1167 -1398h-135l1167 1398h135z" glyph-name="onequarter" horiz-adv-x="1568" unicode="¼"/><glyph d="M444 559h-108l117 666l-140 -47l21 104l254 88zM1336 705q-60 0 -109 -35t-68 -92l-96 24q33 96 113 153.5t182 57.5t162.5 -66.5t42 -171t-113.5 -195.5t-275 -271h307l-19 -109h-493l6 49l395 393q74 74 83 132t-24 94.5t-93 36.5zM1442 1378l-1168 -1398h-135 l1168 1398h135z" glyph-name="onehalf" horiz-adv-x="1572" unicode="½"/><glyph d="M1159 268h232l59 338zM1483 166l-29 -166h-108l28 166h-418l557 637h82l-96 -535h117l-17 -102h-116zM520 936h-90l16 104h91q45 0 81 27t50 73t-9.5 81.5t-76.5 42.5q-88 8 -158 -72l-66 63q43 57 111.5 90t152.5 28t137 -70.5t31 -161.5t-122 -150q55 -20 80.5 -84.5 t9.5 -130.5q-27 -102 -126.5 -168.5t-193.5 -59.5t-149.5 52t-73.5 115q10 6 19 11l81 40q10 -43 48 -72.5t88 -36.5q68 -4 127 35.5t73 97.5t-25.5 102t-105.5 44zM446 -20h-135l1168 1398h135z" glyph-name="threequarters" horiz-adv-x="1658" unicode="¾"/><glyph d="M402 -469q-169 0 -271.5 109.5t-74.5 267.5t130.5 261t235.5 140q88 25 141 73t70 136l10 60h135l-10 -60q-43 -256 -330 -338q-88 -27 -157.5 -94.5t-87.5 -171.5t52 -176t182 -72t200.5 71.5t111.5 188.5h135q-31 -176 -167 -285.5t-305 -109.5zM745.5 764 q-47.5 0 -75 30.5t-19.5 75.5t46 76t85 31t75 -31t19.5 -76t-46 -75.5t-85 -30.5z" glyph-name="questiondown" horiz-adv-x="970" unicode="¿"/><glyph d="M39 0l790 1411h144l295 -1411h-146l-80 371h-653l-205 -371h-145zM868 1223l-407 -725h557zM856 1546l-125 275h168l96 -275h-139z" glyph-name="Agrave" horiz-adv-x="1306" unicode="À"/><glyph d="M184 0h-145l790 1411h144l295 -1411h-146l-80 371h-653zM1018 498l-150 725l-407 -725h557zM1208 1821l-219 -275h-139l190 275h168z" glyph-name="Aacute" horiz-adv-x="1306" unicode="Á"/><glyph d="M184 0h-145l790 1411h144l295 -1411h-146l-80 371h-653zM1018 498l-150 725l-407 -725h557zM1069 1546l-115 176l-174 -176h-139l242 275h178l147 -275h-139z" glyph-name="Acircumflex" horiz-adv-x="1306" unicode="Â"/><glyph d="M184 0h-145l790 1411h144l295 -1411h-146l-80 371h-653zM1018 498l-150 725l-407 -725h557zM859 1692q-26 0 -51.5 -23.5t-35.5 -69.5h-104q27 115 85.5 168.5t116.5 53.5t107 -43t75 -43t50 20.5t33 65.5h104q-27 -115 -85 -165t-116 -50t-105.5 43t-73.5 43z" glyph-name="Atilde" horiz-adv-x="1306" unicode="Ã"/><glyph d="M39 0l790 1411h144l295 -1411h-146l-80 371h-653l-205 -371h-145zM868 1223l-407 -725h557zM791 1821q43 0 69.5 -28t18 -71t-43 -70.5t-77.5 -27.5t-69.5 27.5t-18.5 70.5t43 71t78 28zM1153 1821q43 0 69.5 -28t18.5 -71t-43 -70.5t-78 -27.5t-69.5 27.5t-18.5 70.5 t43 71t78 28z" glyph-name="Adieresis" horiz-adv-x="1306" unicode="Ä"/><glyph d="M39 0l790 1411h144l295 -1411h-146l-80 371h-653l-205 -371h-145zM868 1223l-407 -725h557zM994 1944q83 0 131.5 -58.5t34.5 -141.5t-83 -140.5t-152 -57.5t-130 56.5t-33 140.5q16 84 82.5 142.5t149.5 58.5zM944 1653q39 0 71 26.5t40 65.5q6 39 -16.5 65.5 t-61.5 26.5t-70 -26.5t-38 -66.5t14.5 -65.5t60.5 -25.5z" glyph-name="Aring" horiz-adv-x="1306" unicode="Å"/><glyph d="M479 371l-299 -371h-160l1139 1411h883l-23 -135h-669l-93 -516h586l-24 -135h-586l-86 -490h692l-22 -135h-828l64 371h-574zM582 498h493l139 778z" glyph-name="AE" horiz-adv-x="1929" unicode="Æ"/><glyph d="M1048.5 1427q294.5 0 462.5 -210l-110 -95q-139 170 -378 170t-424 -171t-228 -418.5t80.5 -417.5t363 -170t438.5 172l78 -97q-231 -203 -516 -210l29 -119q20 -82 -24 -157.5t-129 -107.5t-151.5 -0.5t-86.5 109.5q-10 39 -4 88l106 -8q-4 -18 4 -46t40 -44.5t71 -0.5 t59.5 52.5t11.5 71.5l-41 168q-254 33 -384 235.5t-78 494.5t284 501.5t526.5 209.5z" glyph-name="Ccedilla" horiz-adv-x="1361" unicode="Ç"/><glyph d="M1257 1411l-22 -135h-670l-92 -516h586l-25 -135h-585l-87 -490h693l-23 -135h-827l248 1411h804zM836 1546l-125 275h168l96 -275h-139z" glyph-name="Egrave" horiz-adv-x="1144" unicode="È"/><glyph d="M453 1411h804l-22 -135h-670l-92 -516h586l-25 -135h-585l-87 -490h693l-23 -135h-827zM1118 1821l-219 -275h-139l190 275h168z" glyph-name="Eacute" horiz-adv-x="1144" unicode="É"/><glyph d="M453 1411h804l-22 -135h-670l-92 -516h586l-25 -135h-585l-87 -490h693l-23 -135h-827zM995 1546l-114 176l-174 -176h-140l242 275h178l148 -275h-140z" glyph-name="Ecircumflex" horiz-adv-x="1144" unicode="Ê"/><glyph d="M1257 1411l-22 -135h-670l-92 -516h586l-25 -135h-585l-87 -490h693l-23 -135h-827l248 1411h804zM715 1821q43 0 69.5 -28t18.5 -71t-43 -70.5t-78 -27.5t-69.5 27.5t-18.5 70.5t43 71t78 28zM1077 1821q43 0 70 -28t18.5 -71t-43.5 -70.5t-78 -27.5t-69.5 27.5 t-18 70.5t43 71t77.5 28z" glyph-name="Edieresis" horiz-adv-x="1144" unicode="Ë"/><glyph d="M340 0h-135l248 1411h135zM473 1546l-125 275h168l96 -275h-139z" glyph-name="Igrave" horiz-adv-x="544" unicode="Ì"/><glyph d="M588 1411l-248 -1411h-135l248 1411h135zM834 1821l-220 -275h-139l191 275h168z" glyph-name="Iacute" horiz-adv-x="544" unicode="Í"/><glyph d="M588 1411l-248 -1411h-135l248 1411h135zM690 1546l-115 176l-174 -176h-139l242 275h178l147 -275h-139z" glyph-name="Icircumflex" horiz-adv-x="544" unicode="Î"/><glyph d="M340 0h-135l248 1411h135zM412 1821q43 0 69.5 -28t18.5 -71t-43 -70.5t-78 -27.5t-69.5 27.5t-18.5 70.5t43 71t78 28zM774 1821q43 0 69.5 -28t18.5 -71t-43 -70.5t-78 -27.5t-69.5 27.5t-18 70.5t43 71t77.5 28z" glyph-name="Idieresis" horiz-adv-x="544" unicode="Ï"/><glyph d="M745 0h-530l113 643h-201l23 125h200l113 643h530q291 0 423 -198.5t77 -508.5t-256 -507t-492 -197zM768 135q236 0 390.5 157.5t199.5 411.5t-52.5 413t-332.5 159h-395l-93 -508h353l-23 -125h-352l-90 -508h395z" glyph-name="Eth" horiz-adv-x="1488" unicode="Ð"/><glyph d="M1198 0h-139l-512 1182l-207 -1182h-135l248 1411h145l504 -1173l209 1173h135zM908 1692q-26 0 -51.5 -23.5t-35.5 -69.5h-104q27 115 86 168.5t117 53.5t106.5 -43t74.5 -43t50.5 20.5t32.5 65.5h104q-27 -115 -85.5 -165t-116.5 -50t-105 43t-73 43z" glyph-name="Ntilde" horiz-adv-x="1402" unicode="Ñ"/><glyph d="M1069 1427q299 0 468 -210.5t116 -512.5t-297 -513t-543 -211t-466 210.5t-114 512.5t295 513t541 211zM837.5 115q243.5 0 440.5 171t240 416.5t-92.5 417.5t-379 172t-439 -172t-239.5 -418t91 -416.5t378.5 -170.5zM1034 1546l-123 275h168l95 -275h-140z" glyph-name="Ograve" horiz-adv-x="1640" unicode="Ò"/><glyph d="M1069 1427q299 0 468 -210.5t116 -512.5t-297 -513t-543 -211t-466 210.5t-114 512.5t295 513t541 211zM837.5 115q243.5 0 440.5 171t240 416.5t-92.5 417.5t-379 172t-439 -172t-239.5 -418t91 -416.5t378.5 -170.5zM1356 1821l-221 -275h-140l193 275h168z" glyph-name="Oacute" horiz-adv-x="1640" unicode="Ó"/><glyph d="M1069 1427q299 0 468 -210.5t116 -512.5t-297 -513t-543 -211t-466 210.5t-114 512.5t295 513t541 211zM837.5 115q243.5 0 440.5 171t240 416.5t-92.5 417.5t-379 172t-439 -172t-239.5 -418t91 -416.5t378.5 -170.5zM1235 1546l-113 176l-176 -176h-139l244 275h178 l145 -275h-139z" glyph-name="Ocircumflex" horiz-adv-x="1640" unicode="Ô"/><glyph d="M1069 1427q299 0 468 -210.5t116 -512.5t-297 -513t-543 -211t-466 210.5t-114 512.5t295 513t541 211zM837.5 115q243.5 0 440.5 171t240 416.5t-92.5 417.5t-379 172t-439 -172t-239.5 -418t91 -416.5t378.5 -170.5zM1025 1692q-26 0 -51.5 -23.5t-33.5 -69.5h-104 q27 115 85.5 168.5t116.5 53.5t107 -43t75 -43t50 20.5t33 65.5h104q-29 -115 -86 -165t-115 -50t-106.5 43t-74.5 43z" glyph-name="Otilde" horiz-adv-x="1640" unicode="Õ"/><glyph d="M1069 1427q299 0 468 -210.5t116 -512.5t-297 -513t-543 -211t-466 210.5t-114 512.5t295 513t541 211zM837.5 115q243.5 0 440.5 171t240 416.5t-92.5 417.5t-379 172t-439 -172t-239.5 -418t91 -416.5t378.5 -170.5zM958 1821q43 0 70 -28t18.5 -71t-43 -70.5 t-77.5 -27.5t-70 27.5t-18.5 70.5t43 71t77.5 28zM1321 1821q43 0 69.5 -28t18.5 -71t-43 -70.5t-78 -27.5t-69.5 27.5t-18.5 70.5t43 71t78 28z" glyph-name="Odieresis" horiz-adv-x="1640" unicode="Ö"/><glyph d="M510 563l-225 271l110 90l221 -269l322 271l70 -92l-316 -271l221 -270l-106 -92l-227 270l-312 -268l-78 90z" glyph-name="multiply" horiz-adv-x="1001" unicode="×"/><glyph d="M1054 1427q284 0 451 -176l209 183l64 -76l-213 -184q135 -201 84 -487t-294 -496.5t-542 -210.5q-262 -1 -430 167l-193 -170l-63 76l197 170q-140 203 -90 493t293 500.5t527 210.5zM1028 1292q-228 0 -423 -172t-236 -406t65 -395l961 834q-139 139 -367 139zM836 115 q244 0 440.5 171t236.5 402t-61 389l-958 -833q139 -129 342 -129z" glyph-name="Oslash" horiz-adv-x="1636" unicode="Ø"/><glyph d="M710.5 115q153.5 0 275.5 100t151 262l166 934h135l-164 -934q-39 -221 -208 -359t-379 -138t-330.5 138t-84.5 359l166 934h135l-165 -934q-29 -162 60 -262t242.5 -100zM897 1546l-123 275h168l94 -275h-139z" glyph-name="Ugrave" horiz-adv-x="1380" unicode="Ù"/><glyph d="M710.5 115q153.5 0 275.5 100t151 262l166 934h135l-164 -934q-39 -221 -208 -359t-379 -138t-330.5 138t-84.5 359l166 934h135l-165 -934q-29 -162 60 -262t242.5 -100zM1235 1821l-221 -275h-140l193 275h168z" glyph-name="Uacute" horiz-adv-x="1380" unicode="Ú"/><glyph d="M710.5 115q153.5 0 275.5 100t151 262l166 934h135l-164 -934q-39 -221 -208 -359t-379 -138t-330.5 138t-84.5 359l166 934h135l-165 -934q-29 -162 60 -262t242.5 -100zM1106 1546l-113 176l-176 -176h-139l244 275h178l145 -275h-139z" glyph-name="Ucircumflex" horiz-adv-x="1380" unicode="Û"/><glyph d="M710.5 115q153.5 0 275.5 100t151 262l166 934h135l-164 -934q-39 -221 -208 -359t-379 -138t-330.5 138t-84.5 359l166 934h135l-165 -934q-29 -162 60 -262t242.5 -100zM829 1821q43 0 70 -28t18.5 -71t-43 -70.5t-77.5 -27.5t-70 27.5t-18.5 70.5t43 71t77.5 28z M1192 1821q43 0 69.5 -28t18.5 -71t-43 -70.5t-78 -27.5t-69.5 27.5t-18.5 70.5t43 71t78 28z" glyph-name="Udieresis" horiz-adv-x="1380" unicode="Ü"/><glyph d="M813 655l-115 -655h-139l115 655l-398 756h162l332 -608l549 608h164zM1186 1821l-221 -275h-140l193 275h168z" glyph-name="Yacute" horiz-adv-x="1259" unicode="Ý"/><glyph d="M723 295h-332l-49 -295h-137l248 1411h137l-45 -262h332q178 0 277 -117t66.5 -307t-176 -310t-321.5 -120zM748 430q121 0 216.5 82t119.5 212t-43.5 210t-188.5 80h-332l-104 -584h332z" glyph-name="Thorn" horiz-adv-x="1171" unicode="Þ"/><glyph d="M823 1452h21q152 0 237.5 -100.5t61.5 -243.5q-14 -82 -69.5 -154.5t-135.5 -109.5q115 -29 170 -149t33 -251q-35 -193 -187.5 -324.5t-353.5 -131.5q-100 -2 -205 41l25 129q80 -41 212 -41t240.5 96t133.5 228t-53.5 231.5t-215.5 99.5h-69l20 123h66q94 0 166 61.5 t88 150.5t-37 150.5t-150 65.5h-20q-115 0 -205 -79t-115 -214l-180 -1030h-135l180 1030q35 197 166 309.5t311 112.5z" glyph-name="germandbls" horiz-adv-x="1161" unicode="ß"/><glyph d="M772 1137l-125 274h168l96 -274h-139zM584 -20q-209 0 -325 139t-77 362.5t204 359.5t374 136q111 0 203 -46t127 -132l26 157h137l-166 -956h-137l27 164q-68 -88 -176.5 -136t-216.5 -48zM612 117q152 0 272 97t150 265t-63.5 264.5t-240.5 96.5t-264.5 -98.5 t-146.5 -258.5t56 -263t237 -103z" glyph-name="agrave" horiz-adv-x="1253" unicode="à"/><glyph d="M1077 1411l-219 -274h-139l190 274h168zM584 -20q-209 0 -325 139t-77 362.5t204 359.5t374 136q111 0 203 -46t127 -132l26 157h137l-166 -956h-137l27 164q-68 -88 -176.5 -136t-216.5 -48zM612 117q152 0 272 97t150 265t-63.5 264.5t-240.5 96.5t-264.5 -98.5 t-146.5 -258.5t56 -263t237 -103z" glyph-name="aacute" horiz-adv-x="1253" unicode="á"/><glyph d="M967 1137l-115 176l-174 -176h-139l241 274h178l148 -274h-139zM584 -20q-209 0 -325 139t-77 362.5t204 359.5t374 136q111 0 203 -46t127 -132l26 157h137l-166 -956h-137l27 164q-68 -88 -176.5 -136t-216.5 -48zM612 117q152 0 272 97t150 265t-63.5 264.5 t-240.5 96.5t-264.5 -98.5t-146.5 -258.5t56 -263t237 -103z" glyph-name="acircumflex" horiz-adv-x="1253" unicode="â"/><glyph d="M759 1282q-26 0 -53.5 -23.5t-37.5 -68.5h-105q29 115 88.5 168t116.5 53t105.5 -43t74.5 -43t51 20.5t33 65.5h105q-25 -115 -84.5 -165t-117.5 -50t-104 43t-72 43zM584 -20q-209 0 -325 139t-77 362.5t204 359.5t374 136q111 0 203 -46t127 -132l26 157h137l-166 -956 h-137l27 164q-68 -88 -176.5 -136t-216.5 -48zM612 117q152 0 272 97t150 265t-63.5 264.5t-240.5 96.5t-264.5 -98.5t-146.5 -258.5t56 -263t237 -103z" glyph-name="atilde" horiz-adv-x="1253" unicode="ã"/><glyph d="M688 1411q43 0 70.5 -27.5t19.5 -70.5t-44 -71t-79 -28t-68.5 28t-17 71t42 70.5t76.5 27.5zM1051 1411q43 0 70.5 -27.5t19.5 -70.5t-44 -71t-79 -28t-68.5 28t-17.5 71t42 70.5t77 27.5zM584 -20q-209 0 -325 139t-77 362.5t204 359.5t374 136q111 0 203 -46t127 -132 l26 157h137l-166 -956h-137l27 164q-68 -88 -176.5 -136t-216.5 -48zM612 117q152 0 272 97t150 265t-63.5 264.5t-240.5 96.5t-264.5 -98.5t-146.5 -258.5t56 -263t237 -103z" glyph-name="adieresis" horiz-adv-x="1253" unicode="ä"/><glyph d="M892 1534q83 0 131 -58.5t33 -142.5t-83 -140t-152 -56t-130 57t-31 140t82 141.5t150 58.5zM844 1243q39 0 69.5 26.5t36.5 65.5t-15.5 65.5t-60 26.5t-70.5 -26.5t-38 -66.5t16.5 -65.5t61.5 -25.5zM584 -20q-209 0 -325 139t-77 362.5t204 359.5t374 136 q111 0 203 -46t127 -132l26 157h137l-166 -956h-137l27 164q-68 -88 -176.5 -136t-216.5 -48zM612 117q152 0 272 97t150 265t-63.5 264.5t-240.5 96.5t-264.5 -98.5t-146.5 -258.5t56 -263t237 -103z" glyph-name="aring" horiz-adv-x="1253" unicode="å"/><glyph d="M1454 115q205 0 328 166q43 -13 129 -31q-78 -127 -207 -198.5t-274 -71.5q-213 0 -326 141l-17 -121h-137l27 164q-68 -88 -176.5 -136t-216.5 -48q-209 0 -325 139t-77 362.5t204 359.5t374 136q111 0 203 -46t127 -132l26 157h137l-22 -118q164 139 373 139t315 -135 t68 -361q0 -30 -13 -63h-811q-4 -139 76 -221t215 -82zM612 117q152 0 272 97t150 265t-63.5 264.5t-240.5 96.5t-264.5 -98.5t-146.5 -258.5t56 -263t237 -103zM1579 842q-133 0 -241.5 -81t-151.5 -216h674q4 137 -72 217t-209 80z" glyph-name="ae" horiz-adv-x="1992" unicode="æ"/><glyph d="M383 -272q0 -11 38 -30.5t77 -3.5t59.5 52.5t11.5 71.5l-41 166q-182 23 -282.5 157.5t-62.5 347.5t207 350.5t377 137.5t325 -129l-113 -96q-85 90 -235 90t-273 -99.5t-153.5 -261.5t58.5 -264t237 -102t270 92l82 -96q-150 -115 -322 -129l29 -121q20 -82 -24 -157.5 t-129 -107.5t-169 7t-76 190l109 -8v-57z" glyph-name="ccedilla" horiz-adv-x="1034" unicode="ç"/><glyph d="M602 115q205 0 328 166q43 -13 129 -31q-78 -127 -207 -198.5t-274 -71.5q-207 0 -321 139t-75 362.5t201 359.5t370 136t314.5 -135t67.5 -361q0 -30 -13 -63h-811q-4 -139 76 -221t215 -82zM727 842q-133 0 -241.5 -81t-151.5 -216h674q4 137 -72 217t-209 80z M717 1137l-125 274h168l96 -274h-139z" glyph-name="egrave" horiz-adv-x="1140" unicode="è"/><glyph d="M602 115q205 0 328 166q43 -13 129 -31q-78 -127 -207 -198.5t-274 -71.5q-207 0 -321 139t-75 362.5t201 359.5t370 136t314.5 -135t67.5 -361q0 -30 -13 -63h-811q-4 -139 76 -221t215 -82zM727 842q-133 0 -241.5 -81t-151.5 -216h674q4 137 -72 217t-209 80z M1051 1411l-220 -274h-139l191 274h168z" glyph-name="eacute" horiz-adv-x="1140" unicode="é"/><glyph d="M602 115q205 0 328 166q43 -13 129 -31q-78 -127 -207 -198.5t-274 -71.5q-207 0 -321 139t-75 362.5t201 359.5t370 136t314.5 -135t67.5 -361q0 -30 -13 -63h-811q-4 -139 76 -221t215 -82zM727 842q-133 0 -241.5 -81t-151.5 -216h674q4 137 -72 217t-209 80z M920 1137l-115 176l-174 -176h-139l241 274h178l148 -274h-139z" glyph-name="ecircumflex" horiz-adv-x="1140" unicode="ê"/><glyph d="M602 115q205 0 328 166q43 -13 129 -31q-78 -127 -207 -198.5t-274 -71.5q-207 0 -321 139t-75 362.5t201 359.5t370 136t314.5 -135t67.5 -361q0 -30 -13 -63h-811q-4 -139 76 -221t215 -82zM727 842q-133 0 -241.5 -81t-151.5 -216h674q4 137 -72 217t-209 80z M641 1411q43 0 70.5 -27.5t19.5 -70.5t-44 -71t-79 -28t-68.5 28t-17.5 71t42 70.5t77 27.5zM1004 1411q43 0 70.5 -27.5t19 -70.5t-44 -71t-78.5 -28t-68.5 28t-17.5 71t42 70.5t77 27.5z" glyph-name="edieresis" horiz-adv-x="1140" unicode="ë"/><glyph d="M301 0h-135l168 956h135zM358 1137l-122 274h167l95 -274h-140z" glyph-name="igrave" horiz-adv-x="466" unicode="ì"/><glyph d="M469 956l-168 -956h-135l168 956h135zM723 1411l-221 -274h-140l193 274h168z" glyph-name="iacute" horiz-adv-x="466" unicode="í"/><glyph d="M469 956l-168 -956h-135l168 956h135zM580 1137l-115 176l-174 -176h-139l243 274h178l146 -274h-139z" glyph-name="icircumflex" horiz-adv-x="466" unicode="î"/><glyph d="M301 0h-135l168 956h135zM303 1411q43 0 69.5 -27.5t18.5 -70.5t-43 -71t-78 -28t-69.5 28t-18.5 71t43 70.5t78 27.5zM666 1411q43 0 69.5 -27.5t18 -70.5t-43 -71t-77.5 -28t-69.5 28t-18.5 71t43 70.5t78 27.5z" glyph-name="idieresis" horiz-adv-x="466" unicode="ï"/><glyph d="M594 -20q-209 0 -330 139t-82 361t206 359.5t366 137.5q61 0 110 -21l-157 252l-201 -114l-35 77l195 111l-131 193h167l84 -123l154 88l49 -72l-155 -88l309 -498q70 -123 39 -301q-39 -223 -209 -362t-379 -139zM617 115q153 0 276 102t153.5 264t-58.5 261.5 t-242.5 99.5t-275.5 -99.5t-152.5 -261.5t58 -264t241.5 -102z" glyph-name="eth" horiz-adv-x="1202" unicode="ð"/><glyph d="M793 977q174 0 251.5 -111.5t40.5 -308.5l-96 -557h-137l96 557q23 133 -23 209t-166 76t-227.5 -79t-136.5 -241l-92 -522h-137l168 956h137l-29 -157q57 88 157.5 133t193.5 45zM708 1282q-26 0 -52.5 -23.5t-37.5 -68.5h-104q27 115 87.5 168t117.5 53t105 -43t74 -43 t51.5 20.5t33.5 65.5h104q-27 -115 -85 -165t-116 -50t-105 43t-73 43z" glyph-name="ntilde" unicode="ñ"/><glyph d="M594 -20q-209 0 -330 139t-82 361t208 359.5t380 137.5t331 -137.5t81 -359.5t-209 -361t-379 -139zM617 115q153 0 276 102t153.5 264t-58.5 261.5t-242.5 99.5t-275.5 -99.5t-152.5 -261.5t58 -264t241.5 -102zM735 1137l-125 274h168l96 -274h-139z" glyph-name="ograve" horiz-adv-x="1200" unicode="ò"/><glyph d="M594 -20q-209 0 -330 139t-82 361t208 359.5t380 137.5t331 -137.5t81 -359.5t-209 -361t-379 -139zM617 115q153 0 276 102t153.5 264t-58.5 261.5t-242.5 99.5t-275.5 -99.5t-152.5 -261.5t58 -264t241.5 -102zM1073 1411l-219 -274h-139l190 274h168z" glyph-name="oacute" horiz-adv-x="1200" unicode="ó"/><glyph d="M594 -20q-209 0 -330 139t-82 361t208 359.5t380 137.5t331 -137.5t81 -359.5t-209 -361t-379 -139zM617 115q153 0 276 102t153.5 264t-58.5 261.5t-242.5 99.5t-275.5 -99.5t-152.5 -261.5t58 -264t241.5 -102zM942 1137l-115 176l-174 -176h-139l242 274h178l147 -274 h-139z" glyph-name="ocircumflex" horiz-adv-x="1200" unicode="ô"/><glyph d="M594 -20q-209 0 -330 139t-82 361t208 359.5t380 137.5t331 -137.5t81 -359.5t-209 -361t-379 -139zM617 115q153 0 276 102t153.5 264t-58.5 261.5t-242.5 99.5t-275.5 -99.5t-152.5 -261.5t58 -264t241.5 -102zM734 1282q-26 0 -53.5 -23.5t-37.5 -68.5h-104 q29 115 88 168t117 53t105.5 -43t73.5 -43t51 20.5t34 65.5h104q-25 -115 -84.5 -165t-117.5 -50t-104 43t-72 43z" glyph-name="otilde" horiz-adv-x="1200" unicode="õ"/><glyph d="M594 -20q-209 0 -330 139t-82 361t208 359.5t380 137.5t331 -137.5t81 -359.5t-209 -361t-379 -139zM617 115q153 0 276 102t153.5 264t-58.5 261.5t-242.5 99.5t-275.5 -99.5t-152.5 -261.5t58 -264t241.5 -102zM664 1411q43 0 70.5 -27.5t19 -70.5t-44 -71t-78.5 -28 t-68.5 28t-17.5 71t42 70.5t77 27.5zM1026 1411q43 0 70.5 -27.5t19.5 -70.5t-44 -71t-79 -28t-68.5 28t-17.5 71t42 70.5t77 27.5z" glyph-name="odieresis" horiz-adv-x="1200" unicode="ö"/><glyph d="M649 319q47 0 75 -30.5t19.5 -75.5t-46.5 -76t-85 -31t-74.5 31t-19.5 76t46 75.5t85 30.5zM766 977q47 0 74.5 -31t19.5 -76t-46 -75.5t-85 -30.5t-74.5 30.5t-19.5 75.5t46 76t85 31zM1135 606l-23 -129h-872l22 129h873z" glyph-name="divide" horiz-adv-x="1187" unicode="÷"/><glyph d="M770 977q170 0 291 -98l121 106l63 -76l-119 -102q88 -133 52 -341t-205 -347t-367 -139t-311 106l-123 -109l-63 76l122 109q-82 136 -45 338t205 339.5t379 137.5zM628 115q140 0 264 101.5t152 249.5t-34 243l-600 -525q78 -69 218 -69zM730 842q-138 0 -260 -99.5 t-153 -261.5q-23 -121 27 -221l602 520q-78 62 -216 62z" glyph-name="oslash" horiz-adv-x="1196" unicode="ø"/><glyph d="M516 -20q-174 0 -252 111.5t-41 307.5l99 557h137l-99 -557q-23 -133 23.5 -208.5t166.5 -75.5t227 78.5t138 240.5l93 522h137l-168 -956h-137l26 158q-57 -88 -157.5 -133t-192.5 -45zM711 1137l-123 274h168l94 -274h-139z" glyph-name="ugrave" unicode="ù"/><glyph d="M516 -20q-174 0 -252 111.5t-41 307.5l99 557h137l-99 -557q-23 -133 23.5 -208.5t166.5 -75.5t227 78.5t138 240.5l93 522h137l-168 -956h-137l26 158q-57 -88 -157.5 -133t-192.5 -45zM1036 1411l-221 -274h-139l192 274h168z" glyph-name="uacute" unicode="ú"/><glyph d="M516 -20q-174 0 -252 111.5t-41 307.5l99 557h137l-99 -557q-23 -133 23.5 -208.5t166.5 -75.5t227 78.5t138 240.5l93 522h137l-168 -956h-137l26 158q-57 -88 -157.5 -133t-192.5 -45zM928 1137l-113 176l-176 -176h-139l243 274h179l145 -274h-139z" glyph-name="ucircumflex" unicode="û"/><glyph d="M516 -20q-174 0 -252 111.5t-41 307.5l99 557h137l-99 -557q-23 -133 23.5 -208.5t166.5 -75.5t227 78.5t138 240.5l93 522h137l-168 -956h-137l26 158q-57 -88 -157.5 -133t-192.5 -45zM651 1411q43 0 70 -27.5t18.5 -70.5t-43 -71t-78 -28t-70 28t-18 71t43 70.5 t77.5 27.5zM1014 1411q43 0 69.5 -27.5t18.5 -70.5t-43 -71t-78 -28t-69.5 28t-18.5 71t43 70.5t78 27.5z" glyph-name="udieresis" unicode="ü"/><glyph d="M307 -463h-141l274 465l-223 954h143l187 -778l463 778h145zM975 1411l-221 -274h-140l193 274h168z" glyph-name="yacute" horiz-adv-x="1034" unicode="ý"/><glyph d="M836 979q209 0 324.5 -136t76.5 -359.5t-204 -362.5t-374 -139q-109 0 -200.5 48t-126.5 136l-115 -629h-137l346 1938h137l-119 -674q66 86 173.5 132t218.5 46zM816 842q-146 0 -273 -96.5t-157 -264.5t56 -265t238 -97t272.5 103t148.5 263t-55.5 258.5t-229.5 98.5z " glyph-name="thorn" horiz-adv-x="1253" unicode="þ"/><glyph d="M166 -463l274 465l-223 954h143l187 -778l463 778h145l-848 -1419h-141zM590 1411q43 0 69.5 -27.5t18.5 -70.5t-43 -71t-78 -28t-69.5 28t-18.5 71t43 70.5t78 27.5zM952 1411q43 0 70 -27.5t18.5 -70.5t-43 -71t-77.5 -28t-70 28t-18.5 71t43 70.5t77.5 27.5z" glyph-name="ydieresis" horiz-adv-x="1034" unicode="ÿ"/><glyph d="M184 0h-145l790 1411h144l295 -1411h-146l-80 371h-653zM1018 498l-150 725l-407 -725h557zM731 1825h488l-23 -129h-487z" glyph-name="Amacron" horiz-adv-x="1306" unicode="Ā"/><glyph d="M623 1370h487l-25 -129h-487zM584 -20q-209 0 -325 139t-77 362.5t204 359.5t374 136q111 0 203 -46t127 -132l26 157h137l-166 -956h-137l27 164q-68 -88 -176.5 -136t-216.5 -48zM612 117q152 0 272 97t150 265t-63.5 264.5t-240.5 96.5t-264.5 -98.5t-146.5 -258.5 t56 -263t237 -103z" glyph-name="amacron" horiz-adv-x="1253" unicode="ā"/><glyph d="M39 0l790 1411h144l295 -1411h-146l-80 371h-653l-205 -371h-145zM868 1223l-407 -725h557zM960 1724q64 0 109 41t61 101h107q-23 -117 -103.5 -186.5t-201.5 -69.5t-171 75t-32 181h107q-2 -63 29 -102.5t95 -39.5z" glyph-name="Abreve" horiz-adv-x="1306" unicode="Ă"/><glyph d="M723 1411q0 -63 31.5 -102t96.5 -39t109 41t58 100h106q-18 -115 -100 -185.5t-202 -70.5t-171 73.5t-35 182.5h107zM584 -20q-209 0 -325 139t-77 362.5t204 359.5t374 136q111 0 203 -46t127 -132l26 157h137l-166 -956h-137l27 164q-68 -88 -176.5 -136t-216.5 -48z M612 117q152 0 272 97t150 265t-63.5 264.5t-240.5 96.5t-264.5 -98.5t-146.5 -258.5t56 -263t237 -103z" glyph-name="abreve" horiz-adv-x="1253" unicode="ă"/><glyph d="M1018 498l-150 725l-407 -725h557zM1040 -139l82 139l-80 371h-653l-205 -371h-145l790 1411h144l295 -1411h-56l-86 -182q-18 -37 -11 -73t41 -51t83.5 6.5t60.5 84.5l111 8q-6 -39 -35 -88q-47 -78 -126.5 -108.5t-151.5 1.5t-88.5 106.5t30.5 156.5z" glyph-name="Aogonek" horiz-adv-x="1306" unicode="Ą"/><glyph d="M584 -20q-209 0 -325 139t-77 362.5t204 359.5t374 136q111 0 203 -46t127 -132l26 157h137l-166 -956h-49l-71 -182q-16 -37 -10 -73t38 -52q33 -14 82.5 7t61.5 85l110 8q-3 -37 -41 -101t-118 -95t-151 1t-85 107.5t27 155.5l69 139l27 164q-68 -88 -176.5 -136 t-216.5 -48zM612 117q152 0 272 97t150 265t-63.5 264.5t-240.5 96.5t-264.5 -98.5t-146.5 -258.5t56 -263t237 -103z" glyph-name="aogonek" horiz-adv-x="1253" unicode="ą"/><glyph d="M1046 1427q296 0 463 -210l-110 -95q-139 170 -378 170t-424 -171t-228 -418.5t80.5 -417.5t363 -170t438.5 172l78 -97q-240 -210 -538 -210t-455.5 209.5t-102.5 513.5t286 514t527 210zM1290 1866l-221 -275h-139l192 275h168z" glyph-name="Cacute" horiz-adv-x="1359" unicode="Ć"/><glyph d="M590 -20q-205 0 -326 139t-82 361t208 359.5t378 137.5t322 -129l-111 -96q-86 90 -237 90t-272.5 -99.5t-152 -261.5t59 -264t237.5 -102t269 92l82 -96q-170 -131 -375 -131zM983 1411l-219 -274h-139l190 274h168z" glyph-name="cacute" horiz-adv-x="1032" unicode="ć"/><glyph d="M1046 1427q296 0 463 -210l-110 -95q-139 170 -378 170t-424 -171t-228 -418.5t80.5 -417.5t363 -170t438.5 172l78 -97q-240 -210 -538 -210t-455.5 209.5t-102.5 513.5t286 514t527 210zM1202 1591l-115 176l-174 -176h-139l244 275h178l145 -275h-139z" glyph-name="Ccircumflex" horiz-adv-x="1359" unicode="Ĉ"/><glyph d="M590 -20q-205 0 -326 139t-82 361t208 359.5t378 137.5t322 -129l-111 -96q-86 90 -237 90t-272.5 -99.5t-152 -261.5t59 -264t237.5 -102t269 92l82 -96q-170 -131 -375 -131zM911 1137l-114 176l-174 -176h-140l242 274h178l148 -274h-140z" glyph-name="ccircumflex" horiz-adv-x="1032" unicode="ĉ"/><glyph d="M1046 1427q296 0 463 -210l-110 -95q-139 170 -378 170t-424 -171t-228 -418.5t80.5 -417.5t363.5 -170t438 172l78 -97q-240 -210 -538 -210t-455.5 209.5t-102.5 513.5t286 514t527 210zM1081 1866q43 0 69 -28t17.5 -71t-44.5 -70.5t-79 -27.5t-68.5 27.5t-17 70.5 t44 71t78.5 28z" glyph-name="Cdotaccent" horiz-adv-x="1359" unicode="Ċ"/><glyph d="M590 -20q-205 0 -326 139t-82 361t208 359.5t378 137.5t322 -129l-111 -96q-86 90 -237 90t-272.5 -99.5t-152 -261.5t59 -264t237.5 -102t269 92l82 -96q-170 -131 -375 -131zM831 1411q43 0 71 -27.5t19.5 -70.5t-44 -71t-78.5 -28t-68.5 28t-17.5 71t41.5 70.5 t76.5 27.5z" glyph-name="cdotaccent" horiz-adv-x="1032" unicode="ċ"/><glyph d="M1046 1427q296 0 463 -210l-110 -95q-139 170 -378 170t-424 -171t-228 -418.5t80.5 -417.5t363 -170t438.5 172l78 -97q-240 -210 -538 -210t-455.5 209.5t-102.5 513.5t286 514t527 210zM946 1866l113 -176l176 176h139l-244 -275h-178l-145 275h139z" glyph-name="Ccaron" horiz-adv-x="1359" unicode="Č"/><glyph d="M590 -20q-205 0 -326 139t-82 361t208 359.5t378 137.5t322 -129l-111 -96q-86 90 -237 90t-272.5 -99.5t-152 -261.5t59 -264t237.5 -102t269 92l82 -96q-170 -131 -375 -131zM664 1411l116 -176l172 176h140l-242 -274h-178l-148 274h140z" glyph-name="ccaron" horiz-adv-x="1032" unicode="č"/><glyph d="M735 0h-530l248 1411h530q291 0 423 -198.5t77 -508.5t-256 -507t-492 -197zM758 135q236 0 390.5 157t199.5 410.5t-53.5 413.5t-333.5 160h-396l-203 -1141h396zM907 1866l115 -176l174 176h139l-243 -275h-179l-145 275h139z" glyph-name="Dcaron" horiz-adv-x="1478" unicode="Ď"/><glyph d="M584 -20q-209 0 -325 139t-77 362.5t204 359.5t374 136q111 0 203 -46t127 -132l120 676h138l-261 -1475h-137l27 164q-68 -88 -176.5 -136t-216.5 -48zM612 117q152 0 272 97t150 265t-63.5 264.5t-240.5 96.5t-264.5 -98.5t-146.5 -258.5t56 -263t237 -103zM1462 1073 l-92 27q145 168 146 327h155q-39 -235 -209 -354z" glyph-name="dcaron" horiz-adv-x="1253" unicode="ď"/><glyph d="M745 0h-530l113 643h-201l23 125h200l113 643h530q291 0 423 -198.5t77 -508.5t-256 -507t-492 -197zM768 135q236 0 390.5 157.5t199.5 411.5t-52.5 413t-332.5 159h-395l-93 -508h353l-23 -125h-352l-90 -508h395z" glyph-name="Dcroat" horiz-adv-x="1488" unicode="Đ"/><glyph d="M612 117q152 0 272 97t150 265t-63.5 264.5t-240.5 96.5t-264.5 -98.5t-146.5 -258.5t56 -263t237 -103zM584 -20q-209 0 -325 139t-77 362.5t204 359.5t374 136q111 0 203 -46t127 -132l65 379h-324l21 102h324l34 195h138l-35 -195h168l-21 -102h-168l-205 -1178h-137 l27 164q-68 -88 -176.5 -136t-216.5 -48z" glyph-name="dcroat" horiz-adv-x="1253" unicode="đ"/><glyph d="M453 1411h804l-22 -135h-670l-92 -516h586l-25 -135h-585l-87 -490h693l-23 -135h-827zM655 1825h488l-23 -129h-487z" glyph-name="Emacron" horiz-adv-x="1144" unicode="Ē"/><glyph d="M602 115q205 0 328 166q43 -13 129 -31q-78 -127 -207 -198.5t-274 -71.5q-207 0 -321 139t-75 362.5t201 359.5t370 136t314.5 -135t67.5 -361q0 -30 -13 -63h-811q-4 -139 76 -221t215 -82zM727 842q-133 0 -241.5 -81t-151.5 -216h674q4 137 -72 217t-209 80z M573 1370h488l-25 -129h-487z" glyph-name="emacron" horiz-adv-x="1140" unicode="ē"/><glyph d="M1257 1411l-22 -135h-670l-92 -516h586l-25 -135h-585l-87 -490h693l-23 -135h-827l248 1411h804zM884 1724q65 0 109.5 41t61.5 101h106q-23 -117 -103.5 -186.5t-201.5 -69.5t-171 75t-32 181h107q-2 -63 28.5 -102.5t95.5 -39.5z" glyph-name="Ebreve" horiz-adv-x="1144" unicode="Ĕ"/><glyph d="M602 115q205 0 328 166q43 -13 129 -31q-78 -127 -207 -198.5t-274 -71.5q-207 0 -321 139t-75 362.5t201 359.5t370 136t314.5 -135t67.5 -361q0 -30 -13 -63h-811q-4 -139 76 -221t215 -82zM727 842q-133 0 -241.5 -81t-151.5 -216h674q4 137 -72 217t-209 80z M674 1411q0 -63 31.5 -102t96.5 -39t108.5 41t58.5 100h106q-18 -115 -100 -185.5t-202 -70.5t-171 73.5t-35 182.5h107z" glyph-name="ebreve" horiz-adv-x="1140" unicode="ĕ"/><glyph d="M1257 1411l-22 -135h-670l-92 -516h586l-25 -135h-585l-87 -490h693l-23 -135h-827l248 1411h804zM948 1866q43 0 68.5 -28t17.5 -71t-43 -70.5t-78 -27.5t-69.5 27.5t-18 70.5t44 71t78.5 28z" glyph-name="Edotaccent" horiz-adv-x="1144" unicode="Ė"/><glyph d="M602 115q205 0 328 166q43 -13 129 -31q-78 -127 -207 -198.5t-274 -71.5q-207 0 -321 139t-75 362.5t201 359.5t370 136t314.5 -135t67.5 -361q0 -30 -13 -63h-811q-4 -139 76 -221t215 -82zM727 842q-133 0 -241.5 -81t-151.5 -216h674q4 137 -72 217t-209 80z M821 1411q43 0 71 -27.5t19.5 -70.5t-44.5 -71t-79 -28t-68.5 28t-17 71t42 70.5t76.5 27.5z" glyph-name="edotaccent" horiz-adv-x="1140" unicode="ė"/><glyph d="M938 0h-733l248 1411h804l-22 -135h-670l-92 -516h586l-25 -135h-585l-87 -490h693l-23 -135l-112 -182q-23 -35 -14 -72t43 -52t82.5 6t62.5 85l110 8q-6 -39 -35 -88q-47 -78 -126.5 -108.5t-152.5 2.5t-92.5 108.5t36.5 153.5z" glyph-name="Eogonek" horiz-adv-x="1144" unicode="Ę"/><glyph d="M602 115q205 0 328 166q43 -13 129 -31q-26 -45 -118.5 -120t-125.5 -105q-105 -98 -166 -207q-20 -35 -12 -72t41 -52t83.5 6.5t59.5 84.5h109q-2 -33 -31 -80q-47 -78 -127 -108.5t-152 2.5t-93 109.5t36 152.5l109 131q-31 -12 -94 -12q-207 0 -321 139t-75 362.5 t201 359.5t370 136t314.5 -135t67.5 -361q0 -30 -13 -63h-811q-4 -139 76 -221t215 -82zM727 842q-133 0 -241.5 -81t-151.5 -216h674q4 137 -72 217t-209 80z" glyph-name="eogonek" unicode="ę"/><glyph d="M453 1411h804l-22 -135h-670l-92 -516h586l-25 -135h-585l-87 -490h693l-23 -135h-827zM797 1866l114 -176l174 176h140l-244 -275h-178l-146 275h140z" glyph-name="Ecaron" horiz-adv-x="1144" unicode="Ě"/><glyph d="M602 115q205 0 328 166q43 -13 129 -31q-78 -127 -207 -198.5t-274 -71.5q-207 0 -321 139t-75 362.5t201 359.5t370 136t314.5 -135t67.5 -361q0 -30 -13 -63h-811q-4 -139 76 -221t215 -82zM727 842q-133 0 -241.5 -81t-151.5 -216h674q4 137 -72 217t-209 80z M678 1411l117 -176l172 176h139l-242 -274h-178l-147 274h139z" glyph-name="ecaron" horiz-adv-x="1140" unicode="ě"/><glyph d="M818 -20q-304 0 -471 210.5t-114 512.5t295 513t541 211q254 0 424 -163l-113 -97q-135 125 -333 125q-244 0 -439.5 -172t-238.5 -417.5t91 -416.5t370 -171t388 118.5t203 331.5h-411l22 127h563q-61 -352 -267 -532t-510 -180zM1208 1591l-114 176l-174 -176h-140 l244 275h178l146 -275h-140z" glyph-name="Gcircumflex" horiz-adv-x="1548" unicode="Ĝ"/><glyph d="M605 117q146 0 271 96t155 264t-55 265.5t-237 97.5t-271.5 -103.5t-148.5 -263.5t55.5 -258t230.5 -98zM512 -342q377 0 465 494l4 22q-61 -90 -174 -142t-223 -52q-209 0 -325 136t-77 359t205 362.5t375 139.5q109 0 200 -48t128 -136l28 163h137l-143 -804 q-111 -629 -623 -629q-125 0 -223 59t-145 178l127 68q72 -170 264 -170zM967 1137l-113 176l-176 -176h-139l243 274h179l145 -274h-139z" glyph-name="gcircumflex" horiz-adv-x="1251" unicode="ĝ"/><glyph d="M818 -20q-304 0 -471 210.5t-114 512.5t295 513t541 211q254 0 424 -163l-113 -97q-135 125 -333 125q-244 0 -439.5 -172t-238.5 -417.5t91 -416.5t370 -171t388 118.5t203 331.5h-411l22 127h563q-61 -352 -267 -532t-510 -180zM1090 1724q64 0 108.5 41t63.5 101h106 q-23 -117 -103.5 -186.5t-201.5 -69.5t-171 75t-32 181h107q-4 -61 27.5 -101.5t95.5 -40.5z" glyph-name="Gbreve" horiz-adv-x="1548" unicode="Ğ"/><glyph d="M605 117q146 0 271 96t155 264t-55 265.5t-237 97.5t-271.5 -103.5t-148.5 -263.5t55.5 -258t230.5 -98zM505 -342q185 0 306 119t170 397q-61 -90 -174 -142t-223 -52q-209 0 -325 136t-77 359t205 362.5t375 139.5q109 0 200 -48t128 -136l28 163h137l-143 -804 q-111 -629 -623 -629q-125 0 -223 59t-145 178l127 68q72 -170 257 -170zM725 1411q0 -141 127 -141q66 0 110 42t58 99h106q-20 -115 -102 -185.5t-203 -70.5t-170 73.5t-33 182.5h107z" glyph-name="gbreve" horiz-adv-x="1251" unicode="ğ"/><glyph d="M818 -20q-304 0 -471 210.5t-114 512.5t295 513t541 211q254 0 424 -163l-113 -97q-135 125 -333 125q-244 0 -439.5 -172t-238.5 -417.5t91 -416.5t370 -171t388 118.5t203 331.5h-411l22 127h563q-61 -352 -267 -532t-510 -180zM1114 1866q43 0 68.5 -28t17.5 -71 t-44 -70.5t-79 -27.5t-68.5 27.5t-17.5 70.5t44 71t79 28z" glyph-name="Gdotaccent" horiz-adv-x="1548" unicode="Ġ"/><glyph d="M605 117q146 0 271 96t155 264t-55 265.5t-237 97.5t-271.5 -103.5t-148.5 -263.5t55.5 -258t230.5 -98zM505 -342q185 0 306 119t170 397q-61 -90 -174 -142t-223 -52q-209 0 -325 136t-77 359t205 362.5t375 139.5q109 0 200 -48t128 -136l28 163h137l-143 -804 q-111 -629 -623 -629q-125 0 -223 59t-145 178l127 68q72 -170 257 -170zM872 1411q43 0 70 -27.5t18.5 -70.5t-43 -71t-77.5 -28t-70 28t-18.5 71t43 70.5t77.5 27.5z" glyph-name="gdotaccent" horiz-adv-x="1251" unicode="ġ"/><glyph d="M818 -20q-304 0 -471 210.5t-114 512.5t295 513t541 211q254 0 424 -163l-113 -97q-135 125 -333 125q-244 0 -439.5 -172t-238.5 -417.5t91 -416.5t370 -171t388 118.5t203 331.5h-411l22 127h563q-61 -352 -267 -532t-510 -180zM668 -506l-93 27q147 164 150 348h156 q-47 -252 -213 -375z" glyph-name="Gcommaaccent" horiz-adv-x="1548" unicode="Ģ"/><glyph d="M605 117q146 0 271 96t155 264t-55 265.5t-237 97.5t-271.5 -103.5t-148.5 -263.5t55.5 -258t230.5 -98zM505 -342q185 0 306 119t170 397q-61 -90 -174 -142t-223 -52q-209 0 -325 136t-77 359t205 362.5t375 139.5q109 0 200 -48t128 -136l28 163h137l-143 -804 q-111 -629 -623 -629q-125 0 -223 59t-145 178l127 68q72 -170 257 -170zM881 1470l94 -26q-147 -164 -150 -348h-155q43 255 211 374z" glyph-name="gcommaaccent" horiz-adv-x="1251" unicode="ģ"/><glyph d="M1497 1411l-248 -1411h-135l113 637h-774l-113 -637h-135l248 1411h135l-115 -647h774l115 647h135zM1151 1591l-115 176l-174 -176h-139l244 275h178l145 -275h-139z" glyph-name="Hcircumflex" horiz-adv-x="1454" unicode="Ĥ"/><glyph d="M793 977q174 0 251.5 -111.5t40.5 -308.5l-96 -557h-137l96 557q25 133 -22 209t-167 76t-227.5 -79t-136.5 -241l-92 -522h-137l260 1475h137l-121 -676q57 88 157.5 133t193.5 45zM649 1550l-112 176l-177 -176h-139l244 275h178l145 -275h-139z" glyph-name="hcircumflex" unicode="ĥ"/><glyph d="M1466 1161h150l-19 -110h-149l-186 -1051h-136l113 637h-774l-113 -637h-135l186 1051h-147l18 110h148l43 250h135l-43 -250h774l43 250h135zM485 764h775l53 287h-774z" glyph-name="Hbar" horiz-adv-x="1478" unicode="Ħ"/><glyph d="M793 977q174 0 251.5 -111.5t40.5 -308.5l-96 -557h-137l96 557q23 133 -23 209t-166 76t-227.5 -79t-136.5 -241l-92 -522h-137l207 1180h-168l18 100h168l35 195h137l-35 -195h324l-18 -100h-324l-68 -381q57 88 157.5 133t193.5 45z" glyph-name="hbar" unicode="ħ"/><glyph d="M588 1411l-248 -1411h-135l248 1411h135zM488 1737q-26 0 -52 -23.5t-37 -68.5h-104q29 117 89 169t118 52t104.5 -43t72.5 -43t51.5 20.5t35.5 65.5h104q-27 -115 -86.5 -165t-117.5 -50t-105 43t-73 43z" glyph-name="Itilde" horiz-adv-x="544" unicode="Ĩ"/><glyph d="M469 956l-168 -956h-135l168 956h135zM372 1282q-26 0 -52.5 -23.5t-36.5 -68.5h-105q27 115 87.5 168t117.5 53t105 -43t74 -43t51.5 20.5t33.5 65.5h105q-27 -115 -85.5 -165t-116.5 -50t-105 43t-73 43z" glyph-name="itilde" horiz-adv-x="466" unicode="ĩ"/><glyph d="M588 1411l-248 -1411h-135l248 1411h135zM350 1825h488l-23 -129h-487z" glyph-name="Imacron" horiz-adv-x="544" unicode="Ī"/><glyph d="M469 956l-168 -956h-135l168 956h135zM233 1370h488l-25 -129h-487z" glyph-name="imacron" horiz-adv-x="466" unicode="ī"/><glyph d="M340 0h-135l248 1411h135zM578 1724q64 0 109.5 41t62.5 101h106q-23 -117 -103.5 -186.5t-201.5 -69.5t-171 75t-32 181h107q-2 -63 28.5 -102.5t94.5 -39.5z" glyph-name="Ibreve" horiz-adv-x="544" unicode="Ĭ"/><glyph d="M301 0h-135l168 956h135zM336 1411q0 -141 127 -141q66 0 109.5 42t58.5 99h106q-20 -115 -102 -185.5t-203 -70.5t-170 73.5t-33 182.5h107z" glyph-name="ibreve" horiz-adv-x="466" unicode="ĭ"/><glyph d="M205 0l248 1411h135l-248 -1411h-66l-67 -182q-37 -92 31 -125q33 -14 82.5 7.5t60.5 84.5l111 8q-6 -39 -35 -88q-47 -78 -127 -108.5t-152 2.5t-89 106.5t32 155.5z" glyph-name="Iogonek" horiz-adv-x="544" unicode="Į"/><glyph d="M166 0l168 956h135l-168 -956h-61l-72 -182q-39 -92 31 -125q33 -14 82.5 7.5t60.5 84.5l111 8q-6 -39 -35 -88q-47 -78 -127 -108.5t-152 2.5t-89 106.5t32 155.5zM483 1411q43 0 70 -27.5t18.5 -70.5t-43 -71t-77.5 -28t-70 28t-18.5 71t43 70.5t77.5 27.5z" glyph-name="iogonek" horiz-adv-x="466" unicode="į"/><glyph d="M340 0h-135l248 1411h135zM602 1866q43 0 68.5 -28t17.5 -71t-43 -70.5t-78 -27.5t-69.5 27.5t-18.5 70.5t44 71t79 28z" glyph-name="Idotaccent" horiz-adv-x="544" unicode="İ"/><glyph d="M469 956l-168 -956h-135l168 956h135z" glyph-name="dotlessi" horiz-adv-x="466" unicode="ı"/><glyph d="M588 1411l-248 -1411h-135l248 1411h135zM393 -393q147 0 231.5 87t108.5 226l262 1491h138l-265 -1491q-35 -199 -157.5 -323.5t-339.5 -124.5q-57 0 -127 16l37 133q43 -14 112 -14z" glyph-name="IJ" horiz-adv-x="1089" unicode="Ĳ"/><glyph d="M301 0h-135l168 956h135zM483 1411q43 0 70 -27.5t18.5 -70.5t-43 -71t-77.5 -28t-70 28t-18.5 71t43 70.5t77.5 27.5zM950 1411q43 0 70 -27.5t18.5 -70.5t-43 -71t-78 -28t-70 28t-18 71t43 70.5t77.5 27.5zM375 -334q132 0 180 83t66 196l180 1011h137l-180 -1011 q-74 -408 -408 -408h-102l24 129h103z" glyph-name="ij" horiz-adv-x="935" unicode="ĳ"/><glyph d="M-147 -393q145 0 228 87t107 226l263 1491h135l-264 -1491q-35 -199 -158 -323.5t-336 -124.5q-55 0 -125 16l37 133q43 -14 113 -14zM676 1591l-115 176l-174 -176h-139l244 275h178l145 -275h-139z" glyph-name="Jcircumflex" horiz-adv-x="544" unicode="Ĵ"/><glyph d="M-88 -334q119 0 171 78t73 201l178 1011h137l-180 -1011q-74 -408 -404 -408h-102l25 129h102zM580 1137l-113 176l-176 -176h-139l243 274h178l146 -274h-139z" glyph-name="jcircumflex" horiz-adv-x="468" unicode="ĵ"/><glyph d="M606 705l545 -705h-182l-514 664l-115 -664h-135l248 1411h135l-121 -686l653 686h160zM504 -506l-92 27q147 164 149 348h156q-43 -254 -213 -375z" glyph-name="Kcommaaccent" unicode="Ķ"/><glyph d="M393 522l-92 -522h-135l260 1475h135l-160 -897l447 378h192l-483 -409l424 -547h-186zM383 -506l-92 27q147 164 149 348h156q-43 -254 -213 -375z" glyph-name="kcommaaccent" horiz-adv-x="993" unicode="ķ"/><glyph d="M379 449l-78 -449h-135l168 956h135l-80 -450l510 450h178l-530 -473l403 -483h-188z" glyph-name="kgreenlandic" horiz-adv-x="980" unicode="ĸ"/><glyph d="M453 1411h135l-226 -1276h599l-23 -135h-733zM846 1866l-221 -275h-140l193 275h168z" glyph-name="Lacute" horiz-adv-x="997" unicode="Ĺ"/><glyph d="M561 1475l-260 -1475h-135l260 1475h135zM811 1866l-221 -275h-139l192 275h168z" glyph-name="lacute" horiz-adv-x="466" unicode="ĺ"/><glyph d="M453 1411h135l-226 -1276h599l-23 -135h-733zM393 -506l-92 27q147 164 150 348h155q-43 -254 -213 -375z" glyph-name="Lcommaaccent" horiz-adv-x="997" unicode="Ļ"/><glyph d="M561 1475l-260 -1475h-135l260 1475h135zM78 -506l-88 27q143 168 145 348h156q-43 -254 -213 -375z" glyph-name="lcommaaccent" horiz-adv-x="466" unicode="ļ"/><glyph d="M453 1411h135l-226 -1276h599l-23 -135h-733zM776 975l-96 26q152 168 192 410h156q-37 -152 -108.5 -268.5t-143.5 -167.5z" glyph-name="Lcaron" horiz-adv-x="997" unicode="Ľ"/><glyph d="M561 1475l-260 -1475h-135l260 1475h135zM664 991l-95 27q152 168 193 409h156q-39 -152 -110.5 -269.5t-143.5 -166.5z" glyph-name="lcaron" horiz-adv-x="466" unicode="ľ"/><glyph d="M453 1411h135l-226 -1276h599l-23 -135h-733zM758 645q47 0 73.5 -30.5t18.5 -75.5t-46 -76t-85 -31t-75 31t-19.5 76t47.5 75.5t86 30.5z" glyph-name="Ldot" horiz-adv-x="997" unicode="Ŀ"/><glyph d="M561 1475l-260 -1475h-135l260 1475h135zM641 645q47 0 73.5 -30.5t18.5 -75.5t-46 -76t-85 -31t-74.5 31t-19.5 76t47 75.5t86 30.5z" glyph-name="ldot" horiz-adv-x="643" unicode="ŀ"/><glyph d="M510 895l246 139l-23 -121l-244 -139l-114 -639h598l-23 -135h-733l121 688l-156 -86l23 121l153 86l107 602h135z" glyph-name="Lslash" horiz-adv-x="1009" unicode="Ł"/><glyph d="M475 887l189 108l-23 -121l-188 -108l-134 -766h-135l119 680l-164 -94l21 121l166 94l118 674h136z" glyph-name="lslash" horiz-adv-x="493" unicode="ł"/><glyph d="M1198 0h-139l-512 1182l-207 -1182h-135l248 1411h145l504 -1173l209 1173h135zM1274 1866l-221 -275h-140l193 275h168z" glyph-name="Nacute" horiz-adv-x="1402" unicode="Ń"/><glyph d="M793 977q174 0 251.5 -111.5t40.5 -308.5l-96 -557h-137l96 557q23 133 -23 209t-166 76t-227.5 -79t-136.5 -241l-92 -522h-137l168 956h137l-29 -157q57 88 157.5 133t193.5 45zM1036 1411l-221 -274h-139l192 274h168z" glyph-name="nacute" unicode="ń"/><glyph d="M1198 0h-139l-512 1182l-207 -1182h-135l248 1411h145l504 -1173l209 1173h135zM547 -506l-92 27q147 164 149 348h156q-43 -254 -213 -375z" glyph-name="Ncommaaccent" horiz-adv-x="1402" unicode="Ņ"/><glyph d="M793 977q174 0 251.5 -111.5t40.5 -308.5l-96 -557h-137l96 557q23 133 -23 209t-166 76t-227.5 -79t-136.5 -241l-92 -522h-137l168 956h137l-29 -157q57 88 157.5 133t193.5 45zM418 -506l-92 27q147 164 149 348h156q-43 -254 -213 -375z" glyph-name="ncommaaccent" unicode="ņ"/><glyph d="M1198 0h-139l-512 1182l-207 -1182h-135l248 1411h145l504 -1173l209 1173h135zM887 1866l114 -176l175 176h139l-244 -275h-178l-145 275h139z" glyph-name="Ncaron" horiz-adv-x="1402" unicode="Ň"/><glyph d="M793 977q174 0 251.5 -111.5t40.5 -308.5l-96 -557h-137l96 557q23 133 -23 209t-166 76t-227.5 -79t-136.5 -241l-92 -522h-137l168 956h137l-29 -157q57 88 157.5 133t193.5 45zM676 1411l115 -176l174 176h139l-244 -274h-178l-145 274h139z" glyph-name="ncaron" unicode="ň"/><glyph d="M791 977q174 0 252.5 -112.5t41.5 -307.5l-96 -557h-137l96 557q23 133 -23 209t-166 76t-228.5 -79t-137.5 -241l-90 -522h-137l168 956h137l-29 -157q57 88 156.5 133t192.5 45zM217 993l-94 27q143 160 145 328h156q-35 -236 -207 -355z" glyph-name="napostrophe" unicode="ŉ"/><glyph d="M684 -528q-57 0 -127 16l37 133q43 -14 113 -14q147 0 230 87t110 226l16 80l-516 1182l-207 -1182h-135l248 1411h145l504 -1184l209 1184h135l-248 -1411l-16 -80q-41 -201 -162 -324.5t-336 -123.5z" glyph-name="Eng" horiz-adv-x="1402" unicode="Ŋ"/><glyph d="M759 842q-120 0 -227.5 -79t-136.5 -241l-92 -522h-137l168 956h137l-29 -157q57 88 157.5 133t193.5 45q174 0 251.5 -111.5t40.5 -308.5l-90 -506l-12 -80q-31 -199 -157 -323.5t-343 -124.5q-59 0 -125 16l35 133q43 -14 113 -14q147 0 231 87t109 226l102 586 q23 133 -23 209t-166 76z" glyph-name="eng" unicode="ŋ"/><glyph d="M1069 1427q299 0 468 -210.5t116 -512.5t-297 -513t-543 -211t-466 210.5t-114 512.5t295 513t541 211zM837.5 115q243.5 0 440.5 171t240 416.5t-92.5 417.5t-379 172t-439 -172t-239.5 -418t91 -416.5t378.5 -170.5zM897 1825h487l-24 -129h-488z" glyph-name="Omacron" horiz-adv-x="1640" unicode="Ō"/><glyph d="M594 -20q-209 0 -330 139t-82 361t208 359.5t380 137.5t331 -137.5t81 -359.5t-209 -361t-379 -139zM617 115q153 0 276 102t153.5 264t-58.5 261.5t-242.5 99.5t-275.5 -99.5t-152.5 -261.5t58 -264t241.5 -102zM598 1370h487l-24 -129h-488z" glyph-name="omacron" horiz-adv-x="1200" unicode="ō"/><glyph d="M1069 1427q299 0 468 -210.5t116 -512.5t-297 -513t-543 -211t-466 210.5t-114 512.5t295 513t541 211zM837.5 115q243.5 0 440.5 171t240 416.5t-92.5 417.5t-379 172t-439 -172t-239.5 -418t91 -416.5t378.5 -170.5zM1126 1724q64 0 108 41t62 101h107 q-23 -117 -103.5 -186.5t-201.5 -69.5t-171 75t-32 181h106q-4 -61 28.5 -101.5t96.5 -40.5z" glyph-name="Obreve" horiz-adv-x="1640" unicode="Ŏ"/><glyph d="M594 -20q-209 0 -330 139t-82 361t208 359.5t380 137.5t331 -137.5t81 -359.5t-209 -361t-379 -139zM617 115q153 0 276 102t153.5 264t-58.5 261.5t-242.5 99.5t-275.5 -99.5t-152.5 -261.5t58 -264t241.5 -102zM698 1411q0 -63 32 -102t96 -39t108.5 41t58.5 100h107 q-18 -115 -100 -185.5t-202 -70.5t-171 73.5t-35 182.5h106z" glyph-name="obreve" horiz-adv-x="1200" unicode="ŏ"/><glyph d="M1069 1427q299 0 468 -210.5t116 -512.5t-297 -513t-543 -211t-466 210.5t-114 512.5t295 513t541 211zM837.5 115q243.5 0 440.5 171t240 416.5t-92.5 417.5t-379 172t-439 -172t-239.5 -418t91 -416.5t378.5 -170.5zM1489 1866l-221 -275h-140l193 275h168zM1223 1866 l-193 -275h-147l188 275h152z" glyph-name="Ohungarumlaut" horiz-adv-x="1640" unicode="Ő"/><glyph d="M594 -20q-209 0 -330 139t-82 361t208 359.5t380 137.5t331 -137.5t81 -359.5t-209 -361t-379 -139zM617 115q153 0 276 102t153.5 264t-58.5 261.5t-242.5 99.5t-275.5 -99.5t-152.5 -261.5t58 -264t241.5 -102zM1174 1411l-220 -274h-139l191 274h168zM907 1411 l-190 -274h-148l187 274h151z" glyph-name="ohungarumlaut" horiz-adv-x="1200" unicode="ő"/><glyph d="M813 -20q-299 0 -466 210.5t-114 512.5t295 513t541 211q176 0 312.5 -78.5t211.5 -215.5l49 278h805l-22 -135h-670l-94 -516h586l-25 -135h-586l-86 -490h693l-21 -135h-827l45 274q-123 -137 -287 -215.5t-340 -78.5zM834 115q240 0 433 162.5t246 400.5l7 49 q35 238 -101.5 401.5t-376.5 163.5t-435 -172t-238 -417.5t91 -416.5t374 -171z" glyph-name="OE" horiz-adv-x="2334" unicode="Œ"/><glyph d="M1466 115q205 0 328 166q30 -9 129 -31q-78 -127 -207 -198.5t-269 -71.5t-239.5 62t-140.5 173q-86 -111 -212 -173t-261 -62q-209 0 -330 139t-82 361t208 359.5t380 137.5q135 0 239.5 -61.5t149.5 -170.5q82 109 202 170.5t257 61.5q207 0 313.5 -135t67.5 -361 q0 -33 -12 -63h-811q-4 -139 75.5 -221t214.5 -82zM618.5 115q153.5 0 282.5 98t141 252l2 16q25 164 -61 262.5t-239 98.5t-274.5 -99.5t-152 -261.5t58.5 -264t242.5 -102zM1591 842q-133 0 -241.5 -81t-151.5 -216h674q4 137 -72 217t-209 80z" glyph-name="oe" horiz-adv-x="2004" unicode="œ"/><glyph d="M977 1411q137 0 217 -64.5t99.5 -157.5t-1.5 -210q-31 -178 -144 -300t-306 -128l293 -551h-166l-293 551h-238l-96 -551h-137l248 1411h524zM954 1276h-387l-104 -590h377q139 0 217.5 83t100.5 209t-25.5 212t-178.5 86zM1110 1866l-221 -275h-139l192 275h168z" glyph-name="Racute" horiz-adv-x="1245" unicode="Ŕ"/><glyph d="M725 840q-137 0 -232.5 -138.5t-130.5 -345.5l-59 -356h-137l168 956h137l-39 -217q111 238 318 238q47 0 91 -12.5t56 -24.5l-39 -133q-59 33 -133 33zM737 1411l-221 -274h-139l192 274h168z" glyph-name="racute" horiz-adv-x="772" unicode="ŕ"/><glyph d="M977 1411q137 0 217 -64.5t99.5 -157.5t-1.5 -210q-31 -178 -144 -300t-306 -128l293 -551h-166l-293 551h-238l-96 -551h-137l248 1411h524zM954 1276h-387l-104 -590h377q139 0 217.5 83t100.5 209t-25.5 212t-178.5 86zM508 -506l-92 27q147 164 149 348h156 q-43 -254 -213 -375z" glyph-name="Rcommaaccent" horiz-adv-x="1245" unicode="Ŗ"/><glyph d="M725 840q-137 0 -231.5 -138.5t-131.5 -345.5l-61 -356h-135l168 956h137l-39 -217q111 238 318 238q47 0 91 -12.5t56 -24.5l-39 -133q-59 33 -133 33zM80 -506l-88 27q143 168 145 348h156q-43 -254 -213 -375z" glyph-name="rcommaaccent" horiz-adv-x="772" unicode="ŗ"/><glyph d="M977 1411q137 0 217 -64.5t99.5 -157.5t-1.5 -210q-31 -178 -144 -300t-306 -128l293 -551h-166l-293 551h-238l-96 -551h-137l248 1411h524zM954 1276h-387l-104 -590h377q139 0 217.5 83t100.5 209t-25.5 212t-178.5 86zM809 1866l115 -176l174 176h139l-244 -275h-178 l-145 275h139z" glyph-name="Rcaron" horiz-adv-x="1245" unicode="Ř"/><glyph d="M725 840q-137 0 -232.5 -138.5t-130.5 -345.5l-59 -356h-137l168 956h137l-39 -217q111 238 318 238q47 0 91 -12.5t56 -24.5l-39 -133q-59 33 -133 33zM510 1411l115 -176l174 176h139l-244 -274h-178l-145 274h139z" glyph-name="rcaron" horiz-adv-x="772" unicode="ř"/><glyph d="M595 115q144 0 245.5 68.5t138.5 162.5q39 121 -24.5 194.5t-192.5 104.5l-180 43q-315 76 -269 354q31 166 182.5 275.5t334.5 109.5t289 -110.5t75 -292.5h-135q20 121 -53.5 194.5t-200.5 73.5t-233.5 -70.5t-125.5 -179.5q-29 -172 189 -223l182 -43 q180 -43 266 -154.5t25 -299.5q-53 -139 -195.5 -240.5t-343.5 -101.5t-306 131t-77 295h136q-20 -113 54.5 -202t218.5 -89zM1120 1866l-221 -275h-139l192 275h168z" glyph-name="Sacute" horiz-adv-x="1163" unicode="Ś"/><glyph d="M608 977q119 0 190.5 -61.5t67.5 -186.5h-133q-2 53 -43.5 85t-107.5 32t-122.5 -33t-72.5 -84q-45 -121 115 -160l123 -30q231 -57 192 -279q-20 -123 -134 -201.5t-254 -78.5t-225 80.5t-69 213.5h121q18 -166 199 -165q92 0 153.5 42t73.5 109q23 117 -109 148 l-129 30q-150 39 -186.5 125t-1.5 187q35 102 134 164.5t218 62.5zM889 1411l-221 -274h-140l193 274h168z" glyph-name="sacute" horiz-adv-x="868" unicode="ś"/><glyph d="M595 115q144 0 245.5 68.5t138.5 162.5q39 121 -24.5 194.5t-192.5 104.5l-180 43q-315 76 -269 354q31 166 182.5 275.5t334.5 109.5t289 -110.5t75 -292.5h-135q20 121 -53.5 194.5t-200.5 73.5t-233.5 -70.5t-125.5 -179.5q-29 -172 189 -223l182 -43 q180 -43 266 -154.5t25 -299.5q-53 -139 -195.5 -240.5t-343.5 -101.5t-306 131t-77 295h136q-20 -113 54.5 -202t218.5 -89zM1012 1591l-115 176l-174 -176h-139l243 275h179l145 -275h-139z" glyph-name="Scircumflex" horiz-adv-x="1163" unicode="Ŝ"/><glyph d="M608 977q119 0 190.5 -61.5t67.5 -186.5h-133q-2 53 -43.5 85t-107.5 32t-122.5 -33t-72.5 -84q-45 -121 115 -160l123 -30q231 -57 192 -279q-20 -123 -134 -201.5t-254 -78.5t-225 80.5t-69 213.5h121q18 -166 199 -165q92 0 153.5 42t73.5 109q23 117 -109 148 l-129 30q-150 39 -186.5 125t-1.5 187q35 102 134 164.5t218 62.5zM778 1137l-112 176l-177 -176h-139l244 274h178l146 -274h-140z" glyph-name="scircumflex" horiz-adv-x="868" unicode="ŝ"/><glyph d="M595 115q144 0 245.5 68.5t138.5 162.5q39 121 -24.5 194.5t-192.5 104.5l-180 43q-315 76 -269 354q31 166 182.5 275.5t334.5 109.5t289 -110.5t75 -292.5h-135q20 121 -53.5 194.5t-200.5 73.5t-233.5 -70.5t-125.5 -179.5q-29 -172 189 -223l182 -43 q180 -43 266 -154.5t25 -299.5q-45 -115 -153.5 -208.5t-260.5 -121.5l35 -131q20 -82 -23.5 -157.5t-129.5 -107.5t-170.5 7.5t-73.5 189.5l108 -8q-4 -18 4 -46t39 -44.5t71 -0.5t60.5 52.5t12.5 71.5l-33 162h-27q-199 0 -304.5 131t-76.5 295h136q-20 -113 54.5 -202 t218.5 -89z" glyph-name="Scedilla" horiz-adv-x="1165" unicode="Ş"/><glyph d="M420 -20q-129 0 -214 80.5t-69 213.5h121q18 -166 199 -165q92 0 153.5 42t73.5 109q23 115 -111 148l-127 30q-116 28 -160.5 84.5t-43 115t15.5 112.5q35 102 134.5 164.5t218 62.5t190 -61.5t67.5 -186.5h-133q-2 53 -43.5 85t-107.5 32t-122 -33t-73 -84 q-45 -121 115 -160l123 -30q231 -57 192 -279q-16 -96 -93 -168t-185 -98l39 -133q23 -80 -22.5 -156.5t-130.5 -108.5t-172.5 9t-70.5 188l107 -8q-11 -62 32.5 -84.5t79.5 -7.5q84 37 74 125l-24 164q-12 -2 -33 -2z" glyph-name="scedilla" horiz-adv-x="870" unicode="ş"/><glyph d="M595 115q144 0 245.5 68.5t138.5 162.5q39 121 -24.5 194.5t-192.5 104.5l-180 43q-315 76 -269 354q31 166 182.5 275.5t334.5 109.5t289 -110.5t75 -292.5h-135q20 121 -53.5 194.5t-200.5 73.5t-233.5 -70.5t-125.5 -179.5q-29 -172 189 -223l182 -43 q180 -43 266 -154.5t25 -299.5q-53 -139 -195.5 -240.5t-343.5 -101.5t-306 131t-77 295h136q-20 -113 54.5 -202t218.5 -89zM772 1866l113 -176l176 176h139l-244 -275h-178l-145 275h139z" glyph-name="Scaron" horiz-adv-x="1163" unicode="Š"/><glyph d="M608 977q119 0 190.5 -61.5t67.5 -186.5h-133q-2 53 -43.5 85t-107.5 32t-122.5 -33t-72.5 -84q-45 -121 115 -160l123 -30q231 -57 192 -279q-20 -123 -134 -201.5t-254 -78.5t-225 80.5t-69 213.5h121q18 -166 199 -165q92 0 153.5 42t73.5 109q23 117 -109 148 l-129 30q-150 39 -186.5 125t-1.5 187q35 102 134 164.5t218 62.5zM539 1411l114 -176l174 176h140l-244 -274h-178l-146 274h140z" glyph-name="scaron" horiz-adv-x="868" unicode="š"/><glyph d="M307 1411h1041l-23 -135h-453l-225 -1276h-135l225 1276h-452zM426 -506l-92 27q147 164 149 348h156q-43 -254 -213 -375z" glyph-name="Tcommaaccent" horiz-adv-x="1159" unicode="Ţ"/><glyph d="M367 0h-138l146 834h-172l22 122h172l64 359h137l-63 -359h202l-22 -122h-203zM143 -506l-92 27q147 164 150 348h155q-43 -254 -213 -375z" glyph-name="tcommaaccent" horiz-adv-x="630" unicode="ţ"/><glyph d="M307 1411h1041l-23 -135h-453l-225 -1276h-135l225 1276h-452zM764 1866l113 -176l176 176h139l-244 -275h-178l-145 275h139z" glyph-name="Tcaron" horiz-adv-x="1159" unicode="Ť"/><glyph d="M229 0l146 834h-172l22 122h172l64 359h137l-63 -359h202l-22 -122h-203l-145 -834h-138zM723 1073l-92 27q143 164 145 327h156q-37 -231 -209 -354z" glyph-name="tcaron" horiz-adv-x="630" unicode="ť"/><glyph d="M791 825h284l-18 -108h-285l-125 -717h-135l125 717h-283l19 108h282l82 451h-452l22 135h1041l-23 -135h-453z" glyph-name="Tbar" horiz-adv-x="1159" unicode="Ŧ"/><glyph d="M471 578h166l-16 -95h-166l-84 -483h-138l84 483h-149l16 95h150l45 256h-172l22 122h172l64 359h137l-63 -359h202l-22 -122h-203z" glyph-name="tbar" horiz-adv-x="638" unicode="ŧ"/><glyph d="M710.5 115q153.5 0 275.5 100t151 262l166 934h135l-164 -934q-39 -221 -208 -359t-379 -138t-330.5 138t-84.5 359l166 934h135l-165 -934q-29 -162 60 -262t242.5 -100zM906 1737q-26 0 -53.5 -23.5t-37.5 -68.5h-104q29 115 90 168t119 53t103.5 -43t71.5 -43 t52.5 20.5t36.5 65.5h104q-29 -115 -88.5 -165t-117.5 -50t-104 43t-72 43z" glyph-name="Utilde" horiz-adv-x="1380" unicode="Ũ"/><glyph d="M516 -20q-174 0 -252 111.5t-41 307.5l99 557h137l-99 -557q-23 -133 23.5 -208.5t166.5 -75.5t227 78.5t138 240.5l93 522h137l-168 -956h-137l26 158q-57 -88 -157.5 -133t-192.5 -45zM720 1282q-26 0 -52.5 -23.5t-36.5 -68.5h-105q29 115 88.5 168t116.5 53t105 -43 t74 -43t51.5 20.5t33.5 65.5h105q-25 -115 -84.5 -165t-117.5 -50t-105 43t-73 43z" glyph-name="utilde" unicode="ũ"/><glyph d="M710.5 115q153.5 0 275.5 100t151 262l166 934h135l-164 -934q-39 -221 -208 -359t-379 -138t-330.5 138t-84.5 359l166 934h135l-165 -934q-29 -162 60 -262t242.5 -100zM770 1825h487l-24 -129h-488z" glyph-name="Umacron" horiz-adv-x="1380" unicode="Ū"/><glyph d="M516 -20q-174 0 -252 111.5t-41 307.5l99 557h137l-99 -557q-23 -133 23.5 -208.5t166.5 -75.5t227 78.5t138 240.5l93 522h137l-168 -956h-137l26 158q-57 -88 -157.5 -133t-192.5 -45zM584 1370h487l-24 -129h-488z" glyph-name="umacron" unicode="ū"/><glyph d="M710.5 115q153.5 0 275.5 100t151 262l166 934h135l-164 -934q-39 -221 -208 -359t-379 -138t-330.5 138t-84.5 359l166 934h135l-165 -934q-29 -162 60 -262t242.5 -100zM998 1724q64 0 108.5 41t62.5 101h107q-23 -117 -103.5 -186.5t-201.5 -69.5t-171 75t-32 181h106 q-4 -61 28 -101.5t96 -40.5z" glyph-name="Ubreve" horiz-adv-x="1380" unicode="Ŭ"/><glyph d="M516 -20q-174 0 -252 111.5t-41 307.5l99 557h137l-99 -557q-23 -133 23.5 -208.5t166.5 -75.5t227 78.5t138 240.5l93 522h137l-168 -956h-137l26 158q-57 -88 -157.5 -133t-192.5 -45zM684 1411q0 -141 127 -141q66 0 110 42t58 99h106q-20 -115 -102 -185.5 t-203 -70.5t-169.5 73.5t-32.5 182.5h106z" glyph-name="ubreve" unicode="ŭ"/><glyph d="M710.5 115q153.5 0 275.5 100t151 262l166 934h135l-164 -934q-39 -221 -208 -359t-379 -138t-330.5 138t-84.5 359l166 934h135l-165 -934q-29 -162 60 -262t242.5 -100zM1042 1989q84 0 132 -58.5t32 -141.5t-83.5 -140.5t-150.5 -57.5t-131 56.5t-34 140.5t82.5 142.5 t152.5 58.5zM990 1698q40 0 71 26.5t39 65.5q6 39 -16.5 65.5t-61.5 26.5t-70 -26.5t-38 -65.5t14.5 -65.5t61.5 -26.5z" glyph-name="Uring" horiz-adv-x="1380" unicode="Ů"/><glyph d="M516 -20q-174 0 -252 111.5t-41 307.5l99 557h137l-99 -557q-23 -133 23.5 -208.5t166.5 -75.5t227 78.5t138 240.5l93 522h137l-168 -956h-137l26 158q-57 -88 -157.5 -133t-192.5 -45zM853 1534q83 0 131 -58.5t34 -141.5t-84 -140t-153 -57t-130 56t-30.5 140 t83 142.5t149.5 58.5zM805 1243q39 0 69.5 26.5t37 65.5t-15.5 65.5t-60.5 26.5t-70.5 -26.5t-38 -66.5t16.5 -65.5t61.5 -25.5z" glyph-name="uring" unicode="ů"/><glyph d="M710.5 115q153.5 0 275.5 100t151 262l166 934h135l-164 -934q-39 -221 -208 -359t-379 -138t-330.5 138t-84.5 359l166 934h135l-165 -934q-29 -162 60 -262t242.5 -100zM1346 1866l-222 -275h-139l193 275h168zM1079 1866l-192 -275h-148l189 275h151z" glyph-name="Uhungarumlaut" horiz-adv-x="1380" unicode="Ű"/><glyph d="M516 -20q-174 0 -252 111.5t-41 307.5l99 557h137l-99 -557q-23 -133 23.5 -208.5t166.5 -75.5t227 78.5t138 240.5l93 522h137l-168 -956h-137l26 158q-57 -88 -157.5 -133t-192.5 -45zM1110 1411l-221 -274h-139l192 274h168zM844 1411l-193 -274h-147l188 274h152z " glyph-name="uhungarumlaut" unicode="ű"/><glyph d="M708.5 115q153.5 0 276.5 100t152 262l166 934h133l-164 -934q-37 -201 -180.5 -334t-329.5 -157l-96 -168q-23 -35 -13.5 -72t41.5 -53q33 -14 71 2t60 51q2 2 13 39l110 8q-2 -37 -33 -88q-47 -78 -126.5 -108.5t-152.5 2.5t-91.5 107.5t35.5 154.5l79 119 q-201 10 -313.5 146t-73.5 351l166 934h135l-165 -934q-29 -162 59 -262t241.5 -100z" glyph-name="Uogonek" horiz-adv-x="1380" unicode="Ų"/><glyph d="M516 -20q-174 0 -252 111.5t-41 307.5l99 557h137l-99 -557q-23 -133 23.5 -208.5t166.5 -75.5t227 78.5t138 240.5l93 522h137l-168 -956h-43l-96 -182q-23 -35 -15 -72t42 -52t82.5 6t62.5 85l110 8q-6 -43 -33 -88q-47 -78 -126.5 -108.5t-151.5 2.5t-89.5 106.5 t30.5 155.5l90 139l26 158q-57 -88 -157.5 -133t-192.5 -45z" glyph-name="uogonek" unicode="ų"/><glyph d="M1917 1411h143l-725 -1411h-129l-110 946l-443 -946h-129l-229 1411h143l185 -1198l473 1012h102l113 -1012zM1354 1591l-115 176l-174 -176h-139l243 275h179l145 -275h-139z" glyph-name="Wcircumflex" horiz-adv-x="1859" unicode="Ŵ"/><glyph d="M1233 0h-115l-162 768l-421 -768h-115l-201 956h146l145 -739l405 739h148l145 -739l406 739h145zM1163 1137l-112 176l-177 -176h-139l244 274h178l146 -274h-140z" glyph-name="wcircumflex" horiz-adv-x="1646" unicode="ŵ"/><glyph d="M813 655l-115 -655h-139l115 655l-398 756h162l332 -608l549 608h164zM1057 1591l-115 176l-174 -176h-139l243 275h179l145 -275h-139z" glyph-name="Ycircumflex" horiz-adv-x="1259" unicode="Ŷ"/><glyph d="M307 -463h-141l274 465l-223 954h143l187 -778l463 778h145zM866 1137l-112 176l-176 -176h-140l244 274h178l146 -274h-140z" glyph-name="ycircumflex" horiz-adv-x="1034" unicode="ŷ"/><glyph d="M813 655l-115 -655h-139l115 655l-398 756h162l332 -608l549 608h164zM772 1821q43 0 68.5 -28t17.5 -71t-43 -70.5t-78 -27.5t-69.5 27.5t-18.5 70.5t44 71t79 28zM1135 1821q43 0 68.5 -28t17 -71t-43 -70.5t-77.5 -27.5t-69.5 27.5t-18.5 70.5t44 71t79 28z" glyph-name="Ydieresis" horiz-adv-x="1259" unicode="Ÿ"/><glyph d="M109 135l999 1139h-768l22 137h934l-22 -135l-1002 -1139h799l-22 -137h-963zM1094 1866l-222 -275h-139l193 275h168z" glyph-name="Zacute" horiz-adv-x="1146" unicode="Ź"/><glyph d="M1081 956l-22 -122l-768 -699h645l-23 -135h-829l18 125l762 696h-600l23 135h794zM940 1411l-221 -274h-139l192 274h168z" glyph-name="zacute" horiz-adv-x="1013" unicode="ź"/><glyph d="M109 135l999 1139h-768l22 137h934l-22 -135l-1002 -1139h799l-22 -137h-963zM897 1866q43 0 68.5 -28t17.5 -71t-43 -70.5t-78 -27.5t-69.5 27.5t-18.5 70.5t44 71t79 28z" glyph-name="Zdotaccent" horiz-adv-x="1146" unicode="Ż"/><glyph d="M1059 834l-768 -699h645l-23 -135h-829l18 125l762 696h-600l23 135h794zM748 1411q43 0 69.5 -27.5t18 -70.5t-43 -71t-77.5 -28t-70 28t-18.5 71t43.5 70.5t78 27.5z" glyph-name="zdotaccent" horiz-adv-x="1013" unicode="ż"/><glyph d="M109 135l999 1139h-768l22 137h934l-22 -135l-1002 -1139h799l-22 -137h-963zM741 1821l115 -176l174 176h139l-241 -275h-178l-148 275h139z" glyph-name="Zcaron" horiz-adv-x="1146" unicode="Ž"/><glyph d="M1081 956l-22 -122l-768 -699h645l-23 -135h-829l18 125l762 696h-600l23 135h794zM602 1411l115 -176l174 176h139l-244 -274h-178l-145 274h139z" glyph-name="zcaron" horiz-adv-x="1013" unicode="ž"/><glyph d="M817 1346q-131 0 -181 -86.5t-67 -192.5l-186 -1067h-137l145 834h-186l22 122h187l18 111q74 408 410 408h102l-24 -129h-103z" glyph-name="longs" horiz-adv-x="589" unicode="ſ"/><glyph d="M1364 1475h102l-53 -129h-102q-129 0 -198 -84t-109 -195l-43 -111h235l-49 -122h-236l-325 -834q-172 -408 -498 -408h-98l49 129h102q121 0 189 77t119 202l325 834h-186l49 122h186l43 111q160 408 498 408z" glyph-name="florin" horiz-adv-x="1269" unicode="ƒ"/><glyph d="M184 0h-145l790 1411h144l295 -1411h-146l-80 371h-653zM1018 498l-150 725l-407 -725h557zM931 1589q-83 0 -130 56.5t-33 131.5t59 126t107 71l174 248h168l-203 -250q53 -23 80 -73.5t13 -122.5t-83 -129.5t-152 -57.5zM952 1696q39 0 71 26.5t38 65.5t-15.5 65.5 t-60.5 26.5t-70.5 -26.5t-37.5 -66.5t15 -65.5t60 -25.5z" glyph-name="Aringacute" horiz-adv-x="1306" unicode="Ǻ"/><glyph d="M821 1137q-84 0 -130 57t-33 131t59.5 125t107.5 72l170 247h168l-198 -249q53 -23 78.5 -73t11.5 -124t-82 -130t-152 -56zM844 1243q39 0 69.5 26.5t36.5 65.5t-15.5 65.5t-60 26.5t-70.5 -26.5t-38 -66.5t16.5 -65.5t61.5 -25.5zM584 -20q-209 0 -325 139t-77 362.5 t204 359.5t374 136q111 0 203 -46t127 -132l26 157h137l-166 -956h-137l27 164q-68 -88 -176.5 -136t-216.5 -48zM612 117q152 0 272 97t150 265t-63.5 264.5t-240.5 96.5t-264.5 -98.5t-146.5 -258.5t56 -263t237 -103z" glyph-name="aringacute" horiz-adv-x="1253" unicode="ǻ"/><glyph d="M479 371l-299 -371h-160l1139 1411h883l-23 -135h-669l-93 -516h586l-24 -135h-586l-86 -490h692l-22 -135h-828l64 371h-574zM582 498h493l139 778zM1559 1866l-222 -275h-139l193 275h168z" glyph-name="AEacute" horiz-adv-x="1929" unicode="Ǽ"/><glyph d="M1454 115q205 0 328 166q43 -13 129 -31q-78 -127 -207 -198.5t-274 -71.5q-213 0 -326 141l-17 -121h-137l27 164q-68 -88 -176.5 -136t-216.5 -48q-209 0 -325 139t-77 362.5t204 359.5t374 136q111 0 203 -46t127 -132l26 157h137l-22 -118q164 139 373 139t315 -135 t68 -361q0 -30 -13 -63h-811q-4 -139 76 -221t215 -82zM612 117q152 0 272 97t150 265t-63.5 264.5t-240.5 96.5t-264.5 -98.5t-146.5 -258.5t56 -263t237 -103zM1579 842q-133 0 -241.5 -81t-151.5 -216h674q4 137 -72 217t-209 80zM1477 1411l-220 -274h-139l191 274h168z " glyph-name="aeacute" horiz-adv-x="1992" unicode="ǽ"/><glyph d="M1360 1866l-221 -275h-140l193 275h168zM1054 1427q284 0 451 -176l209 183l64 -76l-213 -184q135 -201 84 -487t-294 -496.5t-542 -210.5q-262 -1 -430 167l-193 -170l-63 76l197 170q-140 203 -90 493t293 500.5t527 210.5zM1028 1292q-228 0 -423 -172t-236 -406 t65 -395l961 834q-139 139 -367 139zM836 115q244 0 440.5 171t236.5 402t-61 389l-958 -833q139 -129 342 -129z" glyph-name="Oslashacute" horiz-adv-x="1636" unicode="Ǿ"/><glyph d="M1057 1411l-219 -274h-140l191 274h168zM770 977q170 0 291 -98l121 106l63 -76l-119 -102q88 -133 52 -341t-205 -347t-367 -139t-311 106l-123 -109l-63 76l122 109q-82 136 -45 338t205 339.5t379 137.5zM628 115q140 0 264 101.5t152 249.5t-34 243l-600 -525 q78 -69 218 -69zM730 842q-138 0 -260 -99.5t-153 -261.5q-23 -121 27 -221l602 520q-78 62 -216 62z" glyph-name="oslashacute" horiz-adv-x="1196" unicode="ǿ"/><glyph d="M595 115q144 0 245.5 68.5t138.5 162.5q39 121 -24.5 194.5t-192.5 104.5l-180 43q-315 76 -269 354q31 166 182.5 275.5t334.5 109.5t289 -110.5t75 -292.5h-135q20 121 -53.5 194.5t-200.5 73.5t-233.5 -70.5t-125.5 -179.5q-29 -172 189 -223l182 -43 q180 -43 266 -154.5t25 -299.5q-53 -139 -195.5 -240.5t-343.5 -101.5t-306 131t-77 295h136q-20 -113 54.5 -202t218.5 -89zM403 -506l-92 27q147 164 150 348h155q-47 -252 -213 -375z" glyph-name="Scommaaccent" horiz-adv-x="1163" unicode="Ș"/><glyph d="M608 977q119 0 190.5 -61.5t67.5 -186.5h-133q-2 53 -43.5 85t-107.5 32t-122.5 -33t-72.5 -84q-45 -121 115 -160l123 -30q231 -57 192 -279q-20 -123 -134 -201.5t-254 -78.5t-225 80.5t-69 213.5h121q18 -166 199 -165q92 0 153.5 42t73.5 109q23 117 -109 148 l-129 30q-150 39 -186.5 125t-1.5 187q35 102 134 164.5t218 62.5zM291 -506l-92 27q147 164 149 348h156q-47 -256 -213 -375z" glyph-name="scommaaccent" horiz-adv-x="868" unicode="ș"/><glyph d="M842 1137l-115 176l-174 -176h-139l243 274h179l145 -274h-139z" glyph-name="circumflex" horiz-adv-x="997" unicode="ˆ"/><glyph d="M612 1411l117 -176l172 176h139l-243 -274h-179l-145 274h139z" glyph-name="caron" horiz-adv-x="1017" unicode="ˇ"/><glyph d="M580 1411q0 -63 31 -102t95 -39t108 41t60 100h107q-20 -115 -102 -185.5t-203 -70.5t-170 73.5t-33 182.5h107z" glyph-name="breve" horiz-adv-x="958" unicode="˘"/><glyph d="M762 1411q43 0 69.5 -27.5t18.5 -70.5t-44 -71t-79 -28t-68.5 28t-17.5 71t43 70.5t78 27.5z" glyph-name="dotaccent" horiz-adv-x="1028" unicode="˙"/><glyph d="M796 1534q83 0 131 -58.5t33 -142.5t-83 -140t-152 -56t-130 57t-31 140t82 141.5t150 58.5zM747.5 1243q38.5 0 69.5 26.5t37 65.5t-15.5 65.5t-60.5 26.5t-70.5 -26.5t-37.5 -66.5t16.5 -65.5t61 -25.5z" glyph-name="ring" horiz-adv-x="1052" unicode="˚"/><glyph d="M549 53l-143 -235q-23 -35 -14 -72t43 -52t79.5 4.5t54.5 50t11 36.5l110 8q-6 -39 -35 -88q-47 -78 -126.5 -108.5t-151.5 1.5t-88.5 106.5t30.5 156.5l113 192h117z" glyph-name="ogonek" horiz-adv-x="1056" unicode="˛"/><glyph d="M566 1282q-26 0 -52.5 -23.5t-36.5 -68.5h-104q29 115 88 168t117 53t105.5 -43t73.5 -43t51.5 20.5t33.5 65.5h104q-25 -115 -84.5 -165t-117.5 -50t-105 43t-73 43z" glyph-name="tilde" horiz-adv-x="862" unicode="˜"/><glyph d="M969 1411l-221 -274h-140l193 274h168zM702 1411l-192 -274h-148l189 274h151z" glyph-name="hungarumlaut" horiz-adv-x="884" unicode="˝"/><glyph d="M2060 1411l-725 -1411h-129l-110 946l-443 -946h-129l-229 1411h143l185 -1198l473 1012h102l113 -1012l606 1198h143zM1124 1591l-123 275h168l95 -275h-140z" glyph-name="Wgrave" horiz-adv-x="1859" unicode="Ẁ"/><glyph d="M1118 0l-162 768l-421 -768h-115l-201 956h146l145 -739l405 739h148l145 -739l406 739h145l-526 -956h-115zM961 1137l-123 274h168l94 -274h-139z" glyph-name="wgrave" horiz-adv-x="1646" unicode="ẁ"/><glyph d="M1917 1411h143l-725 -1411h-129l-110 946l-443 -946h-129l-229 1411h143l185 -1198l473 1012h102l113 -1012zM1524 1866l-221 -275h-140l193 275h168z" glyph-name="Wacute" horiz-adv-x="1859" unicode="Ẃ"/><glyph d="M1233 0h-115l-162 768l-421 -768h-115l-201 956h146l145 -739l405 739h148l145 -739l406 739h145zM1305 1411l-222 -274h-139l193 274h168z" glyph-name="wacute" horiz-adv-x="1646" unicode="ẃ"/><glyph d="M2060 1411l-725 -1411h-129l-110 946l-443 -946h-129l-229 1411h143l185 -1198l473 1012h102l113 -1012l606 1198h143zM1077 1866q43 0 68.5 -28t17.5 -71t-43 -70.5t-78 -27.5t-69.5 27.5t-18 70.5t44 71t78.5 28zM1440 1866q43 0 68.5 -28t17.5 -71t-43 -70.5 t-78 -27.5t-69.5 27.5t-18.5 70.5t44 71t79 28z" glyph-name="Wdieresis" horiz-adv-x="1859" unicode="Ẅ"/><glyph d="M1118 0l-162 768l-421 -768h-115l-201 956h146l145 -739l405 739h148l145 -739l406 739h145l-526 -956h-115zM887 1411q43 0 69.5 -27.5t18.5 -70.5t-43 -71t-78 -28t-69.5 28t-18.5 71t43 70.5t78 27.5zM1249 1411q43 0 70 -27.5t18.5 -70.5t-43 -71t-77.5 -28t-70 28 t-18.5 71t43 70.5t77.5 27.5z" glyph-name="wdieresis" horiz-adv-x="1646" unicode="ẅ"/><glyph d="M813 655l-115 -655h-139l115 655l-398 756h162l332 -608l549 608h164zM866 1591l-123 275h168l95 -275h-140z" glyph-name="Ygrave" horiz-adv-x="1259" unicode="Ỳ"/><glyph d="M166 -463l274 465l-223 954h143l187 -778l463 778h145l-848 -1419h-141zM668 1137l-123 274h168l94 -274h-139z" glyph-name="ygrave" horiz-adv-x="1034" unicode="ỳ"/><glyph glyph-name="uni2009" horiz-adv-x="28" unicode=" "/><glyph d="M242 535h923l-22 -121h-924z" glyph-name="endash" horiz-adv-x="1222" unicode="–"/><glyph d="M242 535h1366l-23 -121h-1366z" glyph-name="emdash" horiz-adv-x="1665" unicode="—"/><glyph d="M563 1427l76 -26q-152 -162 -195 -410h-135q39 152 110.5 268.5t143.5 167.5z" glyph-name="quoteleft" horiz-adv-x="485" unicode="‘"/><glyph d="M367 991l-72 27q154 172 192 409h136q-41 -154 -112.5 -270.5t-143.5 -165.5z" glyph-name="quoteright" horiz-adv-x="481" unicode="’"/><glyph d="M121 -137l-74 26q147 162 195 410h135q-41 -152 -112.5 -269.5t-143.5 -166.5z" glyph-name="quotesinglbase" horiz-adv-x="477" unicode="‚"/><glyph d="M801 1427l76 -26q-152 -162 -195 -410h-135q39 152 110.5 268.5t143.5 167.5zM563 1427l76 -26q-152 -162 -195 -410h-135q39 152 110.5 268.5t143.5 167.5z" glyph-name="quotedblleft" horiz-adv-x="722" unicode="“"/><glyph d="M367 991l-72 27q154 172 192 409h136q-41 -154 -112.5 -270.5t-143.5 -165.5zM604 991l-72 27q154 172 193 409h135q-41 -154 -112.5 -270.5t-143.5 -165.5z" glyph-name="quotedblright" horiz-adv-x="718" unicode="”"/><glyph d="M121 -137l-74 26q147 162 195 410h135q-41 -152 -112.5 -269.5t-143.5 -166.5zM358 -137l-73 26q147 162 194 410h135q-41 -152 -112.5 -269.5t-143.5 -166.5z" glyph-name="quotedblbase" horiz-adv-x="714" unicode="„"/><glyph d="M668 1022h262l-25 -135h-262l-205 -1149h-135l205 1149h-260l24 135h260l68 389h135z" glyph-name="dagger" horiz-adv-x="841" unicode="†"/><glyph d="M698 1022h263l-25 -135h-262l-103 -572h263l-25 -135h-262l-78 -442h-135l78 442h-260l24 135h260l103 572h-260l24 135h260l68 389h135z" glyph-name="daggerdbl" horiz-adv-x="903" unicode="‡"/><glyph d="M602 770q123 0 194.5 -80t51 -200.5t-120.5 -200.5t-223 -80t-194.5 80t-51 200.5t120.5 200.5t223 80z" glyph-name="bullet" horiz-adv-x="937" unicode="•"/><glyph d="M293 193q47 0 73.5 -31t18.5 -76t-46 -75.5t-85 -30.5t-74.5 30.5t-19.5 75.5t47 76t86 31zM784 193q47 0 74 -31t18.5 -76t-46 -75.5t-85 -30.5t-75 30.5t-19.5 75.5t47 76t86 31zM1276 193q47 0 73.5 -31t18.5 -76t-46 -75.5t-85 -30.5t-74.5 30.5t-19.5 75.5t47 76 t86 31z" glyph-name="ellipsis" horiz-adv-x="1503" unicode="…"/><glyph d="M1300 1378l-917 -1378h-96l917 1378h96zM600 1378q115 0 180.5 -80.5t45.5 -194.5t-115 -193t-209.5 -79t-178.5 79t-44 194q23 115 114.5 194.5t206.5 79.5zM522.5 948q65.5 0 120.5 45t65.5 110.5t-29 112t-103.5 46.5t-117 -46.5t-63.5 -112t25.5 -110.5t101.5 -45z M1082 526q114 0 180.5 -79.5t46 -194.5t-114.5 -193.5t-209 -78.5t-179.5 78.5t-44 193.5t113.5 194.5t207 79.5zM1005.5 96q65.5 0 120 45t66.5 109t-26 112t-103.5 48t-118.5 -46.5t-65.5 -112t24.5 -110.5t102.5 -45zM1724 526q114 0 180 -79.5t45.5 -194.5 t-114.5 -193.5t-209 -78.5t-179.5 78.5t-44 193.5t114 194.5t207.5 79.5zM1646.5 96q65.5 0 120 45t66.5 109t-26 112t-103.5 48t-118.5 -46.5t-65.5 -112t24.5 -110.5t102.5 -45z" glyph-name="perthousand" horiz-adv-x="1980" unicode="‰"/><glyph d="M184 475l359 424h127l-359 -424l209 -424h-127z" glyph-name="guilsinglleft" horiz-adv-x="620" unicode="‹"/><glyph d="M600 475l-356 -424h-127l356 424l-205 424h127z" glyph-name="guilsinglright" horiz-adv-x="620" unicode="›"/><glyph d="M948 1378l-1163 -1398h-135l1163 1398h135z" glyph-name="fraction" horiz-adv-x="368" unicode="⁄"/><glyph d="M557 1055q185 0 241 308t-130 308t-242 -308q-55 -308 131 -308zM684 1772q109 0 166 -55.5t61 -146.5t-12 -208q-33 -188 -116 -297t-242 -109q-287 0 -216 408t359 408z" glyph-name="uni2070" horiz-adv-x="745" unicode="⁰"/><glyph d="M731 1569l-291 -338h232zM881 1128h-117l-33 -165h-108l32 165h-417l557 637h82l-97 -534h117z" glyph-name="uni2074" horiz-adv-x="741" unicode="⁴"/><glyph d="M528 1059q70 0 132.5 46t75 115.5t-29.5 107.5t-104 38t-114 -14.5t-148 -59.5l-21 25l162 448h408l-21 -104h-317l-80 -219q78 33 150 33q115 0 179 -66.5t42 -188.5t-118.5 -196t-229.5 -74q-82 0 -144.5 50.5t-89.5 132.5l98 63q14 -59 57 -98t113 -39z" glyph-name="uni2075" horiz-adv-x="698" unicode="⁵"/><glyph d="M673 1677q-87 0 -154.5 -84t-74.5 -211q50 102 172 102t179 -82.5t32 -192.5t-115.5 -183.5t-197 -69t-163 77t-42.5 211.5t50 244.5t75 160t105.5 92.5t152.5 38q166 -9 203 -154l-102 -41q-33 92 -120 92zM487 1336.5q-55 -43.5 -69 -110.5t21 -112t99 -48t117.5 40 t67.5 108.5t-19.5 112.5t-97.5 50t-119 -40.5z" glyph-name="uni2076" horiz-adv-x="692" unicode="⁶"/><glyph d="M391 1765h553l-584 -802h-127l506 694h-368z" glyph-name="uni2077" horiz-adv-x="659" unicode="⁷"/><glyph d="M649 1667q-45 0 -80 -27.5t-43 -69.5t16.5 -75t69.5 -32t82 34t45.5 74t-18.5 68.5t-72 27.5zM538.5 1059q71.5 0 129 45t67.5 108.5t-28.5 110.5t-110.5 47t-129 -47t-67.5 -110.5t28.5 -108.5t110.5 -45zM667.5 1776q92.5 0 143.5 -59.5t37 -145.5t-88 -141 q109 -76 84 -218q-20 -109 -113.5 -184.5t-211.5 -75.5t-183.5 76t-44.5 184q25 139 162 218q-49 51 -34 139t85.5 147.5t163 59.5z" glyph-name="uni2078" horiz-adv-x="708" unicode="⁸"/><glyph d="M502 1053q88 0 154.5 84t72.5 211q-47 -102 -182 -103q-106 0 -164.5 83t-36.5 193t113.5 183.5t198.5 69.5t163.5 -77t46.5 -175t-21 -164t-41 -142.5t-69 -135t-105.5 -92.5t-152.5 -38q-161 9 -200 154l104 41q31 -92 119 -92zM760 1503q10 68 -27 113t-99 48 t-113.5 -40t-68 -108.5t17.5 -112.5t97.5 -49t119 40.5t73.5 108.5z" glyph-name="uni2079" horiz-adv-x="692" unicode="⁹"/><glyph d="M332 -225q186 0 240 308t-132 308t-240 -308t132 -308zM459 492q160 0 204 -110t10 -299t-117 -298t-243 -109q-287 0 -214 408t360 408z" glyph-name="uni2080" horiz-adv-x="747" unicode="₀"/><glyph d="M236 -317h-109l121 665l-142 -47l19 105l254 88z" glyph-name="uni2081" horiz-adv-x="411" unicode="₁"/><glyph d="M394 387q-60 0 -110.5 -35t-68.5 -92l-94 25q33 96 112 153.5t181 57.5t163 -67t41 -172t-122 -206q-61 -57 -267 -260h308l-19 -108h-493l10 49l391 393q72 70 82 130t-22 96t-92 36z" glyph-name="uni2082" horiz-adv-x="665" unicode="₂"/><glyph d="M328 59h-90l18 105h90q43 0 79 26.5t51 72.5t-8.5 82t-78.5 42q-88 8 -156 -72q-49 49 -67 64q101 128 264 118q84 -5 135 -71t33 -160t-121 -151q55 -20 81 -85t9 -130q-27 -102 -127 -169t-194 -60t-148.5 52.5t-72.5 114.5q16 8 48.5 25.5t49.5 25.5q27 -94 135 -108 q68 -4 127 35t73 97t-25.5 102t-104.5 44z" glyph-name="uni2083" horiz-adv-x="667" unicode="₃"/><glyph d="M504 289l-291 -338h231zM653 -152h-116l-31 -165h-109l31 165h-418l557 637h82l-96 -534h117z" glyph-name="uni2084" horiz-adv-x="741" unicode="₄"/><glyph d="M302 -221q71 0 133.5 46t74.5 115.5t-31 107.5t-105 38t-113.5 -14.5t-147.5 -59.5l-19 25l160 448h408l-19 -104h-317l-80 -219q78 33 147 33q115 0 180.5 -66.5t42.5 -188.5t-120 -196t-230 -74q-82 0 -144 50.5t-89 132.5l100 63q12 -59 55 -98t114 -39z" glyph-name="uni2085" horiz-adv-x="696" unicode="₅"/><glyph d="M445 397q-87 0 -154.5 -84t-73.5 -211q49 102 171 102t179.5 -82.5t32.5 -192.5t-116 -183.5t-197.5 -69t-162.5 77t-45 174.5t22.5 163t40 143.5t66.5 135t104.5 91.5t152.5 39q166 -9 203 -154l-103 -41q-33 92 -120 92zM260 56.5q-56 -43.5 -69 -110.5t23 -112t98 -48 t115.5 40t68 108.5t-19.5 112.5t-97 50t-119 -40.5z" glyph-name="uni2086" horiz-adv-x="692" unicode="₆"/><glyph d="M166 485h553l-582 -802h-127l506 694h-369z" glyph-name="uni2087" horiz-adv-x="653" unicode="₇"/><glyph d="M420 387q-45 0 -80 -27.5t-43 -69.5t16.5 -75t70.5 -32t82 34t44 74t-18.5 68.5t-71.5 27.5zM311.5 -221q71.5 0 128 45t66.5 108.5t-29 110.5t-110.5 47t-129 -47t-67.5 -110.5t30 -108.5t111.5 -45zM438 496q92 0 143.5 -59.5t37 -145.5t-88.5 -141q109 -76 84 -218 q-20 -109 -113 -184.5t-211 -75.5t-183.5 76t-45.5 184q25 139 162 218q-49 51 -34 139t86 147.5t163 59.5z" glyph-name="uni2088" horiz-adv-x="704" unicode="₈"/><glyph d="M274 -227q86 0 154 84t76 211q-47 -102 -185 -103q-106 0 -164.5 83t-35.5 193t114 183.5t198 69.5t163.5 -77t46.5 -198q-36 -291 -103 -381t-133.5 -129t-152.5 -39q-162 9 -201 154l105 41q32 -92 118 -92zM532 223q10 68 -26.5 113t-98.5 48t-113.5 -39.5 t-67.5 -108.5t17 -112t97 -49t120 39.5t72 108.5z" glyph-name="uni2089" horiz-adv-x="692" unicode="₉"/><glyph d="M809 115q238 0 440 172l76 -97q-238 -211 -541 -210q-73 0 -149 16l-119 -219l-88 35l113 213q-74 33 -140 88l-139 -260l-90 32l160 301q-158 207 -105 507t269.5 507t496.5 225l121 224l90 -35l-102 -189q96 -10 166 -39l102 187l88 -33l-102 -194q80 -45 151 -129 l-112 -95q-35 45 -107 95l-588 -1092q57 -10 109 -10zM1032 1292l-559 -1044q59 -59 137 -94l590 1106q-72 28 -168 32zM557.5 1084q-153.5 -163 -191.5 -378t46 -372l508 948q-209 -35 -362.5 -198z" glyph-name="colonmonetary" horiz-adv-x="1392" unicode="₡"/><glyph d="M978 1438q169 0 265 -109.5t66 -286.5h-135q20 117 -44.5 189t-176.5 72t-208 -73t-116 -188l-47 -264h329l-20 -116h-332l-22 -140h331l-20 -116h-332l-49 -271h584q18 0 32.5 14.5t18.5 36.5l20 121h135l-20 -121q-14 -80 -74.5 -133t-134.5 -53h-919l22 135h201 l49 271h-166l21 116h165l23 140h-166l21 116h167l48 264q31 176 173 286t311 110z" glyph-name="lira" horiz-adv-x="1316" unicode="₤"/><glyph d="M391 803h-123l17 102h123l88 506h145l219 -506h406l88 506h135l-88 -506h117l-17 -102h-117l-36 -189h116l-16 -102h-117l-90 -512h-139l-221 512h-408l-90 -512h-135l90 512h-123l16 102h123zM526 803l-37 -189h345l-78 189h-230zM905 803l78 -189h229l37 189h-344z M590 1182l-47 -277h168zM1030 512l115 -274l51 274h-166z" glyph-name="uni20A6" horiz-adv-x="1482" unicode="₦"/><glyph d="M1405 1030q0 -41 -23 -121h127l-18 -102h-150q-129 -256 -415 -256h-418l-96 -551h-138l142 807h-158l18 102h158l21 121h-158l18 103h158l49 278h555q154 0 235 -77t93 -201h143l-18 -103h-125zM1055 1276h-418l-27 -143h650q-35 143 -205 143zM1268 1030h-676l-21 -121 h674q23 62 23 121zM940 686q162 0 252 121h-639l-21 -121h408z" glyph-name="peseta" horiz-adv-x="1445" unicode="₧"/><glyph d="M715 686q137 0 215 83t100 210q6 37 6 39h-708l16 94h690q-33 164 -205 164h-454l22 135h1166l-19 -94h-444q70 -72 76 -205h333l-16 -94h-322q0 -2 -6 -39q-31 -178 -143.5 -300t-304.5 -128l293 -551h-166l-293 551h-305l24 135h445z" glyph-name="uni20A8" horiz-adv-x="1415" unicode="₨"/><glyph d="M1927 999h137l-16 -102h-172l-100 -188h235l-18 -103h-271l-309 -606h-129l-74 606h-198l-281 -606h-129l-100 606h-275l19 103h239l-26 188h-176l16 102h141l-67 412h143l64 -412h487l107 226h102l24 -226h488l207 412h143zM1313 897l18 -188h307l99 188h-424zM598 897 l25 -188h307l90 188h-422zM1341 606l48 -393l196 393h-244zM639 606l61 -393l181 393h-242zM1153 897l-92 -188h139l-18 188h-29z" glyph-name="uni20A9" horiz-adv-x="2013" unicode="₩"/><glyph d="M733 977h-219l-172 -977h-135l196 1112h355q193 0 290 -121t64 -299l-59 -332h-135l59 332q23 121 -45 203t-199 82zM961 135h219l174 977h135l-197 -1112h-354q-193 0 -291 121t-67 299l61 332h133l-59 -332q-23 -121 45.5 -203t200.5 -82z" glyph-name="afii57636" horiz-adv-x="1499" unicode="₪"/><glyph d="M1245 1427q297 0 465 -210l-111 -95q-139 170 -376 170q-199 0 -364 -119.5t-245 -310.5h603l-17 -96h-956l16 96h215q94 248 305 406.5t465 158.5zM1014 115q240 0 438 172l78 -97q-240 -211 -541 -210q-252 0 -405.5 155.5t-163.5 399.5h-217l16 96h957l-17 -96h-600 q14 -186 136 -303t319 -117z" glyph-name="Euro" horiz-adv-x="1632" unicode="€"/><glyph d="M444 115h205l-24 -135h-205q-268 0 -213 317l147 815q55 317 324 318q137 0 185 -86.5t22 -231.5l-70 -385q-59 -317 -317 -317h-133l-21 -113q-33 -182 100 -182zM520 545q127 0 160 182l70 385q32 182 -98 182t-163 -182l-100 -567h131z" glyph-name="afii61289" horiz-adv-x="790" unicode="ℓ"/><glyph d="M1061 0l-512 1182l-207 -1182h-135l248 1411h145l504 -1173l209 1173h135l-248 -1411h-139zM1830.5 1427q106.5 0 168 -74.5t43 -181t-106.5 -181.5t-194.5 -75t-168 75t-43 181.5t106.5 181t194.5 74.5zM1757.5 1020q63.5 0 115.5 44t64.5 107.5t-24.5 107.5t-100.5 44 t-114.5 -44t-63.5 -107.5t23.5 -107.5t99.5 -44zM1464 743l13 74h491l-12 -74h-492z" glyph-name="afii61352" horiz-adv-x="1941" unicode="№"/><glyph d="M735 651l195 656h-223l-115 -656h-105l115 656h-233l18 104h672l162 -571l362 571h98l-43 -760h-102l31 572l-322 -506h-92l-145 502l-168 -568h-105z" glyph-name="trademark" horiz-adv-x="1677" unicode="™"/><glyph d="M686 47q166 0 274.5 67.5t213.5 192.5l55 -39q-115 -139 -241 -213.5t-304 -74.5q-244 0 -369 173t-79 423t229.5 420.5t438.5 170.5t377 -173t77 -423h-879l-69 -395q110 -129 276 -129zM893 1100q-199 0 -344 -127l-57 -334h632l58 334q-49 55 -127 91t-162 36z" glyph-name="estimated" horiz-adv-x="1361" unicode="℮"/><glyph d="M262 604h873l-23 -129h-872z" glyph-name="minus" horiz-adv-x="1187" unicode="−"/><glyph d="M672 369h479l-25 -129h-542l-156 -240h-106l155 240h-291l25 129h354l193 290h-496l23 129h559l160 240h106l-160 -240h275l-23 -129h-338z" glyph-name="notequal" horiz-adv-x="1234" unicode="≠"/><glyph d="M1260 373l-971 399l26 148l1112 399l-24 -148l-944 -325l827 -328zM186 129h1022l-20 -129h-1022z" glyph-name="lessequal" horiz-adv-x="1374" unicode="≤"/><glyph d="M1356 772l-1114 -399l26 145l942 328l-825 325l25 148l972 -399zM1229 129l-21 -129h-1022l21 129h1022z" glyph-name="greaterequal" horiz-adv-x="1374" unicode="≥"/><glyph d="M150 -506l-93 27q147 164 150 348h155q-42 -254 -212 -375z" glyph-name="uniF6C3" horiz-adv-x="532" unicode=""/><glyph d="M928 1411q137 0 217 -64.5t99.5 -157.5t-1.5 -210q-31 -178 -144 -300t-306 -128l292 -551h-165l-293 551h-238l-96 -551h-137l247 1411h525zM905 1276h-387l-104 -590h377q139 0 216.5 83t100.5 209t-24.5 212t-178.5 86zM1972 977q209 0 323.5 -140.5t76 -363.5 t-203.5 -358t-374 -135q-111 0 -202 45t-126 131l-112 -619h-137l253 1419h136l-27 -165q68 88 176.5 137t216.5 49zM1946 840q-152 0 -274 -98.5t-152 -266.5t64.5 -263t241.5 -95t263 97t145 257t-53.5 264.5t-234.5 104.5z" glyph-name="uniF6DD" horiz-adv-x="2363" unicode=""/><glyph d="M1571 0h-1407l-25 1407h1407zM315 1219l13 -773h166l-154 154l-6 365l530 -519l516 519l6 -365l-149 -154h172l-12 773l-537 -539zM362 270h-30l2 -108h18l-2 76l29 -76h20l21 76l2 -76h18l-2 108h-28l-19 -73zM504 270q-51 0 -51 -37.5t14 -54t39 -16.5q45 0 45 53 q0 23 -12 39t-35 16zM504 182q-14 0 -24.5 11.5t-10.5 22.5t10 22.5t25 11.5q25 0 25 -34t-25 -34zM578 203h-27q0 -41 45 -41t45 35q0 23 -32 29t-31 12q0 12 19 12t19 -12h11q-10 33 -31 32q-39 0 -39 -32q0 -25 33 -31q27 0 26 -10q0 -14 -20 -15q-18 1 -18 21zM641 250 h35l2 -88h16l-2 88h31v20h-82v-20zM768 270h-18l-43 -108h24l6 26h45l9 -26h22zM762 244l14 -37h-33l13 37h6zM868 270h-57l2 -108h18l-2 45h27q18 0 18 -19l3 -26l26 2q-8 -4 -8 24l-8 27l8 18q0 37 -27 37zM856 221h-27v29h27q18 0 18 -12q0 -17 -18 -17zM950 270h-41 l2 -108h41q23 0 36 16.5t13 40.5q0 51 -51 51zM950 182h-16v68h8q35 0 35 -35q0 -12 -8.5 -22.5t-18.5 -10.5zM1083 270h-75l2 -108h82l-2 20h-58v25h51v18h-51v25h51v20zM1108 203h-18q0 -41 45 -41t45 35q0 23 -33 29t-33 12q0 12 20 12t19 -12h12q-12 33 -30 32 q-16 0 -30.5 -9t-14.5 -23q0 -25 38 -31q25 0 25 -12q-1 -12 -23 -12t-22 20zM1202 270h-14l2 -108h14zM1268 221v-18l24 -4q-2 0 -10 -8.5t-18 -8.5t-19.5 11.5t-9.5 22.5t9.5 22.5t25.5 11.5t16 -21h14q-14 41 -32 41q-23 0 -37 -16t-14 -38t13.5 -38t35.5 -16t26 14 l11 -14h12l-2 59h-45zM1386 270v-67l-45 67h-16l2 -108h16l-2 67l48 -67h26l-2 108h-27z" glyph-name="uniF8FF" horiz-adv-x="1734" unicode=""/><glyph d="M1018 594h-160l-45 -260h-113l129 717h273q109 0 155.5 -68t28.5 -158t-89 -160.5t-179 -70.5zM1034 705q55 0 93 34.5t46.5 81.5t-16 82t-76.5 35h-159l-43 -233h155zM1083 1427q299 0 471 -213t119 -513t-300 -510.5t-546 -210.5t-469 210.5t-116.5 512t298 513 t543.5 211.5zM848 96q252 0 457.5 177.5t251 429t-98 430t-395.5 178.5t-457 -178.5t-250 -430t97.5 -429t394.5 -177.5z" glyph-name="glyph403" horiz-adv-x="1669"/><glyph d="M1374 713q-135 0 -230 -155t-134 -370l-33 -188h-137l123 694h-498l-123 -694h-135l248 1411h792l-22 -135h-658l-80 -447h635l-39 -217q111 238 318 238q47 0 92 -12.5t57 -24.5l-41 -133q-59 33 -135 33z" glyph-name="glyph404" horiz-adv-x="1486"/><glyph d="M606 -262q-248 0 -351 253t-25 701t273 699t443 251l-24 -135q-188 0 -338 -216t-218 -600t5 -601t260 -217z" glyph-name="parenleft.aalt" horiz-adv-x="739"/><glyph d="M35 -262l24 135q186 0 336.5 218t218.5 602t-4.5 599t-259.5 215l25 135q248 0 350.5 -251t24.5 -699t-272.5 -701t-442.5 -253z" glyph-name="parenright.aalt" horiz-adv-x="739"/><glyph d="M281 758h698l-23 -129h-698z" glyph-name="hyphen.aalt" horiz-adv-x="993"/><glyph d="M1161 1026q-117 0 -214 -82t-117 -200t47 -200.5t182 -82.5t213 86l-25 -146q-113 -66 -209 -65q-170 0 -268 119.5t-68 288.5t172 288t307 119t265 -113q98 -115 78 -276l-56 -305q-27 -152 136 -152q74 0 136 46t119.5 155.5t84.5 261.5q57 319 -142.5 534.5 t-527.5 215.5t-592 -229.5t-324 -556.5t124 -553t509 -226h37l-22 -125h-37q-377 0 -590 262t-145.5 641t374.5 645t684 266q250 0 443.5 -112.5t305.5 -357t-32.5 -616.5t-437.5 -372q-115 0 -184.5 66.5t-43.5 220.5l50 270l2 2q20 119 -48.5 201t-185.5 82z" glyph-name="at.aalt" horiz-adv-x="2021"/><glyph d="M137 -248l332 1874h336l-25 -137h-198l-285 -1598h199l-23 -139h-336z" glyph-name="bracketleft.aalt" horiz-adv-x="612"/><glyph d="M717 1626l-332 -1874h-336l23 139h198l285 1598h-199l25 137h336z" glyph-name="bracketright.aalt" horiz-adv-x="612"/><glyph d="M594 -123h111l-21 -125h-111q-168 0 -265 109.5t-66 285.5l61 349q10 55 -20.5 98t-83.5 43l20 117q53 0 99.5 43t56.5 98l63 352q31 176 166 285.5t303 109.5h111l-23 -124h-110q-111 0 -201 -77t-111 -194l-63 -352q-12 -63 -54 -120.5t-100 -80.5q47 -20 70.5 -79.5 t11.5 -118.5l-61 -349q-20 -117 43 -193.5t174 -76.5z" glyph-name="braceleft.aalt" horiz-adv-x="811"/><glyph d="M463 1518h-111l23 124h110q168 0 264.5 -109.5t63.5 -285.5l-63 -352q-10 -55 21.5 -98t84.5 -43l-20 -117q-53 0 -99.5 -43t-56.5 -98l-62 -349q-31 -176 -166 -285.5t-302 -109.5h-111l22 125h111q111 0 201 76.5t110 193.5l62 349q10 61 56 120.5t101 77.5 q-53 23 -76.5 80t-11.5 121l64 352q20 117 -42.5 194t-172.5 77z" glyph-name="braceright.aalt" horiz-adv-x="811"/><glyph d="M475 1206q-47 0 -74.5 31t-19.5 76t46 75.5t85 30.5t74.5 -30.5t19.5 -75.5t-46 -76t-85 -31zM385 1020h111l-166 -1020h-135z" glyph-name="exclamdown.case" horiz-adv-x="524"/><glyph d="M244 690l356 424h127l-356 -424l207 -424h-127zM551 690l356 424h127l-356 -424l207 -424h-127z" glyph-name="guillemotleft.aalt" horiz-adv-x="980"/><glyph d="M412 860q47 0 73.5 -30.5t18.5 -75.5t-46 -76t-85 -31t-75 31t-19.5 76t47.5 75.5t86 30.5z" glyph-name="periodcentered.aalt" horiz-adv-x="520"/><glyph d="M979 690l-358 -424h-127l358 424l-207 424h127zM672 690l-359 -424h-127l359 424l-207 424h127z" glyph-name="guillemotright.aalt" horiz-adv-x="980"/><glyph d="M497 -18q-169 0 -272.5 109.5t-72.5 285.5q25 141 125.5 243.5t212.5 133.5t165.5 79t69.5 136l10 59h135l-10 -59q-43 -256 -330 -338q-88 -27 -157.5 -94t-87.5 -171t53.5 -176.5t183.5 -72.5t200.5 71.5t108.5 188.5h136q-31 -176 -166 -285.5t-304 -109.5zM838 1214 q-47 0 -75 31t-19.5 76t46 75.5t85 30.5t75 -30.5t19.5 -75.5t-46 -76t-85 -31z" glyph-name="questiondown.case" horiz-adv-x="997"/><glyph d="M281 750h923l-20 -121h-924z" glyph-name="endash.aalt" horiz-adv-x="1222"/><glyph d="M281 750h1366l-21 -121h-1366z" glyph-name="emdash.aalt" horiz-adv-x="1665"/><glyph d="M641 985q123 0 194.5 -80t51 -200.5t-121.5 -200.5t-224 -80t-194 80t-50.5 200.5t121 200.5t223.5 80z" glyph-name="bullet.aalt" horiz-adv-x="937"/><glyph d="M244 690l356 424h127l-356 -424l207 -424h-127z" glyph-name="guilsinglleft.aalt" horiz-adv-x="673"/><glyph d="M672 690l-359 -424h-127l359 424l-207 424h127z" glyph-name="guilsinglright.aalt" horiz-adv-x="673"/><glyph d="M788 1069q-150 0 -272.5 -99.5t-153 -261t58.5 -264t237 -102.5t270 92l82 -96q-156 -121 -351 -131l-41 -230h-102l43 236q-178 27 -271.5 161t-59.5 334t175.5 331.5t329.5 158.5l39 223h102l-40 -217q193 -10 303 -129l-115 -96q-84 90 -234 90z" glyph-name="glyph423" horiz-adv-x="1071"/><glyph d="M1173 1224.5q52 -153.5 52 -272t-27 -274.5t-70 -273.5t-112.5 -218t-177 -153.5t-246.5 -53t-229.5 55t-142.5 206.5t9 436.5q54 305 192 502.5t419 197.5t333 -153.5zM616 115q195 0 297.5 149.5t149.5 413.5q25 160 23.5 286t-69 202.5t-185.5 76.5 q-220 0 -320.5 -156.5t-146.5 -408.5q-25 -160 -22 -285t71.5 -201.5t201.5 -76.5z" glyph-name="zero.tnum" horiz-adv-x="1187"/><glyph d="M582 0l209 1186l-246 -80l22 123l391 133l-241 -1362h-135z" glyph-name="one.tnum" horiz-adv-x="1187"/><glyph d="M800 1243q-114 0 -206 -59.5t-123 -159.5l-121 33q51 147 182.5 234t297.5 87t268 -109.5t71 -283.5t-208 -344l-519 -506h578l-23 -135h-817l6 47l693 690q133 131 154 249t-49 187.5t-184 69.5z" glyph-name="two.tnum" horiz-adv-x="1187"/><glyph d="M688 664h-131l25 129h131q102 0 185 64.5t103 158.5t-28.5 156.5t-148.5 68.5t-179.5 -27.5t-126.5 -93.5l-96 68q72 94 184.5 147.5t233.5 44.5q184 -14 261 -124.5t36 -262.5q-23 -82 -88.5 -153.5t-151.5 -106.5q111 -27 161 -141.5t17 -235.5q-45 -168 -205.5 -277.5 t-345.5 -96.5q-129 10 -221 78.5t-119 172.5l131 56q18 -70 83.5 -117t158.5 -55q129 -8 243.5 67.5t141.5 191.5t-50 202t-204 86z" glyph-name="three.tnum" horiz-adv-x="1187"/><glyph d="M952 291l-51 -291h-135l51 291h-713l938 1071h101l-168 -946h205l-23 -125h-205zM375 416h465l118 676z" glyph-name="four.tnum" horiz-adv-x="1187"/><glyph d="M592 121q160 0 266.5 87t131 220t-56.5 212t-191 79t-188.5 -22.5t-213.5 -84.5l-41 72l242 678h667l-24 -137h-551l-162 -451q178 84 289 84q188 0 296.5 -115.5t72.5 -317.5t-189.5 -323.5t-372.5 -121.5q-141 0 -252.5 79.5t-152.5 206.5l133 84q20 -98 105 -163.5 t192 -65.5z" glyph-name="five.tnum" horiz-adv-x="1187"/><glyph d="M1214 1149l-131 -51q-41 137 -213 145q-125 6 -221 -76t-146 -202.5t-73 -274.5q49 86 151.5 129t202.5 39q178 -8 274.5 -142t55.5 -316t-190.5 -305t-327.5 -115t-271.5 129.5t-72.5 328.5q38 309 108 513t215.5 318.5t325.5 108.5q121 -6 199.5 -55t113.5 -174z M520.5 642q-106.5 -83 -133.5 -213t43 -219t194 -93t226 79t131 212t-35.5 219t-191.5 94t-233.5 -79z" glyph-name="six.tnum" horiz-adv-x="1187"/><glyph d="M1251 1257l-915 -1257h-160l895 1227h-672l23 135h903z" glyph-name="seven.tnum" horiz-adv-x="1187"/><glyph d="M839 1378q149 0 232.5 -97t57.5 -244t-166 -246q94 -57 138 -158t23 -219q-33 -182 -187.5 -308t-349 -126t-305 125.5t-77.5 308.5q20 119 101 219t198 158q-105 93 -78 243t145.5 247t267.5 97zM610.5 115q137.5 0 247 87t132 212t-56.5 215t-216 90l-15 -2 q-133 -10 -237.5 -97t-126.5 -209t56.5 -209t216 -87zM814 1243q-91 0 -162.5 -57.5t-86 -141t31.5 -143t132 -59.5l19 2q92 6 163.5 63t85.5 139t-39 139.5t-144 57.5z" glyph-name="eight.tnum" horiz-adv-x="1187"/><glyph d="M203 207l127 51q41 -133 229 -145q184 -6 293 152.5t145 400.5q-49 -86 -151.5 -129t-202.5 -39q-180 8 -275.5 142t-54.5 316t191 305t328 115t272 -130t74 -328q-42 -317 -112 -518t-214.5 -315t-323.5 -108q-270 13 -325 230zM905 714q108 83 134 212t-43.5 219 t-192.5 94t-225.5 -79t-131 -212t35 -219t189.5 -94t234 79z" glyph-name="nine.tnum" horiz-adv-x="1187"/><glyph d="M586 -20q-207 0 -326 148t-78 385t213 382t380 145t327 -145t78 -382t-214 -385t-380 -148zM611 115q151 0 277 110.5t156.5 286.5t-56.5 284.5t-238.5 108.5t-276.5 -108.5t-156 -283.5t56 -286.5t238 -111.5z" glyph-name="zero.oldstyle.tnum" horiz-adv-x="1187"/><glyph d="M954 1049l-184 -1049h-135l147 846l-338 -121l25 133z" glyph-name="one.oldstyle.tnum" horiz-adv-x="1187"/><glyph d="M757 920q-89 0 -154.5 -41t-86.5 -113q-123 27 -125 27q33 119 144.5 191.5t253.5 72.5t226.5 -85t60.5 -219t-171 -257l-409 -361h473l-23 -135h-735l6 47l600 545q101 82 115 159t-36 123t-139 46z" glyph-name="two.oldstyle.tnum" horiz-adv-x="1187"/><glyph d="M1214 1149l-131 -51q-41 137 -213 145q-125 6 -221 -76t-146 -202.5t-73 -274.5q49 86 151.5 129t202.5 39q178 -8 274.5 -142t55.5 -316t-190.5 -305t-327.5 -115t-271.5 129.5t-72.5 328.5q38 309 108 513t215.5 318.5t325.5 108.5q121 -6 199.5 -55t113.5 -174z M520.5 642q-106.5 -83 -133.5 -213t43 -219t194 -93t226 79t131 212t-35.5 219t-191.5 94t-233.5 -79z" glyph-name="six.oldstyle.tnum" horiz-adv-x="1187"/><glyph d="M839 1378q149 0 232.5 -97t57.5 -244t-166 -246q94 -57 138 -158t23 -219q-33 -182 -187.5 -308t-349 -126t-305 125.5t-77.5 308.5q20 119 101 219t198 158q-105 93 -78 243t145.5 247t267.5 97zM610.5 115q137.5 0 247 87t132 212t-56.5 215t-216 90l-15 -2 q-133 -10 -237.5 -97t-126.5 -209t56.5 -209t216 -87zM814 1243q-91 0 -162.5 -57.5t-86 -141t31.5 -143t132 -59.5l19 2q92 6 163.5 63t85.5 139t-39 139.5t-144 57.5z" glyph-name="eight.oldstyle.tnum" horiz-adv-x="1187"/><glyph d="M621 252h-132l23 129h131q102 0 184 64.5t105 158.5t-26.5 156.5t-151.5 68.5t-180 -27.5t-125 -92.5l-95 67q72 94 183.5 147.5t232.5 45.5q184 -14 262 -125t37 -262q-23 -82 -88.5 -154t-151.5 -106q109 -27 160 -141.5t21 -235.5q-45 -168 -208 -277.5t-347 -97.5 q-129 10 -220.5 78.5t-119.5 173.5l135 55q16 -70 81 -117t156 -55q131 -8 246 67.5t144 192.5q23 115 -54.5 201t-201.5 86z" glyph-name="three.oldstyle.tnum" horiz-adv-x="1187"/><glyph d="M879 -119l-54 -291h-135l53 291h-712l936 1071h100l-168 -946h205l-21 -125h-204zM299 6h465l121 676z" glyph-name="four.oldstyle.tnum" horiz-adv-x="1187"/><glyph d="M520 -285q160 0 266.5 87t131 220.5t-56.5 212t-190 78.5t-189.5 -22.5t-213.5 -83.5l-43 72l242 677h668l-23 -137h-551l-164 -450q182 84 289 84q188 0 298 -115.5t74 -317.5t-189.5 -324t-374.5 -122q-141 0 -253 80t-151 207l131 84q20 -98 106.5 -164t192.5 -66z " glyph-name="five.oldstyle.tnum" horiz-adv-x="1187"/><glyph d="M1249 952l-989 -1362h-160l897 1227h-671l20 135h903z" glyph-name="seven.oldstyle.tnum" horiz-adv-x="1187"/><glyph d="M135 -203l131 51q41 -133 228 -145q184 -6 293.5 153.5t142.5 399.5q-49 -86 -150.5 -129t-199.5 -39q-180 8 -276.5 142.5t-55.5 316.5t190.5 305t327.5 115t271 -130t73 -329q-35 -295 -115 -533q-63 -184 -208.5 -298.5t-323.5 -108.5q-269 12 -328 229zM839.5 304 q108.5 83 134.5 212t-44 219t-194 94t-225 -78.5t-130 -211.5t35.5 -219.5t189.5 -94.5t233.5 79z" glyph-name="nine.oldstyle.tnum" horiz-adv-x="1187"/><glyph d="M606 -20q-207 0 -325.5 148t-77.5 385t213 382t380 145t326.5 -145t77.5 -382t-214 -385t-380 -148zM632 115q151 0 276.5 110.5t156.5 286.5t-56 284.5t-239 108.5t-276.5 -108.5t-155.5 -283.5t56 -286.5t238 -111.5z" glyph-name="zero.oldstyle" horiz-adv-x="1226"/><glyph d="M723 1049l-184 -1049h-136l148 846l-338 -121l25 133z" glyph-name="one.oldstyle" horiz-adv-x="724"/><glyph d="M644 920q-89 0 -154.5 -41t-86.5 -113q-123 27 -124 27q33 119 144.5 191.5t253.5 72.5t226.5 -85t60.5 -219t-171 -257l-410 -361h473l-22 -135h-736l6 47l601 545q102 82 115 159t-37 123t-139 46z" glyph-name="two.oldstyle" horiz-adv-x="962"/><glyph d="M555 252h-131l22 129h132q102 0 184 64.5t104 158.5t-26 156.5t-150 68.5t-181 -27.5t-126 -92.5l-94 67q72 94 183.5 147.5t232.5 45.5q184 -14 261.5 -125t37.5 -262q-23 -82 -88.5 -154t-151.5 -106q109 -27 160 -141.5t20 -235.5q-45 -168 -208 -277.5t-347 -97.5 q-129 10 -220 78.5t-120 173.5l135 55q16 -70 81.5 -117t156.5 -55q131 -8 245.5 67.5t143.5 192.5q23 115 -54 201t-202 86z" glyph-name="three.oldstyle" horiz-adv-x="1054"/><glyph d="M874 -119l-53 -291h-135l53 291h-712l936 1071h100l-168 -946h205l-21 -125h-205zM295 6h465l121 676z" glyph-name="four.oldstyle" horiz-adv-x="1177"/><glyph d="M485 -285q160 0 266.5 87t131 220.5t-56.5 212t-190 78.5t-189 -22.5t-214 -83.5l-43 72l242 677h668l-23 -137h-551l-164 -450q182 84 289 84q188 0 298 -115.5t74 -317.5t-189.5 -324t-374.5 -122q-141 0 -253 80t-151 207l131 84q20 -98 106.5 -164t192.5 -66z" glyph-name="five.oldstyle" horiz-adv-x="1116"/><glyph d="M1190 1149l-131 -51q-41 135 -213 145q-184 6 -294 -152.5t-146 -400.5q49 86 151 129t203 39q178 -8 274 -142t56 -316t-190 -305t-328 -115t-271.5 129.5t-73.5 328.5q39 309 109 513t215 318.5t326 108.5q121 -6 199.5 -55t113.5 -174zM495.5 642 q-106.5 -83 -133.5 -213t43 -219t194 -93t225.5 79t131.5 212q29 129 -36.5 219t-191.5 94t-232.5 -79z" glyph-name="six.oldstyle" horiz-adv-x="1138"/><glyph d="M1167 952l-989 -1362h-160l897 1227h-671l20 135h903z" glyph-name="seven.oldstyle" horiz-adv-x="1021"/><glyph d="M824 1378q148 0 232.5 -97t58.5 -244t-167 -246q94 -57 138 -158t24 -219q-33 -182 -187.5 -308t-349 -126t-305 125.5t-78.5 308.5q20 119 101.5 219t197.5 158q-104 93 -77 243t145.5 247t266.5 97zM596 115q137 0 246.5 87t132 212t-56 215t-216.5 90l-14 -2 q-133 -10 -237.5 -97t-126.5 -209t56.5 -209t215.5 -87zM800 1243q-91 0 -163 -57.5t-86 -141t32 -143t132 -59.5l18 2q92 6 164 63t86 139t-39 139.5t-144 57.5z" glyph-name="eight.oldstyle" horiz-adv-x="1157"/><glyph d="M90 -203l131 51q41 -133 228 -145q184 -6 293.5 153.5t142.5 399.5q-49 -86 -150.5 -129t-199.5 -39q-180 8 -276.5 142.5t-55.5 316.5t190.5 305t327.5 115t271 -130t73 -329q-35 -295 -115 -533q-63 -184 -208.5 -298.5t-323.5 -108.5q-269 12 -328 229zM794.5 304 q108.5 83 134.5 212t-44 219t-194 94t-225 -78.5t-130 -211.5t35.5 -219.5t189.5 -94.5t233.5 79z" glyph-name="nine.oldstyle" horiz-adv-x="1095"/><glyph d="M537 1200l-76 -434l207 117l-19 -105l-207 -119l-98 -536h506l-19 -123h-628l102 582l-131 -72l19 104l131 74l90 512h123z" glyph-name="Lslash.aalt" horiz-adv-x="888"/><glyph d="M113 119l839 958h-645l23 123h796l-20 -121l-844 -956h672l-19 -123h-821zM655 1561l97 -152l151 152h123l-211 -240h-153l-130 240h123z" glyph-name="Zcaron.aalt" horiz-adv-x="1019"/><glyph d="M410 1200h122l-167 -878h-99zM257 -16q-42 0 -66.5 26.5t-17.5 66.5t41 66.5t75 26.5t65.5 -26.5t17.5 -66.5t-40 -66.5t-75 -26.5z" glyph-name="exclam.aalt" horiz-adv-x="520"/><glyph d="M647 739h266l29 154h119l-29 -156h158l-19 -106h-157l-47 -264q-23 -129 3.5 -199t139.5 -70l-20 -114q-100 0 -164 43t-76 112q-53 -70 -147.5 -112.5t-192.5 -42.5q-172 0 -262 109.5t-62 273.5q18 102 88 189t170 138q-88 82 -64 214t127 217t232 85q90 0 156 -42 t92 -111l-110 -64q-41 96 -158 97q-82 0 -143.5 -50t-73.5 -124t27.5 -125.5t117.5 -51.5zM625 631q-113 0 -206 -78.5t-113 -188.5t43 -185t179 -75t204.5 72t111.5 178l51 277h-270z" glyph-name="ampersand.aalt" horiz-adv-x="1198"/><glyph d="M652 1212q142 0 231.5 -94t64.5 -228t-111.5 -221t-182.5 -115t-136.5 -58.5t-50.5 -100.5l-12 -73h-123l14 73q42 207 254 265q197 54 226 224q15 86 -43 146t-151 60t-166 -61t-91 -159h-123q27 154 142.5 248t257.5 94zM366 170q42 0 66.5 -26.5t17.5 -66.5t-41 -66.5 t-76 -26.5t-65.5 26.5t-16.5 66.5t40 66.5t75 26.5z" glyph-name="question.aalt" horiz-adv-x="882"/><glyph d="M424 428h461l-123 602zM360 313l-174 -313h-131l672 1200h131l248 -1200h-131l-68 313h-547z" glyph-name="A.aalt" horiz-adv-x="1161"/><glyph d="M672 0h-479l210 1200h441q145 0 215 -81t45 -220q-39 -207 -193 -260q86 -18 131 -108.5t27 -192.5q-27 -143 -134.5 -240.5t-262.5 -97.5zM764 692q88 0 145.5 59.5t71.5 146.5t-33 134t-139 47h-301l-70 -387h326zM764 578h-346l-82 -457h352q96 0 169 64.5t88 151.5 t-35 164t-146 77z" glyph-name="B.aalt" horiz-adv-x="1124"/><glyph d="M697 -18q-255 0 -391 179t-89 437t244.5 436t452.5 178t395 -182l-101 -84q-118 146 -318 146t-356.5 -143.5t-193.5 -351.5t68.5 -350.5t307.5 -142.5t371 148l72 -86q-207 -184 -462 -184z" glyph-name="C.aalt" horiz-adv-x="1200"/><glyph d="M662 123q199 0 327.5 131t167.5 344t-45 346t-281 133h-327l-170 -954h328zM643 0h-450l210 1200h451q248 0 360.5 -170t65.5 -432t-218 -430t-419 -168z" glyph-name="D.aalt" horiz-adv-x="1294"/><glyph d="M193 0l210 1200h689l-21 -121h-565l-78 -430h496l-23 -121h-495l-72 -407h584l-19 -121h-706z" glyph-name="E.aalt" horiz-adv-x="1015"/><glyph d="M193 0l210 1200h678l-20 -121h-555l-78 -430h440l-22 -121h-440l-91 -528h-122z" glyph-name="F.aalt" horiz-adv-x="946"/><glyph d="M715 -18q-258 0 -401.5 180t-96.5 436t252 435t443 179t378 -141l-102 -86q-112 107 -298 107t-349.5 -144.5t-200.5 -350.5t75.5 -349.5t308.5 -143.5t325 99.5t170 273.5h-349l21 113h485q-53 -301 -228 -454.5t-433 -153.5z" glyph-name="G.aalt" horiz-adv-x="1355"/><glyph d="M1171 1200h123l-211 -1200h-122l92 539h-645l-93 -539h-122l210 1200h123l-98 -547h645z" glyph-name="H.aalt" horiz-adv-x="1275"/><glyph d="M403 1200h123l-211 -1200h-122z" glyph-name="I.aalt" horiz-adv-x="507"/><glyph d="M-121 -446q-57 0 -108 14l32 121q39 -14 99 -15q119 0 188.5 74t89.5 189l226 1263h120l-223 -1263q-31 -170 -136.5 -276.5t-287.5 -106.5z" glyph-name="J.aalt" horiz-adv-x="507"/><glyph d="M543 600l463 -600h-166l-428 555l-97 -555h-122l210 1200h123l-100 -573l543 573h145z" glyph-name="K.aalt" horiz-adv-x="1017"/><glyph d="M193 0l210 1200h123l-192 -1079h506l-19 -121h-628z" glyph-name="L.aalt" horiz-adv-x="878"/><glyph d="M887 274l612 926h121l-64 -1200h-120l51 979l-565 -848h-121l-264 848l-293 -979h-121l356 1200h121z" glyph-name="M.aalt" horiz-adv-x="1679"/><glyph d="M1251 1200l-211 -1200h-125l-426 987l-174 -987h-122l210 1200h129l422 -981l174 981h123z" glyph-name="N.aalt" horiz-adv-x="1232"/><glyph d="M732 104q204 0 369 143.5t202 349.5t-77 350.5t-318 144.5t-367.5 -144.5t-200.5 -350.5t75.5 -349.5t316.5 -143.5zM929 1212q255 0 399.5 -179t97 -435t-254 -436t-460.5 -180t-397.5 180t-96.5 436t252 435t460 179z" glyph-name="O.aalt" horiz-adv-x="1433"/><glyph d="M856 1079h-348l-88 -493h340q115 0 182.5 70.5t85.5 173.5t-22.5 176t-149.5 73zM877 1200q172 0 236.5 -107.5t36.5 -262.5t-129 -260t-273 -105h-349l-82 -465h-124l210 1200h474z" glyph-name="P.aalt" horiz-adv-x="1089"/><glyph d="M929 1212q255 0 399.5 -179t96.5 -435q-31 -166 -135.5 -307t-251.5 -223l92 -201l-112 -66l-100 215q-100 -35 -207 -34q-254 0 -397.5 180t-96.5 436t252 435t460 179zM908 1092q-204 0 -367.5 -144.5t-200.5 -349.5t74.5 -348.5t314.5 -143.5q78 0 137 15l-92 217 l111 65l104 -233q121 66 205 179.5t109 248.5q37 205 -77 349.5t-318 144.5z" glyph-name="Q.aalt" horiz-adv-x="1433"/><glyph d="M829 1079h-321l-88 -493h313q115 0 181.5 70.5t85 175t-20.5 176t-150 71.5zM852 1200q172 0 234.5 -106.5t35.5 -260.5t-123 -257t-258 -111l248 -465h-151l-246 465h-193l-82 -465h-124l210 1200h449z" glyph-name="R.aalt" horiz-adv-x="1101"/><glyph d="M534 104q120 0 204.5 57.5t109.5 135.5q63 188 -178 248l-152 37q-276 68 -233 303q25 143 154.5 235t287.5 92t248 -94t63 -250h-123q18 100 -43.5 162t-167.5 62t-193 -58.5t-103 -148.5q-25 -145 155 -187l156 -36q154 -37 225.5 -132.5t20.5 -253.5 q-45 -121 -164 -207.5t-290 -86.5t-264 111.5t-69 250.5h123q-16 -92 48.5 -166t184.5 -74z" glyph-name="S.aalt" horiz-adv-x="1032"/><glyph d="M246 1077l22 123h885l-23 -123h-380l-189 -1077h-123l189 1077h-381z" glyph-name="T.aalt" horiz-adv-x="999"/><glyph d="M625 104q127 0 230 84t128 220l139 792h125l-141 -792q-33 -188 -178.5 -307t-324.5 -119t-282.5 118.5t-68.5 307.5l139 792h123l-139 -792q-25 -135 49 -219.5t201 -84.5z" glyph-name="U.aalt" horiz-adv-x="1214"/><glyph d="M289 1200h127l123 -997l469 997h127l-570 -1200h-127z" glyph-name="V.aalt" horiz-adv-x="1001"/><glyph d="M1139 195l506 1005h131l-617 -1200h-115l-92 795l-370 -795h-115l-195 1200h131l154 -1005l391 845h94z" glyph-name="W.aalt" horiz-adv-x="1626"/><glyph d="M1196 1200l-471 -555l309 -645h-149l-252 543l-440 -543h-148l533 645l-275 555h150l217 -450l379 450h147z" glyph-name="X.aalt" horiz-adv-x="1077"/><glyph d="M719 557l-96 -557h-127l96 557l-336 643h147l277 -512l463 512h147z" glyph-name="Y.aalt" horiz-adv-x="1118"/><glyph d="M113 119l839 958h-645l23 123h796l-20 -121l-844 -956h672l-19 -123h-821z" glyph-name="Z.aalt" horiz-adv-x="1019"/><glyph d="M678 1591l94 -149l154 149h121l-211 -239h-154l-127 239h123zM532 96q120 0 204.5 60.5t111.5 140.5q63 188 -178 248l-152 37q-276 68 -233 303q25 143 154.5 235t287.5 92t248 -94t63 -250h-123q18 100 -43.5 162t-167.5 62t-193 -58.5t-103 -148.5q-25 -145 155 -187 l156 -36q154 -37 225.5 -132.5t20.5 -253.5q-45 -121 -164 -207.5t-290 -86.5t-264 111.5t-69 250.5h123q-16 -94 47.5 -171t183.5 -77z" glyph-name="Scaron.aalt" horiz-adv-x="1032"/><glyph d="M731 106q201 0 362.5 135.5t202.5 333.5l9 43q29 197 -85 334.5t-315 137.5t-364.5 -143.5t-200.5 -348.5t76.5 -348.5t314.5 -143.5zM711 -18q-254 0 -397.5 180t-96.5 436t252 435t459 179q147 0 261 -64t177 -177l41 229h688l-22 -123h-566l-73 -428h493l-22 -123 h-494l-74 -403h584l-18 -123h-707l39 225q-102 -113 -239.5 -178t-284.5 -65z" glyph-name="OE.aalt" horiz-adv-x="2019"/><glyph d="M719 557l-96 -557h-127l96 557l-336 643h147l277 -512l463 512h147zM684 1554q39 0 62.5 -25.5t16.5 -62.5t-39 -61.5t-71 -24.5t-60 24.5t-14 62.5t36.5 62.5t68.5 24.5zM990 1554q38 0 61.5 -25.5t16.5 -62.5t-39 -61.5t-70 -24.5t-60 24.5t-15 62.5t37.5 62.5 t68.5 24.5z" glyph-name="Ydieresis.aalt" horiz-adv-x="1118"/><glyph d="M319 0h-122l168 879h98zM438 1030q-41 0 -65.5 26.5t-16.5 66.5t42 67t76 27t65.5 -27t15.5 -67t-42 -66.5t-75 -26.5z" glyph-name="exclamdown.c2sc" horiz-adv-x="518"/><glyph d="M388 -399q-144 0 -231 92.5t-65 228.5t108.5 221.5t200.5 118.5q154 43 177 170l10 60h121l-11 -60q-37 -215 -280 -285q-74 -20 -132.5 -77.5t-73.5 -141.5t44.5 -145.5t153.5 -61.5t166 61t90 159h122q-25 -152 -140.5 -246t-259.5 -94zM675 643q-42 0 -65.5 26.5 t-15.5 66.5t41 66.5t75 26.5t66.5 -26.5t16.5 -66.5t-42 -66.5t-76 -26.5z" glyph-name="questiondown.c2sc" horiz-adv-x="870"/><glyph d="M879 1321h-125l-115 240h149zM424 428h461l-123 602zM360 313l-174 -313h-131l672 1200h131l248 -1200h-131l-68 313h-547z" glyph-name="Agrave.aalt" horiz-adv-x="1161"/><glyph d="M1067 1561l-197 -240h-125l173 240h149zM885 428l-123 602l-338 -602h461zM186 0h-131l672 1200h131l248 -1200h-131l-68 313h-547z" glyph-name="Aacute.aalt" horiz-adv-x="1161"/><glyph d="M1061 1321h-123l-100 149l-148 -149h-123l211 240h154zM424 428h461l-123 602zM360 313l-174 -313h-131l672 1200h131l248 -1200h-131l-68 313h-547z" glyph-name="Acircumflex.aalt" horiz-adv-x="1161"/><glyph d="M755.5 1440q-20.5 0 -42 -19.5t-29.5 -58.5h-92q25 100 76 145t101 45t88.5 -36.5t60.5 -36.5t43.5 17t29.5 56h92q-25 -98 -76 -142t-101 -44t-90 37t-60.5 37zM424 428h461l-123 602zM360 313l-174 -313h-131l672 1200h131l248 -1200h-131l-68 313h-547z" glyph-name="Atilde.aalt" horiz-adv-x="1161"/><glyph d="M700.5 1554q38.5 0 61 -24.5t15.5 -62.5t-37.5 -62.5t-69.5 -24.5t-61.5 24.5t-15.5 62.5t38 62.5t69.5 24.5zM1007 1554q38 0 60.5 -24.5t14.5 -62.5t-38 -62.5t-68 -24.5t-61.5 24.5t-17.5 61.5q8 37 40 62.5t70 25.5zM885 428l-123 602l-338 -602h461zM186 0h-131 l672 1200h131l248 -1200h-131l-68 313h-547z" glyph-name="Adieresis.aalt" horiz-adv-x="1161"/><glyph d="M872 1659q72 0 113 -50t28.5 -122t-71.5 -121t-132 -49t-113 49t-27.5 121t71.5 122t131 50zM828 1407q34 0 60.5 22.5t33 57.5t-13 58.5t-53.5 23.5t-60.5 -23.5t-32.5 -58.5t13 -57.5t53 -22.5zM885 428l-123 602l-338 -602h461zM186 0h-131l672 1200h131l248 -1200 h-131l-68 313h-547z" glyph-name="Aring.aalt" horiz-adv-x="1161"/><glyph d="M1049 1065l-519 -637h406zM915 313h-477l-252 -313h-145l969 1200h751l-22 -123h-565l-76 -428h493l-20 -123h-494l-73 -403h583l-18 -123h-707z" glyph-name="AE.aalt" horiz-adv-x="1685"/><glyph d="M918 1212q256 0 395 -182l-103 -84q-114 146 -316 146t-358.5 -143.5t-193.5 -351.5t68.5 -350.5t307.5 -142.5t372 148l71 -86q-199 -176 -442 -182l24 -101q10 -41 -4 -97t-75.5 -102t-129.5 -39t-104.5 58t-21.5 125l94 -8q-8 -43 22.5 -68.5t67.5 -11.5t54.5 46 t8.5 60l-34 142q-219 27 -332 199.5t-68 420.5t243 426t454 178z" glyph-name="Ccedilla.aalt" horiz-adv-x="1204"/><glyph d="M854 1321h-125l-115 240h152zM193 0l210 1200h689l-21 -121h-565l-78 -430h496l-23 -121h-495l-72 -407h584l-19 -121h-706z" glyph-name="Egrave.aalt" horiz-adv-x="1015"/><glyph d="M981 1561l-197 -240h-125l172 240h150zM403 1200h689l-21 -121h-565l-78 -430h496l-23 -121h-495l-72 -407h584l-19 -121h-706z" glyph-name="Eacute.aalt" horiz-adv-x="1015"/><glyph d="M991 1321h-123l-98 149l-149 -149h-121l211 240h151zM193 0l210 1200h689l-21 -121h-565l-78 -430h496l-23 -121h-495l-72 -407h584l-19 -121h-706z" glyph-name="Ecircumflex.aalt" horiz-adv-x="1015"/><glyph d="M632 1554q38 0 61.5 -25.5t16.5 -62.5t-39 -61.5t-70 -24.5t-60.5 24.5t-15.5 62.5t38 62.5t69 24.5zM938 1554q39 0 61.5 -24.5t15.5 -62.5t-38 -62.5t-70 -24.5t-61.5 24.5t-15.5 62.5t38 62.5t70 24.5zM403 1200h689l-21 -121h-565l-78 -430h496l-23 -121h-495 l-72 -407h584l-19 -121h-706z" glyph-name="Edieresis.aalt" horiz-adv-x="1015"/><glyph d="M549 1321h-125l-115 240h152zM403 1200h123l-211 -1200h-122z" glyph-name="Igrave.aalt" horiz-adv-x="507"/><glyph d="M745 1561l-196 -240h-125l170 240h151zM526 1200l-211 -1200h-122l210 1200h123z" glyph-name="Iacute.aalt" horiz-adv-x="507"/><glyph d="M735 1321h-123l-100 149l-147 -149h-123l211 240h153zM403 1200h123l-211 -1200h-122z" glyph-name="Icircumflex.aalt" horiz-adv-x="507"/><glyph d="M376 1554q38 0 61.5 -25.5t16.5 -62.5t-39 -61.5t-70 -24.5t-60.5 24.5t-15.5 62.5t38 62.5t69 24.5zM683 1554q38 0 60.5 -24.5t15.5 -62.5t-38 -62.5t-69 -24.5t-61.5 24.5t-17.5 61.5q8 37 40 62.5t70 25.5zM526 1200l-211 -1200h-122l210 1200h123z" glyph-name="Idieresis.aalt" horiz-adv-x="507"/><glyph d="M670 123q199 0 327.5 131t167.5 344t-45 346t-282 133h-328l-74 -424h297l-18 -108h-297l-76 -422h328zM651 0h-450l94 545h-170l18 108h170l97 547h450q248 0 361.5 -170t66.5 -432t-218 -430t-419 -168z" glyph-name="Eth.aalt" horiz-adv-x="1302"/><glyph d="M792 1440q-19 0 -42 -19.5t-31 -58.5h-90q25 100 76 145t100 45t88 -36.5t61.5 -36.5t44 17t27.5 56h92q-23 -100 -74 -143t-102 -43t-91 37t-59 37zM1251 1200l-211 -1200h-125l-426 987l-174 -987h-122l210 1200h129l422 -981l174 981h123z" glyph-name="Ntilde.aalt" horiz-adv-x="1232"/><glyph d="M1024 1321h-123l-117 240h152zM732 104q204 0 369 143.5t202 349.5t-77 350.5t-318 144.5t-367.5 -144.5t-200.5 -350.5t75.5 -349.5t316.5 -143.5zM929 1212q255 0 399.5 -179t97 -435t-254 -436t-460.5 -180t-397.5 180t-96.5 436t252 435t460 179z" glyph-name="Ograve.aalt" horiz-adv-x="1433"/><glyph d="M1186 1561l-197 -240h-125l172 240h150zM732 104q204 0 369 143.5t202 349.5t-77 350.5t-318 144.5t-367.5 -144.5t-200.5 -350.5t75.5 -349.5t316.5 -143.5zM929 1212q255 0 399.5 -179t97 -435t-254 -436t-460.5 -180t-397.5 180t-96.5 436t252 435t460 179z" glyph-name="Oacute.aalt" horiz-adv-x="1433"/><glyph d="M1196 1321h-123l-98 149l-150 -149h-123l211 240h154zM732 104q204 0 369 143.5t202 349.5t-77 350.5t-318 144.5t-367.5 -144.5t-200.5 -350.5t75.5 -349.5t316.5 -143.5zM929 1212q255 0 399.5 -179t97 -435t-254 -436t-460.5 -180t-397.5 180t-96.5 436t252 435 t460 179z" glyph-name="Ocircumflex.aalt" horiz-adv-x="1433"/><glyph d="M892 1440q-19 0 -42 -19.5t-29 -58.5h-90q23 100 74 145t100 45t89 -36.5t62 -36.5t43 17t27 56h93q-23 -100 -74 -143t-101 -43t-91.5 37t-60.5 37zM732 104q204 0 369 143.5t202 349.5t-77 350.5t-318 144.5t-367.5 -144.5t-200.5 -350.5t75.5 -349.5t316.5 -143.5z M929 1212q255 0 399.5 -179t97 -435t-254 -436t-460.5 -180t-397.5 180t-96.5 436t252 435t460 179z" glyph-name="Otilde.aalt" horiz-adv-x="1433"/><glyph d="M840 1554q39 0 62.5 -25.5t16.5 -62.5t-40 -61.5t-71 -24.5t-59.5 24.5t-14.5 62.5t37 62.5t69 24.5zM1145 1554q39 0 62.5 -25.5t16.5 -62.5t-39 -61.5t-71 -24.5t-60.5 24.5t-14.5 62.5t37 62.5t69 24.5zM732 104q204 0 369 143.5t202 349.5t-77 350.5t-318 144.5 t-367.5 -144.5t-200.5 -350.5t75.5 -349.5t316.5 -143.5zM929 1212q255 0 399.5 -179t97 -435t-254 -436t-460.5 -180t-397.5 180t-96.5 436t252 435t460 179z" glyph-name="Odieresis.aalt" horiz-adv-x="1433"/><glyph d="M748 104q188 0 352 143.5t200 350.5q31 172 -49 311l-802 -698q111 -107 299 -107zM890 1092q-188 0 -351.5 -145t-198.5 -339t51 -329l805 698q-118 115 -306 115zM917 1212q245 0 379 -147l177 154l57 -68l-178 -156q112 -165 68 -409t-249.5 -424t-443.5 -180 t-383 141l-162 -143l-57 67l166 143q-117 178 -73 421t249 422t450 179z" glyph-name="Oslash.aalt" horiz-adv-x="1431"/><glyph d="M625 104q127 0 230 84t128 220l139 792h125l-141 -792q-33 -188 -178.5 -307t-324.5 -119t-281.5 118.5t-69.5 307.5l141 792h121l-139 -792q-25 -135 49 -219.5t201 -84.5zM817 1321l-117 240h152l88 -240h-123z" glyph-name="Ugrave.aalt" horiz-adv-x="1214"/><glyph d="M625 104q127 0 230 84t128 220l139 792h125l-141 -792q-33 -188 -178.5 -307t-324.5 -119t-282.5 118.5t-68.5 307.5l139 792h123l-139 -792q-25 -135 49 -219.5t201 -84.5zM1079 1561l-198 -240h-123l170 240h151z" glyph-name="Uacute.aalt" horiz-adv-x="1214"/><glyph d="M625 104q127 0 230 84t128 220l139 792h125l-141 -792q-33 -188 -178.5 -307t-324.5 -119t-281.5 118.5t-69.5 307.5l141 792h121l-139 -792q-25 -135 49 -219.5t201 -84.5zM1092 1321h-123l-99 149l-149 -149h-123l211 240h154z" glyph-name="Ucircumflex.aalt" horiz-adv-x="1214"/><glyph d="M625 104q127 0 230 84t128 220l139 792h125l-141 -792q-33 -188 -178.5 -307t-324.5 -119t-282.5 118.5t-68.5 307.5l139 792h123l-139 -792q-25 -135 49 -219.5t201 -84.5zM728 1554q38 0 61.5 -25.5t16.5 -62.5t-38 -61.5t-69 -24.5t-60 24.5t-15 62.5t36.5 62.5 t67.5 24.5zM1034 1554q39 0 62.5 -25.5t16.5 -62.5t-39 -61.5t-70 -24.5t-60 24.5t-15 62.5t36.5 62.5t68.5 24.5z" glyph-name="Udieresis.aalt" horiz-adv-x="1214"/><glyph d="M719 557l-96 -557h-127l96 557l-336 643h147l277 -512l463 512h147zM1042 1561l-196 -240h-125l172 240h149z" glyph-name="Yacute.aalt" horiz-adv-x="1118"/><glyph d="M655 371q100 0 179 68.5t99.5 177t-36.5 174t-158 65.5q-182 0 -272 -6q-2 0 -38 -209.5t-48 -269.5h274zM633 250h-275l-41 -250h-124l210 1200h125l-39 -221h275q154 0 237 -100.5t55 -263.5t-148.5 -264t-274.5 -101z" glyph-name="Thorn.aalt" horiz-adv-x="1036"/><glyph d="M623 1434l20 114h420l-21 -114h-419zM424 428h461l-123 602zM360 313l-174 -313h-131l672 1200h131l248 -1200h-131l-68 313h-547z" glyph-name="Amacron.aalt" horiz-adv-x="1161"/><glyph d="M842 1466q54 0 89.5 34t49.5 83h96q-18 -98 -88.5 -157.5t-174.5 -59.5t-145.5 63.5t-25.5 153.5h96q-4 -51 22.5 -84t80.5 -33zM885 428l-123 602l-338 -602h461zM186 0h-131l672 1200h131l248 -1200h-131l-68 313h-547z" glyph-name="Abreve.aalt" horiz-adv-x="1161"/><glyph d="M1141 1591l-201 -239h-123l172 239h152zM697 -18q-255 0 -391 179t-89 437t244.5 436t452.5 178t395 -182l-101 -84q-118 146 -318 146t-356.5 -143.5t-193.5 -351.5t68.5 -350.5t307.5 -142.5t371 148l72 -86q-207 -184 -462 -184z" glyph-name="Cacute.aalt" horiz-adv-x="1200"/><glyph d="M1171 1352h-122l-99 151l-149 -151h-121l211 239h153zM697 -18q-255 0 -391 179t-89 437t244.5 436t452.5 178t395 -182l-101 -84q-118 146 -318 146t-356.5 -143.5t-193.5 -351.5t68.5 -350.5t307.5 -142.5t371 148l72 -86q-207 -184 -462 -184z" glyph-name="Ccircumflex.aalt" horiz-adv-x="1200"/><glyph d="M945 1589q38 0 60.5 -24.5t15.5 -62.5t-39 -62.5t-70 -24.5t-60 24.5t-16 61.5q8 37 39.5 62.5t69.5 25.5zM697 -18q-255 0 -391 179t-89 437t244.5 436t452.5 178t395 -182l-101 -84q-118 146 -318 146t-356.5 -143.5t-193.5 -351.5t68.5 -350.5t307.5 -142.5t371 148 l72 -86q-207 -184 -462 -184z" glyph-name="Cdotaccent.aalt" horiz-adv-x="1200"/><glyph d="M829 1591l97 -149l151 149h123l-213 -239h-153l-127 239h122zM697 -18q-255 0 -391 179t-89 437t244.5 436t452.5 178t395 -182l-101 -84q-118 146 -318 146t-356.5 -143.5t-193.5 -351.5t68.5 -350.5t307.5 -142.5t371 148l72 -86q-207 -184 -462 -184z" glyph-name="Ccaron.aalt" horiz-adv-x="1200"/><glyph d="M776 1591l98 -149l150 149h123l-213 -239h-154l-127 239h123zM662 123q199 0 327.5 131t167.5 344t-45 346t-281 133h-327l-170 -954h328zM643 0h-450l210 1200h451q248 0 360.5 -170t65.5 -432t-218 -430t-419 -168z" glyph-name="Dcaron.aalt" horiz-adv-x="1294"/><glyph d="M885 428l-123 602l-338 -602h461zM899 -129q47 86 76 129l-68 313h-547l-174 -313h-131l672 1200h131l248 -1200h-51l-74 -154q-16 -31 -11 -61.5t37 -44.5t71.5 11.5t45.5 68.5l97 8q-14 -72 -68.5 -125t-119.5 -59t-108.5 29.5t-47 89t21.5 108.5z" glyph-name="Aogonek.aalt" horiz-adv-x="1161"/><glyph d="M559 1434l21 114h417l-20 -114h-418zM193 0l210 1200h689l-21 -121h-565l-78 -430h496l-23 -121h-495l-72 -407h584l-19 -121h-706z" glyph-name="Emacron.aalt" horiz-adv-x="1015"/><glyph d="M772 1466q53 0 89 34t50 83h99q-18 -98 -90 -157.5t-176 -59.5t-145.5 63.5t-25.5 153.5h97q-4 -51 22.5 -84t79.5 -33zM403 1200h689l-21 -121h-565l-78 -430h496l-23 -121h-495l-72 -407h584l-19 -121h-706z" glyph-name="Ebreve.aalt" horiz-adv-x="1015"/><glyph d="M825 1589q39 0 62.5 -25.5t16.5 -62.5t-39.5 -61.5t-70.5 -24.5t-60.5 24.5t-15.5 62.5t37.5 62.5t69.5 24.5zM403 1200h689l-21 -121h-565l-78 -430h496l-23 -121h-495l-72 -407h584l-19 -121h-706z" glyph-name="Edotaccent.aalt" horiz-adv-x="1015"/><glyph d="M690 1591l98 -149l150 149h123l-213 -239h-154l-125 239h121zM403 1200h689l-21 -121h-565l-78 -430h496l-23 -121h-495l-72 -407h584l-19 -121h-706z" glyph-name="Ecaron.aalt" horiz-adv-x="1015"/><glyph d="M1171 1352h-122l-99 151l-149 -151h-123l213 239h153zM715 -18q-258 0 -401.5 180t-96.5 436t252 435t443 179t378 -141l-102 -86q-112 107 -298 107t-349.5 -144.5t-200.5 -350.5t75.5 -349.5t308.5 -143.5t325 99.5t170 273.5h-349l21 113h485q-53 -301 -228 -454.5 t-433 -153.5z" glyph-name="Gcircumflex.aalt" horiz-adv-x="1355"/><glyph d="M948 1466q106 0 139 117h99q-18 -98 -88 -157.5t-174 -59.5t-147 63.5t-27 153.5h98q-4 -51 22.5 -84t77.5 -33zM715 -18q-258 0 -401.5 180t-96.5 436t252 435t443 179t378 -141l-102 -86q-112 107 -298 107t-349.5 -144.5t-200.5 -350.5t75.5 -349.5t308.5 -143.5 t325 99.5t170 273.5h-349l21 113h485q-53 -301 -228 -454.5t-433 -153.5z" glyph-name="Gbreve.aalt" horiz-adv-x="1355"/><glyph d="M815 0h-622l210 1200h689l-21 -121h-565l-78 -430h496l-23 -121h-495l-72 -407h584l-19 -121l-92 -152q-18 -29 -11.5 -59.5t38.5 -44.5t71 11.5t47 68.5l95 6q-12 -72 -66.5 -124t-122.5 -59t-118 41t-45 103t34 96z" glyph-name="Eogonek.aalt" horiz-adv-x="1015"/><glyph d="M670 123q199 0 327.5 131t167.5 344t-45 346t-282 133h-328l-74 -424h297l-18 -108h-297l-76 -422h328zM651 0h-450l94 545h-170l18 108h170l97 547h450q248 0 361.5 -170t66.5 -432t-218 -430t-419 -168z" glyph-name="Dcroat.aalt" horiz-adv-x="1302"/><glyph d="M972 1589q38 0 61.5 -25.5t16.5 -62.5t-40 -61.5t-71 -24.5t-60.5 24.5t-15.5 62.5t39 62.5t70 24.5zM715 -18q-258 0 -401.5 180t-96.5 436t252 435t443 179t378 -141l-102 -86q-112 107 -298 107t-349.5 -144.5t-200.5 -350.5t75.5 -349.5t308.5 -143.5t325 99.5 t170 273.5h-349l21 113h485q-53 -301 -228 -454.5t-433 -153.5z" glyph-name="Gdotaccent.aalt" horiz-adv-x="1355"/><glyph d="M1120 1352h-121l-96 151l-151 -151h-123l213 239h151zM1171 1200h123l-211 -1200h-122l92 539h-645l-93 -539h-122l210 1200h123l-98 -547h645z" glyph-name="Hcircumflex.aalt" horiz-adv-x="1275"/><glyph d="M483 901l-45 -248h643l45 248h-643zM1303 1200l-37 -213h127l-17 -86h-127l-157 -901h-123l92 537h-643l-92 -537h-123l157 901h-124l16 86h125l37 213h123l-37 -213h643l37 213h123z" glyph-name="Hbar.aalt" horiz-adv-x="1294"/><glyph d="M434.5 1470q-20.5 0 -41 -19t-28.5 -58h-93q23 100 75.5 145t102.5 45t89 -36t60 -36t42 17.5t31 54.5h92q-25 -98 -76 -141t-100 -43t-91 35.5t-62.5 35.5zM403 1200h123l-211 -1200h-122z" glyph-name="Itilde.aalt" horiz-adv-x="507"/><glyph d="M297 1434l20 114h418l-20 -114h-418zM403 1200h123l-211 -1200h-122z" glyph-name="Imacron.aalt" horiz-adv-x="507"/><glyph d="M193 0l210 1200h123l-211 -1200h-57l-61 -154q-31 -82 24 -104q35 -16 74 9.5t47 68.5l94 8q-14 -72 -69 -125t-119 -59t-127.5 44t-5.5 183q4 8 78 129z" glyph-name="Iogonek.aalt" horiz-adv-x="507"/><glyph d="M403 1200h123l-211 -1200h-122zM383 -446q-60 0 -109 14l33 121q39 -14 99 -15q121 0 190.5 73t89.5 190l225 1263h121l-223 -1263q-31 -170 -136.5 -276.5t-289.5 -106.5z" glyph-name="IJ.aalt" horiz-adv-x="1015"/><glyph d="M-121 -446q-57 0 -108 14l32 121q39 -14 99 -15q119 0 188.5 74t89.5 189l226 1263h120l-223 -1263q-31 -170 -136.5 -276.5t-287.5 -106.5zM737 1352h-121l-96 151l-151 -151h-123l213 239h151z" glyph-name="Jcircumflex.aalt" horiz-adv-x="507"/><glyph d="M754 1589l-197 -239h-125l170 239h152zM403 1200h123l-192 -1079h506l-19 -121h-628z" glyph-name="Lacute.aalt" horiz-adv-x="878"/><glyph d="M193 0l210 1200h123l-192 -1079h506l-19 -121h-628zM684 829l-72 23q131 145 162 348h125q-70 -275 -215 -371z" glyph-name="Lcaron.aalt" horiz-adv-x="878"/><glyph d="M193 0l210 1200h123l-192 -1079h506l-19 -121h-628zM663 584q38 0 60 -26t16 -62.5t-37.5 -61t-69.5 -24.5t-60.5 24.5t-16.5 61t38 62.5t70 26z" glyph-name="Ldot.aalt" horiz-adv-x="878"/><glyph d="M1106 1591l-199 -239h-125l174 239h150zM1040 0h-125l-426 987l-174 -987h-122l210 1200h129l422 -981l174 981h123z" glyph-name="Nacute.aalt" horiz-adv-x="1232"/><glyph d="M772 1591l98 -149l150 149h123l-213 -239h-154l-127 239h123zM1040 0h-125l-426 987l-174 -987h-122l210 1200h129l422 -981l174 981h123z" glyph-name="Ncaron.aalt" horiz-adv-x="1232"/><glyph d="M758 1434l20 114h420l-20 -114h-420zM732 104q204 0 369 143.5t202 349.5t-77 350.5t-318 144.5t-367.5 -144.5t-200.5 -350.5t75.5 -349.5t316.5 -143.5zM929 1212q255 0 399.5 -179t97 -435t-254 -436t-460.5 -180t-397.5 180t-96.5 436t252 435t460 179z" glyph-name="Omacron.aalt" horiz-adv-x="1433"/><glyph d="M979 1466q53 0 89 34t50 83h96q-18 -98 -88 -157.5t-172 -59.5t-145 63.5t-29 153.5h97q-4 -51 22.5 -84t79.5 -33zM732 104q204 0 369 143.5t202 349.5t-77 350.5t-318 144.5t-367.5 -144.5t-200.5 -350.5t75.5 -349.5t316.5 -143.5zM929 1212q255 0 399.5 -179t97 -435 t-254 -436t-460.5 -180t-397.5 180t-96.5 436t252 435t460 179z" glyph-name="Obreve.aalt" horiz-adv-x="1433"/><glyph d="M1298 1591l-194 -239h-123l172 239h145zM1067 1591l-170 -239h-129l166 239h133zM732 104q204 0 369 143.5t202 349.5t-77 350.5t-318 144.5t-367.5 -144.5t-200.5 -350.5t75.5 -349.5t316.5 -143.5zM929 1212q255 0 399.5 -179t97 -435t-254 -436t-460.5 -180 t-397.5 180t-96.5 436t252 435t460 179z" glyph-name="Ohungarumlaut.aalt" horiz-adv-x="1433"/><glyph d="M973 1591l-199 -239h-125l174 239h150zM829 1079h-321l-88 -493h313q115 0 181.5 70.5t85 175t-20.5 176t-150 71.5zM852 1200q172 0 234.5 -106.5t35.5 -260.5t-123 -257t-258 -111l248 -465h-151l-246 465h-193l-82 -465h-124l210 1200h449z" glyph-name="Racute.aalt" horiz-adv-x="1101"/><glyph d="M709 1591l98 -149l149 149h123l-213 -239h-153l-127 239h123zM829 1079h-321l-88 -493h313q115 0 181.5 70.5t85 175t-20.5 176t-150 71.5zM852 1200q172 0 234.5 -106.5t35.5 -260.5t-123 -257t-258 -111l248 -465h-151l-246 465h-193l-82 -465h-124l210 1200h449z" glyph-name="Rcaron.aalt" horiz-adv-x="1101"/><glyph d="M983 1591l-201 -239h-123l172 239h152zM534 104q120 0 204.5 57.5t109.5 135.5q63 188 -178 248l-152 37q-276 68 -233 303q25 143 154.5 235t287.5 92t248 -94t63 -250h-123q18 100 -43.5 162t-167.5 62t-193 -58.5t-103 -148.5q-25 -145 155 -187l156 -36 q154 -37 225.5 -132.5t20.5 -253.5q-45 -121 -164 -207.5t-290 -86.5t-264 111.5t-69 250.5h123q-16 -92 48.5 -166t184.5 -74z" glyph-name="Sacute.aalt" horiz-adv-x="1032"/><glyph d="M1004 1352h-123l-97 151l-151 -151h-123l213 239h154zM534 104q120 0 204.5 57.5t109.5 135.5q63 188 -178 248l-152 37q-276 68 -233 303q25 143 154.5 235t287.5 92t248 -94t63 -250h-123q18 100 -43.5 162t-167.5 62t-193 -58.5t-103 -148.5q-25 -145 155 -187 l156 -36q154 -37 225.5 -132.5t20.5 -253.5q-45 -121 -164 -207.5t-290 -86.5t-264 111.5t-69 250.5h123q-16 -92 48.5 -166t184.5 -74z" glyph-name="Scircumflex.aalt" horiz-adv-x="1032"/><glyph d="M534 104q120 0 205.5 57.5t115.5 146.5t-23.5 149.5t-159.5 87.5l-154 37q-274 66 -231 303q25 143 154.5 235t287.5 92t248 -94t63 -250h-122q18 100 -44 162t-168 62t-193 -58.5t-103 -148.5q-25 -145 155 -187l156 -36q154 -37 225.5 -132.5t20.5 -253.5 q-37 -100 -129.5 -180t-221.5 -102l29 -111q6 -6 2 -12q10 -68 -30.5 -131.5t-120.5 -87.5t-141.5 27t-43.5 149l92 -8q-8 -43 23 -68.5t68 -11.5t54 45t11 61l-27 136h-12q-176 0 -271.5 109.5t-68.5 252.5h123q-16 -92 47.5 -166t183.5 -74z" glyph-name="Scedilla.c2sc" horiz-adv-x="1036"/><glyph d="M625 104q127 0 230 84t128 220l139 792h125l-141 -792q-33 -188 -178.5 -307t-324.5 -119t-281.5 118.5t-69.5 307.5l141 792h121l-139 -792q-25 -135 49 -219.5t201 -84.5zM778.5 1440q-20.5 0 -42 -19.5t-27.5 -58.5h-93q23 100 73.5 145t100.5 45t91 -36.5t62 -36.5 t43 17t28 56h92q-25 -100 -75 -143t-100 -43t-91 37t-61.5 37z" glyph-name="Utilde.aalt" horiz-adv-x="1214"/><glyph d="M625 104q127 0 230 84t128 220l139 792h125l-141 -792q-33 -188 -178.5 -307t-324.5 -119t-281.5 118.5t-69.5 307.5l141 792h121l-139 -792q-25 -135 49 -219.5t201 -84.5zM657 1434l21 114h420l-21 -114h-420z" glyph-name="Umacron.aalt" horiz-adv-x="1214"/><glyph d="M625 104q127 0 230 84t128 220l139 792h125l-141 -792q-33 -188 -178.5 -307t-324.5 -119t-282.5 118.5t-68.5 307.5l139 792h123l-139 -792q-25 -135 49 -219.5t201 -84.5zM868 1466q53 0 89 34t51 83h98q-18 -98 -88 -157.5t-173 -59.5t-146 63.5t-29 153.5h98 q-4 -51 21.5 -84t78.5 -33z" glyph-name="Ubreve.aalt" horiz-adv-x="1214"/><glyph d="M625 104q127 0 230 84t128 220l139 792h125l-141 -792q-33 -188 -178.5 -307t-324.5 -119t-282.5 118.5t-68.5 307.5l139 792h123l-139 -792q-25 -135 49 -219.5t201 -84.5zM905.5 1692q71.5 0 113.5 -51t28 -123t-73 -121t-130.5 -49t-112 49t-26.5 122t71.5 123t129 50 zM860 1440q35 0 62.5 23.5t34 56t-12 56t-53.5 23.5t-62.5 -23.5t-34 -56t12 -56t53.5 -23.5z" glyph-name="Uring.aalt" horiz-adv-x="1214"/><glyph d="M625 104q127 0 230 84t128 220l139 792h125l-141 -792q-33 -188 -178.5 -307t-324.5 -119t-282.5 118.5t-68.5 307.5l139 792h123l-139 -792q-25 -135 49 -219.5t201 -84.5zM1174 1591l-195 -239h-123l170 239h148zM942 1591l-170 -239h-129l166 239h133z" glyph-name="Uhungarumlaut.aalt" horiz-adv-x="1214"/><glyph d="M625 104q127 0 230 84t128 220l139 792h125l-141 -792q-31 -172 -154 -286t-282 -134l-80 -142q-18 -29 -13 -59.5t33 -44.5q37 -16 71 8.5t50 69.5l98 8q-14 -72 -68 -124t-123 -59t-136 58.5t8 179.5l70 101q-170 8 -265.5 124.5t-62.5 299.5l141 792h121l-139 -792 q-25 -135 49 -219.5t201 -84.5z" glyph-name="Uogonek.aalt" horiz-adv-x="1214"/><glyph d="M1298 1352h-122l-99 151l-149 -151h-123l213 239h153zM1139 195l506 1005h131l-617 -1200h-115l-92 795l-370 -795h-115l-195 1200h131l154 -1005l391 845h94z" glyph-name="Wcircumflex.aalt" horiz-adv-x="1626"/><glyph d="M719 557l-96 -557h-127l96 557l-336 643h147l277 -512l463 512h147zM1047 1352h-123l-99 151l-149 -151h-123l213 239h154z" glyph-name="Ycircumflex.aalt" horiz-adv-x="1118"/><glyph d="M657 1591l97 -149l151 149h123l-213 -239h-153l-127 239h122zM561 0h-123l189 1077h-381l22 123h887l-22 -123h-383z" glyph-name="Tcaron.aalt" horiz-adv-x="1001"/><glyph d="M750 1077l-66 -372h231l-14 -84h-231l-109 -621h-123l109 621h-228l15 84h227l66 372h-381l22 123h887l-22 -123h-383z" glyph-name="Tbar.aalt" horiz-adv-x="999"/><glyph d="M113 119l839 958h-645l23 123h796l-20 -121l-844 -956h672l-19 -123h-821zM967 1591l-201 -239h-123l172 239h152z" glyph-name="Zacute.aalt" horiz-adv-x="1019"/><glyph d="M113 119l839 958h-645l23 123h796l-20 -121l-844 -956h672l-19 -123h-821zM784 1589q39 0 62.5 -25.5t16.5 -62.5t-39.5 -61.5t-70.5 -24.5t-59.5 24.5t-14.5 62.5t36.5 62.5t68.5 24.5z" glyph-name="Zdotaccent.aalt" horiz-adv-x="1019"/><glyph d="M1104 1352h-125l-113 239h152zM1139 195l506 1005h131l-617 -1200h-115l-92 795l-370 -795h-115l-195 1200h131l154 -1005l391 845h94z" glyph-name="Wgrave.aalt" horiz-adv-x="1626"/><glyph d="M1329 1591l-201 -239h-122l172 239h151zM1645 1200h131l-617 -1200h-115l-92 795l-370 -795h-115l-195 1200h131l154 -1005l391 845h94l97 -845z" glyph-name="Wacute.aalt" horiz-adv-x="1626"/><glyph d="M939 1585q38 0 59.5 -23.5t15.5 -61.5t-37 -62.5t-70 -24.5t-60.5 23.5t-15.5 61.5t38 62.5t70 24.5zM1245 1585q39 0 60.5 -23.5t15.5 -61.5t-38 -62.5t-70.5 -24.5t-60 23.5t-15.5 61.5t37.5 62.5t70.5 24.5zM1645 1200h131l-617 -1200h-115l-92 795l-370 -795h-115 l-195 1200h131l154 -1005l391 845h94l97 -845z" glyph-name="Wdieresis.aalt" horiz-adv-x="1626"/><glyph d="M813 1348q-70 0 -110.5 49t-28.5 113t51 108.5t94 60.5l152 211h149l-180 -215q45 -23 64.5 -71t4.5 -110t-70.5 -104t-125.5 -42zM833 1438q34 0 61.5 22.5t33.5 57t-13.5 58t-53.5 23.5t-60.5 -23.5t-32.5 -58t12.5 -57t52.5 -22.5zM885 428l-123 602l-338 -602h461z M186 0h-131l672 1200h131l248 -1200h-131l-68 313h-547z" glyph-name="Aringacute.aalt" horiz-adv-x="1161"/><glyph d="M1409 1591l-199 -239h-125l175 239h149zM530 428h406l113 637zM438 313l-252 -313h-145l969 1200h751l-22 -123h-565l-76 -428h493l-20 -123h-494l-73 -403h583l-18 -123h-707l53 313h-477z" glyph-name="AEacute.aalt" horiz-adv-x="1685"/><glyph d="M1192 1591l-199 -239h-125l172 239h152zM748 104q188 0 352 143.5t200 350.5q31 172 -49 311l-802 -698q111 -107 299 -107zM890 1092q-188 0 -351.5 -145t-198.5 -339t51 -329l805 698q-118 115 -306 115zM917 1212q245 0 379 -147l177 154l57 -68l-178 -156 q112 -165 68 -409t-249.5 -424t-443.5 -180t-383 141l-162 -143l-57 67l166 143q-117 178 -73 421t249 422t450 179z" glyph-name="Oslashacute.aalt" horiz-adv-x="1431"/><glyph d="M516 1466q53 0 89 34t50 83h99q-18 -98 -89 -157.5t-175 -59.5t-146.5 63.5t-26.5 153.5h97q-2 -51 23.5 -84t78.5 -33zM526 1200l-211 -1200h-122l210 1200h123z" glyph-name="Ibreve.aalt" horiz-adv-x="507"/><glyph d="M628 -446q-79 0 -136 16l30 121q33 -12 96 -13q123 0 193.5 72t93.5 187l10 65l-426 983l-174 -985h-122l210 1200h129l420 -989l176 989h123l-213 -1198q-60 -329 -195.5 -388.5t-214.5 -59.5z" glyph-name="Eng.aalt" horiz-adv-x="1232"/><glyph d="M719 557l-96 -557h-127l96 557l-336 643h147l277 -512l463 512h147zM766 1321l-115 240h150l90 -240h-125z" glyph-name="Ygrave.aalt" horiz-adv-x="1118"/><glyph d="M715 -18q-258 0 -401.5 180t-96.5 436t252 435t443 179t378 -141l-102 -86q-112 107 -298 107t-349.5 -144.5t-200.5 -350.5t75.5 -349.5t308.5 -143.5t325 99.5t170 273.5h-349l21 113h485q-53 -301 -228 -454.5t-433 -153.5zM565 -430l-84 24q125 135 127 297h137 q-33 -215 -180 -321z" glyph-name="Gcommaaccent.aalt" horiz-adv-x="1355"/><glyph d="M543 600l463 -600h-166l-428 555l-97 -555h-122l210 1200h123l-100 -573l543 573h145zM453 -430l-86 24q127 133 129 297h137q-35 -217 -180 -321z" glyph-name="Kcommaaccent.aalt" horiz-adv-x="1017"/><glyph d="M193 0l210 1200h123l-192 -1079h506l-19 -121h-628zM369 -430l-86 24q127 133 129 297h137q-35 -217 -180 -321z" glyph-name="Lcommaaccent.aalt" horiz-adv-x="878"/><glyph d="M1251 1200l-211 -1200h-125l-426 987l-174 -987h-122l210 1200h129l422 -981l174 981h123zM502 -430l-86 24q127 133 129 297h137q-35 -217 -180 -321z" glyph-name="Ncommaaccent.aalt" horiz-adv-x="1232"/><glyph d="M829 1079h-321l-88 -493h313q115 0 181.5 70.5t85 175t-20.5 176t-150 71.5zM852 1200q172 0 234.5 -106.5t35.5 -260.5t-123 -257t-258 -111l248 -465h-151l-246 465h-193l-82 -465h-124l210 1200h449zM434 -430l-86 24q127 133 129 297h137q-35 -217 -180 -321z" glyph-name="Rcommaaccent.aalt" horiz-adv-x="1101"/><glyph d="M246 1077l22 123h885l-23 -123h-380l-189 -1077h-123l189 1077h-381zM377 -430l-84 24q125 135 127 297h137q-33 -215 -180 -321z" glyph-name="Tcommaaccent.aalt" horiz-adv-x="999"/><glyph d="M532 96q120 0 204.5 60.5t111.5 140.5q63 188 -178 248l-152 37q-276 68 -233 303q25 143 154.5 235t287.5 92t248 -94t63 -250h-123q18 100 -43.5 162t-167.5 62t-193 -58.5t-103 -148.5q-25 -145 155 -187l156 -36q154 -37 225.5 -132.5t20.5 -253.5 q-45 -121 -164 -207.5t-290 -86.5t-264 111.5t-69 250.5h123q-16 -94 47.5 -171t183.5 -77zM391 -430l-84 24q125 135 127 297h137q-33 -217 -180 -321z" glyph-name="Scommaaccent.aalt" horiz-adv-x="1032"/><glyph d="M532.5 1589q38.5 0 62 -25.5t16.5 -62.5t-38.5 -61.5t-70.5 -24.5t-60.5 24.5t-14.5 62.5t37 62.5t68.5 24.5zM526 1200l-211 -1200h-122l210 1200h123z" glyph-name="Idotaccent.aalt" horiz-adv-x="507"/><glyph d="M487.5 651q186.5 0 240.5 308t-132.5 308t-240.5 -308t132.5 -308zM614 1368q160 0 204 -109t10 -299t-115.5 -298.5t-241.5 -108.5q-289 -1 -216 407t359 408z" glyph-name="zero.numr" horiz-adv-x="747"/><glyph d="M393 559h-108l118 666l-141 -47l21 104l254 88z" glyph-name="one.numr" horiz-adv-x="411"/><glyph d="M547 1264q-59 0 -109.5 -35t-68.5 -92l-95 24q31 96 112 153.5t182 57.5t162.5 -66.5t41.5 -171.5t-123 -206q-61 -57 -266 -260h307l-18 -109h-494l8 49l394 393q72 71 82 131t-23 96t-92 36z" glyph-name="two.numr" horiz-adv-x="661"/><glyph d="M485 936h-90l17 104h90q45 0 80.5 27t49.5 73t-9 81.5t-76 42.5q-88 8 -158 -72l-65 63q43 57 111.5 90t152.5 28t136 -70.5t30 -161.5t-121 -150q55 -20 80.5 -84.5t9.5 -130.5q-27 -102 -126 -168.5t-193 -59.5t-149.5 52t-74.5 115q23 14 101 51q10 -43 48 -72.5 t87 -36.5q68 -4 127 35.5t73 97.5t-25.5 102t-105.5 44z" glyph-name="three.numr" horiz-adv-x="667"/><glyph d="M662 1165l-293 -338h231zM809 725h-117l-28 -166h-109l29 166h-418l559 637h82l-98 -535h116z" glyph-name="four.numr" horiz-adv-x="741"/><glyph d="M460 655q70 0 131.5 46.5t74 116t-30.5 107.5t-105 38t-113.5 -14.5t-146.5 -59.5l-20 24l162 449h407l-20 -105h-318l-80 -219q78 33 148 33q115 0 181 -66.5t44 -188.5t-119.5 -195.5t-230.5 -73.5q-82 0 -145.5 50t-90.5 132l101 64q12 -59 56.5 -98.5t114.5 -39.5z " glyph-name="five.numr" horiz-adv-x="696"/><glyph d="M601 1274q-87 0 -154.5 -84t-75.5 -211q53 102 171 102t177 -83t36.5 -191.5t-114.5 -183t-198.5 -70.5t-163 76.5t-46.5 197.5q36 288 102 380.5t133 130.5t153 38q163 -8 200 -153l-102 -41q-31 92 -118 92zM414 933q-56 -44 -69 -110t22 -111.5t99 -48.5t115.5 39.5 t67.5 108.5q14 66 -18.5 112t-96.5 50t-120 -40z" glyph-name="six.numr" horiz-adv-x="692"/><glyph d="M319 1362h553l-581 -803h-127l506 694h-369z" glyph-name="seven.numr" horiz-adv-x="651"/><glyph d="M575.5 1264q-45.5 0 -81 -28t-43.5 -70t16.5 -74.5t70.5 -31.5t81.5 33.5t44 73.5t-17 69t-71 28zM467 655q72 0 128 45t66.5 108.5t-29.5 111t-111.5 47.5t-128 -47.5t-67 -111t29.5 -108.5t112 -45zM595 1372q91 0 142 -59.5t36 -144.5t-87 -142q109 -78 84 -217 q-20 -109 -113.5 -184.5t-211.5 -75.5t-183 75.5t-45 184.5q25 141 162 217q-51 51 -35 139t88 147.5t163 59.5z" glyph-name="eight.numr" horiz-adv-x="704"/><glyph d="M429 649q87 0 154.5 84t71.5 211q-45 -102 -182 -102q-109 0 -167 83t-34 193t115 183t199 69t164.5 -77t45.5 -175t-22.5 -162.5t-40 -142.5t-67.5 -136t-105.5 -92t-152.5 -38q-162 8 -201 153l102 41q33 -92 120 -92zM686 1100q10 68 -26 112t-98 48t-114.5 -39 t-66.5 -108.5t17.5 -113t96.5 -50.5t121 41t70 110z" glyph-name="nine.numr" horiz-adv-x="692"/><glyph d="M387.5 92q186.5 0 240.5 308t-134 309q-185 -1 -239 -309t132.5 -308zM514 809q160 0 204 -109.5t10 -299.5t-116 -298t-241 -108q-289 -1 -216 407t359 408z" glyph-name="zero.dnom" horiz-adv-x="745"/><glyph d="M297 0h-109l119 666l-141 -48l18 105l256 88z" glyph-name="one.dnom" horiz-adv-x="413"/><glyph d="M446 705q-60 0 -108.5 -35t-67.5 -92l-96 24q33 96 114 153.5t182 57.5t161.5 -66.5t42 -171t-113.5 -195.5t-275 -271h307l-19 -109h-493l8 49l393 393q74 74 83 132t-24.5 94.5t-93.5 36.5z" glyph-name="two.dnom" horiz-adv-x="659"/><glyph d="M385 377h-90l16 104h90q45 0 82 26.5t51 72.5t-9 82t-79 43q-86 8 -155 -72q-48 48 -66 63q43 57 112 90t151 28t134 -70.5t34 -160.5t-121 -151q55 -20 80.5 -84.5t9.5 -130.5q-27 -102 -126.5 -168.5t-193.5 -59.5t-149.5 52t-73.5 115q10 6 19 10l81 41q10 -43 48 -73 t96 -35t118 34t74 97t-26.5 102.5t-106.5 44.5z" glyph-name="three.dnom" horiz-adv-x="667"/><glyph d="M553 606l-291 -338h232zM702 166h-116l-29 -166h-108l28 166h-418l559 637h82l-98 -535h117z" glyph-name="four.dnom" horiz-adv-x="731"/><glyph d="M360 96q70 0 131.5 46t74 116t-29.5 107.5t-104 37.5t-114 -14t-146 -59l-22 24l163 449h408l-21 -105h-317l-82 -219q80 33 150 33q115 0 180 -66.5t44 -188.5t-118.5 -195.5t-230.5 -73.5q-82 0 -145.5 50t-90.5 132l100 63q12 -59 56 -98t114 -39z" glyph-name="five.dnom" horiz-adv-x="698"/><glyph d="M502 715q-88 0 -155.5 -84t-74.5 -211q49 102 185 102q106 0 163.5 -83t34.5 -193t-113.5 -183t-197 -69t-163 76t-47.5 174t21.5 164.5t41 143.5t67.5 135t105.5 92t152.5 38q164 -8 201 -153l-102 -41q-31 92 -119 92zM316 374q-56 -44 -69 -110t22 -112t99 -49 t115.5 40t67.5 109q14 66 -18.5 112t-96.5 50t-120 -40z" glyph-name="six.dnom" horiz-adv-x="692"/><glyph d="M219 803h553l-582 -803h-127l506 694h-368z" glyph-name="seven.dnom" horiz-adv-x="655"/><glyph d="M475 705q-45 0 -80 -28t-43 -70t16.5 -74.5t70.5 -31.5t82 33.5t44 73.5t-18.5 69t-71.5 28zM366.5 96q71.5 0 128 45t66.5 108.5t-28.5 111t-110.5 47.5t-129 -47.5t-67.5 -111t29.5 -108.5t111.5 -45zM494 813q92 0 143 -59.5t37 -144.5t-86 -142q106 -78 82 -217 q-20 -109 -112.5 -184.5t-210.5 -75.5t-184.5 75.5t-45.5 184.5q25 139 164 217q-51 51 -36 139t86 147.5t163 59.5z" glyph-name="eight.dnom" horiz-adv-x="704"/><glyph d="M330 90q88 0 155.5 84t71.5 211q-45 -102 -182 -102q-109 0 -167 82.5t-34 192.5t115.5 183.5t198.5 69.5t162.5 -76.5t45.5 -174.5t-21 -163t-40 -143t-68 -136.5t-105.5 -92t-152.5 -37.5q-164 8 -203 153l105 41q31 -92 119 -92zM588 541q10 68 -26 112.5t-99 47.5 t-114.5 -40t-66 -108.5t17.5 -112.5t95.5 -49t120 41t72.5 109z" glyph-name="nine.dnom" horiz-adv-x="692"/><glyph d="M487 0q-338 0 -264 408l191 1067h137l-191 -1067q-10 -68 -14 -129.5t36 -105.5t124 -44h82l-19 -129h-82z" glyph-name="l.salt" horiz-adv-x="550"/><glyph d="M459 113q100 0 217 46t186 134l15 82q-160 59 -308 59q-262 0 -295 -166q-12 -68 36.5 -111.5t148.5 -43.5zM652 842q-152 0 -292 -123l-73 94q152 164 413 164q205 0 296 -101.5t59 -295.5l-103 -580h-137l21 133q-74 -72 -189 -112.5t-211 -40.5q-162 0 -245 76.5 t-59 209.5t137.5 214t322.5 81q123 0 307 -63l19 82q18 121 -48 191.5t-218 70.5z" glyph-name="a.salt" horiz-adv-x="1105"/><glyph d="M55 -475q-43 0 -88 12l23 121q55 -10 84 -10q100 0 162.5 54t140.5 183l67 115l-229 956h145l187 -786l467 786h145l-665 -1122q-102 -166 -199.5 -237.5t-239.5 -71.5z" glyph-name="y.salt" horiz-adv-x="1040"/><glyph d="M504 0q-336 0 -262 408l49 268l-160 -90l21 121l157 90l121 678h137l-106 -590l194 110l-22 -121l-193 -110l-61 -356q-10 -68 -14.5 -129.5t35.5 -105.5t124 -44h82l-20 -129h-82z" glyph-name="lslash.salt" horiz-adv-x="569"/><glyph d="M799 1866l-221 -275h-140l193 275h168zM487 0q-338 0 -264 408l191 1067h137l-191 -1067q-10 -68 -14 -129.5t36 -105.5t124 -44h82l-19 -129h-82z" glyph-name="lacute.salt" horiz-adv-x="550"/><glyph d="M287 -506l-92 27q147 164 149 348h156q-47 -252 -213 -375zM487 0q-338 0 -264 408l191 1067h137l-191 -1067q-10 -68 -14 -129.5t36 -105.5t124 -44h82l-19 -129h-82z" glyph-name="lcommaaccent.salt" horiz-adv-x="550"/><glyph d="M655 991l-92 27q154 174 191 409h155q-39 -154 -110.5 -270.5t-143.5 -165.5zM487 0q-338 0 -264 408l191 1067h137l-191 -1067q-10 -68 -14 -129.5t36 -105.5t124 -44h82l-19 -129h-82z" glyph-name="lcaron.salt" horiz-adv-x="550"/><glyph d="M1034 1411l-221 -274h-139l192 274h168zM459 113q100 0 217 46t186 134l15 82q-160 59 -308 59q-262 0 -295 -166q-12 -68 36.5 -111.5t148.5 -43.5zM652 842q-152 0 -292 -123l-73 94q152 164 413 164q205 0 296 -101.5t59 -295.5l-103 -580h-137l21 133 q-74 -72 -189 -112.5t-211 -40.5q-162 0 -245 76.5t-59 209.5t137.5 214t322.5 81q121 0 309 -63l14 82q23 121 -44 191.5t-219 70.5z" glyph-name="aacute.salt" horiz-adv-x="1105"/><glyph d="M682 1137l-123 274h168l94 -274h-139zM459 113q100 0 217 46t186 134l15 82q-160 59 -308 59q-262 0 -295 -166q-12 -68 36.5 -111.5t148.5 -43.5zM652 842q-152 0 -292 -123l-73 94q152 164 413 164q205 0 296 -101.5t59 -295.5l-103 -580h-137l21 133 q-74 -72 -189 -112.5t-211 -40.5q-162 0 -245 76.5t-59 209.5t137.5 214t322.5 81q121 0 309 -63l14 82q23 121 -44 191.5t-219 70.5z" glyph-name="agrave.salt" horiz-adv-x="1105"/><glyph d="M881 1137l-113 176l-176 -176h-139l243 274h178l146 -274h-139zM459 113q100 0 217 46t186 134l15 82q-160 59 -308 59q-262 0 -295 -166q-12 -68 36.5 -111.5t148.5 -43.5zM652 842q-152 0 -292 -123l-73 94q152 164 413 164q205 0 296 -101.5t59 -295.5l-103 -580h-137 l21 133q-74 -72 -189 -112.5t-211 -40.5q-162 0 -245 76.5t-59 209.5t137.5 214t322.5 81q121 0 309 -63l14 82q23 121 -44 191.5t-219 70.5z" glyph-name="acircumflex.salt" horiz-adv-x="1105"/><glyph d="M600 1411q43 0 69.5 -27.5t18.5 -70.5t-44 -71t-79 -28t-68.5 28t-17.5 71t43 70.5t78 27.5zM963 1411q43 0 69.5 -27.5t18 -70.5t-44 -71t-78.5 -28t-68.5 28t-17.5 71t43 70.5t78 27.5zM459 113q100 0 217 46t186 134l15 82q-160 59 -308 59q-262 0 -295 -166 q-12 -68 36.5 -111.5t148.5 -43.5zM652 842q-152 0 -292 -123l-73 94q152 164 413 164q205 0 296 -101.5t59 -295.5l-103 -580h-137l21 133q-74 -72 -189 -112.5t-211 -40.5q-162 0 -245 76.5t-59 209.5t137.5 214t322.5 81q121 0 309 -63l14 82q23 121 -44 191.5t-219 70.5 z" glyph-name="adieresis.salt" horiz-adv-x="1105"/><glyph d="M689 1282q-26 0 -52.5 -23.5t-36.5 -68.5h-104q27 115 86.5 168t117.5 53t105 -43t73 -43t51 20.5t36 65.5h104q-27 -115 -85 -165t-116 -50t-105.5 43t-73.5 43zM457 113q100 0 217 46t186 134l14 82q-160 59 -307 59q-262 0 -295 -166q-12 -68 36.5 -111.5t148.5 -43.5 zM650 842q-152 0 -292 -123l-73 94q152 164 413 164q205 0 296 -101.5t59 -295.5l-103 -580h-137l21 133q-74 -72 -189 -112.5t-211 -40.5q-162 0 -245 76.5t-59 209.5t137.5 214t322.5 81q121 0 309 -63l14 82q23 121 -44 191.5t-219 70.5z" glyph-name="atilde.salt" horiz-adv-x="1103"/><glyph d="M808 1534q83 0 131 -58.5t31.5 -142.5t-84 -140t-151.5 -56t-130 57t-31 140t83 141.5t151 58.5zM758 1243q39 0 70.5 26.5t37.5 65.5t-15.5 65.5t-60 26.5t-70.5 -26.5t-38 -66.5t15.5 -65.5t60.5 -25.5zM459 113q100 0 217 46t186 134l15 82q-160 59 -308 59 q-262 0 -295 -166q-12 -68 36.5 -111.5t148.5 -43.5zM652 842q-152 0 -292 -123l-73 94q152 164 413 164q205 0 296 -101.5t59 -295.5l-103 -580h-137l21 133q-74 -72 -189 -112.5t-211 -40.5q-162 0 -245 76.5t-59 209.5t137.5 214t322.5 81q121 0 309 -63l14 82 q23 121 -44 191.5t-219 70.5z" glyph-name="aring.salt" horiz-adv-x="1105"/><glyph d="M532 1370h488l-25 -129h-487zM457 113q100 0 217 46t186 134l14 82q-160 59 -307 59q-262 0 -295 -166q-12 -68 36.5 -111.5t148.5 -43.5zM650 842q-152 0 -292 -123l-73 94q152 164 413 164q205 0 296 -101.5t59 -295.5l-103 -580h-137l21 133q-74 -72 -189 -112.5 t-211 -40.5q-162 0 -245 76.5t-59 209.5t137.5 214t322.5 81q121 0 309 -63l14 82q23 121 -44 191.5t-219 70.5z" glyph-name="amacron.salt" horiz-adv-x="1103"/><glyph d="M770 1270q64 0 108 41t60 100h106q-20 -115 -102 -185.5t-203 -70.5t-169.5 73.5t-32.5 182.5h106q-2 -63 30.5 -102t96.5 -39zM459 113q100 0 217 46t186 134l15 82q-160 59 -308 59q-262 0 -295 -166q-12 -68 36.5 -111.5t148.5 -43.5zM652 842q-152 0 -292 -123 l-73 94q152 164 413 164q205 0 296 -101.5t59 -295.5l-103 -580h-137l21 133q-74 -72 -189 -112.5t-211 -40.5q-162 0 -245 76.5t-59 209.5t137.5 214t322.5 81q121 0 309 -63l14 82q23 121 -44 191.5t-219 70.5z" glyph-name="abreve.salt" horiz-adv-x="1105"/><glyph d="M650 842q-152 0 -292 -123l-73 94q152 164 413 164q205 0 296 -101.5t59 -295.5l-103 -580h-47l-72 -182q-16 -37 -10 -73t39 -51t82.5 6t63.5 85l108 8q-2 -37 -33 -88q-47 -78 -127 -108.5t-150 1.5t-84.5 107.5t25.5 155.5l68 139l21 133q-74 -72 -189 -112.5 t-211 -40.5q-162 0 -245 76.5t-59 209.5t137.5 214t322.5 81q121 0 309 -63l14 82q23 121 -44 191.5t-219 70.5zM457 113q100 0 217 46t186 134l14 82q-160 59 -307 59q-262 0 -295 -166q-12 -68 36.5 -111.5t148.5 -43.5z" glyph-name="aogonek.salt" horiz-adv-x="1103"/><glyph d="M1024 1411l-221 -274h-139l192 274h168zM55 -475q-43 0 -88 12l23 121q55 -10 84 -10q100 0 162.5 54t140.5 183l67 115l-229 956h145l187 -786l467 786h145l-665 -1122q-102 -166 -199.5 -237.5t-239.5 -71.5z" glyph-name="yacute.salt" horiz-adv-x="1040"/><glyph d="M600 1411q43 0 69.5 -27.5t18.5 -70.5t-43 -71t-78 -28t-69.5 28t-18.5 71t43 70.5t78 27.5zM963 1411q43 0 69.5 -27.5t18 -70.5t-43 -71t-77.5 -28t-69.5 28t-18.5 71t43 70.5t78 27.5zM55 -475q-43 0 -88 12l23 121q55 -10 84 -10q100 0 162.5 54t140.5 183l67 115 l-229 956h145l187 -786l467 786h145l-665 -1122q-102 -166 -199.5 -237.5t-239.5 -71.5z" glyph-name="ydieresis.salt" horiz-adv-x="1040"/><glyph d="M1444 842q-133 0 -241.5 -81t-153.5 -216h673q4 137 -70.5 217t-207.5 80zM459 113q100 0 217 46t186 134l15 82q-160 59 -308 59q-262 0 -295 -166q-12 -68 36.5 -111.5t148.5 -43.5zM1317 115q205 0 328 166q38 -11 131 -31q-80 -127 -209 -198.5t-275 -71.5 q-217 0 -321 139l-19 -119h-137l21 133q-74 -72 -189 -112.5t-211 -40.5q-162 0 -245 76.5t-59 209.5t137.5 214t322.5 81q121 0 309 -63l14 82q23 121 -44 191.5t-219 70.5t-292 -123l-73 94q152 163 425 163t332 -188q176 188 424 189q207 0 313.5 -135t67.5 -361 q0 -33 -12 -63h-811q-4 -139 76 -221t215 -82z" glyph-name="ae.salt" horiz-adv-x="1855"/><glyph d="M1409 1411l-221 -274h-139l192 274h168zM1442 842q-133 0 -241.5 -81t-153.5 -216h673q4 137 -70.5 217t-207.5 80zM457 113q100 0 217 46t186 134l14 82q-160 59 -307 59q-262 0 -295 -166q-12 -68 36.5 -111.5t148.5 -43.5zM1315 115q205 0 327 166q36 -11 132 -31 q-80 -127 -209 -198.5t-275 -71.5q-217 0 -321 139l-19 -119h-137l21 133q-74 -72 -189 -112.5t-211 -40.5q-162 0 -245 76.5t-59 209.5t137.5 214t322.5 81q121 0 309 -63l14 82q23 121 -44 191.5t-219 70.5t-292 -123l-73 94q152 163 425 163t332 -188q176 188 424 189 q207 0 313.5 -135t67.5 -361q0 -33 -12 -63h-811q-4 -139 76 -221t215 -82z" glyph-name="aeacute.salt" horiz-adv-x="1853"/><glyph d="M866 1137l-112 176l-176 -176h-140l244 274h178l146 -274h-140zM55 -475q-43 0 -88 12l23 121q55 -10 84 -10q100 0 162.5 54t140.5 183l67 115l-229 956h145l187 -786l467 786h145l-665 -1122q-102 -166 -199.5 -237.5t-239.5 -71.5z" glyph-name="ycircumflex.salt" horiz-adv-x="1040"/><glyph d="M627 645q47 0 74.5 -30.5t19.5 -75.5t-46 -76t-85 -31t-75 31t-19.5 76t46.5 75.5t85 30.5zM487 0q-338 0 -264 408l191 1067h137l-191 -1067q-10 -68 -14 -129.5t36 -105.5t124 -44h82l-19 -129h-82z" glyph-name="ldot.salt" horiz-adv-x="608"/><glyph d="M571 0q-182 0 -243.5 86t-28.5 264l84 484h-172l22 122h173l45 256l143 39l-51 -295h202l-22 -122h-203l-84 -484q-23 -113 4 -167t152 -54h41l-21 -129h-41z" glyph-name="t.salt" horiz-adv-x="673"/><glyph d="M731 1073l-92 27q143 164 145 327h156q-37 -231 -209 -354zM571 0q-182 0 -243.5 86t-28.5 264l84 484h-172l22 122h173l45 256l143 39l-51 -295h202l-22 -122h-203l-84 -484q-23 -113 4 -167t152 -54h41l-21 -129h-41z" glyph-name="tcaron.salt" horiz-adv-x="673"/><glyph d="M575 0q-182 0 -242.5 85t-29.5 265l23 133h-150l17 95h149l45 256h-172l23 122h172l45 256l143 39l-51 -295h203l-23 -122h-203l-45 -256h166l-16 -95h-166l-23 -133q-23 -113 4 -167t152 -54h41l-21 -129h-41z" glyph-name="tbar.salt" horiz-adv-x="677"/><glyph d="M352 -506l-92 27q147 164 150 348h155q-43 -254 -213 -375zM571 0q-182 0 -243.5 86t-28.5 264l84 484h-172l22 122h173l45 256l143 39l-51 -295h202l-22 -122h-203l-84 -484q-23 -113 4 -167t152 -54h41l-21 -129h-41z" glyph-name="tcommaaccent.salt" horiz-adv-x="673"/><glyph d="M246 1077l22 123h885l-23 -123h-380l-189 -1077h-123l189 1077h-381z" glyph-name="t.salt.sc" horiz-adv-x="999"/><glyph d="M657 1591l97 -149l151 149h123l-213 -239h-153l-127 239h122zM561 0h-123l189 1077h-381l22 123h887l-22 -123h-383z" glyph-name="tcaron.salt.sc" horiz-adv-x="1001"/><glyph d="M750 1077l-66 -372h231l-14 -84h-231l-109 -621h-123l109 621h-228l15 84h227l66 372h-381l22 123h887l-22 -123h-383z" glyph-name="tbar.salt.sc" horiz-adv-x="999"/><glyph d="M246 1077l22 123h885l-23 -123h-380l-189 -1077h-123l189 1077h-381zM377 -430l-84 24q125 135 127 297h137q-33 -215 -180 -321z" glyph-name="tcommaaccent.salt.sc" horiz-adv-x="999"/><glyph d="M747.5 1137q-83.5 0 -130.5 57t-33 131t60 125t108 72l172 247h168l-201 -249q53 -23 78.5 -73t11.5 -124t-82 -130t-151.5 -56zM770 1243q39 0 70.5 26.5t38 65.5t-15 65.5t-60.5 26.5t-71 -26.5t-38 -66.5t15.5 -65.5t60.5 -25.5zM459 113q100 0 217 46t186 134l15 82 q-160 59 -308 59q-262 0 -295 -166q-12 -68 36.5 -111.5t148.5 -43.5zM652 842q-152 0 -292 -123l-73 94q152 164 413 164q205 0 296 -101.5t59 -295.5l-103 -580h-137l21 133q-74 -72 -189 -112.5t-211 -40.5q-162 0 -245 76.5t-59 209.5t137.5 214t322.5 81q121 0 309 -63 l14 82q23 121 -44 191.5t-219 70.5z" glyph-name="aringacute.aalt" horiz-adv-x="1105"/></font>
</defs>
</svg>
